<svg width="100" height="100" viewBox="0 0 100 100" fill="none" xmlns="http://www.w3.org/2000/svg">
<path d="M52.2344 81.0059L52.2952 84.58" stroke="#D67B29" stroke-width="2.6087" stroke-miterlimit="10" stroke-linecap="round"/>
<path d="M50.5944 83.7997L52.0188 81.3846C52.1795 81.1354 52.362 80.9185 52.5663 80.734L53.4697 79.9844" stroke="#EC8822" stroke-width="2.6087" stroke-miterlimit="10" stroke-linecap="round"/>
<path d="M56.2349 77.353C56.2349 77.353 55.2975 80.3379 53.9296 81.3126C52.3903 82.3796 48.7706 82.6204 46.8067 78.9373L50.4737 77.6011L56.2349 77.353Z" fill="#B2B2B2"/>
<path d="M42.4353 81.7103L43.4667 84.6815" stroke="#D67B29" stroke-width="2.6087" stroke-miterlimit="10" stroke-linecap="round"/>
<path d="M41.1386 84.6278L42.2778 82.0847C42.3912 81.825 42.5346 81.59 42.7381 81.4045L43.5716 80.5779" stroke="#EC8822" stroke-width="2.6087" stroke-miterlimit="10" stroke-linecap="round"/>
<path d="M50.8736 77.1252C50.8736 77.1252 48.8123 80.4978 45.6343 81.4444C42.1722 82.5243 38.0995 80.8128 37.2136 77.3663L50.8736 77.1252Z" fill="#D7D7D7"/>
<path d="M21.8895 58.3588C21.8895 58.3588 25.4645 59.0234 27.6118 56.3979C31.8175 49.9815 36.1912 31.165 53.061 31.9591C75.7503 33.0484 75.7284 51.5608 71.5796 59.2998C72.1874 61.6509 71.8608 65.8349 71.3288 67.9622C69.2668 76.196 60.4061 80.3964 48.9144 79.6047C46.6076 79.4312 44.1858 79.3015 42.2174 78.8406C22.4522 74.157 21.8895 58.3588 21.8895 58.3588Z" fill="#D7D7D7"/>
<path d="M74.0894 49.722C74.6851 56.3215 71.6121 60.0781 71.6121 60.0781C71.6121 60.0781 69.811 59.8827 67.5478 60.7206C63.8264 62.0888 52.5694 62.2224 50.2859 51.7203C48.5441 43.8451 55.0051 35.5 62.3788 35.6894C69.1691 35.9039 73.1336 39.2798 74.0894 49.722Z" fill="url(#paint0_linear_1275_40752)"/>
<path d="M69.6779 47.9537C69.6344 45.8897 68.7626 44.2342 67.7306 44.2559C66.6987 44.2777 65.8973 45.9684 65.9408 48.0324C65.9843 50.0964 66.8561 51.7519 67.8881 51.7302C68.9201 51.7084 69.7214 50.0176 69.6779 47.9537Z" fill="#231F20"/>
<path d="M69.2722 47.2065C69.2564 46.454 68.8775 45.8517 68.426 45.8613C67.9745 45.8708 67.6214 46.4885 67.6372 47.241C67.6531 47.9935 68.032 48.5958 68.4835 48.5863C68.935 48.5767 69.2881 47.959 69.2722 47.2065Z" fill="white"/>
<path d="M76.1816 53.0624C76.1816 53.0624 74.3805 52.8671 73.1186 53.428C72.085 53.8622 71.7428 51.3438 72.5296 50.6084C73.3164 49.8731 76.1816 53.0624 76.1816 53.0624Z" fill="#EC6C22"/>
<path d="M60.7045 34.3015C60.7045 34.3015 60.9092 32.29 60.9105 30.3385C60.9329 29.2416 61.3565 28.3039 61.869 28.5839C62.8412 29.1594 62.4664 30.6192 60.7045 34.3015Z" fill="#989899"/>
<path d="M58.7041 33.8334C58.7041 33.8334 57.1193 31.6308 55.408 30.2966C53.8676 29.0558 55.4311 28.224 56.6296 29.7661C57.8424 31.056 58.7041 33.8334 58.7041 33.8334Z" fill="#989899"/>
<path d="M59.3886 33.6935C59.3886 33.6935 59.2947 31.8758 58.0159 29.6688C56.9326 27.8347 56.3005 27.5923 57.219 26.9543C58.1376 26.3164 58.9739 27.9134 59.3886 33.6935Z" fill="#989899"/>
<path d="M60.9346 72.8522C60.096 72.3817 59.5907 71.5071 59.5133 70.614C58.8989 71.7317 59.2703 73.1187 60.3896 73.772C61.5089 74.4253 62.9348 74.0522 63.6287 72.9701C62.788 73.3571 61.7733 73.3228 60.9346 72.8522Z" fill="#989899"/>
<path d="M59.8769 66.3886C58.9504 65.688 58.5162 64.6545 58.5488 63.6009C57.6654 64.808 57.893 66.474 59.1001 67.3574C60.2684 68.2424 61.975 68.0521 62.9395 66.9194C61.9398 67.2352 60.8017 67.0503 59.8769 66.3886Z" fill="#989899"/>
<path d="M67.1848 69.6206C66.0788 69.2784 65.3013 68.4155 64.9855 67.4159C64.5789 68.8363 65.3833 70.3216 66.8054 70.767C68.2275 71.2125 69.7551 70.4843 70.28 69.0977C69.4121 69.7586 68.2535 70.0033 67.1848 69.6206Z" fill="#989899"/>
<path d="M65.6929 73.8562C65.6929 73.8562 65.009 75.1717 65.2759 75.9396C65.2759 75.9396 66.0555 75.945 66.5667 75.1436C66.5667 75.1436 66.0237 75.2059 65.6929 73.8562Z" fill="#989899"/>
<path d="M52.8769 64.4339C52.3486 62.1183 48.0243 50.3791 35.3769 47.1819C25.0158 44.5879 30.5748 52.4159 33.691 54.1914C33.691 54.1914 31.3745 52.8881 30.2256 54.2626C29.0749 55.5981 30.2026 60.0703 35.7661 61.6626C35.7661 61.6626 30.9212 60.4681 30.7351 64.2953C30.5491 68.1225 35.7211 71.4854 42.8204 72.5439C49.9198 73.6025 53.4441 66.7478 52.8769 64.4339Z" fill="#989899"/>
<path d="M73.567 48.8922C73.567 48.8922 75.813 49.3637 76.1937 52.7769C76.1937 52.7769 73.8632 52.1531 72.1483 52.1489C70.7835 52.1297 72.4712 48.7835 73.567 48.8922Z" fill="#EC8822"/>
<defs>
<linearGradient id="paint0_linear_1275_40752" x1="72.8656" y1="47.7717" x2="54.8176" y2="47.0494" gradientUnits="userSpaceOnUse">
<stop stop-color="#FBF9F2"/>
<stop offset="1" stop-color="white"/>
</linearGradient>
</defs>
</svg>
