<svg width="100" height="100" viewBox="0 0 100 100" fill="none" xmlns="http://www.w3.org/2000/svg">
<path d="M32.8955 74.2266L31.5757 77.5486" stroke="#D67B29" stroke-width="2.6087" stroke-miterlimit="10" stroke-linecap="round"/>
<path d="M30.3062 76.1742L32.5506 74.4935C32.7948 74.3254 33.0468 74.1955 33.3064 74.1038L34.4287 73.7598" stroke="#EC8822" stroke-width="2.6087" stroke-miterlimit="10" stroke-linecap="round"/>
<path d="M37.2544 76.7661C35.9792 76.5475 35.4904 76.6827 34.108 75.7287C32.5804 74.645 31.1208 71.3239 33.9144 68.2227L35.4902 66.755C38.1677 64.2611 42.4134 64.6256 44.6267 67.5393C46.6345 70.1827 46.2039 74.0069 43.2184 75.458C41.2988 76.3909 39.1221 77.0862 37.2544 76.7661Z" fill="#B2B2B2"/>
<path d="M57.8246 82.022L60.7908 83.0676" stroke="#D67B29" stroke-width="2.6087" stroke-miterlimit="10" stroke-linecap="round"/>
<path d="M59.2974 84.8544L58.0191 82.3784C57.8866 82.1278 57.7923 81.8692 57.7741 81.5945L57.6473 80.4275" stroke="#EC8822" stroke-width="2.6087" stroke-miterlimit="10" stroke-linecap="round"/>
<path d="M60.6642 73.9172C60.6642 73.9172 63.3251 76.287 61.9177 79.2894C60.4208 82.5927 56.5768 82.8646 53.4143 81.2332C51.433 80.2112 48.357 76.4122 46.3355 73.7168C45.1073 72.0791 45.2475 69.8196 46.6012 68.284C48.1662 66.5087 50.8429 66.259 52.7092 67.7143L60.6642 73.9172Z" fill="#D7D7D7"/>
<path d="M65.0203 34.0914C65.0203 34.0914 65.0369 31.9497 64.1471 30.2129C63.6664 29.2267 63.3352 28.4781 63.9191 28.4932C65.0468 28.5614 65.7061 30.1754 65.0203 34.0914Z" fill="#989899"/>
<path d="M24.7446 55.3648C24.7446 55.3648 28.2654 56.274 30.5884 53.8025C35.2259 47.691 40.8848 29.2202 57.6599 31.174C80.2204 33.823 78.9238 52.2899 74.2521 59.7249C74.6965 62.1123 74.0826 66.2638 73.4053 68.3495C70.7813 76.4217 61.6525 80.0021 50.2426 78.4211C47.9532 78.0891 45.5461 77.793 43.6141 77.1977C24.2183 71.1643 24.7446 55.3648 24.7446 55.3648Z" fill="#D7D7D7"/>
<path d="M77.4169 50.3416C77.5568 56.9665 74.2325 60.5025 74.2325 60.5025C74.2325 60.5025 72.4491 60.1837 70.1335 60.8637C66.3268 61.9724 55.0873 61.3306 53.5323 50.6963C52.3369 42.7198 59.3571 34.8394 66.7003 35.536C73.4597 36.2176 77.1823 39.8584 77.4169 50.3416Z" fill="url(#paint0_linear_1013_42097)"/>
<path d="M73.138 48.2752C73.2368 46.2131 72.481 44.5015 71.45 44.4521C70.4189 44.4027 69.5031 46.0343 69.4044 48.0964C69.3056 50.1585 70.0614 51.8701 71.0924 51.9195C72.1234 51.9688 73.0393 50.3372 73.138 48.2752Z" fill="#231F20"/>
<path d="M72.7845 47.5011C72.8205 46.7493 72.484 46.1223 72.0329 46.1008C71.5818 46.0792 71.187 46.6711 71.151 47.4229C71.1151 48.1747 71.4516 48.8017 71.9027 48.8232C72.3538 48.8448 72.7486 48.2529 72.7845 47.5011Z" fill="white"/>
<path d="M79.2739 53.8195C79.2739 53.8195 77.4905 53.5006 76.193 53.9733C75.132 54.3353 74.964 51.7993 75.7995 51.1199C76.6351 50.4405 79.2739 53.8195 79.2739 53.8195Z" fill="#EC6C22"/>
<path d="M63.4164 32.9984C63.4164 32.9984 61.4808 31.0398 59.3491 30.634C57.4121 30.2332 58.4235 28.7794 60.1937 29.6043C61.7704 30.3851 63.4164 32.9984 63.4164 32.9984Z" fill="#989899"/>
<path d="M64.455 33.375C64.455 33.375 63.5844 30.8987 61.439 29.5189C59.6379 28.3816 59.2769 27.2817 59.8678 27.0244C61.0496 26.5097 63.2849 27.4245 64.455 33.375Z" fill="#989899"/>
<path d="M62.7012 72.5116C61.8969 71.9844 61.453 71.0771 61.4373 70.1808C60.7474 71.2535 61.0225 72.6628 62.0941 73.3916C63.1658 74.1205 64.614 73.8464 65.3808 72.8147C64.5154 73.1428 63.5054 73.0387 62.7012 72.5116Z" fill="#989899"/>
<path d="M62.0903 65.9909C61.2143 65.2281 60.8523 64.1672 60.9574 63.1183C59.993 64.2617 60.1053 65.9394 61.2487 66.9038C62.3533 67.8672 64.0689 67.7948 65.1091 66.7312C64.0901 66.9775 62.9674 66.7147 62.0903 65.9909Z" fill="#989899"/>
<path d="M69.1587 69.7178C68.0789 69.3003 67.3626 68.3859 67.1164 67.3669C66.613 68.756 67.3132 70.2931 68.7013 70.8354C70.0894 71.3778 71.6634 70.7564 72.2826 69.4093C71.3712 70.0088 70.1985 70.1732 69.1587 69.7178Z" fill="#989899"/>
<path d="M67.3778 73.8405C67.3778 73.8405 66.6049 75.1058 66.8183 75.8903C66.8183 75.8903 67.5957 75.9493 68.1608 75.185C68.1608 75.185 67.6149 75.2098 67.3778 73.8405Z" fill="#989899"/>
<path d="M53.5804 58.6658C52.3167 56.6548 44.3568 47.0035 31.3633 48.1644C20.727 49.1392 28.5601 54.691 32.0879 55.3373C32.0879 55.3373 29.4709 54.8725 28.8406 56.5494C28.1958 58.1901 30.7377 62.0385 36.5149 61.7033C36.5149 61.7033 31.5474 62.1766 32.6362 65.8503C33.725 69.5241 39.7176 70.9894 46.7681 69.643C53.8186 68.2966 54.8802 60.6624 53.5804 58.6658Z" fill="#989899"/>
<path d="M77.3472 49.3444C77.3472 49.3444 79.262 50.6015 79.4068 54.0327C79.4068 54.0327 77.4181 52.6179 75.7076 52.4957C74.3473 52.3826 76.2614 49.1605 77.3472 49.3444Z" fill="#EC8822"/>
<defs>
<linearGradient id="paint0_linear_1013_42097" x1="76.3302" y1="48.3117" x2="58.3749" y2="46.3484" gradientUnits="userSpaceOnUse">
<stop stop-color="#FBF9F2"/>
<stop offset="1" stop-color="white"/>
</linearGradient>
</defs>
</svg>
