<svg width="100" height="100" viewBox="0 0 100 100" fill="none" xmlns="http://www.w3.org/2000/svg">
<path d="M57.7432 81.2158L60.65 83.2963" stroke="#D67B29" stroke-width="2.6087" stroke-miterlimit="10" stroke-linecap="round"/>
<path d="M59.0106 84.1976L57.9194 81.6148C57.815 81.3372 57.7496 81.0614 57.723 80.7874L57.6592 79.6152" stroke="#EC8822" stroke-width="2.6087" stroke-miterlimit="10" stroke-linecap="round"/>
<path d="M61.2566 77.5961C61.2566 77.5961 60.7512 79.2881 59.4926 80.4003C58.0731 81.6222 54.4983 82.2398 52.1605 78.782L55.6679 77.0701L61.2566 77.5961Z" fill="#B2B2B2"/>
<path d="M31.3621 75.8162L29.6069 78.426" stroke="#D67B29" stroke-width="2.6087" stroke-miterlimit="10" stroke-linecap="round"/>
<path d="M28.2514 76.5323L30.9686 75.9148C31.2444 75.8494 31.5185 75.8228 31.789 75.874L32.9506 76.0436" stroke="#EC8822" stroke-width="2.6087" stroke-miterlimit="10" stroke-linecap="round"/>
<path d="M40.8811 76.5176C40.8811 76.5176 37.2624 78.1076 34.1134 77.0685C30.6551 75.9764 28.2908 72.2446 29.5331 68.91L40.8811 76.5176Z" fill="#D7D7D7"/>
<path d="M63.2768 34.6605C63.2768 34.6605 63.3348 32.5195 62.4788 30.7658C62.0172 29.7705 61.7007 29.0156 62.2841 29.0421C63.4103 29.1321 64.0382 30.7585 63.2768 34.6605Z" fill="#989899"/>
<path d="M22.5965 55.1502C22.5965 55.1502 26.099 56.1274 28.4695 53.7014C33.2244 47.6807 39.2397 29.3229 55.9739 31.601C78.4788 34.6861 76.8251 53.1245 72.0103 60.4677C72.4085 62.8632 71.7143 67.0021 70.9969 69.0743C68.2171 77.0942 59.0207 80.4972 47.6435 78.6957C45.361 78.3195 42.96 77.9768 41.0399 77.3442C21.7645 70.9366 22.5965 55.1502 22.5965 55.1502Z" fill="#D7D7D7"/>
<path d="M75.3554 51.1474C75.367 57.7738 71.9748 61.2448 71.9748 61.2448C71.9748 61.2448 70.1979 60.8915 67.8696 61.5265C64.0421 62.5614 52.8172 61.7022 51.4683 51.0398C50.4275 43.0416 57.5989 35.2986 64.9273 36.1372C71.6722 36.9494 75.3237 40.6616 75.3554 51.1474Z" fill="url(#paint0_linear_1013_41852)"/>
<path d="M71.1182 48.998C71.2568 46.9383 70.5343 45.2123 69.5045 45.143C68.4746 45.0737 67.5273 46.6873 67.3887 48.747C67.2501 50.8068 67.9726 52.5328 69.0025 52.6021C70.0323 52.6714 70.9796 51.0578 71.1182 48.998Z" fill="#231F20"/>
<path d="M70.7798 48.2168C70.8303 47.4659 70.5059 46.8325 70.0554 46.8022C69.6048 46.7719 69.1986 47.3561 69.1481 48.1071C69.0976 48.858 69.4219 49.4914 69.8725 49.5217C70.323 49.552 70.7293 48.9678 70.7798 48.2168Z" fill="white"/>
<path d="M77.1455 54.6603C77.1455 54.6603 75.3687 54.307 74.0622 54.7545C72.9944 55.0959 72.8755 52.5571 73.7241 51.894C74.5726 51.2309 77.1455 54.6603 77.1455 54.6603Z" fill="#EC6C22"/>
<path d="M75.0433 50.0057C75.0433 50.0057 76.9899 51.213 77.223 54.6393C77.223 54.6393 75.1986 53.2763 73.4854 53.1982C72.1227 53.1201 73.9531 49.8498 75.0433 50.0057Z" fill="#EC8822"/>
<path d="M61.6941 33.536C61.6941 33.536 59.7968 31.5402 57.6734 31.0933C55.7444 30.6551 56.7838 29.2211 58.5377 30.0801C60.099 30.8913 61.6941 33.536 61.6941 33.536Z" fill="#989899"/>
<path d="M62.7248 33.9332C62.7248 33.9332 61.9023 31.4405 59.7841 30.0194C58.0053 28.8475 57.6657 27.7408 58.2614 27.495C59.453 27.0033 61.6702 27.9612 62.7248 33.9332Z" fill="#989899"/>
<path d="M60.2142 73.0276C59.4203 72.485 58.994 71.5692 58.9957 70.6729C58.2851 71.732 58.5329 73.1463 59.5902 73.8958C60.6476 74.6452 62.1008 74.3993 62.8874 73.3826C62.0158 73.6939 61.0081 73.5703 60.2142 73.0276Z" fill="#989899"/>
<path d="M59.7294 66.4967C58.8683 65.7171 58.5269 64.6493 58.6523 63.6027C57.6659 64.7272 57.7457 66.4068 58.8703 67.3932C59.956 68.3777 61.6727 68.3386 62.7333 67.2953C61.7097 67.5218 60.5923 67.2373 59.7294 66.4967Z" fill="#989899"/>
<path d="M66.724 70.3602C65.6526 69.9219 64.9541 68.9938 64.7276 67.9702C64.1975 69.3493 64.8678 70.8997 66.2451 71.4688C67.6224 72.0378 69.2082 71.4471 69.8533 70.1122C68.9305 70.694 67.7548 70.8356 66.724 70.3602Z" fill="#989899"/>
<path d="M64.8637 74.4478C64.8637 74.4478 64.0665 75.6979 64.2647 76.4864C64.2647 76.4864 65.0408 76.5605 65.6206 75.8073C65.6206 75.8073 65.0743 75.8215 64.8637 74.4478Z" fill="#989899"/>
<path d="M52.9289 63.9336C52.6068 61.5805 49.3341 49.5057 37.0178 45.2062C26.9257 41.709 31.773 49.9964 34.7205 52.0397C34.7205 52.0397 32.528 50.5373 31.2623 51.8052C29.9984 53.0341 30.7275 57.5883 36.129 59.6648C36.129 59.6648 31.4083 58.0478 30.8855 61.8437C30.3628 65.6397 35.2183 69.4453 42.1967 71.1256C49.1751 72.8058 53.2899 66.2885 52.9289 63.9336Z" fill="#989899"/>
<defs>
<linearGradient id="paint0_linear_1013_41852" x1="74.3082" y1="49.0968" x2="56.3941" y2="46.7865" gradientUnits="userSpaceOnUse">
<stop stop-color="#FBF9F2"/>
<stop offset="1" stop-color="white"/>
</linearGradient>
</defs>
</svg>
