<svg width="57" height="73" viewBox="0 0 57 73" fill="none" xmlns="http://www.w3.org/2000/svg">
<g clip-path="url(#clip0_4319:83051)">
<path d="M9.50586 29C4.60506 31.3878 6.4761 38.1429 5.00586 42C13.5059 53.5 25.0059 53.5 27.5059 51.5C27.5059 48 15.935 29.9638 9.50586 29Z" fill="#989899"/>
<path d="M7.31029 26.5306L5.20071 36.6692C4.88585 38.2435 6.08233 39.9122 7.84556 40.3531C9.70324 40.8253 11.372 39.7233 11.435 38.0231L11.7813 28.0419L7.31029 26.5306Z" fill="#FCB316"/>
<path d="M4.41449 19.7611L0.321284 21.3039C0.321284 21.3039 -1.09559 25.9009 2.02155 29.7422C2.02155 29.7422 6.49258 28.9865 6.83893 29.081C7.18528 29.2069 4.41449 19.7611 4.41449 19.7611Z" fill="#F78C1F"/>
<path d="M30.9266 17.7774C32.312 27.8845 28.6911 35.7246 24.1571 36.2913C19.0878 36.9525 14.3649 30.7497 12.6331 20.7056C11.0273 11.4802 14.3334 3.70312 19.4341 3.04191C24.0626 2.47516 29.5727 7.67038 30.9266 17.7774Z" fill="#FEF59F"/>
<path d="M9.13813 15.7623L8.94922 23.319L11.6255 29.9626L20.3472 26.0268L17.7024 15.6364L9.13813 15.7623Z" fill="#FFD54F"/>
<path d="M19.8604 26.215C21.5518 25.8948 22.4694 23.2391 21.9098 20.2834C21.3503 17.3277 19.5255 15.1912 17.8341 15.5114C16.1427 15.8316 15.2251 18.4873 15.7846 21.443C16.3442 24.3987 18.169 26.5352 19.8604 26.215Z" fill="#FFFEF8"/>
<path d="M12.6323 20.7057C11.8136 14.6918 13.3249 9.40212 15.1511 5.74973C12.0025 10.0948 8.97985 14.6288 1.86397 20.2963C1.86397 20.2963 0.321142 26.0583 3.78462 29.6477C3.78462 29.6477 8.88539 29.8996 20.5983 35.5671C16.9773 33.0797 13.5454 27.2863 12.6323 20.7057Z" fill="#FBBF1F"/>
<path d="M5.84329 27.4404C7.35513 25.3244 8.86698 24.1266 10.0838 25.7636C10.9688 27.8796 7.94513 31.5528 7.94513 31.5528C7.94513 31.5528 10.1207 29.9558 10.7844 31.3132C11.4482 32.6707 10.6738 35.0663 7.72387 36.2241C7.72387 36.2241 9.30946 35.5853 9.93632 36.9827C10.7844 38.9391 5.80641 42.5324 5.29017 41.9335C3.15147 39.2984 3.92583 30.5147 5.84329 27.4404Z" fill="#989899"/>
<path d="M51.9491 66.0268C59.2383 76.7409 66.4865 79.2868 64.585 83.0699C62.612 87.024 56.4657 79.4374 56.4657 79.4374C56.4657 79.4374 58.7796 82.9336 57.2282 84.0523C54.8697 85.7573 52.847 81.66 51.3588 79.0708C51.3588 79.0708 53.0781 81.3952 51.8629 82.574C50.0402 84.3422 43.9816 77.3143 45.9818 71.5648C47.2563 67.8409 49.7689 62.7872 51.9491 66.0268Z" fill="#989899"/>
<path d="M52.0713 68.3269C52.0713 68.3269 52.0713 68.3269 52.0228 68.3468C54.4198 58.6674 49.3874 48.4142 39.7807 44.4013C29.1826 39.9742 17.0742 44.834 12.7185 55.2612C8.14864 66.2011 9.69009 76.1605 15.1908 82.313C16.0706 83.2828 17.2386 83.851 18.5295 84.0288C19.202 84.1491 20.3392 84.0219 23.0652 82.5908C25.9507 81.0658 32.4862 83.8761 33.8619 84.8121C35.9469 86.1649 38.1388 89.0881 41.9734 87.5982C45.2891 86.293 50.6661 74.7667 52.0713 68.3269Z" fill="#E7E4E2"/>
<path d="M46.2929 52.4615C44.4697 51.5393 42.5206 51.2069 40.6338 51.3021C38.2026 51.451 35.8778 50.4799 34.2749 48.6459C33.0506 47.2511 31.3958 46.1182 29.4726 45.4353C24.4211 43.6865 18.8075 45.8789 16.4805 50.4881C13.714 55.9576 16.3728 62.5692 22.1504 64.9827C23.7914 65.6682 25.5212 65.949 27.1743 65.8365C29.5228 65.6933 31.8476 66.6644 33.3964 68.4356C34.4783 69.6906 35.8938 70.7236 37.5348 71.4091C43.2783 73.8083 49.8842 71.0668 51.8303 65.2545C53.4934 60.4081 51.073 54.8598 46.2929 52.4615Z" fill="white"/>
<path d="M25.2047 54.9763C26.8096 55.6467 28.6541 54.8891 29.3245 53.2842C29.995 51.6793 29.2374 49.8348 27.6325 49.1644C26.0276 48.494 24.1831 49.2516 23.5127 50.8565C22.8423 52.4614 23.5998 54.3059 25.2047 54.9763Z" fill="#231F20"/>
<path d="M25.5887 52.0445C26.1551 52.2811 26.8061 52.0137 27.0427 51.4473C27.2794 50.8808 27.012 50.2298 26.4455 49.9932C25.8791 49.7566 25.2281 50.024 24.9915 50.5904C24.7549 51.1568 25.0223 51.8078 25.5887 52.0445Z" fill="white"/>
<path d="M42.4704 62.1884C44.0753 62.8588 45.9198 62.1013 46.5902 60.4964C47.2606 58.8915 46.503 57.047 44.8981 56.3766C43.2932 55.7062 41.4487 56.4637 40.7783 58.0686C40.1079 59.6735 40.8655 61.518 42.4704 62.1884Z" fill="#231F20"/>
<path d="M42.8192 59.2415C43.3856 59.4781 44.0366 59.2108 44.2732 58.6443C44.5098 58.0779 44.2424 57.4269 43.676 57.1903C43.1096 56.9537 42.4586 57.221 42.222 57.7875C41.9854 58.3539 42.2527 59.0049 42.8192 59.2415Z" fill="white"/>
<path d="M33.6536 58.3043C33.6536 58.3043 32.3155 59.8734 32.5518 60.1729C32.6656 60.3811 34.3784 60.4139 35.7827 58.1095L33.6536 58.3043Z" fill="#EC8822"/>
<path d="M33.9406 55.6941C33.9406 55.6941 33.5563 58.3443 33.0651 59.424C32.9509 59.6975 33.3611 59.8689 33.6519 59.7495C34.6412 59.3998 35.4595 58.9787 36.0195 57.4459L34.6788 55.5609L33.9406 55.6941Z" fill="#D32E2E"/>
<path d="M34.5715 54.472C34.5715 54.472 33.9505 54.1323 32.2567 55.1112C32.2567 55.1112 34.243 55.2583 36.0878 57.4745C36.0536 57.4602 36.1982 55.1917 34.5715 54.472Z" fill="#EC8822"/>
<path d="M17.7299 68.8376C17.0094 68.2556 16.6853 67.3975 16.7601 66.5454C16.0439 67.4909 16.2023 68.842 17.1336 69.5924C18.0649 70.3428 19.4017 70.2186 20.2061 69.35C19.3567 69.5573 18.4163 69.4054 17.7299 68.8376Z" fill="#989899"/>
<path d="M24.1195 72.6709C23.3418 72.2256 22.8723 71.4272 22.7961 70.5521C22.2366 71.6033 22.6087 72.9232 23.6114 73.5026C24.6483 74.0964 25.9539 73.7584 26.6017 72.7843C25.8319 73.1854 24.917 73.1647 24.1195 72.6709Z" fill="#989899"/>
<path d="M39.5851 46.4073C39.5851 46.4073 41.7549 45.3462 44.0546 45.7045C46.018 46.0027 45.8483 44.4863 43.836 44.6897C42.1686 44.8364 39.5851 46.4073 39.5851 46.4073Z" fill="#989899"/>
<path d="M38.6888 45.4716C38.6888 45.4716 39.1951 43.3944 38.2846 41.7292C37.6559 40.543 38.5655 39.9995 39.0727 40.1311C40.0386 40.4141 40.2338 42.0615 38.6888 45.4716Z" fill="#989899"/>
<path d="M37.8663 44.8468C37.8663 44.8468 36.3855 40.4136 34.2308 40.4773C32.7573 40.5443 36.4119 42.7535 37.8663 44.8468Z" fill="#989899"/>
<path d="M53.4368 67.171C53.4368 67.171 65.3137 72.574 65.0203 78.7554C64.7269 84.9368 34.0525 81.2783 19.0776 72.8145C19.0776 72.8145 29.5402 78.9116 51.0316 79.6577C75.3215 80.5289 53.4368 67.171 53.4368 67.171Z" fill="url(#paint0_linear_4319:83051)"/>
</g>
<defs>
<linearGradient id="paint0_linear_4319:83051" x1="23.1215" y1="64.0188" x2="63.435" y2="82.5379" gradientUnits="userSpaceOnUse">
<stop stop-color="#FFF480"/>
<stop offset="1" stop-color="#FFFFA3" stop-opacity="0"/>
</linearGradient>
<clipPath id="clip0_4319:83051">
<rect width="57" height="73" fill="white"/>
</clipPath>
</defs>
</svg>
