<svg width="371" height="745" viewBox="0 0 371 745" fill="none" xmlns="http://www.w3.org/2000/svg">
<g clip-path="url(#clip0)">
<rect x="-17" width="401" height="745" fill="url(#paint0_linear)"/>
<g clip-path="url(#clip1)">
<rect x="-15" width="401" height="745" fill="url(#paint1_linear)"/>
<path d="M381.469 101.152C378.362 74.0501 355.307 53 327.327 53C297.228 53 272.828 77.3589 272.828 107.407C252.043 107.608 234.509 121.384 228.693 140.279C225.569 139.293 222.243 138.76 218.792 138.76C200.681 138.76 186 153.417 186 171.497C186 189.577 200.681 204.234 218.792 204.234C326.534 204.234 386.953 207 484.357 207C506.803 207 525 188.834 525 166.425C525 144.016 506.803 125.85 484.357 125.85C483.707 125.85 483.061 125.866 482.419 125.896C476.678 106.67 458.833 92.6527 437.71 92.6527C423.032 92.6527 409.938 99.4205 401.387 110.001C395.98 105.167 389.084 101.96 381.469 101.152Z" fill="url(#paint2_linear)"/>
<g opacity="0.8">
<path d="M88.9636 112.003C78.2486 86.5965 42.2454 86.5966 31.5304 112.003L-42.9893 288.7C-53.4917 313.603 -35.2079 341.157 -8.18122 341.157H128.675C155.702 341.157 173.986 313.603 163.483 288.7L88.9636 112.003Z" fill="url(#paint3_linear)"/>
<mask id="mask0" style="mask-type:alpha" maskUnits="userSpaceOnUse" x="-46" y="92" width="213" height="250">
<path d="M88.9617 112.003C78.2467 86.5965 42.2435 86.5966 31.5285 112.003L-42.9912 288.7C-53.4936 313.603 -35.2099 341.157 -8.18317 341.157H128.673C155.7 341.157 173.984 313.603 163.481 288.7L88.9617 112.003Z" fill="url(#paint4_linear)"/>
</mask>
<g mask="url(#mask0)">
<path fill-rule="evenodd" clip-rule="evenodd" d="M21.374 78.7632H99.3824V124.859C98.3947 124.117 97.167 123.677 95.8365 123.677C92.5728 123.677 89.927 126.323 89.9268 129.587H89.3602V132.524C89.3602 134.979 87.3704 136.968 84.9158 136.968C82.4613 136.968 80.4715 134.979 80.4715 132.524V129.587H80.4709V122.496C80.4709 119.232 77.825 116.586 74.5611 116.586C71.2973 116.586 68.6514 119.232 68.6514 122.496V129.587H67.8205C67.2015 131.296 65.5636 132.518 63.6404 132.518C61.7173 132.518 60.0794 131.296 59.4604 129.587H59.1964V126.041C59.1964 124.083 57.6088 122.496 55.6505 122.496C53.6922 122.496 52.1047 124.083 52.1047 126.041V129.587H51.538V134.888C51.538 137.342 49.5482 139.332 47.0937 139.332C44.6392 139.332 42.6494 137.342 42.6494 134.888V129.587H42.5532C42.1831 128.024 40.7787 126.861 39.1028 126.861C37.4268 126.861 36.0224 128.024 35.6523 129.587H35.0439C34.8992 132.582 32.4251 134.966 29.3942 134.966C26.3633 134.966 23.8892 132.582 23.7445 129.587H21.374V78.7632Z" fill="#F9FDFA"/>
</g>
<line x1="30.8418" y1="162.521" x2="37.9095" y2="162.521" stroke="#B9DDC5" stroke-width="2" stroke-linecap="round"/>
<line x1="60.7617" y1="175.439" x2="67.8294" y2="175.439" stroke="#B9DDC5" stroke-width="2" stroke-linecap="round"/>
<line x1="18.2695" y1="199.49" x2="25.3372" y2="199.49" stroke="#B9DDC5" stroke-width="2" stroke-linecap="round"/>
<line x1="84.4639" y1="158.654" x2="91.5315" y2="158.654" stroke="#B9DDC5" stroke-width="2" stroke-linecap="round"/>
<path d="M170.394 182.811C160.359 159.063 126.641 159.063 116.607 182.811L46.8178 347.969C36.9821 371.245 54.1051 397 79.416 397H207.584C232.895 397 250.018 371.245 240.182 347.969L170.394 182.811Z" fill="url(#paint5_linear)"/>
<line x1="112.521" y1="211.255" x2="117.935" y2="211.255" stroke="#FEFAE9" stroke-width="2" stroke-linecap="round"/>
<line x1="123.114" y1="182.037" x2="128.529" y2="182.037" stroke="#FEFAE9" stroke-width="2" stroke-linecap="round"/>
<line x1="138.231" y1="196.132" x2="143.646" y2="196.132" stroke="#FEFAE9" stroke-width="2" stroke-linecap="round"/>
<line x1="152.633" y1="219.67" x2="158.047" y2="219.67" stroke="#FEFAE9" stroke-width="2" stroke-linecap="round"/>
</g>
</g>
</g>
<defs>
<linearGradient id="paint0_linear" x1="183.5" y1="0" x2="183.5" y2="752" gradientUnits="userSpaceOnUse">
<stop offset="0.180248" stop-color="#E8FFFE"/>
<stop offset="0.69825" stop-color="#FCF3E0"/>
<stop offset="1" stop-color="#FFF1EE"/>
</linearGradient>
<linearGradient id="paint1_linear" x1="185.5" y1="0" x2="185.5" y2="752" gradientUnits="userSpaceOnUse">
<stop offset="0.180248" stop-color="#E8FFFE"/>
<stop offset="0.69825" stop-color="#FCF3E0"/>
<stop offset="1" stop-color="#FFF1EE"/>
</linearGradient>
<linearGradient id="paint2_linear" x1="336.667" y1="53" x2="327.9" y2="197.739" gradientUnits="userSpaceOnUse">
<stop stop-color="white"/>
<stop offset="1" stop-color="white" stop-opacity="0.16"/>
</linearGradient>
<linearGradient id="paint3_linear" x1="60.2466" y1="92.9482" x2="59.9995" y2="341" gradientUnits="userSpaceOnUse">
<stop stop-color="#DBF8E5"/>
<stop offset="0.598958" stop-color="#D8EBDA"/>
<stop offset="1" stop-color="#D8EBDA" stop-opacity="0"/>
</linearGradient>
<linearGradient id="paint4_linear" x1="60.2451" y1="92.9482" x2="60.2451" y2="341.157" gradientUnits="userSpaceOnUse">
<stop stop-color="#EFFCF5"/>
<stop offset="1" stop-color="#EFFCF5" stop-opacity="0"/>
</linearGradient>
<linearGradient id="paint5_linear" x1="131.5" y1="140.5" x2="151.125" y2="359.034" gradientUnits="userSpaceOnUse">
<stop stop-color="#C3E7CD"/>
<stop offset="0.901042" stop-color="#E5F9EA"/>
<stop offset="1" stop-color="#E5F9EA" stop-opacity="0"/>
</linearGradient>
<clipPath id="clip0">
<rect width="371" height="745" fill="white"/>
</clipPath>
<clipPath id="clip1">
<rect width="371" height="745" fill="white" transform="translate(2)"/>
</clipPath>
</defs>
</svg>
