<svg width="87" height="99" viewBox="0 0 87 99" fill="none" xmlns="http://www.w3.org/2000/svg">
<path opacity="0.4" d="M82.9732 27.0046C84.4734 28.0391 85.6183 29.1844 86.4078 30.4405C87.1974 31.6228 87.1974 32.6573 86.4078 33.544C85.6972 34.4307 83.9602 35.0218 81.1967 35.3173C78.5122 35.6129 74.4065 35.3173 68.8796 34.4306C66.5899 34.0612 63.629 33.9873 59.9971 34.209C56.3651 34.4307 52.2989 34.874 47.7984 35.539C47.1667 35.7607 46.6535 35.9824 46.2587 36.204C45.864 36.4257 45.5087 36.7213 45.1928 37.0907C44.877 37.4602 44.5612 37.9405 44.2454 38.5316C43.9295 39.0489 43.5742 39.7508 43.1795 40.6375C44.2848 40.4897 45.1139 40.3789 45.6666 40.305C46.2193 40.1572 46.772 39.9355 47.3246 39.64C48.43 39.0489 49.8512 38.938 51.5883 39.3075C53.4043 39.6769 55.4176 40.8222 57.6284 42.7434C60.076 44.8124 61.6551 46.8444 62.3658 48.8394C63.1553 50.8345 63.4317 53.4207 63.1948 56.598C63.0369 59.1842 62.9974 62.9526 63.0764 67.9034C63.2343 72.8541 63.4711 78.6545 63.787 85.3047C63.787 86.2653 63.7475 87.1151 63.6685 87.854C63.6685 88.6668 63.5106 89.5535 63.1948 90.5141C62.879 91.4746 62.3657 92.5461 61.6551 93.7283C60.9445 94.9106 59.9576 96.3884 58.6943 98.1618C57.9837 98.9746 56.9967 99.1963 55.7335 98.8268C54.5491 98.4574 52.9305 96.9795 50.8777 94.3933C50.1671 93.5067 49.5749 92.7308 49.1012 92.0658C48.7064 91.4746 48.3511 90.9205 48.0353 90.4032C47.7194 89.886 47.4826 89.3687 47.3246 88.8515C47.1667 88.4082 47.0483 87.8909 46.9693 87.2998C42.8636 87.2259 39.7449 87.4845 37.6131 88.0757C35.4813 88.6668 33.6258 89.6643 32.0467 91.0682C30.5465 92.3244 29.2832 92.583 28.2568 91.8441C27.3093 91.1791 26.6382 89.6643 26.2434 87.2998C24.0327 83.8269 22.6904 80.354 22.2167 76.8811C21.7429 73.4082 21.8219 69.3442 22.4535 64.6891C23.0062 60.7729 23.5194 57.5955 23.9932 55.1571C24.4669 52.7187 24.9012 50.7976 25.2959 49.3936C25.7697 47.9897 26.2434 46.9552 26.7172 46.2902C27.1909 45.5513 27.7041 44.9232 28.2568 44.406C29.2832 43.4454 30.1123 42.6695 30.7439 42.0784C31.3756 41.4873 31.8493 41.007 32.1651 40.6375C32.4809 40.2681 32.6783 39.9355 32.7573 39.64C32.8362 39.2705 32.8757 38.8641 32.8757 38.4208C30.8229 39.0858 28.5726 39.8986 26.125 40.8592C23.7563 41.8198 21.3482 42.8173 18.9005 43.8518C16.4529 44.8863 14.0842 45.9946 11.7945 47.1769C9.50477 48.2853 7.41244 49.3936 5.5175 50.502C3.46464 51.7581 1.45127 52.2015 -0.522628 51.832C-2.41757 51.3887 -4.07564 50.6498 -5.49685 49.6153C-6.99701 48.5808 -8.06292 47.4724 -8.69457 46.2902C-9.24726 45.034 -9.04987 44.3321 -8.1024 44.1843C-7.5497 44.1104 -7.03649 43.9996 -6.56275 43.8518C-6.08902 43.6301 -5.37842 43.2237 -4.43095 42.6326C-2.29914 41.4503 -0.206805 40.3789 1.84605 39.4183C3.8989 38.4577 5.95175 37.6449 8.00461 36.9799C10.1364 36.241 12.3472 35.576 14.6369 34.9848C17.0056 34.3937 19.5716 33.8395 22.3351 33.3223C24.5459 32.8789 26.4803 32.2878 28.1384 31.5489C29.8754 30.81 31.2966 30.0341 32.402 29.2213C33.1915 28.6302 33.9811 28.0021 34.7707 27.3371C35.5602 26.5982 36.4287 25.6745 37.3762 24.5662C38.3237 23.4578 39.4291 22.1278 40.6924 20.5761C41.9556 18.9505 43.4953 16.9184 45.3113 14.48C48.6274 9.97267 50.2855 6.68451 50.2855 4.61556C50.2855 3.80276 50.0486 3.24857 49.5749 2.95301C49.1012 2.58355 48.1142 2.43577 46.614 2.50966C44.6401 2.65745 42.7452 3.47025 40.9292 4.94807C39.1922 6.352 37.6526 8.01456 36.3103 9.93573C35.047 11.8569 34.0601 13.8889 33.3495 16.0318C32.7178 18.1007 32.5599 19.8741 32.8757 21.3519C33.3495 22.9036 33.1521 24.1228 32.2835 25.0095C31.494 25.8962 30.3886 26.4135 28.9674 26.5612C26.5987 26.7829 24.8222 26.3026 23.6379 25.1204C22.4535 23.8642 21.664 21.7583 21.2692 18.8027C21.1113 18.2115 20.9929 17.4726 20.9139 16.5859C20.8349 15.6992 20.7165 14.8125 20.5586 13.9259C20.4796 12.9653 20.4007 12.0416 20.3217 11.1549C20.2428 10.1943 20.1638 9.38154 20.0849 8.71652C20.0059 7.82983 20.2822 7.46037 20.9139 7.60815C21.5455 7.75594 22.493 8.56874 23.7563 10.0466C24.4669 10.8594 25.8881 10.6746 28.0199 9.49238C29.9938 8.60568 31.7703 7.68204 33.3495 6.72146C34.9286 5.76087 36.3498 4.83724 37.6131 3.95054C40.8503 1.58602 43.7322 0.292926 46.2587 0.0712505C48.8643 -0.15042 51.1935 0.145147 53.2463 0.957948C54.9834 1.62297 56.5625 2.47272 57.9837 3.50719C59.4049 4.54167 60.4708 5.65004 61.1814 6.8323C61.971 8.01456 62.2868 9.27071 62.1289 10.6007C62.0499 11.8569 61.3393 13.0761 59.9971 14.2584C57.5494 16.3273 54.8255 18.6549 51.8251 21.2411C48.9038 23.7534 45.9429 26.3396 42.9426 28.9997C48.3906 28.113 52.8516 27.4849 56.3256 27.1154C59.8786 26.6721 62.9579 26.3765 65.5635 26.2287C67.3005 26.1548 68.6822 26.044 69.7086 25.8962C70.7351 25.7484 71.5246 25.6007 72.0773 25.4529C73.9723 24.8617 75.6303 24.6401 77.0515 24.7879C78.5517 24.8617 80.5256 25.6007 82.9732 27.0046ZM50.2855 72.226C46.4167 74.4427 41.8372 76.2161 36.5472 77.5462C34.4943 78.2112 33.231 78.4329 32.7573 78.2112C32.2836 77.9156 32.2046 77.4353 32.5204 76.7703C32.6783 76.2531 32.5599 75.8097 32.1651 75.4403C31.7703 74.9969 30.8623 74.4797 29.4411 73.8885C29.2043 75.3664 29.2043 76.8811 29.4411 78.4329C29.757 79.9107 30.1123 81.2038 30.507 82.3121C31.7703 82.0905 32.9152 81.9057 33.9416 81.758C35.047 81.6102 36.1524 81.4624 37.2578 81.3146C38.3632 81.1668 39.5475 81.056 40.8108 80.9821C42.153 80.8343 43.7716 80.6496 45.6666 80.4279C47.0088 80.2801 48.1932 80.391 49.2196 80.7604C50.325 81.056 51.7857 81.8319 53.6016 83.088C53.6806 81.3146 53.7596 79.2826 53.8385 76.992C53.9175 74.6275 53.9964 72.2629 54.0754 69.8984C53.2069 70.6373 51.9436 71.4132 50.2855 72.226ZM51.3514 47.9527C50.8777 46.9183 50.4434 46.2163 50.0486 45.8468C49.7328 45.4774 49.2196 45.5882 48.509 46.1794C45.8245 48.3961 43.3769 49.837 41.1661 50.502C39.0343 51.0931 36.9419 51.3887 34.8891 51.3887C33.31 51.3887 32.2046 51.2409 31.5729 50.9453C30.9413 50.5759 30.3097 49.7631 29.678 48.5069C29.9938 49.837 30.1912 51.0931 30.2702 52.2754C30.3491 53.4576 30.4281 54.6029 30.507 55.7113C32.2441 55.5635 34.0206 55.3049 35.8366 54.9355C37.7315 54.4921 39.1922 54.0118 40.2186 53.4946C40.8503 53.199 41.6003 52.9404 42.4689 52.7187C43.4163 52.4971 44.3638 52.3493 45.3113 52.2754C46.2587 52.2015 47.1667 52.2015 48.0353 52.2754C48.9038 52.3493 49.6144 52.4971 50.1671 52.7187C51.5093 53.0882 52.5357 53.4207 53.2463 53.7163C53.0095 52.6079 52.7331 51.6473 52.4173 50.8345C52.1015 49.9478 51.7462 48.9872 51.3514 47.9527ZM53.7201 58.1497C52.6937 58.667 51.1935 59.2211 49.2196 59.8123C47.2457 60.3295 45.5876 61.1793 44.2454 62.3615C42.9031 63.4699 41.7977 64.5783 40.9292 65.6866C42.0346 65.6866 43.1005 65.6497 44.1269 65.5758C45.1534 65.5019 46.1008 65.465 46.9693 65.465C48.5485 65.3911 49.9302 65.428 51.1145 65.5758C52.2989 65.6497 53.2858 65.7605 54.0754 65.9083C53.9964 64.2827 53.9175 62.8418 53.8385 61.5857C53.8385 60.3295 53.799 59.1842 53.7201 58.1497ZM40.8108 62.8049C41.0477 62.5093 40.9687 62.3246 40.5739 62.2507C40.1791 62.1029 39.6659 62.029 39.0343 62.029C38.4026 62.029 37.7315 62.029 37.0209 62.029C36.3893 62.029 35.955 62.029 35.7181 62.029C34.8496 61.8812 33.9811 61.8443 33.1126 61.9182C32.2441 61.9182 31.415 61.9921 30.6255 62.1399C30.6255 63.1004 30.586 63.9871 30.507 64.7999C30.507 65.6127 30.4281 66.5364 30.2702 67.5709C30.4281 67.5709 30.9018 67.497 31.6914 67.3492C32.4809 67.2014 33.3889 66.9428 34.4154 66.5733C35.5207 66.13 36.6261 65.6127 37.7315 65.0216C38.9158 64.4305 39.9423 63.6916 40.8108 62.8049Z" fill="url(#paint0_linear_8060_71243)"/>
<defs>
<linearGradient id="paint0_linear_8060_71243" x1="39" y1="0" x2="39" y2="99" gradientUnits="userSpaceOnUse">
<stop stop-color="#EED084"/>
<stop offset="0.880208" stop-color="#D5BA77" stop-opacity="0"/>
</linearGradient>
</defs>
</svg>
