<svg width="351" height="165" viewBox="0 0 351 165" fill="none" xmlns="http://www.w3.org/2000/svg">
<mask id="mask0" style="mask-type:alpha" maskUnits="userSpaceOnUse" x="0" y="0" width="351" height="165">
<path d="M0 0H351V165H0V0Z" fill="white"/>
</mask>
<g mask="url(#mask0)">
<mask id="mask1" style="mask-type:alpha" maskUnits="userSpaceOnUse" x="0" y="0" width="351" height="165">
<path d="M0 0H351V165H0V0Z" fill="white"/>
</mask>
<g mask="url(#mask1)">
<path d="M0 0H351V165H0V0Z" fill="#F6F6F6"/>
<path d="M89.5217 114.204C89.5217 114.204 79.3161 119.09 78.4773 140.031C77.4987 163.485 98.4692 181.634 120.978 187.777L89.5217 114.204Z" fill="#B2B2B2"/>
<path d="M260.924 114.204C260.924 114.204 271.129 119.09 271.968 140.031C272.947 163.485 251.976 181.634 229.468 187.777L260.924 114.204Z" fill="#B2B2B2"/>
<path d="M174.945 20.1094C127.551 20.1094 89.2451 57.9427 89.2451 104.432C89.2451 153.294 110.915 188.754 141.811 203.413C148.382 206.484 155.932 205.925 162.223 202.575C165.997 200.481 170.331 199.364 174.945 199.364C179.558 199.364 183.892 200.481 187.667 202.575C193.958 206.065 201.647 206.484 208.078 203.413C238.975 188.754 260.645 153.294 260.645 104.432C260.645 57.803 222.199 20.1094 174.945 20.1094Z" fill="#EEEDEB"/>
<path d="M212.41 40.3522C204.021 39.7937 195.913 41.6086 189.062 45.0987C180.115 49.7058 169.63 49.7058 160.682 45.0987C153.692 41.6086 145.723 39.7937 137.335 40.3522C115.246 41.8878 97.3512 59.7575 95.8134 81.8154C93.9959 107.922 114.687 129.7 140.411 129.7C147.82 129.7 154.811 127.886 160.962 124.675C169.63 120.207 180.115 120.207 188.783 124.675C194.934 127.886 201.924 129.7 209.334 129.7C235.058 129.7 255.749 107.922 253.931 81.8154C252.533 59.7575 234.499 41.8878 212.41 40.3522Z" fill="white"/>
<path fill-rule="evenodd" clip-rule="evenodd" d="M120.699 150.362C116.785 148.966 114.128 145.755 113.15 142.125C111.472 147.291 114.128 152.735 119.161 154.55C124.194 156.365 129.786 153.852 131.883 148.827C128.668 151.06 124.614 151.758 120.699 150.362ZM142.09 176.888C138.175 175.491 135.519 172.28 134.54 168.651C132.863 173.816 135.519 179.261 140.552 181.076C145.585 182.891 151.177 180.378 153.274 175.352C150.059 177.586 146.004 178.284 142.09 176.888ZM168.652 176.748C170.749 179.959 174.384 182.193 178.438 182.332C182.492 182.472 186.267 180.657 188.643 177.585C188.224 182.891 183.611 187.079 178.298 186.8C172.846 186.52 168.652 182.053 168.652 176.748ZM211.011 175.771C214.925 174.375 217.582 171.164 218.56 167.534C220.238 172.699 217.582 178.144 212.549 179.959C207.516 181.774 201.924 179.261 199.827 174.235C203.042 176.469 207.096 177.167 211.011 175.771ZM144.885 150.362C146.423 153.852 149.638 156.505 153.693 157.342C157.747 158.04 161.801 156.784 164.597 154.271C163.199 159.436 158.166 162.787 152.854 161.81C147.541 160.693 144.046 155.667 144.885 150.362ZM228.629 150.362C232.543 148.966 235.199 145.755 236.178 142.125C237.856 147.291 235.199 152.735 230.166 154.55C225.134 156.365 219.541 153.852 217.444 148.827C220.66 151.06 224.714 151.758 228.629 150.362ZM204.439 150.362C202.901 153.852 199.685 156.505 195.631 157.342C191.577 158.04 187.522 156.784 184.726 154.271C186.124 159.436 191.157 162.787 196.47 161.81C201.782 160.693 205.278 155.667 204.439 150.362Z" fill="#D8D8D8"/>
<path d="M177.312 30.7192C177.312 30.7192 183.882 23.0408 193.249 20.6675C201.218 18.5734 198.003 12.9891 190.733 17.0377C184.721 20.3883 177.312 30.7192 177.312 30.7192Z" fill="#BFBFC0"/>
<path d="M172.421 28.6252C172.421 28.6252 171.023 19.6905 165.012 14.6647C160.678 11.0349 163.334 7.40522 165.431 7.26561C169.485 6.70719 172.841 12.7102 172.421 28.6252Z" fill="#BFBFC0"/>
<path d="M168.368 27.3689C168.368 27.3689 155.646 12.431 147.677 16.34C142.085 18.9925 159.421 21.6451 168.368 27.3689Z" fill="#BFBFC0"/>
<path d="M222.844 134.953C222.844 147.007 201.02 156.778 174.1 156.778C147.179 156.778 125.355 147.007 125.355 134.953C125.355 132.937 125.355 127.678 125.355 127.678C125.355 127.678 151.68 113.127 174.1 113.127C197.682 113.127 222.844 129.133 222.844 129.133C222.844 129.133 222.844 133.458 222.844 134.953Z" fill="url(#paint0_linear)"/>
<path d="M222.98 128.489C222.98 140.992 201.126 151.127 174.168 151.127C147.21 151.127 125.355 140.992 125.355 128.489C125.355 115.987 147.21 105.852 174.168 105.852C201.126 105.852 222.98 115.987 222.98 128.489Z" fill="#FCEF86"/>
<path d="M222.98 128.489C222.98 140.992 201.126 151.127 174.168 151.127C147.21 151.127 125.355 140.992 125.355 128.489C125.355 115.987 147.21 105.852 174.168 105.852C201.126 105.852 222.98 115.987 222.98 128.489Z" fill="#ECECEC"/>
<ellipse cx="174.164" cy="128.489" rx="34.3906" ry="15.9493" fill="url(#paint1_linear)"/>
<g filter="url(#filter0_d)">
<path d="M175.251 118.947C179.335 118.947 177.004 121.234 177.578 121.269C179.345 121.375 180.706 121.643 181.662 122.075C182.928 122.63 183.561 123.344 183.561 124.218C183.561 124.958 183.118 125.521 182.232 125.908C181.377 126.295 180.126 126.488 178.48 126.488C178.037 126.488 177.736 126.463 177.578 126.413C177.42 126.362 177.341 126.27 177.341 126.135C177.341 125.984 177.309 125.816 177.246 125.631C177.214 125.429 177.103 125.244 176.913 125.076C176.755 124.891 176.486 124.74 176.106 124.622C175.758 124.504 175.251 124.445 174.587 124.445C173.7 124.445 172.988 124.563 172.45 124.798C171.912 125.017 171.643 125.295 171.643 125.631C171.643 125.984 171.912 126.27 172.45 126.488C173.02 126.69 173.716 126.883 174.539 127.068C175.394 127.253 176.312 127.447 177.293 127.648C178.275 127.833 179.177 128.086 180 128.405C180.854 128.725 181.551 129.128 182.089 129.616C182.659 130.086 182.944 130.7 182.944 131.457C182.944 132.667 182.137 133.659 180.522 134.433C179.424 134.959 177.952 135.306 176.106 135.474C175.239 135.553 177.198 137.863 173.162 137.863C169.126 137.863 171.342 135.551 170.171 135.467C169.031 135.4 167.939 135.29 166.894 135.139C165.85 134.971 164.963 134.752 164.235 134.483C163.539 134.214 163.19 133.878 163.19 133.474C163.19 133.323 163.238 133.138 163.333 132.92C163.46 132.701 163.634 132.491 163.855 132.289C164.108 132.087 164.393 131.919 164.71 131.785C165.058 131.633 165.47 131.558 165.945 131.558C166.324 131.558 166.673 131.608 166.989 131.709C167.306 131.81 167.67 131.919 168.081 132.037C168.524 132.138 169.063 132.239 169.696 132.34C170.329 132.44 171.168 132.491 172.212 132.491C173.004 132.491 173.7 132.44 174.302 132.34C174.935 132.239 175.251 132.012 175.251 131.659C175.251 131.339 174.998 131.087 174.492 130.902C173.985 130.7 173.336 130.515 172.545 130.347C171.785 130.179 170.946 130.002 170.028 129.817C169.142 129.616 168.303 129.355 167.511 129.036C166.752 128.716 166.119 128.313 165.612 127.825C165.106 127.321 164.852 126.673 164.852 125.883C164.852 125.025 165.169 124.302 165.802 123.714C166.467 123.109 167.306 122.621 168.319 122.251C169.363 121.881 170.535 121.621 171.833 121.469C173.13 121.301 171.833 118.947 175.251 118.947Z" fill="url(#paint2_linear)"/>
</g>
<path d="M213.395 95.3572C220.576 95.3572 226.397 89.5443 226.397 82.3737C226.397 75.203 220.576 69.3901 213.395 69.3901C206.215 69.3901 200.394 75.203 200.394 82.3737C200.394 89.5443 206.215 95.3572 213.395 95.3572Z" fill="#797677"/>
<path d="M210.038 83.77C212.586 83.77 214.652 81.7074 214.652 79.163C214.652 76.6185 212.586 74.5559 210.038 74.5559C207.49 74.5559 205.425 76.6185 205.425 79.163C205.425 81.7074 207.49 83.77 210.038 83.77Z" fill="white"/>
<path d="M122.937 86.2827C122.937 86.2827 126.991 78.7441 133.841 78.7441C140.692 78.7441 148.241 86.9808 149.639 91.7273C149.639 91.7273 138.315 76.0916 122.937 86.2827Z" fill="#797677"/>
<path d="M166.417 96.7531L173.966 108.201L180.537 96.7531C180.397 96.7531 173.547 93.4024 166.417 96.7531Z" fill="#F1B578"/>
</g>
</g>
<defs>
<filter id="filter0_d" x="163.19" y="118.947" width="20.3707" height="19.9156" filterUnits="userSpaceOnUse" color-interpolation-filters="sRGB">
<feFlood flood-opacity="0" result="BackgroundImageFix"/>
<feColorMatrix in="SourceAlpha" type="matrix" values="0 0 0 0 0 0 0 0 0 0 0 0 0 0 0 0 0 0 127 0" result="hardAlpha"/>
<feOffset dy="1"/>
<feComposite in2="hardAlpha" operator="out"/>
<feColorMatrix type="matrix" values="0 0 0 0 0.72549 0 0 0 0 0.72549 0 0 0 0 0.72549 0 0 0 0.5 0"/>
<feBlend mode="normal" in2="BackgroundImageFix" result="effect1_dropShadow"/>
<feBlend mode="normal" in="SourceGraphic" in2="effect1_dropShadow" result="shape"/>
</filter>
<linearGradient id="paint0_linear" x1="215.643" y1="126.52" x2="204.974" y2="165.277" gradientUnits="userSpaceOnUse">
<stop stop-color="#D7D7D7"/>
<stop offset="1" stop-color="#B1B1B1"/>
</linearGradient>
<linearGradient id="paint1_linear" x1="162.516" y1="113.183" x2="172.758" y2="148.619" gradientUnits="userSpaceOnUse">
<stop stop-color="#D1D1D1"/>
<stop offset="0.993809" stop-color="white"/>
</linearGradient>
<linearGradient id="paint2_linear" x1="169.363" y1="122.226" x2="171.886" y2="136.608" gradientUnits="userSpaceOnUse">
<stop stop-color="white"/>
<stop offset="0.0001" stop-color="white"/>
<stop offset="1" stop-color="#F1F1F1"/>
</linearGradient>
</defs>
</svg>
