<svg width="120" height="120" viewBox="0 0 120 120" fill="none" xmlns="http://www.w3.org/2000/svg">
<path d="M52.8258 94.8251L39.5258 98.625L24.8008 74.4L45.2258 69.175L52.8258 94.8251Z" fill="#989899"/>
<ellipse cx="66.1254" cy="110.025" rx="43.225" ry="6.175" fill="#C4E9E6"/>
<path d="M63.6942 109.898C63.5232 109.955 63.3523 109.898 63.1813 109.841C62.6115 109.67 62.3265 109.043 62.5545 108.531L63.1243 106.878L59.8192 108.474C59.3064 108.702 58.6796 108.474 58.4516 107.961C58.2237 107.448 58.4516 106.821 58.9645 106.593L64.4919 103.972C64.8908 103.801 65.3467 103.858 65.6316 104.143C65.9165 104.428 66.0875 104.884 65.9165 105.283L64.5489 109.271C64.378 109.613 64.0361 109.841 63.6942 109.898Z" fill="#EC8822"/>
<path d="M87.6855 112.805C87.5145 112.862 87.3436 112.919 87.1726 112.919C86.6028 112.862 86.1469 112.349 86.2039 111.779L86.3179 110.069L83.5257 112.406C83.0698 112.805 82.443 112.748 82.0441 112.292C81.6452 111.836 81.7022 111.209 82.1581 110.81L86.8877 106.878C87.2296 106.593 87.6855 106.536 88.0274 106.764C88.4263 106.935 88.5972 107.334 88.5972 107.79L88.2553 112.007C88.2553 112.349 88.0274 112.634 87.6855 112.805Z" fill="#EC8822"/>
<path d="M79.8783 32.0582C60.4468 30.0068 42.9527 44.7657 41.642 63.3994C40.3314 82.546 47.8533 95.8233 59.3641 103.402C61.8144 105.055 64.8345 105.34 67.4558 104.428C69.0513 103.858 70.8178 103.744 72.6413 104.029C74.5218 104.314 76.2313 105.112 77.6559 106.137C80.1062 107.904 86.0326 108.531 88.7678 107.79C102.045 104.143 109.909 91.3786 112.017 71.2062C114.126 51.5467 99.9367 34.1666 79.8783 32.0582Z" fill="#E7E4E2"/>
<path d="M50.3605 80.4947C49.0499 79.9819 48.1382 78.7852 47.7963 77.3606C47.2834 79.2981 48.1382 81.4065 49.8477 82.0903C51.5572 82.7741 53.4377 81.8053 54.1215 79.9249C53.0388 80.7227 51.6712 81.0076 50.3605 80.4947Z" fill="#989899"/>
<path d="M55.2604 92.6887C54.0067 91.8909 53.2659 90.4663 53.152 89.0417C52.2402 90.8652 52.8101 93.0876 54.4626 94.1703C56.1151 95.253 58.2235 94.7401 59.3062 93.0306C57.9956 93.5435 56.514 93.4865 55.2604 92.6887Z" fill="#989899"/>
<path d="M65.4041 97.3044C63.8086 96.9625 62.4979 95.8798 61.8141 94.5122C61.5862 96.6206 63.0678 98.6151 65.1762 99.0709C67.2846 99.5268 69.279 98.2162 69.6779 96.1648C68.5952 97.1905 67.0567 97.6463 65.4041 97.3044Z" fill="#989899"/>
<path d="M77.8828 96.1647C79.4214 95.8228 80.5611 94.7401 81.0739 93.4294C81.5868 95.4239 80.3901 97.3043 78.3957 97.8172C76.4013 98.2731 74.3498 97.1334 73.666 95.2529C74.8057 96.1077 76.3443 96.5636 77.8828 96.1647Z" fill="#989899"/>
<path d="M60.5612 86.1927C59.0796 85.6228 57.9399 84.4262 57.4841 82.9446C56.9712 84.939 58.0539 87.1044 60.0483 87.8452C62.0428 88.586 64.1512 87.5603 64.835 85.6228C63.6383 86.4776 62.0428 86.7625 60.5612 86.1927Z" fill="#989899"/>
<path d="M86.4877 85.5659C87.9693 85.0531 88.995 83.7995 89.3369 82.3179C90.1347 84.4833 89.166 86.7056 87.1715 87.3325C85.2341 87.9593 82.9547 86.8196 82.043 84.7682C83.3536 85.7369 85.0061 86.0788 86.4877 85.5659Z" fill="#989899"/>
<path d="M73.723 87.3897C75.4325 87.3327 76.8571 86.421 77.6549 85.1104C77.7689 87.3327 76.0594 89.1562 73.837 89.2132C71.6146 89.2702 69.7341 87.6177 69.4492 85.4523C70.4749 86.7059 72.0135 87.4467 73.723 87.3897Z" fill="#989899"/>
<path d="M81.8734 47.1014C79.1382 46.8165 75.9471 47.1584 73.1548 48.0132C71.1604 48.64 68.995 48.1841 67.4564 46.7025C65.6899 45.05 63.0687 43.9673 60.2195 43.6824C51.7859 42.8276 44.7198 49.3808 43.7511 58.2703C42.7824 67.2738 49.0506 75.1945 57.6552 75.8214C59.4787 75.9353 60.8463 75.7074 62.1569 75.2515C64.1514 74.4537 66.3738 74.7387 68.0833 75.9923C71.1034 78.2147 75.2633 79.6963 79.0242 79.9812C88.3696 80.665 96.4043 73.8269 97.1451 64.8804C97.8289 55.9339 91.0478 48.0702 81.8734 47.1014Z" fill="white"/>
<path d="M87.3685 61.9641C88.1416 59.4032 86.6679 56.6932 84.0769 55.911C81.486 55.1288 78.7588 56.5707 77.9857 59.1315C77.2127 61.6923 78.6863 64.4024 81.2773 65.1846C83.8683 65.9668 86.5954 64.5249 87.3685 61.9641Z" fill="#231F20"/>
<path d="M85.243 59.635C85.4704 58.8818 85.0686 58.0942 84.3455 57.876C83.6225 57.6577 82.852 58.0913 82.6246 58.8445C82.3972 59.5977 82.799 60.3852 83.5221 60.6035C84.2452 60.8218 85.0156 60.3882 85.243 59.635Z" fill="white"/>
<path d="M58.3816 57.5599C59.1547 54.999 57.8031 52.3258 55.3628 51.5891C52.9224 50.8524 50.3174 52.3312 49.5443 54.892C48.7712 57.4528 50.1228 60.126 52.5631 60.8627C55.0035 61.5995 57.6085 60.1207 58.3816 57.5599Z" fill="#231F20"/>
<path d="M56.4386 55.291C56.666 54.5378 56.2886 53.7576 55.5957 53.5484C54.9027 53.3393 54.1567 53.7803 53.9293 54.5334C53.7019 55.2866 54.0793 56.0668 54.7722 56.276C55.4652 56.4852 56.2112 56.0442 56.4386 55.291Z" fill="white"/>
<path d="M62.4974 59.353C62.4974 59.353 61.8706 60.9486 62.4405 65.7922C62.4405 65.7922 65.0047 63.2279 68.9366 60.0368C68.9366 60.0368 65.0617 57.3586 62.4974 59.353Z" fill="#EC8822"/>
<path d="M106.833 69.0405C106.833 69.0405 100.052 70.6361 99.7096 78.4429C99.3107 86.1927 105.636 90.2956 102.16 99.242C102.16 99.242 114.411 92.9168 115.437 80.8932C116.121 72.3456 112.987 67.9009 106.833 69.0405Z" fill="#989899"/>
<path d="M79.4805 35.705C79.4805 35.705 82.8425 33.0837 86.9454 32.8558C90.4214 32.6849 89.6236 30.0636 86.2046 31.1463C83.4693 32.058 79.4805 35.705 79.4805 35.705Z" fill="#989899"/>
<path d="M77.2589 35.6477C77.2589 35.6477 77.4299 31.7728 75.3215 29.1515C73.8399 27.271 75.2075 26.0174 76.1762 26.0744C77.8858 26.2453 78.7975 29.0375 77.2589 35.6477Z" fill="#989899"/>
<path d="M75.6052 34.7936C75.6052 34.7936 71.7872 27.8985 68.3112 28.7533C65.9179 29.3801 72.585 31.8304 75.6052 34.7936Z" fill="#989899"/>
<path d="M44.2552 51.7152L23.375 68.7001L45.7 100.525L94.9709 81.3469C94.9709 81.3469 115.028 73.7775 111.781 60.8327C111.138 58.2684 108.685 46.3018 97.2503 38.6129C80.7249 27.5011 65.9091 32.9065 57.6464 36.8994C51.6631 39.7908 44.2552 51.7152 44.2552 51.7152Z" fill="url(#paint0_linear_1333_6816)"/>
<path d="M20.934 71.8802C20.4496 69.6399 22.1268 67.5131 24.4184 67.4619L37.9242 67.1604C39.6722 67.1214 41.202 68.3279 41.5715 70.0368L47.5011 97.4615C47.9855 99.7019 46.3082 101.829 44.0167 101.88L30.5108 102.181C28.7629 102.22 27.233 101.014 26.8636 99.305L20.934 71.8802Z" fill="#737373"/>
<path d="M20.3937 72.7263C19.9137 70.4876 21.5904 68.3652 23.8794 68.3141L36.1732 68.0397C37.9234 68.0006 39.4547 69.2104 39.8218 70.9222L45.5518 97.6464C46.0318 99.8851 44.3551 102.007 42.0661 102.059L29.7723 102.333C28.0221 102.372 26.4908 101.162 26.1238 99.4505L20.3937 72.7263Z" fill="#343434"/>
<ellipse cx="37.3384" cy="71.5748" rx="0.85476" ry="1.13968" transform="rotate(-12.1019 37.3384 71.5748)" fill="white"/>
<path d="M21.5588 77.7846C23.0464 74.268 24.8687 72.0185 27.2835 73.7972C29.377 76.3679 26.198 82.6299 26.198 82.6299C26.198 82.6299 28.8666 79.5675 30.353 81.1788C31.8395 82.7901 31.5556 86.4014 27.57 89.1633C27.57 89.1633 29.7063 87.656 31.1522 89.337C33.1324 91.7019 27.0043 98.6249 26.0147 98.0022C21.8588 95.21 19.8144 82.7836 21.5588 77.7846Z" fill="#989899"/>
<path d="M43 33C43 40.0627 39.1465 46.2253 33.4273 49.5C32.0504 50.2884 34.9927 56.5741 33.4273 57C31.8341 57.4334 25.7304 52 24 52C13.5066 52 5 43.4934 5 33C5 22.5066 13.5066 14 24 14C34.4934 14 43 22.5066 43 33Z" fill="white"/>
<path d="M17.047 39.7042C19.3378 39.5788 21.0028 38.4039 21.6028 36.5777C21.8251 35.9011 21.2207 35.3041 20.5097 35.343V35.343C19.9333 35.3746 19.4911 35.8319 19.2281 36.3458C18.8093 37.1638 18.0001 37.6694 16.9467 37.727C15.1201 37.8271 13.8913 36.3875 13.758 33.9522C13.6263 31.5484 14.706 29.9745 16.5087 29.8758C17.5448 29.8191 18.4334 30.2803 18.9429 31.0923C19.2586 31.5955 19.7608 32.0214 20.354 31.9889V31.9889C21.0537 31.9506 21.5892 31.3138 21.3148 30.6691C20.5442 28.8586 18.6631 27.7751 16.4005 27.8991C13.0954 28.0801 11.1217 30.4167 11.323 34.0935C11.5248 37.7781 13.7261 39.8861 17.047 39.7042Z" fill="#CE7C4C"/>
<path d="M32.2572 38.673C32.9166 38.6369 33.4219 38.073 33.3858 37.4136L32.8917 28.3917C32.8556 27.7323 32.2917 27.227 31.6323 27.2631V27.2631C30.9729 27.2993 30.4676 27.8631 30.5037 28.5225L30.6921 31.962L25.5526 32.2435L25.3642 28.804C25.3281 28.1446 24.7642 27.6393 24.1048 27.6754V27.6754C23.4454 27.7115 22.9402 28.2753 22.9763 28.9347L23.4704 37.9566C23.5065 38.616 24.0703 39.1213 24.7297 39.0852V39.0852C25.3891 39.0491 25.8944 38.4853 25.8583 37.8259L25.6604 34.2124L30.7999 33.9309L30.9978 37.5444C31.034 38.2038 31.5978 38.7091 32.2572 38.673V38.673Z" fill="#CE7C4C"/>
<defs>
<linearGradient id="paint0_linear_1333_6816" x1="52.5179" y1="74.7938" x2="78.7305" y2="51.7152" gradientUnits="userSpaceOnUse">
<stop stop-color="#FFE600" stop-opacity="0.27"/>
<stop offset="1" stop-color="#FFE600" stop-opacity="0"/>
</linearGradient>
</defs>
</svg>
