<svg width="40" height="40" viewBox="0 0 40 40" fill="none" xmlns="http://www.w3.org/2000/svg">
<path fill-rule="evenodd" clip-rule="evenodd" d="M2.60996 17.9099C2.22013 18.2868 2 18.8057 2 19.3479V36.4996C2 37.6041 2.89543 38.4996 4 38.4996H11.5C12.6046 38.4996 13.5 37.6041 13.5 36.4996V28.9996C13.5 27.895 14.3954 26.9996 15.5 26.9996H19C20.1046 26.9996 21 27.895 21 28.9996V36.4996C21 37.6041 21.8954 38.4996 23 38.4996H30C31.1046 38.4996 32 37.6041 32 36.4996V19.3479C32 18.8057 31.7799 18.2868 31.39 17.9099L18.39 5.34327C17.6148 4.59391 16.3852 4.59391 15.61 5.34327L2.60996 17.9099ZM16 9.99956H18V11.9996H20V13.9996H18V15.9996H16V13.9996H14V11.9996L16 11.9996V9.99956Z" fill="#009891"/>
<mask id="mask0_3505_6161" style="mask-type:alpha" maskUnits="userSpaceOnUse" x="2" y="4" width="30" height="35">
<path d="M2 19.3484C2 18.8062 2.22013 18.2872 2.60996 17.9104L15.61 5.34371C16.3852 4.59434 17.6148 4.59435 18.39 5.34371L31.39 17.9104C31.7799 18.2872 32 18.8062 32 19.3484V36.5C32 37.6046 31.1046 38.5 30 38.5H23C21.8954 38.5 21 37.6046 21 36.5V29C21 27.8954 20.1046 27 19 27H15.5C14.3954 27 13.5 27.8954 13.5 29V36.5C13.5 37.6046 12.6046 38.5 11.5 38.5H4C2.89543 38.5 2 37.6046 2 36.5V19.3484Z" fill="#009891"/>
</mask>
<g mask="url(#mask0_3505_6161)">
<path d="M40.8679 27.7919C42.7841 34.3041 39.0996 40.9666 32.6384 42.673C26.1771 44.3793 19.3858 40.4834 17.4696 33.9711C17.3284 33.4912 17.2176 33.0104 17.1361 32.5308C17.0026 31.7457 16.9477 30.9639 16.9663 30.1944C16.9855 29.3987 17.0834 28.6162 17.2544 27.8567C18.1877 23.7114 21.2998 20.2519 25.6991 19.0901C32.1604 17.3837 38.9517 21.2797 40.8679 27.7919Z" fill="#00827B"/>
</g>
<path d="M37 29.01C37 32.8699 30 35.999 30 35.999C30 35.999 23 32.8699 23 29.01C23 25.1501 27.5 22.498 30 27.499C31.5 22.498 37 25.1501 37 29.01Z" fill="#FA5669"/>
</svg>
