<svg width="40" height="40" viewBox="0 0 40 40" fill="none" xmlns="http://www.w3.org/2000/svg">
<path fill-rule="evenodd" clip-rule="evenodd" d="M18.5518 4.00996C18.0729 5.01096 17.956 6.0632 18.2202 7.06701C18.6366 8.6493 19.9368 9.86645 21.6835 10.4487C22.3367 10.6664 23.0378 10.8405 23.6965 11.004L23.6967 11.004C23.8409 11.0398 23.983 11.0751 24.1222 11.1102C24.9238 11.3126 25.6511 11.5149 26.2885 11.7921C26.9195 12.0664 27.4152 12.3947 27.7774 12.8201C28.1309 13.2354 28.4042 13.7979 28.5075 14.624C28.628 15.5881 28.9663 16.369 29.514 16.9452C30.0609 17.5205 30.7418 17.8132 31.4091 17.934C31.928 18.028 32.4595 18.0227 32.9644 17.9583C32.988 18.3025 33 18.6498 33 19C33 27.2843 26.2843 34 18 34C15.9285 34 13.955 33.5801 12.1601 32.8207C12.676 31.9943 13.2132 31.0212 13.6217 30.0503C13.9442 29.284 14.2072 28.4707 14.2964 27.7048C14.3838 26.9548 14.3212 26.095 13.8 25.4C13.626 25.1679 13.4504 24.9411 13.2765 24.7163L13.2764 24.7162C11.8875 22.9215 10.6005 21.2584 10.9923 18.124C11.326 15.4546 9.27794 13.7749 7.49615 12.7567C6.64521 12.2705 5.74853 11.8728 4.98046 11.5456C7.56748 7.03696 12.4291 4 18 4C18.1847 4 18.3687 4.00334 18.5518 4.00996ZM20.7351 4.24877C20.0942 5.10801 19.9862 5.91916 20.1543 6.55802C20.3629 7.35073 21.0627 8.13358 22.316 8.55133C22.8874 8.74181 23.4942 8.89266 24.1489 9.0554L24.1489 9.05541C24.3005 9.0931 24.4548 9.13144 24.6117 9.17105C25.4195 9.37496 26.2859 9.61008 27.086 9.95794C27.8925 10.3086 28.678 10.7928 29.3002 11.5236C29.9311 12.2647 30.3453 13.2021 30.492 14.376C30.5715 15.012 30.7707 15.3644 30.9636 15.5673C31.1574 15.7712 31.4202 15.9035 31.7654 15.966C32.0545 16.0184 32.374 16.0161 32.6951 15.9764C31.4765 10.0222 26.73 5.35325 20.7351 4.24877ZM4.10232 13.3455C3.3916 15.0906 3 16.9996 3 19C3 24.4969 5.95684 29.3033 10.3668 31.9153C10.8651 31.1315 11.3928 30.191 11.7783 29.2747C12.0642 28.5952 12.2512 27.9771 12.3099 27.4733C12.3704 26.9535 12.2788 26.705 12.2 26.6C12.0449 26.3932 11.8796 26.1815 11.7087 25.9627L11.7086 25.9626C10.2972 24.1554 8.50899 21.8659 9.00773 17.876C9.17406 16.5453 8.22209 15.4751 6.50387 14.4932C5.72495 14.0481 4.88242 13.6767 4.10232 13.3455ZM20.0537 23.1826C19.3768 23.5994 18.5934 23.5909 17.8297 23.2881C17.0072 22.9621 16.5974 22.2321 16.4019 21.5653C16.205 20.8937 16.1701 20.1209 16.2098 19.3892C16.288 17.9473 16.6743 16.3785 17.0743 15.4306C17.3236 14.685 17.6547 13.9997 18.1712 13.6224C18.4795 13.3973 18.8772 13.2671 19.3122 13.3472C19.7127 13.4209 20.0087 13.6484 20.2062 13.8551C20.5876 14.2543 20.8505 14.8362 21.0358 15.3915C21.2312 15.977 21.3805 16.6583 21.4747 17.3588C21.6588 18.7286 21.6538 20.3401 21.2408 21.5508C21.0344 22.1558 20.6792 22.7976 20.0537 23.1826ZM19.0622 15.8108C19.0299 15.8946 18.9958 15.9897 18.9603 16.0975L18.9464 16.1397L18.9288 16.1804C18.6218 16.893 18.2743 18.2538 18.2069 19.4975C18.1732 20.1193 18.2142 20.638 18.3211 21.0026C18.4294 21.3719 18.5513 21.4228 18.5667 21.4289C18.8878 21.5562 18.9867 21.4916 19.0037 21.4805L19.0052 21.4795C19.0686 21.4405 19.2133 21.2996 19.3479 20.905C19.617 20.1162 19.6585 18.8599 19.4925 17.6252C19.4116 17.0234 19.2867 16.4683 19.1387 16.0246C19.1128 15.9472 19.0872 15.876 19.0622 15.8108ZM18.7533 15.23C18.7533 15.23 18.7542 15.2308 18.7561 15.2327L18.7533 15.23Z" fill="#009891"/>
<mask id="mask0_3505_10687" style="mask-type:alpha" maskUnits="userSpaceOnUse" x="3" y="4" width="30" height="30">
<path fill-rule="evenodd" clip-rule="evenodd" d="M18.5518 4.00996C18.0729 5.01096 17.956 6.0632 18.2202 7.06701C18.6366 8.6493 19.9368 9.86645 21.6835 10.4487C22.3367 10.6664 23.0378 10.8405 23.6965 11.004L23.6967 11.004C23.8409 11.0398 23.983 11.0751 24.1222 11.1102C24.9238 11.3126 25.6511 11.5149 26.2885 11.7921C26.9195 12.0664 27.4152 12.3947 27.7774 12.8201C28.1309 13.2354 28.4042 13.7979 28.5075 14.624C28.628 15.5881 28.9663 16.369 29.514 16.9452C30.0609 17.5205 30.7418 17.8132 31.4091 17.934C31.928 18.028 32.4595 18.0227 32.9644 17.9583C32.988 18.3025 33 18.6498 33 19C33 27.2843 26.2843 34 18 34C15.9285 34 13.955 33.5801 12.1601 32.8207C12.676 31.9943 13.2132 31.0212 13.6217 30.0503C13.9442 29.284 14.2072 28.4707 14.2964 27.7048C14.3838 26.9548 14.3212 26.095 13.8 25.4C13.626 25.1679 13.4504 24.9411 13.2765 24.7163L13.2764 24.7162C11.8875 22.9215 10.6005 21.2584 10.9923 18.124C11.326 15.4546 9.27794 13.7749 7.49615 12.7567C6.64521 12.2705 5.74853 11.8728 4.98046 11.5456C7.56748 7.03696 12.4291 4 18 4C18.1847 4 18.3687 4.00334 18.5518 4.00996ZM20.7351 4.24877C20.0942 5.10801 19.9862 5.91916 20.1543 6.55802C20.3629 7.35073 21.0627 8.13358 22.316 8.55133C22.8874 8.74181 23.4942 8.89266 24.1489 9.0554L24.1489 9.05541C24.3005 9.0931 24.4548 9.13144 24.6117 9.17105C25.4195 9.37496 26.2859 9.61008 27.086 9.95794C27.8925 10.3086 28.678 10.7928 29.3002 11.5236C29.9311 12.2647 30.3453 13.2021 30.492 14.376C30.5715 15.012 30.7707 15.3644 30.9636 15.5673C31.1574 15.7712 31.4202 15.9035 31.7654 15.966C32.0545 16.0184 32.374 16.0161 32.6951 15.9764C31.4765 10.0222 26.73 5.35325 20.7351 4.24877ZM4.10232 13.3455C3.3916 15.0906 3 16.9996 3 19C3 24.4969 5.95684 29.3033 10.3668 31.9153C10.8651 31.1315 11.3928 30.191 11.7783 29.2747C12.0642 28.5952 12.2512 27.9771 12.3099 27.4733C12.3704 26.9535 12.2788 26.705 12.2 26.6C12.0449 26.3932 11.8796 26.1815 11.7087 25.9627L11.7086 25.9626C10.2972 24.1554 8.50899 21.8659 9.00773 17.876C9.17406 16.5453 8.22209 15.4751 6.50387 14.4932C5.72495 14.0481 4.88242 13.6767 4.10232 13.3455ZM20.0537 23.1826C19.3768 23.5994 18.5934 23.5909 17.8297 23.2881C17.0072 22.9621 16.5974 22.2321 16.4019 21.5653C16.205 20.8937 16.1701 20.1209 16.2098 19.3892C16.288 17.9473 16.6743 16.3785 17.0743 15.4306C17.3236 14.685 17.6547 13.9997 18.1712 13.6224C18.4795 13.3973 18.8772 13.2671 19.3122 13.3472C19.7127 13.4209 20.0087 13.6484 20.2062 13.8551C20.5876 14.2543 20.8505 14.8362 21.0358 15.3915C21.2312 15.977 21.3805 16.6583 21.4747 17.3588C21.6588 18.7286 21.6538 20.3401 21.2408 21.5508C21.0344 22.1558 20.6792 22.7976 20.0537 23.1826ZM19.0622 15.8108C19.0299 15.8946 18.9958 15.9897 18.9603 16.0975L18.9464 16.1397L18.9288 16.1804C18.6218 16.893 18.2743 18.2538 18.2069 19.4975C18.1732 20.1193 18.2142 20.638 18.3211 21.0026C18.4294 21.3719 18.5513 21.4228 18.5667 21.4289C18.8878 21.5562 18.9867 21.4916 19.0037 21.4805L19.0052 21.4795C19.0686 21.4405 19.2133 21.2996 19.3479 20.905C19.617 20.1162 19.6585 18.8599 19.4925 17.6252C19.4116 17.0234 19.2867 16.4683 19.1387 16.0246C19.1128 15.9472 19.0872 15.876 19.0622 15.8108ZM18.7533 15.23C18.7533 15.23 18.7542 15.2308 18.7561 15.2327L18.7533 15.23Z" fill="#009891"/>
</mask>
<g mask="url(#mask0_3505_10687)">
<path d="M40.8679 26.7919C42.7841 33.3041 39.0996 39.9666 32.6384 41.673C26.1771 43.3793 19.3858 39.4834 17.4696 32.9711C17.3284 32.4912 17.2176 32.0104 17.1361 31.5308C17.0026 30.7457 16.9477 29.9639 16.9663 29.1944C16.9855 28.3987 17.0834 27.6162 17.2544 26.8567C18.1877 22.7114 21.2998 19.2519 25.6991 18.0901C32.1604 16.3837 38.9517 20.2797 40.8679 26.7919Z" fill="#00827B"/>
</g>
<path d="M37 28.01C37 31.8699 30 34.999 30 34.999C30 34.999 23 31.8699 23 28.01C23 24.1501 27.5 21.498 30 26.499C31.5 21.498 37 24.1501 37 28.01Z" fill="#FA5669"/>
</svg>
