<svg width="140" height="134" viewBox="0 0 140 134" fill="none" xmlns="http://www.w3.org/2000/svg">
<path fill-rule="evenodd" clip-rule="evenodd" d="M140 0H0V134H140V0ZM59.9065 21.9187L3.56842 116.206L3.54256 116.252C-0.813375 123.999 4.52704 134 13.6569 134H126.328C135.458 134 140.798 123.999 136.442 116.252L136.417 116.206L80.0785 21.9187C75.5942 14.0271 64.3908 14.0271 59.9065 21.9187Z" fill="#74A047"/>
<path d="M62.0526 23.201L62.0666 23.1775L62.0801 23.1538C65.606 16.9487 74.3789 16.9487 77.9049 23.1538L77.9184 23.1775L77.9324 23.201L134.254 117.46L134.263 117.477L134.263 117.477C137.751 123.68 133.407 131.5 126.328 131.5H13.6569C6.57754 131.5 2.234 123.68 5.72172 117.477L5.72127 117.477L5.72173 117.477L5.73143 117.46L62.0526 23.201Z" stroke="white" stroke-width="5"/>
<path d="M69 16V2" stroke="#D9D9D9" stroke-linecap="round"/>
<path d="M80.1866 6.19498L69 2V11.3333L80.1155 8.09131C81.0385 7.8221 81.0869 6.53258 80.1866 6.19498Z" fill="#FF7A7B"/>
</svg>
