<svg width="120" height="120" viewBox="0 0 120 120" fill="none" xmlns="http://www.w3.org/2000/svg">
<g clip-path="url(#clip0_3244_121774)">
<path d="M104.764 95.9073C122.442 63.5842 79.3594 32.8057 74 20.0001L74.027 19.9721C75.5758 18.3684 86.101 7.47005 82.125 2.5C77.625 -1.5 76.1074 7 70.25 7C65.75 7 64.622 4.75713e-07 58.375 0C51.875 4.78007e-07 51.5949 7.20219 46.5 7.5C40.7679 7.83506 38.625 -2.00008 34.625 4C31.5239 8.65177 40.125 15.5 43.3392 20.0001C32.0868 39.204 -2.10954 68.3616 12.6269 95.9073C29.7054 127.831 87.0856 128.23 104.764 95.9073Z" fill="#FFF3D1"/>
<mask id="mask0_3244_121774" style="mask-type:alpha" maskUnits="userSpaceOnUse" x="9" y="0" width="100" height="120">
<path d="M104.764 95.9073C122.442 63.5842 79.3594 32.8057 74 20.0001L74.027 19.9721C75.5758 18.3684 86.101 7.47005 82.125 2.5C77.625 -1.5 76.1074 7 70.25 7C65.75 7 64.622 4.75713e-07 58.375 0C51.875 4.78007e-07 51.5949 7.20219 46.5 7.5C40.7679 7.83506 38.625 -2.00008 34.625 4C31.5239 8.65177 40.125 15.5 43.3392 20.0001C32.0868 39.204 -2.10954 68.3616 12.6269 95.9073C29.7054 127.831 87.0856 128.23 104.764 95.9073Z" fill="#FFF3D1"/>
</mask>
<g mask="url(#mask0_3244_121774)">
<rect x="9" width="103" height="120" fill="#FFC931"/>
</g>
<circle cx="59" cy="72" r="35" fill="white" stroke="url(#paint0_linear_3244_121774)"/>
</g>
<defs>
<linearGradient id="paint0_linear_3244_121774" x1="59" y1="37" x2="59" y2="107" gradientUnits="userSpaceOnUse">
<stop stop-color="white"/>
<stop offset="1" stop-color="white" stop-opacity="0"/>
<stop offset="1" stop-color="white"/>
</linearGradient>
<clipPath id="clip0_3244_121774">
<rect width="120" height="120" fill="white"/>
</clipPath>
</defs>
</svg>
