<svg width="150" height="150" viewBox="0 0 150 150" fill="none" xmlns="http://www.w3.org/2000/svg">
<path fill-rule="evenodd" clip-rule="evenodd" d="M150 0H0V150H150V0ZM105.493 46.4642C120.45 64.5353 142.937 91.7047 128.5 118.5C109.053 154.594 40.2872 153.148 21.5 117.5C9.02712 93.833 27.9566 68.2695 42.9874 47.971C47.4917 41.8881 51.6459 36.278 54.5 31.3334C53.8914 30.4684 53.1242 29.4712 52.2912 28.3883C48.2853 23.1809 42.7558 15.9929 46 12C49.9748 7.10801 52.5265 9.08668 55.3511 11.2769C57.1456 12.6684 59.0503 14.1454 61.5 14C64.0942 13.8461 65.433 12.3349 66.8319 10.7559C68.4552 8.9236 70.1594 7 74 7C77.7171 7 80.0608 8.75551 82.2128 10.3674C84.0392 11.7354 85.7274 13 88 13C90.677 13 92.7781 11.7974 94.6746 10.7119C97.3429 9.18468 99.6065 7.8891 102.5 10.5C107.62 16.9965 100.731 24.4736 96.5583 29.0031C95.7247 29.9079 94.9995 30.6952 94.5 31.3334C96.0188 35.0174 100.302 40.1929 105.493 46.4642Z" fill="#C68F3D"/>
<path fill-rule="evenodd" clip-rule="evenodd" d="M100.441 11.7917C104.814 17.3416 93.2362 29.5114 91.5325 31.3022L91.5028 31.3334C93.0489 35.0834 97.4488 40.2136 102.749 46.3932C117.659 63.7779 139.692 89.4677 125.344 116.096C105.897 152.191 42.7769 151.745 23.9897 116.096C11.6988 92.7748 30.3517 68.4185 45.4861 48.6565C50.3128 42.354 54.7816 36.5188 57.7746 31.3334C56.8835 30.067 55.616 28.6339 54.273 27.1156C50.2873 22.6095 45.637 17.352 48.1886 13.4667C50.666 9.69432 52.4959 11.5274 54.7474 13.783C56.4949 15.5335 58.4963 17.5385 61.2516 17.375C63.8493 17.2209 65.3092 15.4105 66.8399 13.5122C68.6117 11.315 70.4784 9 74.3146 9C78.0318 9 80.1013 11.287 82.0015 13.3869C83.6143 15.1692 85.1051 16.8167 87.3777 16.8167C90.2963 16.8167 92.2354 14.8692 93.9436 13.1537C96.0066 11.0818 97.7327 9.34823 100.441 11.7917ZM50.414 31.8104C50.2219 31.5921 50.021 31.3646 49.8112 31.1274L49.7112 31.0144C48.4355 29.5722 46.9001 27.8366 45.5685 26.053C44.2388 24.2719 42.7732 22.008 42.008 19.4837C41.1888 16.781 41.0777 13.3642 43.1734 10.173C44.6247 7.9632 47.3707 4.94789 51.719 5.3259C53.5664 5.48651 55.0004 6.25035 55.9254 6.86809C56.8493 7.48521 57.628 8.20568 58.1735 8.73251C58.6306 9.17385 58.9847 9.52904 59.2823 9.82746C59.8715 10.4183 60.2387 10.7866 60.7428 11.1603C60.7866 11.1928 60.8266 11.2213 60.8628 11.2464C61.1131 10.9797 61.6214 10.4155 62.5512 9.27377C64.3851 7.02215 67.8135 3 74.3146 3C80.5095 3 84.0896 6.77722 85.9935 8.85809C86.2053 9.08958 86.3911 9.29383 86.5561 9.47523C87.1115 10.0857 87.4315 10.4375 87.7153 10.6983C88.0263 10.4905 88.6702 9.91976 90.2579 8.35534C90.2787 8.3348 90.3003 8.31348 90.3227 8.29143C91.1559 7.46893 93.0287 5.62036 95.6289 4.90653C99.1526 3.93912 102.227 5.32232 104.46 7.33705L104.838 7.67804L105.153 8.07781C107.878 11.5359 107.675 15.5591 106.948 18.4121C106.217 21.2762 104.731 24.0072 103.304 26.2147C101.87 28.4327 100.245 30.4953 98.8658 32.1221C99.2515 32.6742 99.6979 33.283 100.21 33.9521C101.916 36.1789 104.068 38.7122 106.568 41.63C106.825 41.93 107.086 42.2335 107.349 42.5405C112.121 48.1034 117.863 54.7973 122.884 62.1617C133.376 77.5478 142.015 97.8055 130.627 118.942C119.551 139.499 96.4544 149.06 74.4034 149C52.3693 148.94 29.4175 139.265 18.6817 118.894C9.02485 100.57 15.8453 82.2038 25.036 67.1025C29.6899 59.4556 35.2381 52.1713 40.2301 45.6514L40.5528 45.2301C44.3744 40.2391 47.776 35.7968 50.414 31.8104ZM61.1518 11.4156C61.1518 11.4156 61.1454 11.4141 61.1315 11.408C61.1447 11.412 61.1518 11.4156 61.1518 11.4156Z" fill="white"/>
</svg>
