<svg width="110" height="134" viewBox="0 0 110 134" fill="none" xmlns="http://www.w3.org/2000/svg">
<circle cx="55" cy="85" r="36" fill="white" stroke="url(#paint0_linear_1513_40440)" stroke-width="1.2"/>
<path fill-rule="evenodd" clip-rule="evenodd" d="M82.7487 37.3932C97.6587 54.7779 119.692 80.4677 105.344 107.096C85.8975 143.191 22.7769 142.745 3.9897 107.096C-8.30117 83.7748 10.3517 59.4185 25.4861 39.6565C30.3127 33.354 34.7816 27.5188 37.7746 22.3334C36.8835 21.067 35.616 19.6339 34.273 18.1156C30.2873 13.6095 25.637 8.35198 28.1886 4.46667C30.666 0.694317 32.4959 2.52741 34.7474 4.78295C36.4948 6.53349 38.4963 8.53849 41.2516 8.375C43.8493 8.22086 45.3091 6.41046 46.8398 4.51224C48.6117 2.31496 50.4784 0 54.3146 0C58.0318 0 60.1013 2.28704 62.0015 4.38695C63.6143 6.16921 65.1051 7.81666 67.3776 7.81666C70.2963 7.81666 72.2354 5.86921 73.9436 4.15366C76.0065 2.08183 77.7327 0.348235 80.4407 2.79167C84.8145 8.34155 73.2362 20.5114 71.5325 22.3022L71.5028 22.3334C73.0489 26.0834 77.4488 31.2136 82.7487 37.3932ZM55 121C74.8823 121 91 104.882 91 85C91 65.1178 74.8823 49 55 49C35.1177 49 19 65.1178 19 85C19 104.882 35.1177 121 55 121Z" fill="#FFC931"/>
<defs>
<linearGradient id="paint0_linear_1513_40440" x1="55" y1="49" x2="55" y2="121" gradientUnits="userSpaceOnUse">
<stop stop-color="white"/>
<stop offset="1" stop-color="white" stop-opacity="0"/>
<stop offset="1" stop-color="white"/>
</linearGradient>
</defs>
</svg>
