<svg width="40" height="40" viewBox="0 0 40 40" fill="none" xmlns="http://www.w3.org/2000/svg">
<circle cx="12" cy="8" r="5" fill="#009891"/>
<path d="M2.53707 24.2464L6.14704 17.2299C6.85229 15.8592 8.07892 14.8294 9.55112 14.3721L9.81985 14.2887C10.436 14.0973 11.0774 14 11.7226 14H13.2028C13.8963 14 14.5859 14.1046 15.2482 14.3103L15.5115 14.3921C16.9528 14.8397 18.18 15.8002 18.961 17.0916L23.073 23.8917C23.5495 24.6797 23.1762 25.7064 22.3049 26.0044C21.6828 26.2171 20.9956 25.9826 20.6333 25.4339L17.7488 21.0652L19.898 28.8633C20.0735 29.5001 19.5944 30.129 18.934 30.129H16.8278C16.7966 30.129 16.7713 30.1543 16.7713 30.1855V37.1174C16.7713 38.1571 15.9284 39 14.8886 39C13.8489 39 13.006 38.1571 13.006 37.1174V30.129H11.9923V37.1898C11.9923 38.1895 11.1819 39 10.1821 39C9.18237 39 8.37192 38.1895 8.37192 37.1898V30.1855C8.37192 30.1543 8.34662 30.129 8.31541 30.129H6.18911C5.5348 30.129 5.05678 29.511 5.2212 28.8777L7.24959 21.0652L4.60974 25.4077C4.28276 25.9456 3.59318 26.1353 3.0371 25.8404C2.46225 25.5355 2.23938 24.8251 2.53707 24.2464Z" fill="#009891"/>
<mask id="mask0_1904_12417" style="mask-type:alpha" maskUnits="userSpaceOnUse" x="2" y="14" width="22" height="25">
<path d="M2.53707 24.2464L6.14704 17.2299C6.85229 15.8592 8.07892 14.8294 9.55112 14.3721L9.81985 14.2887C10.436 14.0973 11.0774 14 11.7226 14H13.2028C13.8963 14 14.5859 14.1046 15.2482 14.3103L15.5115 14.3921C16.9528 14.8397 18.18 15.8002 18.961 17.0916L23.073 23.8917C23.5495 24.6797 23.1762 25.7064 22.3049 26.0044C21.6828 26.2171 20.9956 25.9826 20.6333 25.4339L17.7488 21.0652L19.898 28.8633C20.0735 29.5001 19.5944 30.129 18.934 30.129H16.8278C16.7966 30.129 16.7713 30.1543 16.7713 30.1855V37.1174C16.7713 38.1571 15.9284 39 14.8886 39C13.8489 39 13.006 38.1571 13.006 37.1174V30.129H11.9923V37.1898C11.9923 38.1895 11.1819 39 10.1821 39C9.18237 39 8.37192 38.1895 8.37192 37.1898V30.1855C8.37192 30.1543 8.34662 30.129 8.31541 30.129H6.18911C5.5348 30.129 5.05678 29.511 5.2212 28.8777L7.24959 21.0652L4.60974 25.4077C4.28276 25.9456 3.59318 26.1353 3.0371 25.8404C2.46225 25.5355 2.23938 24.8251 2.53707 24.2464Z" fill="#009891"/>
</mask>
<g mask="url(#mask0_1904_12417)">
<path d="M32.1383 29.5928C33.8599 35.4435 30.5497 41.4291 24.7449 42.9621C18.94 44.4951 12.8387 40.995 11.1171 35.1443C10.9902 34.7131 10.8907 34.2812 10.8175 33.8503C10.6976 33.145 10.6482 32.4426 10.6649 31.7512C10.6822 31.0364 10.7701 30.3334 10.9238 29.6511C11.7623 25.9269 14.5582 22.8188 18.5106 21.775C24.3154 20.242 30.4168 23.7422 32.1383 29.5928Z" fill="#00827B"/>
</g>
<circle cx="28.9086" cy="20.9545" r="2.95455" fill="#FA5669"/>
<path d="M26.5 27L23.0115 25.9534C22.4097 25.7729 22.2903 24.9732 22.813 24.6247C22.9349 24.5434 23.0782 24.5 23.2248 24.5H28.1699H29.6197C30.0295 24.5 30.437 24.5618 30.8284 24.6834L30.984 24.7317C31.8357 24.9962 32.5608 25.5637 33.0223 26.3269L35.4521 30.3451C35.7337 30.8108 35.5131 31.4174 34.9982 31.5935C34.6306 31.7192 34.2246 31.5806 34.0105 31.2564L32.306 28.6749L33.4724 32.9069C33.6282 33.4723 33.2028 34.0308 32.6163 34.0308H31.7618C31.7433 34.0308 31.7284 34.0457 31.7284 34.0642V38.1603C31.7284 38.7747 31.2303 39.2727 30.6159 39.2727C30.0015 39.2727 29.5035 38.7747 29.5035 38.1603V34.0308H28.9044V38.2031C28.9044 38.7938 28.4255 39.2727 27.8348 39.2727C27.244 39.2727 26.7651 38.7938 26.7651 38.2031V34.0642C26.7651 34.0457 26.7502 34.0308 26.7317 34.0308H25.8668C25.2809 34.0308 24.8518 33.4789 24.9962 32.911L26.5 27Z" fill="#FA5669"/>
</svg>
