<svg width="40" height="41" viewBox="0 0 40 41" fill="none" xmlns="http://www.w3.org/2000/svg">
<circle cx="26.1301" cy="1.55005" r="1.55005" fill="#009891"/>
<path fill-rule="evenodd" clip-rule="evenodd" d="M31.9431 4.5186C31.9431 6.37342 30.4394 7.87705 28.5846 7.87705C26.7298 7.87705 25.2262 6.37342 25.2262 4.5186C25.2262 2.66378 26.7298 1.16016 28.5846 1.16016C30.4394 1.16016 31.9431 2.66378 31.9431 4.5186ZM27.099 8.71758C26.001 8.33006 23.4176 8.39465 20.9633 11.9469C18.7693 15.2578 17.0501 21.1429 16.0733 25.3877C15.7432 26.8216 16.5613 28.1883 17.8624 28.6824C17.859 29.8387 17.8462 30.9708 17.8335 32.0941C17.8075 34.3969 17.7819 36.6626 17.8382 39.0233C17.85 39.5192 18.257 39.913 18.7531 39.913C19.2071 39.913 19.5932 39.5815 19.6619 39.1326L21.2024 29.0643L21.8077 29.1118C21.9088 29.1197 21.9807 29.2134 21.9623 29.313L20.2016 38.8551C20.0857 39.4833 20.4832 40.092 21.1051 40.2383C21.7167 40.3822 22.3355 40.029 22.5227 39.4293L25.6372 29.4512C25.6615 29.3734 25.7336 29.3204 25.8152 29.3204H26.6095C27.4015 29.3204 27.9991 28.6017 27.8548 27.8231L25.6781 16.0803L27.099 15.1761C27.2927 16.4463 27.9515 19.0125 29.0365 19.1159L29.2539 19.1366C30.7115 19.2762 33.69 19.5615 34.9784 19.4388C35.2368 17.3075 33.1054 16.7908 32.395 17.6304C30.0233 17.3932 29.9922 15.5231 29.9531 13.1693V13.1692C29.9496 12.9591 29.946 12.7451 29.9407 12.5281C29.8762 9.88012 28.1969 9.10509 27.099 8.71758Z" fill="#009891"/>
<mask id="mask0_1904_12440" style="mask-type:alpha" maskUnits="userSpaceOnUse" x="16" y="1" width="19" height="40">
<path fill-rule="evenodd" clip-rule="evenodd" d="M31.9431 4.52251C31.9431 6.37733 30.4394 7.88096 28.5846 7.88096C26.7298 7.88096 25.2262 6.37733 25.2262 4.52251C25.2262 2.66769 26.7298 1.16406 28.5846 1.16406C30.4394 1.16406 31.9431 2.66769 31.9431 4.52251ZM27.099 8.72148C26.001 8.33397 23.4176 8.39856 20.9633 11.9508C18.7693 15.2617 17.0501 21.1469 16.0733 25.3916C15.7432 26.8255 16.5613 28.1922 17.8624 28.6863C17.859 29.8426 17.8462 30.9747 17.8335 32.098C17.8075 34.4008 17.7819 36.6665 17.8382 39.0272C17.85 39.5231 18.257 39.9169 18.7531 39.9169C19.2071 39.9169 19.5932 39.5854 19.6619 39.1365L21.2024 29.0682L21.8077 29.1157C21.9088 29.1236 21.9807 29.2173 21.9623 29.3169L20.2016 38.859C20.0857 39.4872 20.4832 40.0959 21.1051 40.2422C21.7167 40.3861 22.3355 40.0329 22.5227 39.4332L25.6372 29.4551C25.6615 29.3773 25.7336 29.3243 25.8152 29.3243H26.6095C27.4015 29.3243 27.9991 28.6056 27.8548 27.827L25.6781 16.0842L27.099 15.18C27.2927 16.4502 27.9515 19.0164 29.0365 19.1198L29.2539 19.1405C30.7115 19.2801 33.69 19.5654 34.9784 19.4427C35.2368 17.3114 33.1054 16.7947 32.395 17.6343C30.0233 17.3971 29.9922 15.527 29.9531 13.1732V13.1731C29.9496 12.963 29.946 12.749 29.9407 12.532C29.8762 9.88403 28.1969 9.109 27.099 8.72148Z" fill="#009891"/>
</mask>
<g mask="url(#mask0_1904_12440)">
<path d="M38.0813 29.475C39.7833 35.2592 36.254 41.2447 30.1984 42.8439C24.1428 44.4431 17.8541 41.0505 16.1521 35.2663C16.0266 34.8399 15.9296 34.4125 15.8599 33.9859C15.7458 33.2874 15.705 32.5908 15.7326 31.9044C15.7613 31.1947 15.8631 30.4957 16.0329 29.8163C16.9598 26.1086 19.9118 22.9862 24.0349 21.8973C30.0905 20.2981 36.3793 23.6907 38.0813 29.475Z" fill="#00827B"/>
</g>
<rect x="33.1875" y="18.8438" width="1.67922" height="21.0441" rx="0.839612" transform="rotate(6.52724 33.1875 18.8438)" fill="#FA5669"/>
<path fill-rule="evenodd" clip-rule="evenodd" d="M18.3605 8.07175C18.3605 9.74234 17.0062 11.0966 15.3356 11.0966C13.665 11.0966 12.3107 9.74234 12.3107 8.07175C12.3107 6.40116 13.665 5.04688 15.3356 5.04688C17.0062 5.04688 18.3605 6.40116 18.3605 8.07175ZM13.9968 11.8541C13.0079 11.5051 10.6811 11.5632 8.47064 14.7626C6.36298 17.9433 4.7418 23.7615 3.89946 27.6114C3.80707 28.0336 3.86109 28.4467 4.02444 28.8053C4.11889 30.51 4.48604 32.3909 4.85129 34.262C5.18171 35.9547 5.51058 37.6394 5.63461 39.1786C5.66923 39.6082 6.02121 39.9499 6.45222 39.9499C6.86945 39.9499 7.21641 39.6288 7.24864 39.2128L7.95295 30.1224L9.23323 30.2228C9.32965 30.2304 9.40577 30.3078 9.41169 30.4043L9.95191 39.2128C9.98057 39.6801 10.3122 40.0734 10.7679 40.1806C11.403 40.3301 12.0213 39.8763 12.0691 39.2256L12.7171 30.4105V21.2196L13.9968 17.6712C14.1714 18.8152 14.7647 21.1265 15.742 21.2196L15.9378 21.2383H15.9379C17.2508 21.364 19.9333 21.6209 21.0937 21.5104C21.3263 19.5908 19.4067 19.1254 18.7668 19.8816C16.6307 19.668 16.6027 17.9836 16.5675 15.8637L16.5675 15.8635C16.5643 15.6743 16.5611 15.4816 16.5563 15.2862C16.4982 12.9012 14.9857 12.2031 13.9968 11.8541Z" fill="#009891"/>
</svg>
