<svg width="40" height="40" viewBox="0 0 40 40" fill="none" xmlns="http://www.w3.org/2000/svg">
<path fill-rule="evenodd" clip-rule="evenodd" d="M10.902 15.5645C11.669 14.2671 13.189 11.2672 12.1138 9.40714C10.7118 6.98182 7.1565 6.4147 6.69744 9.60858C3.70008 8.41142 2.41776 11.7763 3.81975 14.2016C4.86994 16.0184 8.09803 16.2323 9.65201 16.2253C7.76999 17.3828 6.26032 19.1021 5.38923 21.183L7.8925 22.2309C9.06318 19.4343 11.8095 17.4883 14.9663 17.335C14.7992 17.6772 14.6479 18.0311 14.5136 18.3961C12.7749 23.123 14.4198 28.2743 18.2513 31.0863L19.8569 28.8985C16.9989 26.8009 15.7399 22.9233 17.0606 19.3329C17.2749 18.7501 17.5457 18.2058 17.8641 17.7039C21.5244 18.8439 23.9485 22.3944 23.5028 26.2256C22.9979 30.5668 18.9896 33.7114 14.5022 33.1894C11.3502 32.8228 8.83464 30.7439 7.79914 28.03L5.26368 28.9974C6.65269 32.6378 10.0121 35.3992 14.1886 35.885C20.1162 36.5745 25.5147 32.4171 26.1984 26.5392C26.7522 21.7777 24.0357 17.4049 19.8329 15.5491C21.9913 13.8916 24.8903 13.3443 27.5747 14.3317C31.7719 15.8755 33.9374 20.6167 32.3421 24.9539C31.2214 28.0005 28.5505 30.0037 25.6028 30.3826L25.9488 33.0742C29.88 32.5689 33.4123 29.9054 34.889 25.8908C36.9849 20.1928 34.1607 13.8627 28.5115 11.7848C24.2603 10.221 19.6671 11.5281 16.761 14.6991C16.7256 14.6947 16.69 14.6904 16.6544 14.6862C14.6166 14.4492 12.643 14.7842 10.902 15.5645Z" fill="#009891"/>
<mask id="mask0_1904_14451" style="mask-type:alpha" maskUnits="userSpaceOnUse" x="3" y="7" width="33" height="29">
<path fill-rule="evenodd" clip-rule="evenodd" d="M10.902 15.5645C11.669 14.2671 13.189 11.2672 12.1138 9.40714C10.7118 6.98182 7.1565 6.4147 6.69744 9.60858C3.70008 8.41142 2.41776 11.7763 3.81975 14.2016C4.86994 16.0184 8.09803 16.2323 9.65201 16.2253C7.76999 17.3828 6.26032 19.1021 5.38923 21.183L7.8925 22.2309C9.06318 19.4343 11.8095 17.4883 14.9663 17.335C14.7992 17.6772 14.6479 18.0311 14.5136 18.3961C12.7749 23.123 14.4198 28.2743 18.2513 31.0863L19.8569 28.8985C16.9989 26.8009 15.7399 22.9233 17.0606 19.3329C17.2749 18.7501 17.5457 18.2058 17.8641 17.7039C21.5244 18.8439 23.9485 22.3944 23.5028 26.2256C22.9979 30.5668 18.9896 33.7114 14.5022 33.1894C11.3502 32.8228 8.83464 30.7439 7.79914 28.03L5.26368 28.9974C6.65269 32.6378 10.0121 35.3992 14.1886 35.885C20.1162 36.5745 25.5147 32.4171 26.1984 26.5392C26.7522 21.7777 24.0357 17.4049 19.8329 15.5491C21.9913 13.8916 24.8903 13.3443 27.5747 14.3317C31.7719 15.8755 33.9374 20.6167 32.3421 24.9539C31.2214 28.0005 28.5505 30.0037 25.6028 30.3826L25.9488 33.0742C29.88 32.5689 33.4123 29.9054 34.889 25.8908C36.9849 20.1928 34.1607 13.8627 28.5115 11.7848C24.2603 10.221 19.6671 11.5281 16.761 14.6991C16.7256 14.6947 16.69 14.6904 16.6544 14.6862C14.6166 14.4492 12.643 14.7842 10.902 15.5645Z" fill="#009891"/>
</mask>
<g mask="url(#mask0_1904_14451)">
<path d="M39.1193 6.67815C40.6766 11.9706 37.6823 17.3851 32.4313 18.7718C27.1803 20.1585 21.6612 16.9923 20.1039 11.6999C19.9891 11.3099 19.8991 10.9192 19.8328 10.5294C19.7244 9.89138 19.6797 9.25601 19.6948 8.6306C19.7105 7.98401 19.79 7.34807 19.929 6.73084C20.6875 3.362 23.2166 0.550497 26.7919 -0.393706C32.0429 -1.78043 37.5621 1.38574 39.1193 6.67815Z" fill="#00827B"/>
</g>
<path d="M35.2248 10.0617C34.4269 12.6292 29.39 13.3462 29.39 13.3462C29.39 13.3462 25.6468 9.9006 26.4446 7.33313C27.2425 4.76566 30.4503 3.47974 31.5571 6.3729C34.1084 4.61768 36.0227 7.49422 35.2248 10.0617Z" fill="#FA5669"/>
</svg>
