<svg width="200" height="247" viewBox="0 0 200 247" fill="none" xmlns="http://www.w3.org/2000/svg">
<g filter="url(#filter0_d_2694_91790)">
<path d="M89.5 31.6188C94.4504 28.7607 100.55 28.7607 105.5 31.6188L173.937 71.1312C178.888 73.9893 181.937 79.2714 181.937 84.9876V164.012C181.937 169.729 178.888 175.011 173.937 177.869L105.5 217.381C100.55 220.239 94.4504 220.239 89.5 217.381L21.0625 177.869C16.1121 175.011 13.0625 169.729 13.0625 164.012V84.9876C13.0625 79.2714 16.1121 73.9893 21.0625 71.1312L89.5 31.6188Z" fill="url(#paint0_linear_2694_91790)"/>
</g>
<path d="M26.0067 83.2229L97.5007 41.9458L168.995 83.2229V165.777L97.5007 207.054L26.0067 165.777V83.2229Z" stroke="#D3E7E3"/>
<path d="M43.782 93.4861L97.4998 62.4721L151.218 93.4861V155.514L97.4998 186.528L43.782 155.514V93.4861Z" stroke="#D3E7E3"/>
<path d="M66.0027 106.315L97.5001 88.13L128.997 106.315V142.685L97.5001 160.87L66.0027 142.685V106.315Z" stroke="#D3E7E3"/>
<rect x="85" y="198" width="60" height="24" rx="4" fill="#FA7D0A"/>
<path d="M91.002 208.201V212.517H95.019V213.414H90.404V214.168H95.019V215.143H89.754V215.962H101.246V215.143H95.955V214.168H100.609V213.414H95.955V212.517H99.985V208.201H95.955V207.369H101.064V206.563H95.955V205.575C97.398 205.484 98.75 205.38 99.998 205.25L99.712 204.47C97.125 204.756 94.135 204.951 90.755 205.055L90.911 205.822C92.341 205.77 93.706 205.705 95.019 205.627V206.563H89.936V207.369H95.019V208.201H91.002ZM99.075 211.763H95.955V210.71H99.075V211.763ZM95.019 211.763H91.899V210.71H95.019V211.763ZM91.899 209.982V208.955H95.019V209.982H91.899ZM95.955 208.955H99.075V209.982H95.955V208.955ZM102.793 207.798V208.708H107.694C107.018 211.906 105.302 214.194 102.533 215.559L103.118 216.339C105.887 214.896 107.681 212.595 108.487 209.436C109.462 212.374 111.256 214.636 113.869 216.248L114.454 215.494C111.789 213.908 109.995 211.646 109.085 208.708H114.207V207.798H108.812C108.916 206.992 108.981 206.147 108.981 205.237V204.392H108.019V205.445C108.006 206.264 107.954 207.044 107.85 207.798H102.793ZM118.055 204.314C117.483 206.42 116.638 208.24 115.494 209.787L115.897 210.697C116.274 210.203 116.625 209.696 116.963 209.176V216.326H117.886V207.473C118.302 206.563 118.653 205.627 118.913 204.652L118.055 204.314ZM120.902 205.874H127.09V205.12H121.24C121.318 204.899 121.396 204.665 121.461 204.431L120.564 204.327C120.226 205.549 119.563 206.589 118.588 207.434L119.121 208.123C119.485 207.811 119.81 207.46 120.122 207.096V209.943H126.453V206.602H120.473C120.629 206.368 120.772 206.134 120.902 205.874ZM125.569 209.319H121.006V208.565H125.569V209.319ZM121.006 207.967V207.226H125.569V207.967H121.006ZM118.939 210.632V211.386H120.85C120.395 212.036 119.68 212.595 118.718 213.076L119.238 213.765C119.758 213.479 120.213 213.154 120.616 212.79H122.15C121.591 213.544 120.681 214.155 119.42 214.623L119.94 215.273C121.357 214.675 122.371 213.856 122.982 212.79H124.243C123.567 214.207 122.449 215.169 120.889 215.663L121.37 216.365C123.086 215.78 124.321 214.584 125.075 212.79H126.063C126.037 213.986 125.946 214.74 125.79 215.039C125.634 215.312 125.27 215.455 124.672 215.468C124.516 215.455 124.308 215.429 124.074 215.403L124.295 216.183C124.503 216.209 124.698 216.235 124.867 216.235C125.621 216.235 126.141 216.04 126.44 215.65C126.739 215.247 126.895 214.064 126.921 212.088H121.279C121.448 211.867 121.604 211.633 121.747 211.386H127.389V210.632H118.939ZM136.125 212.049C136.697 212.582 137.282 213.271 137.867 214.116L138.374 213.336C137.763 212.556 137.087 211.88 136.359 211.295C136.398 211.087 136.437 210.866 136.489 210.645H138.829V214.714C138.829 215.13 138.634 215.338 138.244 215.338L136.983 215.299L137.217 216.183H138.556C139.323 216.183 139.713 215.754 139.713 214.909V209.787H136.606C136.645 209.358 136.671 208.903 136.684 208.409H140.077V207.551H132.147V208.409H135.826C135.813 208.903 135.787 209.358 135.735 209.787H132.485V216.261H133.369V210.645H135.618L135.501 211.152C135.215 212.14 134.656 212.959 133.811 213.609L134.37 214.285C135.176 213.687 135.761 212.933 136.125 212.049ZM130.704 209.956C130.054 210.476 129.339 210.944 128.546 211.347L128.806 212.244C129.482 211.854 130.093 211.425 130.639 210.97C130.483 212.881 130.015 214.428 129.248 215.598L129.95 216.209C131.016 214.558 131.575 212.361 131.627 209.618V206.264H140.168V205.38H136.021C135.865 204.964 135.709 204.587 135.553 204.249L134.604 204.405C134.773 204.704 134.929 205.029 135.072 205.38H130.717V209.618C130.717 209.722 130.704 209.839 130.704 209.956ZM129.352 206.381L128.546 206.719C128.962 207.421 129.339 208.253 129.677 209.189L130.483 208.864C130.171 207.98 129.794 207.161 129.352 206.381Z" fill="white"/>
<path opacity="0.6" d="M43.5 155L98 125.5V41.5L151.5 93.5V155L98 186.5L43.5 155Z" fill="#67D0CB"/>
<path d="M98 183L98 200" stroke="#FA7D0A"/>
<circle cx="98" cy="182" r="3" fill="#FA7D0A"/>
<circle cx="98" cy="44" r="3" fill="#FA7D0A"/>
<g filter="url(#filter1_f_2694_91790)">
<ellipse cx="97" cy="232" rx="43" ry="7" fill="#1D8980" fill-opacity="0.1"/>
</g>
<rect x="45" y="12" width="60" height="24" rx="4" fill="#FA7D0A"/>
<path d="M53.225 20.602V21.525H56.722V24.632H53.628V25.529H56.722V28.948H53.017V29.871H61.389V28.948H57.684V25.529H60.752V24.632H57.684V21.525H61.116V20.602H57.255L57.697 20.433C57.528 19.809 57.294 19.133 56.982 18.379L56.046 18.626C56.345 19.263 56.605 19.926 56.826 20.602H53.225ZM52.458 18.314C51.834 20.316 50.833 22.097 49.455 23.644L49.754 24.632C50.248 24.125 50.703 23.592 51.119 23.02V30.326H52.042V21.616C52.562 20.706 52.991 19.744 53.329 18.717L52.458 18.314ZM74.103 19.549H71.126C70.983 19.094 70.827 18.678 70.671 18.314L69.709 18.47C69.878 18.795 70.034 19.159 70.177 19.549H67.226V22.188H68.136V20.433H73.206V22.188H74.103V19.549ZM68.188 22.019V22.864H73.154V22.019H68.188ZM67.226 24.333V25.217H69.033C68.955 26.387 68.747 27.271 68.422 27.843C68.032 28.467 67.382 29.013 66.498 29.481L67.083 30.248C68.097 29.702 68.825 29.039 69.267 28.259C69.618 27.609 69.839 26.595 69.943 25.217H71.152V28.961C71.152 29.286 71.243 29.559 71.425 29.78C71.594 29.988 71.841 30.105 72.179 30.105H73.206C73.622 30.092 73.921 29.988 74.103 29.793C74.285 29.559 74.428 28.87 74.506 27.713L73.648 27.427C73.609 28.441 73.518 29.013 73.375 29.13C73.297 29.208 73.167 29.26 73.011 29.26H72.465C72.205 29.26 72.088 29.078 72.088 28.74V25.217H74.246V24.333H67.226ZM63.014 18.899V30.313H63.924V19.77H65.848C65.549 20.862 65.133 22.097 64.6 23.449C65.393 24.541 65.796 25.516 65.796 26.4C65.796 26.699 65.718 26.907 65.575 27.037C65.419 27.154 65.133 27.232 64.691 27.258C64.548 27.258 64.379 27.232 64.171 27.206L64.483 28.155C65.354 28.142 65.965 27.986 66.316 27.674C66.563 27.414 66.693 26.985 66.706 26.4C66.654 25.477 66.251 24.45 65.523 23.306C66.004 22.032 66.42 20.81 66.771 19.627V18.899H63.014ZM85.647 18.899H77.613V30.248H78.549V29.247H84.698V30.235H85.647V18.899ZM78.549 28.337V24.424H84.698V28.337H78.549ZM78.549 23.514V19.809H84.698V23.514H78.549ZM89.95 23.54C90.353 23.787 90.756 24.047 91.146 24.32C90.418 24.996 89.547 25.477 88.52 25.763L88.897 26.517C89.079 26.465 89.248 26.4 89.43 26.335V30.235H90.262V29.507H92.55V30.17H93.382V26.192H89.768C90.522 25.854 91.211 25.386 91.809 24.788C92.55 25.321 93.187 25.841 93.733 26.361L94.357 25.737C93.759 25.217 93.096 24.71 92.342 24.19C92.758 23.67 93.122 23.072 93.434 22.37V21.72H91.107C91.198 21.486 91.289 21.252 91.367 20.992L90.574 20.875C90.21 22.006 89.547 22.968 88.585 23.748L89.066 24.372C89.378 24.112 89.677 23.826 89.95 23.54ZM91.666 23.735C91.276 23.475 90.86 23.215 90.418 22.955C90.522 22.799 90.626 22.643 90.73 22.474H92.511C92.264 22.929 91.978 23.345 91.666 23.735ZM94.084 19.549H91.939C91.822 19.107 91.705 18.717 91.575 18.366L90.665 18.522C90.795 18.834 90.925 19.172 91.042 19.549H88.793V21.616H89.625V20.342H93.265V21.616H94.084V19.549ZM90.262 28.701V26.972H92.55V28.701H90.262ZM94.838 20.927V27.596H99.817V20.927H97.646C97.685 20.563 97.724 20.173 97.75 19.757H100.311V18.912H94.383V19.757H96.814C96.788 20.16 96.762 20.55 96.71 20.927H94.838ZM98.946 26.777H95.696V25.555H98.946V26.777ZM95.696 24.801V23.644H98.946V24.801H95.696ZM95.696 22.89V21.707H98.946V22.89H95.696ZM96.151 27.817C95.605 28.519 94.916 29.13 94.11 29.65L94.656 30.365C95.501 29.793 96.216 29.143 96.788 28.389L96.151 27.817ZM98.491 27.804L97.906 28.363C98.738 29.039 99.388 29.689 99.856 30.287L100.48 29.676C99.947 29.052 99.284 28.428 98.491 27.804Z" fill="white"/>
<path d="M98.5 33V44" stroke="#FA7D0A"/>
<defs>
<filter id="filter0_d_2694_91790" x="13.0625" y="23.4752" width="174.875" height="196.05" filterUnits="userSpaceOnUse" color-interpolation-filters="sRGB">
<feFlood flood-opacity="0" result="BackgroundImageFix"/>
<feColorMatrix in="SourceAlpha" type="matrix" values="0 0 0 0 0 0 0 0 0 0 0 0 0 0 0 0 0 0 127 0" result="hardAlpha"/>
<feOffset dx="6" dy="-6"/>
<feComposite in2="hardAlpha" operator="out"/>
<feColorMatrix type="matrix" values="0 0 0 0 0.902483 0 0 0 0 0.945833 0 0 0 0 0.942221 0 0 0 1 0"/>
<feBlend mode="normal" in2="BackgroundImageFix" result="effect1_dropShadow_2694_91790"/>
<feBlend mode="normal" in="SourceGraphic" in2="effect1_dropShadow_2694_91790" result="shape"/>
</filter>
<filter id="filter1_f_2694_91790" x="52" y="223" width="90" height="18" filterUnits="userSpaceOnUse" color-interpolation-filters="sRGB">
<feFlood flood-opacity="0" result="BackgroundImageFix"/>
<feBlend mode="normal" in="SourceGraphic" in2="BackgroundImageFix" result="shape"/>
<feGaussianBlur stdDeviation="1" result="effect1_foregroundBlur_2694_91790"/>
</filter>
<linearGradient id="paint0_linear_2694_91790" x1="97.5" y1="27" x2="97.5" y2="222" gradientUnits="userSpaceOnUse">
<stop stop-color="white"/>
<stop offset="1" stop-color="#E5F3F2"/>
</linearGradient>
</defs>
</svg>
