<svg width="40" height="40" viewBox="0 0 40 40" fill="none" xmlns="http://www.w3.org/2000/svg">
<mask id="path-1-inside-1_1356_44709" fill="white">
<rect x="10" y="4" width="16" height="10" rx="2"/>
</mask>
<rect x="10" y="4" width="16" height="10" rx="2" stroke="#009891" stroke-width="8" mask="url(#path-1-inside-1_1356_44709)"/>
<path fill-rule="evenodd" clip-rule="evenodd" d="M2.03357 11.6332L17.5631 19.1761C17.839 19.3101 18.1611 19.3101 18.4369 19.1761L33.9664 11.6332C33.7942 10.7038 32.9793 10 32 10H4C3.02074 10 2.20586 10.7038 2.03357 11.6332ZM34 13.8403L19.3107 20.9751C18.4831 21.3771 17.5169 21.3771 16.6893 20.9751L2 13.8403V31C2 32.1046 2.89543 33 4 33H32C33.1046 33 34 32.1046 34 31V13.8403Z" fill="#009891"/>
<mask id="mask0_1356_44709" style="mask-type:alpha" maskUnits="userSpaceOnUse" x="2" y="10" width="32" height="23">
<path fill-rule="evenodd" clip-rule="evenodd" d="M2.03357 11.6332L17.5631 19.1761C17.839 19.3101 18.1611 19.3101 18.4369 19.1761L33.9664 11.6332C33.7942 10.7038 32.9793 10 32 10H4C3.02074 10 2.20586 10.7038 2.03357 11.6332ZM34 13.8403L19.3107 20.9751C18.4831 21.3771 17.5169 21.3771 16.6893 20.9751L2 13.8403V31C2 32.1046 2.89543 33 4 33H32C33.1046 33 34 32.1046 34 31V13.8403Z" fill="#009891"/>
</mask>
<g mask="url(#mask0_1356_44709)">
<path d="M45.3942 26.4623C47.4193 33.3445 43.5255 40.3854 36.6972 42.1887C29.8689 43.992 22.6918 39.8747 20.6667 32.9925C20.5175 32.4853 20.4004 31.9772 20.3142 31.4704C20.1732 30.6407 20.1151 29.8145 20.1348 29.0012C20.1551 28.1604 20.2586 27.3334 20.4393 26.5308C21.4256 22.15 24.7144 18.4939 29.3637 17.2661C36.192 15.4628 43.3691 19.5801 45.3942 26.4623Z" fill="#00827B"/>
</g>
<rect x="31.2578" y="20" width="4.51613" height="2.25806" rx="1" fill="#FA5669"/>
<path d="M34.5658 23.3867H32.4665C32.0744 23.3867 31.7184 23.6159 31.5561 23.9729L29.2117 29.1307C29.0788 29.4231 29.0944 29.7617 29.2538 30.0406L32.6479 35.9802C33.0318 36.652 34.0005 36.652 34.3844 35.9802L37.7784 30.0406C37.9378 29.7617 37.9535 29.4231 37.8206 29.1307L35.4761 23.9729C35.3139 23.6159 34.9579 23.3867 34.5658 23.3867Z" fill="#FA5669"/>
</svg>
