<svg width="40" height="40" viewBox="0 0 40 40" fill="none" xmlns="http://www.w3.org/2000/svg">
<path fill-rule="evenodd" clip-rule="evenodd" d="M19.5307 3.24975L2.47563 12.3129C2.18294 12.4684 2 12.7728 2 13.1042C2 13.5992 2.40123 14.0004 2.89616 14.0004H37.1038C37.5988 14.0004 38 13.5992 38 13.1042C38 12.7728 37.8171 12.4684 37.5244 12.3129L20.4693 3.24975C20.1758 3.09383 19.8242 3.09383 19.5307 3.24975ZM2 35.0004C2 34.4481 2.44772 34.0004 3 34.0004H37C37.5523 34.0004 38 34.4481 38 35.0004V37.0004C38 37.5527 37.5523 38.0004 37 38.0004H3C2.44772 38.0004 2 37.5527 2 37.0004V35.0004ZM12 18.0004C12 17.4481 11.5523 17.0004 11 17.0004H9C8.44772 17.0004 8 17.4481 8 18.0004V30.0004C8 30.5527 8.44772 31.0004 9 31.0004H11C11.5523 31.0004 12 30.5527 12 30.0004V18.0004ZM18 18.0004C18 17.4481 18.4477 17.0004 19 17.0004H21C21.5523 17.0004 22 17.4481 22 18.0004V30.0004C22 30.5527 21.5523 31.0004 21 31.0004H19C18.4477 31.0004 18 30.5527 18 30.0004V18.0004ZM32 18.0004C32 17.4481 31.5523 17.0004 31 17.0004H29C28.4477 17.0004 28 17.4481 28 18.0004V30.0004C28 30.5527 28.4477 31.0004 29 31.0004H31C31.5523 31.0004 32 30.5527 32 30.0004V18.0004Z" fill="#009891"/>
<mask id="mask0_1356_44708" style="mask-type:alpha" maskUnits="userSpaceOnUse" x="2" y="3" width="36" height="35">
<path fill-rule="evenodd" clip-rule="evenodd" d="M19.5307 3.24975L2.47563 12.3129C2.18294 12.4684 2 12.7728 2 13.1042C2 13.5992 2.40123 14.0004 2.89616 14.0004H37.1038C37.5988 14.0004 38 13.5992 38 13.1042C38 12.7728 37.8171 12.4684 37.5244 12.3129L20.4693 3.24975C20.1758 3.09383 19.8242 3.09383 19.5307 3.24975ZM2 35.0004C2 34.4481 2.44772 34.0004 3 34.0004H37C37.5523 34.0004 38 34.4481 38 35.0004V37.0004C38 37.5527 37.5523 38.0004 37 38.0004H3C2.44772 38.0004 2 37.5527 2 37.0004V35.0004ZM12 18.0004C12 17.4481 11.5523 17.0004 11 17.0004H9C8.44772 17.0004 8 17.4481 8 18.0004V30.0004C8 30.5527 8.44772 31.0004 9 31.0004H11C11.5523 31.0004 12 30.5527 12 30.0004V18.0004ZM18 18.0004C18 17.4481 18.4477 17.0004 19 17.0004H21C21.5523 17.0004 22 17.4481 22 18.0004V30.0004C22 30.5527 21.5523 31.0004 21 31.0004H19C18.4477 31.0004 18 30.5527 18 30.0004V18.0004ZM32 18.0004C32 17.4481 31.5523 17.0004 31 17.0004H29C28.4477 17.0004 28 17.4481 28 18.0004V30.0004C28 30.5527 28.4477 31.0004 29 31.0004H31C31.5523 31.0004 32 30.5527 32 30.0004V18.0004Z" fill="#009891"/>
</mask>
<g mask="url(#mask0_1356_44708)">
<path d="M39.357 29.1286C41.1654 35.2747 37.6881 41.5625 31.5902 43.1729C25.4923 44.7833 19.083 41.1064 17.2745 34.9604C17.1412 34.5074 17.0366 34.0537 16.9597 33.6011C16.8338 32.8601 16.7819 32.1223 16.7995 31.396C16.8176 30.6451 16.91 29.9066 17.0714 29.1898C17.9522 25.2776 20.8893 22.0126 25.0412 20.9162C31.1391 19.3058 37.5485 22.9826 39.357 29.1286Z" fill="#00827B"/>
</g>
<circle cx="20" cy="9" r="3" fill="#FA5669"/>
</svg>
