<svg width="40" height="40" viewBox="0 0 40 40" fill="none" xmlns="http://www.w3.org/2000/svg">
<g clip-path="url(#clip0_3389_43387)">
<path d="M12.4248 22.5156L16.2378 24.8835L14.4619 27.7432L16.3685 28.9272C12.5207 35.1233 9.8569 39.413 2.95344 37.7677L12.4248 22.5156Z" fill="#009891"/>
<path d="M23.311 2.85977C24.2918 1.28036 26.3673 0.795089 27.9467 1.77588C29.5261 2.75667 30.0114 4.83212 29.0306 6.41153L17.1914 25.4767L11.4718 21.9249L23.311 2.85977Z" fill="#009891"/>
<mask id="mask0_3389_43387" style="mask-type:alpha" maskUnits="userSpaceOnUse" x="11" y="1" width="19" height="25">
<path d="M23.311 2.85977C24.2918 1.28036 26.3673 0.795089 27.9467 1.77588C29.5261 2.75667 30.0114 4.83212 29.0306 6.41153L17.1914 25.4767L11.4718 21.9249L23.311 2.85977Z" fill="#009891"/>
</mask>
<g mask="url(#mask0_3389_43387)">
<path d="M43.3942 7.46227C45.4193 14.3445 41.5255 21.3854 34.6972 23.1887C27.8689 24.992 20.6918 20.8747 18.6667 13.9925C18.5175 13.4853 18.4004 12.9772 18.3142 12.4704C18.1732 11.6407 18.1151 10.8145 18.1348 10.0012C18.1551 9.16039 18.2586 8.33342 18.4393 7.53078C19.4256 3.14998 22.7144 -0.506056 27.3637 -1.73389C34.192 -3.53717 41.3691 0.580088 43.3942 7.46227Z" fill="#00827B"/>
</g>
<path fill-rule="evenodd" clip-rule="evenodd" d="M29.5 35C33.0899 35 36 32.0899 36 28.5C36 24.9101 33.0899 22 29.5 22C25.9101 22 23 24.9101 23 28.5C23 32.0899 25.9101 35 29.5 35ZM30.269 24.0312C30.269 23.617 29.9333 23.2812 29.519 23.2812C29.1048 23.2812 28.769 23.617 28.769 24.0312V24.4449C28.4006 24.514 28.0406 24.6376 27.7249 24.8258C27.1776 25.1522 26.7188 25.712 26.7188 26.5011C26.7188 27.2788 27.1655 27.8348 27.6288 28.221C28.0608 28.5812 28.614 28.8819 29.0894 29.1403L29.0895 29.1403L29.1594 29.1783C29.6878 29.4659 30.1237 29.7101 30.4349 29.9804C30.733 30.2392 30.8171 30.4356 30.8171 30.6179C30.8171 30.7911 30.7434 30.9329 30.5311 31.0648C30.2964 31.2105 29.9327 31.3065 29.5225 31.304C29.1127 31.3015 28.7454 31.2012 28.5066 31.0519C28.2861 30.9141 28.2188 30.7724 28.2188 30.6179C28.2188 30.2037 27.883 29.8679 27.4688 29.8679C27.0545 29.8679 26.7188 30.2037 26.7188 30.6179C26.7188 31.4083 27.1637 31.9815 27.7116 32.3239C28.0816 32.5552 28.514 32.6958 28.9506 32.7608L28.9506 32.9749C28.9506 33.3889 29.2866 33.7218 29.701 33.7184C30.1154 33.7149 30.4513 33.3765 30.4512 32.9625L30.4512 32.6965C30.7588 32.6212 31.0563 32.5043 31.3223 32.3391C31.8784 31.9938 32.3171 31.4146 32.3171 30.6179C32.3171 29.8304 31.8889 29.2563 31.4185 28.8478C30.9624 28.4518 30.3753 28.1323 29.8799 27.8627L29.8764 27.8608C29.3421 27.5701 28.9045 27.3316 28.5894 27.0689C28.2843 26.8145 28.2188 26.6401 28.2188 26.5011C28.2188 26.3736 28.2722 26.246 28.4933 26.1141C28.7324 25.9715 29.1026 25.8762 29.5179 25.8762C29.9332 25.8762 30.3034 25.9715 30.5425 26.1141C30.7637 26.246 30.8171 26.3736 30.8171 26.5011C30.8171 26.9154 31.1528 27.2511 31.5671 27.2511C31.9813 27.2511 32.3171 26.9154 32.3171 26.5011C32.3171 25.712 31.8582 25.1522 31.3109 24.8258C30.9959 24.638 30.6367 24.5145 30.269 24.4453V24.0312Z" fill="#FA5669"/>
</g>
<defs>
<clipPath id="clip0_3389_43387">
<rect width="40" height="40" fill="white"/>
</clipPath>
</defs>
</svg>
