<svg width="40" height="40" viewBox="0 0 40 40" fill="none" xmlns="http://www.w3.org/2000/svg">
<g clip-path="url(#clip0_3389_43394)">
<path d="M12.4248 22.5156L16.2378 24.8835L14.4619 27.7432L16.3685 28.9272C12.5207 35.1233 9.8569 39.413 2.95344 37.7677L12.4248 22.5156Z" fill="#009891"/>
<path d="M23.311 2.85977C24.2918 1.28036 26.3673 0.795089 27.9467 1.77588C29.5261 2.75667 30.0114 4.83212 29.0306 6.41153L17.1914 25.4767L11.4718 21.9249L23.311 2.85977Z" fill="#009891"/>
<mask id="mask0_3389_43394" style="mask-type:alpha" maskUnits="userSpaceOnUse" x="11" y="1" width="19" height="25">
<path d="M23.311 2.85977C24.2918 1.28036 26.3673 0.795089 27.9467 1.77588C29.5261 2.75667 30.0114 4.83212 29.0306 6.41153L17.1914 25.4767L11.4718 21.9249L23.311 2.85977Z" fill="#009891"/>
</mask>
<g mask="url(#mask0_3389_43394)">
<path d="M43.3942 7.46227C45.4193 14.3445 41.5255 21.3854 34.6972 23.1887C27.8689 24.992 20.6918 20.8747 18.6667 13.9925C18.5175 13.4853 18.4004 12.9772 18.3142 12.4704C18.1732 11.6407 18.1151 10.8145 18.1348 10.0012C18.1551 9.16039 18.2586 8.33342 18.4393 7.53078C19.4256 3.14998 22.7144 -0.506056 27.3637 -1.73389C34.192 -3.53717 41.3691 0.580088 43.3942 7.46227Z" fill="#00827B"/>
</g>
</g>
<defs>
<clipPath id="clip0_3389_43394">
<rect width="40" height="40" fill="white"/>
</clipPath>
</defs>
</svg>
