<svg width="40" height="40" viewBox="0 0 40 40" fill="none" xmlns="http://www.w3.org/2000/svg">
<circle cx="8" cy="32.9238" r="3" fill="#009891"/>
<circle cx="28" cy="32.9238" r="3" fill="#009891"/>
<path fill-rule="evenodd" clip-rule="evenodd" d="M12.2254 11.308C10.4254 12.0004 4.57541 16.8474 1.42541 20.3096C-1.10002 24.8432 -0.0822367 31.7999 3.00581 32.6806C3.13268 30.0321 5.32013 27.9238 8 27.9238C10.7111 27.9238 12.9182 30.0815 12.9978 32.7733H23.0022C23.0818 30.0815 25.2889 27.9238 28 27.9238C30.7111 27.9238 32.9182 30.0815 32.9978 32.7733H36C40.5 32.7733 41.2859 23.7132 37.35 21.6944C35.4142 20.7015 33.17 20.0646 31.2808 19.5284C30.5349 19.3167 29.8444 19.1207 29.25 18.9247C28.5583 17.9423 27.878 16.6984 27.2237 15.5021C26.0333 13.3258 24.9292 11.3071 24 11.3071C23.5395 11.3071 22.6616 11.2619 21.58 11.2061C18.4342 11.0438 13.5649 10.7927 12.2254 11.308ZM19 19.9238C19 19.3715 19.4477 18.9238 20 18.9238H22C22.5523 18.9238 23 19.3715 23 19.9238C23 20.4761 22.5523 20.9238 22 20.9238H20C19.4477 20.9238 19 20.4761 19 19.9238Z" fill="#009891"/>
<mask id="mask0_2590_41990" style="mask-type:alpha" maskUnits="userSpaceOnUse" x="0" y="11" width="40" height="22">
<path fill-rule="evenodd" clip-rule="evenodd" d="M1.42541 20.3096C4.57541 16.8474 10.4254 12.0004 12.2254 11.308C13.5649 10.7927 18.4342 11.0438 21.58 11.2061C22.6616 11.2619 23.5395 11.3071 24 11.3071C24.9292 11.3071 26.0333 13.3258 27.2237 15.5021C27.878 16.6984 28.5583 17.9423 29.25 18.9247C29.8444 19.1207 30.5349 19.3167 31.2808 19.5284C33.17 20.0646 35.4142 20.7015 37.35 21.6944C41.2859 23.7132 40.5 32.7733 36 32.7733H32.9978C32.9182 30.0815 30.7111 27.9238 28 27.9238C25.2889 27.9238 23.0818 30.0815 23.0022 32.7733H12.9978C12.9182 30.0815 10.7111 27.9238 8 27.9238C5.32013 27.9238 3.13268 30.0321 3.00581 32.6806C-0.0822367 31.7999 -1.10002 24.8432 1.42541 20.3096ZM20 18.9238C19.4477 18.9238 19 19.3715 19 19.9238C19 20.4761 19.4477 20.9238 20 20.9238H22C22.5523 20.9238 23 20.4761 23 19.9238C23 19.3715 22.5523 18.9238 22 18.9238H20Z" fill="#009891"/>
</mask>
<g mask="url(#mask0_2590_41990)">
<path d="M44.8679 28.7157C46.7841 35.228 43.0996 41.8905 36.6384 43.5968C30.1771 45.3032 23.3858 41.4072 21.4696 34.895C21.3284 34.415 21.2176 33.9342 21.1361 33.4547C21.0026 32.6696 20.9477 31.8877 20.9663 31.1182C20.9855 30.3226 21.0834 29.54 21.2544 28.7806C22.1877 24.6352 25.2998 21.1757 29.6991 20.0139C36.1604 18.3075 42.9517 22.2035 44.8679 28.7157Z" fill="#00827B"/>
</g>
<path d="M26 10.0667C30.9 10.0667 32.5625 6.02222 32.5625 4C32.8542 6.02222 34.4 10.0667 40 10.0667C35.625 10.0667 32.5625 12.6667 32.5625 17C32.5625 12.6667 30.375 10.0667 26 10.0667Z" fill="#FA5669"/>
</svg>
