<svg width="40" height="40" viewBox="0 0 40 40" fill="none" xmlns="http://www.w3.org/2000/svg">
<path fill-rule="evenodd" clip-rule="evenodd" d="M30.1971 6.0501C24.8689 5.52293 20.7258 8.71504 19.1809 10.7499C19.0587 10.9109 19 11.1072 19 11.3093V30.9997C21.6323 27.4202 26.9084 26.9206 29.9568 26.9983C30.5397 27.0131 31.0352 26.5572 31.0352 25.9741V7.00173C31.0352 6.51411 30.6823 6.09811 30.1971 6.0501ZM16.8191 10.75C15.2742 8.71505 11.1311 5.52293 5.80293 6.0501C5.31767 6.09811 4.96484 6.51411 4.96484 7.00173V25.9741C4.96484 26.5572 5.46026 27.0131 6.04318 26.9983C9.09159 26.9206 14.3677 27.4205 17 31V11.3085C17 11.1064 16.9413 10.9109 16.8191 10.75ZM2.10345 10.5939H1C0.447716 10.5939 0 11.0417 0 11.5939V32.0211C0 32.6962 0.652812 33.1766 1.30084 32.9872C4.5108 32.0491 10.2742 30.6857 15 32.0002C12.7721 29.728 7.29566 29.5888 4.10178 29.5841C3.54949 29.5833 3.10345 29.1371 3.10345 28.5848V11.5939C3.10345 11.0417 2.65573 10.5939 2.10345 10.5939ZM33.8966 10.5939H35C35.5523 10.5939 36 11.0417 36 11.5939V32.0211C36 32.6962 35.3472 33.1766 34.6992 32.9872C31.4892 32.0491 25.7258 30.6857 21 32.0002C23.2279 29.728 28.7043 29.5888 31.8982 29.5841C32.4505 29.5833 32.8966 29.1371 32.8966 28.5848V11.5939C32.8966 11.0417 33.3443 10.5939 33.8966 10.5939Z" fill="#009891"/>
<mask id="mask0_2590_41993" style="mask-type:alpha" maskUnits="userSpaceOnUse" x="0" y="5" width="36" height="29">
<path fill-rule="evenodd" clip-rule="evenodd" d="M30.1971 6.0501C24.8689 5.52293 20.7258 8.71504 19.1809 10.7499C19.0587 10.9109 19 11.1072 19 11.3093V30.9997C21.6323 27.4202 26.9084 26.9206 29.9568 26.9983C30.5397 27.0131 31.0352 26.5572 31.0352 25.9741V7.00173C31.0352 6.51411 30.6823 6.09811 30.1971 6.0501ZM16.8191 10.75C15.2742 8.71505 11.1311 5.52293 5.80293 6.0501C5.31767 6.09811 4.96484 6.51411 4.96484 7.00173V25.9741C4.96484 26.5572 5.46026 27.0131 6.04318 26.9983C9.09159 26.9206 14.3677 27.4205 17 31V11.3085C17 11.1064 16.9413 10.9109 16.8191 10.75ZM2.10345 10.5939H1C0.447716 10.5939 0 11.0417 0 11.5939V32.0211C0 32.6962 0.652812 33.1766 1.30084 32.9872C4.5108 32.0491 10.2742 30.6857 15 32.0002C12.7721 29.728 7.29566 29.5888 4.10178 29.5841C3.54949 29.5833 3.10345 29.1371 3.10345 28.5848V11.5939C3.10345 11.0417 2.65573 10.5939 2.10345 10.5939ZM33.8966 10.5939H35C35.5523 10.5939 36 11.0417 36 11.5939V32.0211C36 32.6962 35.3472 33.1766 34.6992 32.9872C31.4892 32.0491 25.7258 30.6857 21 32.0002C23.2279 29.728 28.7043 29.5888 31.8982 29.5841C32.4505 29.5833 32.8966 29.1371 32.8966 28.5848V11.5939C32.8966 11.0417 33.3443 10.5939 33.8966 10.5939Z" fill="#009891"/>
</mask>
<g mask="url(#mask0_2590_41993)">
<circle cx="32" cy="28" r="12" fill="#00827B"/>
</g>
<path d="M35.813 15.8725C36.0909 15.3917 36.7074 15.2295 37.186 15.5112L38.8553 16.4938C39.3286 16.7724 39.4886 17.3806 39.2138 17.8561L30.3599 33.1711C30.3599 33.1711 27.5646 35.3328 26.9991 34.9999C26.4336 34.667 26.9669 31.1739 26.9669 31.1739L35.813 15.8725Z" fill="#FA5669"/>
</svg>
