<svg width="74" height="61" viewBox="0 0 74 61" fill="none" xmlns="http://www.w3.org/2000/svg">
<g clip-path="url(#clip0_124:2359)">
<mask id="mask0_124:2359" style="mask-type:alpha" maskUnits="userSpaceOnUse" x="0" y="0" width="74" height="61">
<path d="M74 12C74 5.37258 68.6274 0 62 0H-2.563e-06V49C-2.563e-06 55.6274 5.37258 61 12 61H74V12Z" fill="white"/>
</mask>
<g mask="url(#mask0_124:2359)">
<path d="M17.1523 45.0036C25.6039 42.8038 30.2131 36.0943 30.0989 34.6164C29.9847 33.1386 46.2887 49.9891 46.2887 49.9891C46.2887 49.9891 28.5498 62.635 26.448 61.8822C22.0825 59.8952 14.1117 53.7378 17.1523 45.0036Z" fill="#989899"/>
<path d="M29.6032 57.9932C28.7856 56.3652 18.5169 38.4311 18.5169 38.4311L15.8661 40.9385C18.1499 45.118 25.7309 57.8785 26.5378 59.6691C27.3447 61.4597 30.4208 59.6211 29.6032 57.9932Z" fill="#84C4FF"/>
<path d="M15.8659 40.9384L18.8155 39.0714L19.7746 40.2043C19.9194 40.6306 16.9211 42.6176 16.3503 42.3296L15.8659 40.9384Z" fill="#74B0E8"/>
<path d="M19.575 38.955C18.501 39.7335 14.628 34.4141 10.9245 27.0738C7.22093 19.7335 5.08927 13.1519 6.16327 12.3734C7.23726 11.595 11.1102 16.9144 14.8138 24.2547C18.5173 31.5949 20.6489 38.1765 19.575 38.955Z" fill="#D9F0F3"/>
<path fill-rule="evenodd" clip-rule="evenodd" d="M10.9245 27.0738C14.628 34.4141 18.501 39.7335 19.575 38.955C20.6489 38.1765 18.5173 31.5949 14.8138 24.2547C11.1102 16.9144 7.23726 11.595 6.16327 12.3734C5.08927 13.1519 7.22093 19.7335 10.9245 27.0738Z" fill="#488ECE"/>
<path d="M18.8056 37.9494C14.9139 35.9858 5.65227 16.8661 6.32401 13.4216C6.87996 13.7021 12.1267 15.1797 16.5018 23.7162C20.877 32.2528 19.2162 37.1247 18.8056 37.9494Z" fill="url(#paint0_linear_124:2359)"/>
<path d="M15.5563 39.3626C16.2369 35.0571 6.13264 16.369 2.94482 14.9014C2.8476 15.5164 2.81895 19.4256 7.19 27.9643C11.5611 36.5029 14.6471 39.214 15.5563 39.3626Z" fill="#D4F0FF"/>
<path d="M15.8959 45.7458C16.6208 42.7857 17.7756 40.7897 19.9217 41.9142C21.9154 43.7037 20.2038 49.0372 20.2038 49.0372C20.2038 49.0372 21.9246 46.2978 23.3125 47.3989C24.7004 48.5001 24.9427 51.3935 22.138 54.0499C22.138 54.0499 23.6378 52.6048 25.0026 53.7659C26.8798 55.4058 22.2195 59.3026 27.5638 62.0238C14.555 60.2748 15.1709 48.706 15.8959 45.7458Z" fill="#989999"/>
<path d="M2.3308 14.8139C2.4978 13.9161 5.77318 12.2957 6.09922 12.5419C10.4761 20.9768 19.5709 38.2081 19.6344 38.666C19.7136 39.2383 16.5178 41.4307 15.6194 41.2638C15.2143 40.4449 2.4102 15.3861 2.3308 14.8139Z" fill="#5CB1FF"/>
<path d="M42.3801 9.12246C42.3801 9.12246 42.4247 6.667 43.4962 4.70264C44.0766 3.58653 44.4784 2.73828 43.8087 2.73828C42.514 2.78293 41.7104 4.61336 42.3801 9.12246Z" fill="#989899"/>
<path d="M87.9175 34.7036C87.9175 34.7036 83.8548 35.6411 81.2654 32.7392C76.1313 25.5961 70.1936 4.25595 50.9071 5.99709C24.9686 8.36325 25.9061 29.5694 31.0403 38.2305C30.4599 40.9538 31.0403 45.7308 31.7546 48.1416C34.5225 57.4723 44.8801 61.8475 58.0056 60.3742C60.6396 60.0617 63.4076 59.7938 65.6398 59.1688C88.0514 52.8292 87.9175 34.7036 87.9175 34.7036Z" fill="#D7D7D7"/>
<path d="M27.6919 27.3825C27.3347 34.9721 31.0402 39.1241 31.0402 39.1241C31.0402 39.1241 33.0939 38.8115 35.7279 39.6598C40.0584 41.0438 52.9607 40.642 55.059 28.4986C56.6662 19.3911 48.8534 10.1497 40.4156 10.7301C32.6474 11.3105 28.2723 15.3731 27.6919 27.3825Z" fill="white"/>
<path d="M32.6544 25.1439C32.6025 22.7774 33.5197 20.8379 34.7029 20.8119C35.8862 20.786 36.8875 22.6834 36.9394 25.0499C36.9914 27.4165 36.0742 29.356 34.8909 29.382C33.7077 29.4079 32.7063 27.5105 32.6544 25.1439Z" fill="#231F20"/>
<path d="M33.085 24.2659C33.0661 23.4031 33.4705 22.6945 33.9882 22.6831C34.5058 22.6718 34.9408 23.3621 34.9597 24.2249C34.9786 25.0877 34.5742 25.7963 34.0565 25.8076C33.5389 25.819 33.1039 25.1287 33.085 24.2659Z" fill="white"/>
<path d="M25.4598 31.3109C25.4598 31.3109 27.5134 30.9984 28.9867 31.5788C30.1921 32.0252 30.4599 29.1233 29.5224 28.3197C28.5849 27.5161 25.4598 31.3109 25.4598 31.3109Z" fill="#EC6C22"/>
<path d="M44.2551 7.91715C44.2551 7.91715 46.532 5.72957 48.9874 5.32777C51.2197 4.92596 50.1036 3.22946 48.0499 4.12236C46.2195 4.9706 44.2551 7.91715 44.2551 7.91715Z" fill="#989899"/>
<path d="M43.0498 8.31913C43.0498 8.31913 44.1212 5.50653 46.6213 3.98861C48.7196 2.73856 49.1661 1.48851 48.4964 1.17599C47.1571 0.55097 44.5677 1.53315 43.0498 8.31913Z" fill="#989899"/>
<path d="M43.898 53.2317C44.8356 52.6513 45.3713 51.6245 45.4159 50.5977C46.1749 51.8477 45.8177 53.4549 44.5677 54.2585C43.3176 55.0621 41.6658 54.705 40.8175 53.4996C41.7997 53.9014 42.9605 53.8121 43.898 53.2317Z" fill="#989899"/>
<path d="M44.7909 45.7757C45.8177 44.9274 46.2641 43.722 46.1749 42.5166C47.2463 43.8559 47.0677 45.7757 45.7284 46.8471C44.4337 47.9186 42.4693 47.7847 41.3086 46.5346C42.4693 46.8471 43.764 46.5793 44.7909 45.7757Z" fill="#989899"/>
<path d="M36.5763 49.8381C37.8263 49.3917 38.6746 48.3649 38.9871 47.2041C39.5228 48.8113 38.6746 50.5524 37.0673 51.1328C35.4601 51.7132 33.6744 50.9543 33.0047 49.3917C34.0315 50.106 35.3709 50.3292 36.5763 49.8381Z" fill="#989899"/>
<path d="M38.496 54.6152C38.496 54.6152 39.3442 56.0885 39.0764 56.9814C39.0764 56.9814 38.1835 57.0261 37.5584 56.1332C37.5584 56.1332 38.1835 56.1778 38.496 54.6152Z" fill="#989899"/>
<path d="M52.916 43.053C53.4071 40.3744 57.7823 26.7131 72.1132 22.4272C83.8547 18.945 77.8723 28.1864 74.39 30.374C74.39 30.374 76.9794 28.7668 78.3634 30.2847C79.7474 31.7579 78.6759 36.9367 72.381 39.035C72.381 39.035 77.8723 37.4278 78.2741 41.803C78.6759 46.1782 72.9168 50.2855 64.8361 51.848C56.7554 53.4106 52.3803 45.7317 52.916 43.053Z" fill="#989899"/>
<path d="M27.6025 25.1947C27.6025 25.1947 25.3703 26.5786 25.1024 30.5074C25.1024 30.5074 27.424 28.9448 29.3883 28.8555C30.9509 28.7662 28.8526 25.0161 27.6025 25.1947Z" fill="#EC8822"/>
</g>
</g>
<defs>
<linearGradient id="paint0_linear_124:2359" x1="7.35022" y1="25.7849" x2="15.268" y2="17.9324" gradientUnits="userSpaceOnUse">
<stop offset="0.0001" stop-color="#AFE2FF"/>
<stop offset="1" stop-color="white"/>
</linearGradient>
<clipPath id="clip0_124:2359">
<rect width="74" height="61" fill="white"/>
</clipPath>
</defs>
</svg>
