<svg width="125" height="108" viewBox="0 0 125 108" fill="none" xmlns="http://www.w3.org/2000/svg">
<path d="M30.6617 3.74779C32.1461 4.30423 33.3289 5.42312 34.0016 6.90713L34.2789 7.53679L34.7865 8.68991L35.9399 8.15945L36.5755 7.86711C38.0419 7.19267 39.6753 7.12668 41.1633 7.6845C42.6476 8.24091 43.8304 9.35972 44.5032 10.8436C45.8428 13.8949 44.4502 17.5218 41.399 18.9251L29.2526 24.5115C29.0028 24.5847 28.8172 24.5713 28.6599 24.5124C28.4845 24.4466 28.3753 24.3386 28.309 24.1882L22.8069 11.6902C21.9513 9.74674 22.2601 7.52012 23.5744 5.89134C25.4233 3.60468 28.1844 2.81912 30.6617 3.74779Z" fill="#FA5669" stroke="#FA5669" stroke-width="2.48837"/>
<path d="M97.4102 94.0156C97.1738 94.248 96.8784 94.4223 96.524 94.3642L93.511 94.1318L93.9836 97.2687C94.1018 97.8496 93.6882 98.3724 93.0975 98.4886C92.5067 98.6048 91.975 98.1982 91.8568 97.6173L91.1479 93.2024C91.0888 92.9119 91.2069 92.5634 91.4433 92.331C91.6796 92.0987 91.975 91.9824 92.3294 91.9824L96.7012 92.2729C97.292 92.331 97.7646 92.7957 97.7055 93.4347C97.6465 93.609 97.5283 93.8413 97.4102 94.0156Z" fill="#EC8822"/>
<path d="M46.7819 64.4453C32.2487 50.1548 29.8265 28.2543 20.7285 32.0883C13.8754 34.9929 26.1637 53.4661 26.1637 53.4661C26.1637 53.4661 22.7371 45.6237 18.0109 48.0635C12.8711 50.7357 24.0369 60.8437 27.9951 63.8644C27.9951 63.8644 20.7876 57.7067 20.1968 59.3333C18.3654 64.213 27.1089 74.379 37.0931 72.2877C43.4735 70.9516 51.39 68.9765 46.7819 64.4453Z" fill="#989899"/>
<path d="M95.8167 55.849C113.127 66.9445 125.356 66.2474 124.883 72.8698C124.411 79.7827 110.704 72.5213 110.704 72.5213C110.704 72.5213 116.258 76.1811 114.663 78.7371C112.24 82.6292 106.746 77.9238 102.965 75.0773C102.965 75.0773 106.923 77.401 105.86 79.8409C104.265 83.5006 91.0314 76.9943 90.4406 67.4673C90.027 61.3096 90.6178 52.4797 95.8167 55.849Z" fill="#989899"/>
<path d="M60.1928 106.621C59.8974 106.679 59.5429 106.563 59.2475 106.331L57.0025 104.297L55.3484 107.028C55.053 107.55 54.4031 107.725 53.8714 107.376C53.3397 107.086 53.1625 106.447 53.5169 105.924L55.821 102.09C55.9982 101.799 56.2345 101.625 56.589 101.567C56.9435 101.509 57.2388 101.625 57.4752 101.858L60.6654 104.82C61.0789 105.227 61.138 105.924 60.7245 106.331C60.6063 106.505 60.37 106.621 60.1928 106.621Z" fill="#EC8822"/>
<path d="M97.4116 59.1019C97.4116 59.1019 97.4116 59.1019 97.3526 59.16C94.9304 43.7076 81.2242 31.915 64.6233 31.915C46.3091 31.915 31.4805 46.2637 31.4805 63.9816C31.4805 82.5709 39.8696 96.0481 51.7443 101.625C53.6348 102.496 55.7025 102.612 57.7112 102.09C58.7746 101.857 60.3697 100.986 63.5008 97.2681C66.8092 93.3178 78.1522 93.434 80.7516 93.9568C84.6508 94.6539 89.6724 97.5585 94.3986 93.0854C98.475 89.1933 99.3021 69.2679 97.4116 59.1019Z" fill="#E7E4E2"/>
<path d="M79.1571 39.641C75.9078 39.4086 72.8357 40.1057 70.1182 41.3837C66.6325 43.0684 62.6152 43.0684 59.1296 41.3837C56.4711 40.1057 53.3399 39.4667 50.0907 39.641C41.5834 40.1638 34.6713 46.7281 34.0805 54.8029C33.3716 64.388 41.3471 72.3465 51.3313 72.3465C54.167 72.3465 56.8846 71.7075 59.2478 70.5456C62.6152 68.9191 66.6325 68.9191 70 70.5456C72.3631 71.7075 75.0807 72.3465 77.9165 72.3465C87.8416 72.3465 95.8762 64.388 95.1673 54.8029C94.6356 46.7862 87.6643 40.2219 79.1571 39.641Z" fill="white"/>
<path d="M49.675 56.0226C52.4483 56.0226 54.6966 53.8119 54.6966 51.0848C54.6966 48.3577 52.4483 46.147 49.675 46.147C46.9016 46.147 44.6533 48.3577 44.6533 51.0848C44.6533 53.8119 46.9016 56.0226 49.675 56.0226Z" fill="#231F20"/>
<path d="M48.434 51.5491C49.4128 51.5491 50.2063 50.7688 50.2063 49.8063C50.2063 48.8438 49.4128 48.0635 48.434 48.0635C47.4551 48.0635 46.6616 48.8438 46.6616 49.8063C46.6616 50.7688 47.4551 51.5491 48.434 51.5491Z" fill="white"/>
<path d="M79.5104 56.0225C82.2838 56.0225 84.5321 53.8118 84.5321 51.0847C84.5321 48.3577 82.2838 46.147 79.5104 46.147C76.737 46.147 74.4888 48.3577 74.4888 51.0847C74.4888 53.8118 76.737 56.0225 79.5104 56.0225Z" fill="#231F20"/>
<path d="M78.2113 51.549C79.1901 51.549 79.9836 50.7687 79.9836 49.8062C79.9836 48.8437 79.1901 48.0635 78.2113 48.0635C77.2325 48.0635 76.439 48.8437 76.439 49.8062C76.439 50.7687 77.2325 51.549 78.2113 51.549Z" fill="white"/>
<path d="M64.1509 55.7311C64.1509 55.7311 63.1465 58.8099 63.6782 59.1004C63.9736 59.3328 66.514 58.3452 67.1639 54.1626L64.1509 55.7311Z" fill="#EC8822"/>
<path d="M62.9688 51.7816C62.9688 51.7816 64.0321 55.8479 63.9731 57.7068C63.9731 58.1715 64.682 58.1716 65.0365 57.823C66.2771 56.7193 67.2224 55.6156 67.1042 53.0596L63.9731 51.1426L62.9688 51.7816Z" fill="#D32E2E"/>
<path d="M63.1453 49.6327C63.1453 49.6327 62.0228 49.5165 60.1323 51.9564C60.1323 51.9564 63.1453 50.9688 67.2217 53.0601C67.1626 53.0601 65.9811 49.6908 63.1453 49.6327Z" fill="#EC8822"/>
<path d="M47.1968 80.5955C45.7789 80.1888 44.7746 79.1432 44.3611 77.8652C43.8884 79.6661 44.9518 81.5249 46.7833 82.0477C48.6147 82.5706 50.5052 81.5831 51.155 79.8403C50.0326 80.6536 48.5556 81.0021 47.1968 80.5955Z" fill="#989899"/>
<path d="M56.353 88.2045C55.0533 87.8559 54.1671 86.8684 53.7536 85.7065C53.34 87.3331 54.2853 89.0759 55.9395 89.5406C57.5936 90.0054 59.366 89.134 59.8977 87.5074C58.9524 88.2626 57.5936 88.553 56.353 88.2045Z" fill="#989899"/>
<path d="M68.1087 89.1925C66.809 89.1925 65.6274 88.6115 64.8594 87.624C64.9775 89.3087 66.3954 90.6448 68.1678 90.6448C69.881 90.5867 71.2989 89.1925 71.2989 87.5078C70.59 88.4954 69.4675 89.1925 68.1087 89.1925Z" fill="#989899"/>
<path d="M78.448 86.4622C79.6886 85.9394 80.4567 84.8938 80.7521 83.6738C81.4019 85.2423 80.6339 87.0432 79.0388 87.7403C77.4437 88.4374 75.6123 87.7402 74.8442 86.1717C75.9076 86.8688 77.2664 86.985 78.448 86.4622Z" fill="#989899"/>
<path d="M58.9528 82.2792C57.535 82.105 56.3534 81.2336 55.7035 80.0137C55.5263 81.8726 56.8851 83.5572 58.7165 83.7896C60.607 84.022 62.3203 82.7439 62.6748 80.9431C61.7886 81.9888 60.4298 82.5116 58.9528 82.2792Z" fill="#989899"/>
<path d="M85.1833 78.2708C86.5421 77.6899 87.4283 76.528 87.6646 75.25C88.3735 76.9928 87.5465 78.9679 85.7741 79.7231C84.0609 80.4783 81.9931 79.7231 81.166 78.0384C82.4067 78.6774 83.8836 78.8517 85.1833 78.2708Z" fill="#989899"/>
<path d="M73.7224 81.4075C75.1403 81.059 76.2037 80.0133 76.6763 78.7935C77.0899 80.5943 75.9674 82.4531 74.136 82.9178C72.3045 83.3826 70.414 82.337 69.8823 80.5362C70.8867 81.4075 72.3045 81.7561 73.7224 81.4075Z" fill="#989899"/>
<path d="M65.5679 34.9354C65.5679 34.9354 68.1082 32.0889 71.712 31.2175C74.7841 30.4623 73.6025 28.371 70.7667 29.8814C68.4036 31.1013 65.5679 34.9354 65.5679 34.9354Z" fill="#989899"/>
<path d="M63.678 34.1221C63.678 34.1221 63.1463 30.8109 60.7832 28.952C59.129 27.6159 60.1333 26.2798 60.9604 26.1636C62.5555 25.9893 63.8552 28.2549 63.678 34.1221Z" fill="#989899"/>
<path d="M62.0832 33.7156C62.0832 33.7156 57.1797 28.1968 54.0486 29.591C51.9218 30.5786 58.6567 31.5662 62.0832 33.7156Z" fill="#989899"/>
<path d="M27.8925 23.5386L25.7446 23.1396L17.3236 66.9776L19.4715 67.3766L27.8925 23.5386Z" fill="white"/>
<path d="M15.5298 30.4048C15.5298 30.4048 0.228532 37.2015 0.701157 45.2182C1.17378 53.2348 19.2517 62.5295 42.4694 63.6913C42.4694 63.6913 17.0067 61.6001 5.13202 47.658C-2.01644 39.1766 15.5298 30.4048 15.5298 30.4048Z" fill="url(#paint0_linear_1530_49301)"/>
<path d="M98.7113 56.603C98.7113 56.603 119.507 57.242 122.874 66.3624C126.242 75.4828 78.861 88.7277 51.626 85.5327C51.626 85.5327 70.7673 88.0306 102.847 76.1219C139.121 62.7027 98.7113 56.603 98.7113 56.603Z" fill="url(#paint1_linear_1530_49301)"/>
<defs>
<linearGradient id="paint0_linear_1530_49301" x1="0.70742" y1="47.019" x2="42.482" y2="47.019" gradientUnits="userSpaceOnUse">
<stop stop-color="#FFF480"/>
<stop offset="1" stop-color="#FFFFA3" stop-opacity="0"/>
</linearGradient>
<linearGradient id="paint1_linear_1530_49301" x1="52.1701" y1="70.3635" x2="122.864" y2="72.876" gradientUnits="userSpaceOnUse">
<stop stop-color="#FFF480"/>
<stop offset="1" stop-color="#FFFFA3" stop-opacity="0"/>
</linearGradient>
</defs>
</svg>
