<svg width="201" height="154" viewBox="0 0 201 154" fill="none" xmlns="http://www.w3.org/2000/svg">
<ellipse cx="160" cy="146.5" rx="38" ry="7.5" fill="black" fill-opacity="0.14"/>
<path d="M172.992 141.611L177.37 144.454" stroke="#D67B29" stroke-width="3" stroke-miterlimit="10" stroke-linecap="round"/>
<path d="M175.038 145.875L173.276 142.18C173.105 141.782 172.992 141.384 172.935 140.986L172.764 139.28" stroke="#EC8822" stroke-width="3" stroke-miterlimit="10" stroke-linecap="round"/>
<path d="M177.882 136.095C177.882 136.095 177.257 138.597 175.494 140.303C173.504 142.179 168.33 143.316 164.691 138.426L169.694 135.697L177.882 136.095Z" fill="#B2B2B2"/>
<path d="M134.153 135.47L131.765 139.393" stroke="#D67B29" stroke-width="3" stroke-miterlimit="10" stroke-linecap="round"/>
<path d="M129.664 136.72L133.587 135.64C133.985 135.526 134.383 135.469 134.781 135.526L136.487 135.697" stroke="#EC8822" stroke-width="3" stroke-miterlimit="10" stroke-linecap="round"/>
<path d="M148.086 135.868C148.086 135.868 142.912 138.426 138.25 137.119C133.132 135.754 129.437 130.466 131.029 125.52L148.086 135.868Z" fill="#D7D7D7"/>
<path d="M177.993 73.3236C177.993 73.3236 177.936 70.1964 176.572 67.6946C175.833 66.2732 175.321 65.1929 176.174 65.1929C177.823 65.2497 178.846 67.5809 177.993 73.3236Z" fill="#989899"/>
<path d="M120 105.904C120 105.904 125.174 107.098 128.471 103.402C135.01 94.3048 142.572 67.1265 167.135 69.3439C200.17 72.3574 198.976 99.3652 192.437 110.396C193.176 113.864 192.437 119.948 191.527 123.018C188.002 134.902 174.811 140.474 158.095 138.598C154.74 138.2 151.215 137.858 148.372 137.062C119.829 128.988 120 105.904 120 105.904Z" fill="#D7D7D7"/>
<path d="M196.701 96.5787C197.156 106.245 192.437 111.533 192.437 111.533C192.437 111.533 189.821 111.134 186.467 112.215C180.951 113.977 164.519 113.466 161.847 98.0002C159.8 86.401 169.75 74.6313 180.497 75.3705C190.39 76.1097 195.962 81.2838 196.701 96.5787Z" fill="white"/>
<path d="M190.381 93.7264C190.447 90.7124 189.279 88.2422 187.772 88.2092C186.265 88.1761 184.99 90.5926 184.924 93.6066C184.858 96.6206 186.026 99.0908 187.533 99.1238C189.04 99.1569 190.315 96.7404 190.381 93.7264Z" fill="#231F20"/>
<path d="M189.832 92.6085C189.856 91.5097 189.341 90.6072 188.682 90.5927C188.022 90.5783 187.468 91.4574 187.444 92.5562C187.42 93.6551 187.935 94.5576 188.595 94.572C189.254 94.5865 189.808 93.7074 189.832 92.6085Z" fill="white"/>
<path d="M199.545 101.583C199.545 101.583 196.929 101.185 195.053 101.924C193.518 102.492 193.177 98.7966 194.371 97.7732C195.565 96.7497 199.545 101.583 199.545 101.583Z" fill="#EC6C22"/>
<path d="M175.609 71.7886C175.609 71.7886 172.709 69.0025 169.582 68.4908C166.739 67.9791 168.16 65.8184 170.776 66.9556C173.107 68.0359 175.609 71.7886 175.609 71.7886Z" fill="#989899"/>
<path d="M177.143 72.3004C177.143 72.3004 175.779 68.7183 172.595 66.7851C169.922 65.1931 169.354 63.601 170.206 63.203C171.912 62.407 175.21 63.6579 177.143 72.3004Z" fill="#989899"/>
<path d="M176.061 129.5C174.867 128.761 174.185 127.453 174.128 126.146C173.162 127.738 173.617 129.784 175.209 130.808C176.801 131.831 178.904 131.376 179.985 129.841C178.734 130.353 177.256 130.239 176.061 129.5Z" fill="#989899"/>
<path d="M174.925 120.005C173.617 118.924 173.049 117.389 173.162 115.854C171.798 117.56 172.025 120.005 173.731 121.369C175.38 122.734 177.882 122.563 179.36 120.971C177.882 121.369 176.233 121.028 174.925 120.005Z" fill="#989899"/>
<path d="M185.386 125.179C183.794 124.61 182.714 123.303 182.316 121.824C181.634 123.871 182.714 126.089 184.761 126.828C186.808 127.567 189.082 126.6 189.935 124.61C188.627 125.52 186.922 125.804 185.386 125.179Z" fill="#989899"/>
<path d="M182.941 131.263C182.941 131.263 181.861 133.139 182.202 134.276C182.202 134.276 183.339 134.333 184.135 133.196C184.135 133.196 183.339 133.253 182.941 131.263Z" fill="#989899"/>
<path d="M77.1133 68.5273C78.3596 78.9198 89.5075 96.0525 132.391 99.7942" stroke="#FFFFEB" stroke-width="0.5"/>
<path d="M54.5376 57.603C67.931 85.1687 98.9591 97.4368 132.391 99.7941" stroke="#FFFFEB" stroke-width="0.5"/>
<path d="M57.8047 75.7505C73.7013 82.7341 110.982 97.124 132.931 98.8153" stroke="#FFFFEB" stroke-width="0.5"/>
<path d="M74.0182 72.5625C75.0277 72.0717 75.75 70.5057 76.1222 69.4573C76.7949 69.1301 78.1317 68.688 78.0973 69.5374C78.0628 70.3869 79.6422 72.0817 79.9425 72.8029C77.9462 73.2537 73.3047 72.9095 74.0182 72.5625Z" fill="#FF7B8F"/>
<path d="M87.0434 43.5721C85.5016 43.4314 83.9523 43.7425 82.5854 44.4674C81.2186 45.1923 80.0935 46.2994 79.3481 47.653C78.779 45.9189 77.6277 44.4337 76.0886 43.448C74.5495 42.4624 72.717 42.0368 70.9003 42.2431C69.0837 42.4493 67.3943 43.2749 66.1174 44.5802C64.8406 45.8856 64.0544 47.5909 63.8919 49.408C62.8451 60.7914 77.2428 70.5477 77.2428 70.5477C77.2428 70.5477 93.1862 63.5813 94.2329 52.198C94.4256 50.1033 93.7763 48.0177 92.428 46.4C91.0797 44.7824 89.1428 43.7651 87.0434 43.5721Z" fill="#FF7B8F"/>
<path d="M34.231 10.1952C32.0476 11.8506 30.3934 14.1055 29.4712 16.6836C28.5489 19.2618 28.3988 22.0512 29.039 24.71C26.2266 23.1218 22.9497 22.5536 19.7619 23.101C16.5741 23.6485 13.6707 25.2782 11.5418 27.7149C9.41301 30.1517 8.18929 33.2461 8.07723 36.4758C7.96516 39.7055 8.97166 42.8725 10.9268 45.4419C23.1376 61.572 53.5978 57.1514 53.5978 57.1514C53.5978 57.1514 66.1304 29.0256 53.9196 12.8955C51.6727 9.92735 48.336 7.9754 44.6437 7.46901C40.9514 6.96261 37.2058 7.94325 34.231 10.1952Z" fill="#FF5441"/>
<path d="M21.1851 61.7237C20.9885 63.7316 21.3805 65.753 22.3132 67.5404C23.2459 69.3278 24.6787 70.8033 26.4361 71.7864C24.1716 72.5128 22.2263 74.0002 20.9286 75.9971C19.631 77.994 19.0605 80.3782 19.3136 82.7472C19.5666 85.1161 20.6277 87.3246 22.3176 88.9997C24.0075 90.6748 26.2227 91.7139 28.589 91.9415C43.4129 93.404 56.2503 74.7278 56.2503 74.7278C56.2503 74.7278 47.311 53.8928 32.4872 52.4303C29.7594 52.1612 27.0362 52.9891 24.9167 54.732C22.7971 56.4748 21.4549 58.9899 21.1851 61.7237Z" fill="#FFA6B6"/>
<path d="M53.2428 59.8049C53.4727 58.7316 52.7214 57.2796 52.1521 56.3954C52.3052 55.6801 52.7665 54.376 53.3865 54.8815C54.0065 55.3871 56.2233 55.0949 56.9456 55.264C56.0989 57.0936 53.0803 60.5634 53.2428 59.8049Z" fill="#FF5441"/>
<path d="M57.3182 77.7298C57.4673 76.7119 55.9156 75.5651 55.0379 74.819C54.9413 74.1966 54.9472 73.0561 55.7434 73.4736C56.5396 73.8912 58.2905 73.5954 59.5429 73.1441C59.3351 74.7502 57.1813 78.664 57.3182 77.7298Z" fill="#FFA6B6"/>
<path d="M164.577 116.537C163.951 113.125 158.379 95.7263 140.127 90.2679C125.174 85.8329 132.793 97.6026 137.228 100.389C137.228 100.389 133.93 98.3418 132.167 100.275C130.405 102.151 131.769 108.747 139.786 111.419C139.786 111.419 132.793 109.372 132.281 114.944C131.769 120.517 139.104 125.748 149.395 127.738C159.687 129.728 165.259 119.948 164.577 116.537Z" fill="#989899"/>
<path d="M136 99.5C138.5 100.833 143.4 101.1 143 91.5" stroke="#FFFFEB" stroke-width="0.5" stroke-linecap="round"/>
<path d="M135 98.5C137.5 99.8333 143 97.5 142.5 91" stroke="#FFFFEB" stroke-width="0.5" stroke-linecap="round"/>
<path d="M196.818 93.793C196.818 93.793 199.661 95.5556 200.002 100.559C200.002 100.559 197.045 98.5691 194.544 98.4554C192.554 98.3417 195.226 93.5656 196.818 93.793Z" fill="#EC8822"/>
</svg>
