<svg width="16" height="16" viewBox="0 0 16 16" fill="none" xmlns="http://www.w3.org/2000/svg">
<path d="M9.21145 1V4.21377C4.87031 3.8924 -0.194859 7.42755 1.25211 14.1765C1.658 8.71306 9.21145 8.71306 9.21145 8.71306V11.6055L15 6.78479L9.21145 1Z" fill="#EFFFFE"/>
<path d="M9.21145 4.21377L9.13762 5.21104C9.4149 5.23157 9.68822 5.13573 9.89195 4.94652C10.0957 4.75731 10.2114 4.49182 10.2114 4.21377H9.21145ZM9.21145 1L9.91832 0.292664C9.63228 0.00680023 9.20221 -0.0786364 8.82861 0.0761827C8.45502 0.231002 8.21145 0.595597 8.21145 1H9.21145ZM15 6.78479L15.6399 7.55322C15.8559 7.37335 15.9862 7.11089 15.999 6.8301C16.0117 6.54932 15.9057 6.27614 15.7069 6.07746L15 6.78479ZM9.21145 11.6055H8.21145C8.21145 11.9934 8.43584 12.3464 8.78715 12.511C9.13845 12.6756 9.55327 12.6221 9.85139 12.3739L9.21145 11.6055ZM9.21145 8.71306H10.2114C10.2114 8.16077 9.76373 7.71306 9.21145 7.71306V8.71306ZM1.25211 14.1765L0.274326 14.3861C0.378589 14.8724 0.824388 15.2082 1.32057 15.1741C1.81676 15.1401 2.21251 14.7465 2.24936 14.2506L1.25211 14.1765ZM10.2114 4.21377V1H8.21145V4.21377H10.2114ZM8.50457 1.70734L14.2931 7.49213L15.7069 6.07746L9.91832 0.292664L8.50457 1.70734ZM14.3601 6.01637L8.57151 10.837L9.85139 12.3739L15.6399 7.55322L14.3601 6.01637ZM10.2114 11.6055V8.71306H8.21145V11.6055H10.2114ZM9.21145 8.71306C9.21145 7.71306 9.21107 7.71306 9.21065 7.71306C9.21048 7.71306 9.21004 7.71306 9.20968 7.71306C9.20898 7.71306 9.20816 7.71306 9.20722 7.71306C9.20535 7.71307 9.20302 7.71308 9.20023 7.71309C9.19466 7.71313 9.18727 7.71318 9.17811 7.71329C9.1598 7.7135 9.13444 7.71391 9.10246 7.71468C9.03853 7.71622 8.94806 7.71921 8.83469 7.72505C8.60822 7.7367 8.28891 7.75976 7.90624 7.80548C7.1455 7.89638 6.11181 8.07945 5.0518 8.45277C2.95267 9.19206 0.501025 10.7889 0.254854 14.1024L2.24936 14.2506C2.40908 12.1006 3.93711 10.9658 5.71618 10.3392C6.59526 10.0296 7.47531 9.8712 8.14352 9.79136C8.47533 9.75171 8.7493 9.73209 8.93749 9.72241C9.03146 9.71757 9.10366 9.71523 9.15058 9.7141C9.17403 9.71354 9.19112 9.71327 9.20142 9.71315C9.20657 9.71309 9.21002 9.71307 9.21171 9.71306C9.21255 9.71306 9.21296 9.71305 9.21292 9.71305C9.2129 9.71305 9.21277 9.71305 9.21252 9.71306C9.2124 9.71306 9.21213 9.71306 9.21207 9.71306C9.21177 9.71306 9.21145 9.71306 9.21145 8.71306ZM2.22989 13.9668C1.57032 10.8905 2.40277 8.6663 3.78085 7.23814C5.1909 5.77684 7.24621 5.07102 9.13762 5.21104L9.28528 3.2165C6.83555 3.03515 4.18771 3.93621 2.34163 5.84938C0.463582 7.79568 -0.513073 10.7135 0.274326 14.3861L2.22989 13.9668Z" fill="#009891"/>
<path d="M10.1592 10.0588C9.5922 9.54041 9.23535 8.78709 9.23535 7.94864C9.23535 6.38511 10.4762 5.11761 12.007 5.11761C12.8278 5.11761 13.669 5.61996 14.1765 6.19914C12.4186 8.08649 10.7751 9.20687 10.1592 10.0588Z" fill="#C9EBE9"/>
<path d="M9.21145 4.21377L9.13762 5.21104C9.4149 5.23157 9.68822 5.13573 9.89195 4.94652C10.0957 4.75731 10.2114 4.49182 10.2114 4.21377H9.21145ZM9.21145 1L9.91832 0.292664C9.63228 0.00680023 9.20221 -0.0786364 8.82861 0.0761827C8.45502 0.231002 8.21145 0.595597 8.21145 1L9.21145 1ZM15 6.78479L15.6399 7.55322C15.8559 7.37335 15.9862 7.11089 15.999 6.8301C16.0117 6.54932 15.9057 6.27614 15.7069 6.07746L15 6.78479ZM9.21145 11.6055H8.21145C8.21145 11.9934 8.43584 12.3464 8.78715 12.511C9.13845 12.6756 9.55327 12.6221 9.85139 12.3739L9.21145 11.6055ZM9.21145 8.71306H10.2114C10.2114 8.16077 9.76373 7.71306 9.21145 7.71306V8.71306ZM1.25211 14.1765L0.274326 14.3861C0.378589 14.8724 0.824388 15.2082 1.32057 15.1741C1.81676 15.1401 2.21251 14.7465 2.24936 14.2506L1.25211 14.1765ZM10.2114 4.21377V1H8.21145V4.21377H10.2114ZM8.50457 1.70734L14.2931 7.49213L15.7069 6.07746L9.91832 0.292664L8.50457 1.70734ZM14.3601 6.01637L8.57151 10.837L9.85139 12.3739L15.6399 7.55322L14.3601 6.01637ZM10.2114 11.6055V8.71306H8.21145V11.6055H10.2114ZM9.21145 8.71306C9.21145 7.71306 9.21106 7.71306 9.21065 7.71306C9.21048 7.71306 9.21004 7.71306 9.20968 7.71306C9.20898 7.71306 9.20816 7.71306 9.20722 7.71306C9.20535 7.71307 9.20302 7.71308 9.20023 7.71309C9.19466 7.71313 9.18727 7.71318 9.17811 7.71329C9.1598 7.7135 9.13443 7.71391 9.10246 7.71468C9.03853 7.71622 8.94806 7.71921 8.83469 7.72505C8.60822 7.7367 8.28891 7.75976 7.90624 7.80548C7.1455 7.89638 6.11181 8.07945 5.0518 8.45277C2.95266 9.19206 0.501025 10.7889 0.254854 14.1024L2.24936 14.2506C2.40908 12.1006 3.93711 10.9658 5.71618 10.3392C6.59526 10.0296 7.47531 9.8712 8.14352 9.79136C8.47533 9.75171 8.7493 9.73209 8.93749 9.72241C9.03146 9.71757 9.10366 9.71523 9.15058 9.7141C9.17403 9.71354 9.19112 9.71327 9.20142 9.71315C9.20657 9.71309 9.21002 9.71307 9.21171 9.71306C9.21255 9.71306 9.21296 9.71305 9.21292 9.71305C9.2129 9.71305 9.21277 9.71305 9.21252 9.71306C9.2124 9.71306 9.21213 9.71306 9.21207 9.71306C9.21177 9.71306 9.21145 9.71306 9.21145 8.71306ZM2.22989 13.9668C1.57032 10.8905 2.40277 8.6663 3.78085 7.23814C5.1909 5.77684 7.24621 5.07102 9.13762 5.21104L9.28528 3.2165C6.83555 3.03515 4.18771 3.93621 2.34163 5.84938C0.463582 7.79568 -0.513073 10.7135 0.274326 14.3861L2.22989 13.9668Z" fill="#009891"/>
</svg>
