<?xml version="1.0" encoding="utf-8"?>
<!-- Generator: Adobe Illustrator 26.0.0, SVG Export Plug-In . SVG Version: 6.00 Build 0)  -->
<svg version="1.1" id="圖層_1" xmlns="http://www.w3.org/2000/svg" xmlns:xlink="http://www.w3.org/1999/xlink" x="0px" y="0px"
	 viewBox="0 0 375 677" style="enable-background:new 0 0 375 677;" xml:space="preserve">
<style type="text/css">
	.st0{fill:none;}
	.st1{opacity:0.5;}
	.st2{fill:url(#SVGID_1_);}
	.st3{fill:none;stroke:#BAE6DB;stroke-width:2;stroke-linecap:round;}
	.st4{fill:url(#SVGID_00000149343479384252400880000017347848096401128864_);}
	.st5{fill:none;stroke:#FEFAE9;stroke-width:2;stroke-linecap:round;}
	.st6{opacity:0.8;fill:url(#SVGID_00000171715472296382646910000011333093201879074190_);enable-background:new    ;}
	.st7{fill:url(#SVGID_00000054261414526190043030000009336960021159265444_);}
	.st8{fill:none;stroke:#FFCDC1;}
	.st9{fill:url(#SVGID_00000134968007401988142180000017538392737842851496_);}
	.st10{fill:#21A29C;}
	.st11{fill:none;stroke:#21A29C;}
	.st12{fill:none;stroke:#136D69;}
	.st13{fill-rule:evenodd;clip-rule:evenodd;fill:#28B8BA;}
	.st14{fill-rule:evenodd;clip-rule:evenodd;fill:#EDE9DB;}
	.st15{fill-rule:evenodd;clip-rule:evenodd;fill:#E4DBD0;}
</style>
<rect class="st0" width="375" height="677"/>
<g>
	<g class="st1">
		
			<linearGradient id="SVGID_1_" gradientUnits="userSpaceOnUse" x1="54.9451" y1="549.0002" x2="55.0488" y2="360.9212" gradientTransform="matrix(1 0 0 -1 0 678)">
			<stop  offset="0.5449" style="stop-color:#E3F3F2"/>
			<stop  offset="1" style="stop-color:#F0FBF9;stop-opacity:0"/>
		</linearGradient>
		<path class="st2" d="M78.3,144.4c-8.7-20.6-37.8-20.6-46.5,0l-60.3,143.1c-8.5,20.2,6.3,42.5,28.2,42.5h110.8
			c21.9,0,36.7-22.3,28.2-42.5L78.3,144.4z"/>
		<line class="st3" x1="31.4" y1="185.1" x2="36.8" y2="185.1"/>
		<line class="st3" x1="55.6" y1="195.6" x2="61" y2="195.6"/>
		<line class="st3" x1="21.2" y1="215.1" x2="26.6" y2="215.1"/>
		<line class="st3" x1="74.8" y1="182" x2="80.2" y2="182"/>
	</g>
	
		<linearGradient id="SVGID_00000053528887465196666600000002057485095979201450_" gradientUnits="userSpaceOnUse" x1="104.9726" y1="508.9999" x2="105.1316" y2="424.4379" gradientTransform="matrix(1 0 0 -1 0 678)">
		<stop  offset="0.3281" style="stop-color:#DAF5F0"/>
		<stop  offset="1" style="stop-color:#E8FFFE"/>
	</linearGradient>
	<path style="fill:url(#SVGID_00000053528887465196666600000002057485095979201450_);" d="M118.7,178c-5.1-12-22.1-12-27.1,0
		l-35.2,83.4c-5,11.8,3.7,24.8,16.4,24.8h64.6c12.8,0,21.4-13,16.4-24.8L118.7,178z"/>
	<line class="st5" x1="94.8" y1="195.3" x2="97" y2="195.3"/>
	<line class="st5" x1="100.9" y1="178.4" x2="103.2" y2="178.4"/>
	<line class="st5" x1="109.6" y1="186.5" x2="111.9" y2="186.5"/>
	<line class="st5" x1="117.9" y1="200.1" x2="120.2" y2="200.1"/>
	
		<linearGradient id="SVGID_00000100353597694499400560000006775027523449055133_" gradientUnits="userSpaceOnUse" x1="285.3693" y1="588.2399" x2="190.3263" y2="503.0248" gradientTransform="matrix(1 0 0 -1 0 678)">
		<stop  offset="0" style="stop-color:#FFFFFF"/>
		<stop  offset="1" style="stop-color:#FFFFFF;stop-opacity:0.16"/>
	</linearGradient>
	<path style="opacity:0.8;fill:url(#SVGID_00000100353597694499400560000006775027523449055133_);enable-background:new    ;" d="
		M270.1,35.1C272.5,15.4,290,0,311.4,0c22.9,0,41.5,17.8,41.5,39.7c15.8,0.1,29.2,10.2,33.6,24c2.4-0.7,4.9-1.1,7.5-1.1
		c13.8,0,25,10.7,25,23.9c0,13.2-11.2,23.9-25,23.9c-82.1,0-270.4,72.7-270.4,72.7C111,152.5,145.3,63.1,187,63.1
		c19-1.1,11.1-32.1,40.3-34.2c11.2,0,21.2,4.9,27.7,12.7C259.1,38,264.3,35.7,270.1,35.1z"/>
	
		<linearGradient id="SVGID_00000080896852177040036070000007368463737592503220_" gradientUnits="userSpaceOnUse" x1="17.427" y1="536.8745" x2="101.4276" y2="415.8745" gradientTransform="matrix(1 0 0 -1 0 678)">
		<stop  offset="0" style="stop-color:#FFE3DD"/>
		<stop  offset="1" style="stop-color:#FFC5B8"/>
	</linearGradient>
	<path style="fill:url(#SVGID_00000080896852177040036070000007368463737592503220_);" d="M375,236.5C336,194.5,168.5,102,0,102
		c0,140.3-0.5,292.7-0.5,433H375C375,535,375,278,375,236.5z"/>
	<path class="st8" d="M2,120c157.5,0,298.6,113.4,375,192"/>
	<path class="st8" d="M-16,157c157.5,0,298.6,113.4,375,192"/>
	
		<linearGradient id="SVGID_00000131325577318448530350000010579642643422655148_" gradientUnits="userSpaceOnUse" x1="205.9577" y1="535.1669" x2="197.5667" y2="400.6248" gradientTransform="matrix(1 0 0 -1 0 678)">
		<stop  offset="0" style="stop-color:#0D928B"/>
		<stop  offset="1" style="stop-color:#00706A"/>
	</linearGradient>
	<path style="fill:url(#SVGID_00000131325577318448530350000010579642643422655148_);" d="M0,201.1C155.3,181.1,266.1,80,375,80
		c0,127.4,0,469.1,0,596.5H0C0,676.5,0,238.7,0,201.1z"/>
	<path class="st10" d="M243,116c90-40,132-40,132-40c0,35,0,89,0,89S254.5,153,243,116z"/>
	<path class="st11" d="M191.5,139.5c0,0-15.2,68.5,185.5,98.5"/>
	<path class="st12" d="M52.3,193c0,0-19.5,62.4,269.7,123"/>
	<path class="st13" d="M356.5,84.1c0.8,0,1.5-0.7,1.5-1.5c0-0.8-0.7-1.5-1.5-1.5c-0.8,0-1.5,0.7-1.5,1.5
		C355,83.4,355.7,84.1,356.5,84.1z M280.5,111c0.8,0,1.5-0.7,1.5-1.5c0-0.8-0.7-1.5-1.5-1.5s-1.5,0.7-1.5,1.5
		C279,110.3,279.7,111,280.5,111z M366,130.5c0,0.8-0.7,1.5-1.5,1.5s-1.5-0.7-1.5-1.5c0-0.8,0.7-1.5,1.5-1.5S366,129.7,366,130.5z
		 M315.5,97c0.8,0,1.5-0.7,1.5-1.5s-0.7-1.5-1.5-1.5s-1.5,0.7-1.5,1.5S314.7,97,315.5,97z M346,108.5c0,0.8-0.7,1.5-1.5,1.5
		s-1.5-0.7-1.5-1.5c0-0.8,0.7-1.5,1.5-1.5S346,107.7,346,108.5z M316.5,129c0.8,0,1.5-0.7,1.5-1.5c0-0.8-0.7-1.5-1.5-1.5
		s-1.5,0.7-1.5,1.5C315,128.3,315.7,129,316.5,129z"/>
	<path class="st14" d="M335.4,40.1c0,0.6,0.1,1.1,0.2,1.7c0.2,1.9,0.4,4.5-2,6.4c-4,2.7-6.6,7.2-6.6,12.3c0,8.3,6.9,15,15.5,15
		s15.5-6.7,15.5-15c0-4.6-2.1-8.7-5.5-11.5c-0.1-0.2-0.3-0.3-0.5-0.5c-2.7-2.3-2.4-5.2-2.1-7.1c0.1-0.3,0.1-0.7,0.1-1
		c0-0.2,0-0.4,0-0.6c-0.1-3.8-3.3-6.9-7.3-6.9C338.7,33,335.4,36.2,335.4,40.1z"/>
	<path class="st15" d="M343.8,45.7h-1.3v9.8l-5-5l-0.7,0.7l5.7,5.7v9.3l-8.1-8.1l-0.7,0.7l8.8,8.8v17.6h1.3V70.6l5.9-5.9l-0.7-0.7
		l-5.2,5.2v-1.6l0.1-0.1l-0.1-0.1v-7.2l5.9-5.9l-0.7-0.7l-5.2,5.2v-2.1l0,0l0,0V45.7z"/>
</g>
</svg>
