<svg width="74" height="62" viewBox="0 0 74 62" fill="none" xmlns="http://www.w3.org/2000/svg">
<g clip-path="url(#clip0)">
<path d="M58.5561 8.18194C38.4858 6.06308 20.4166 21.3071 19.0629 40.5534C17.7092 60.3294 25.4784 74.0431 37.3675 81.8711C39.8984 83.578 43.0178 83.8723 45.7252 82.9306C47.3732 82.342 49.1978 82.2243 51.0812 82.5186C53.0235 82.8128 54.7892 83.6369 56.2606 84.6963C58.7915 86.5209 64.9127 87.1683 67.7378 86.4031C81.4515 82.6363 89.5738 69.4523 91.7515 48.6168C93.9293 28.3111 79.2738 10.3597 58.5561 8.18194Z" fill="#E7E4E2"/>
<path d="M28.0688 58.2108C26.7151 57.6811 25.7734 56.4451 25.4203 54.9736C24.8905 56.9748 25.7734 59.1525 27.5391 59.8588C29.3048 60.5651 31.2471 59.5645 31.9534 57.6222C30.8351 58.4462 29.4225 58.7405 28.0688 58.2108Z" fill="#989899"/>
<path d="M38.604 64.0966C37.0737 63.508 35.8966 62.272 35.4257 60.7417C34.896 62.8017 36.0143 65.0383 38.0743 65.8034C40.1343 66.5685 42.312 65.5091 43.0183 63.508C41.7823 64.3909 40.1343 64.6851 38.604 64.0966Z" fill="#989899"/>
<path d="M65.3838 63.4491C66.9141 62.9194 67.9735 61.6245 68.3267 60.0942C69.1507 62.3308 68.1501 64.6262 66.0901 65.2737C64.089 65.9211 61.7347 64.7439 60.793 62.6251C62.1467 63.6257 63.8535 63.9788 65.3838 63.4491Z" fill="#989899"/>
<path d="M60.6162 23.7202C57.791 23.4259 54.495 23.7791 51.611 24.6619C49.551 25.3093 47.3144 24.8385 45.7253 23.3082C43.9007 21.6013 41.1933 20.4831 38.2504 20.1888C29.5396 19.3059 22.2413 26.0745 21.2407 35.2562C20.2401 44.5556 26.7144 52.7368 35.6019 53.3842C37.4853 53.5019 38.8979 53.2665 40.2516 52.7956C42.3116 51.9716 44.607 52.2659 46.3727 53.5608C49.4921 55.8562 53.7887 57.3865 57.6733 57.6808C67.3259 58.3871 75.6247 51.3242 76.3899 42.0836C77.0962 32.843 70.0922 24.7208 60.6162 23.7202Z" fill="white"/>
<path d="M44.9373 42.0765C44.9373 42.0765 43.9536 45.1433 44.4744 45.4326C44.7637 45.6641 47.2518 44.6804 47.8883 40.5142L44.9373 42.0765Z" fill="#EC8822"/>
<path d="M43.7793 38.1419C43.7793 38.1419 44.8208 42.1923 44.763 44.044C44.763 44.5069 45.4574 44.5069 45.8045 44.1597C47.0197 43.0603 47.9455 41.9609 47.8298 39.4149L44.763 37.5054L43.7793 38.1419Z" fill="#D32E2E"/>
<path d="M43.953 36.0009C43.953 36.0009 42.8536 35.8851 41.002 38.3154C41.002 38.3154 43.953 37.3318 47.9456 39.4149C47.8878 39.4149 46.7305 36.0587 43.953 36.0009Z" fill="#EC8822"/>
<path d="M66.2932 39.0715C67.0917 36.4265 65.5696 33.6273 62.8935 32.8194C60.2173 32.0115 57.4006 33.5008 56.6021 36.1458C55.8036 38.7908 57.3257 41.59 60.0018 42.3979C62.678 43.2058 65.4947 41.7165 66.2932 39.0715Z" fill="#231F20"/>
<path d="M64.0985 36.6652C64.3334 35.8872 63.9183 35.0738 63.1715 34.8484C62.4247 34.6229 61.6288 35.0708 61.394 35.8487C61.1591 36.6267 61.5742 37.4401 62.321 37.6656C63.0678 37.891 63.8636 37.4431 64.0985 36.6652Z" fill="white"/>
<path d="M36.3529 34.523C37.1514 31.878 35.7554 29.1169 33.2348 28.356C30.7143 27.595 28.0236 29.1224 27.2251 31.7674C26.4266 34.4124 27.8226 37.1735 30.3432 37.9344C32.8637 38.6954 35.5543 37.168 36.3529 34.523Z" fill="#231F20"/>
<path d="M34.3452 32.1795C34.5801 31.4016 34.1902 30.5958 33.4745 30.3797C32.7588 30.1636 31.9882 30.6191 31.7534 31.3971C31.5185 32.175 31.9083 32.9808 32.624 33.1969C33.3397 33.413 34.1103 32.9575 34.3452 32.1795Z" fill="white"/>
<path d="M58.1445 11.9487C58.1445 11.9487 61.6171 9.24123 65.8548 9.0058C69.4451 8.82923 68.6211 6.1218 65.0897 7.24008C62.2645 8.1818 58.1445 11.9487 58.1445 11.9487Z" fill="#989899"/>
<path d="M55.85 11.8899C55.85 11.8899 56.0265 7.88764 53.8488 5.18021C52.3185 3.23792 53.7311 1.94307 54.7317 2.00193C56.4974 2.1785 57.4391 5.06249 55.85 11.8899Z" fill="#989899"/>
<path d="M54.1429 11.007C54.1429 11.007 50.1994 3.88531 46.6092 4.76817C44.1372 5.4156 51.0235 7.94646 54.1429 11.007Z" fill="#989899"/>
<path d="M21.7614 28.4857L16.1699 41.7328L37.9471 75.87L74.1442 59.0915C74.1442 59.0915 94.8604 51.2732 91.5071 37.9029C90.8429 35.2544 88.3091 22.8943 76.4985 14.9528C59.43 3.47561 44.1271 9.05877 35.5928 13.1829C29.4128 16.1693 21.7614 28.4857 21.7614 28.4857Z" fill="url(#paint0_linear)"/>
<g filter="url(#filter0_d)">
<path d="M13.5929 48.9046C13.0977 45.1718 16.1232 41.9107 19.8826 42.1252L28.0259 42.5899C30.9005 42.7539 33.2533 44.9368 33.632 47.791L36.7471 71.2708C37.2423 75.0036 34.2168 78.2647 30.4574 78.0502L22.3141 77.5856C19.4395 77.4216 17.0867 75.2387 16.708 72.3844L13.5929 48.9046Z" fill="#343434"/>
</g>
<ellipse cx="30.78" cy="46.4297" rx="0.882858" ry="1.17714" transform="rotate(-7.55737 30.78 46.4297)" fill="white"/>
<path d="M14.0237 51.5325C15.8432 48.0334 17.9036 45.8665 20.2443 47.8955C22.1895 50.7137 18.4038 56.901 18.4038 56.901C18.4038 56.901 21.402 53.9663 22.8007 55.747C24.1993 57.5276 23.6115 61.2227 19.2818 63.7402C19.2818 63.7402 21.6047 62.3631 22.9559 64.2122C24.8012 66.8093 17.925 73.4359 16.9571 72.7138C12.9065 69.4987 11.8185 56.5368 14.0237 51.5325Z" fill="#989899"/>
<path fill-rule="evenodd" clip-rule="evenodd" d="M0.0984505 35.8789C0.075323 35.3271 0.503897 34.861 1.0557 34.8379L1.92493 34.8015C2.12881 34.7929 2.32098 34.8461 2.48343 34.9443C2.57723 34.712 2.7045 34.4892 2.86805 34.285C3.32079 33.72 4.00351 33.361 4.83878 33.326C5.39058 33.3029 5.85665 33.7315 5.87978 34.2833C5.9029 34.8351 5.47433 35.3012 4.92253 35.3243C4.64267 35.336 4.5069 35.4382 4.42885 35.5356C4.33439 35.6535 4.26936 35.8395 4.27851 36.0576C4.28765 36.2758 4.36802 36.4557 4.47201 36.5652C4.55793 36.6558 4.70177 36.7462 4.98164 36.7345C5.45305 36.7147 5.71895 36.4191 6.21272 35.4757C6.23341 35.4362 6.25479 35.395 6.27688 35.3524C6.47354 34.9735 6.72659 34.486 7.05089 34.096C7.44791 33.6187 8.02517 33.1925 8.85324 33.1578C9.68283 33.123 10.3344 33.5057 10.7254 34.0972C10.7952 34.2028 10.8553 34.3126 10.9068 34.4251L11.6738 34.393C12.2256 34.3698 12.6917 34.7984 12.7148 35.3502C12.738 35.902 12.3094 36.3681 11.7576 36.3912L11.1057 36.4185C11.034 36.801 10.9021 37.1782 10.7057 37.5087C10.4162 37.9962 9.88319 38.5308 9.07985 38.5645C8.52805 38.5876 8.06198 38.159 8.03885 37.6072C8.01669 37.0785 8.40923 36.6285 8.92752 36.5714C8.94138 36.5556 8.96131 36.5293 8.9863 36.4872C9.08137 36.3272 9.16039 36.0661 9.16983 35.778C9.1795 35.4827 9.11318 35.2851 9.05696 35.2001C9.04524 35.1824 9.03639 35.1731 9.03206 35.1691C9.02986 35.167 9.02844 35.1659 9.02781 35.1655L9.02657 35.1647C9.02631 35.1646 9.02538 35.1641 9.02345 35.1634C9.02151 35.1627 9.01779 35.1615 9.01183 35.1603C9.00028 35.1578 8.97645 35.1544 8.93699 35.156C8.83578 35.1603 8.74324 35.189 8.58857 35.3749C8.40983 35.5898 8.25734 35.8816 8.03194 36.3128L7.98469 36.4031L7.97018 36.4309C7.54782 37.2383 6.80416 38.6599 5.06539 38.7327C4.23012 38.7677 3.51975 38.4672 3.02133 37.942C2.68635 37.5891 2.47112 37.161 2.3625 36.7193C2.25353 36.7662 2.1343 36.7945 2.00868 36.7997L1.13945 36.8362C0.587649 36.8593 0.121578 36.4307 0.0984505 35.8789ZM8.90513 36.5921C8.90505 36.5917 8.90776 36.5892 8.9135 36.586C8.90809 36.5909 8.90521 36.5926 8.90513 36.5921Z" fill="#FEC602"/>
<rect x="9.69396" y="15.1538" width="11" height="8" rx="1" transform="rotate(10.9612 9.69396 15.1538)" stroke="#FEC602" stroke-width="2"/>
<rect x="10.207" y="20.063" width="3.25" height="1.04762" rx="0.523809" transform="rotate(10.9612 10.207 20.063)" fill="#FEC602"/>
<line x1="8.95968" y1="17.9543" x2="20.1272" y2="20.1172" stroke="#FEC602" stroke-width="2"/>
<path d="M26.8361 11.6531L26.1213 9.75724C25.8121 8.93731 26.1563 8.01507 26.9271 7.59825V7.59825C27.7028 7.17876 28.0458 6.24803 27.7278 5.42551L26.1935 1.45777" stroke="#FEC602" stroke-width="2" stroke-linecap="round"/>
<path d="M24.7421 3.74933L25.2008 2.67351C25.6341 1.65748 26.809 1.18507 27.8251 1.61836L28.9009 2.07714" stroke="#FEC602" stroke-width="2" stroke-linecap="round"/>
</g>
<defs>
<filter id="filter0_d" x="13.5391" y="41.1152" width="26.2617" height="36.9448" filterUnits="userSpaceOnUse" color-interpolation-filters="sRGB">
<feFlood flood-opacity="0" result="BackgroundImageFix"/>
<feColorMatrix in="SourceAlpha" type="matrix" values="0 0 0 0 0 0 0 0 0 0 0 0 0 0 0 0 0 0 127 0" result="hardAlpha"/>
<feOffset dx="3" dy="-1"/>
<feComposite in2="hardAlpha" operator="out"/>
<feColorMatrix type="matrix" values="0 0 0 0 0.254167 0 0 0 0 0.254167 0 0 0 0 0.254167 0 0 0 1 0"/>
<feBlend mode="normal" in2="BackgroundImageFix" result="effect1_dropShadow"/>
<feBlend mode="normal" in="SourceGraphic" in2="effect1_dropShadow" result="shape"/>
</filter>
<linearGradient id="paint0_linear" x1="30.2957" y1="52.3229" x2="57.3699" y2="28.4858" gradientUnits="userSpaceOnUse">
<stop stop-color="#FFE600" stop-opacity="0.27"/>
<stop offset="1" stop-color="#FFE600" stop-opacity="0"/>
</linearGradient>
<clipPath id="clip0">
<rect width="74" height="62" fill="white"/>
</clipPath>
</defs>
</svg>
