<?xml version="1.0" encoding="utf-8"?>
<!-- Generator: Adobe Illustrator 26.0.1, SVG Export Plug-In . SVG Version: 6.00 Build 0)  -->
<svg version="1.1" id="圖層_1" xmlns="http://www.w3.org/2000/svg" xmlns:xlink="http://www.w3.org/1999/xlink" x="0px" y="0px"
	 viewBox="0 0 170 70" style="enable-background:new 0 0 170 70;" xml:space="preserve">
<style type="text/css">
	.st0{fill-rule:evenodd;clip-rule:evenodd;fill:url(#SVGID_1_);}
</style>
<g>
	
		<linearGradient id="SVGID_1_" gradientUnits="userSpaceOnUse" x1="74.4305" y1="72.8196" x2="144.8885" y2="35.7393" gradientTransform="matrix(1 0 0 -1 0 72)">
		<stop  offset="0" style="stop-color:#9D844F"/>
		<stop  offset="1" style="stop-color:#FFF7E9"/>
	</linearGradient>
	<path class="st0" d="M76.2-9.7c1.5,1.6,3.7,3.6,7.1,5.2c3.4,1.6,8,2.7,14.3,2.5c3.1-0.1,6.2,0.3,9.2,0.7c0.7,0.1,1.4,0.2,2.2,0.3
		l0,0v0l0,0c2.2,0.3,4.4,0.7,6.5,0.8c2.7,0.2,5.3,0.1,7.6-0.8c2.3-0.9,4.3-2.5,6-5.2l-0.4-0.3c-1.6,2.7-3.6,4.2-5.8,5
		c-2.2,0.8-4.7,1-7.4,0.8c-2-0.1-4.2-0.5-6.4-0.8c-0.7-0.1-1.4-0.2-2.2-0.3c-3-0.4-6.2-0.8-9.3-0.7c-6.3,0.2-10.8-0.9-14.1-2.5
		c-3.3-1.6-5.4-3.6-6.9-5.1L76.2-9.7z M60.6-9.3c1.7,3.3,5,8.2,9.3,12.6c4.3,4.3,9.7,8.1,15.6,8.8c7.4,0.9,12.3-0.9,17-3
		c0.5-0.2,0.9-0.4,1.4-0.6c4.2-1.9,8.3-3.7,13.9-3.7c1.6,0,3,0,4.3,0.1l0.1,0c1.3,0,2.4,0.1,3.5,0.1c2.2,0,4-0.2,5.6-0.8
		c3.1-1.3,4.9-4.5,6.4-11.7l-0.5-0.1c-1.5,7.2-3.3,10.1-6.1,11.3c-1.4,0.6-3.2,0.8-5.4,0.8c-1.1,0-2.2,0-3.5-0.1l-0.1,0
		c-1.3,0-2.8-0.1-4.3-0.1c-5.7,0-9.9,1.9-14.1,3.7l0,0l0,0c-0.5,0.2-0.9,0.4-1.4,0.6c-4.6,2-9.5,3.8-16.8,2.9
		c-5.8-0.7-11.1-4.4-15.3-8.7C65.9-1.4,62.7-6.3,61-9.5L60.6-9.3z M37-0.6c-2.3-3.4-4.2-6.1-5.6-7.7l0.4-0.3
		c1.5,1.6,3.4,4.4,5.7,7.8l0,0l0,0c0.7,1,1.5,2.1,2.3,3.3c3.4,4.9,7.5,10.5,12.4,15.9C61.7,29.2,74,38.9,88.5,39.1
		c7.7-0.2,15.5-3.8,22.3-7.8c3.1-1.8,6-3.7,8.6-5.4l0,0v0c0.2-0.2,0.5-0.3,0.7-0.5c2.8-1.8,5.2-3.4,7.1-4.3
		c3.8-1.8,8.7-3.5,13.8-4.5c5.1-1,10.3-1.2,14.6-0.1c2.1,0.6,3.9,0.9,5.3,0.9c1.4,0,2.3-0.3,2.8-1.1c0.5-0.8,0.6-2,0.2-4
		c-0.5-2-1.4-4.6-3.1-8.1c-3.2-5.8-5-9.6-5.6-10.9l0.5-0.2c0.5,1.2,2.3,5,5.5,10.8l0,0l0,0c1.6,3.5,2.7,6.2,3.1,8.2
		c0.5,2,0.4,3.5-0.2,4.4c-0.6,1-1.8,1.3-3.3,1.3c-1.5,0-3.3-0.4-5.5-1c-4.2-1.1-9.4-0.9-14.4,0.1c-5,1-9.9,2.6-13.7,4.4
		c-1.9,0.9-4.3,2.4-7,4.3c-0.2,0.2-0.5,0.3-0.7,0.5c-2.6,1.7-5.5,3.6-8.6,5.4c-6.8,4-14.7,7.6-22.6,7.9l0,0v0
		c-14.7-0.2-27.1-10.1-36.8-21c-4.8-5.4-9-11.1-12.4-16C38.5,1.5,37.7,0.4,37-0.6z M53,10.1C47.3,3.3,41.8-3.8,38.4-8.3l0.4-0.3
		C42.2-4.1,47.7,3,53.4,9.7c5.7,6.7,11.6,13,15.6,15.9c10,7.2,26,9.9,39.5,0c6.8-5,11.9-8,16.5-9.8c4.6-1.8,8.8-2.4,13.9-2.4
		c3.7,0,7,0.5,9.9,0.8l0,0c0.4,0.1,0.8,0.1,1.2,0.2c1.6,0.2,2.9,0.4,4.1,0.4c1.2,0,2.1-0.1,2.8-0.5c0.7-0.3,1.1-0.9,1.3-1.8
		c0.2-0.9,0.2-2.1-0.2-3.8c-0.7-3.4-2.7-8.5-6.2-16.2l0.5-0.2c3.5,7.7,5.5,12.9,6.3,16.3c0.4,1.7,0.4,3.1,0.2,4
		c-0.2,1-0.8,1.7-1.6,2.1c-0.8,0.4-1.8,0.5-3,0.5c-1.2,0-2.6-0.2-4.2-0.4c-0.4-0.1-0.8-0.1-1.2-0.2l0,0c-2.9-0.4-6.2-0.8-9.8-0.8
		c-5,0-9.1,0.6-13.7,2.4c-4.6,1.8-9.6,4.8-16.4,9.8c-13.7,10-30,7.3-40.1,0C64.6,23.1,58.7,16.8,53,10.1z M53.9,29.6
		C42.4,18.8,32.1,4.5,24.8-8.3l0.4-0.2c7.3,12.8,17.6,27,29.1,37.8c11.5,10.8,24,18,35.7,17.1c10.9-0.8,20.5-7.3,30.1-13.8
		c0.7-0.5,1.5-1,2.2-1.5c10.3-6.9,20.9-13.4,33.3-12.3c2.3,0.1,4.6,0.6,6.7,1l0.3,0.1c2,0.4,3.7,0.8,5.1,0.8c0.7,0,1.2-0.1,1.6-0.3
		c0.4-0.2,0.7-0.6,0.8-1.1c0.1-0.6,0.1-1.4-0.2-2.4c-0.3-1.1-0.7-2.4-1.4-4c-3.6-8.3-7.6-16.4-9.1-19.4l0.4-0.2
		c1.5,3,5.4,11.1,9.1,19.4c0.7,1.6,1.2,3,1.5,4.1c0.3,1.1,0.3,2,0.2,2.6c-0.1,0.7-0.5,1.2-1,1.5c-0.5,0.3-1.2,0.4-1.9,0.4
		c-1.4,0-3.2-0.4-5.1-0.8l-0.3-0.1c-2.1-0.5-4.4-0.9-6.6-1l0,0v0c-12.3-1.1-22.6,5.3-33,12.2c-0.7,0.5-1.5,1-2.2,1.5l0,0v0
		c-9.6,6.5-19.2,13-30.3,13.8C78.1,47.8,65.4,40.4,53.9,29.6z M60,8.2C55.1,2.5,50.3-3.6,47.5-7.4l0.4-0.3
		c2.9,3.8,7.6,9.9,12.5,15.5c4.9,5.7,10,11,13.6,13.3c9,5.8,22.5,5.4,39.1-4.5c8.1-5.5,20.3-7.3,28.9-6.4c1,0.1,2,0.3,2.9,0.4l0.1,0
		c1,0.1,1.8,0.3,2.6,0.3c1.6,0.1,2.8,0,3.5-0.8c0.7-0.8,1-2.2,0.7-4.9c-0.3-2.7-1.3-6.5-3.1-11.9l0.5-0.2c1.8,5.4,2.7,9.3,3.1,12
		c0.3,2.7,0.1,4.4-0.8,5.3c-0.9,0.9-2.3,1.1-3.9,0.9c-0.8-0.1-1.7-0.2-2.7-0.3l-0.1,0c-0.9-0.1-1.9-0.3-2.9-0.4
		c-8.5-0.9-20.6,0.9-28.6,6.3l0,0v0C96.7,27,83,27.5,73.8,21.5C70.1,19.2,65,13.8,60,8.2z M136.9,8.8c-2.9-0.5-6.4-1-10.5-0.8
		c-8.1,0.4-12.7,2.7-17.4,5l-0.4,0.2c-4.9,2.4-9.9,4.8-19.1,5.2C80.4,18.9,72.7,13.7,66.9,8c-2.9-2.9-5.5-5.9-7.5-8.6
		c-0.5-0.6-1-1.3-1.4-1.8l0,0l0,0l0,0l0,0l0,0l0,0l0,0c-1.4-1.8-2.5-3.2-3.3-4.1l0.4-0.4c0.9,0.9,2,2.3,3.4,4.1
		c0.4,0.6,0.9,1.2,1.4,1.8c2.1,2.6,4.6,5.6,7.5,8.5c5.8,5.7,13.3,10.8,22.3,10.3c9-0.4,14-2.8,18.9-5.2l0.4-0.2
		c4.7-2.3,9.4-4.6,17.6-5c4.2-0.2,7.7,0.3,10.6,0.8c0.3,0.1,0.6,0.1,0.9,0.2c1.1,0.2,2,0.3,2.8,0.4c1.1,0.1,2,0.2,2.7,0
		c0.7-0.2,1.2-0.5,1.6-1.1c0.4-0.6,0.6-1.5,0.6-2.8c0.1-2.6-0.5-6.8-1.9-13.4l0.5-0.1c1.4,6.5,2,10.8,1.9,13.5
		c0,1.4-0.3,2.4-0.7,3.1c-0.4,0.7-1.1,1.1-1.9,1.3c-0.8,0.2-1.8,0.1-2.9,0c-0.9-0.1-1.8-0.3-2.9-0.4v0
		C137.5,8.9,137.2,8.8,136.9,8.8z M70.8-7L70.8-7c-0.2-0.5-0.4-0.9-0.6-1.3l0.4-0.2c0.2,0.4,0.4,0.9,0.7,1.4l0,0l0,0
		c1.2,2.6,2.9,6.1,6.2,8.7c4,3.1,10.3,4.9,21.1,2c8.7-2.3,14.6-1.7,19.2-1.3l0,0c1.2,0.1,2.3,0.2,3.3,0.3c2.5,0.1,4.5-0.1,6.5-1.5
		c2-1.3,3.9-3.8,6.2-8.2l0.4,0.2c-2.3,4.4-4.3,7-6.4,8.4c-2.1,1.4-4.3,1.7-6.8,1.6c-1,0-2.1-0.2-3.3-0.3c-4.6-0.5-10.4-1-19,1.3
		C87.8,6.9,81.3,5.1,77.1,1.9C73.7-0.8,72-4.5,70.8-7z M163.4-6.6c0,0,0,0,0.2-0.1c0.2-0.1,0.2-0.1,0.2-0.1v0l0,0l0,0l0,0.1l0.1,0.3
		c0.1,0.3,0.2,0.6,0.4,1.1c0.3,1,0.8,2.4,1.4,4.1c1.2,3.4,2.8,8,4.5,12.9c3.5,9.8,7.6,20.7,9.9,25l-0.4,0.2
		c-2.3-4.4-6.5-15.3-10-25.1c-1.8-4.9-3.4-9.5-4.5-12.9c-0.6-1.7-1.1-3.1-1.4-4.1c-0.2-0.5-0.3-0.9-0.4-1.1L163.4-6.6L163.4-6.6
		L163.4-6.6L163.4-6.6L163.4-6.6z M167.7-6.1c1.3,4.2,3.8,11.1,6.2,17.2c1.2,3.1,2.4,5.9,3.4,8.1c0.5,1.1,1,2.1,1.4,2.8
		c0.4,0.7,0.7,1.3,1,1.6l0.4-0.3c-0.2-0.2-0.5-0.8-0.9-1.5c-0.4-0.7-0.8-1.7-1.3-2.8c-1-2.2-2.2-5.1-3.4-8.1
		c-2.4-6.1-4.8-13-6.2-17.2L167.7-6.1z M172.5-6.2c0.9,3.5,2.4,8.8,3.8,13.4c0.7,2.3,1.4,4.5,1.9,6.2c0.3,0.9,0.6,1.6,0.8,2.2
		c0.2,0.6,0.4,1,0.6,1.3l0.4-0.3c-0.1-0.2-0.3-0.6-0.6-1.2c-0.2-0.6-0.5-1.3-0.8-2.1c-0.6-1.7-1.2-3.9-1.9-6.2
		c-1.4-4.7-2.8-10-3.8-13.4L172.5-6.2z M176.5-6.2c0.3,2.5,0.7,6.3,1.2,9.9c0.3,1.8,0.6,3.4,0.9,4.8c0.3,1.4,0.6,2.5,0.9,3l0.4-0.2
		c-0.3-0.5-0.6-1.5-0.9-2.9c-0.3-1.4-0.6-3-0.9-4.8c-0.5-3.5-1-7.4-1.2-9.8L176.5-6.2z M18.6-6.6l-0.4-0.7l0.4-0.2L19-6.9
		c5.2,10.2,14.4,28.2,28.4,41.5c7.1,6.8,15.5,12.4,25.2,15c9.7,2.6,20.7,2.3,33.1-2.5c8.7-3.9,15.7-8.4,22-12.4
		c1.8-1.1,3.5-2.2,5.2-3.3c7.7-4.7,14.6-8.2,22.8-8.2c9.1,0,14.2,3.5,17.6,7.6c1.3,1.6,2.3,3.2,3.3,4.8c1.4,1.7,2.8,3.8,4.1,6.1
		l-0.2,0.1c0.1,0.1,0.1,0.2,0.2,0.2l-0.4,0.3c-1.1-1.2-2.1-3-3.2-4.9l-0.2-0.3c-0.3-0.5-0.5-0.9-0.8-1.4c-4.9-5.9-10.4-8.4-15.9-8.6
		c-7.2-0.3-14.5,3.3-20.7,8.1c-30.4,23.2-60.4,25.2-82.9,13.8C44.1,42.9,34.2,30.1,27,18C19.8,5.8,15.4-5.7,14-9.5l0.5-0.2
		c1.4,3.8,5.8,15.3,13,27.4c7.2,12.1,17.1,24.8,29.4,31C79.2,60,109,58.1,139.3,35c6.3-4.8,13.7-8.4,21.1-8.2
		c5,0.2,9.9,2.1,14.4,6.7c-0.5-0.8-1.1-1.6-1.8-2.4c-3.3-4-8.3-7.4-17.2-7.4c-8.1,0-14.9,3.4-22.6,8.1c-1.7,1-3.4,2.1-5.2,3.3
		c-6.3,4-13.4,8.5-22.1,12.4l0,0v0c-12.5,4.9-23.7,5.2-33.4,2.6c-9.8-2.7-18.2-8.3-25.4-15.1C33.1,21.7,23.8,3.6,18.6-6.6L18.6-6.6z
		"/>
</g>
</svg>
