<?xml version="1.0" encoding="utf-8"?>
<!-- Generator: Adobe Illustrator 26.0.1, SVG Export Plug-In . SVG Version: 6.00 Build 0)  -->
<svg version="1.1" id="圖層_1" xmlns="http://www.w3.org/2000/svg" xmlns:xlink="http://www.w3.org/1999/xlink" x="0px" y="0px"
	 viewBox="0 0 85 95" style="enable-background:new 0 0 85 95;" xml:space="preserve">
<style type="text/css">
	.st0{fill:url(#SVGID_1_);}
</style>
<linearGradient id="SVGID_1_" gradientUnits="userSpaceOnUse" x1="38" y1="-1.4761" x2="38" y2="92.1284">
	<stop  offset="0" style="stop-color:#EED084"/>
	<stop  offset="0.8802" style="stop-color:#D5BA77;stop-opacity:0"/>
</linearGradient>
<path class="st0" d="M83,5.4c-1.1-1.5-2.4-2.6-3.7-3.4c-1.4-0.9-2.7-1.4-3.9-1.7s-2.5-0.3-3.5-0.1c-1.1,0.2-1.9,0.6-2.5,1.2
	c-0.6,0.6-0.9,0.9-0.7,1.1c0.2,0.1,0.7,0,1.5-0.3C70.6,1.8,71,1.7,71.3,2c0.4,0.2,0.9,0.9,1.5,1.9c0.3,0.6,0.5,1.3,0.7,2
	s0.3,1.8,0.3,3.2c0,1.4-0.1,3.3-0.3,5.8c-0.1,2.4-0.4,5.7-0.7,9.9c-0.1,1.2-0.2,2.4-0.3,3.6c-0.1,1.2-0.1,2.7-0.2,4.4
	c-0.1,1.6-0.1,3.6-0.1,6c0,2.3,0,5.3,0,8.8c0.1,3.4,0.1,7.5,0.1,12.3c0,4.8,0,10.4,0.1,17c0,1.4-0.2,2.3-0.5,2.7
	c-0.4,0.4-0.9,0.5-1.7,0.2c-2.3-0.6-4.2-1.2-5.7-1.6c-1.4-0.5-2.6-0.9-3.6-1.3c-0.9-0.4-1.7-0.8-2.3-1.2c-0.6-0.4-1.1-0.9-1.6-1.4
	c-0.9-0.9-1.5-1.2-1.7-1c-0.1,0.1,0.1,0.8,0.7,2c2.7,4.3,6.1,8.2,10.2,11.4c2.2,1.7,4.6,4,7.3,6.8c1.1,1,1.8,1.5,2.3,1.4
	c0.5-0.1,1-0.8,1.5-2.2c0.7-1.6,1.3-3.1,1.7-4.5c0.5-1.3,0.9-2.7,1.1-4.4c0.2-1.6,0.3-3.6,0.3-5.8c0-2.2,0-5-0.1-8.4
	c-0.1-3.8-0.3-8-0.4-12.4c-0.1-4.5-0.2-8.9-0.2-13.1c0-9.4,0.4-16.6,1.2-21.6c0.8-5.1,1.6-8,2.5-8.9c1.1-1,1.6-2.2,1.7-3.7
	C85.1,8.5,84.4,6.9,83,5.4z M56.4,41.5C56,43,55.6,44.2,55.2,45c-0.9,1.6-1.2,3.2-1.2,4.9c0.1,1.6,0.8,3.9,2.2,6.8
	c1.2,2.3,2.2,3.4,2.9,3.3c0.7-0.1,1.5-1.2,2.5-3.5c0.4-1.4,0.7-3,1.2-4.8c0.5-1.8,1-4,1.6-6.5c0.6-3.3,1.1-5.6,1.4-6.9
	c0.3-1.4,0.6-2.5,1-3.1c0.1-0.4,0.2-0.8,0.2-1.2c0-0.4-0.1-0.9-0.3-1.4c-0.2-0.5-0.5-1.1-1-1.7c-0.4-0.7-1-1.6-1.8-2.6
	c0.2-2.8,0.6-6.2,1.2-10.4c0.6-4.1,1.6-9,2.8-14.5c-1.2,3.7-2.3,7.4-3.2,11.1c-0.9,3.7-1.8,7.7-2.8,12c-2.3-2-3.9-2.8-5-2.5
	c-1.1,0.3-1.8,1.6-2.1,4c-0.2,0.7-0.2,1.1,0.1,1.3c0.4,0.1,0.7-0.1,1-0.6c0.4-0.7,0.7-1,1-0.7c0.3,0.1,0.7,0.7,1.2,1.8
	c0.2,0.7,0.3,1.6,0.2,2.6c0,0.9-0.1,1.9-0.2,2.9C57.3,37.8,56.8,39.9,56.4,41.5z M49.8,9c-1.7-0.9-3.7-1.1-6.1-0.9
	c-1.5,0.1-3,0.3-4.5,0.4c-1.4,0.1-2.8,0-4.3-0.1c-0.3-1.6-1.4-3-3.3-4.1c-1.8-1.1-4.3-1.6-7.5-1.6c-1.6,0-2.6,0.2-2.8,0.5
	c-0.1,0.4,0.4,1.1,1.5,2.1c0.6,0.6,1,1.1,1.3,1.5c0.4,0.4,0.5,0.9,0.5,1.4c0,0.4-0.1,0.9-0.4,1.5c-0.3,0.6-0.7,1.3-1.4,2.2
	c-5.6,8.5-10.2,15.2-13.9,20.3c-3.6,5.1-6.4,8.9-8.6,11.5c-2.1,2.6-3.7,4.3-4.8,5.1c-1,0.7-1.7,1-2.2,0.7c-0.5-0.1-0.9-0.1-1.3,0.2
	c-0.3,0.2-0.6,0.9-1,1.9C-9.1,52.6-9,53-8.8,53.3c0.4,0.3,1.1,0.2,2.3-0.1c2.5-0.8,4.9-1.9,7.1-3.2c2.3-1.4,4.7-3.1,7-5.3
	c2.4-2.2,4.9-4.9,7.4-8c2.5-3.2,5.2-7,8-11.4c0.5,0.5,1.1,0.9,1.8,1.2c0.7,0.3,1.4,0.5,2.1,0.6c1.2,0.2,1.4,1,0.5,2.4
	c-0.8,0.9-1.9,2-3.4,3.2c-1.4,1.2-2.7,2.1-3.7,2.8c-2.8,0.5-4.4,2.1-4.8,4.7c-0.2,1.3-0.2,2.2,0,2.7c0.3,0.5,0.9,1,1.7,1.4
	c0.6,0.4,0.9,0.8,1.1,1.3c0.1,0.4,0,1.4-0.4,2.8c-0.6,2.8-1.4,5.7-2.2,8.8c-0.8,3.1-1.6,6.2-2.3,9.5c-1.8-0.4-4-0.3-6.4,0.3
	c-1.2,0.2-1.8,0.5-1.8,0.7c0,0.2,0.6,0.4,1.8,0.5c0.9,0.1,2.5,0.7,4.8,1.8c-1.1,2.8-2.2,5.1-3.1,6.8c-0.9,1.7-1.6,3-2.3,3.8
	c-0.6,0.9-1.2,1.5-1.7,1.7c-0.4,0.2-0.7,0.2-1,0C3.4,82,3.2,82,2.9,82.2c-0.3,0.3-0.7,1.2-1.2,2.9c-0.5,1.6-0.5,2.6-0.1,3
	C2,88.4,3,88.1,4.5,87.2c2.1-1.1,4-2.8,5.9-5.1c1.8-2.2,3.7-5.2,5.7-9c0.3,0.2,0.6,0.6,0.9,1.2c0.4,0.6,0.6,1.2,0.9,2
	c0.3,0.7,0.5,1.5,0.7,2.2c0.2,0.9,0.4,1.6,0.5,2.3c0.3,1.1,0.5,2,0.7,2.7c0.2,0.6,0.7,1.6,1.6,3c0.9,1.4,1.7,2.1,2.5,2
	c0.7,0,1.2-0.8,1.6-2.3c0.7-4,0.1-8-1.8-12.2c0.4-1.3,0.6-2.3,0.9-3c0.2-0.8,0.5-1.4,0.7-1.7c0.4-0.4,0.7-0.6,1.2-0.6
	c0.5,0,1.2,0.1,2,0.3c1.1,0.2,2.3,0.2,3.5,0c1.2-0.2,2.2-0.6,3-1.1c1.8-0.9,2.2-0.3,1.2,1.6c-0.7,1.3-1.3,2.3-1.8,3.1
	c-0.4,0.7-0.9,1.3-1.3,1.8c-0.4,0.4-0.7,0.7-1.2,1c-0.4,0.2-0.9,0.4-1.5,0.6c-2.4,0.6-3.4,2.3-3,4.9c0.4,1.6,1.1,2.6,2.1,2.9
	c1.1,0.3,2.5,0,4.2-0.9c0.9-0.6,1.9-1,3-1.2c1.1-0.1,2.5-0.1,4.2,0c3.3,0.6,5.3,0.5,5.8-0.3c0.6-0.8,0.1-1.8-1.5-3.1
	c-0.7-0.6-1.2-1.2-1.6-1.6C43,76.4,42.9,76,43,75.7c0.1-0.4,0.4-0.9,0.9-1.3c0.5-0.5,1.3-1.1,2.3-1.8c3.1-2.1,4.6-4.1,4.4-5.8
	c-0.2-1.8-1.8-3.5-4.9-5c0.6-2.1,1.1-4,1.5-5.7c0.4-1.8,0.7-3.8,0.9-6c-0.6,1.5-1.2,2.8-1.6,3.8c-0.4,1.1-0.8,2-1.2,2.8
	c-0.4,0.7-0.7,1.4-1.1,1.9c-0.4,0.6-0.7,1.1-1.2,1.7c-1.2-0.4-2.5-0.5-3.7-0.4C38,60,37,60.4,36.1,61.1c-1.4,0.6-2.9,1.3-4.5,2
	c-1.5,0.7-3.2,1.4-5,2c-0.7,0.4-1.3,0.7-1.8,1.1c-0.4,0.3-0.9,0.6-1.3,1c-0.4,0.4-0.9,0.8-1.4,1.4c-0.4,0.6-1,1.3-1.6,2.1
	c-0.4-0.5-0.9-0.9-1.4-1.3c-0.5-0.4-1-0.8-1.5-1.2c0.4-0.8,0.8-1.7,1.3-2.8c0.5-1.1,0.9-2.2,1.2-3.3c1.4-0.3,2.6-0.6,3.6-1
	c1.1-0.4,2.3-1,3.6-1.8c1.8-1,3.6-1.7,5.2-2.2c1.6-0.5,3.3-0.9,5.1-1.2c1-0.1,1.6-0.4,1.9-0.9c0.4-0.4,0.4-0.8,0.1-1.2
	c1.3-2.2,2.4-4.1,3.3-5.6c1-1.5,1.8-2.7,2.5-3.7c0.7-1,1.3-1.8,1.7-2.3c0.5-0.6,0.9-1,1.3-1.4c1.2-1,1.8-2.1,1.7-3.4
	c0-1.4-0.8-3-2.5-4.9c-0.9-0.9-1.7-1.6-2.7-2.1c-0.9-0.5-2.2-0.7-3.7-0.6c-1.5,0-3.4,0.4-5.9,1.1c-2.4,0.7-5.6,1.7-9.5,3.1
	c2.5-1.4,4.8-2.8,7-4.1c2.3-1.3,4.6-2.7,6.9-4.3c1.1-0.8,1.7-1.5,1.6-2.1c0-0.7-0.7-1.6-2-2.6c-1.5-1.2-2.9-1.8-4.2-1.8
	c-1.2,0-2.8,0.6-4.8,1.8c-1,0.5-1.8,0.8-2.3,1C27.7,22,26.7,22,25.4,22c1.1-1.4,2.2-2.9,3.4-4.5c1.3-1.6,2.6-3.2,4.1-4.8
	c2.1,0,4.2,0.3,6.1,1c1.4,0.5,1.2,1.1-0.4,1.9c-3.1,1.3-6.4,2.8-9.9,4.5c2.1-0.6,4.3-1.2,6.4-1.8c2.1-0.6,4.1-1.1,5.8-1.5
	c1.8-0.4,3.3-0.7,4.5-1c1.3-0.3,2.1-0.4,2.6-0.4c1.6,0,2.8-0.2,3.5-0.5c0.7-0.4,1.1-1.1,1.1-2.1C52.4,11.1,51.5,9.9,49.8,9z
	 M35.9,49.8c-0.3,0.7-0.6,1.5-1,2.2c-1.6-0.4-3.5,0-5.7,1c-1.7,0.8-3,1.3-3.8,1.6c-0.9,0.3-1.8,0.6-3,1.1c0.1-0.7,0.3-1.6,0.4-2.8
	c0.1-1.1,0.3-2,0.4-2.7c0.2-0.2,0.6-0.4,1.1-0.5s1-0.3,1.6-0.4c0.6-0.1,1.1-0.2,1.6-0.3c0.6-0.1,1-0.2,1.2-0.3
	c0.4-0.1,0.6-0.1,0.6,0.1c0.1,0.2-0.1,0.5-0.6,1c-0.5,0.8-0.7,1.2-0.6,1.4c0.1,0.1,0.5-0.2,1.2-0.7c1.4-0.9,2.5-1.4,3.5-1.6
	c1.1-0.3,2.4-0.7,4.1-1.3C36.6,48.2,36.3,49,35.9,49.8z M31.8,37.2c2.1-0.9,4.1-1.6,6.1-2.2c1-0.2,1.7-0.1,2.1,0.2
	c0.4,0.4,0.5,1,0.2,2c-0.4,1.1-0.7,2.2-1.1,3.3c-0.3,1.1-0.6,2.2-1,3.4c-1.3-1.1-3-1.7-5.1-1.8c-2.1-0.1-4.4,0.2-7,1
	c0.1-1.1,0.1-2,0-2.7C27.9,39.1,29.8,38.1,31.8,37.2z"/>
</svg>
