<?xml version="1.0" encoding="utf-8"?>
<!-- Generator: Adobe Illustrator 26.0.1, SVG Export Plug-In . SVG Version: 6.00 Build 0)  -->
<svg version="1.1" id="圖層_1" xmlns="http://www.w3.org/2000/svg" xmlns:xlink="http://www.w3.org/1999/xlink" x="0px" y="0px"
	 viewBox="0 0 351 114" style="enable-background:new 0 0 351 114;" xml:space="preserve">
<style type="text/css">
	.st0{fill:url(#SVGID_1_);}
	.st1{fill:none;stroke:url(#SVGID_00000009589769431291040640000017381493195923262385_);}
	.st2{fill:url(#SVGID_00000116927835069740647300000012011949959188952472_);}
	.st3{fill:url(#SVGID_00000093169978569381677410000009245429648085938337_);}
	.st4{fill:url(#SVGID_00000157988950313518569160000004074803479715108239_);}
	.st5{fill:url(#SVGID_00000110440536898490802370000011698291644938661785_);}
	.st6{fill:url(#SVGID_00000013880796564237827960000007362180766648393890_);}
	.st7{fill:#FEE9C5;}
	.st8{fill:#FFD6B1;}
	.st9{fill:#AD9F9F;}
	.st10{fill:#FFDDBF;}
	.st11{fill:#FDDBBC;}
	.st12{fill:#F9CDA6;}
	.st13{fill:url(#SVGID_00000149384025565157486380000016989393681696326833_);}
	.st14{fill:url(#SVGID_00000021120241055260146690000015794344137186938027_);}
	.st15{fill:url(#SVGID_00000167378366003047545070000000057378466373146285_);}
	.st16{fill:url(#SVGID_00000119826907910927527580000017126907307066214037_);}
	.st17{fill:url(#SVGID_00000010278581368162891270000003671880855752179081_);}
	.st18{fill:url(#SVGID_00000058566639780232248300000017644659992841344920_);}
</style>
<linearGradient id="SVGID_1_" gradientUnits="userSpaceOnUse" x1="234.4956" y1="80.4667" x2="356.0976" y2="-34.5433" gradientTransform="matrix(1 0 0 -1 0 116)">
	<stop  offset="0" style="stop-color:#FF6847"/>
	<stop  offset="1" style="stop-color:#FFF1A9"/>
</linearGradient>
<path class="st0" d="M351,114.5H165.5c0,0,21-31.5,73-35c85.8-5.8,55-70,112.5-78V114.5z"/>
<linearGradient id="SVGID_00000110443555566825258130000003536895708526877318_" gradientUnits="userSpaceOnUse" x1="277.2646" y1="110.4087" x2="228.2646" y2="14.9087" gradientTransform="matrix(1 0 0 -1 0 116)">
	<stop  offset="0" style="stop-color:#FFBEAF"/>
	<stop  offset="1" style="stop-color:#FFA8A8"/>
</linearGradient>
<path style="fill:none;stroke:url(#SVGID_00000110443555566825258130000003536895708526877318_);" d="M150,112.5
	c0,0,131.6-1,110.5-44.5c-23-47.5,87-33,90.5-68"/>
<g>
	
		<linearGradient id="SVGID_00000169537335903587451090000016198778287514062986_" gradientUnits="userSpaceOnUse" x1="260.1275" y1="48" x2="260.1275" y2="-28.966" gradientTransform="matrix(1 0 0 -1 0 116)">
		<stop  offset="0" style="stop-color:#FFE5BA"/>
		<stop  offset="1" style="stop-color:#FFF5E4;stop-opacity:0"/>
	</linearGradient>
	<path style="fill:url(#SVGID_00000169537335903587451090000016198778287514062986_);" d="M238,68l44.3,12.2V145L238,132.8V68z"/>
</g>
<linearGradient id="SVGID_00000076577443752919393160000015977463365885827992_" gradientUnits="userSpaceOnUse" x1="304.1285" y1="48" x2="304.1285" y2="-28.966" gradientTransform="matrix(1 0 0 -1 0 116)">
	<stop  offset="0" style="stop-color:#FFC086"/>
	<stop  offset="1" style="stop-color:#FFF5E4;stop-opacity:0"/>
</linearGradient>
<path style="fill:url(#SVGID_00000076577443752919393160000015977463365885827992_);" d="M326.3,68L282,80.2V145l44.3-12.2V68z"/>
<linearGradient id="SVGID_00000076600174111760844130000005213732153675849131_" gradientUnits="userSpaceOnUse" x1="263.9" y1="34.2002" x2="263.9" y2="-26.089" gradientTransform="matrix(1 0 0 -1 0 116)">
	<stop  offset="0" style="stop-color:#F3CA81"/>
	<stop  offset="0.5104" style="stop-color:#FFEED2;stop-opacity:0"/>
</linearGradient>
<path style="fill:url(#SVGID_00000076600174111760844130000005213732153675849131_);" d="M255.6,137.3V81.8l16.7,3.8v56.4
	L255.6,137.3z"/>
<linearGradient id="SVGID_00000168801400517434533590000003172631686126928284_" gradientUnits="userSpaceOnUse" x1="303.665" y1="34.2002" x2="303.665" y2="-26.089" gradientTransform="matrix(1 0 0 -1 0 116)">
	<stop  offset="0" style="stop-color:#F0A47A"/>
	<stop  offset="0.5104" style="stop-color:#FFEED2;stop-opacity:0"/>
</linearGradient>
<path style="fill:url(#SVGID_00000168801400517434533590000003172631686126928284_);" d="M312,137.3V81.8l-16.7,3.8v56.4L312,137.3z
	"/>
<linearGradient id="SVGID_00000057846189024831467390000013063392974056725665_" gradientUnits="userSpaceOnUse" x1="327" y1="53.6019" x2="246" y2="53.6019" gradientTransform="matrix(1 0 0 -1 0 116)">
	<stop  offset="0" style="stop-color:#FFCDAB"/>
	<stop  offset="1" style="stop-color:#FFFAF1"/>
</linearGradient>
<path style="fill:url(#SVGID_00000057846189024831467390000013063392974056725665_);" d="M236,63.2l48.1-13.8L329,63.2l-47.1,12.2
	L236,63.2z"/>
<path class="st7" d="M236.3,77V63.2l45.9,11.9v14.8L236.3,77z"/>
<path class="st8" d="M252.7,81.5V67.4l16.7,4.5v14.4L252.7,81.5z"/>
<path class="st9" d="M252.4,67.4l47.1-13.1l12.8,3.5L269,71.5L252.4,67.4z"/>
<path class="st10" d="M252.4,67.4l47.1-13.1l12.8,3.5L269,71.5L252.4,67.4z"/>
<path class="st11" d="M328.4,77V63.2l-46.4,12V90L328.4,77z"/>
<path class="st12" d="M315.2,80.8V67l-16.7,3.8v14.8L315.2,80.8z"/>
<path class="st8" d="M314.9,67.4L271,53.3l-12.2,3.2l39.8,15.1L314.9,67.4z"/>
<linearGradient id="SVGID_00000058572684228142383060000016487616824667561344_" gradientUnits="userSpaceOnUse" x1="262.6611" y1="84.587" x2="279.1611" y2="54.087" gradientTransform="matrix(1 0 0 -1 0 116)">
	<stop  offset="0" style="stop-color:#FFB77F"/>
	<stop  offset="1" style="stop-color:#FFC186"/>
</linearGradient>
<path style="fill:url(#SVGID_00000058572684228142383060000016487616824667561344_);" d="M262.9,28.1c-3.2-0.6-4.8,0.6-3.8,7.1
	c2.8-3.1,12.4,13.9,16.7,22.4c1,1,3.2,2.6,5.8,4.5C277.7,44.1,266.1,28.7,262.9,28.1z"/>
<linearGradient id="SVGID_00000020371573369769593450000010447757273559069368_" gradientUnits="userSpaceOnUse" x1="261.0177" y1="84.4494" x2="272.4367" y2="50.9981" gradientTransform="matrix(1 0 0 -1 0 116)">
	<stop  offset="0" style="stop-color:#F8FFF4"/>
	<stop  offset="0.4167" style="stop-color:#FFC493"/>
	<stop  offset="1" style="stop-color:#FFD6B1"/>
</linearGradient>
<path style="fill:url(#SVGID_00000020371573369769593450000010447757273559069368_);" d="M252.4,37.1c1.3,13.9,19.3,25.7,28.2,29.8
	c0.3-0.6,2.4-1.1,2.4-3.4c-23.3-16.9-25.9-30.7-23.6-34.8C258.2,30,255.2,33.5,252.4,37.1z"/>
<linearGradient id="SVGID_00000038400738781184816940000001672350407455496875_" gradientUnits="userSpaceOnUse" x1="305.8674" y1="86.511" x2="289.3674" y2="56.011" gradientTransform="matrix(1 0 0 -1 0 116)">
	<stop  offset="0" style="stop-color:#FFB77F"/>
	<stop  offset="1" style="stop-color:#FFC186"/>
</linearGradient>
<path style="fill:url(#SVGID_00000038400738781184816940000001672350407455496875_);" d="M305.6,26.1c3.2-0.6,4.8,0.6,3.8,7.1
	c-2.8-3.1-12.4,13.9-16.7,22.4c-1,1-3.2,2.6-5.8,4.5C290.8,42.2,302.4,26.8,305.6,26.1z"/>
<linearGradient id="SVGID_00000003809270994031661340000001660354304431843505_" gradientUnits="userSpaceOnUse" x1="307.9457" y1="86.2256" x2="296.5267" y2="52.7743" gradientTransform="matrix(1 0 0 -1 0 116)">
	<stop  offset="0" style="stop-color:#F8FFF4"/>
	<stop  offset="0.5104" style="stop-color:#FFC493"/>
	<stop  offset="1" style="stop-color:#FFD6B1"/>
</linearGradient>
<path style="fill:url(#SVGID_00000003809270994031661340000001660354304431843505_);" d="M316.2,35.1C314.9,49,296.8,60.8,288,65
	c-0.3-0.6-1-2.5-1-4.8c23.3-16.9,24.5-29.3,22.1-33.4C310.3,28.1,313.4,31.5,316.2,35.1z"/>
<linearGradient id="SVGID_00000045609518637764113630000002777732138394975112_" gradientUnits="userSpaceOnUse" x1="273.6556" y1="72.1876" x2="289.2446" y2="61.413" gradientTransform="matrix(1 0 0 -1 0 116)">
	<stop  offset="0" style="stop-color:#FFB77F"/>
	<stop  offset="1" style="stop-color:#FFC186"/>
</linearGradient>
<path style="fill:url(#SVGID_00000045609518637764113630000002777732138394975112_);" d="M278.5,34.7c-4.4,5.4,0.5,21.5,3.5,28.9
	c0.3-0.6,1.2-2.6,1.9-5.5c-4.4-9-3-18.6-1.9-22.4C281.8,35.5,280.5,34.9,278.5,34.7z"/>
<linearGradient id="SVGID_00000057115377851198185020000017155177769791089052_" gradientUnits="userSpaceOnUse" x1="276.1765" y1="74.9798" x2="290.7565" y2="59.7288" gradientTransform="matrix(1 0 0 -1 0 116)">
	<stop  offset="0" style="stop-color:#F8FFF4"/>
	<stop  offset="0.6116" style="stop-color:#FFC493"/>
	<stop  offset="1" style="stop-color:#FFD6B1"/>
</linearGradient>
<path style="fill:url(#SVGID_00000057115377851198185020000017155177769791089052_);" d="M284.6,33.7c0,0-3.4,0.2-5.5,1
	c6.7,3.8,3.2,28.9,3.2,28.9s4-4.2,3.8-2.9C288.7,38.8,286.2,35.3,284.6,33.7z"/>
</svg>
