<?xml version="1.0" encoding="utf-8"?>
<!-- Generator: Adobe Illustrator 26.0.0, SVG Export Plug-In . SVG Version: 6.00 Build 0)  -->
<svg version="1.1" id="圖層_1" xmlns="http://www.w3.org/2000/svg" xmlns:xlink="http://www.w3.org/1999/xlink" x="0px" y="0px"
	 viewBox="0 0 104 104" style="enable-background:new 0 0 104 104;" xml:space="preserve">
<style type="text/css">
	.st0{fill:#010101;fill-opacity:8.000000e-02;}
	.st1{fill:#989899;}
	.st2{fill:#EC8822;}
	.st3{fill:#E7E4E2;}
	.st4{fill:#FFFFFF;}
	.st5{fill:#231F20;}
	.st6{fill:#F3EEEC;}
	.st7{clip-path:url(#SVGID_00000136373887007276452180000011933755699056026286_);}
	.st8{fill-rule:evenodd;clip-rule:evenodd;fill:#488ECE;}
	.st9{fill:#488ECE;}
	.st10{fill:#84C4FF;}
</style>
<ellipse class="st0" cx="57.5" cy="98" rx="37.5" ry="6"/>
<path class="st1" d="M34.3,78.3c-14.6,4.6-26.2-4.1-30.1-9.1l14.8-13l9.5,2.7C29.4,61,31.9,67.7,34.3,78.3z"/>
<path class="st1" d="M98.8,47.4c0,0,4.8,2.3,5.2,12.1c0.5,11-9.4,19.5-19.9,22.4L98.8,47.4z"/>
<path class="st2" d="M49.9,96.9c-0.4,0-0.8-0.2-1-0.5l-2.2-2.9l-2.5,3c-0.5,0.5-1.3,0.7-1.8,0.2c-0.5-0.5-0.7-1.3-0.2-1.8l3.5-4.3
	c0.3-0.3,0.6-0.5,1-0.5c0.4,0,0.8,0.2,1,0.5l3.2,4.3c0.5,0.6,0.3,1.4-0.3,1.8C50.5,96.8,50.2,96.9,49.9,96.9z"/>
<path class="st2" d="M74.1,96.9c-0.4,0-0.8-0.2-1-0.5l-2.2-2.9l-2.5,3c-0.5,0.5-1.3,0.7-1.8,0.2c-0.5-0.5-0.7-1.3-0.2-1.8l3.5-4.3
	c0.3-0.3,0.6-0.5,1-0.5c0.4,0,0.8,0.2,1,0.5l3.2,4.3c0.5,0.6,0.3,1.4-0.3,1.8C74.7,96.8,74.3,96.9,74.1,96.9z"/>
<path class="st3" d="M58.6,6.5c-22.2,0-40.1,17.7-40.1,39.5c0,21.2,10.1,37.6,24.6,44.4c3.1,1.4,6.6,0.5,9.6-1c1.8-1,3.8-1.5,6-1.5
	c2.2,0,4.2,0.5,6,1.5c2.9,1.6,6.5,1.8,9.6,0.4C88.5,83,98.7,69,98.7,46.1C98.7,24.3,80.8,6.5,58.6,6.5z"/>
<path class="st4" d="M76.2,16.1c-3.9-0.3-7.7,0.6-10.9,2.2c-4.2,2.2-9.1,2.2-13.3,0c-3.3-1.6-7-2.5-10.9-2.2
	c-10.3,0.7-18.7,9.1-19.4,19.4C20.8,47.8,30.4,58,42.5,58c3.5,0,6.7-0.9,9.6-2.4c4.1-2.1,9-2.1,13,0c2.9,1.5,6.2,2.4,9.6,2.4
	c12,0,21.7-10.2,20.9-22.4C94.9,25.1,86.5,16.7,76.2,16.1z"/>
<path class="st1" d="M33.2,66.3c-1.8-0.7-3.1-2.2-3.5-3.9c-0.8,2.4,0.5,5,2.8,5.8c2.4,0.9,5-0.3,6-2.7C37,66.6,35,66.9,33.2,66.3z"
	/>
<path class="st1" d="M43.3,77.4c-1.8-0.7-3.1-2.2-3.5-3.9c-0.8,2.4,0.5,5,2.8,5.8c2.4,0.9,5-0.3,6-2.7C47,77.7,45,78,43.3,77.4z"/>
<path class="st1" d="M60.2,79.9c-1.9-0.1-3.6-1.1-4.6-2.6c0,2.5,2,4.6,4.5,4.7c2.5,0.1,4.6-1.8,4.8-4.3C63.9,79.2,62.1,80,60.2,79.9
	z"/>
<path class="st1" d="M75.5,76.9c1.8-0.7,3.1-2.2,3.5-3.9c0.8,2.4-0.5,5-2.8,5.8s-5-0.3-6-2.7C71.7,77.2,73.6,77.5,75.5,76.9z"/>
<path class="st1" d="M48.7,69.5c-1.9-0.4-3.4-1.6-4.1-3.3c-0.4,2.5,1.2,4.8,3.7,5.4c2.5,0.5,4.8-1.1,5.5-3.5
	C52.4,69.3,50.6,69.9,48.7,69.5z"/>
<path class="st1" d="M83.8,66.3c1.8-0.7,3.1-2.2,3.5-3.9c0.8,2.4-0.5,5-2.8,5.8c-2.4,0.9-5-0.3-6-2.7C80,66.6,81.9,66.9,83.8,66.3z"
	/>
<path class="st1" d="M68.3,69.5c1.9-0.4,3.4-1.6,4.1-3.3c0.4,2.5-1.2,4.8-3.7,5.4c-2.5,0.5-4.8-1.1-5.5-3.5
	C64.5,69.3,66.4,69.9,68.3,69.5z"/>
<path class="st1" d="M59.7,11.5c0,0,3.1-3.6,7.5-4.7c3.7-1,2.2-3.6-1.2-1.7C63.2,6.7,59.7,11.5,59.7,11.5z"/>
<path class="st1" d="M57.4,10.5c0,0-0.7-4.2-3.5-6.5c-2-1.7-0.8-3.4,0.2-3.5C56.1,0.2,57.7,3.1,57.4,10.5z"/>
<path class="st1" d="M55.5,9.9c0,0-6-7-9.7-5.2C43.2,6,51.3,7.3,55.5,9.9z"/>
<path class="st5" d="M40.3,41.7c3.4,0,6.1-2.7,6.1-6.1c0-3.4-2.7-6.1-6.1-6.1c-3.4,0-6.1,2.7-6.1,6.1C34.2,39,37,41.7,40.3,41.7z"/>
<path class="st4" d="M37.9,34.2c0.8,0,1.4-0.6,1.4-1.4s-0.6-1.4-1.4-1.4s-1.4,0.6-1.4,1.4S37.1,34.2,37.9,34.2z"/>
<path class="st2" d="M55.2,36.4l3.5,6.2l3-6.2C61.7,36.4,58.5,34.5,55.2,36.4z"/>
<path class="st4" d="M67.8,43.4c0,0,8-8.9,19.7-6.3l-6.3,11.1L67.8,43.4z"/>
<path class="st4" d="M48.8,43.4c0,0-8-8.9-19.7-6.3l6.3,11.1L48.8,43.4z"/>
<path class="st6" d="M48.8,43.4c0,0-6.2-9.6-19.7-6.3C29.1,37,40,35.6,48.8,43.4z"/>
<path class="st3" d="M68.5,29.2c0,0-1.2,3.4-2.9,3.9l0.7-3.1c0.1-0.3,0.3-0.5,0.5-0.5L68.5,29.2z"/>
<path class="st3" d="M48.6,29.2c0,0,1.2,3.4,2.9,3.9l-0.7-3.1c-0.1-0.3-0.3-0.5-0.5-0.5L48.6,29.2z"/>
<g>
	<defs>
		<path id="SVGID_1_" d="M21.3,23.4c7.8-9.8,22-11.4,31.8-3.6c9.8,7.8,11.4,22,3.6,31.8c-7.8,9.8-22,11.4-31.8,3.6
			S13.5,33.2,21.3,23.4z"/>
	</defs>
	<clipPath id="SVGID_00000039830278802025190100000012025742506699192981_">
		<use xlink:href="#SVGID_1_"  style="overflow:visible;"/>
	</clipPath>
	<g style="clip-path:url(#SVGID_00000039830278802025190100000012025742506699192981_);">
		<path class="st3" d="M54.1,4.3c-23.8,0.3-42.8,19.6-42.5,43c0.3,22.8,11.4,40.2,27,47.4c3.3,1.5,7.1,0.5,10.2-1.3
			c1.9-1.1,4.1-1.7,6.4-1.7c2.3,0,4.5,0.5,6.4,1.5c3.2,1.7,7.1,1.9,10.3,0.3C87.3,85.9,98,70.7,97.7,46.1
			C97.4,22.7,77.9,3.9,54.1,4.3z"/>
		<path class="st4" d="M73.1,14.3c-4.2-0.2-8.3,0.7-11.7,2.5c-4.5,2.4-9.7,2.4-14.3,0.2c-3.5-1.7-7.6-2.6-11.8-2.2
			c-11.1,0.9-20,10-20.6,21.1C14,49,24.6,59.9,37.5,59.7c3.7,0,7.2-1,10.3-2.7c4.3-2.3,9.6-2.4,14-0.2c3.1,1.6,6.6,2.4,10.4,2.4
			C85,59.1,95.3,48,94.2,34.9C93.3,23.7,84.2,14.8,73.1,14.3z"/>
		<path class="st5" d="M34.9,42.3c3.6,0,6.5-3,6.4-6.6c0-3.6-3-6.5-6.6-6.4c-3.6,0-6.5,3-6.4,6.6C28.4,39.5,31.3,42.3,34.9,42.3z"/>
		<path class="st4" d="M32.2,34.3c0.8,0,1.5-0.7,1.5-1.5c0-0.8-0.7-1.5-1.5-1.5c-0.8,0-1.5,0.7-1.5,1.5
			C30.8,33.6,31.4,34.3,32.2,34.3z"/>
		<path class="st2" d="M50.8,36.3l3.8,6.6l3.1-6.6C57.8,36.2,54.4,34.3,50.8,36.3z"/>
		<path class="st4" d="M44,44c0,0-8.7-9.4-21.2-6.5l7,11.9L44,44z"/>
		<path class="st6" d="M44,44c0,0-6.8-10.2-21.2-6.5C22.8,37.4,34.5,35.8,44,44z"/>
		<path class="st3" d="M43.6,28.7c0,0,1.4,3.6,3.2,4.1l-0.7-3.4c-0.1-0.3-0.3-0.5-0.6-0.6L43.6,28.7z"/>
	</g>
</g>
<path class="st8" d="M52.2,20.9c-9.1-7.3-22.5-5.8-29.8,3.4c-7.3,9.1-5.8,22.5,3.4,29.8c9.2,7.3,22.5,5.8,29.8-3.4
	C62.9,41.5,61.3,28.2,52.2,20.9z M18.4,21.1c9.1-11.4,25.6-13.3,37-4.2c11.4,9.1,13.3,25.6,4.2,37c-9.1,11.4-25.6,13.3-37,4.2
	C11.2,49,9.3,32.5,18.4,21.1z"/>
<path class="st9" d="M30.2,61l-11.5-9.2l0.2,6.3l5,4L30.2,61z"/>
<path class="st10" d="M18.9,58.1l5,4L7.3,82.3c-1.1,1.4-3.1,1.6-4.5,0.5l0,0c-1.4-1.1-1.6-3.2-0.5-4.6L18.9,58.1z"/>
<path class="st5" d="M86.7,36.1c0,0-2.4-4.5-6.4-4.5c-4,0-8.4,4.9-9.2,7.8C71.3,39.4,77.8,30.1,86.7,36.1z"/>
<path class="st1" d="M23.7,49.5c5.1-0.9,9-0.5,8.8,3.6c-1.4,4.3-10.9,5.3-10.9,5.3s5.5,0.8,4.7,3.7s-5.1,5.2-11.1,2.7
	c0,0,3.3,1.3,2.4,4.2C16.4,73,4,71.1,4,69.5C4.1,62.7,16.7,51.2,23.7,49.5z"/>
</svg>
