<svg width="44" height="44" viewBox="0 0 44 44" fill="none" xmlns="http://www.w3.org/2000/svg">
<path d="M39.1808 19.4734C38.6036 20.4731 37.3609 20.8098 36.4151 20.2638C35.4693 19.7177 35.1395 18.4731 35.7167 17.4734C36.2939 16.4737 37.5366 16.137 38.4824 16.683C39.4283 17.2291 39.758 18.4737 39.1808 19.4734Z" stroke="#C9EBE9"/>
<path d="M10.5 34.3922C10.5 34.9794 10.0398 35.4326 9.5 35.4326C8.96016 35.4326 8.5 34.9794 8.5 34.3922C8.5 33.805 8.96016 33.3518 9.5 33.3518C10.0398 33.3518 10.5 33.805 10.5 34.3922Z" stroke="#C9EBE9"/>
<circle cx="3.5" cy="28.5" r="0.5" fill="#C9EBE9"/>
<path d="M32.8124 12.6394C32.6606 12.9023 32.3443 12.9775 32.1159 12.8457C31.8876 12.7138 31.7946 12.4023 31.9464 12.1394C32.0982 11.8764 32.4145 11.8012 32.6429 11.933C32.8712 12.0649 32.9642 12.3764 32.8124 12.6394Z" fill="#C9EBE9" stroke="#C9EBE9"/>
<path d="M8.81243 12.6394C8.66061 12.9023 8.34431 12.9775 8.11594 12.8457C7.88758 12.7138 7.79459 12.4023 7.9464 12.1394C8.09822 11.8764 8.41451 11.8012 8.64288 11.933C8.87125 12.0649 8.96424 12.3764 8.81243 12.6394Z" fill="#C9EBE9" stroke="#C9EBE9"/>
<path d="M26.9534 22.7548C26.9534 25.5925 25.9357 27.7888 24.3471 29.2798C22.7496 30.7793 20.5103 31.625 17.9771 31.625C15.4438 31.625 13.2043 30.7793 11.6066 29.2798C10.0179 27.7887 9 25.5925 9 22.7548C9 21.7599 9.31209 20.5793 9.87825 19.2778C10.4403 17.986 11.2263 16.6344 12.1115 15.3144C13.8821 12.674 15.9966 10.2375 17.3472 8.76875C17.6954 8.39016 18.2587 8.39017 18.6069 8.76877C19.9574 10.2376 22.0717 12.674 23.8422 15.3144C24.7273 16.6344 25.5133 17.986 26.0753 19.2778C26.6414 20.5792 26.9534 21.7599 26.9534 22.7548Z" fill="#EFFFFE" stroke="#009891" stroke-width="2" stroke-linejoin="round"/>
<mask id="mask0_914_12688" style="mask-type:alpha" maskUnits="userSpaceOnUse" x="8" y="6" width="20" height="27">
<path d="M26.9534 22.6753C26.9534 25.425 25.9421 27.5555 24.3566 29.0055C22.7601 30.4656 20.5176 31.2924 17.9771 31.2924C15.4365 31.2924 13.1938 30.4656 11.5971 29.0055C10.0115 27.5554 9 25.425 9 22.6753C9 21.4145 9.53263 19.8559 10.4412 18.1533C11.3384 16.4718 12.5468 14.7508 13.7742 13.1918C14.9989 11.6363 16.2261 10.2627 17.1484 9.27689C17.4655 8.93797 17.7459 8.64556 17.9771 8.40809C18.2082 8.64556 18.4886 8.93796 18.8056 9.27686C19.7279 10.2626 20.955 11.6363 22.1795 13.1918C23.4069 14.7508 24.6152 16.4718 25.5124 18.1532C26.4208 19.8559 26.9534 21.4145 26.9534 22.6753Z" fill="#EFFFFE" stroke="#009891" stroke-width="2"/>
</mask>
<g mask="url(#mask0_914_12688)">
<ellipse cx="22.5017" cy="25.3545" rx="8.2908" ry="8.47922" fill="#C9EBE9"/>
</g>
<path d="M26.9534 22.7548C26.9534 25.5925 25.9357 27.7888 24.3471 29.2798C22.7496 30.7793 20.5103 31.625 17.9771 31.625C15.4438 31.625 13.2043 30.7793 11.6066 29.2798C10.0179 27.7887 9 25.5925 9 22.7548C9 21.76 9.31209 20.5793 9.87825 19.2778C10.4403 17.986 11.2263 16.6344 12.1115 15.3144C13.8821 12.674 15.9966 10.2375 17.3472 8.76875C17.6954 8.39016 18.2587 8.39017 18.6069 8.76877C19.9574 10.2376 22.0717 12.674 23.8422 15.3144C24.7273 16.6344 25.5133 17.986 26.0753 19.2778C26.6414 20.5792 26.9534 21.7599 26.9534 22.7548Z" stroke="#009891" stroke-width="2" stroke-linejoin="round"/>
<path d="M20.4764 24.142L20.4766 24.1417C20.7774 23.6052 21.1376 23.1077 21.5477 22.6588L21.5483 22.658C21.8233 22.3564 22.1212 22.077 22.4394 21.8217L22.4397 21.8215C23.7657 20.757 25.4322 20.125 27.2426 20.125C31.5296 20.125 35.0426 23.6855 35.0426 28.1252C35.0426 32.5645 31.5296 36.125 27.2426 36.125C22.9557 36.125 19.4426 32.5645 19.4426 28.1252C19.4426 26.6719 19.8193 25.3132 20.4764 24.142Z" fill="#C9EBE9" stroke="#009891" stroke-width="2"/>
<path d="M27.5 24L25.2109 28.125H29.6109L27.5 32" stroke="#009891" stroke-width="2" stroke-linecap="round" stroke-linejoin="round"/>
</svg>
