<svg width="24" height="24" viewBox="0 0 24 24" fill="none" xmlns="http://www.w3.org/2000/svg">
<circle cx="12" cy="12" r="8" fill="#EFFFFE" stroke="#009891" stroke-width="2"/>
<circle opacity="0.8" cx="12" cy="12" r="8" stroke="#009891" stroke-width="2"/>
<mask id="mask0_914_12764" style="mask-type:alpha" maskUnits="userSpaceOnUse" x="9" y="11" width="11" height="9">
<path d="M19.922 13.8758C19.922 17.0836 14.7757 19.986 11.4129 19.986C9.36829 19.986 9 20.3664 9 17.1586C9 13.9508 12.592 11 15.9548 11C21.2277 11 19.7752 11.5556 19.922 13.8758Z" fill="#C9EBE9"/>
</mask>
<g mask="url(#mask0_914_12764)">
<circle cx="12" cy="12" r="7" fill="#C9EBE9"/>
</g>
<circle cx="12.0001" cy="11.9999" r="1.13636" stroke="#009891"/>
<path d="M10.0944 7.09082L10.5843 6.99049C10.5458 6.80278 10.4035 6.65354 10.2178 6.60627C10.0321 6.559 9.83573 6.62201 9.7122 6.7685L10.0944 7.09082ZM10.5276 9.20554L10.7114 9.67053C10.9371 9.58132 11.0661 9.34294 11.0174 9.10521L10.5276 9.20554ZM8.98094 12.1402L9.47398 12.057L8.98094 12.1402ZM12 13.9743H12.5C12.5 13.6982 12.2762 13.4743 12 13.4743V13.9743ZM12 15.5064L12.2299 15.9504C12.3958 15.8645 12.5 15.6932 12.5 15.5064H12ZM9.29027 16.909L8.91654 17.2412L9.17482 17.5318L9.52011 17.353L9.29027 16.909ZM6.57078 11.2696L6.18853 10.9473L6.57078 11.2696ZM9.60462 7.19115L10.0378 9.30587L11.0174 9.10521L10.5843 6.99049L9.60462 7.19115ZM10.3438 8.74055C9.91226 8.91113 9.39033 9.36135 9.01117 9.94043C8.6227 10.5337 8.33768 11.3326 8.48791 12.2233L9.47398 12.057C9.37675 11.4805 9.55573 10.9343 9.84779 10.4882C10.1492 10.0279 10.5243 9.7445 10.7114 9.67053L10.3438 8.74055ZM8.48791 12.2233C8.68994 13.4214 9.67785 13.9728 10.454 14.2213C10.8533 14.3491 11.2365 14.4116 11.5168 14.4427C11.6579 14.4583 11.7755 14.4662 11.8591 14.4702C11.9009 14.4722 11.9344 14.4732 11.9583 14.4738C11.9703 14.474 11.9798 14.4742 11.9868 14.4743C11.9903 14.4743 11.9932 14.4743 11.9954 14.4743C11.9965 14.4743 11.9974 14.4743 11.9982 14.4743C11.9986 14.4743 11.999 14.4743 11.9993 14.4743C11.9994 14.4743 11.9996 14.4743 11.9997 14.4743C11.9999 14.4743 12 14.4743 12 13.9743C12 13.4743 12.0002 13.4743 12.0003 13.4743C12.0004 13.4743 12.0005 13.4743 12.0006 13.4743C12.0007 13.4743 12.0008 13.4743 12.0009 13.4744C12.001 13.4744 12.001 13.4744 12.0008 13.4743C12.0004 13.4743 11.9993 13.4743 11.9977 13.4743C11.9944 13.4743 11.9887 13.4742 11.9808 13.474C11.9648 13.4737 11.9398 13.4729 11.907 13.4713C11.8411 13.4682 11.7446 13.4618 11.6268 13.4487C11.3894 13.4224 11.0758 13.3703 10.7589 13.2689C10.1029 13.0589 9.58126 12.6932 9.47398 12.057L8.48791 12.2233ZM11.5 13.9743V15.5064H12.5V13.9743H11.5ZM11.7702 15.0623L9.06042 16.465L9.52011 17.353L12.2299 15.9504L11.7702 15.0623ZM9.66399 16.5768L6.97857 13.5553L6.23112 14.2197L8.91654 17.2412L9.66399 16.5768ZM6.95302 11.5919L10.4767 7.41314L9.7122 6.7685L6.18853 10.9473L6.95302 11.5919ZM6.97857 13.5553C6.48335 12.9981 6.47246 12.1618 6.95302 11.5919L6.18853 10.9473C5.3876 11.8971 5.40574 13.291 6.23112 14.2197L6.97857 13.5553Z" fill="#009891"/>
<path d="M13.9421 7.09082L13.4521 6.99125C13.4903 6.80299 13.6331 6.6533 13.8193 6.60613C14.0055 6.55896 14.2023 6.62265 14.3256 6.76999L13.9421 7.09082ZM13.5123 9.20554L13.3273 9.67003C13.1026 9.5805 12.9742 9.34299 13.0223 9.10597L13.5123 9.20554ZM15.0468 12.1402L14.5537 12.0577L15.0468 12.1402ZM12 13.9743H11.5C11.5 13.6982 11.7238 13.4743 12 13.4743V13.9743ZM12 15.5064L11.7721 15.9514C11.6051 15.8659 11.5 15.694 11.5 15.5064H12ZM14.7399 16.909L15.1149 17.2397L14.858 17.5311L14.5121 17.3541L14.7399 16.909ZM14.432 7.19039L14.0023 9.30511L13.0223 9.10597L13.4521 6.99125L14.432 7.19039ZM13.6974 8.74105C14.1269 8.91219 14.6451 9.3631 15.0211 9.94195C15.4065 10.5352 15.6888 11.3333 15.5399 12.2227L14.5537 12.0577C14.6503 11.4798 14.4723 10.9328 14.1825 10.4867C13.8834 10.0262 13.5115 9.74344 13.3273 9.67003L13.6974 8.74105ZM15.5399 12.2227C15.339 13.4236 14.3405 13.9741 13.5594 14.2217C13.1568 14.3493 12.7702 14.4117 12.4873 14.4427C12.3449 14.4583 12.2263 14.4662 12.142 14.4702C12.0998 14.4722 12.066 14.4732 12.0419 14.4738C12.0299 14.474 12.0203 14.4742 12.0132 14.4743C12.0097 14.4743 12.0068 14.4743 12.0046 14.4743C12.0035 14.4743 12.0025 14.4743 12.0018 14.4743C12.0014 14.4743 12.001 14.4743 12.0007 14.4743C12.0006 14.4743 12.0004 14.4743 12.0003 14.4743C12.0001 14.4743 12 14.4743 12 13.9743C12 13.4743 11.9998 13.4743 11.9997 13.4743C11.9996 13.4743 11.9995 13.4743 11.9994 13.4743C11.9993 13.4743 11.9992 13.4743 11.9991 13.4744C11.999 13.4744 11.9991 13.4744 11.9993 13.4743C11.9997 13.4743 12.0008 13.4743 12.0024 13.4743C12.0058 13.4743 12.0116 13.4742 12.0197 13.474C12.0359 13.4737 12.0613 13.4729 12.0946 13.4713C12.1613 13.4682 12.2592 13.4617 12.3784 13.4487C12.6189 13.4223 12.9365 13.3701 13.2572 13.2684C13.9228 13.0575 14.4477 12.6909 14.5537 12.0577L15.5399 12.2227ZM12.5 13.9743V15.5064H11.5V13.9743H12.5ZM12.2278 15.0613L14.9678 16.4639L14.5121 17.3541L11.7721 15.9514L12.2278 15.0613ZM14.3649 16.5783L17.0342 13.5511L17.7843 14.2125L15.1149 17.2397L14.3649 16.5783ZM17.0596 11.5965L13.5586 7.41165L14.3256 6.76999L17.8266 10.9549L17.0596 11.5965ZM17.0342 13.5511C17.5243 12.9953 17.5351 12.1649 17.0596 11.5965L17.8266 10.9549C18.6191 11.9021 18.6011 13.2861 17.7843 14.2125L17.0342 13.5511Z" fill="#009891"/>
</svg>
