<svg width="24" height="24" viewBox="0 0 24 24" fill="none" xmlns="http://www.w3.org/2000/svg">
<mask id="path-1-inside-1_914_12789" fill="white">
<path d="M11.3999 9.25953C11.3999 7.87258 12.3723 6.67559 13.7298 6.39144L13.9025 6.3553C15.0286 6.11958 16.1821 6.04158 17.3297 6.12356C18.7215 6.22297 19.7999 7.38111 19.7999 8.77649V14.7989C19.7999 16.54 18.3228 17.9154 16.5862 17.7913L16.018 17.7507C15.7406 17.7309 15.4618 17.7498 15.1896 17.8067L15.0145 17.8434C13.1508 18.2335 11.3999 16.8111 11.3999 14.907V9.25953Z"/>
</mask>
<path d="M11.3999 9.25953C11.3999 7.87258 12.3723 6.67559 13.7298 6.39144L13.9025 6.3553C15.0286 6.11958 16.1821 6.04158 17.3297 6.12356C18.7215 6.22297 19.7999 7.38111 19.7999 8.77649V14.7989C19.7999 16.54 18.3228 17.9154 16.5862 17.7913L16.018 17.7507C15.7406 17.7309 15.4618 17.7498 15.1896 17.8067L15.0145 17.8434C13.1508 18.2335 11.3999 16.8111 11.3999 14.907V9.25953Z" fill="#EFFFFE"/>
<path d="M16.018 17.7507L16.1605 15.7558L16.018 17.7507ZM15.1896 17.8067L14.7799 15.8492L15.1896 17.8067ZM13.9025 6.3553L13.4927 4.39772L13.9025 6.3553ZM16.5862 17.7913L16.4437 19.7862L16.5862 17.7913ZM13.7298 6.39144L13.3201 4.43386L13.7298 6.39144ZM17.7999 8.77649V14.7989H21.7999V8.77649H17.7999ZM13.3999 14.907V9.25953H9.3999V14.907H13.3999ZM14.1396 8.34902L14.3122 8.31287L13.4927 4.39772L13.3201 4.43386L14.1396 8.34902ZM16.7287 15.7964L16.1605 15.7558L15.8755 19.7457L16.4437 19.7862L16.7287 15.7964ZM14.7799 15.8492L14.6048 15.8858L15.4243 19.801L15.5994 19.7643L14.7799 15.8492ZM16.1605 15.7558C15.6982 15.7228 15.2335 15.7542 14.7799 15.8492L15.5994 19.7643C15.6901 19.7453 15.783 19.739 15.8755 19.7457L16.1605 15.7558ZM14.3122 8.31287C15.2569 8.11514 16.2245 8.04971 17.1872 8.11847L17.4722 4.12864C16.1396 4.03346 14.8003 4.12402 13.4927 4.39772L14.3122 8.31287ZM9.3999 14.907C9.3999 18.0805 12.3181 20.4511 15.4243 19.801L14.6048 15.8858C13.9835 16.0159 13.3999 15.5417 13.3999 14.907H9.3999ZM17.7999 14.7989C17.7999 15.3793 17.3075 15.8377 16.7287 15.7964L16.4437 19.7862C19.338 19.993 21.7999 17.7007 21.7999 14.7989H17.7999ZM21.7999 8.77649C21.7999 6.33184 19.9106 4.30281 17.4722 4.12864L17.1872 8.11847C17.5324 8.14313 17.7999 8.43039 17.7999 8.77649H21.7999ZM13.3999 9.25953C13.3999 8.81922 13.7086 8.43922 14.1396 8.34902L13.3201 4.43386C11.036 4.91196 9.3999 6.92593 9.3999 9.25953H13.3999Z" fill="#009891" mask="url(#path-1-inside-1_914_12789)"/>
<path d="M18.8183 16.5334C18.1018 18.7676 17.182 16.8 15.8183 17.6C14.4547 18.4 13.1809 17.0797 13.8974 14.8455C14.614 12.6112 17.006 11.3809 19.2402 12.0974C19.9092 12.312 19.5348 14.2992 18.8183 16.5334Z" fill="#C9EBE9"/>
<mask id="path-4-inside-2_914_12789" fill="white">
<path d="M11.3999 9.25953C11.3999 7.87258 12.3723 6.67559 13.7298 6.39144L13.9025 6.3553C15.0286 6.11958 16.1821 6.04158 17.3297 6.12356C18.7215 6.22297 19.7999 7.38111 19.7999 8.77649V14.7989C19.7999 16.54 18.3228 17.9154 16.5862 17.7913L16.018 17.7507C15.7406 17.7309 15.4618 17.7498 15.1896 17.8067L15.0145 17.8434C13.1508 18.2335 11.3999 16.8111 11.3999 14.907V9.25953Z"/>
</mask>
<path d="M16.018 17.7507L16.1605 15.7558L16.018 17.7507ZM17.7999 8.77649V14.7989H21.7999V8.77649H17.7999ZM13.3999 14.907V9.25953H9.3999V14.907H13.3999ZM14.1396 8.34902L14.3122 8.31287L13.4927 4.39772L13.3201 4.43386L14.1396 8.34902ZM16.7287 15.7964L16.1605 15.7558L15.8755 19.7457L16.4437 19.7862L16.7287 15.7964ZM14.7799 15.8492L14.6048 15.8858L15.4243 19.801L15.5994 19.7643L14.7799 15.8492ZM16.1605 15.7558C15.6982 15.7228 15.2335 15.7542 14.7799 15.8492L15.5994 19.7643C15.6901 19.7453 15.783 19.739 15.8755 19.7457L16.1605 15.7558ZM14.3122 8.31287C15.2569 8.11514 16.2245 8.04971 17.1872 8.11847L17.4722 4.12864C16.1396 4.03346 14.8003 4.12402 13.4927 4.39772L14.3122 8.31287ZM9.3999 14.907C9.3999 18.0805 12.3181 20.4511 15.4243 19.801L14.6048 15.8858C13.9835 16.0159 13.3999 15.5417 13.3999 14.907H9.3999ZM17.7999 14.7989C17.7999 15.3793 17.3075 15.8377 16.7287 15.7964L16.4437 19.7862C19.338 19.993 21.7999 17.7007 21.7999 14.7989H17.7999ZM21.7999 8.77649C21.7999 6.33184 19.9106 4.30281 17.4722 4.12864L17.1872 8.11847C17.5324 8.14313 17.7999 8.43039 17.7999 8.77649H21.7999ZM13.3999 9.25953C13.3999 8.81922 13.7086 8.43922 14.1396 8.34902L13.3201 4.43386C11.036 4.91196 9.3999 6.92593 9.3999 9.25953H13.3999Z" fill="#009891" mask="url(#path-4-inside-2_914_12789)"/>
<mask id="path-6-inside-3_914_12789" fill="white">
<path d="M12.6001 9.25953C12.6001 7.87258 11.6277 6.67559 10.2702 6.39144L10.0975 6.3553C8.97137 6.11958 7.81792 6.04158 6.6703 6.12356C5.27846 6.22297 4.2001 7.38111 4.2001 8.77649V14.7989C4.2001 16.54 5.67724 17.9154 7.41384 17.7913L7.982 17.7507C8.25938 17.7309 8.53818 17.7498 8.81037 17.8067L8.98547 17.8434C10.8492 18.2335 12.6001 16.8111 12.6001 14.907V9.25953Z"/>
</mask>
<path d="M12.6001 9.25953C12.6001 7.87258 11.6277 6.67559 10.2702 6.39144L10.0975 6.3553C8.97137 6.11958 7.81792 6.04158 6.6703 6.12356C5.27846 6.22297 4.2001 7.38111 4.2001 8.77649V14.7989C4.2001 16.54 5.67724 17.9154 7.41384 17.7913L7.982 17.7507C8.25938 17.7309 8.53818 17.7498 8.81037 17.8067L8.98547 17.8434C10.8492 18.2335 12.6001 16.8111 12.6001 14.907V9.25953Z" fill="#EFFFFE"/>
<path d="M7.982 17.7507L7.8395 15.7558L7.982 17.7507ZM8.81037 17.8067L8.40062 19.7643L8.81037 17.8067ZM10.0975 6.3553L9.68776 8.31287L10.0975 6.3553ZM6.2001 8.77649V14.7989H2.2001V8.77649H6.2001ZM10.6001 14.907V9.25953H14.6001V14.907H10.6001ZM9.86043 8.34902L9.68776 8.31287L10.5073 4.39772L10.6799 4.43386L9.86043 8.34902ZM7.27134 15.7964L7.8395 15.7558L8.12449 19.7457L7.55633 19.7862L7.27134 15.7964ZM9.22012 15.8492L9.39522 15.8858L8.57572 19.801L8.40062 19.7643L9.22012 15.8492ZM7.8395 15.7558C8.30181 15.7228 8.76647 15.7542 9.22012 15.8492L8.40062 19.7643C8.30989 19.7453 8.21696 19.739 8.12449 19.7457L7.8395 15.7558ZM9.68776 8.31287C8.74308 8.11514 7.77549 8.04971 6.81279 8.11847L6.5278 4.12864C7.86035 4.03346 9.19966 4.12402 10.5073 4.39772L9.68776 8.31287ZM14.6001 14.907C14.6001 18.0805 11.6819 20.4511 8.57572 19.801L9.39522 15.8858C10.0165 16.0159 10.6001 15.5417 10.6001 14.907H14.6001ZM6.2001 14.7989C6.2001 15.3793 6.69247 15.8377 7.27134 15.7964L7.55633 19.7862C4.662 19.993 2.2001 17.7007 2.2001 14.7989H6.2001ZM2.2001 8.77649C2.2001 6.33184 4.08936 4.30281 6.5278 4.12864L6.81279 8.11847C6.46757 8.14313 6.2001 8.43039 6.2001 8.77649H2.2001ZM10.6001 9.25953C10.6001 8.81922 10.2914 8.43922 9.86043 8.34902L10.6799 4.43386C12.964 4.91196 14.6001 6.92593 14.6001 9.25953H10.6001Z" fill="#009891" mask="url(#path-6-inside-3_914_12789)"/>
<rect x="16.3" y="10.3001" width="3" height="0.599999" rx="0.3" transform="rotate(-90 16.3 10.3001)" fill="#009891" stroke="#009891" stroke-width="0.599999"/>
<rect x="10" y="16" width="4" height="2" rx="1" fill="#009891"/>
</svg>
