<svg width="44" height="44" viewBox="0 0 44 44" fill="none" xmlns="http://www.w3.org/2000/svg">
<circle cx="13.0005" cy="7" r="1.5" transform="rotate(-90 13.0005 7)" stroke="#C9EBE9"/>
<circle cx="37.0343" cy="35.0342" r="1" transform="rotate(-61.4658 37.0343 35.0342)" stroke="#C9EBE9"/>
<circle cx="7.35622" cy="32.3562" r="0.5" transform="rotate(-61.4658 7.35622 32.3562)" fill="#C9EBE9" stroke="#C9EBE9"/>
<circle cx="7" cy="12" r="0.5" transform="rotate(-90 7 12)" fill="#C9EBE9" stroke="#C9EBE9"/>
<circle cx="38" cy="14" r="0.5" transform="rotate(-90 38 14)" fill="#C9EBE9" stroke="#C9EBE9"/>
<path d="M33.0699 18.588L33.2526 19.019L33.7006 19.1548L37.3783 20.2696C37.7999 20.3974 38.0882 20.7861 38.0882 21.2266V26.5219C38.0882 27.0742 37.6405 27.5219 37.0882 27.5219H8C7.44771 27.5219 7 27.0742 7 26.5219V21.2947C7 20.8381 7.30924 20.4395 7.7515 20.326L13.2798 18.9077L13.7006 18.7998L13.9089 18.4185C14.4297 17.4649 15.0557 16.1813 15.6196 14.9845C16.4738 13.1716 18.2751 12.0001 20.2522 12.0001L28.6293 12.0001L28.6349 12C29.49 11.9952 30.3153 12.452 30.81 13.2547L33.0699 18.588Z" fill="#EFFFFE" stroke="#009891" stroke-width="2"/>
<mask id="mask0_914_12533" style="mask-type:alpha" maskUnits="userSpaceOnUse" x="6" y="11" width="34" height="18">
<path d="M33.0699 18.588L33.2526 19.019L33.7006 19.1548L37.3783 20.2696C37.7999 20.3974 38.0882 20.7861 38.0882 21.2266V26.5219C38.0882 27.0742 37.6405 27.5219 37.0882 27.5219H8C7.44771 27.5219 7 27.0742 7 26.5219V21.2947C7 20.8381 7.30924 20.4395 7.7515 20.326L13.2798 18.9077L13.7006 18.7998L13.9089 18.4185C14.4297 17.4649 15.0557 16.1813 15.6196 14.9845C16.4738 13.1716 18.2751 12.0001 20.2522 12.0001L28.6293 12.0001L28.6349 12C29.49 11.9952 30.3153 12.452 30.81 13.2547L33.0699 18.588Z" fill="#EFFFFE" stroke="#009891" stroke-width="2"/>
</mask>
<g mask="url(#mask0_914_12533)">
<ellipse cx="33.7364" cy="26.029" rx="8.68566" ry="8.87906" fill="#C9EBE9"/>
</g>
<path d="M33.0699 18.588L33.2526 19.019L33.7006 19.1548L37.3783 20.2696C37.7999 20.3974 38.0882 20.7861 38.0882 21.2266V26.5219C38.0882 27.0742 37.6405 27.5219 37.0882 27.5219H8C7.44771 27.5219 7 27.0742 7 26.5219V21.2947C7 20.8381 7.30924 20.4395 7.7515 20.326L13.2798 18.9077L13.7006 18.7998L13.9089 18.4185C14.4297 17.4649 15.0557 16.1813 15.6196 14.9845C16.4738 13.1716 18.2751 12.0001 20.2522 12.0001L28.6293 12.0001L28.6349 12C29.49 11.9952 30.3153 12.452 30.81 13.2547L33.0699 18.588Z" stroke="#009891" stroke-width="2"/>
<path d="M17.408 28.7582C17.408 30.5619 15.9834 31.9863 14.272 31.9863C12.5607 31.9863 11.136 30.5619 11.136 28.7582C11.136 26.9544 12.5607 25.53 14.272 25.53C15.9834 25.53 17.408 26.9544 17.408 28.7582Z" fill="#EFFFFE" stroke="#009891" stroke-width="2"/>
<path d="M34.7794 28.7582C34.7794 30.5619 33.3547 31.9863 31.6434 31.9863C29.932 31.9863 28.5073 30.5619 28.5073 28.7582C28.5073 26.9544 29.932 25.53 31.6434 25.53C33.3547 25.53 34.7794 26.9544 34.7794 28.7582Z" fill="#EFFFFE" stroke="#009891" stroke-width="2"/>
</svg>
