<svg width="44" height="45" viewBox="0 0 44 45" fill="none" xmlns="http://www.w3.org/2000/svg">
<circle cx="40.0346" cy="12.0346" r="1.5" transform="rotate(1 40.0346 12.0346)" stroke="#C9EBE9"/>
<circle cx="6.52584" cy="11.526" r="1" transform="rotate(1 6.52584 11.526)" stroke="#C9EBE9"/>
<circle cx="34.9292" cy="7.92888" r="0.5" transform="rotate(1 34.9292 7.92888)" fill="#C9EBE9" stroke="#C9EBE9" stroke-width="0.826173"/>
<circle cx="2.92899" cy="15.9289" r="0.5" transform="rotate(1 2.92899 15.9289)" fill="#C9EBE9" stroke="#C9EBE9" stroke-width="0.826173"/>
<circle cx="28.929" cy="38.9289" r="0.5" transform="rotate(1 28.929 38.9289)" fill="#C9EBE9" stroke="#C9EBE9" stroke-width="0.826173"/>
<mask id="path-6-inside-1_914_12544" fill="white">
<path d="M20.8999 15.3241C20.8999 13.9093 21.8884 12.6868 23.2719 12.3906L26.6441 11.6687C27.9414 11.391 29.2716 11.2991 30.5947 11.3957L33.5185 11.6093C35.0863 11.7238 36.2999 13.0293 36.2999 14.6013V30.562C36.2999 32.3049 34.8196 33.681 33.0813 33.554L29.0274 33.2579C28.7438 33.2371 28.4588 33.2568 28.1808 33.3164L24.5279 34.0983C22.6605 34.4981 20.8999 33.0745 20.8999 31.1648V15.3241Z"/>
</mask>
<path d="M20.8999 15.3241C20.8999 13.9093 21.8884 12.6868 23.2719 12.3906L26.6441 11.6687C27.9414 11.391 29.2716 11.2991 30.5947 11.3957L33.5185 11.6093C35.0863 11.7238 36.2999 13.0293 36.2999 14.6013V30.562C36.2999 32.3049 34.8196 33.681 33.0813 33.554L29.0274 33.2579C28.7438 33.2371 28.4588 33.2568 28.1808 33.3164L24.5279 34.0983C22.6605 34.4981 20.8999 33.0745 20.8999 31.1648V15.3241Z" fill="#EFFFFE"/>
<path d="M29.0274 33.2579L28.8816 35.2525L29.0274 33.2579ZM26.6441 11.6687L26.2254 9.713L26.6441 11.6687ZM24.5279 34.0983L24.1092 32.1427L24.5279 34.0983ZM34.2999 14.6013V30.562H38.2999V14.6013H34.2999ZM22.8999 31.1648V15.3241H18.8999V31.1648H22.8999ZM23.6906 14.3463L27.0627 13.6244L26.2254 9.713L22.8532 10.4349L23.6906 14.3463ZM30.449 13.3904L33.3728 13.604L33.6642 9.61463L30.7404 9.40104L30.449 13.3904ZM33.227 31.5593L29.1731 31.2632L28.8816 35.2525L32.9356 35.5487L33.227 31.5593ZM27.7621 31.3607L24.1092 32.1427L24.9466 36.054L28.5995 35.272L27.7621 31.3607ZM29.1731 31.2632C28.7005 31.2287 28.2255 31.2615 27.7621 31.3607L28.5995 35.272C28.6921 35.2522 28.7871 35.2456 28.8816 35.2525L29.1731 31.2632ZM27.0627 13.6244C28.1747 13.3863 29.3149 13.3076 30.449 13.3904L30.7404 9.40104C29.2283 9.29057 27.708 9.39561 26.2254 9.713L27.0627 13.6244ZM18.8999 31.1648C18.8999 34.3476 21.8343 36.7203 24.9466 36.054L24.1092 32.1427C23.4868 32.2759 22.8999 31.8014 22.8999 31.1648H18.8999ZM34.2999 30.562C34.2999 31.143 33.8065 31.6017 33.227 31.5593L32.9356 35.5487C35.8328 35.7603 38.2999 33.4669 38.2999 30.562H34.2999ZM38.2999 14.6013C38.2999 11.9813 36.2773 9.80552 33.6642 9.61463L33.3728 13.604C33.8954 13.6422 34.2999 14.0773 34.2999 14.6013H38.2999ZM22.8999 15.3241C22.8999 14.8525 23.2294 14.445 23.6906 14.3463L22.8532 10.4349C20.5474 10.9285 18.8999 12.966 18.8999 15.3241H22.8999Z" fill="#009891" mask="url(#path-6-inside-1_914_12544)"/>
<mask id="path-8-inside-2_914_12544" fill="white">
<path d="M23.0999 15.3241C23.0999 13.9093 22.1113 12.6868 20.7278 12.3906L17.3557 11.6687C16.0584 11.391 14.7282 11.2991 13.405 11.3957L10.4813 11.6093C8.91341 11.7238 7.69985 13.0293 7.69985 14.6013V30.562C7.69985 32.3049 9.18011 33.681 10.9184 33.554L14.9724 33.2579C15.2559 33.2371 15.541 33.2568 15.819 33.3164L19.4719 34.0983C21.3392 34.4981 23.0999 33.0745 23.0999 31.1648V15.3241Z"/>
</mask>
<path d="M23.0999 15.3241C23.0999 13.9093 22.1113 12.6868 20.7278 12.3906L17.3557 11.6687C16.0584 11.391 14.7282 11.2991 13.405 11.3957L10.4813 11.6093C8.91341 11.7238 7.69985 13.0293 7.69985 14.6013V30.562C7.69985 32.3049 9.18011 33.681 10.9184 33.554L14.9724 33.2579C15.2559 33.2371 15.541 33.2568 15.819 33.3164L19.4719 34.0983C21.3392 34.4981 23.0999 33.0745 23.0999 31.1648V15.3241Z" fill="#EFFFFE"/>
<path d="M14.9724 33.2579L14.8267 31.2632L14.9724 33.2579ZM15.819 33.3164L15.4003 35.272L15.819 33.3164ZM19.4719 34.0983L19.8905 32.1427L19.4719 34.0983ZM10.9184 33.554L11.0641 35.5487L10.9184 33.554ZM9.69985 14.6013V30.562H5.69985V14.6013H9.69985ZM21.0999 31.1648V15.3241H25.0999V31.1648H21.0999ZM20.3092 14.3463L16.937 13.6244L17.7743 9.713L21.1465 10.4349L20.3092 14.3463ZM13.5508 13.3904L10.627 13.604L10.3356 9.61463L13.2593 9.40104L13.5508 13.3904ZM10.7727 31.5593L14.8267 31.2632L15.1181 35.2525L11.0641 35.5487L10.7727 31.5593ZM16.2376 31.3607L19.8905 32.1427L19.0532 36.054L15.4003 35.272L16.2376 31.3607ZM14.8267 31.2632C15.2992 31.2287 15.7743 31.2615 16.2376 31.3607L15.4003 35.272C15.3076 35.2522 15.2126 35.2456 15.1181 35.2525L14.8267 31.2632ZM16.937 13.6244C15.825 13.3863 14.6849 13.3076 13.5508 13.3904L13.2593 9.40104C14.7715 9.29057 16.2917 9.39561 17.7743 9.713L16.937 13.6244ZM25.0999 31.1648C25.0999 34.3476 22.1655 36.7203 19.0532 36.054L19.8905 32.1427C20.513 32.2759 21.0999 31.8014 21.0999 31.1648H25.0999ZM9.69985 30.562C9.69985 31.143 10.1933 31.6017 10.7727 31.5593L11.0641 35.5487C8.16695 35.7603 5.69985 33.4669 5.69985 30.562H9.69985ZM5.69985 14.6013C5.69985 11.9813 7.72244 9.80552 10.3356 9.61463L10.627 13.604C10.1044 13.6422 9.69985 14.0773 9.69985 14.6013H5.69985ZM21.0999 15.3241C21.0999 14.8525 20.7703 14.445 20.3092 14.3463L21.1465 10.4349C23.4523 10.9285 25.0999 12.966 25.0999 15.3241H21.0999Z" fill="#009891" mask="url(#path-8-inside-2_914_12544)"/>
<mask id="mask0_914_12544" style="mask-type:alpha" maskUnits="userSpaceOnUse" x="22" y="13" width="13" height="20">
<path d="M22 15.8086C22 15.3369 22.3295 14.9294 22.7907 14.8307L26.3383 14.0713C27.475 13.8279 28.6376 13.7271 29.7993 13.7712L33.3427 13.9055C33.8799 13.9259 34.3049 14.3672 34.3049 14.9048V30.4353C34.3049 31.0122 33.8181 31.4695 33.2423 31.4334L29.0072 31.1679C28.737 31.1509 28.4657 31.1706 28.2007 31.2265L23.2063 32.2793C22.5846 32.4104 22 31.9361 22 31.3008V15.8086Z" fill="#B8B8B8"/>
</mask>
<g mask="url(#mask0_914_12544)">
<ellipse rx="7.80534" ry="7.94933" transform="matrix(0.950195 0.311656 -0.29921 0.954187 32.895 30.2677)" fill="#C9EBE9"/>
</g>
<rect x="29.7" y="19.125" width="6.75" height="2.2" rx="1.1" transform="rotate(-90 29.7 19.125)" fill="#009891"/>
<rect x="19.8" y="32.625" width="4.4" height="2.25" rx="1.125" fill="#009891"/>
</svg>
