<svg width="24" height="24" viewBox="0 0 24 24" fill="none" xmlns="http://www.w3.org/2000/svg">
<path d="M5.2002 19.2C5.2002 18.0954 6.09563 17.2 7.2002 17.2H16.8002C17.9048 17.2 18.8002 18.0954 18.8002 19.2V21.2H5.2002V19.2Z" fill="#EFFFFE" stroke="#009891" stroke-width="2"/>
<circle cx="16.1001" cy="19.1001" r="0.5" fill="#009891"/>
<path d="M15.0726 5.50744C12.5923 4.00882 13.7555 1.89362 13.8054 1.8057C13.8778 1.68058 13.8776 1.52665 13.8048 1.40175C13.732 1.27685 13.5977 1.19995 13.4524 1.19995C12.1757 1.19995 11.1759 1.56021 10.4808 2.27074C9.29322 3.48485 9.34831 5.37445 9.37181 6.18137C9.37442 6.27075 9.37667 6.348 9.37667 6.40535C9.37667 7.00447 9.47345 7.55757 9.55886 8.04556C9.6139 8.36002 9.66143 8.6316 9.66987 8.84512C9.6789 9.07369 9.63689 9.12608 9.6351 9.12819C9.6291 9.13525 9.57916 9.16163 9.44414 9.16163C9.29015 9.16163 9.17662 9.11166 9.07604 8.99967C8.68316 8.56217 8.65599 7.36755 8.73112 6.71763C8.74455 6.60303 8.70805 6.48821 8.63078 6.40207C8.55354 6.31592 8.44292 6.26665 8.32676 6.26665C7.26978 6.26665 6.47998 7.98324 6.47998 9.51806C6.47998 10.2396 6.6261 10.9464 6.9143 11.6188C7.19292 12.2688 7.59023 12.8556 8.09522 13.3625C9.14696 14.4184 10.5336 15 11.9998 15C13.472 15 14.8583 14.4267 15.9034 13.3857C16.9459 12.3475 17.52 10.9739 17.52 9.51801C17.52 7.66035 16.0564 6.10178 15.0726 5.50744Z" fill="#EFFFFE"/>
<path d="M16.968 10.9635C16.968 10.9635 16.4357 12.861 15.0163 13.896C13.3504 13.896 12 12.9281 12 11.3085C12 9.6889 13.3504 8.37598 15.0163 8.37598C16.6821 8.37598 16.968 10.9635 16.968 10.9635Z" fill="#C9EBE9"/>
<path d="M14.5555 6.36334L14.5555 6.36335C14.9252 6.5867 15.4355 7.02792 15.8468 7.61367C16.2562 8.19655 16.52 8.85322 16.52 9.51801C16.52 11.9521 14.4431 14 11.9998 14C9.58464 14 7.47998 11.9069 7.47998 9.51806C7.47998 9.03657 7.57951 8.53362 7.74159 8.11386C7.77011 8.35227 7.81617 8.60434 7.89021 8.84452C7.96778 9.09613 8.09761 9.4068 8.33201 9.66782L8.33205 9.66787C8.64435 10.0156 9.13739 10.2163 9.61608 10.1553C9.88173 10.1214 10.2429 9.98751 10.4821 9.62712C10.7208 9.26751 10.7077 8.87854 10.641 8.60677C10.5926 8.4093 10.5872 8.37941 10.5784 8.32988C10.5762 8.31728 10.5739 8.30365 10.5712 8.28833C10.5571 8.20718 10.5349 8.07874 10.481 7.80617C10.3262 7.02241 10.2601 6.02378 10.3743 5.09121C10.4913 4.136 10.7786 3.39639 11.1957 2.97001L11.1957 2.97001C11.5172 2.64137 11.9642 2.39421 12.5795 2.2764C12.5229 2.53108 12.4846 2.82506 12.4903 3.14546C12.5096 4.22341 13.0272 5.43994 14.5555 6.36334ZM9.53367 8.17293C9.56162 8.31903 9.57577 8.40069 9.58615 8.46058C9.5907 8.48686 9.59453 8.50895 9.59848 8.53046L9.82003 8.33148C9.75443 8.25844 9.68635 8.22006 9.63235 8.1992C9.6085 8.18999 9.57545 8.17958 9.53367 8.17293Z" stroke="#009891" stroke-width="2" stroke-linejoin="round"/>
</svg>
