<svg width="24" height="24" viewBox="0 0 24 24" fill="none" xmlns="http://www.w3.org/2000/svg">
<path d="M9 4H14.847C15.9516 4 16.847 4.89543 16.847 6V18.2886C16.847 19.3931 15.9516 20.2886 14.847 20.2886H9C7.89543 20.2886 7 19.3931 7 18.2886V6C7 4.89543 7.89543 4 9 4Z" fill="#EFFFFE" stroke="#009891" stroke-width="2"/>
<mask id="mask0_1202_6362" style="mask-type:alpha" maskUnits="userSpaceOnUse" x="6" y="3" width="12" height="19">
<path d="M9 4H14.847C15.9516 4 16.847 4.89543 16.847 6V18.2886C16.847 19.3931 15.9516 20.2886 14.847 20.2886H9C7.89543 20.2886 7 19.3931 7 18.2886V6C7 4.89543 7.89543 4 9 4Z" fill="#EFFFFE" stroke="#009891" stroke-width="2"/>
</mask>
<g mask="url(#mask0_1202_6362)">
<ellipse rx="4.62464" ry="4.54326" transform="matrix(0.954132 0.299387 -0.311473 0.950255 14.3441 17.4733)" fill="#C9EBE9"/>
</g>
<path d="M9 4H14.847C15.9516 4 16.847 4.89543 16.847 6V18.2886C16.847 19.3931 15.9516 20.2886 14.847 20.2886H9C7.89543 20.2886 7 19.3931 7 18.2886V6C7 4.89543 7.89543 4 9 4Z" stroke="#009891" stroke-width="2"/>
<circle cx="11.8848" cy="17.5" r="0.5" fill="#009891"/>
<path d="M8 4H16C16.5522 4 17 4.44772 17 5V19.45C17 20.0023 16.5522 20.45 16 20.45H8C7.44772 20.45 7 20.0023 7 19.45V5C7 4.44771 7.44771 4 8 4Z" stroke="#009891" stroke-width="2"/>
<path d="M9.91113 3.47852H13.8218V3.47852C13.8218 4.00681 13.3935 4.43508 12.8652 4.43508H10.8677C10.3394 4.43508 9.91113 4.00681 9.91113 3.47852V3.47852Z" fill="#009891"/>
<rect x="9.75" y="6.75" width="4.5" height="7.5" rx="1.25" stroke="#009891" stroke-width="1.5" stroke-linejoin="round"/>
</svg>
