<svg width="24" height="24" viewBox="0 0 24 24" fill="none" xmlns="http://www.w3.org/2000/svg">
<path d="M18.214 9.41411C18.214 12.846 15.4319 15.628 12 15.628C8.5682 15.628 5.78613 12.846 5.78613 9.41411C5.78613 5.98226 8.5682 3.2002 12 3.2002C15.4319 3.2002 18.214 5.98226 18.214 9.41411Z" fill="#EFFFFE" stroke="#009891" stroke-width="2"/>
<path d="M18.6001 11.4147C18.6001 13.881 16.2665 15.8049 13.8001 15.8049C11.3337 15.8049 10.9697 16.0025 10.9697 13.5361C10.9697 11.0697 12.9691 9.07033 15.4355 9.07033C17.9019 9.07033 18.6001 8.94829 18.6001 11.4147Z" fill="#C9EBE9"/>
<path d="M18.214 9.41411C18.214 12.846 15.4319 15.628 12 15.628C8.5682 15.628 5.78613 12.846 5.78613 9.41411C5.78613 5.98226 8.5682 3.2002 12 3.2002C15.4319 3.2002 18.214 5.98226 18.214 9.41411Z" stroke="#009891" stroke-width="2"/>
<path d="M10.8604 12.144V9.85795M10.8604 9.85795V7.2002H12.9486C13.6825 7.2002 14.2775 7.79515 14.2775 8.52907V8.52907C14.2775 9.26299 13.6825 9.85795 12.9486 9.85795H12.5689H10.8604Z" stroke="#009891" stroke-width="1.5" stroke-linecap="round" stroke-linejoin="round"/>
<path d="M12 16.7998L12 20.7347" stroke="#009891" stroke-width="2" stroke-linecap="round"/>
<path d="M9.37695 21.3906L14.6234 21.3906" stroke="#009891" stroke-width="2" stroke-linecap="round"/>
</svg>
