<svg width="44" height="44" viewBox="0 0 44 44" fill="none" xmlns="http://www.w3.org/2000/svg">
<circle cx="6.5" cy="26.5" r="2" transform="rotate(-90 6.5 26.5)" stroke="#C9EBE9"/>
<circle cx="39.5" cy="24.5" r="1" transform="rotate(-90 39.5 24.5)" stroke="#C9EBE9"/>
<circle cx="36.5" cy="30.5" r="1" transform="rotate(-90 36.5 30.5)" fill="#C9EBE9" stroke="#C9EBE9"/>
<circle cx="9" cy="15" r="0.5" transform="rotate(-90 9 15)" fill="#C9EBE9" stroke="#C9EBE9"/>
<path d="M13 8.1001C13 6.99553 13.8954 6.1001 15 6.1001H29.7324C30.837 6.1001 31.7324 6.99553 31.7324 8.1001V35.6292C31.7324 36.7337 30.837 37.6292 29.7324 37.6292H15C13.8954 37.6292 13 36.7337 13 35.6292V8.1001Z" fill="#EFFFFE" stroke="#009891" stroke-width="2"/>
<mask id="mask0_914_12684" style="mask-type:alpha" maskUnits="userSpaceOnUse" x="12" y="5" width="21" height="34">
<path d="M13 8.1001C13 6.99553 13.8954 6.1001 15 6.1001H29.7324C30.837 6.1001 31.7324 6.99553 31.7324 8.1001V35.6292C31.7324 36.7337 30.837 37.6292 29.7324 37.6292H15C13.8954 37.6292 13 36.7337 13 35.6292V8.1001Z" fill="#EFFFFE" stroke="#009891" stroke-width="2"/>
</mask>
<g mask="url(#mask0_914_12684)">
<ellipse rx="8.12843" ry="8.29334" transform="matrix(0.94999 0.312281 -0.298606 0.954377 26.6024 31.6337)" fill="#C9EBE9"/>
</g>
<path d="M13 8.1001C13 6.99553 13.8954 6.1001 15 6.1001H29.7324C30.837 6.1001 31.7324 6.99553 31.7324 8.1001V35.6292C31.7324 36.7337 30.837 37.6292 29.7324 37.6292H15C13.8954 37.6292 13 36.7337 13 35.6292V8.1001Z" stroke="#009891" stroke-width="2"/>
<ellipse cx="22.3662" cy="32.1464" rx="0.942382" ry="0.965942" fill="#009891"/>
<path d="M13 7.1001C13 6.54781 13.4477 6.1001 14 6.1001H31C31.5523 6.1001 32 6.54781 32 7.1001V36.9251C32 37.4774 31.5523 37.9251 31 37.9251H14C13.4477 37.9251 13 37.4774 13 36.9251V7.1001Z" stroke="#009891" stroke-width="2"/>
<path d="M16.7695 12.4844C16.7695 11.3798 17.665 10.4844 18.7695 10.4844H25.9629C27.0674 10.4844 27.9629 11.3798 27.9629 12.4844V25.7751C27.9629 26.8796 27.0674 27.7751 25.9629 27.7751H18.7695C17.665 27.7751 16.7695 26.8796 16.7695 25.7751V12.4844Z" stroke="#009891" stroke-width="2"/>
<path d="M18.8435 5.97705H25.6872V6.73075C25.6872 7.28304 25.2395 7.73075 24.6872 7.73075H19.8435C19.2912 7.73075 18.8435 7.28303 18.8435 6.73075V5.97705Z" fill="#009891"/>
</svg>
