<svg width="44" height="44" viewBox="0 0 44 44" fill="none" xmlns="http://www.w3.org/2000/svg">
<path d="M33.0483 35.6496C32.3989 35.7562 31.7607 35.3019 31.6459 34.6025C31.5311 33.9032 31.9904 33.2687 32.6399 33.162C33.2894 33.0554 33.9275 33.5097 34.0423 34.2091C34.1572 34.9084 33.6978 35.5429 33.0483 35.6496Z" stroke="#C9EBE9"/>
<circle cx="8.00024" cy="11" r="1.5" transform="rotate(90 8.00024 11)" stroke="#C9EBE9"/>
<circle cx="37" cy="11" r="1" transform="rotate(90 37 11)" fill="#C9EBE9"/>
<circle cx="6.85118" cy="29.8508" r="1.31575" transform="rotate(140.949 6.85118 29.8508)" fill="#C9EBE9"/>
<ellipse cx="36.9933" cy="29.6772" rx="0.897082" ry="0.873552" transform="rotate(80.6754 36.9933 29.6772)" fill="#C9EBE9"/>
<circle cx="10.9255" cy="34.9253" r="0.657874" transform="rotate(140.949 10.9255 34.9253)" fill="#C9EBE9"/>
<path fill-rule="evenodd" clip-rule="evenodd" d="M21.9996 19.4327C21.9998 19.4327 22 19.4327 22.0003 19.4327C22 19.411 21.9999 19.3893 21.9999 19.3675C21.9999 16.1459 24.6116 13.5342 27.8333 13.5342C31.0549 13.5342 33.6666 16.1459 33.6666 19.3675C33.6666 19.5454 33.6586 19.7214 33.643 19.8953C33.6509 19.8961 33.6587 19.8969 33.6666 19.8978C33.6666 27.3221 22.5302 34.216 22.5302 34.216C22.5302 34.216 10.3333 27.8524 10.3333 19.8978C10.3411 19.8971 10.349 19.8965 10.3569 19.8959C10.3412 19.7218 10.3333 19.5456 10.3333 19.3675C10.3333 16.1459 12.9449 13.5342 16.1666 13.5342C19.3882 13.5342 21.9999 16.1459 21.9999 19.3675C21.9999 19.3893 21.9998 19.411 21.9996 19.4327Z" fill="#EFFFFE"/>
<path d="M21.9996 19.4327L20.9996 19.4217C20.9967 19.6899 21.1016 19.9479 21.2907 20.138C21.4799 20.3281 21.7374 20.4343 22.0056 20.4326L21.9996 19.4327ZM22.0003 19.4327L22.0063 20.4326C22.2723 20.431 22.5268 20.3235 22.7133 20.1337C22.8999 19.944 23.0031 19.6878 23.0002 19.4217L22.0003 19.4327ZM33.643 19.8953L32.647 19.806C32.5982 20.3502 32.9953 20.8329 33.5388 20.8898L33.643 19.8953ZM33.6666 19.8978H34.6666C34.6666 19.386 34.2802 18.9568 33.7713 18.9033L33.6666 19.8978ZM22.5302 34.216L22.0677 35.1026C22.3806 35.2659 22.7564 35.2521 23.0566 35.0663L22.5302 34.216ZM10.3333 19.8978L10.2535 18.9009C9.7338 18.9425 9.33325 19.3764 9.33325 19.8978H10.3333ZM10.3569 19.8959L10.4363 20.8927C10.7024 20.8715 10.949 20.7448 11.1212 20.5407C11.2933 20.3367 11.3767 20.0723 11.3529 19.8065L10.3569 19.8959ZM22.0056 20.4326L22.0063 20.4326L21.9943 18.4327L21.9936 18.4327L22.0056 20.4326ZM20.9999 19.3675C20.9999 19.3929 21.0001 19.4183 21.0003 19.4436L23.0002 19.4217C23 19.4037 22.9999 19.3856 22.9999 19.3675H20.9999ZM27.8333 12.5342C24.0593 12.5342 20.9999 15.5936 20.9999 19.3675H22.9999C22.9999 16.6981 25.1639 14.5342 27.8333 14.5342V12.5342ZM34.6666 19.3675C34.6666 15.5936 31.6072 12.5342 27.8333 12.5342V14.5342C30.5026 14.5342 32.6666 16.6981 32.6666 19.3675H34.6666ZM34.639 19.9846C34.6573 19.7811 34.6666 19.5753 34.6666 19.3675H32.6666C32.6666 19.5155 32.66 19.6618 32.647 19.806L34.639 19.9846ZM33.5388 20.8898C33.5465 20.8906 33.5542 20.8915 33.5619 20.8923L33.7713 18.9033C33.7633 18.9024 33.7553 18.9016 33.7473 18.9007L33.5388 20.8898ZM32.6666 19.8978C32.6666 21.5051 32.0618 23.1452 31.0757 24.7416C30.0919 26.3345 28.764 27.8261 27.4087 29.1169C26.0568 30.4044 24.7006 31.4704 23.6806 32.2152C23.1714 32.5869 22.7482 32.8771 22.454 33.0732C22.307 33.1713 22.1923 33.2457 22.1155 33.295C22.077 33.3196 22.0481 33.338 22.0293 33.3498C22.0198 33.3558 22.013 33.3601 22.0087 33.3627C22.0066 33.3641 22.0051 33.365 22.0043 33.3655C22.0039 33.3657 22.0036 33.3659 22.0036 33.3659C22.0035 33.3659 22.0036 33.3659 22.0036 33.3659C22.0037 33.3658 22.0039 33.3657 22.5302 34.216C23.0566 35.0663 23.0568 35.0661 23.0571 35.0659C23.0573 35.0658 23.0576 35.0656 23.0579 35.0655C23.0585 35.0651 23.0593 35.0646 23.0602 35.064C23.0621 35.0628 23.0647 35.0612 23.0679 35.0592C23.0743 35.0552 23.0834 35.0495 23.0951 35.0422C23.1184 35.0275 23.152 35.0062 23.1951 34.9785C23.2814 34.9232 23.406 34.8423 23.5634 34.7373C23.8783 34.5274 24.3251 34.221 24.86 33.8304C25.928 33.0506 27.3559 31.9291 28.7881 30.5651C30.2169 29.2044 31.6731 27.5804 32.7773 25.7926C33.8794 24.0084 34.6666 22.0025 34.6666 19.8978H32.6666ZM22.5302 34.216C22.9928 33.3294 22.993 33.3295 22.9931 33.3296C22.9931 33.3296 22.9932 33.3296 22.9931 33.3296C22.993 33.3295 22.9928 33.3294 22.9924 33.3292C22.9915 33.3287 22.9899 33.3279 22.9875 33.3267C22.9829 33.3242 22.9754 33.3202 22.9651 33.3148C22.9445 33.3038 22.9128 33.2868 22.8708 33.264C22.7867 33.2183 22.6612 33.1491 22.5002 33.0576C22.1782 32.8746 21.715 32.6028 21.1577 32.2515C20.0411 31.5475 18.5573 30.5309 17.0784 29.2771C14.0524 26.7116 11.3333 23.3932 11.3333 19.8978H9.33325C9.33325 24.3569 12.7126 28.1977 15.7851 30.8026C17.3554 32.134 18.9208 33.2055 20.0911 33.9433C20.6773 34.3129 21.167 34.6003 21.512 34.7964C21.6846 34.8945 21.8212 34.9698 21.9157 35.0212C21.963 35.0469 21.9998 35.0666 22.0254 35.0802C22.0382 35.0871 22.0481 35.0923 22.0552 35.0961C22.0588 35.0979 22.0616 35.0994 22.0636 35.1005C22.0647 35.101 22.0655 35.1015 22.0662 35.1018C22.0665 35.102 22.0669 35.1022 22.0671 35.1023C22.0674 35.1024 22.0677 35.1026 22.5302 34.216ZM10.413 20.8946C10.4207 20.894 10.4285 20.8933 10.4363 20.8927L10.2774 18.899C10.2694 18.8997 10.2615 18.9003 10.2535 18.9009L10.413 20.8946ZM9.33325 19.3675C9.33325 19.5755 9.34257 19.7816 9.36086 19.9853L11.3529 19.8065C11.3399 19.6621 11.3333 19.5157 11.3333 19.3675H9.33325ZM16.1666 12.5342C12.3926 12.5342 9.33325 15.5936 9.33325 19.3675H11.3333C11.3333 16.6981 13.4972 14.5342 16.1666 14.5342V12.5342ZM22.9999 19.3675C22.9999 15.5936 19.9405 12.5342 16.1666 12.5342V14.5342C18.836 14.5342 20.9999 16.6981 20.9999 19.3675H22.9999ZM22.9995 19.4436C22.9998 19.4183 22.9999 19.3929 22.9999 19.3675H20.9999C20.9999 19.3856 20.9998 19.4037 20.9996 19.4217L22.9995 19.4436Z" fill="#009891"/>
<path d="M24.573 32.9167C22.3658 31.9022 20.8333 29.6718 20.8333 27.0834C20.8333 23.5396 23.7061 20.6667 27.2499 20.6667C29.8383 20.6667 32.0687 22.1993 33.0833 24.4065C31.3333 28.8334 26.6666 32.3334 24.573 32.9167Z" fill="#C9EBE9"/>
<path d="M21.9996 19.4327L20.9996 19.4217C20.9967 19.6899 21.1016 19.9479 21.2907 20.138C21.4799 20.3281 21.7374 20.4343 22.0056 20.4326L21.9996 19.4327ZM22.0003 19.4327L22.0063 20.4326C22.2723 20.431 22.5268 20.3235 22.7133 20.1337C22.8999 19.944 23.0031 19.6878 23.0002 19.4217L22.0003 19.4327ZM33.643 19.8953L32.647 19.806C32.5982 20.3502 32.9953 20.8329 33.5388 20.8898L33.643 19.8953ZM33.6666 19.8978H34.6666C34.6666 19.386 34.2802 18.9568 33.7713 18.9033L33.6666 19.8978ZM22.5302 34.216L22.0677 35.1026C22.3806 35.2659 22.7564 35.2521 23.0566 35.0663L22.5302 34.216ZM10.3333 19.8978L10.2535 18.9009C9.7338 18.9425 9.33325 19.3764 9.33325 19.8978H10.3333ZM10.3569 19.8959L10.4363 20.8927C10.7024 20.8715 10.949 20.7448 11.1212 20.5407C11.2933 20.3367 11.3767 20.0723 11.3529 19.8065L10.3569 19.8959ZM22.0056 20.4326L22.0063 20.4326L21.9943 18.4327L21.9936 18.4327L22.0056 20.4326ZM20.9999 19.3675C20.9999 19.3929 21.0001 19.4183 21.0003 19.4436L23.0002 19.4217C23 19.4037 22.9999 19.3856 22.9999 19.3675H20.9999ZM27.8333 12.5342C24.0593 12.5342 20.9999 15.5936 20.9999 19.3675H22.9999C22.9999 16.6981 25.1639 14.5342 27.8333 14.5342V12.5342ZM34.6666 19.3675C34.6666 15.5936 31.6072 12.5342 27.8333 12.5342V14.5342C30.5026 14.5342 32.6666 16.6981 32.6666 19.3675H34.6666ZM34.639 19.9846C34.6573 19.7811 34.6666 19.5753 34.6666 19.3675H32.6666C32.6666 19.5155 32.66 19.6618 32.647 19.806L34.639 19.9846ZM33.5388 20.8898C33.5465 20.8906 33.5542 20.8915 33.5619 20.8923L33.7713 18.9033C33.7633 18.9024 33.7553 18.9016 33.7473 18.9007L33.5388 20.8898ZM32.6666 19.8978C32.6666 21.5051 32.0618 23.1452 31.0757 24.7416C30.0919 26.3345 28.764 27.8261 27.4087 29.1169C26.0568 30.4044 24.7006 31.4704 23.6806 32.2152C23.1714 32.5869 22.7482 32.8771 22.454 33.0732C22.307 33.1713 22.1923 33.2457 22.1155 33.295C22.077 33.3196 22.0481 33.338 22.0293 33.3498C22.0198 33.3558 22.013 33.3601 22.0087 33.3627C22.0066 33.3641 22.0051 33.365 22.0043 33.3655C22.0039 33.3657 22.0036 33.3659 22.0036 33.3659C22.0035 33.3659 22.0036 33.3659 22.0036 33.3659C22.0037 33.3658 22.0039 33.3657 22.5302 34.216C23.0566 35.0663 23.0568 35.0661 23.0571 35.0659C23.0573 35.0658 23.0576 35.0656 23.0579 35.0655C23.0585 35.0651 23.0593 35.0646 23.0602 35.064C23.0621 35.0628 23.0647 35.0612 23.0679 35.0592C23.0743 35.0552 23.0834 35.0495 23.0951 35.0422C23.1184 35.0275 23.152 35.0062 23.1951 34.9785C23.2814 34.9232 23.406 34.8423 23.5634 34.7373C23.8783 34.5274 24.3251 34.221 24.86 33.8304C25.928 33.0506 27.3559 31.9291 28.7881 30.5651C30.2169 29.2044 31.6731 27.5804 32.7773 25.7926C33.8794 24.0084 34.6666 22.0025 34.6666 19.8978H32.6666ZM22.5302 34.216C22.9928 33.3294 22.993 33.3295 22.9931 33.3296C22.9931 33.3296 22.9932 33.3296 22.9931 33.3296C22.993 33.3295 22.9928 33.3294 22.9924 33.3292C22.9915 33.3287 22.9899 33.3279 22.9875 33.3267C22.9829 33.3242 22.9754 33.3202 22.9651 33.3148C22.9445 33.3038 22.9128 33.2868 22.8708 33.264C22.7867 33.2183 22.6612 33.1491 22.5002 33.0576C22.1782 32.8746 21.715 32.6028 21.1577 32.2515C20.0411 31.5475 18.5573 30.5309 17.0784 29.2771C14.0524 26.7116 11.3333 23.3932 11.3333 19.8978H9.33325C9.33325 24.3569 12.7126 28.1977 15.7851 30.8026C17.3554 32.134 18.9208 33.2055 20.0911 33.9433C20.6773 34.3129 21.167 34.6003 21.512 34.7964C21.6846 34.8945 21.8212 34.9698 21.9157 35.0212C21.963 35.0469 21.9998 35.0666 22.0254 35.0802C22.0382 35.0871 22.0481 35.0923 22.0552 35.0961C22.0588 35.0979 22.0616 35.0994 22.0636 35.1005C22.0647 35.101 22.0655 35.1015 22.0662 35.1018C22.0665 35.102 22.0669 35.1022 22.0671 35.1023C22.0674 35.1024 22.0677 35.1026 22.5302 34.216ZM10.413 20.8946C10.4207 20.894 10.4285 20.8933 10.4363 20.8927L10.2774 18.899C10.2694 18.8997 10.2615 18.9003 10.2535 18.9009L10.413 20.8946ZM9.33325 19.3675C9.33325 19.5755 9.34257 19.7816 9.36086 19.9853L11.3529 19.8065C11.3399 19.6621 11.3333 19.5157 11.3333 19.3675H9.33325ZM16.1666 12.5342C12.3926 12.5342 9.33325 15.5936 9.33325 19.3675H11.3333C11.3333 16.6981 13.4972 14.5342 16.1666 14.5342V12.5342ZM22.9999 19.3675C22.9999 15.5936 19.9405 12.5342 16.1666 12.5342V14.5342C18.836 14.5342 20.9999 16.6981 20.9999 19.3675H22.9999ZM22.9995 19.4436C22.9998 19.4183 22.9999 19.3929 22.9999 19.3675H20.9999C20.9999 19.3856 20.9998 19.4037 20.9996 19.4217L22.9995 19.4436Z" fill="#009891"/>
</svg>
