<svg width="24" height="24" viewBox="0 0 24 24" fill="none" xmlns="http://www.w3.org/2000/svg">
<path d="M15.3152 12.6126C15.3152 14.5417 14.6082 16.0172 13.5147 17.0175C12.4102 18.0278 10.8474 18.61 9.05777 18.61C7.26811 18.61 5.70519 18.0278 4.60058 17.0174C3.50696 16.0172 2.7998 14.5417 2.7998 12.6126C2.7998 11.3464 3.5943 9.62801 4.80249 7.81661C5.97744 6.05505 7.41671 4.38832 8.44936 3.27017C8.78586 2.90581 9.32962 2.90582 9.6661 3.2702C10.6987 4.38836 12.1378 6.05507 13.3127 7.81662C14.5208 9.628 15.3152 11.3464 15.3152 12.6126Z" fill="#EFFFFE" stroke="#009891" stroke-width="2" stroke-linejoin="round"/>
<path d="M18.3809 14.4556C18.3809 17.7755 15.6806 20.4669 12.3496 20.4669C11.4775 20.4669 11.2487 19.2322 10.5002 18.9002C9.90628 18.6369 8.76297 19.3308 8.28882 18.9002C7.07815 17.8008 6.31836 16.2166 6.31836 14.4556C6.31836 11.1357 9.01864 8.44434 12.3496 8.44434C13.0696 8.44434 13.7601 8.57007 14.4002 8.8007C14.9402 8.99526 14.5444 9.86887 15.0002 10.2002C16.5038 11.2934 18.3809 12.4586 18.3809 14.4556Z" fill="#C9EBE9"/>
<path d="M15.3152 12.6126C15.3152 14.5417 14.6082 16.0172 13.5147 17.0175C12.4102 18.0278 10.8474 18.61 9.05777 18.61C7.26811 18.61 5.70519 18.0278 4.60058 17.0174C3.50696 16.0172 2.7998 14.5417 2.7998 12.6126C2.7998 11.3464 3.5943 9.62801 4.80249 7.81661C5.97744 6.05505 7.41671 4.38832 8.44936 3.27017C8.78586 2.90581 9.32962 2.90582 9.6661 3.2702C10.6987 4.38835 12.1378 6.05507 13.3127 7.81662C14.5208 9.628 15.3152 11.3464 15.3152 12.6126Z" stroke="#009891" stroke-width="2" stroke-linejoin="round"/>
<path d="M11.1082 13.7479L11.1084 13.7476C11.3157 13.3872 11.5643 13.0525 11.8478 12.75L11.8485 12.7493C12.0383 12.5463 12.2443 12.358 12.4647 12.1857L12.465 12.1855C13.383 11.4673 14.539 11.0391 15.7982 11.0391C18.7847 11.0391 21.1999 13.4511 21.1999 16.4197C21.1999 19.3879 18.7847 21.8 15.7982 21.8C12.8116 21.8 10.3965 19.3879 10.3965 16.4197C10.3965 15.4452 10.6554 14.5343 11.1082 13.7479Z" fill="#C9EBE9" stroke="#009891" stroke-width="2"/>
<path d="M16 14L14.3203 16.4195H17.5212L16 19" stroke="#009891" stroke-width="1.5" stroke-linecap="round" stroke-linejoin="round"/>
</svg>
