<svg width="24" height="24" viewBox="0 0 24 24" fill="none" xmlns="http://www.w3.org/2000/svg">
<path d="M18.708 16.2124C18.708 17.8721 18.0178 19.1608 16.8998 20.0562C15.7614 20.9679 14.1317 21.5045 12.2542 21.5045C10.3766 21.5045 8.74674 20.9679 7.60826 20.0562C6.49004 19.1608 5.7998 17.872 5.7998 16.2124C5.7998 15.5064 6.14825 14.566 6.8185 13.4661C7.47268 12.3925 8.36004 11.2843 9.27061 10.2715C10.1776 9.2627 11.0878 8.37051 11.7728 7.72938C11.95 7.56345 12.1118 7.41471 12.2541 7.28552C12.3964 7.41471 12.5582 7.56344 12.7355 7.72935C13.4204 8.37048 14.3305 9.26267 15.2374 10.2715C16.1479 11.2843 17.0352 12.3925 17.6894 13.4661C18.3596 14.566 18.708 15.5064 18.708 16.2124Z" fill="#EFFFFE" stroke="#009891" stroke-width="2"/>
<path d="M18.9005 16.8C18.9005 19.8303 16.4569 21.9 13.5005 21.9C10.5441 21.9 10.8005 21.9722 10.8005 18.9419C10.8005 15.9116 13.1971 13.4551 16.1535 13.4551C19.1099 13.4551 18.9005 13.7698 18.9005 16.8Z" fill="#C9EBE9"/>
<path d="M18.708 16.2124C18.708 17.8721 18.0178 19.1608 16.8998 20.0562C15.7614 20.9679 14.1317 21.5045 12.2542 21.5045C10.3766 21.5045 8.74674 20.9679 7.60826 20.0562C6.49004 19.1608 5.7998 17.872 5.7998 16.2124C5.7998 15.5064 6.14825 14.566 6.8185 13.4661C7.47268 12.3925 8.36004 11.2843 9.27061 10.2715C10.1776 9.2627 11.0878 8.37051 11.7728 7.72938C11.95 7.56345 12.1118 7.41471 12.2541 7.28552C12.3964 7.41471 12.5582 7.56344 12.7355 7.72935C13.4204 8.37048 14.3305 9.26267 15.2374 10.2715C16.1479 11.2843 17.0352 12.3925 17.6894 13.4661C18.3596 14.566 18.708 15.5064 18.708 16.2124Z" stroke="#009891" stroke-width="2"/>
<path d="M9.10206 4.43842L10.1623 6.61198H14.391L15.4513 4.43842C15.7753 3.77414 15.2916 3 14.5525 3H10.0008C9.26173 3 8.77802 3.77414 9.10206 4.43842Z" fill="#EFFFFE" stroke="#009891" stroke-width="2" stroke-linecap="round"/>
<path d="M15.7917 6.33398H8.76159C8.00982 6.33398 7.40039 6.94341 7.40039 7.69518C7.40039 8.44695 8.00982 9.05638 8.76159 9.05638H15.7917C16.5435 9.05638 17.1529 8.44695 17.1529 7.69518C17.1529 6.94341 16.5435 6.33398 15.7917 6.33398Z" fill="#EFFFFE" stroke="#009891" stroke-width="2"/>
<path fill-rule="evenodd" clip-rule="evenodd" d="M11.601 12.8585C11.6007 12.8521 11.6005 12.8456 11.6005 12.8392L11.6004 12.5028C11.6004 12.2251 11.869 12 12.2004 12C12.5318 12 12.8004 12.2251 12.8004 12.5028L12.8005 12.8392C12.8005 12.8457 12.8004 12.8521 12.8001 12.8586C13.0122 12.9156 13.2162 13.0053 13.396 13.1316C13.7573 13.3853 14.0004 13.7756 14.0004 14.2706C14.0004 14.5324 13.7701 14.7447 13.4861 14.7447C13.2021 14.7447 12.9718 14.5324 12.9718 14.2706C12.9718 14.0883 12.8935 13.9706 12.7726 13.8858C12.6375 13.7909 12.4317 13.7288 12.2004 13.7288C11.9691 13.7288 11.7633 13.7909 11.6281 13.8858C11.5073 13.9706 11.429 14.0883 11.429 14.2706L11.4289 14.2741C11.4282 14.2936 11.4267 14.3329 11.5716 14.4092C11.7474 14.5018 12.0017 14.5718 12.3417 14.6613L12.3728 14.6695L12.3728 14.6695L12.3728 14.6695C12.6709 14.7479 13.0435 14.8459 13.3395 15.0018C13.6673 15.1745 14.0004 15.4738 14.0004 15.9637C14.0004 16.4645 13.7499 16.8472 13.3624 17.0768C13.1889 17.1796 12.9969 17.247 12.8004 17.2865V17.4975C12.8004 17.7752 12.5318 18.0003 12.2004 18.0003C11.869 18.0003 11.6004 17.7752 11.6004 17.4975V17.2273C11.3945 17.168 11.1975 17.0832 11.0242 16.9729C10.6951 16.7634 10.4004 16.423 10.4004 15.9637C10.4004 15.7019 10.6306 15.4896 10.9147 15.4896C11.1987 15.4896 11.429 15.7019 11.429 15.9637C11.429 16.0124 11.4557 16.0953 11.6087 16.1927C11.7626 16.2907 11.9923 16.3636 12.237 16.3797C12.4847 16.3961 12.6857 16.3506 12.8062 16.2792C12.9009 16.2231 12.9718 16.1402 12.9718 15.9637L12.9719 15.9602C12.9726 15.9407 12.9741 15.9014 12.8292 15.8251C12.6534 15.7325 12.399 15.6625 12.0591 15.573L12.028 15.5648C11.7299 15.4864 11.3573 15.3884 11.0613 15.2325C10.7335 15.0598 10.4004 14.7605 10.4004 14.2706C10.4004 13.7756 10.6435 13.3853 11.0048 13.1316C11.1847 13.0052 11.3888 12.9156 11.601 12.8585Z" fill="#009891"/>
</svg>
