<svg width="44" height="44" viewBox="0 0 44 44" fill="none" xmlns="http://www.w3.org/2000/svg">
<path d="M9.08284 5.23967C9.83435 4.92176 10.7304 5.28437 11.0697 6.08635C11.409 6.88833 11.0451 7.78393 10.2936 8.10185C9.54214 8.41976 8.64604 8.05715 8.30677 7.25517C7.9675 6.45319 8.33134 5.55759 9.08284 5.23967Z" stroke="#C9EBE9"/>
<path d="M37.9375 32.5C38.4773 32.5 38.9375 32.9532 38.9375 33.5404C38.9375 34.1276 38.4773 34.5808 37.9375 34.5808C37.3977 34.5808 36.9375 34.1276 36.9375 33.5404C36.9375 32.9532 37.3977 32.5 37.9375 32.5Z" stroke="#C9EBE9"/>
<circle cx="8" cy="36" r="2" transform="rotate(-90 8 36)" fill="#C9EBE9"/>
<ellipse cx="4.32117" cy="14.5169" rx="1.02694" ry="1" transform="rotate(-112.93 4.32117 14.5169)" fill="#C9EBE9"/>
<ellipse cx="37.4375" cy="12.1147" rx="1.02694" ry="1" transform="rotate(-90 37.4375 12.1147)" fill="#C9EBE9"/>
<circle cx="22" cy="22" r="14" fill="#EFFFFE" stroke="#009891" stroke-width="2"/>
<mask id="mask0_914_12487" style="mask-type:alpha" maskUnits="userSpaceOnUse" x="8" y="8" width="28" height="29">
<path d="M34.8947 22.4761C34.8947 29.8037 29.1064 35.6971 22.0232 35.6971C14.94 35.6971 9.15165 29.8037 9.15165 22.4761C9.15165 15.1485 14.94 9.25517 22.0232 9.25517C29.1064 9.25517 34.8947 15.1485 34.8947 22.4761Z" fill="#EFFFFE" stroke="#009891" stroke-width="2.21053"/>
</mask>
<g mask="url(#mask0_914_12487)">
<ellipse cx="28.6789" cy="30.6623" rx="8.65231" ry="8.86862" fill="#C9EBE9"/>
</g>
<circle cx="22" cy="22" r="14" stroke="#009891" stroke-width="2"/>
<path d="M23.9474 22.3921C23.9474 23.6509 22.9581 24.6289 21.7895 24.6289C20.6208 24.6289 19.6316 23.6509 19.6316 22.3921C19.6316 21.1333 20.6208 20.1553 21.7895 20.1553C22.9581 20.1553 23.9474 21.1333 23.9474 22.3921Z" stroke="#009891" stroke-width="2"/>
<path d="M18.5963 14.3L19.5771 14.1046C19.5015 13.7254 19.2141 13.4238 18.8391 13.33C18.464 13.2361 18.0685 13.3669 17.8233 13.6657L18.5963 14.3ZM19.2563 17.6116L19.6327 18.5381C20.0772 18.3575 20.3308 17.8867 20.2371 17.4162L19.2563 17.6116ZM16.8996 22.2072L17.8864 22.0453L16.8996 22.2072ZM21.5 25.0794H22.5C22.5 24.5272 22.0523 24.0794 21.5 24.0794V25.0794ZM21.5 27.4785L21.9696 28.3614C22.296 28.1878 22.5 27.8482 22.5 27.4785H21.5ZM17.371 29.675L16.6146 30.3292L17.1364 30.9325L17.8406 30.5579L17.371 29.675ZM17.6156 14.4955L18.2756 17.8071L20.2371 17.4162L19.5771 14.1046L17.6156 14.4955ZM18.88 16.6852C18.1612 16.9772 17.3328 17.7232 16.7397 18.654C16.1275 19.615 15.6742 20.9151 15.9128 22.3691L17.8864 22.0453C17.748 21.2016 18.0018 20.3953 18.4265 19.7287C18.8704 19.032 19.4088 18.6291 19.6327 18.5381L18.88 16.6852ZM15.9128 22.3691C16.2391 24.3574 17.8409 25.2679 19.064 25.6703C19.6937 25.8775 20.2959 25.9783 20.7344 26.0282C20.9557 26.0533 21.1403 26.0661 21.2724 26.0726C21.3386 26.0759 21.3919 26.0776 21.4304 26.0785C21.4497 26.0789 21.4653 26.0792 21.4769 26.0793C21.4828 26.0794 21.4876 26.0794 21.4915 26.0794C21.4934 26.0794 21.4951 26.0794 21.4965 26.0794C21.4972 26.0794 21.4979 26.0794 21.4984 26.0794C21.4987 26.0794 21.4991 26.0794 21.4993 26.0794C21.4996 26.0794 21.5 26.0794 21.5 25.0794C21.5 24.0794 21.5003 24.0794 21.5006 24.0794C21.5007 24.0794 21.501 24.0795 21.5012 24.0795C21.5015 24.0795 21.5018 24.0795 21.502 24.0795C21.5024 24.0795 21.5026 24.0795 21.5025 24.0795C21.5024 24.0795 21.5013 24.0794 21.4993 24.0794C21.4954 24.0794 21.4877 24.0793 21.4766 24.079C21.4544 24.0785 21.4185 24.0774 21.3709 24.0751C21.2753 24.0703 21.1337 24.0607 20.9605 24.041C20.6102 24.0011 20.1506 23.9224 19.6891 23.7705C18.7299 23.4549 18.0315 22.9293 17.8864 22.0453L15.9128 22.3691ZM20.5 25.0794V27.4785H22.5V25.0794H20.5ZM21.0304 26.5957L16.9013 28.7922L17.8406 30.5579L21.9696 28.3614L21.0304 26.5957ZM18.1274 29.0209L13.9359 24.1742L12.4231 25.4824L16.6146 30.3292L18.1274 29.0209ZM13.9025 21.5973L19.3694 14.9344L17.8233 13.6657L12.3563 20.3287L13.9025 21.5973ZM13.9359 24.1742C13.2991 23.4378 13.285 22.3499 13.9025 21.5973L12.3563 20.3287C11.1213 21.8339 11.1495 24.0097 12.4231 25.4824L13.9359 24.1742Z" fill="#009891"/>
<path d="M24.9828 14.3L24.002 14.1046C24.0776 13.7254 24.365 13.4238 24.74 13.33C25.1151 13.2361 25.5106 13.3669 25.7558 13.6657L24.9828 14.3ZM24.3228 17.6116L23.9464 18.5381C23.5019 18.3575 23.2483 17.8867 23.342 17.4162L24.3228 17.6116ZM26.6795 22.2072L25.6927 22.0453L26.6795 22.2072ZM22 25.0794H21C21 24.5272 21.4477 24.0794 22 24.0794V25.0794ZM22 27.4785L21.5373 28.3651C21.2071 28.1927 21 27.8511 21 27.4785H22ZM26.2081 29.675L26.9645 30.3292L26.4469 30.9277L25.7454 30.5615L26.2081 29.675ZM25.9635 14.4955L25.3035 17.8071L23.342 17.4162L24.002 14.1046L25.9635 14.4955ZM24.6991 16.6852C25.4179 16.9772 26.2463 17.7232 26.8394 18.654C27.4516 19.615 27.9049 20.9151 27.6663 22.3691L25.6927 22.0453C25.8311 21.2016 25.5773 20.3953 25.1526 19.7287C24.7087 19.032 24.1703 18.6291 23.9464 18.5381L24.6991 16.6852ZM27.6663 22.3691C27.3386 24.366 25.7055 25.2728 24.4705 25.672C23.832 25.8783 23.221 25.9787 22.7759 26.0284C22.5513 26.0535 22.364 26.0662 22.23 26.0727C22.163 26.0759 22.109 26.0776 22.07 26.0785C22.0506 26.0789 22.0348 26.0792 22.0231 26.0793C22.0172 26.0794 22.0123 26.0794 22.0085 26.0794C22.0065 26.0794 22.0049 26.0794 22.0035 26.0794C22.0027 26.0794 22.0021 26.0794 22.0015 26.0794C22.0012 26.0794 22.0009 26.0794 22.0007 26.0794C22.0003 26.0794 22 26.0794 22 25.0794C22 24.0794 21.9997 24.0794 21.9994 24.0794C21.9993 24.0794 21.999 24.0795 21.9989 24.0795C21.9985 24.0795 21.9983 24.0795 21.9981 24.0795C21.9977 24.0795 21.9975 24.0795 21.9976 24.0795C21.9978 24.0795 21.999 24.0794 22.0011 24.0794C22.0053 24.0794 22.0133 24.0793 22.0247 24.079C22.0477 24.0785 22.0845 24.0774 22.1334 24.075C22.2315 24.0703 22.3766 24.0606 22.5539 24.0407C22.9125 24.0007 23.383 23.9216 23.8555 23.7689C24.8424 23.4499 25.549 22.9206 25.6927 22.0453L27.6663 22.3691ZM23 25.0794V27.4785H21V25.0794H23ZM22.4627 26.592L26.6708 28.7885L25.7454 30.5615L21.5373 28.3651L22.4627 26.592ZM25.4517 29.0209L30.1943 23.537L31.707 24.8453L26.9645 30.3292L25.4517 29.0209ZM30.211 22.2486L24.2097 14.9344L25.7558 13.6657L31.7571 20.9799L30.211 22.2486ZM30.1943 23.537C30.5127 23.1688 30.5197 22.6249 30.211 22.2486L31.7571 20.9799C32.6834 22.1089 32.6622 23.7407 31.707 24.8453L30.1943 23.537Z" fill="#009891"/>
</svg>
