<svg width="209" height="185" viewBox="0 0 209 185" fill="none" xmlns="http://www.w3.org/2000/svg">
<path d="M122.785 87.3773C121.232 81.1247 108.896 49.5108 74.4296 41.4954C46.1948 34.9972 61.677 55.9392 70.2203 60.5931C70.2203 60.5931 63.8704 57.1784 60.8255 60.9657C57.774 64.6475 61.0643 76.718 76.2355 80.7481C76.2355 80.7481 63.0338 77.7596 62.7275 88.149C62.4212 98.5384 76.6224 107.391 95.9315 109.894C115.241 112.397 124.443 93.6234 122.785 87.3773Z" fill="#7B7B7B"/>
<path d="M32.9951 123.109L23.7768 127.772" stroke="#D67B29" stroke-width="1.7782" stroke-miterlimit="10" stroke-linecap="round"/>
<path d="M23.6636 122.37L31.7398 123.03C32.5904 123.134 33.3844 123.335 34.1219 123.634L37.21 125.038" stroke="#EC8822" stroke-width="1.7782" stroke-miterlimit="10" stroke-linecap="round"/>
<path d="M30.2852 124.958C29.0542 119.687 30.1713 112.131 42.1565 110.769L49.051 136.317C45.0857 138.52 32.4806 134.358 30.2852 124.958Z" fill="#B2B2B2"/>
<path d="M155.271 52.6202C155.271 52.6202 155.501 46.4347 153.079 41.3419C151.774 38.4523 150.881 36.2616 152.566 36.355C155.818 36.6479 157.585 41.3663 155.271 52.6202Z" fill="#989899"/>
<path d="M27.5624 109.978C32.1092 96.3379 31.3387 84.2703 43.8784 81.2846C79.3223 72.8456 91.6997 28.9621 144.58 43.5474C201.408 67.7821 178.798 120.81 159.208 136.94C151.331 153.819 102.95 174.075 61.8797 147.069C58.9289 145.129 62.9788 147.558 60.193 146.153C30.9378 129.106 30.1554 117.237 27.5624 109.978Z" fill="#D7D7D7"/>
<path d="M176.552 112.339C170.895 130.634 158.555 137.3 158.555 137.3C158.555 137.3 153.955 134.8 146.985 134.554C135.534 134.123 105.297 122.116 110.728 91.5351C114.722 68.5708 141.159 53.3603 160.662 61.9658C178.577 69.9974 185.466 83.3759 176.552 112.339Z" fill="white"/>
<path d="M166.801 102.524C168.671 96.8589 167.891 91.5082 165.058 90.5731C162.225 89.638 158.413 93.4726 156.543 99.138C154.672 104.803 155.453 110.154 158.285 111.089C161.118 112.024 164.93 108.19 166.801 102.524Z" fill="#231F20"/>
<path d="M166.41 100.09C167.092 98.0249 166.64 96.0189 165.4 95.6098C164.161 95.2008 162.604 96.5436 161.922 98.6092C161.24 100.675 161.692 102.681 162.931 103.09C164.171 103.499 165.728 102.156 166.41 100.09Z" fill="white"/>
<path d="M150.722 49.3252C150.722 49.3252 145.297 43.5025 139.174 42.149C133.612 40.8265 136.658 36.7129 141.701 39.2463C146.189 41.6362 150.722 49.3252 150.722 49.3252Z" fill="#989899"/>
<path d="M153.699 50.5042C153.699 50.5042 151.395 43.2768 145.315 39.1082C140.209 35.6698 139.26 32.4618 140.988 31.7687C144.446 30.3826 150.825 33.2154 153.699 50.5042Z" fill="#989899"/>
<path d="M181.282 122.173C181.282 122.173 176.106 121.383 172.392 122.844C169.354 123.967 168.683 116.653 171.047 114.629C173.411 112.605 181.282 122.173 181.282 122.173Z" fill="#EC6C22"/>
<path d="M175.891 106.755C175.891 106.755 181.515 110.246 182.184 120.149C182.184 120.149 176.335 116.207 171.385 115.979C167.446 115.752 172.74 106.303 175.891 106.755Z" fill="#EC8822"/>
<path d="M41.3378 141.635L33.8998 146.859" stroke="#D67B29" stroke-width="1.7782" stroke-miterlimit="10" stroke-linecap="round"/>
<path d="M32.2008 140.347L40.1715 141.494C40.9834 141.603 41.7503 141.815 42.4271 142.234L45.3855 143.894" stroke="#EC8822" stroke-width="1.7782" stroke-miterlimit="10" stroke-linecap="round"/>
<path d="M74.845 153.23C74.845 153.23 46.0434 158.076 40.9172 145.49C34.1012 128.754 54.7823 124.816 54.7823 124.816L74.845 153.23Z" fill="#D7D7D7"/>
<path d="M57.7182 84.456C57.7182 84.456 42.7604 69.9013 30.6308 79.5042C16.8921 90.3809 29.0052 112.891 39.7778 107.092C42.0978 105.843 67.3632 92.9648 67.3632 92.9648L57.7182 84.456Z" fill="url(#paint0_linear_2734_27086)"/>
<path d="M37.0732 86.5064C21.1626 94.4322 28.7168 113.963 28.7168 113.963C28.7168 113.963 38.4579 115.702 52.2538 107.771C63.8157 101.124 67.5139 94.2658 67.5139 94.2658C67.5139 94.2658 52.9818 78.5815 37.0732 86.5064Z" fill="url(#paint1_linear_2734_27086)"/>
<path d="M105.27 146.962C103.446 144.865 102.922 141.993 103.581 139.488C100.821 141.931 100.482 146.067 102.891 148.934C105.301 151.801 109.544 152.174 112.486 149.905C109.822 150.14 107.094 149.058 105.27 146.962Z" fill="#989899"/>
<path d="M112.06 131.712C110.221 128.904 110.046 125.669 111.16 122.833C107.581 125.258 106.579 130.013 109.003 133.592C111.321 137.137 116.15 138.281 119.877 136.137C116.849 136.024 113.932 134.413 112.06 131.712Z" fill="#989899"/>
<path d="M128.804 147.622C126.127 145.614 124.851 142.509 124.965 139.482C122.476 142.951 123.219 147.776 126.655 150.372C130.091 152.969 134.957 152.474 137.735 149.212C134.73 150.166 131.339 149.704 128.804 147.622Z" fill="#989899"/>
<path d="M117.49 154.292C117.49 154.292 114.348 157.206 114.327 159.555C114.327 159.555 118.615 159.555 121.515 158.884C121.515 158.884 117.076 158.287 117.49 154.292Z" fill="#989899"/>
<path d="M108.403 100.011C106.549 94.3631 93.0493 66.114 60.7918 61.0821C34.3714 57.0225 50.0401 75.2386 58.2172 78.9399C58.2172 78.9399 52.1425 76.2298 49.5984 79.9214C47.041 83.5164 50.8889 94.3988 65.1219 97.0756C65.1219 97.0756 52.7719 95.2232 53.1963 104.803C53.6207 114.383 67.289 121.563 85.2253 122.553C103.162 123.544 110.353 105.645 108.403 100.011Z" fill="#989899"/>
<path fill-rule="evenodd" clip-rule="evenodd" d="M27.6599 65.4192C27.518 65.4273 27.3754 65.4308 27.2323 65.4296C27.2097 65.5159 27.1852 65.6022 27.1588 65.6883C27.1275 65.7907 27.0939 65.8917 27.0581 65.9914L27.6599 65.4192ZM30.2878 64.6972C31.7929 63.918 32.9953 62.5573 33.5304 60.8087C34.5859 57.3599 32.6458 53.7084 29.1969 52.6529C27.2144 52.0461 25.1649 52.4293 23.5801 53.5199C22.7739 52.2684 21.5378 51.2845 20.0029 50.8148C16.5541 49.7593 12.9026 51.6994 11.8471 55.1483C10.9776 57.9891 12.1408 60.9674 14.5054 62.5192C13.8643 65.7644 15.7713 69.0328 19.003 70.0218C21.3472 70.7393 23.7851 70.0727 25.4377 68.489L31.6438 70.3207L30.2878 64.6972Z" fill="white"/>
<path d="M39.7562 35.8498C42.0337 31.8589 40.8322 25.1592 40.8322 25.1592C43.6485 27.0607 46.3954 30.0395 47.5964 33.2855C47.595 34.2623 46.9909 35.2863 46.9909 35.2863L48.107 34.5643C48.3005 36.2626 48.0645 39.0597 47.0726 40.6888C45.8077 42.7662 44.5275 45.0431 42.3952 44.801C39.7204 44.4974 37.4786 39.8406 39.7562 35.8498Z" fill="#989899"/>
<path d="M42.3274 28.2681C43.4336 31.2547 42.7299 33.3409 42.3486 35.8634C41.1995 43.4647 43.3613 44.9914 43.9695 46.7719" stroke="#B4B4B4" stroke-width="0.592734" stroke-linecap="round"/>
<path d="M10.8196 90.9997C6.47228 90.7405 1.2843 94.575 1.2843 94.575C1.71729 91.3836 3.09466 87.7986 5.34831 85.415C6.17886 85.006 7.30262 85.0893 7.30262 85.0893L6.2205 84.4441C7.58222 83.5665 10.0579 82.5924 11.8587 82.7511C14.155 82.9534 16.6272 83.0849 17.317 84.9983C18.1823 87.3985 15.167 91.2589 10.8196 90.9997Z" fill="#989899"/>
<path d="M3.29874 91.9989C5.37173 89.8047 7.43987 89.5265 9.74324 88.7912C16.6844 86.5753 17.0737 84.0975 18.3312 82.8329" stroke="#B4B4B4" stroke-width="0.592734" stroke-linecap="round"/>
<defs>
<linearGradient id="paint0_linear_2734_27086" x1="38.3755" y1="79.0433" x2="44.4403" y2="88.0358" gradientUnits="userSpaceOnUse">
<stop stop-color="#F2E7E7"/>
<stop offset="1" stop-color="#BCB6B6"/>
</linearGradient>
<linearGradient id="paint1_linear_2734_27086" x1="38.742" y1="86.8994" x2="47.526" y2="105.718" gradientUnits="userSpaceOnUse">
<stop stop-color="#FFE3E3"/>
<stop offset="1" stop-color="#D7D7D7"/>
</linearGradient>
</defs>
</svg>
