<svg width="173" height="175" viewBox="0 0 173 175" fill="none" xmlns="http://www.w3.org/2000/svg">
<ellipse rx="54.4011" ry="10.1182" transform="matrix(-0.999913 -0.0131704 -0.0131704 0.999913 86.2457 163.65)" fill="#262626" fill-opacity="0.05"/>
<path d="M116.206 13.4024C64.7191 -0.800305 29.8884 36.4333 27.3583 67.6536" stroke="#7A7A7A" stroke-width="2" stroke-linecap="round"/>
<path d="M99.9443 150.984L105.333 156.716" stroke="#D67B29" stroke-width="4.325" stroke-miterlimit="10" stroke-linecap="round"/>
<path d="M101.41 157.961L100.156 151.919C100.049 151.275 100.025 150.652 100.085 150.049L100.447 147.491" stroke="#EC8822" stroke-width="4.325" stroke-miterlimit="10" stroke-linecap="round"/>
<path d="M109.08 144.666C109.08 144.666 107.267 148.104 104.075 149.968C100.489 152 92.5079 151.809 88.9359 143.346L97.2387 141.146L109.08 144.666Z" fill="#B2B2B2"/>
<path d="M81.0877 152.724L86.5765 158.443" stroke="#D67B29" stroke-width="4.325" stroke-miterlimit="10" stroke-linecap="round"/>
<path d="M81.6631 160.073C81.1951 157.336 80.4198 153.49 80.4198 153.49L80.7249 148.328" stroke="#EC8822" stroke-width="4.325" stroke-miterlimit="10" stroke-linecap="round"/>
<path d="M95.4235 146.396C95.4235 146.396 88.4772 151.632 81.2072 151C73.2477 150.411 66.2957 143.614 67.2695 135.843L95.4235 146.396Z" fill="#D7D7D7"/>
<path d="M111.836 49.4236C111.836 49.4236 111.873 44.7102 109.916 40.8875C108.858 38.717 108.13 37.0693 109.415 37.1029C111.897 37.2535 113.347 40.8057 111.836 49.4236Z" fill="#989899"/>
<path d="M21.7686 83.6979C21.7686 83.6979 35.6253 95.6713 42.2831 86.901C52.4919 73.4531 61.0627 40.6764 95.6314 42.9999C145.28 48.8402 142.418 89.4806 132.133 105.841C133.11 111.095 131.757 120.231 130.266 124.821C124.487 142.585 104.395 150.46 79.2858 146.975C74.2476 146.243 68.9503 145.591 64.6988 144.28C22.0164 130.993 21.7686 83.6979 21.7686 83.6979Z" fill="#D7D7D7"/>
<path d="M139.102 85.1938C139.407 99.7735 132.089 107.554 132.089 107.554C132.089 107.554 128.165 106.851 123.068 108.347C114.69 110.785 89.9552 109.367 86.5381 85.9632C83.911 68.4085 99.3644 51.069 115.525 52.6056C130.4 54.1086 138.591 62.1228 139.102 85.1938Z" fill="white"/>
<path d="M121.562 60.3072C123.249 60.7805 130.806 62.688 132.963 60.9841C136.288 64.9282 138.621 74.0751 138.522 77.844C137.677 77.3933 132.448 80.6854 131.152 81.0801C129.856 81.4748 129.055 79.311 127.342 79.2662C125.629 79.2214 123.86 81.3181 121.73 80.8339C121.763 79.549 130.903 74.2163 131.353 73.3709C131.804 72.5255 130.091 72.4807 130.136 70.7676C130.212 67.8518 123.496 61.1101 121.562 60.3072C121.195 60.2043 121.106 60.1692 121.41 60.2537C121.457 60.2666 121.508 60.2846 121.562 60.3072Z" fill="#E1E2EC"/>
<path d="M108.298 47.0167C108.298 47.0167 104.039 42.7053 99.3481 41.8113C95.0854 40.9285 97.3119 37.7294 101.207 39.5455C104.677 41.2648 108.298 47.0167 108.298 47.0167Z" fill="#989899"/>
<path d="M110.591 47.8481C110.591 47.8481 108.677 42.398 103.956 39.3603C99.9925 36.8567 99.1986 34.4359 100.499 33.8698C103.1 32.7378 108.019 34.752 110.591 47.8481Z" fill="#989899"/>
<path d="M106.713 133.977C104.943 132.817 103.966 130.82 103.932 128.847C102.413 131.208 103.018 134.309 105.376 135.914C107.734 137.518 110.922 136.916 112.61 134.646C110.705 135.367 108.482 135.138 106.713 133.977Z" fill="#989899"/>
<path d="M105.373 119.628C103.446 117.949 102.65 115.613 102.881 113.305C100.758 115.821 101.005 119.513 103.521 121.636C105.951 123.757 109.727 123.599 112.017 121.258C109.774 121.8 107.303 121.221 105.373 119.628Z" fill="#989899"/>
<path d="M120.931 127.834C118.555 126.915 116.979 124.902 116.438 122.659C115.329 125.716 116.869 129.099 119.924 130.294C122.979 131.488 126.443 130.121 127.806 127.157C125.8 128.476 123.219 128.837 120.931 127.834Z" fill="#989899"/>
<path d="M117.008 136.903C117.008 136.903 115.306 139.688 115.776 141.414C115.776 141.414 117.487 141.544 118.731 139.863C118.731 139.863 117.529 139.917 117.008 136.903Z" fill="#989899"/>
<path d="M127.519 147.139C181.977 80.4178 149.615 22.1755 116.611 14.27" stroke="#62A9A3" stroke-width="5.76667" stroke-linecap="round"/>
<path d="M137.961 73.1148L137.812 72.2538C134.792 73.032 131.715 75.9517 131.265 76.7971C133.717 74.804 136.665 73.5096 137.961 73.1148Z" fill="black"/>
<path d="M138.407 75.6981L138.276 74.8375C136.134 74.7816 130.374 78.0597 129.011 81.0242C131.662 77.9562 136.251 76.2132 138.407 75.6981Z" fill="black"/>
<path d="M135.468 90.8342C134.198 88.6852 134.009 81.8328 135.184 80.5147C135.716 80.0377 137.18 80.0165 139.409 81.884C140.424 85.5793 140.239 91.273 139.812 91.3107C138.532 91.4238 136.248 92.1537 135.468 90.8342Z" fill="#E04444"/>
<path d="M138.373 77.4313C138.373 77.4313 143.504 77.0466 146.891 83.8036C140.263 81.8085 134.485 83.5339 134.485 83.5339C134.485 83.5339 134.344 78.3947 138.373 77.4313Z" fill="#EC8822"/>
<path d="M143.151 90.1555C143.151 90.1555 137.772 91.3735 135.089 89.9464C135.165 90.7999 136.409 92.0798 136.873 92.4689C142.128 93.0931 143.151 90.1555 143.151 90.1555Z" fill="#EC6C22"/>
<ellipse cx="121.582" cy="70.1155" rx="1.55872" ry="1.81851" transform="rotate(-19.2043 121.582 70.1155)" fill="black"/>
<path d="M131.778 73.5533L131.365 72.9425C120.039 79.9324 119.093 83.3364 119.093 83.3364C119.093 83.3364 121.984 79.7766 131.778 73.5533Z" fill="black"/>
<path d="M119.195 79.4818C118.167 79.455 116.234 77.9759 115.396 77.2397C115.396 77.2397 116.942 77.6749 118.811 77.7575C123.312 77.9563 130.926 73.3596 130.926 73.3596C130.014 75.4787 120.222 79.5087 119.195 79.4818Z" fill="black"/>
<path d="M123.902 63.3189C124.923 63.4479 127.273 65.5498 129.742 69.4716C129.019 67.0968 127.103 63.2312 123.508 62.0228C116.193 63.1174 111.303 69.8469 111.303 69.8469C111.303 69.8469 119.631 62.7787 123.902 63.3189Z" fill="black"/>
<path d="M129.741 69.4714C129.106 66.4548 126.111 60.805 118.446 58.8904C120.543 60.6595 127.328 63.4083 129.741 69.4714Z" fill="black"/>
<path d="M100.223 67.4144C97.0798 72.9038 96.1001 77.5926 99.5264 77.6821C102.953 77.7716 101.137 70.724 100.223 67.4144Z" fill="#B3E9FA"/>
<path d="M82.0846 51.7963C76.881 60.9463 75.2583 68.7612 80.9282 68.9094C86.5981 69.0575 83.5953 57.3121 82.0846 51.7963Z" fill="#B3E9FA"/>
<path d="M65.9381 69.5081C62.7946 74.9975 61.815 79.6863 65.2413 79.7759C68.6676 79.8654 66.8517 72.8178 65.9381 69.5081Z" fill="#B3E9FA"/>
<path d="M107.161 82.596C104.571 86.707 103.77 90.2219 106.605 90.296C109.44 90.37 107.923 85.0803 107.161 82.596Z" fill="#B3E9FA"/>
<path d="M81.324 97.8083C99.7938 87.1316 118.048 109.23 157.406 94.914C159.467 98.0532 156.634 108.032 154.027 109.397C151.103 111.536 146.26 111.403 141.979 111.226C141.979 111.226 148.817 111.126 151.956 112.343C152.763 114.244 151.632 119.964 148.146 121.244C143.218 123.054 138.927 122.386 131.294 119.433C131.294 119.433 149.951 121.291 145.375 128.886C137.419 138.107 99.3825 129.573 85.5679 124.422C71.7535 119.272 74.1304 101.967 81.324 97.8083Z" fill="#989899"/>
<path fill-rule="evenodd" clip-rule="evenodd" d="M25.7931 70.7952C25.8107 70.1217 26.371 69.59 27.0445 69.6076C27.718 69.6252 28.2497 70.1855 28.2321 70.859C28.2145 71.5325 27.6543 72.0642 26.9808 72.0466C26.3073 72.029 25.7755 71.4688 25.7931 70.7952ZM32.7629 70.9774C32.6799 74.1531 30.0382 76.6603 26.8624 76.5774C26.7297 76.5739 26.5982 76.566 26.468 76.5537C26.0106 78.3682 25.5461 80.1051 25.1078 81.744L25.1077 81.7442C24.8918 82.5516 24.6822 83.3352 24.483 84.0925C23.7505 86.8772 23.1603 89.2993 22.8747 91.3272C22.5854 93.3811 22.6339 94.8782 23.0421 95.891C23.4076 96.7979 24.1 97.4143 25.4887 97.6499C25.4887 97.6499 25.3409 98.1047 25.3281 98.595C25.3133 99.1605 25.168 99.5403 25.168 99.5403C23.2149 99.209 21.9114 98.2148 21.2637 96.6078C21.0022 95.9589 20.8571 95.2318 20.8007 94.4435C19.1828 96.2616 17.0542 97.179 15.0825 97.0639C13.3527 96.963 11.7815 96.0452 10.9863 94.2933C10.2104 92.5841 10.2447 90.244 11.2849 87.3754L13.0335 81.9702L15.0364 88.7358L13.0874 88.0291C12.1413 90.6383 12.2408 92.4182 12.7322 93.5007C13.2042 94.5406 14.1024 95.0861 15.1942 95.1498C17.4297 95.2802 20.6057 93.2999 21.3748 88.7657L21.3811 88.7668C21.7077 87.1818 22.1431 85.4505 22.6287 83.6047C22.8317 82.833 23.0436 82.0406 23.2609 81.2279C23.7001 79.586 24.1613 77.8614 24.6156 76.0577C22.5856 75.1263 21.2003 73.0508 21.2624 70.6769C21.3454 67.5011 23.9871 64.9939 27.1629 65.0769C30.3387 65.1598 32.8459 67.8016 32.7629 70.9774ZM28.3305 96.3992L30.3725 91.6574L27.4448 90.9781L34.2786 86.3615L30.0916 97.1576C30.0916 97.1576 30.1696 96.8034 29.3414 96.4256C28.5131 96.0478 28.3305 96.3992 28.3305 96.3992Z" fill="#DF8C68"/>
<path d="M28.2712 65.494C24.8679 61.9192 3.50586 61.9591 3.33409 68.533C3.19355 73.9116 24.5574 71.3774 28.2712 65.494Z" fill="#DEDEDE"/>
<path d="M28.2712 65.494C24.8679 61.9192 3.50586 61.9591 3.33409 68.533C3.19355 73.9116 11.9962 65.0688 28.2712 65.494Z" fill="#617697"/>
<circle cx="7.21711" cy="67.5557" r="1.2853" transform="rotate(1.49672 7.21711 67.5557)" fill="white"/>
<circle r="0.428434" transform="matrix(0.999659 0.0261197 0.0261197 -0.999659 7.21682 67.5558)" fill="#617697"/>
<path fill-rule="evenodd" clip-rule="evenodd" d="M13.7312 64.2974C13.7251 64.534 13.3365 64.7157 12.8635 64.7033C12.3904 64.691 12.0119 64.4892 12.0181 64.2527C12.0243 64.0161 12.4128 63.8344 12.8859 63.8468C13.3589 63.8591 13.7374 64.0609 13.7312 64.2974ZM20.5834 64.4765C20.5772 64.713 20.1887 64.8948 19.7156 64.8824C19.2425 64.87 18.864 64.6683 18.8702 64.4317C18.8764 64.1952 19.2649 64.0135 19.738 64.0258C20.2111 64.0382 20.5896 64.24 20.5834 64.4765ZM16.267 65.6494C16.7401 65.6618 17.1286 65.4801 17.1348 65.2435C17.141 65.007 16.7625 64.8052 16.2894 64.7929C15.8163 64.7805 15.4278 64.9622 15.4216 65.1988C15.4154 65.4353 15.7939 65.6371 16.267 65.6494ZM12.8077 66.8448C12.8015 67.0813 12.413 67.2631 11.9399 67.2507C11.4668 67.2384 11.0883 67.0366 11.0945 66.8C11.1007 66.5635 11.4892 66.3818 11.9623 66.3941C12.4354 66.4065 12.8138 66.6083 12.8077 66.8448ZM23.1424 64.972C23.6155 64.9843 24.004 64.8026 24.0102 64.5661C24.0163 64.3295 23.6378 64.1278 23.1648 64.1154C22.6917 64.103 22.3032 64.2848 22.297 64.5213C22.2908 64.7578 22.6693 64.9596 23.1424 64.972Z" fill="#EC8822"/>
<path d="M40.6338 135.802C48.2277 138.79 52.9244 145.888 57.8032 146.015" stroke="#B4B4B4" stroke-linecap="round"/>
<path d="M84.3346 39.3011C78.0072 41.2281 69.6838 42.1875 65.2331 48.4999" stroke="#B4B4B4" stroke-linecap="round"/>
<path d="M61.6555 51.9601C59.5099 53.9964 57.9464 54.8256 57.3279 57.4266" stroke="#B4B4B4" stroke-linecap="round"/>
<path d="M31.1309 125.79C32.4823 127.452 35.9368 128.705 36.561 131.511" stroke="#B4B4B4" stroke-linecap="round"/>
</svg>
