<svg width="139" height="152" viewBox="0 0 139 152" fill="none" xmlns="http://www.w3.org/2000/svg">
<path d="M8.47142 77.0253C8.47142 77.0253 1.17142 80.5253 0.571425 95.5253C-0.128575 112.225 14.8714 125.225 30.8714 129.625L8.47142 77.0253Z" fill="#989899"/>
<path d="M130.572 77.0253C130.572 77.0253 137.872 80.5253 138.472 95.5253C139.172 112.225 124.172 125.225 108.172 129.625L130.572 77.0253Z" fill="#989899"/>
<path d="M57.1717 151.425C56.5717 151.425 55.9717 151.125 55.5717 150.625L52.1717 146.125L48.3717 150.625C47.6717 151.425 46.3717 151.625 45.5717 150.925C44.7717 150.225 44.5717 148.925 45.2717 148.125L50.6717 141.725C51.0717 141.225 51.5717 141.025 52.2717 141.025C52.8717 141.025 53.4717 141.325 53.7717 141.825L58.6717 148.225C59.3717 149.125 59.1717 150.325 58.2717 151.025C57.9717 151.325 57.5717 151.425 57.1717 151.425Z" fill="#EC8822"/>
<path d="M92.8719 151.425C92.2719 151.425 91.6719 151.125 91.2719 150.625L87.8719 146.125L84.0719 150.625C83.3719 151.425 82.0719 151.625 81.2719 150.925C80.4719 150.225 80.2719 148.925 80.9719 148.125L86.3719 141.725C86.7719 141.225 87.2719 141.025 87.9719 141.025C88.5719 141.025 89.1719 141.325 89.4719 141.825L94.3719 148.225C95.0719 149.125 94.8719 150.325 93.9719 151.025C93.7719 151.325 93.3719 151.425 92.8719 151.425Z" fill="#EC8822"/>
<path d="M69.2719 9.92535C35.5719 9.92535 8.17188 36.9254 8.17188 70.1254C8.17188 105.025 23.5719 130.325 45.5719 140.725C50.2719 142.925 55.6719 142.525 60.1719 140.125C62.8719 138.625 65.9719 137.825 69.2719 137.825C72.5719 137.825 75.6719 138.625 78.3719 140.125C82.8719 142.625 88.2719 142.925 92.9719 140.725C114.972 130.325 130.372 105.025 130.372 70.1254C130.372 36.8254 103.072 9.92535 69.2719 9.92535Z" fill="#E7E4E2"/>
<path d="M96.0715 24.4253C90.0715 24.0253 84.3715 25.3253 79.3715 27.8253C72.9715 31.0253 65.4715 31.0253 59.0715 27.8253C54.1715 25.3253 48.4715 24.0253 42.3715 24.4253C26.6715 25.5253 13.8715 38.2253 12.7715 53.9253C11.4715 72.5253 26.1715 88.0253 44.5715 88.0253C49.8715 88.0253 54.8715 86.7253 59.1715 84.4253C65.3715 81.2253 72.7715 81.2253 78.9715 84.4253C83.3715 86.7253 88.3715 88.0253 93.5715 88.0253C111.971 88.0253 126.671 72.5253 125.371 53.9253C124.571 38.2253 111.771 25.4253 96.0715 24.4253Z" fill="white"/>
<path d="M41.7717 64.0254C46.9079 64.0254 51.0717 59.8616 51.0717 54.7253C51.0717 49.5891 46.9079 45.4254 41.7717 45.4254C36.6354 45.4254 32.4717 49.5891 32.4717 54.7253C32.4717 59.8616 36.6354 64.0254 41.7717 64.0254Z" fill="#231F20"/>
<path d="M39.3713 55.7253C41.1938 55.7253 42.6713 54.2479 42.6713 52.4254C42.6713 50.6028 41.1938 49.1254 39.3713 49.1254C37.5487 49.1254 36.0713 50.6028 36.0713 52.4254C36.0713 54.2479 37.5487 55.7253 39.3713 55.7253Z" fill="white"/>
<path d="M96.6721 64.0254C101.808 64.0254 105.972 59.8616 105.972 54.7253C105.972 49.5891 101.808 45.4254 96.6721 45.4254C91.5358 45.4254 87.3721 49.5891 87.3721 54.7253C87.3721 59.8616 91.5358 64.0254 96.6721 64.0254Z" fill="#231F20"/>
<path d="M94.3723 55.7253C96.1948 55.7253 97.6723 54.2479 97.6723 52.4254C97.6723 50.6028 96.1948 49.1254 94.3723 49.1254C92.5497 49.1254 91.0723 50.6028 91.0723 52.4254C91.0723 54.2479 92.5497 55.7253 94.3723 55.7253Z" fill="white"/>
<path d="M64.2715 57.8254L69.5715 67.2254L74.1715 57.8254C74.1715 57.8254 69.3715 54.9254 64.2715 57.8254Z" fill="#EC8822"/>
<path d="M30.6714 102.825C27.8714 101.825 25.9714 99.5254 25.2714 96.9254C24.0714 100.625 25.9714 104.525 29.5714 105.825C33.1714 107.125 37.1714 105.325 38.5714 101.825C36.3714 103.325 33.4714 103.825 30.6714 102.825Z" fill="#989899"/>
<path d="M45.9712 121.725C43.1712 120.725 41.2712 118.425 40.5712 115.825C39.3712 119.525 41.2712 123.425 44.8712 124.725C48.4712 126.025 52.4712 124.225 53.8712 120.725C51.6712 122.325 48.6712 122.725 45.9712 121.725Z" fill="#989899"/>
<path d="M71.7715 125.625C68.8715 125.525 66.2715 123.925 64.7715 121.625C64.7715 125.425 67.7715 128.625 71.5715 128.825C75.3715 129.025 78.6715 126.025 78.9715 122.225C77.3715 124.425 74.6715 125.825 71.7715 125.625Z" fill="#989899"/>
<path d="M94.9713 121.025C97.7713 120.025 99.6713 117.725 100.371 115.125C101.571 118.825 99.6713 122.725 96.0713 124.025C92.4713 125.325 88.4713 123.525 87.0713 120.025C89.2713 121.525 92.2713 122.025 94.9713 121.025Z" fill="#989899"/>
<path d="M54.2717 107.825C51.3717 107.225 49.1717 105.325 47.9717 102.825C47.3717 106.625 49.8717 110.225 53.5717 110.925C57.3717 111.625 60.9717 109.325 61.8717 105.525C59.9717 107.425 57.0717 108.425 54.2717 107.825Z" fill="#989899"/>
<path d="M107.572 102.825C110.372 101.825 112.272 99.5254 112.972 96.9254C114.172 100.625 112.272 104.525 108.672 105.825C105.072 107.125 101.072 105.325 99.6719 101.825C101.872 103.325 104.872 103.825 107.572 102.825Z" fill="#989899"/>
<path d="M84.0717 107.825C86.9717 107.225 89.1717 105.325 90.3717 102.825C90.9717 106.625 88.4717 110.225 84.7717 110.925C80.9717 111.625 77.3717 109.325 76.4717 105.525C78.3717 107.425 81.1717 108.425 84.0717 107.825Z" fill="#989899"/>
<path d="M70.9717 17.4253C70.9717 17.4253 75.5717 12.0253 82.2717 10.2253C87.9717 8.72535 85.6717 4.72534 80.4717 7.62534C76.2717 10.1253 70.9717 17.4253 70.9717 17.4253Z" fill="#989899"/>
<path d="M67.5714 15.9253C67.5714 15.9253 66.5714 9.52534 62.2714 5.92534C59.1714 3.32534 61.0714 0.82534 62.5714 0.62534C65.4714 0.32534 67.8714 4.62534 67.5714 15.9253Z" fill="#989899"/>
<path d="M64.5713 15.1253C64.5713 15.1253 55.5712 4.52534 49.7712 7.22534C45.8712 9.12534 58.2713 11.0253 64.5713 15.1253Z" fill="#989899"/>
<path d="M38.1715 80.9253C51.6472 80.9253 62.5715 70.0011 62.5715 56.5253C62.5715 43.0496 51.6472 32.1253 38.1715 32.1253C24.6957 32.1253 13.7715 43.0496 13.7715 56.5253C13.7715 70.0011 24.6957 80.9253 38.1715 80.9253Z" stroke="#231F20" stroke-width="4.5" stroke-miterlimit="10"/>
<path d="M101.172 80.9253C114.647 80.9253 125.572 70.0011 125.572 56.5253C125.572 43.0496 114.647 32.1253 101.172 32.1253C87.6958 32.1253 76.7715 43.0496 76.7715 56.5253C76.7715 70.0011 87.6958 80.9253 101.172 80.9253Z" stroke="#231F20" stroke-width="4.5" stroke-miterlimit="10"/>
<path d="M62.5713 56.5254C62.5713 56.5254 65.0713 53.4254 69.3713 53.4254C74.6713 53.4254 76.8713 56.5254 76.8713 56.5254" stroke="#231F20" stroke-width="4.5" stroke-miterlimit="10"/>
</svg>
