<svg width="139" height="152" viewBox="0 0 139 152" fill="none" xmlns="http://www.w3.org/2000/svg">
<path d="M8.77123 76.2253C8.77123 76.2253 1.47123 79.7253 0.871228 94.7253C0.171228 111.525 15.1712 124.525 31.2712 128.925L8.77123 76.2253Z" fill="#989899"/>
<path d="M130.871 76.2253C130.871 76.2253 138.171 79.7253 138.771 94.7253C139.471 111.525 124.471 124.525 108.371 128.925L130.871 76.2253Z" fill="#989899"/>
<path d="M57.6717 151.925C57.0717 151.925 56.4717 151.625 56.0717 151.125L52.6717 146.625L48.8717 151.225C48.1717 152.025 46.8717 152.225 46.0717 151.525C45.2717 150.825 45.0717 149.525 45.7717 148.725L51.1717 142.225C51.5717 141.725 52.0717 141.525 52.7717 141.525C53.3717 141.525 53.9717 141.825 54.2717 142.325L59.1717 148.825C59.8717 149.725 59.6717 150.925 58.7717 151.625C58.4717 151.725 58.0717 151.925 57.6717 151.925Z" fill="#EC8822"/>
<path d="M93.5711 151.925C92.9711 151.925 92.3711 151.625 91.9711 151.125L88.5711 146.625L84.7711 151.225C84.0711 152.025 82.7711 152.225 81.9711 151.525C81.1711 150.825 80.9711 149.525 81.6711 148.725L87.0711 142.225C87.4711 141.725 87.9711 141.525 88.6711 141.525C89.2711 141.525 89.8711 141.825 90.1711 142.325L95.0711 148.825C95.7711 149.725 95.5711 150.925 94.6711 151.625C94.3711 151.725 93.9711 151.925 93.5711 151.925Z" fill="#EC8822"/>
<path d="M69.8713 9.82535C35.9713 9.82535 8.57129 36.9253 8.57129 70.2253C8.57129 105.225 24.0713 130.625 46.1713 141.125C50.8713 143.325 56.2713 142.925 60.7713 140.525C63.4713 139.025 66.5713 138.225 69.8713 138.225C73.1713 138.225 76.2713 139.025 78.9713 140.525C83.4713 143.025 88.9713 143.325 93.5713 141.125C115.671 130.625 131.171 105.225 131.171 70.2253C131.171 36.8253 103.771 9.82535 69.8713 9.82535Z" fill="#E7E4E2"/>
<path d="M96.7716 24.3253C90.7716 23.9253 84.9716 25.2253 80.0716 27.7253C73.6716 31.0253 66.1716 31.0253 59.7716 27.7253C54.7716 25.2253 49.0716 23.9253 43.0716 24.3253C27.2716 25.4253 14.4716 38.2253 13.3716 54.0253C12.0716 72.7253 26.8716 88.3253 45.2716 88.3253C50.5716 88.3253 55.5716 87.0253 59.9716 84.7253C66.1716 81.5253 73.6716 81.5253 79.8716 84.7253C84.2716 87.0253 89.2716 88.3253 94.5716 88.3253C112.972 88.3253 127.772 72.7253 126.472 54.0253C125.372 38.2253 112.572 25.4253 96.7716 24.3253Z" fill="white"/>
<path d="M31.0708 103.025C28.2708 102.025 26.3708 99.7254 25.6708 97.1254C24.4708 100.825 26.3708 104.725 29.9708 106.025C33.5708 107.325 37.5708 105.525 39.0708 101.925C36.7708 103.625 33.8708 104.025 31.0708 103.025Z" fill="#989899"/>
<path d="M46.3706 122.125C43.5706 121.125 41.6706 118.825 40.9706 116.225C39.7706 119.925 41.6706 123.825 45.2706 125.125C48.8706 126.425 52.8706 124.625 54.3706 121.025C52.0706 122.625 49.1706 123.125 46.3706 122.125Z" fill="#989899"/>
<path d="M72.3711 126.025C69.4711 125.925 66.8711 124.325 65.3711 122.025C65.3711 125.825 68.3711 129.025 72.2711 129.225C76.0711 129.425 79.3711 126.425 79.6711 122.625C77.9711 124.725 75.2711 126.125 72.3711 126.025Z" fill="#989899"/>
<path d="M95.6709 121.325C98.4709 120.325 100.371 118.025 101.071 115.425C102.271 119.125 100.371 123.025 96.7709 124.325C93.1709 125.625 89.1709 123.825 87.6709 120.225C89.9709 121.825 92.8709 122.325 95.6709 121.325Z" fill="#989899"/>
<path d="M54.7706 108.025C51.8706 107.425 49.5706 105.525 48.4706 103.025C47.8706 106.825 50.3706 110.425 54.1706 111.225C57.9706 111.925 61.5706 109.525 62.5706 105.825C60.4706 107.725 57.6706 108.625 54.7706 108.025Z" fill="#989899"/>
<path d="M108.271 103.025C111.071 102.025 112.971 99.7254 113.671 97.1254C114.871 100.825 112.97 104.725 109.37 106.025C105.77 107.325 101.771 105.525 100.271 101.925C102.571 103.625 105.571 104.025 108.271 103.025Z" fill="#989899"/>
<path d="M84.6711 108.025C87.5711 107.425 89.8711 105.525 90.9711 103.025C91.5711 106.825 89.0711 110.425 85.2711 111.225C81.4711 111.925 77.8711 109.525 76.8711 105.825C78.9711 107.725 81.7711 108.625 84.6711 108.025Z" fill="#989899"/>
<path d="M71.5713 17.4253C71.5713 17.4253 76.2713 11.9253 82.9713 10.2253C88.6713 8.72535 86.3713 4.72534 81.1713 7.62534C76.8713 10.0253 71.5713 17.4253 71.5713 17.4253Z" fill="#989899"/>
<path d="M68.0714 15.9254C68.0714 15.9254 67.0714 9.52536 62.7714 5.92536C59.6714 3.32536 61.5714 0.725356 63.0714 0.625356C66.0714 0.225356 68.4714 4.52536 68.0714 15.9254Z" fill="#989899"/>
<path d="M65.1712 15.0254C65.1712 15.0254 56.0712 4.32535 50.3712 7.12535C46.3712 9.02535 58.7712 10.9254 65.1712 15.0254Z" fill="#989899"/>
<path d="M64.7715 59.9254L70.1715 69.4254L74.8715 59.9254C74.7715 59.9254 69.8715 57.0254 64.7715 59.9254Z" fill="#EC8822"/>
<path d="M97.4709 65.4254C102.607 65.4254 106.771 61.2616 106.771 56.1254C106.771 50.9891 102.607 46.8253 97.4709 46.8253C92.3347 46.8253 88.1709 50.9891 88.1709 56.1254C88.1709 61.2616 92.3347 65.4254 97.4709 65.4254Z" fill="#231F20"/>
<path d="M102.571 58.8253C104.283 58.8253 105.671 57.4374 105.671 55.7253C105.671 54.0133 104.283 52.6254 102.571 52.6254C100.859 52.6254 99.4707 54.0133 99.4707 55.7253C99.4707 57.4374 100.859 58.8253 102.571 58.8253Z" fill="white"/>
<path d="M115.871 44.6254H80.3711V53.9254H115.871V44.6254Z" fill="white"/>
<path d="M85.8711 55.1254L110.771 54.4253C110.771 54.4253 110.171 53.8254 108.271 53.5254C103.271 52.9254 86.2711 53.0254 85.8711 55.1254Z" fill="#231F20"/>
<path d="M42.0715 64.3253C47.2077 64.3253 51.3715 60.1616 51.3715 55.0254C51.3715 49.8891 47.2077 45.7253 42.0715 45.7253C36.9352 45.7253 32.7715 49.8891 32.7715 55.0254C32.7715 60.1616 36.9352 64.3253 42.0715 64.3253Z" fill="#231F20"/>
<path d="M47.1713 57.7253C48.8834 57.7253 50.2713 56.3374 50.2713 54.6254C50.2713 52.9133 48.8834 51.5254 47.1713 51.5254C45.4592 51.5254 44.0713 52.9133 44.0713 54.6254C44.0713 56.3374 45.4592 57.7253 47.1713 57.7253Z" fill="white"/>
<path d="M60.4717 43.5254H24.9717V52.8253H60.4717V43.5254Z" fill="white"/>
<path d="M30.4717 53.5254L55.3717 53.8253C55.3717 53.8253 54.7717 53.2253 52.8717 52.8253C47.8717 52.0253 30.8717 51.4254 30.4717 53.5254Z" fill="#231F20"/>
<path d="M88.1709 47.3253C88.1709 47.3253 86.2709 52.5253 83.6709 53.2253L84.6709 48.4254C84.7709 48.0254 85.0709 47.7254 85.4709 47.6254L88.1709 47.3253Z" fill="#E7E4E2"/>
</svg>
