<svg width="154" height="145" viewBox="0 0 154 145" fill="none" xmlns="http://www.w3.org/2000/svg">
<path d="M70.1717 144.425C69.5717 144.425 68.9717 144.125 68.5717 143.625L65.1717 139.125L61.3717 143.725C60.6717 144.525 59.3717 144.725 58.5717 144.025C57.7717 143.325 57.5717 142.025 58.2717 141.225L63.6717 134.725C64.0717 134.225 64.5717 134.025 65.2717 134.025C65.8717 134.025 66.4717 134.325 66.7717 134.825L71.6717 141.325C72.3717 142.225 72.1717 143.425 71.2717 144.125C71.0717 144.325 70.5717 144.425 70.1717 144.425Z" fill="#EC8822"/>
<path d="M106.072 144.425C105.472 144.425 104.872 144.125 104.472 143.625L101.072 139.125L97.2716 143.725C96.5716 144.525 95.2716 144.725 94.4716 144.025C93.6716 143.325 93.4716 142.025 94.1716 141.225L99.5716 134.725C99.9716 134.225 100.472 134.025 101.172 134.025C101.772 134.025 102.372 134.325 102.672 134.825L107.572 141.325C108.272 142.225 108.072 143.425 107.172 144.125C106.972 144.325 106.472 144.425 106.072 144.425Z" fill="#EC8822"/>
<path d="M23.6715 52.1254C23.6715 52.1254 9.37149 58.7253 9.97149 79.6253C10.5715 98.7253 26.0715 117.625 44.1715 122.725L23.6715 52.1254Z" fill="#989899"/>
<path d="M139.872 52.1254C139.872 52.1254 154.172 58.7253 153.572 79.6253C152.972 98.7253 137.472 117.625 119.372 122.725L139.872 52.1254Z" fill="#989899"/>
<path d="M82.3713 9.32535C48.4713 9.32535 21.0713 36.4254 21.0713 69.7254C21.0713 104.725 36.5713 124.125 58.6713 134.625C63.3713 136.825 68.7713 136.425 73.2713 134.025C75.9713 132.525 79.0713 131.725 82.3713 131.725C85.6713 131.725 88.7713 132.525 91.4713 134.025C95.9713 136.525 101.471 136.825 106.071 134.625C128.171 124.125 143.671 104.725 143.671 69.7254C143.771 36.4254 116.271 9.32535 82.3713 9.32535Z" fill="#E7E4E2"/>
<path d="M109.272 30.8254C103.272 30.4254 97.4715 31.7254 92.5715 34.2254C86.1715 37.5254 78.6715 37.5254 72.2715 34.2254C67.2715 31.7254 61.5715 30.4254 55.5715 30.8254C39.7715 31.9254 26.9716 44.7254 25.8716 60.5254C24.5716 79.2253 39.3715 94.8254 57.7715 94.8254C63.0715 94.8254 68.0715 93.5254 72.4715 91.2254C78.6715 88.0254 86.1716 88.0254 92.3716 91.2254C96.7716 93.5254 101.772 94.8254 107.072 94.8254C125.472 94.8254 140.272 79.2253 138.972 60.5254C137.872 44.6254 125.072 31.8254 109.272 30.8254Z" fill="white"/>
<path d="M43.6714 102.625C40.8714 101.625 38.9714 99.3254 38.2714 96.7254C37.0714 100.425 38.9714 104.325 42.5714 105.625C46.1714 106.925 50.1714 105.125 51.6714 101.525C49.3714 103.125 46.3714 103.625 43.6714 102.625Z" fill="#989899"/>
<path d="M58.9712 121.625C56.1712 120.625 54.2712 118.325 53.5712 115.725C52.3712 119.425 54.2712 123.325 57.8712 124.625C61.4712 125.925 65.4712 124.125 66.9712 120.525C64.6712 122.225 61.6712 122.625 58.9712 121.625Z" fill="#989899"/>
<path d="M84.8716 125.525C81.9716 125.425 79.3716 123.825 77.8716 121.525C77.8716 125.325 80.8715 128.525 84.7715 128.725C88.6715 128.925 91.8716 125.925 92.1716 122.125C90.4716 124.325 87.8716 125.725 84.8716 125.525Z" fill="#989899"/>
<path d="M108.171 120.825C110.971 119.825 112.871 117.525 113.571 114.925C114.771 118.625 112.871 122.525 109.271 123.825C105.671 125.125 101.671 123.325 100.171 119.725C102.471 121.425 105.471 121.925 108.171 120.825Z" fill="#989899"/>
<path d="M67.2716 107.625C64.3716 107.025 62.0716 105.125 60.9716 102.625C60.3716 106.425 62.8716 110.025 66.6716 110.825C70.4716 111.625 74.0716 109.125 75.0716 105.425C72.9716 107.325 70.1716 108.225 67.2716 107.625Z" fill="#989899"/>
<path d="M120.872 102.625C123.672 101.625 125.572 99.3254 126.272 96.7254C127.472 100.425 125.572 104.325 121.972 105.625C118.372 106.925 114.372 105.125 112.872 101.525C115.172 103.125 118.072 103.625 120.872 102.625Z" fill="#989899"/>
<path d="M97.1716 107.625C100.072 107.025 102.372 105.125 103.472 102.625C104.072 106.425 101.572 110.025 97.7715 110.825C93.9715 111.525 90.3716 109.125 89.3716 105.425C91.4716 107.325 94.2716 108.225 97.1716 107.625Z" fill="#989899"/>
<path d="M84.0718 16.9254C84.0718 16.9254 88.7718 11.4254 95.4718 9.72535C101.172 8.22535 98.8718 4.22535 93.6718 7.12535C89.3718 9.62535 84.0718 16.9254 84.0718 16.9254Z" fill="#989899"/>
<path d="M80.6715 15.4254C80.6715 15.4254 79.6715 9.02535 75.3715 5.42535C72.2715 2.82535 74.1715 0.225352 75.6715 0.125352C78.5715 -0.274648 80.9715 4.12535 80.6715 15.4254Z" fill="#989899"/>
<path d="M77.6717 14.6254C77.6717 14.6254 68.5717 3.92535 62.8717 6.72535C58.8717 8.52535 71.2717 10.4254 77.6717 14.6254Z" fill="#989899"/>
<path d="M77.2715 61.4254L82.6715 70.9254L87.3715 61.4254C87.3715 61.4254 82.4715 58.6254 77.2715 61.4254Z" fill="#EC8822"/>
<path d="M56.2715 63.6254C52.1715 63.8254 48.5715 62.7254 46.2715 59.3254C48.0715 63.9254 51.9715 67.0254 56.3715 66.8254C60.7715 66.6254 64.3715 63.1254 65.7715 58.4254C63.7715 62.0254 60.2715 63.4254 56.2715 63.6254Z" fill="#231F20"/>
<path d="M108.572 63.8254C112.672 64.0254 116.272 62.9254 118.572 59.5254C116.772 64.1254 112.872 67.2254 108.472 67.0254C104.072 66.8254 100.472 63.3254 99.0718 58.6254C100.972 62.2254 104.472 63.6254 108.572 63.8254Z" fill="#231F20"/>
<path d="M9.57184 23.1254C14.211 23.1254 17.9719 19.3645 17.9719 14.7254C17.9719 10.0862 14.211 6.32535 9.57184 6.32535C4.93265 6.32535 1.17188 10.0862 1.17188 14.7254C1.17188 19.3645 4.93265 23.1254 9.57184 23.1254Z" stroke="white" stroke-miterlimit="10"/>
<path d="M23.0723 29.0254C25.2814 29.0254 27.0723 27.2345 27.0723 25.0254C27.0723 22.8162 25.2814 21.0254 23.0723 21.0254C20.8631 21.0254 19.0723 22.8162 19.0723 25.0254C19.0723 27.2345 20.8631 29.0254 23.0723 29.0254Z" stroke="white" stroke-miterlimit="10"/>
</svg>
