<svg width="24" height="24" viewBox="0 0 24 24" fill="none" xmlns="http://www.w3.org/2000/svg">
<path d="M10.9062 2.9057C11.4178 2.1091 12.5822 2.1091 13.0938 2.9057L15.4744 6.61202C15.8265 7.16019 16.3715 7.5562 17.0017 7.72166L21.2622 8.84042C22.178 9.08087 22.5378 10.1882 21.9383 10.921L19.149 14.3304C18.7364 14.8346 18.5282 15.4754 18.5656 16.1258L18.8182 20.5235C18.8725 21.4687 17.9305 22.1531 17.0484 21.8094L12.9439 20.2102C12.3369 19.9737 11.6631 19.9737 11.0561 20.2102L6.95162 21.8094C6.06946 22.1531 5.12752 21.4687 5.18181 20.5235L5.4344 16.1258C5.47176 15.4754 5.26356 14.8346 4.85103 14.3304L2.06174 10.921C1.46225 10.1882 1.82204 9.08087 2.73775 8.84042L6.99832 7.72166C7.62846 7.5562 8.17352 7.16019 8.52561 6.61202L10.9062 2.9057Z" fill="#EFFFFE" stroke="#009891" stroke-width="1.3"/>
<mask id="mask0_2767_132800" style="mask-type:alpha" maskUnits="userSpaceOnUse" x="2" y="2" width="20" height="20">
<path d="M10.4925 2.8579C11.1976 1.71403 12.8024 1.71403 13.5075 2.8579L15.6949 6.40598C15.9375 6.79956 16.3131 7.08388 16.7474 7.20268L20.6621 8.27367C21.9242 8.61894 22.4201 10.209 21.5938 11.2612L19.031 14.5251C18.7467 14.8871 18.6032 15.3471 18.6289 15.8141L18.861 20.0241C18.9359 21.3814 17.6376 22.3641 16.4218 21.8705L12.6505 20.3396C12.2321 20.1698 11.7679 20.1698 11.3495 20.3396L7.57822 21.8705C6.36238 22.3641 5.06415 21.3814 5.13897 20.0241L5.37106 15.8141C5.3968 15.3471 5.25333 14.8871 4.96904 14.5251L2.40616 11.2612C1.57991 10.209 2.07579 8.61894 3.33787 8.27367L7.25262 7.20268C7.68686 7.08388 8.06247 6.79956 8.3051 6.40598L10.4925 2.8579Z" fill="#EFFFFE"/>
</mask>
<g mask="url(#mask0_2767_132800)">
<circle cx="14.8083" cy="17.2249" r="6.175" fill="#C9EBE9"/>
</g>
<path d="M11.2007 3.09485C11.5746 2.51272 12.4254 2.51272 12.7993 3.09485L15.1799 6.80117C15.5794 7.42313 16.1978 7.87245 16.9128 8.06019L21.1734 9.17894C21.8425 9.35465 22.1055 10.1639 21.6674 10.6993L18.8781 14.1087C18.41 14.6809 18.1738 15.4079 18.2162 16.1458L18.4688 20.5436C18.5084 21.2343 17.8201 21.7344 17.1754 21.4833L13.071 19.8841C12.3822 19.6157 11.6178 19.6157 10.929 19.8841L6.82456 21.4833C6.1799 21.7344 5.49156 21.2343 5.53123 20.5436L5.78382 16.1459C5.82621 15.4079 5.58999 14.6809 5.12192 14.1087L2.33263 10.6993C1.89454 10.1639 2.15747 9.35465 2.82664 9.17894L7.08721 8.06019C7.80218 7.87245 8.42061 7.42313 8.82009 6.80117L11.2007 3.09485Z" stroke="#009891" stroke-width="2"/>
</svg>
