<svg width="24" height="24" viewBox="0 0 24 24" fill="none" xmlns="http://www.w3.org/2000/svg">
<path d="M13.0938 2.9057L15.4744 6.61202C15.8265 7.16019 16.3715 7.5562 17.0017 7.72166L21.2622 8.84042C22.178 9.08087 22.5378 10.1882 21.9383 10.921L19.149 14.3304C18.7364 14.8346 18.5282 15.4754 18.5656 16.1258L18.8182 20.5235C18.8725 21.4687 17.9305 22.1531 17.0484 21.8094L12.9439 20.2102C12.3369 19.9737 11.6631 19.9737 11.0561 20.2102L6.95162 21.8094C6.06946 22.1531 5.12752 21.4687 5.18181 20.5235L5.4344 16.1258C5.47176 15.4754 5.26356 14.8346 4.85103 14.3304L2.06174 10.921C1.46225 10.1882 1.82204 9.08087 2.73775 8.84042L6.99832 7.72166C7.62846 7.5562 8.17352 7.16019 8.52561 6.61202L10.9062 2.9057C11.4178 2.1091 12.5822 2.1091 13.0938 2.9057Z" stroke="white" stroke-width="1.3"/>
<mask id="mask0_2187_29798" style="mask-type:alpha" maskUnits="userSpaceOnUse" x="1" y="1" width="22" height="22">
<path d="M10.3593 2.55437C11.1268 1.35948 12.8733 1.35948 13.6407 2.55437L16.0213 6.2607C16.2854 6.67182 16.6942 6.96883 17.1668 7.09293L21.4274 8.21168C22.8009 8.57236 23.3406 10.2333 22.4414 11.3325L19.6521 14.7419C19.3427 15.1201 19.1865 15.6006 19.2146 16.0885L19.4671 20.4862C19.5486 21.904 18.1357 22.9306 16.8124 22.415L12.708 20.8158C12.2527 20.6384 11.7474 20.6384 11.2921 20.8158L7.18763 22.415C5.86438 22.9306 4.45147 21.904 4.5329 20.4862L4.78549 16.0885C4.81351 15.6006 4.65737 15.1201 4.34796 14.7419L1.55868 11.3325C0.659436 10.2333 1.19912 8.57236 2.57269 8.21168L6.83326 7.09292C7.30587 6.96883 7.71466 6.67182 7.97873 6.2607L10.3593 2.55437Z" fill="#EFFFFE"/>
</mask>
<g mask="url(#mask0_2187_29798)">
<circle cx="14.925" cy="17.2249" r="6.175" fill="white" fill-opacity="0.4"/>
</g>
<path d="M12.7993 3.09485L15.1799 6.80117C15.5794 7.42313 16.1978 7.87245 16.9128 8.06019L21.1734 9.17894C21.8425 9.35465 22.1055 10.1639 21.6674 10.6993L18.8781 14.1087C18.41 14.6809 18.1738 15.4079 18.2162 16.1459L18.4688 20.5436C18.5084 21.2343 17.8201 21.7344 17.1754 21.4833L13.071 19.8841C12.3822 19.6157 11.6178 19.6157 10.929 19.8841L6.82456 21.4833C6.1799 21.7344 5.49156 21.2343 5.53123 20.5436L5.78382 16.1459C5.82621 15.4079 5.58999 14.6809 5.12192 14.1087L2.33263 10.6993C1.89454 10.1639 2.15747 9.35465 2.82664 9.17894L7.08721 8.06019C7.80218 7.87245 8.42061 7.42313 8.82009 6.80117L11.2007 3.09485C11.5746 2.51272 12.4254 2.51272 12.7993 3.09485Z" stroke="white" stroke-width="2"/>
</svg>
