<svg width="351" height="134" viewBox="0 0 351 134" fill="none" xmlns="http://www.w3.org/2000/svg">
<g clip-path="url(#clip0_688_5914)">
<circle cx="11" cy="138" r="33.6087" stroke="#009891" stroke-opacity="0.3" stroke-width="4.78261"/>
<ellipse cx="9.5" cy="138" rx="23.5" ry="23" fill="#8DD1CE"/>
<g opacity="0.3">
<mask id="mask0_688_5914" style="mask-type:alpha" maskUnits="userSpaceOnUse" x="40" y="116" width="50" height="50">
<circle cx="64.8727" cy="140.873" r="24.8727" fill="#C4C4C4"/>
</mask>
<g mask="url(#mask0_688_5914)">
<path fill-rule="evenodd" clip-rule="evenodd" d="M-10.5488 162.641L70.1259 81.9664L69.9361 80.6118L-10.7385 161.286L-10.5488 162.641ZM82.5795 81.9665L1.90483 162.641L1.71507 161.287L82.3897 80.6119L82.5795 81.9665ZM103.359 81.9665L22.6846 162.641L22.4949 161.287L103.169 80.6119L103.359 81.9665ZM6.05962 162.641L86.7343 81.9665L86.5445 80.6119L5.86986 161.287L6.05962 162.641ZM107.511 81.9665L26.8365 162.641L26.6467 161.287L107.321 80.6119L107.511 81.9665ZM10.2139 162.641L90.8885 81.9665L90.6988 80.6119L10.0242 161.287L10.2139 162.641ZM111.665 81.9665L30.9908 162.641L30.801 161.287L111.476 80.6119L111.665 81.9665ZM14.3687 162.641L95.0433 81.9665L94.8536 80.6119L14.1789 161.287L14.3687 162.641ZM115.82 81.9665L35.1456 162.641L34.9558 161.287L115.63 80.6119L115.82 81.9665ZM18.5235 162.641L99.1981 81.9665L99.0084 80.6119L18.3337 161.287L18.5235 162.641ZM119.974 81.9665L39.2999 162.641L39.1101 161.287L119.785 80.6119L119.974 81.9665ZM33.0577 173.026L113.732 92.3509L113.543 90.9963L32.8679 171.671L33.0577 173.026ZM134.513 92.3509L53.8384 173.026L53.6487 171.671L134.323 90.9963L134.513 92.3509ZM37.2124 173.026L117.887 92.3509L117.697 90.9963L37.0227 171.671L37.2124 173.026ZM138.667 92.3509L57.9927 173.026L57.803 171.671L138.478 90.9963L138.667 92.3509ZM41.3672 173.026L122.042 92.3509L121.852 90.9963L41.1775 171.671L41.3672 173.026ZM142.822 92.3509L62.147 173.026L61.9573 171.671L142.632 90.9963L142.822 92.3509ZM45.522 173.026L126.197 92.3509L126.007 90.9963L45.3323 171.671L45.522 173.026ZM146.977 92.3509L66.3023 173.026L66.1125 171.671L146.787 90.9963L146.977 92.3509ZM49.6763 173.026L130.351 92.3509L130.161 90.9963L49.4866 171.671L49.6763 173.026ZM151.131 92.3509L70.4566 173.026L70.2668 171.671L150.941 90.9963L151.131 92.3509ZM74.608 173.026L155.283 92.3509L155.093 90.9963L74.4182 171.671L74.608 173.026ZM159.437 92.3509L78.7623 173.026L78.5725 171.671L159.247 90.9963L159.437 92.3509ZM82.917 173.026L163.592 92.3509L163.402 90.9963L82.7273 171.671L82.917 173.026ZM167.746 92.3509L87.0718 173.026L86.8821 171.671L167.557 90.9963L167.746 92.3509ZM74.2807 81.9664L-6.39398 162.641L-6.58374 161.286L74.0909 80.6118L74.2807 81.9664ZM-2.2431 162.641L78.4315 81.9664L78.2418 80.6118L-2.43286 161.286L-2.2431 162.641Z" fill="#009891"/>
</g>
</g>
<g opacity="0.3">
<mask id="mask1_688_5914" style="mask-type:alpha" maskUnits="userSpaceOnUse" x="-14" y="-17" width="39" height="39">
<circle cx="5.10547" cy="2.10596" r="19.1055" fill="#C4C4C4"/>
</mask>
<g mask="url(#mask1_688_5914)">
<path fill-rule="evenodd" clip-rule="evenodd" d="M-52.6132 18.8394L9.01324 -42.787L8.82348 -44.1416L-52.803 17.4849L-52.6132 18.8394ZM18.5265 -42.787L-43.1 18.8395L-43.2897 17.4849L18.3367 -44.1415L18.5265 -42.787ZM34.4 -42.787L-27.2264 18.8395L-27.4162 17.4849L34.2103 -44.1415L34.4 -42.787ZM-39.9266 18.8395L21.6998 -42.787L21.5101 -44.1415L-40.1164 17.4849L-39.9266 18.8395ZM37.5709 -42.787L-24.0555 18.8395L-24.2453 17.4849L37.3812 -44.1415L37.5709 -42.787ZM-36.7528 18.8395L24.8737 -42.787L24.6839 -44.1415L-36.9426 17.4849L-36.7528 18.8395ZM40.7448 -42.787L-20.8817 18.8395L-21.0715 17.4849L40.555 -44.1415L40.7448 -42.787ZM-33.579 18.8395L28.0475 -42.787L27.8577 -44.1415L-33.7687 17.4849L-33.579 18.8395ZM43.9186 -42.787L-17.7079 18.8395L-17.8976 17.4849L43.7288 -44.1415L43.9186 -42.787ZM-30.4051 18.8395L31.2213 -42.787L31.0316 -44.1415L-30.5949 17.4849L-30.4051 18.8395ZM47.0924 -42.787L-14.534 18.8395L-14.7238 17.4849L46.9026 -44.1415L47.0924 -42.787ZM-19.3026 26.7721L42.3239 -34.8544L42.1341 -36.209L-19.4924 25.4175L-19.3026 26.7721ZM58.1974 -34.8544L-3.42907 26.7721L-3.61883 25.4175L58.0076 -36.209L58.1974 -34.8544ZM-16.1293 26.7721L45.4972 -34.8544L45.3074 -36.209L-16.319 25.4175L-16.1293 26.7721ZM61.3712 -34.8544L-0.255241 26.7721L-0.445 25.4175L61.1815 -36.209L61.3712 -34.8544ZM-12.9554 26.7721L48.671 -34.8544L48.4813 -36.209L-13.1452 25.4175L-12.9554 26.7721ZM64.545 -34.8544L2.91859 26.7721L2.72883 25.4175L64.3553 -36.209L64.545 -34.8544ZM-9.78161 26.7721L51.8448 -34.8544L51.6551 -36.209L-9.97137 25.4175L-9.78161 26.7721ZM67.7184 -34.8544L6.09193 26.7721L5.90217 25.4175L67.5286 -36.209L67.7184 -34.8544ZM-6.60778 26.7721L55.0187 -34.8544L54.8289 -36.209L-6.79754 25.4175L-6.60778 26.7721ZM70.8922 -34.8544L9.26575 26.7721L9.076 25.4175L70.7025 -36.209L70.8922 -34.8544ZM12.4367 26.7721L74.0631 -34.8544L73.8734 -36.209L12.2469 25.4175L12.4367 26.7721ZM77.2369 -34.8544L15.6105 26.7721L15.4207 25.4175L77.0472 -36.209L77.2369 -34.8544ZM18.7843 26.7721L80.4108 -34.8544L80.221 -36.209L18.5946 25.4175L18.7843 26.7721ZM83.5846 -34.8544L21.9581 26.7721L21.7684 25.4175L83.3948 -36.209L83.5846 -34.8544ZM12.1866 -42.787L-49.4399 18.8394L-49.6296 17.4849L11.9968 -44.1416L12.1866 -42.787ZM-46.2685 18.8394L15.358 -42.787L15.1682 -44.1416L-46.4583 17.4849L-46.2685 18.8394Z" fill="#009891"/>
</g>
</g>
</g>
<defs>
<clipPath id="clip0_688_5914">
<rect width="351" height="134" fill="white" transform="translate(0 0.000488281)"/>
</clipPath>
</defs>
</svg>
