<svg width="120" height="121" viewBox="0 0 120 121" fill="none" xmlns="http://www.w3.org/2000/svg">
<ellipse cx="62.3036" cy="114.997" rx="32.8858" ry="5.31977" fill="#C4E9E6"/>
<path d="M80.6051 11.7936C44.8915 1.942 20.7314 27.7688 18.9765 49.4245" stroke="#7A7A7A" stroke-linecap="round"/>
<path d="M69.3257 107.227L73.0632 111.202" stroke="#D67B29" stroke-width="3" stroke-miterlimit="10" stroke-linecap="round"/>
<path d="M70.3428 112.065L69.473 107.874C69.3988 107.428 69.3824 106.995 69.4237 106.577L69.675 104.803" stroke="#EC8822" stroke-width="3" stroke-miterlimit="10" stroke-linecap="round"/>
<path d="M75.6629 102.843C75.6629 102.843 74.4054 105.228 72.1913 106.521C69.7039 107.931 64.1678 107.798 61.6901 101.928L67.4493 100.402L75.6629 102.843Z" fill="#B2B2B2"/>
<path d="M56.2469 108.433L60.0542 112.4" stroke="#D67B29" stroke-width="3" stroke-miterlimit="10" stroke-linecap="round"/>
<path d="M56.6458 113.53C56.3212 111.631 55.7833 108.964 55.7833 108.964L55.995 105.383" stroke="#EC8822" stroke-width="3" stroke-miterlimit="10" stroke-linecap="round"/>
<path d="M66.1908 104.044C66.1908 104.044 61.3726 107.676 56.3298 107.237C50.8087 106.828 45.9865 102.114 46.662 96.7238L66.1908 104.044Z" fill="#D7D7D7"/>
<path d="M77.574 36.7794C77.574 36.7794 77.6 33.51 76.2423 30.8585C75.5087 29.3529 75.0035 28.21 75.8947 28.2333C77.6162 28.3377 78.6221 30.8017 77.574 36.7794Z" fill="#989899"/>
<path d="M15.0999 60.5537C15.0999 60.5537 24.7115 68.859 29.3297 62.7755C36.4109 53.4475 42.356 30.7122 66.3342 32.3239C100.772 36.3749 98.7873 64.5648 91.6534 75.9129C92.3311 79.5575 91.3925 85.8947 90.358 89.0783C86.3498 101.4 72.4132 106.863 54.9962 104.445C51.5016 103.938 47.8271 103.485 44.8781 102.576C15.2719 93.3594 15.0999 60.5537 15.0999 60.5537Z" fill="#D7D7D7"/>
<path d="M96.4868 61.5912C96.6982 71.7043 91.6224 77.1011 91.6224 77.1011C91.6224 77.1011 88.9001 76.6138 85.3651 77.6511C79.5536 79.3424 62.3965 78.359 60.0262 62.1249C58.2039 49.9483 68.923 37.9209 80.1324 38.9867C90.4506 40.0292 96.132 45.5882 96.4868 61.5912Z" fill="white"/>
<path d="M84.3205 44.3288C85.4905 44.6571 90.7324 45.9802 92.2284 44.7983C94.5352 47.5341 96.1531 53.8787 96.0848 56.493C95.4984 56.1804 91.8714 58.4639 90.9724 58.7377C90.0734 59.0115 89.5181 57.5106 88.3297 57.4795C87.1414 57.4485 85.9143 58.9028 84.4367 58.5669C84.4599 57.6757 90.7995 53.9767 91.1121 53.3903C91.4247 52.8039 90.2364 52.7728 90.2674 51.5845C90.3203 49.562 85.6622 44.8857 84.3205 44.3288C84.0662 44.2574 84.0043 44.233 84.2151 44.2916C84.2474 44.3006 84.2827 44.3131 84.3205 44.3288Z" fill="#E1E2EC"/>
<path d="M75.1204 35.1102C75.1204 35.1102 72.1662 32.1196 68.9124 31.4995C65.9555 30.8871 67.4999 28.6682 70.202 29.9279C72.6085 31.1204 75.1204 35.1102 75.1204 35.1102Z" fill="#989899"/>
<path d="M76.7106 35.6866C76.7106 35.6866 75.3824 31.9062 72.1079 29.7991C69.3588 28.0625 68.8081 26.3833 69.7102 25.9907C71.5144 25.2055 74.9264 26.6026 76.7106 35.6866Z" fill="#989899"/>
<path d="M74.0202 95.4295C72.7927 94.6245 72.1154 93.2393 72.0917 91.8712C71.0381 93.5085 71.4576 95.6598 73.0933 96.7728C74.729 97.8857 76.9397 97.4679 78.1106 95.8931C76.7894 96.3937 75.2477 96.2345 74.0202 95.4295Z" fill="#989899"/>
<path d="M73.0909 85.4761C71.7538 84.3115 71.2016 82.6917 71.3623 81.0906C69.8898 82.8358 70.0607 85.3969 71.8059 86.8695C73.4917 88.3405 76.1106 88.2305 77.6989 86.6072C76.1432 86.9828 74.4295 86.5813 73.0909 85.4761Z" fill="#989899"/>
<path d="M83.8823 91.1687C82.2342 90.5311 81.141 89.135 80.7655 87.5793C79.9966 89.6996 81.0649 92.0463 83.1837 92.8746C85.3025 93.7029 87.7055 92.755 88.6511 90.6987C87.2597 91.6137 85.4695 91.8642 83.8823 91.1687Z" fill="#989899"/>
<path d="M81.1611 97.4595C81.1611 97.4595 79.981 99.3908 80.3064 100.588C80.3064 100.588 81.4932 100.679 82.356 99.5123C82.356 99.5123 81.5227 99.5499 81.1611 97.4595Z" fill="#989899"/>
<path d="M88.4523 104.559C126.227 58.2784 103.779 17.8791 80.8866 12.3955" stroke="#5F9997" stroke-width="4" stroke-linecap="round"/>
<path d="M95.6949 53.2127L95.5916 52.6155C93.4965 53.1553 91.3626 55.1805 91.05 55.7669C92.7509 54.3844 94.7959 53.4865 95.6949 53.2127Z" fill="black"/>
<path d="M96.0048 55.0045L95.9133 54.4075C94.4279 54.3687 90.4325 56.6426 89.487 58.6989C91.3263 56.5708 94.509 55.3618 96.0048 55.0045Z" fill="black"/>
<path d="M93.9672 65.5038C93.086 64.0132 92.9552 59.2601 93.7701 58.3458C94.1386 58.0149 95.1542 58.0002 96.7007 59.2956C97.4044 61.8588 97.276 65.8082 96.9799 65.8344C96.0919 65.9128 94.5082 66.4191 93.9672 65.5038Z" fill="#E04444"/>
<path d="M95.9816 56.2072C95.9816 56.2072 99.5413 55.9403 101.89 60.6273C97.2927 59.2434 93.2849 60.4402 93.2849 60.4402C93.2849 60.4402 93.1869 56.8754 95.9816 56.2072Z" fill="#EC8822"/>
<path d="M99.2958 65.0331C99.2958 65.0331 95.5653 65.8779 93.7041 64.888C93.7564 65.4801 94.6192 66.3678 94.9414 66.6377C98.5865 67.0707 99.2958 65.0331 99.2958 65.0331Z" fill="#EC6C22"/>
<ellipse cx="84.3338" cy="51.1324" rx="1.0812" ry="1.2614" transform="rotate(-19.2043 84.3338 51.1324)" fill="black"/>
<path d="M91.406 53.517L91.1198 53.0933C83.2638 57.9418 82.6076 60.3029 82.6076 60.3029C82.6076 60.3029 84.6126 57.8337 91.406 53.517Z" fill="black"/>
<path d="M82.6775 57.6296C81.9645 57.6109 80.6238 56.585 80.0426 56.0743C80.0426 56.0743 81.1152 56.3762 82.4115 56.4335C85.5333 56.5714 90.8151 53.383 90.8151 53.383C90.1821 54.8528 83.3905 57.6482 82.6775 57.6296Z" fill="black"/>
<path d="M85.9432 46.4181C86.6508 46.5076 88.281 47.9656 89.9936 50.6859C89.492 49.0386 88.1635 46.3573 85.6694 45.5191C80.5958 46.2784 77.2037 50.9463 77.2037 50.9463C77.2037 50.9463 82.9802 46.0434 85.9432 46.4181Z" fill="black"/>
<path d="M89.9936 50.6857C89.5528 48.5932 87.4752 44.6742 82.1588 43.3462C83.6132 44.5733 88.3198 46.48 89.9936 50.6857Z" fill="black"/>
<path d="M69.5186 49.2589C67.3382 53.0666 66.6586 56.3189 69.0353 56.381C71.4119 56.4431 70.1523 51.5546 69.5186 49.2589Z" fill="#B3E9FA"/>
<path d="M56.9373 38.4256C53.3278 44.7724 52.2023 50.1931 56.1352 50.2959C60.0681 50.3986 57.9852 42.2516 56.9373 38.4256Z" fill="#B3E9FA"/>
<path d="M45.7375 50.7111C43.5571 54.5187 42.8775 57.7711 45.2541 57.8332C47.6308 57.8953 46.3712 53.0068 45.7375 50.7111Z" fill="#B3E9FA"/>
<path d="M74.331 59.7892C72.5347 62.6408 71.979 65.0788 73.9455 65.1302C75.9119 65.1816 74.8599 61.5124 74.331 59.7892Z" fill="#B3E9FA"/>
<path d="M56.4097 70.3413C69.2211 62.9356 81.8827 78.2636 109.183 68.3338C110.613 70.5112 108.648 77.4332 106.84 78.3801C104.811 79.8638 101.452 79.7714 98.4826 79.6481C98.4826 79.6481 103.225 79.5794 105.403 80.4235C105.963 81.7421 105.178 85.7096 102.76 86.5974C99.3416 87.8526 96.3656 87.3894 91.0708 85.341C91.0708 85.341 104.012 86.6301 100.838 91.8982C95.3197 98.2942 68.9358 92.3743 59.3534 88.8019C49.7712 85.2294 51.4199 73.2257 56.4097 70.3413Z" fill="#989899"/>
<path fill-rule="evenodd" clip-rule="evenodd" d="M17.8915 51.6039C17.9037 51.1367 18.2923 50.7679 18.7595 50.7801C19.2267 50.7923 19.5955 51.1809 19.5833 51.6481C19.5711 52.1153 19.1825 52.4841 18.7153 52.4719C18.2481 52.4597 17.8793 52.0711 17.8915 51.6039ZM22.726 51.7302C22.6684 53.9331 20.836 55.6722 18.6332 55.6146C18.5412 55.6122 18.45 55.6067 18.3597 55.5982C18.0425 56.8568 17.7202 58.0615 17.4162 59.1983L17.4162 59.1983L17.4162 59.1984L17.4162 59.1985C17.2664 59.7585 17.121 60.3021 16.9828 60.8274C16.4747 62.759 16.0654 64.439 15.8673 65.8457C15.6666 67.2704 15.7002 68.3088 15.9834 69.0113C16.2369 69.6404 16.7171 70.0679 17.6804 70.2313C17.6804 70.2313 17.5779 70.5468 17.569 70.887C17.5588 71.2792 17.458 71.5426 17.458 71.5426C16.1032 71.3128 15.1991 70.6232 14.7498 69.5085C14.5684 69.0584 14.4677 68.554 14.4287 68.0072C13.3064 69.2684 11.8298 69.9047 10.4622 69.825C9.26227 69.755 8.17245 69.1183 7.62084 67.9031C7.08266 66.7176 7.10646 65.0944 7.82798 63.1046L9.04087 59.3553L10.4302 64.0482L9.07831 63.558C8.422 65.3679 8.49105 66.6025 8.83189 67.3534C9.15931 68.0747 9.78229 68.4531 10.5396 68.4972C12.0903 68.5877 14.2933 67.2141 14.8268 64.069L14.8312 64.0697C15.0578 62.9703 15.3598 61.7694 15.6966 60.489C15.8374 59.9537 15.9844 59.4041 16.1352 58.8404C16.4398 57.7015 16.7597 56.5053 17.0748 55.2542C15.6667 54.6082 14.7058 53.1685 14.7488 51.5218C14.8063 49.3189 16.6388 47.5798 18.8416 47.6374C21.0445 47.695 22.7836 49.5274 22.726 51.7302ZM19.6518 69.3639L21.0682 66.0748L19.0374 65.6035L23.7777 62.4013L20.8734 69.8899C20.8734 69.8899 20.9275 69.6443 20.353 69.3822C19.7785 69.1201 19.6518 69.3639 19.6518 69.3639Z" fill="#DF8C68"/>
<path d="M19.6101 47.9267C17.2494 45.447 2.43183 45.4747 2.31268 50.0346C2.2152 53.7655 17.034 52.0076 19.6101 47.9267Z" fill="#DEDEDE"/>
<path d="M19.6101 47.9267C17.2494 45.447 2.43183 45.4747 2.31268 50.0346C2.2152 53.7655 8.32109 47.6317 19.6101 47.9267Z" fill="#617697"/>
<circle cx="5.00601" cy="49.3569" r="0.89154" transform="rotate(1.49672 5.00601 49.3569)" fill="white"/>
<circle r="0.29718" transform="matrix(0.999659 0.0261197 0.0261197 -0.999659 5.00589 49.3567)" fill="#617697"/>
<path fill-rule="evenodd" clip-rule="evenodd" d="M9.52432 47.0966C9.52003 47.2607 9.25054 47.3867 8.9224 47.3781C8.59426 47.3696 8.33172 47.2296 8.33601 47.0655C8.34029 46.9015 8.60978 46.7754 8.93793 46.784C9.26607 46.7926 9.52861 46.9325 9.52432 47.0966ZM14.2775 47.2208C14.2732 47.3848 14.0037 47.5109 13.6756 47.5023C13.3474 47.4938 13.0849 47.3538 13.0892 47.1897C13.0934 47.0257 13.3629 46.8996 13.6911 46.9082C14.0192 46.9167 14.2818 47.0567 14.2775 47.2208ZM11.2834 48.0344C11.6115 48.043 11.881 47.9169 11.8853 47.7528C11.8896 47.5888 11.6271 47.4488 11.2989 47.4402C10.9708 47.4317 10.7013 47.5577 10.697 47.7218C10.6927 47.8859 10.9552 48.0258 11.2834 48.0344ZM8.88349 48.8635C8.8792 49.0276 8.60971 49.1537 8.28157 49.1451C7.95343 49.1365 7.69089 48.9966 7.69518 48.8325C7.69946 48.6684 7.96895 48.5424 8.2971 48.5509C8.62524 48.5595 8.88778 48.6995 8.88349 48.8635ZM16.0522 47.5644C16.3803 47.573 16.6498 47.4469 16.6541 47.2829C16.6584 47.1188 16.3959 46.9788 16.0677 46.9703C15.7396 46.9617 15.4701 47.0878 15.4658 47.2518C15.4615 47.4159 15.7241 47.5559 16.0522 47.5644Z" fill="#EC8822"/>
<path d="M28.1853 96.6953C33.4527 98.7681 36.7106 103.691 40.0947 103.779" stroke="#B4B4B4" stroke-width="0.5" stroke-linecap="round"/>
<path d="M58.498 29.7581C54.1091 31.0948 48.3356 31.7602 45.2484 36.1388" stroke="#B4B4B4" stroke-width="0.5" stroke-linecap="round"/>
<path d="M42.7669 38.5387C41.2787 39.9511 40.1942 40.5263 39.7652 42.3305" stroke="#B4B4B4" stroke-width="0.5" stroke-linecap="round"/>
<path d="M21.5939 89.75C22.5313 90.9033 24.9275 91.7722 25.3604 93.7187" stroke="#B4B4B4" stroke-width="0.5" stroke-linecap="round"/>
</svg>
