<?xml version="1.0" encoding="utf-8"?>
<!-- Generator: Adobe Illustrator 26.0.1, SVG Export Plug-In . SVG Version: 6.00 Build 0)  -->
<svg version="1.1" id="圖層_1" xmlns="http://www.w3.org/2000/svg" xmlns:xlink="http://www.w3.org/1999/xlink" x="0px" y="0px"
	 viewBox="0 0 93 99.2" style="enable-background:new 0 0 93 99.2;" xml:space="preserve">
<style type="text/css">
	.st0{opacity:0.4;fill:url(#SVGID_1_);enable-background:new    ;}
</style>
<linearGradient id="SVGID_1_" gradientUnits="userSpaceOnUse" x1="40.479" y1="3.2852" x2="40.479" y2="88.9861">
	<stop  offset="0" style="stop-color:#EED084"/>
	<stop  offset="0.8802" style="stop-color:#D5BA77;stop-opacity:0"/>
</linearGradient>
<path class="st0" d="M83.6,73.7c-3.8-2.5-7.5-4.5-11.4-6.2c-0.9-0.5-1.8-0.9-2.6-0.9c-0.6-0.3-1.2-0.1-1.7,0.1
	c-0.4,0-0.9-0.1-1.3-0.3c0,0.3,0,0.4,0.3,0.5c-0.4,0.4-0.5,1-0.3,1.7c0.6,0.6,1.4,1.2,2.1,1.8c0.7,0.6,1.4,1.2,2.1,1.8
	c1.4,1.2,2.2,2.7,2.3,4.7c-0.5,1.9-1.6,3.6-3,5.2l-0.3,0.4c-1.2,1.3-2.5,2.8-3.7,4.2c0.3,0.1,0.8,0.1,1.2,0c1.6-1,3.1-2.2,4.7-3.5
	c1.6-1.3,3.5-1.8,5.7-1.4c2.6,1.9,5.6,2.6,8.8,2.5c0.8-0.3,1.4-0.8,1.8-1.4C88.6,78.8,87,75.9,83.6,73.7z M60.6,76.1
	c-1.3-3.6-1.7-7.7-1.2-11.8c2.2-1.2,4.5-1.9,7-2.1c2.5-0.3,4.8-0.9,7.1-2.1c0.8-0.8,1.3-1.9,1.3-3.2c-0.3-1.3-0.9-2.5-2.2-3
	c-1.2-0.5-2.3-1.2-3.4-1.8c-0.8-0.3-1.6-0.5-2.3-1c-0.9,0.1-1.6,0.5-1.9,1.3c-0.5-0.1-0.9-0.1-1.4,0.1c-0.3,0.3-0.4,0.6-0.5,1
	c-0.8-1-1.2-2.3-1.2-3.6c-0.7-0.6-1.4-1-2.1-1.4c-0.3-0.2-0.6-0.3-0.9-0.5c1.4-0.8,3-1.8,4.3-3c0.6-0.1,1.2-0.4,1.7-0.9
	c-0.8-1.7-1.9-2.9-3.8-3.5c-0.3-0.1-0.4-0.1-0.5-0.1c-0.1,0,0,0,0,0.1c0.1,0,0.2,0.1,0.1,0.2c-0.9,0.3-1.8,0.5-2.7,0.6
	c-0.6,1.9-1.6,3.6-2.9,5.2c-2.9,4.7-6.2,9-9.9,13c-0.4,1.4-1.2,2.5-2.5,3.1c-1.3,0.6-2.5,1.3-3.5,1.9c0,0.3-0.1,0.6-0.3,0.8
	c0,0.6,0.4,1.2,0.9,1.6c1.6,0.8,3.2,1.2,5.1,0.9c3.2-0.3,6.4-0.8,9.5-1.6c-0.1,2.7,0.3,5.5,0.8,8.4c0.8,2.9,0.1,5.5-1.9,7.7
	c0,0-0.1-0.1-0.1-0.1c-0.1,0-0.1-0.1-0.1-0.2c-0.3,0.3-0.5,0.6-0.5,1.2c-1.6-0.5-3-0.9-4.5-1.2c-1.6-1.3-3.4-1.9-5.2-2.3
	c1.5-1.4,3.2-2.8,4.9-4.2l0,0c1-0.8,2-1.7,3-2.6c0.1-0.3,0.3-0.8,0.3-1.2c-2.2,1.4-4.4,2.7-6.8,3.8c-2.5,1.2-4.9,1.9-7.5,2.2
	c-0.9-0.4-2.1-0.3-3.1,0.3c-0.8,0.5-1.4,1.3-1.9,1.9c-0.3,0.8,0,1.3,0.4,1.9c0.3,0.8,0.5,1.6,1.2,2.3c1.7,0.8,3,0.4,4.2-0.8
	c1.2-0.3,2.2-0.8,3.2-1.3c1.8,1.2,3.6,2.2,5.7,3c1.7,0.4,3,1.2,4,2.5c1,1.3,2.3,2.3,3.6,3.1c0.6-0.1,1,0,1.6,0.3
	c1.2-0.1,2.1-0.6,2.9-1.6c0.7-1.7,1.4-3.3,2.2-4.9c0.3-0.5,0.5-1.1,0.8-1.6c0.3-1.2,0.3-2.3-0.3-3.4C60.9,78.5,60.6,77.4,60.6,76.1z
	 M91.5,58.3c-0.8-1.8-1.9-3.4-3.5-4.7c-1.4-1.3-2.7-2.9-3.9-4.4c-2.3-2.7-4.4-5.6-6.2-8.4c-1.9-3-4-5.7-6.6-8.2v-0.6
	c2.2-0.8,4.4-1.8,6.5-3c1.4-0.8,2.5-1.8,2.9-3.2c0.1-0.9-0.3-1.7-1.3-2.3c-1.2-0.5-2.2-1.3-3.1-2.6c-0.8-1.3-2.1-1.7-3.5-1.4
	c-0.5,1.2-0.8,2.3-0.8,3.5c-0.8,1.9-2.5,3.4-4.5,4c-1.3-1.3-2.5-2.7-3.5-4c2.6-0.6,4.9-1.9,6.8-4c1.3-0.3,2.3-0.9,3-2.2
	c-1.7-1.4-3.5-2.7-5.6-3.6c-0.1,0.1-0.3,0.2-0.4,0.3c-0.1,0.1-0.3,0.1-0.4,0.3c-0.4-0.4-0.8-0.3-1,0.3c-0.3,0.5-0.8,0.8-1.2,0.5
	c-1.3,1.6-3,3-4.8,3.9c-1.4,0.9-3,1.7-4.4,1.9c0.6-1.6,1.6-3.2,2.5-4.9c2.1-0.8,4.3-1.7,6.5-2.7c1.7,0.1,3.1-0.5,4.4-1.7
	c1.3-1.3,2.6-2.2,4-3.1c-0.1-1.8-0.8-3-2.5-3.8c-0.4-0.2-0.8-0.4-1.2-0.6c-1-0.5-2-1-2.9-1.7c-0.5,0.3-1.2,0.3-1.6,0.1
	c-0.4,0.3-0.8,0.5-0.8,0.8c-0.5,0.5-0.9,0.6-1.4,0.3c0,0.3-0.1,0.6-0.3,0.9c0-0.6-0.1-1-0.2-1.5c0-0.1,0-0.2-0.1-0.3
	C61.8,1,61.2,0.5,60.4,0c-1,0.5-1.9,1.3-2.6,2.3c-1.9,1.9-3.1,4.3-3.8,6.9c-4,1.9-8.2,3.6-12.5,4.9c-0.5,0.5-1.2,0.9-1.8,1
	c0,0.4,0.1,0.8,0.4,0.8c0.1,0.3,0.1,0.4,0,0.5c1.6,0.8,3.4,1,5.2,0.5c1.8-0.4,3.5-0.4,5.3,0c0,0.4-0.1,0.8-0.3,1.2
	c-1.5,1.5-2.8,3-4.2,4.5c-1,1-1.9,2.1-2.9,3.2c0,0.8-0.3,1.4-0.9,1.9c0.3,0.4,0.4,0.9,0.3,1.4c1.4,0.8,3,0.9,4.5,0.4
	c-2.5,3.2-5.2,6.2-8,9c-1.7,2.3-3.6,4-6.1,5.2c-0.8,0-1.3,0.4-1.4,1.2c-0.1,0.8-0.3,1.3-0.8,1.8l0.4,0.8l-0.3,0.3h0.3
	c0.1,0.4,0.4,0.6,1,0.5c3.5-0.6,6.9-1.7,10.3-3c-0.5,1.8-1.2,3.5-2.1,4.9C33.6,56.9,26.6,63,19.1,68.7h-0.5c0.1-0.6,0.3-1.3,0.3-1.9
	c0.1-0.7,0.3-1.4,0.4-2.1c0.2-0.9,0.4-1.7,0.5-2.7c0.3-1.7,1.3-3,3-4c1.7-1.4,2.7-3.5,3-5.7c-1.9-1.9-4.2-3.5-6.8-4.4
	c1.5-1.8,3-3.5,4.5-5.3c1.5-1.8,3.1-3.5,4.5-5.3c3.2-2.2,6.8-3.4,10.9-3.5c0.6-0.9,0.8-1.9,0.4-3c-2.1-2.1-4.5-3.5-7.4-4.3v0.3
	c-1.8,0-3.4-0.3-4.9-0.6c-1.3-0.5-2.5-0.3-3.2,0.6c-0.4,0-0.8,0.1-1,0.3c0,0.1,0,0.3,0.1,0.3c-0.4,0.5-0.4,1.3,0,1.9
	c-1.9,0.9-3.8,1.9-5.3,3c-1.7,1.2-3.5,1.9-5.3,2.3c2.1-3.2,4.8-6.1,7.9-8.4c2.3-2.9,4.7-5.6,7.3-8.2c0.8-0.1,1.3-0.4,1.7-1
	c-0.1-0.8,0.3-1.2,0.8-1.4c0.6-0.3,0.9-0.8,1.2-1.6c-0.6-1.9-1.8-3.4-3.6-3.9c-1.9-0.8-3.6-1.6-5.5-2.5c-0.3,0.3-0.3,0.5-0.3,0.6
	c-0.1,0-0.3,0-0.3-0.1c0,0-0.1,0.1-0.1,0.1c-0.1,0-0.1,0.1-0.1,0.2c-0.5-0.3-0.9-0.1-1.4,0.3c-0.2,0.2-0.4,0.3-0.7,0.5
	c-0.5,0.4-1,0.7-1.6,1c-2.9,2.6-5.8,4.7-9.2,6.6C5,18.4,1.8,20.4-1,22.8c-3.6,2.1-7.1,4.5-10.3,7.1c0.3,0.6,0.6,1.2,1,1.7
	c3.1,1.2,6.2,0.9,9.1-0.4c2.9-1.4,5.8-2.5,9-3c-1.6,3-3.2,6-4.9,9c-0.3,0.1-0.5,0.1-0.8,0.1c0,0.4,0.1,0.8,0.3,1.2
	c-0.4,1.3,0,2.3,1.2,3.1C4.2,42.6,5,43.1,6,43c0.5,0.5,1.2,0.6,1.9,0.3c3.9-0.5,7.3-2.1,10-4.7c2.9-2.6,5.8-4.8,9.2-6.8
	c0.1,0.1,0.3,0.3,0.4,0.3c-0.2,0.8-0.5,1.5-0.8,2.3c-0.1,0.2-0.2,0.4-0.3,0.7c-2.9,4.4-6.1,8.4-9.6,11.9h-0.4
	c-0.8-1.7-2.3-2.6-4.2-2.7c-0.4,0.1-0.8,0.1-1.2,0c-0.1,0.1-0.2,0.2-0.2,0.3c-0.1,0.2-0.3,0.3-0.5,0.5c-0.5,1.4-0.5,3-0.1,4.5
	c0.4,1.6,0.3,3.1-0.3,4.5c-1.4,1.3-2.8,2.6-4.2,3.9c-0.7,0.7-1.4,1.3-2.1,2c-0.4,0.2-0.9,0.2-1.3,0.3c-0.2,0-0.4,0.1-0.6,0.1
	c-0.3,0.3-0.5,0.5-0.9,0.6c-1-0.1-1,0-0.9,0.6c-0.9,1.3-0.8,2.9,0.5,4.3c0.5,0.6,1.3,1,2.3,1.3c2.3,0.1,4.5-0.3,6.8-1.2
	c0.3,2.1,0.3,4,0,6.1c-0.8,0.9-1.7,1.8-2.5,2.6c-0.8,0.9-1.7,1.7-2.5,2.6c-1.7,1.8-3.8,2.9-6.1,3.2c-0.3,0.8-0.8,1-1.6,1
	c0,0.5-0.1,0.9-0.3,1.3c-0.5,1-0.4,1.9,0.4,2.7c0.8,0.8,1.4,1.4,2.1,2.3c1,0.9,2.3,1.3,3.6,0.9c1.3-0.3,2.5-0.8,3.8-1.4
	c9.1-8,17.7-16.9,25.6-26.2c0.7-0.7,1.3-1.4,1.9-2.1c0.1-0.1,0.2-0.2,0.3-0.3c0.8-0.9,1.7-1.2,3-0.6c-1.8,3.4-4,6.5-6.6,9.2
	c-2.6,2.7-5.1,5.7-7.3,8.6c0.4,0.3,0.9,0.3,1.4-0.3c4.9-4,9.3-8.4,13.4-13.4c1.3-2.6,2.6-5.1,4.3-7.3c0.2-1.1,0.6-2.1,1.1-3.2
	c0.1-0.2,0.1-0.4,0.2-0.6c2.1-2.9,4-5.7,5.7-9c1.7-0.7,3.4-1.5,5-2.2c3.3-1.5,6.7-2.9,10.2-4.4c3.1,4.4,6.5,8.7,10,13
	c2.9,3.8,6.2,7,10,9.9c-0.5,0.8-1,1.6-1.6,2.2c0.8,1.2,1.7,1.4,3,1c1.3-0.4,2.5-0.5,3.5-0.1c0.9,0.1,1.8-0.3,2.5-0.9
	C92.3,60,92.1,59.2,91.5,58.3z"/>
</svg>
