<?xml version="1.0" encoding="utf-8"?>
<!-- Generator: Adobe Illustrator 26.0.1, SVG Export Plug-In . SVG Version: 6.00 Build 0)  -->
<svg version="1.1" id="圖層_1" xmlns="http://www.w3.org/2000/svg" xmlns:xlink="http://www.w3.org/1999/xlink" x="0px" y="0px"
	 viewBox="0 0 93 99" style="enable-background:new 0 0 93 99;" xml:space="preserve">
<style type="text/css">
	.st0{opacity:0.4;fill:url(#SVGID_1_);enable-background:new    ;}
</style>
<linearGradient id="SVGID_1_" gradientUnits="userSpaceOnUse" x1="44" y1="0.4232" x2="44" y2="98.3058">
	<stop  offset="0" style="stop-color:#EED084"/>
	<stop  offset="0.8802" style="stop-color:#D5BA77;stop-opacity:0"/>
</linearGradient>
<path class="st0" d="M17.7,78.4c-0.3-0.8-0.6-1.7-0.8-2.6c-0.2-0.9-0.2-2.2-0.2-4c0-1.8,0.1-4.3,0.2-7.4c0.2-3.1,0.6-7.2,1-12.4
	c0.2-2.9-0.1-5.5-0.9-7.8c-0.8-2.3-2.2-4.6-4.4-7c0.3-1.4,1.3-3,3-4.6c1.8-1.7,3.6-3.4,5.5-5.2c1.8-1.8,3.5-3.4,5.1-4.9
	c1.7-1.5,2.8-2.6,3.4-3.2c1.5-1.1,2.3-2.4,2.3-4c0.1-1.7-0.5-3.1-1.7-4.4c-1.6-2-3.3-3.4-5.2-4.3c-1.9-1-3.3-1.5-4.2-1.5
	C18,5.2,17,6,17.9,7.5c0.6,0.8,0.9,1.8,0.8,2.8c0,1-0.5,2.4-1.6,4.2c-3.3,4.8-6,8.6-8.1,11.5c-2,2.9-3.7,5.2-5,6.9
	c-1.3,1.7-2.3,2.8-2.9,3.4c-0.7,0.6-1.2,1-1.7,1.2c-0.8,0.4-1.5,0.8-2,1.1c-0.5,0.4-0.9,1-1.2,1.8c-0.2,0.8-0.5,1.8-0.7,3.1
	c-0.2,1.3-0.3,3-0.5,5.2c-0.1,1.4,0.1,2.3,0.6,2.5c0.5,0.2,1.5-0.4,3.2-1.6c2-1.3,3.5-2.5,4.7-3.7c1.3-1.2,2.6-2.7,4.1-4.4
	c1,0.5,1.6,1.1,1.8,1.8c0.3,0.7,0.5,1.9,0.7,3.7c1.2,6.9,1,12.8-0.7,17.8c-0.5,3.5-0.8,6.5-1,8.8c-0.2,2.3-0.1,4.3,0.1,6.1
	c0.3,1.8,0.8,3.5,1.5,5.1c0.8,1.6,1.8,3.4,3,5.5c2.2,3.4,3.8,3.3,5-0.2c0.4-2.6,0.5-5,0.5-7C18.3,81.1,18.1,79.5,17.7,78.4z
	 M90.5,58.4c-1.1-1.5-4.3-2.3-9.5-2.5c-1.8-0.1-3.9,0-6.4,0.1c-2.5,0.2-5.3,0.4-8.5,0.7c1-0.6,2.1-1.3,3.4-2
	c1.3-0.8,2.4-1.7,3.3-2.5c1.5-0.9,2.1-1.7,1.9-2.4c-0.2-0.8-1.2-1.6-3.2-2.5c-1.3-0.7-2.8-1.1-4.5-1.1c-1.7-0.1-3.5,0.2-5.5,0.9
	c-1,0.4-2.1,0.7-3.4,0.9c-1.2,0.2-2.4,0.3-3.7,0.6c0-0.4,0-0.8,0-1.1c0.1-0.4,0.2-0.8,0.2-1.2c3-1.2,5.1-2,6.4-2.4
	c1.3-0.4,2.2-0.5,2.8-0.3c2.1,0.3,3.6,0.3,4.5,0c0.9-0.4,2-1.1,3.2-2.3c0.2-0.3,0.8-0.9,1.6-1.7c0.8-0.8,1.8-1.7,2.8-2.7
	c1.1-1.1,2.3-2.1,3.5-3.2c1.2-1.1,2.3-2,3.2-2.7c1.4-1.2,1.8-2.5,1.4-3.7c-0.4-1.4-1.8-3.1-4.3-5.1c-2.1-1.5-5-2.4-8.6-2.7
	c-3.5-0.3-7.6,0.1-12.2,1.2c0.3-0.4,0.5-0.8,0.6-1.2c0.1-0.5,0.1-0.9,0.1-1.4c1.6-0.8,3.2-1.4,4.7-1.9c1.6-0.5,2.9-0.9,4.1-1
	c1.4-0.2,2.2-0.6,2.3-1.1c0.1-0.6-0.4-1.3-1.4-2c-2-1.4-4.6-2-8-2c0.5-3.3-0.3-5.7-2.5-7.2C56.6,1,52.8,0.2,47.3,0
	c-1.5-0.1-2.4,0.2-2.6,0.9s0.3,1.3,1.5,1.8c1.1,0.7,2,1.3,2.6,1.8c0.7,0.5,1.1,1.1,1.4,1.8c0.3,0.6,0.4,1.4,0.3,2.4
	c0,0.9-0.1,2.1-0.3,3.6c-2.9,1.2-5.5,2-7.7,2.4c-2.2,0.4-4,0.5-5.5,0.2c-2.3-0.2-2.8,0.3-1.5,1.5c1.5,1.4,3,2.4,4.5,2.8
	s3.6,0.7,6.2,0.8c-3.6,0.9-6.6,1.8-8.9,2.7c-2.3,0.9-4.2,1.9-5.5,2.9c-1.3,1.1-2.1,2.2-2.6,3.4c-0.5,1.1-0.6,2.4-0.5,3.7
	c0.6,3.6,1.5,6.6,2.7,8.8c1.3,2.3,3,4.4,5.2,6.3c0.8,0.8,1.5,1.2,1.9,1c0.5-0.2,0.6-0.9,0.2-1.9c1.1,0.5,2.2,0.8,3.4,0.9
	c1.2,0.2,2.5,0.2,3.9,0.2c-1.6,1.1-2.9,1.8-3.9,2.1c-1,0.3-1.7,0.5-2.3,0.5c-1.1,0-1.9,0.3-2.4,0.8c-0.4,0.5-0.7,1.7-1,3.4
	c-0.5,1.9,0.4,3,2.8,3.4c2.5,0.4,6.4-0.5,11.8-2.7c1.5-0.7,2.9-1.3,4.3-1.8c1.4-0.5,2.8-1,4.1-1.5c1.1-0.5,1.7-0.6,1.9-0.3
	c0.2,0.2-0.2,0.8-1.4,1.6c-1.1,0.9-2.4,1.8-3.9,2.8c-1.5,1-3.1,1.9-4.7,2.7c-0.7,0.1-1.7,0.3-2.9,0.7c-1.3,0.4-2.7,0.8-4.3,1.4
	c-1.6,0.5-3.2,1.1-5,1.6c-1.7,0.5-3.4,1-5,1.5c-2.4,1.1-4.2,1.7-5.4,1.8c-1.1,0.1-2.3,0-3.6-0.3c-1-0.3-1.8-0.2-2.6,0.2
	c-0.8,0.4-1.3,1-1.7,1.9c-0.5,2.7,0.6,4.4,3.4,5c2.9,0.5,7.2-0.6,13.1-3.3c0.8,0.7,1.5,1.3,2,1.8c0.5,0.5,0.9,1.2,1,1.9
	c0.2,0.8,0.3,1.7,0.1,2.9c-0.2,1.1-0.5,2.6-0.9,4.5c-0.2,0.8-0.1,1.2,0.3,1.5c0.5,0.2,1.1,0,1.8-0.6c1.2-0.7,2.4-1.5,3.6-2.4
	c1.3-1,2.5-1.9,3.6-2.7c1.1-0.9,1.2-2.1,0.3-3.6c-0.8-1.6-2.7-3.4-5.7-5.4c2.6-0.7,5.4-1.3,8.5-1.9c3.1-0.7,6.1-1.3,9-1.9
	c0.3,1.1,0.5,2.4,0.7,4c0.2,1.6,0.2,3.3,0.2,5.2c0,1.9-0.1,3.9-0.2,6c-0.1,2-0.2,4.1-0.5,6.1c-0.2,1.5-0.5,2.5-0.9,2.8
	c-0.5,0.4-1.6,0.6-3.5,0.6c-1.3,0-2.7-0.2-4.4-0.6c-1.7-0.4-3.3-0.9-5.1-1.5c-1.7-0.5-3.2-1.2-4.7-1.9c-1.4-0.7-2.6-1.4-3.4-2.1
	c-1.1-0.8-1.7-1.2-1.9-1c-0.2,0.2,0.1,0.8,0.7,1.8c2.1,2.6,4.7,5.1,7.7,7.4c3.1,2.3,7.1,4.8,11.9,7.6c1.5,0.8,2.6,1.1,3.4,1
	c0.8,0,1.7-0.4,2.6-1.2c1.1-1.1,2-2.2,2.7-3.2c0.8-0.9,1.4-1.9,1.8-3.1c0.5-1.1,0.9-2.3,1.1-3.8c0.2-1.5,0.4-3.4,0.5-5.7
	c0.2-2.2,0.2-4.8,0.1-7.9c0-3.2,0-7-0.1-11.4c2.4-0.4,4.6-0.6,6.5-0.6c2-0.1,4.4,0,7.2,0.3c5.3,0.7,8.3,0.6,9.1-0.1
	C93.5,61.5,92.8,60.2,90.5,58.4z M57.7,27.3c1.5-0.8,3-1.4,4.6-2c1.6-0.7,3.2-1.3,5-1.9c2.7-0.7,4.4-0.1,5.2,1.8
	c0.3,1,0.4,1.8,0.3,2.5c0,0.6-0.2,1.3-0.7,2.1c-0.5-0.3-0.8-0.5-1.1-0.7c-0.8-0.4-2.2-0.6-4.4-0.6c-2.1,0-5.2,0.3-9.2,1L57.7,27.3z
	 M55.7,38c0.1-0.4,0.3-0.7,0.7-1c3.6-0.9,6.5-1.7,8.7-2.5c2.2-0.8,3.9-1.5,5.3-1.9c-0.8,1.1-1.6,2-2.5,2.9c-0.8,0.9-1.8,1.8-2.9,2.6
	c-0.8,0.6-1.8,1-2.8,1.2c-1.1,0.2-1.8,0.3-2.3,0.3c-0.9-0.3-1.7-0.5-2.4-0.6c-0.6-0.1-1.2-0.1-1.9,0C55.6,38.8,55.7,38.4,55.7,38z
	 M42.9,41.9c-1.4,0.8-2.7,1.6-4.2,2.4c-0.2-1.6-0.3-2.9-0.5-4c-0.1-1.1-0.2-2-0.3-2.7c1.2,0.4,2.7,0.6,4.6,0.7
	c2,0.1,3.6,0.2,5.1,0.2C45.9,39.8,44.3,41,42.9,41.9z M48.8,31.9c-0.8,0.4-1.8,0.7-2.8,1c-1,0.3-2,0.6-2.9,0.8
	c-1,0.2-1.9,0.4-2.8,0.6c-0.8,0.1-1.6,0.1-2.3,0.1h-1c-0.1-0.2-0.2-0.3-0.2-0.5c-0.1-0.2-0.2-0.3-0.2-0.5c0.1-1.5,0.7-2.6,1.8-3.2
	c1.1-0.7,2.7-0.9,4.6-0.8c1.2,0.2,2.3,0.2,3.2,0.2c0.9-0.1,1.9-0.2,2.9-0.2C49,30.4,48.9,31.2,48.8,31.9z M49.6,21.7
	c0,0.5,0,0.8-0.1,1.1c-2.9,1.1-5.6,2.3-8.2,3.5c-2.6,1.1-5,2.5-7.2,4c-1.7-1.5-2.5-2.5-2.5-3.1c0.1-0.5,0.9-1.2,2.6-1.9
	c0.9-0.5,2-1.1,3.3-1.6c1.4-0.5,2.7-1,4.2-1.5c1.5-0.5,2.9-0.8,4.3-1.1c1.4-0.3,2.7-0.5,3.7-0.7C49.6,20.9,49.6,21.3,49.6,21.7z"/>
</svg>
