<?xml version="1.0" encoding="utf-8"?>
<!-- Generator: Adobe Illustrator 26.0.1, SVG Export Plug-In . SVG Version: 6.00 Build 0)  -->
<svg version="1.1" id="圖層_1" xmlns="http://www.w3.org/2000/svg" xmlns:xlink="http://www.w3.org/1999/xlink" x="0px" y="0px"
	 viewBox="0 0 351 114" style="enable-background:new 0 0 351 114;" xml:space="preserve">
<style type="text/css">
	.st0{fill:none;}
	.st1{fill:url(#SVGID_1_);}
	.st2{fill:none;stroke:url(#SVGID_00000065066048484795593720000009962505503295388331_);}
	.st3{fill-rule:evenodd;clip-rule:evenodd;fill:url(#SVGID_00000072980130538832686550000008059557431280898696_);}
	.st4{fill:#009891;}
	.st5{fill:url(#SVGID_00000161624091836830420410000011499432246462975378_);}
	.st6{fill:url(#SVGID_00000056412808902777366230000010835522390553172662_);}
	.st7{fill:url(#SVGID_00000072281793392863328090000007153779019916739206_);fill-opacity:0.7;}
	.st8{fill:url(#SVGID_00000005973843835514055350000007432636257290545025_);}
	.st9{fill:url(#SVGID_00000076590575289533874650000005030070109776050871_);}
	.st10{fill:url(#SVGID_00000127724948132277599470000017215932658332264108_);}
	.st11{fill:url(#SVGID_00000097473010475160496660000017549028107133351583_);}
	.st12{fill:url(#SVGID_00000085973551787825329640000004700054564600052652_);}
	.st13{fill:url(#SVGID_00000092425443497184819210000010356356579204350866_);}
</style>
<rect class="st0" width="351" height="114"/>
<linearGradient id="SVGID_1_" gradientUnits="userSpaceOnUse" x1="143.4873" y1="-17.4661" x2="347.4873" y2="59.0341" gradientTransform="matrix(1 0 0 -1 0 116)">
	<stop  offset="0" style="stop-color:#2F9790"/>
	<stop  offset="1" style="stop-color:#1A837D"/>
</linearGradient>
<path class="st1" d="M350.5,114H103c-6.5,0,40-47.5,107.5-47.5c86,0,79.5-64,140-64V114z"/>
<linearGradient id="SVGID_00000015323339935731689390000014230711222103154620_" gradientUnits="userSpaceOnUse" x1="254.868" y1="-52.198" x2="177.658" y2="91.8661" gradientTransform="matrix(1 0 0 -1 0 116)">
	<stop  offset="0" style="stop-color:#2FA48F"/>
	<stop  offset="1" style="stop-color:#41C7BF"/>
</linearGradient>
<path style="fill:none;stroke:url(#SVGID_00000015323339935731689390000014230711222103154620_);" d="M79,113.5
	C93.9,97,145.4,81,200,93c58.6,12.9,140.6,14.5,151-18.5"/>
<linearGradient id="SVGID_00000026846694409151302770000012028186023486641566_" gradientUnits="userSpaceOnUse" x1="289.0803" y1="-5.8119" x2="273.5393" y2="46.9615" gradientTransform="matrix(1 0 0 -1 0 116)">
	<stop  offset="0" style="stop-color:#D9F4F4"/>
	<stop  offset="1" style="stop-color:#FFFFFF;stop-opacity:0.25"/>
</linearGradient>
<path style="fill-rule:evenodd;clip-rule:evenodd;fill:url(#SVGID_00000026846694409151302770000012028186023486641566_);" d="
	M235.1,119.7l1.7-18.1c0.1-0.7,0.6-1.2,1.2-1.3l8.6-1.4c2.6-5.8,6.7-10.8,11.7-14.9l-1.9-12c-0.1-0.6,0.3-1.1,0.9-1.1
	c6.3-0.1,13.8,3.7,14.8,5.3c7.1-2.6,15-3.7,23.2-2.9c26.5,2.5,46.2,23.7,43.9,47.2c-0.7,7.8-3.8,14.8-8.4,20.7
	c-2.9,3.7-6.5,6.9-10.6,9.6l-1.8,19c-0.1,0.8-0.8,1.4-1.6,1.3l-13.3-1.3c-0.8-0.1-1.4-0.8-1.3-1.6l1-10.4c-5.1,1.1-10.5,1.4-16,0.9
	c-5.5-0.5-10.7-1.9-15.5-3.9l-1,10.4c-0.1,0.8-0.8,1.4-1.6,1.3l-13.3-1.3c-0.8-0.1-1.4-0.8-1.3-1.6l1.8-19
	c-5.9-5.7-10.1-12.7-12-20.4c0,0,0,0,0,0l-8.2-3C235.4,121,235,120.4,235.1,119.7z M284.6,86.2c3.8-1.6,14.7-3.4,26.2,2.5
	c0.8,0.4,1.8,0.1,2.3-0.7c0.4-0.8,0.1-1.8-0.7-2.3c-12.5-6.4-24.4-4.5-29-2.6c-0.9,0.3-1.3,1.3-0.9,2.2
	C282.8,86.1,283.8,86.5,284.6,86.2z"/>
<circle class="st4" cx="266.4" cy="100.2" r="5.8"/>
<linearGradient id="SVGID_00000155863150377350105100000016586190684583928455_" gradientUnits="userSpaceOnUse" x1="203.4688" y1="24.8088" x2="207.5827" y2="15.7947" gradientTransform="matrix(1 0 0 -1 0 116)">
	<stop  offset="0" style="stop-color:#C4F8F5"/>
	<stop  offset="1" style="stop-color:#FFFFFF;stop-opacity:0.79"/>
</linearGradient>
<path style="fill:url(#SVGID_00000155863150377350105100000016586190684583928455_);" d="M189,97.8l3,5.6c6.7,2.3,26-6.1,28.1-12.8
	l-2.3-5.9L189,97.8z"/>
<linearGradient id="SVGID_00000115510111888972933460000008055530548952415914_" gradientUnits="userSpaceOnUse" x1="-67.3794" y1="-261.9355" x2="-67.3794" y2="-251.2126" gradientTransform="matrix(0.9097 -0.4152 -0.4152 -0.9097 158.0193 -170.75)">
	<stop  offset="0" style="stop-color:#0C7B75;stop-opacity:0.22"/>
	<stop  offset="1" style="stop-color:#FFFFFF;stop-opacity:0.4"/>
</linearGradient>
<path style="fill:url(#SVGID_00000115510111888972933460000008055530548952415914_);" d="M201.5,86.8c8-3.6,15.3-4.7,16.4-2.3
	c1.1,2.4-4.5,7.3-12.5,10.9s-15.3,4.7-16.4,2.3C187.9,95.4,193.5,90.5,201.5,86.8z"/>
<linearGradient id="SVGID_00000160879378687657595890000004143045980340065943_" gradientUnits="userSpaceOnUse" x1="-71.9268" y1="-251.1725" x2="-63.8678" y2="-261.537" gradientTransform="matrix(0.9097 -0.4152 -0.4152 -0.9097 158.1544 -170.8511)">
	<stop  offset="0" style="stop-color:#ECFFFF"/>
	<stop  offset="1" style="stop-color:#F1FFFF;stop-opacity:0.4"/>
</linearGradient>
<path style="fill:url(#SVGID_00000160879378687657595890000004143045980340065943_);fill-opacity:0.7;" d="M202.2,88.3
	c5.6-2.5,10.6-3.5,11.3-2.1c0.6,1.4-3.4,4.6-9,7.1s-10.6,3.5-11.3,2.1C192.6,94,196.6,90.8,202.2,88.3z"/>
<linearGradient id="SVGID_00000034786904686016467450000007386173368601657515_" gradientUnits="userSpaceOnUse" x1="171.0951" y1="69.5252" x2="164.4691" y2="58.5149" gradientTransform="matrix(1 0 0 -1 0 116)">
	<stop  offset="0" style="stop-color:#C4F8F5"/>
	<stop  offset="1" style="stop-color:#FFFFFF;stop-opacity:0.79"/>
</linearGradient>
<path style="fill:url(#SVGID_00000034786904686016467450000007386173368601657515_);" d="M153.5,35.9l-3.7,7.3
	c2.5,8.8,25.6,23.3,34.4,20.7l4.6-6.8L153.5,35.9z"/>
<linearGradient id="SVGID_00000116203158894361416870000010718204705914358682_" gradientUnits="userSpaceOnUse" x1="307.3929" y1="536.6104" x2="307.3929" y2="550.5173" gradientTransform="matrix(0.8568 0.5156 0.5156 -0.8568 -372.1414 353.0525)">
	<stop  offset="0" style="stop-color:#0C7B75;stop-opacity:0.22"/>
	<stop  offset="1" style="stop-color:#FFFFFF;stop-opacity:0.4"/>
</linearGradient>
<path style="fill:url(#SVGID_00000116203158894361416870000010718204705914358682_);" d="M174.3,41.2c9.7,5.9,16.2,13,14.5,15.9
	c-1.8,2.9-11.1,0.5-20.8-5.3s-16.2-13-14.5-15.9C155.2,32.9,164.6,35.3,174.3,41.2z"/>
<linearGradient id="SVGID_00000179637261397033407510000005978253728326818700_" gradientUnits="userSpaceOnUse" x1="301.9744" y1="550.5418" x2="312.4264" y2="537.0992" gradientTransform="matrix(0.8568 0.5156 0.5156 -0.8568 -372.3309 352.8527)">
	<stop  offset="0" style="stop-color:#ECFFFF"/>
	<stop  offset="1" style="stop-color:#F1FFFF;stop-opacity:0.4"/>
</linearGradient>
<path style="fill:url(#SVGID_00000179637261397033407510000005978253728326818700_);" d="M173.2,43c6.8,4.1,11.5,8.8,10.5,10.5
	s-7.4-0.2-14.2-4.3C162.7,45,158,40.3,159,38.6C160.1,36.9,166.4,38.9,173.2,43z"/>
<linearGradient id="SVGID_00000106843324483381174680000008733074088721535640_" gradientUnits="userSpaceOnUse" x1="205.5544" y1="102.2609" x2="207.9964" y2="96.4019" gradientTransform="matrix(1 0 0 -1 0 116)">
	<stop  offset="0" style="stop-color:#C4F8F5"/>
	<stop  offset="1" style="stop-color:#FFFFFF;stop-opacity:0.79"/>
</linearGradient>
<path style="fill:url(#SVGID_00000106843324483381174680000008733074088721535640_);" d="M196.2,17.6l1.8,3.6
	c4.2,1.6,16.8-3.4,18.3-7.6l-1.3-3.8L196.2,17.6z"/>
<linearGradient id="SVGID_00000155827755778213092300000011268208112564575630_" gradientUnits="userSpaceOnUse" x1="-40.2241" y1="-165.321" x2="-40.2241" y2="-158.4516" gradientTransform="matrix(0.923 -0.3847 -0.3847 -0.923 180.2659 -151.5194)">
	<stop  offset="0" style="stop-color:#0C7B75;stop-opacity:0.22"/>
	<stop  offset="1" style="stop-color:#FFFFFF;stop-opacity:0.4"/>
</linearGradient>
<path style="fill:url(#SVGID_00000155827755778213092300000011268208112564575630_);" d="M204.4,10.9c5.2-2.2,9.9-2.7,10.6-1.1
	c0.6,1.6-3,4.6-8.2,6.7c-5.2,2.2-9.9,2.7-10.6,1.1C195.5,16.1,199.2,13.1,204.4,10.9z"/>
<linearGradient id="SVGID_00000074432638274609080300000008750983650714627755_" gradientUnits="userSpaceOnUse" x1="-43.1306" y1="-158.4227" x2="-37.9676" y2="-165.0628" gradientTransform="matrix(0.923 -0.3847 -0.3847 -0.923 180.3485 -151.5756)">
	<stop  offset="0" style="stop-color:#ECFFFF"/>
	<stop  offset="1" style="stop-color:#F1FFFF;stop-opacity:0.4"/>
</linearGradient>
<path style="fill:url(#SVGID_00000074432638274609080300000008750983650714627755_);" d="M204.8,11.9c3.6-1.5,6.9-2,7.3-1.1
	c0.4,0.9-2.3,2.9-5.9,4.4c-3.6,1.5-6.9,2-7.3,1.1C198.5,15.3,201.2,13.4,204.8,11.9z"/>
</svg>
