<?xml version="1.0" encoding="utf-8"?>
<!-- Generator: Adobe Illustrator 26.0.1, SVG Export Plug-In . SVG Version: 6.00 Build 0)  -->
<svg version="1.1" id="圖層_1" xmlns="http://www.w3.org/2000/svg" xmlns:xlink="http://www.w3.org/1999/xlink" x="0px" y="0px"
	 viewBox="0 0 82 108" style="enable-background:new 0 0 82 108;" xml:space="preserve">
<style type="text/css">
	.st0{opacity:0.4;fill:url(#SVGID_1_);enable-background:new    ;}
</style>
<linearGradient id="SVGID_1_" gradientUnits="userSpaceOnUse" x1="36" y1="0.3448" x2="36" y2="107.8194">
	<stop  offset="0" style="stop-color:#EED084"/>
	<stop  offset="0.8802" style="stop-color:#D5BA77;stop-opacity:0"/>
</linearGradient>
<path class="st0" d="M80.3,94.8c-1.1-1-2.7-1.8-4.7-2.2c-3.7-0.9-6.1-2-7.4-3.2c-1.3-1.4-1.6-3.2-1-5.5c0.2-0.9,0.3-1.8,0.5-2.6
	s0.2-1.8,0.1-2.9c2-0.6,3.5-1,4.7-1.3c1.1-0.4,1.9-0.8,2.4-1.1c0.5-0.3,0.7-0.7,0.7-1.1s-0.1-0.9-0.4-1.6c-1-2.3-2-3.7-3.1-4.1
	c-1.1-0.5-2.8-0.4-5.1,0.4c-1.7,0.4-3.6,0.8-5.6,1.3c-2,0.5-4.1,1-6.4,1.7c-1,0.2-1.6,0.2-1.8,0c-0.2-0.3,0.1-0.8,1.1-1.4
	c2.3-1.6,4.7-3.3,7.3-5.2c2.5-1.9,4.5-3.4,5.8-4.6c1.7-1.4,2.1-2.4,1.2-3.1c-0.2-0.2-0.3-0.6-0.2-1c0.2-0.5,0.6-1,1.4-1.7
	c1.4-1.1,2.5-2.4,3.3-4c0.8-1.6,1.3-3.1,1.4-4.4c0.2-1,0-2-0.5-2.8c-0.5-0.9-1.2-1.6-2-2.2c-0.9-0.6-1.9-1.2-3.1-1.6
	c-1.2-0.4-2.5-0.7-3.8-1c-2.5-0.5-4.1-0.4-4.7,0.2C60,40.7,60,41.3,60.7,42c1.6,1.8,2.6,3.3,3,4.4c0.4,1.1,0.5,2.4,0.4,3.8
	c-0.1,1-0.4,1.8-0.8,2.6C62.8,53.6,62,54.3,61,55c-1,0.6-2.3,1.3-4.1,1.9c-1.7,0.6-3.9,1.3-6.6,2c0.2-0.8,0.3-1.6,0.4-2.4
	c0.2-0.8,0.3-1.4,0.5-1.7c0.4-0.6,0.2-1.6-0.5-3c-0.6-1.4-2.5-3.6-5.5-6.6c0.8-0.3,1.4-0.4,1.7-0.2c0.3,0.1,0.8,0.6,1.3,1.4
	c1,1.8,2.3,2.9,3.8,3.1c1.5,0.2,2.5-0.1,3.1-0.8c0.8-0.9,1.4-1.8,1.9-2.6c0.5-1,0.9-2.1,1.2-3.4c0.3-1.4,0.5-3,0.6-4.9
	c0.2-2,0.2-4.5,0.2-7.6c0-5.1,0.2-8.8,0.6-11c0.5-2.3,0.9-3.9,1.3-4.7c0.5-1.3,0.5-2.7,0.1-4.3c-0.4-1.6-1.9-3.4-4.7-5.5
	c-2.8-2.1-5-3.4-6.7-4.1c-1.6-0.7-3.1-0.9-4.7-0.5c-1.5,0.2-4.1,0.9-7.6,2C34,3.4,30.2,4.9,26.2,6.7c-1,0.5-1.8,1.6-2.3,3.4
	c-0.5,1.7-0.8,3.5-0.8,5.4c1-2.2,1.8-3.4,2.3-3.8c0.6-0.5,1.3-0.6,2.1-0.5c2.9,0.6,5.7,0.7,8.2,0.1c2.6-0.6,5.7-2.1,9.2-4.3
	c0.9-0.6,1.7-0.3,2.4,0.7c0.7,1,1.2,3.1,1.3,6.1v0.5c-0.8-0.2-1.6-0.4-2.5-0.5c-0.8-0.1-1.6-0.2-2.4-0.2c-1.4-0.2-3.5,0.2-6.3,1
	c-2.8,0.7-6,1.7-9.5,2.9c-1-0.4-2.2-0.7-3.5-0.8c-1.2-0.2-2.2-0.4-3-0.4c-1,0-1.2,0.4-0.8,1.3c0.7,1.5,1.3,2.9,1.7,4.1
	c0.5,1.2,0.8,2.4,1,3.6c0.2,1.2,0.2,2.5,0.2,4c0,1.4-0.1,3-0.2,4.9c-0.4,4-0.6,7.5-0.5,10.6c0.1,3,0.7,5,1.8,6.2
	c-0.4,1.3,0,2.6,1.3,3.8c0.2,0.3,0.3,0.7,0.5,1.1c0.2,0.3,0.2,0.7,0,1.1c-1.4,0.4-2.9,0.7-4.4,1c-1.4,0.2-2.6,0.4-3.6,0.6
	c-0.2-1-0.4-2-0.6-2.9c-0.2-1-0.6-2-1.2-3c-0.5-1.1-1.2-2.4-2-3.7c-0.8-1.4-1.9-3-3.2-4.9c-0.5-0.9-0.7-1.7-0.6-2.4
	c0.1-0.8,0.6-1.4,1.6-1.9c1-0.6,1.3-1.1,1.1-1.4c-0.2-0.4-1-0.5-2.6-0.4c-1.5,0.2-2.7,0.8-3.6,1.9c-0.9,1.1-1.5,2.5-1.8,4.2
	c-0.3,1.6-0.4,3.4-0.2,5.3c0.2,1.8,0.7,3.5,1.3,5c0.3,0.9,0.5,1.8,0.6,2.6c0.2,0.8,0.1,1.6-0.2,2.4c-0.3,0.7-0.9,1.4-1.8,2
	c-0.9,0.6-2.1,1-3.7,1.3c-1,0.2-1.5,0.5-1.7,1.1c-0.2,0.6-0.3,1.9-0.5,4c-0.2,2.7,0.6,4.6,2.4,5.6c1.8,1,4.1,0.8,6.9-0.6
	c2.7-1.3,4.9-2.3,6.7-3.1c1.7-0.8,3.3-1.4,4.5-1.8c1.3-0.5,2.4-0.8,3.3-1c1-0.2,2.1-0.3,3.2-0.4c0,0.4,0,0.8,0,1.3
	c0,0.5,0,1-0.1,1.6c-2.3,1-4.9,2-7.8,3.1c-2.8,1-5.6,2.1-8.5,3.2c-2.8,1-5.4,2-7.9,3c-2.5,1-4.5,1.8-6.1,2.5c-1.4,0.6-2,0.6-1.9,0
	c0.2-0.4,0-0.6-0.4-0.6s-1.2,0.4-2.5,1.3c-0.6,0.5-1,1.2-1.1,2c-0.1,0.8,0,1.5,0.1,2.2c1.1,3.4,3,5.1,5.7,5.2
	c2.8,0.1,5.6-1.3,8.5-4.1c0.5,0.3,0.9,0.8,1.2,1.6C5.9,89.4,6,90.2,6,91c0.1,0.9,0,1.7-0.2,2.4c-0.2,0.8-0.6,1.4-1.1,1.7
	C3.6,96,3,97,2.9,98.2c0,1.3,0.4,3,1.1,5c0.7,2.5,2.1,2.9,4.3,1.2c3-2.3,5-4.6,6-7c1-2.2,1.3-4.3,0.8-6.1c-0.2-1.2-0.3-2.7-0.2-4.4
	c0.2-1.8,0.7-4,1.7-6.6c1.4-0.8,2.8-1.5,4.2-2c1.4-0.6,3.1-1.3,5.1-2c-0.2,3.3-0.4,6.4-0.5,9.4c-0.1,2.9,0,6.2,0.1,9.8
	c0.1,2,0.4,3.6,0.8,4.9c0.6,1.3,1.2,2.2,1.8,2.9c0.6,0.6,1.3,1,1.9,1c0.6,0.1,1.2-0.1,1.6-0.6c0.3-0.5,0.6-1,0.7-1.6
	c0.2-0.6,0.4-1.4,0.5-2.6c0.1-1.2,0.1-2.8,0-4.9c-0.1-2.1-0.2-4.8-0.4-8.3c-0.1-1.9,0-4,0.4-6.1c0.4-2.2,1-4.6,1.8-7.3
	c0.9-2.8,2-5.9,3.3-9.4c1.4-3.5,3.1-7.5,5.1-11.9c-0.1,2.1-0.2,4.4-0.2,7c-0.1,2.6-0.1,5.2-0.1,8s0,5.6,0,8.5
	c0.1,2.9,0.2,5.6,0.2,8.3c0.1,4.9,0.2,8.8,0.4,11.6c0.2,3,0.4,5.3,0.7,7c0.4,1.7,0.9,2.9,1.6,3.7c0.7,0.8,1.7,1.5,2.9,2
	c1,0.6,1.7,0.4,2.1-0.5c0.5-0.8,0.5-3,0.1-6.7c-0.4-4.1-0.7-7.5-0.8-10.3c-0.2-2.8-0.3-5-0.4-6.6c2.3-0.9,4-1.5,5.1-1.8
	c1.1-0.3,2.2-0.6,3.3-0.7c1.4,0.1,2.2,0.4,2.5,1c0.3,0.5,0.4,1.9,0.4,4.2c-0.1,1.5,0.2,3.2,0.7,5c0.6,1.9,1.4,3.9,2.6,5.9
	c-1.5,0.6-2.7,1-3.5,1.4c-0.7,0.5-1.2,0.8-1.3,1.1c-0.2,0.3-0.1,0.5,0.1,0.6c0.2,0.2,0.6,0.2,1,0.2c3.2-0.3,6.2-0.4,9.2-0.2
	c2.9,0.2,5.6,0.6,8,1.1c0.3,0.1,0.7,0.1,1.2,0.1c0.6,0,1.1-0.1,1.6-0.4c0.5-0.2,0.9-0.4,1.2-0.8c0.3-0.3,0.5-0.8,0.5-1.3
	C82,97.3,81.4,96,80.3,94.8z M31,29.8c-0.1-0.7-0.2-1.7-0.2-2.9c0-1.2-0.1-2.2-0.2-3c2.5,0.4,4.9,0.4,6.9,0c2.1-0.5,4-1.2,5.6-2
	c1.2-0.6,2.3-1.1,3.2-1.4c1-0.4,1.8-0.7,2.5-1c0,1.2,0,2.4,0,3.7c0,1.3,0,2.6-0.1,4c-1-0.6-2.1-0.8-3.3-0.8c-1.1-0.1-2.1,0.2-3,0.7
	c-0.5,0.2-1.2,0.5-2.1,0.8c-1,0.3-2,0.6-3.2,1c-1.1,0.2-2.2,0.5-3.3,0.7C32.5,29.8,31.7,29.8,31,29.8z M41.1,52.5
	c-1.5,3.6-3,7-4.5,10.3c-1.5,3.3-2.7,5.9-3.5,7.8c0.1-1,0.1-1.9,0.1-2.9c0.1-1,0.2-2,0.4-3c1.5-1.1,2.4-2.2,2.6-3.1
	c0.2-1-0.3-2-1.7-3.1c0.5-1.4,0.6-2.8,0.4-4.2c-0.2-1.4-1.1-2.6-2.6-3.8c1.5-0.6,3.1-1.3,4.7-2c1.7-0.8,3.1-1.4,4.4-1.8
	c0.4,0.5,0.6,1.2,0.7,2.3C42.1,49.9,41.8,51.1,41.1,52.5z M43.7,39.9c-0.4-0.2-1-0.2-1.9-0.1c-0.8,0-1.9,0.2-3.3,0.5
	C37,40.5,35.2,41,33,41.7c-0.7,0.2-1.1,0-1.2-0.5c-0.1-0.6,0.6-1.3,2-2.2c1-0.6,2.3-1.3,3.7-2s2.8-1.4,4.2-1.9
	c1.4-0.6,2.6-1.2,3.8-1.6c1.3-0.5,2.3-0.8,3-1.1c-0.1,1.6-0.2,3.1-0.2,4.6c0,1.4,0,2.5-0.1,3.5c-0.1,1.3-1.2,1.3-3.2,0
	C44.6,40.3,44.2,40.1,43.7,39.9z M49.3,71.3c0-1.1,0-2.1,0-3c0.1-0.9,0.2-1.8,0.2-2.6c2.6,0.1,4.2,0.2,4.7,0.5
	c0.6,0.2,0.6,0.6,0.2,1c-1,1-1.8,1.8-2.6,2.5C51.1,70.3,50.3,70.9,49.3,71.3z"/>
</svg>
