<svg width="124" height="105" viewBox="0 0 124 105" fill="none" xmlns="http://www.w3.org/2000/svg">
<path d="M96.3288 90.6856C96.0935 90.921 95.7993 91.0975 95.4462 91.0387L92.4455 90.8033L92.9162 93.9806C93.0338 94.569 92.622 95.0986 92.0336 95.2162C91.4452 95.3339 90.9156 94.9221 90.798 94.3337L90.0919 89.8619C90.0331 89.5677 90.1507 89.2147 90.3861 88.9793C90.6214 88.744 90.9156 88.6263 91.2687 88.6263L95.6228 88.9205C96.2111 88.9793 96.6818 89.45 96.623 90.0972C96.5642 90.2737 96.4465 90.5091 96.3288 90.6856Z" fill="#EC8822"/>
<path d="M45.9054 60.7367C31.4311 46.2623 29.0187 24.0801 19.9575 27.9635C13.1322 30.9054 25.3706 49.6162 25.3706 49.6162C25.3706 49.6162 21.958 41.6729 17.2509 44.1441C12.1319 46.8507 23.2525 57.0887 27.1947 60.1483C27.1947 60.1483 20.0163 53.9114 19.4279 55.5589C17.6039 60.5013 26.3121 70.7981 36.2558 68.6799C42.6104 67.3266 50.4948 65.3261 45.9054 60.7367Z" fill="#989899"/>
<path d="M94.7417 52.0285C111.981 63.2668 124.161 62.5607 123.69 69.2683C123.22 76.2701 109.569 68.9153 109.569 68.9153C109.569 68.9153 115.1 72.6221 113.511 75.211C111.099 79.1532 105.627 74.3873 101.861 71.5042C101.861 71.5042 105.803 73.8578 104.744 76.329C103.156 80.0358 89.9757 73.4459 89.3873 63.7963C88.9755 57.5594 89.5639 48.6159 94.7417 52.0285Z" fill="#989899"/>
<path d="M59.2603 103.454C58.9661 103.513 58.6131 103.395 58.3189 103.159L56.083 101.1L54.4356 103.866C54.1414 104.395 53.4941 104.572 52.9646 104.219C52.435 103.924 52.2585 103.277 52.6116 102.748L54.9063 98.8642C55.0828 98.57 55.3181 98.3935 55.6712 98.3347C56.0242 98.2758 56.3184 98.3935 56.5537 98.6289L59.7311 101.63C60.1429 102.042 60.2018 102.748 59.7899 103.159C59.6722 103.336 59.4368 103.454 59.2603 103.454Z" fill="#EC8822"/>
<path d="M96.3292 55.3235C96.3292 55.3235 96.3291 55.3235 96.2703 55.3824C93.8579 39.7313 80.2073 27.787 63.6736 27.787C45.4336 27.787 30.665 42.3202 30.665 60.266C30.665 79.0944 39.0202 92.745 50.8468 98.3936C52.7296 99.2762 54.789 99.3938 56.7895 98.8642C57.8486 98.6289 59.4372 97.7463 62.5557 93.9807C65.8507 89.9796 77.1477 90.0973 79.7366 90.6268C83.62 91.3329 88.6213 94.2748 93.3284 89.7442C97.3882 85.802 98.212 65.6203 96.3292 55.3235Z" fill="#E7E4E2"/>
<path d="M78.1474 35.6125C74.9113 35.3772 71.8517 36.0832 69.1451 37.3777C65.6736 39.084 61.6726 39.084 58.2011 37.3777C55.5533 36.0832 52.4349 35.436 49.1987 35.6125C40.726 36.1421 33.8418 42.7909 33.2534 50.9695C32.5474 60.6779 40.4906 68.7388 50.4344 68.7388C53.2586 68.7388 55.9652 68.0916 58.3188 66.9148C61.6726 65.2673 65.6736 65.2673 69.0274 66.9148C71.381 68.0916 74.0876 68.7388 76.9118 68.7388C86.7967 68.7388 94.7988 60.6779 94.0928 50.9695C93.5632 42.8497 86.6202 36.2009 78.1474 35.6125Z" fill="white"/>
<path d="M48.7877 52.2051C51.5499 52.2051 53.789 49.9659 53.789 47.2038C53.789 44.4416 51.5499 42.2025 48.7877 42.2025C46.0256 42.2025 43.7864 44.4416 43.7864 47.2038C43.7864 49.9659 46.0256 52.2051 48.7877 52.2051Z" fill="#231F20"/>
<path d="M47.5521 47.6744C48.527 47.6744 49.3173 46.8842 49.3173 45.9093C49.3173 44.9344 48.527 44.1441 47.5521 44.1441C46.5772 44.1441 45.787 44.9344 45.787 45.9093C45.787 46.8842 46.5772 47.6744 47.5521 47.6744Z" fill="white"/>
<path d="M78.5006 52.2051C81.2627 52.2051 83.5019 49.9659 83.5019 47.2038C83.5019 44.4416 81.2627 42.2025 78.5006 42.2025C75.7385 42.2025 73.4993 44.4416 73.4993 47.2038C73.4993 49.9659 75.7385 52.2051 78.5006 52.2051Z" fill="#231F20"/>
<path d="M77.2064 47.6744C78.1813 47.6744 78.9716 46.8841 78.9716 45.9093C78.9716 44.9344 78.1813 44.1441 77.2064 44.1441C76.2315 44.1441 75.4412 44.9344 75.4412 45.9093C75.4412 46.8841 76.2315 47.6744 77.2064 47.6744Z" fill="white"/>
<path d="M63.2033 51.9109C63.2033 51.9109 62.2031 55.0293 62.7326 55.3235C63.0268 55.5589 65.5569 54.5586 66.2041 50.3222L63.2033 51.9109Z" fill="#EC8822"/>
<path d="M62.026 47.9098C62.026 47.9098 63.0851 52.0285 63.0263 53.9114C63.0263 54.3821 63.7324 54.3821 64.0854 54.0291C65.321 52.9111 66.2624 51.7932 66.1447 49.2043L63.0263 47.2626L62.026 47.9098Z" fill="#D32E2E"/>
<path d="M62.202 45.7328C62.202 45.7328 61.0841 45.6151 59.2012 48.0863C59.2012 48.0863 62.202 47.0861 66.2619 49.2043C66.2031 49.2043 65.0263 45.7916 62.202 45.7328Z" fill="#EC8822"/>
<path d="M46.3176 77.0939C44.9055 76.682 43.9052 75.6229 43.4934 74.3285C43.0226 76.1525 44.0818 78.0353 45.9058 78.5648C47.7298 79.0944 49.6126 78.0942 50.2598 76.329C49.1419 77.1527 47.6709 77.5057 46.3176 77.0939Z" fill="#989899"/>
<path d="M55.4383 84.8017C54.1438 84.4487 53.2613 83.4485 52.8494 82.2717C52.4375 83.9192 53.3789 85.6843 55.0264 86.1551C56.6739 86.6258 58.4391 85.7432 58.9686 84.0957C58.0272 84.8606 56.6739 85.1548 55.4383 84.8017Z" fill="#989899"/>
<path d="M67.1465 85.802C65.8521 85.802 64.6753 85.2136 63.9104 84.2133C64.028 85.9197 65.4402 87.273 67.2053 87.273C68.9117 87.2142 70.3238 85.802 70.3238 84.0957C69.6177 85.0959 68.4998 85.802 67.1465 85.802Z" fill="#989899"/>
<path d="M77.443 83.0366C78.6786 82.507 79.4435 81.448 79.7377 80.2123C80.3849 81.801 79.62 83.625 78.0314 84.3311C76.4427 85.0371 74.6187 84.331 73.8538 82.7424C74.9129 83.4484 76.2662 83.5661 77.443 83.0366Z" fill="#989899"/>
<path d="M58.0261 78.8002C56.614 78.6237 55.4372 77.7411 54.79 76.5054C54.6135 78.3883 55.9668 80.0946 57.7908 80.33C59.6736 80.5653 61.3799 79.2709 61.733 77.4469C60.8504 78.506 59.4971 79.0355 58.0261 78.8002Z" fill="#989899"/>
<path d="M84.1514 74.7403C85.5047 74.1519 86.3873 72.9752 86.6227 71.6807C87.3287 73.4459 86.505 75.4464 84.7398 76.2113C83.0335 76.9762 80.9741 76.2112 80.1504 74.5049C81.386 75.1521 82.857 75.3287 84.1514 74.7403Z" fill="#989899"/>
<path d="M72.7362 77.9176C74.1484 77.5646 75.2075 76.5055 75.6782 75.2699C76.09 77.0939 74.9721 78.9767 73.1481 79.4474C71.3241 79.9181 69.4413 78.859 68.9117 77.035C69.912 77.9176 71.3241 78.2707 72.7362 77.9176Z" fill="#989899"/>
<path d="M64.6147 30.8466C64.6147 30.8466 67.1447 27.9634 70.7339 27.0809C73.7935 26.316 72.6167 24.1978 69.7925 25.7276C67.4389 26.9632 64.6147 30.8466 64.6147 30.8466Z" fill="#989899"/>
<path d="M62.7333 30.0228C62.7333 30.0228 62.2037 26.669 59.8502 24.7862C58.2027 23.4329 59.2029 22.0796 60.0267 21.9619C61.6153 21.7854 62.9098 24.0801 62.7333 30.0228Z" fill="#989899"/>
<path d="M61.1434 29.611C61.1434 29.611 56.2598 24.0213 53.1414 25.4334C51.0232 26.4336 57.7308 27.4339 61.1434 29.611Z" fill="#989899"/>
<path d="M27.0921 19.3027L24.953 18.8986L16.566 63.3006L18.7052 63.7046L27.0921 19.3027Z" fill="white"/>
<path d="M25.0762 6.42848L30.7247 0.250409C31.1366 -0.220301 31.9015 0.0150399 32.0192 0.603428L33.4902 8.84086L41.0804 12.2535C41.6688 12.4889 41.6688 13.3126 41.1392 13.6068L33.7844 17.549L32.8429 25.8453C32.7841 26.4925 32.0192 26.7279 31.5485 26.316L25.4881 20.5498L17.3095 22.2561C16.6623 22.3738 16.1916 21.7266 16.4858 21.197L20.1338 13.6656L16.015 6.42848C15.7208 5.89893 16.1327 5.19285 16.78 5.31053L25.0762 6.42848Z" fill="#FFDD55"/>
<path d="M14.7792 26.2572C14.7792 26.2572 -0.460026 33.1413 0.0106842 41.2611C0.481395 49.3808 18.4861 58.795 41.6097 59.9718C41.6097 59.9718 16.2502 57.8536 4.42359 43.7323C-2.6959 35.1418 14.7792 26.2572 14.7792 26.2572Z" fill="url(#paint0_linear_106:169)"/>
<path d="M97.6243 52.7934C97.6243 52.7934 118.336 53.4407 121.689 62.6784C125.043 71.916 77.8544 85.3313 50.7297 82.0952C50.7297 82.0952 69.7935 84.6253 101.743 72.5633C137.87 58.9715 97.6243 52.7934 97.6243 52.7934Z" fill="url(#paint1_linear_106:169)"/>
<defs>
<linearGradient id="paint0_linear_106:169" x1="0.0169211" y1="43.085" x2="41.6222" y2="43.085" gradientUnits="userSpaceOnUse">
<stop stop-color="#FFF480"/>
<stop offset="1" stop-color="#FFFFA3" stop-opacity="0"/>
</linearGradient>
<linearGradient id="paint1_linear_106:169" x1="51.2716" y1="66.7308" x2="121.682" y2="69.1915" gradientUnits="userSpaceOnUse">
<stop stop-color="#FFF480"/>
<stop offset="1" stop-color="#FFFFA3" stop-opacity="0"/>
</linearGradient>
</defs>
</svg>
