<svg width="142" height="114" viewBox="0 0 142 114" fill="none" xmlns="http://www.w3.org/2000/svg">
<g clip-path="url(#clip0_306_5502)">
<path fill-rule="evenodd" clip-rule="evenodd" d="M132.438 180.89C163.774 159.933 173.519 112.557 152.562 81.2221C131.605 49.8869 84.2294 40.1418 52.8942 61.0988C21.559 82.0558 11.8139 129.431 32.7709 160.766C53.7279 192.102 101.103 201.847 132.438 180.89ZM136.348 186.307C172.419 162.183 182.104 113.384 157.979 77.3129C133.855 41.2415 85.0564 31.5567 48.985 55.6813C39.2844 62.169 31.4921 70.4413 25.7525 79.7707C25.9927 79.6807 26.2718 79.7637 26.4206 79.9862C26.5943 80.2458 26.5246 80.5971 26.2649 80.7708C26.0052 80.9444 25.654 80.8747 25.4803 80.6151C25.429 80.5384 25.399 80.4537 25.3888 80.3679C20.2537 88.8843 16.8156 98.2605 15.1825 107.951C15.324 108.188 15.272 108.492 15.0648 108.669C14.2213 113.972 13.9175 119.365 14.171 124.759C14.1989 124.794 14.2256 124.831 14.2511 124.869C14.6316 125.438 14.6226 126.154 14.2865 126.701C15.2315 139.848 19.5018 152.936 27.3534 164.676C51.4779 200.747 100.276 210.432 136.348 186.307ZM126.392 174.092C155.194 154.829 162.927 115.866 143.664 87.0637C124.401 58.2619 85.4376 50.529 56.6358 69.7916C27.834 89.0543 20.101 128.018 39.3636 156.82C58.6263 185.622 97.5902 193.355 126.392 174.092ZM127.003 175.006C156.31 155.406 164.178 115.759 144.578 86.4524C124.978 57.1458 85.3311 49.2773 56.0245 68.8776C26.7178 88.4778 18.8493 128.125 38.4496 157.431C58.0498 186.738 97.6967 194.606 127.003 175.006ZM53.6839 57.6698C54.2049 58.4488 53.9958 59.5026 53.2168 60.0236C52.4378 60.5446 51.384 60.3354 50.863 59.5564C50.3421 58.7775 50.5512 57.7236 51.3302 57.2027C52.1091 56.6817 53.163 56.8909 53.6839 57.6698ZM83.4713 45.2334C83.8187 45.7527 83.6792 46.4553 83.1599 46.8026C82.6406 47.1499 81.9381 47.0105 81.5907 46.4912C81.2434 45.9719 81.3829 45.2693 81.9022 44.922C82.4215 44.5747 83.124 44.7141 83.4713 45.2334Z" fill="#F2F2F2"/>
<path d="M72.5573 94.3547V83.3841H53V85.9473H69.8403V91.7915H56.7423V88.408H54.0765V101.685C54.0765 103.992 55.1531 105.146 57.3575 105.146H71.6089C72.6342 105.095 73.4801 104.787 74.0953 104.223C74.6079 103.659 75.0436 101.737 75.3769 98.4558L72.7624 97.6356C72.6086 100.25 72.3779 101.762 72.0191 102.121C71.6602 102.429 71.2757 102.583 70.8656 102.583H58.1264C57.2037 102.583 56.7423 102.121 56.7423 101.198V94.3547H72.5573Z" fill="#E8E8E8"/>
<path d="M78.1964 99.3017C78.0939 101.352 77.8119 103.198 77.3505 104.787L79.5549 105.505C79.965 103.787 80.2213 101.814 80.3239 99.5836L78.1964 99.3017ZM83.0665 98.8916L81.0672 99.3273C81.2723 100.865 81.4517 102.659 81.6055 104.659L83.8355 104.121C83.6048 102.224 83.3485 100.481 83.0665 98.8916ZM85.681 92.4066L83.7073 93.0731C83.8867 93.6883 84.0662 94.3547 84.22 95.0211C83.1947 95.3031 82.1694 95.5338 81.1441 95.7388C82.5795 93.9958 84.3737 91.125 86.5781 87.1777L84.2712 86.3062C83.7073 87.3827 83.1947 88.408 82.7077 89.3308C81.8874 89.4846 81.0672 89.6127 80.247 89.7153C81.4517 87.9979 82.6308 85.8192 83.7842 83.1534L81.4517 82.2307C80.5802 84.6914 79.5549 86.9726 78.3758 89.0488C78.0939 89.4846 77.7606 89.7922 77.4018 89.946L77.9913 92.0734C79.1961 91.8684 80.3495 91.6889 81.4773 91.5095C80.4008 93.355 79.5036 94.6366 78.7859 95.38C78.4783 95.6619 78.1195 95.8926 77.6838 96.072L78.3246 98.2764C80.2982 98.0201 82.4001 97.5331 84.6044 96.8666C84.6557 97.1999 84.7326 97.5587 84.7839 97.9176L86.9113 97.3793C86.5525 95.5081 86.1424 93.842 85.681 92.4066ZM85.7322 98.2251L83.8867 98.8659C84.2968 100.173 84.6557 101.685 84.9889 103.377L86.937 102.48C86.6037 100.968 86.1936 99.558 85.7322 98.2251ZM87.0395 83.4354V85.2296H92.6273V86.1268H87.7828V87.8185H100.009V86.1268H95.1649V85.2296H100.753V83.4354H95.1649V82.2307H92.6273V83.4354H87.0395ZM87.1933 88.6644V93.2525H100.522V88.6644H87.1933ZM98.292 91.6633H96.4465V90.2535H98.292V91.6633ZM94.7291 91.6633H92.9092V90.2535H94.7291V91.6633ZM91.1919 91.6633H89.4233V90.2535H91.1919V91.6633ZM87.911 94.0984V102.89H90.5511C89.3207 103.403 87.8597 103.813 86.1167 104.172L87.0651 106.12C89.372 105.556 91.3201 104.838 92.9605 103.992L91.9865 102.89H95.575L94.806 104.044C96.6259 104.556 98.3945 105.274 100.138 106.197L101.342 104.377C100.086 103.813 98.7277 103.326 97.2923 102.89H99.8556V94.0984H87.911ZM97.3692 101.224H90.346V100.276H97.3692V101.224ZM90.346 98.9172V97.9945H97.3692V98.9172H90.346ZM90.346 96.6872V95.6619H97.3692V96.6872H90.346Z" fill="#E8E8E8"/>
<path d="M114.03 97.4305C112.697 99.2761 111.057 100.917 109.083 102.301L110.724 104.428C112.749 102.89 114.466 101.096 115.876 99.0454L114.03 97.4305ZM121.797 97.3537L120.156 99.1735C121.899 100.66 123.591 102.378 125.206 104.377L127 102.403C125.436 100.609 123.693 98.9172 121.797 97.3537ZM108.314 82C107.135 85.9473 105.29 89.3821 102.829 92.2785L103.726 95.1493C104.495 94.3291 105.238 93.4832 105.905 92.6117V106.017H108.622V88.4593C109.545 86.7676 110.288 85.0246 110.852 83.2047L108.314 82ZM111.775 83.2816V91.9453H116.67V93.9702H109.852V96.5847H116.67V105.992H119.336V96.5847H126.41V93.9702H119.336V91.9453H124.283V83.2816H111.775ZM121.643 89.3821H114.415V85.8448H121.643V89.3821Z" fill="#E8E8E8"/>
</g>
<defs>
<clipPath id="clip0_306_5502">
<rect width="141.75" height="114" fill="white"/>
</clipPath>
</defs>
</svg>
