<svg width="81" height="70" viewBox="0 0 81 70" fill="none" xmlns="http://www.w3.org/2000/svg">
<ellipse rx="21.1733" ry="2.76292" transform="matrix(-0.999913 -0.0131704 -0.0131704 0.999913 47.2077 67.1442)" fill="#262626" fill-opacity="0.05"/>
<ellipse rx="12.403" ry="2.65785" transform="matrix(-0.999913 -0.0131704 -0.0131704 0.999913 13.546 67.3107)" fill="#262626" fill-opacity="0.05"/>
<path d="M55.3565 33.8645C69.8117 27.0373 74.1982 18.6965 78.5302 21.7367C83.0605 24.8965 72.6549 30.9304 72.6549 30.9304C72.6549 30.9304 77.3608 28.7814 78.4711 30.8851C80.1645 34.0841 74.7685 35.7633 71.3224 37.0803C71.3224 37.0803 74.4821 35.4312 75.7246 37.1369C77.5882 39.6954 67.8859 45.7292 61.1487 42.1925C56.7815 39.9274 50.9898 35.8998 55.3565 33.8645Z" fill="#989899"/>
<path d="M53.2136 64.7346L56.1229 66.6238" stroke="#D67B29" stroke-width="1.5" stroke-miterlimit="10" stroke-linecap="round"/>
<path d="M54.5741 67.5683L53.4028 65.1125C53.2894 64.848 53.2139 64.5835 53.1761 64.319L53.0627 63.1855" stroke="#EC8822" stroke-width="1.5" stroke-miterlimit="10" stroke-linecap="round"/>
<path d="M56.4631 61.0699C56.4631 61.0699 56.0475 62.7323 54.8762 63.8658C53.5538 65.1126 50.1156 65.8683 47.6975 62.619L51.0224 60.8054L56.4631 61.0699Z" fill="#B2B2B2"/>
<path d="M27.4074 60.6541L25.8206 63.2611" stroke="#D67B29" stroke-width="1.5" stroke-miterlimit="10" stroke-linecap="round"/>
<path d="M24.4224 61.4853L27.0294 60.7674C27.2938 60.6918 27.5583 60.654 27.8228 60.6918L28.9563 60.8052" stroke="#EC8822" stroke-width="1.5" stroke-miterlimit="10" stroke-linecap="round"/>
<path d="M36.6648 60.9187C36.6648 60.9187 33.2266 62.6189 30.1284 61.7499C26.728 60.8431 24.2721 57.3293 25.33 54.0422L36.6648 60.9187Z" fill="#D7D7D7"/>
<path d="M56.5379 19.3578C56.5379 19.3578 56.5001 17.2797 55.5934 15.6173C55.1022 14.6727 54.7621 13.9548 55.3289 13.9548C56.4246 13.9926 57.1047 15.5417 56.5379 19.3578Z" fill="#989899"/>
<path d="M18 41.0071C18 41.0071 21.4382 41.8005 23.6296 39.3446C27.9746 33.2994 32.9997 15.2393 49.3219 16.7128C71.2736 18.7153 70.4802 36.6621 66.1351 43.9919C66.6263 46.2967 66.1351 50.3394 65.5306 52.3797C63.1881 60.2762 54.4225 63.979 43.3144 62.7321C41.0852 62.4676 38.7427 62.2409 36.8536 61.712C17.8867 56.3468 18 41.0071 18 41.0071Z" fill="#D7D7D7"/>
<path d="M68.9699 34.811C69.2721 41.234 66.1362 44.7478 66.1362 44.7478C66.1362 44.7478 64.3982 44.4833 62.169 45.2012C58.5041 46.3725 47.5849 46.0324 45.8091 35.7555C44.4489 28.0479 51.0609 20.2269 58.2018 20.718C64.776 21.2092 68.4787 24.6474 68.9699 34.811Z" fill="white"/>
<path d="M64.7704 32.9153C64.8143 30.9125 64.0382 29.2711 63.0368 29.2491C62.0354 29.2271 61.1879 30.8329 61.144 32.8357C61.1001 34.8386 61.8762 36.48 62.8777 36.5019C63.8791 36.5239 64.7265 34.9181 64.7704 32.9153Z" fill="#231F20"/>
<path d="M64.4046 32.1723C64.4205 31.4421 64.0783 30.8424 63.6402 30.8328C63.2021 30.8232 62.834 31.4074 62.818 32.1376C62.802 32.8678 63.1442 33.4675 63.5823 33.4771C64.0205 33.4867 64.3886 32.9025 64.4046 32.1723Z" fill="white"/>
<path d="M70.8582 38.1358C70.8582 38.1358 69.1202 37.8713 67.8734 38.3625C66.8532 38.7403 66.6266 36.2844 67.42 35.6043C68.2134 34.9242 70.8582 38.1358 70.8582 38.1358Z" fill="#EC6C22"/>
<path d="M54.951 18.3377C54.951 18.3377 53.0241 16.4864 50.9461 16.1463C49.0569 15.8063 50.0015 14.3705 51.7395 15.1262C53.2886 15.8441 54.951 18.3377 54.951 18.3377Z" fill="#989899"/>
<path d="M55.9718 18.6777C55.9718 18.6777 55.0651 16.2974 52.9492 15.0128C51.1734 13.9549 50.7956 12.8969 51.3624 12.6325C52.4958 12.1035 54.6872 12.9347 55.9718 18.6777Z" fill="#989899"/>
<path d="M55.2538 56.687C54.4604 56.1958 54.007 55.3268 53.9692 54.4578C53.3269 55.5157 53.6292 56.8759 54.6871 57.5559C55.745 58.236 57.1429 57.9338 57.8608 56.9136C57.0296 57.2537 56.0472 57.1781 55.2538 56.687Z" fill="#989899"/>
<path d="M54.4978 50.3773C53.6288 49.6594 53.251 48.6393 53.3266 47.6191C52.4198 48.7526 52.5709 50.3773 53.7044 51.2841C54.8001 52.1908 56.4625 52.0775 57.4449 51.0196C56.4625 51.2841 55.3668 51.0574 54.4978 50.3773Z" fill="#989899"/>
<path d="M61.4504 53.8154C60.3925 53.4375 59.6746 52.5685 59.4102 51.5862C58.9568 52.9464 59.6746 54.4199 61.0348 54.9111C62.395 55.4022 63.9063 54.7599 64.473 53.4375C63.604 54.0421 62.4705 54.231 61.4504 53.8154Z" fill="#989899"/>
<path d="M59.8264 57.8582C59.8264 57.8582 59.1086 59.105 59.3353 59.8607C59.3353 59.8607 60.0909 59.8984 60.6199 59.1428C60.6199 59.1428 60.0909 59.1805 59.8264 57.8582Z" fill="#989899"/>
<path d="M47.7912 48.1906C47.3756 45.9236 43.6729 34.3621 31.5447 30.735C21.6078 27.7879 26.6707 35.6089 29.6177 37.4603C29.6177 37.4603 27.4264 36.1001 26.2551 37.3847C25.0838 38.6316 25.9906 43.0144 31.318 44.7901C31.318 44.7901 26.6707 43.43 26.3307 47.1327C25.9906 50.8354 30.8646 54.3114 37.7032 55.6338C44.5419 56.9562 48.2446 50.4575 47.7912 48.1906Z" fill="#989899"/>
<path d="M69.0444 32.9596C69.0444 32.9596 70.9335 34.1308 71.1602 37.4557C71.1602 37.4557 69.1955 36.1333 67.5331 36.0577C66.2107 35.9822 67.9865 32.8084 69.0444 32.9596Z" fill="#EC8822"/>
<path d="M32.8958 45.0257C32.3676 42.9132 30.2552 40.2725 28.6707 39.7444L27.0863 43.4414C28.3186 44.6737 31.1001 47.2439 32.3676 47.6664C33.6351 48.0889 35.0083 45.7299 35.5364 44.4976C36.0645 44.1455 38.494 44.2864 37.649 43.4414C36.5928 42.3851 35.0083 43.4413 32.8958 45.0257Z" fill="#FD9D3C"/>
<path d="M33.0722 48.1943C34.1284 48.1943 34.1284 48.7225 34.1284 48.7225L33.6003 50.835L33.0722 51.3631C33.0722 51.3631 31.8347 48.1943 33.0722 48.1943Z" fill="#DCAE7F"/>
<path d="M15.1164 62.4538C18.0739 65.8338 23.0383 61.7496 25.1509 59.285L20.3977 56.1162L14.5882 59.8131L12.4757 61.3975C12.6517 63.334 13.4263 67.207 15.1164 67.207C17.2289 67.207 17.2289 67.207 15.1164 62.4538Z" fill="#EF8D2B"/>
<path d="M43.036 24.5937C42.1017 19.6571 38.0397 19.7432 29.052 18.9943C14.8705 17.8127 16.7009 31.2943 24.9326 36.9519C25.7638 40.1874 18.8134 40.8007 11.4196 46.082C5.08199 49.779 9.92646 65.2878 24.9326 59.2853C39.9387 53.2829 30.5864 37.6217 31.8013 36.9519C31.4268 30.5855 44.0317 29.8546 43.036 24.5937Z" fill="#FD9D3C"/>
<path d="M33.6733 24.8614C34.0168 23.7234 33.4162 22.5356 32.3318 22.2082C31.2474 21.8808 30.0898 22.5379 29.7463 23.6759C29.4028 24.8138 30.0034 26.0017 31.0878 26.3291C32.1722 26.6565 33.3297 25.9994 33.6733 24.8614Z" fill="#231F20"/>
<path d="M32.8093 23.8532C32.9103 23.5185 32.7426 23.1718 32.4347 23.0788C32.1267 22.9859 31.7952 23.1818 31.6942 23.5165C31.5931 23.8512 31.7608 24.1979 32.0688 24.2909C32.3767 24.3838 32.7082 24.1879 32.8093 23.8532Z" fill="white"/>
<path d="M34.6694 32.1012C33.9205 31.8515 32.4225 30.9777 32.4225 29.4797" stroke="#512A1C" stroke-width="0.748979" stroke-linecap="round"/>
<path d="M40.661 21.2409C42.1594 20.2419 43.6574 23.4878 42.9085 24.6113C42.1595 25.7347 38.4141 22.7388 40.661 21.2409Z" fill="#652C25"/>
<path d="M23.8087 8.88268C22.6853 12.2531 23.0598 17.4959 26.4302 20.4919H24.5577C21.8115 19.3684 18.5659 17.1215 18.5659 12.2531C18.5659 6.68591 24.9322 5.51228 23.8087 8.88268Z" fill="#FD9D3C"/>
<path d="M23.8094 8.88295C22.6859 12.2534 23.0604 16.3728 25.3074 19.3687C18.9411 15.9983 22.5187 6.26153 23.8094 7.75943C23.8691 7.8287 24.0591 8.13393 23.8094 8.88295Z" fill="#D6832F"/>
<path d="M30.2872 9.77376C28.8252 12.4659 28.3527 16.9736 30.7625 20.0253L29.1728 19.743C27.0105 18.3752 24.5938 15.9782 25.3278 11.8448C26.1671 7.11822 31.7491 7.08162 30.2872 9.77376Z" fill="#FD9D3C"/>
<path d="M30.5155 8.78025C30.564 9.04998 30.5001 9.38314 30.288 9.77374C28.9114 12.3087 28.4121 16.4536 30.3705 19.4767C27.1808 17.4959 27.5549 8.50838 30.5155 8.78025Z" fill="#D6832F"/>
<circle r="0.374489" transform="matrix(-1 0 0 1 41.4102 21.9902)" fill="white"/>
<path d="M8.77923 59.8133C14.5887 65.6227 18.8137 57.1726 20.9263 54.0038L12.4762 52.4194C11.948 52.9476 10.4693 54.3207 8.77923 55.5882C7.93422 54.3207 6.6667 55.0601 6.13857 55.5882C5.96252 59.1091 6.03294 66.1509 7.72296 66.1509C9.83549 66.1509 9.30736 61.3977 8.77923 59.8133Z" fill="#FD9D3C"/>
<path d="M27.264 46.6102C26.7359 39.2164 32.0172 36.0476 32.0172 37.632C36.7704 53.476 29.9047 57.701 25.6796 59.2854C22.2996 60.5529 17.5816 60.5177 15.6451 60.3416C19.6941 58.2291 27.6865 52.5253 27.264 46.6102Z" fill="#F9E4CF"/>
<path d="M29.3752 48.7224C30.9596 49.7787 33.9244 49.7787 34.1284 48.7224C33.6004 51.8912 31.8048 57.7007 28.8472 57.7007C25.1503 57.7007 28.8471 50.3068 29.3752 48.7224Z" fill="#FAB067"/>
<path d="M2.96876 38.6879C6.13755 41.8567 10.3626 46.0818 16.7002 42.913L9.30634 49.2506C7.89799 48.8985 4.44753 47.3493 1.91249 43.9692C-1.2563 39.7442 -0.200037 35.5191 2.96876 38.6879Z" fill="#FD9D3C"/>
<path d="M10.3633 47.6663L9.30702 49.2506C6.14661 48.4604 1.38503 45.0256 0.328769 40.8005C4.55383 47.6663 7.72262 47.6663 10.3633 47.6663Z" fill="#F9E4CF"/>
<path d="M29.7278 43.9693C29.1997 41.8568 27.0873 39.2161 25.5027 38.688L23.9184 42.385C25.1507 43.6173 27.9322 46.1875 29.1997 46.61C30.4672 47.0325 31.8403 44.6735 32.3684 43.4412C32.8966 43.0891 35.3261 43.23 34.4811 42.385C33.4248 41.3287 31.8403 42.3849 29.7278 43.9693Z" fill="#FD9D3C"/>
<path d="M69.2231 3.00523C75.0301 0.883353 78.0056 3.08367 79.8969 4.15378C79.3802 6.41693 76.5691 14.5306 75.3106 17.9152C71.4394 14.7115 68.705 14.891 64.6991 16.2883C60.6932 17.6857 57.7137 16.1758 55.5911 15.1511L59.8009 0.890538C60.9529 1.86549 62.8354 5.3393 69.2231 3.00523Z" fill="#2771FF"/>
<mask id="mask0_2286_40640" style="mask-type:alpha" maskUnits="userSpaceOnUse" x="55" y="0" width="25" height="18">
<path d="M69.2229 3.00523C75.0298 0.883353 78.0054 3.08367 79.8967 4.15378C79.3799 6.41693 76.5689 14.5306 75.3103 17.9152C71.4391 14.7115 68.7048 14.891 64.6989 16.2883C60.6929 17.6857 57.7134 16.1758 55.5908 15.1511L59.8006 0.890538C60.9527 1.86549 62.8352 5.3393 69.2229 3.00523Z" fill="#00008B"/>
</mask>
<g mask="url(#mask0_2286_40640)">
<mask id="mask1_2286_40640" style="mask-type:alpha" maskUnits="userSpaceOnUse" x="57" y="0" width="13" height="11">
<rect x="58.9194" y="0.55542" width="10.6936" height="7.26365" transform="rotate(12.8544 58.9194 0.55542)" fill="#D9D9D9"/>
</mask>
<g mask="url(#mask1_2286_40640)">
<path fill-rule="evenodd" clip-rule="evenodd" d="M62.2417 5.41803L58.537 2.23456L59.2299 1.35427L63.5516 5.06794L69.0565 3.59664L69.2989 4.69036L64.5799 5.9516L68.2846 9.13508L67.9382 9.57522L67.5917 10.0154L63.27 6.30169L57.6404 7.71418L57.5227 6.67928L62.2417 5.41803Z" fill="white"/>
<path fill-rule="evenodd" clip-rule="evenodd" d="M62.7097 5.52475L58.6759 2.05851L59.0916 1.53034L63.4956 5.3147L69.1053 3.81539L69.2507 4.47162L64.1126 5.84489L68.1464 9.31114L67.7307 9.83931L63.3267 6.05495L57.717 7.55426L57.5716 6.89803L62.7097 5.52475Z" fill="#C8102E"/>
<path fill-rule="evenodd" clip-rule="evenodd" d="M62.775 4.61078L63.2654 2.46167L64.9385 2.84346L64.4481 4.99257L68.7587 5.97621L68.3558 7.74181L64.0452 6.75817L63.5212 9.05429L61.8481 8.6725L62.3721 6.37638L58.0615 5.39273L58.4644 3.62713L62.775 4.61078Z" fill="white"/>
<path fill-rule="evenodd" clip-rule="evenodd" d="M63.0134 5.01338L63.6199 2.35577L64.6656 2.59439L64.0591 5.25199L68.6834 6.30723L68.4316 7.41073L63.8073 6.35549L63.2078 8.98267L62.1621 8.74405L62.7616 6.11688L58.1373 5.06164L58.3892 3.95814L63.0134 5.01338Z" fill="#C8102E"/>
</g>
<path fill-rule="evenodd" clip-rule="evenodd" d="M75.4241 5.55547L75.5215 5.01356L75.032 5.26556L74.669 4.85154L74.5608 5.3914L74.0108 5.41704L74.3654 5.83824L74.0426 6.28423L74.593 6.26959L74.7403 6.80009L75.0721 6.36064L75.5787 6.57618L75.442 6.04283L75.9264 5.78109L75.4241 5.55547ZM63.3684 12.18L63.5632 11.0961L62.5841 11.6001L61.8581 10.7721L61.6417 11.8518L60.5417 11.9031L61.251 12.7455L60.6052 13.6375L61.706 13.6082L62.0008 14.6692L62.6643 13.7903L63.6776 14.2214L63.4041 13.1547L64.3729 12.6312L63.3684 12.18ZM70.1713 12.2506L70.0739 12.7925L70.5761 13.0181L70.0917 13.2799L70.2285 13.8132L69.7218 13.5977L69.3901 14.0371L69.2427 13.5066L68.6923 13.5213L69.0152 13.0753L68.6606 12.6541L69.2106 12.6284L69.3188 12.0886L69.6817 12.5026L70.1713 12.2506ZM71.438 7.583L71.5354 7.04108L71.0459 7.29308L70.6829 6.87907L70.5747 7.41892L70.0247 7.44457L70.3793 7.86576L70.0564 8.31175L70.6068 8.29711L70.7542 8.82762L71.0859 8.38817L71.5926 8.6037L71.4559 8.07036L71.9403 7.80862L71.438 7.583ZM76.1505 9.20932L76.0531 9.75124L76.5553 9.97686L76.0709 10.2386L76.2077 10.7719L75.701 10.5564L75.3693 10.9959L75.2219 10.4654L74.6715 10.48L74.9944 10.034L74.6397 9.61281L75.1897 9.58716L75.2979 9.04731L75.6609 9.46132L76.1505 9.20932ZM73.1122 11.0009L73.1609 10.73L72.9161 10.856L72.7346 10.649L72.6805 10.9189L72.4055 10.9317L72.5828 11.1423L72.4214 11.3653L72.6966 11.358L72.7703 11.6232L72.9361 11.4035L73.1895 11.5113L73.1211 11.2446L73.3633 11.1137L73.1122 11.0009Z" fill="white"/>
</g>
<path d="M79.6125 3.68506L71.6906 29.5403" stroke="#DDDDDD" stroke-linecap="round"/>
</svg>
