<svg width="80" height="70" viewBox="0 0 80 70" fill="none" xmlns="http://www.w3.org/2000/svg">
<path d="M64 36.4327C64 47.274 53.2548 56 40 56C26.7452 56 16 46.7452 16 36.4327C16 21.2449 26.7452 1 40 1C53.2548 1 64 21.2449 64 36.4327Z" fill="#2771FF"/>
<mask id="mask0_2286_40635" style="mask-type:alpha" maskUnits="userSpaceOnUse" x="16" y="1" width="48" height="55">
<path d="M64 36.4327C64 47.274 53.2548 56 40 56C26.7452 56 16 46.7452 16 36.4327C16 21.2449 26.7452 1 40 1C53.2548 1 64 21.2449 64 36.4327Z" fill="#1A57CD"/>
</mask>
<g mask="url(#mask0_2286_40635)">
<path fill-rule="evenodd" clip-rule="evenodd" d="M34.021 13.3056L13.8818 3.23605L16.1179 -1.23608L39.6112 10.5106L63.1045 -1.23608L65.3405 3.23605L45.2014 13.3056L65.3405 23.3752L63.1045 27.8474L39.6112 16.1007L16.1179 27.8474L13.8818 23.3752L34.021 13.3056Z" fill="white"/>
<path fill-rule="evenodd" clip-rule="evenodd" d="M36.2571 13.3055L14.3291 2.34148L15.6707 -0.341797L39.6112 11.6285L63.5517 -0.341797L64.8934 2.34148L42.9653 13.3055L64.8934 24.2695L63.5517 26.9528L39.6112 14.9826L15.6707 26.9528L14.3291 24.2695L36.2571 13.3055Z" fill="#C8102E"/>
<path fill-rule="evenodd" clip-rule="evenodd" d="M35.6113 9.30566V1H43.6113V9.30566H64.2226V17.3057H43.6113V25.6113H35.6113V17.3057H15V9.30566H35.6113Z" fill="white"/>
<path fill-rule="evenodd" clip-rule="evenodd" d="M37.1113 10.8057V1H42.1113V10.8057H64.2226V15.8057H42.1113V25.6113H37.1113V15.8057H15V10.8057H37.1113Z" fill="#C8102E"/>
<path d="M36 36L36.9754 37.9746L39.1273 37.506L38.1916 39.4998L39.8997 40.8901L37.7576 41.4016L37.7355 43.6039L36 42.248L34.2645 43.6039L34.2424 41.4016L32.1003 40.8901L33.8084 39.4998L32.8727 37.506L35.0246 37.9746L36 36Z" fill="white"/>
<path d="M51.5 30L52.1096 31.2341L53.4546 30.9413L52.8698 32.1874L53.9373 33.0563L52.5985 33.376L52.5847 34.7524L51.5 33.905L50.4153 34.7524L50.4015 33.376L49.0627 33.0563L50.1302 32.1874L49.5454 30.9413L50.8904 31.2341L51.5 30Z" fill="white"/>
<path d="M54 52.88C50.4965 55.22 42.6537 56 39.5438 56C28.3972 56 16 47.2845 16 37.573C16 32.1799 17.3475 23.5 21.1206 17C17.9884 38.9132 27.479 52.88 54 52.88Z" fill="black" fill-opacity="0.1"/>
</g>
<path fill-rule="evenodd" clip-rule="evenodd" d="M16.642 49.907L17.2929 49.9871C20.9199 50.434 21.459 50.5004 23.588 50.1966C24.8259 50.0199 26.1994 50.308 28.0447 50.695C30.626 51.2364 34.1306 51.9714 39.4791 51.8991C45.1494 51.9451 48.9448 50.7768 51.615 49.9549C52.7981 49.5907 53.7603 49.2945 54.5667 49.2021C57.43 48.8741 58.3558 49.0087 59.4192 49.1633C60.4704 49.3162 61.6561 49.4886 64.9808 49.253C61.5187 49.924 59.2938 49.9542 59.2938 49.9542C62.0249 50.6842 64.7909 53.0906 64.7909 53.0906C64.7909 53.0906 62.6046 51.4955 60.7977 51.6106C64.2481 53.6321 66.2261 55.9948 67.2863 58.4602C68.4699 60.1354 69.1446 61.7737 69.3991 64.6592C69.0744 63.4391 68.6555 62.2758 68.1151 61.232C68.5468 63.6082 68.3394 65.9972 67.9639 68.1963C66.5126 70.8526 20.8838 70.2398 15.6513 68.3424C15.061 66.7907 13.5634 62.5766 16.517 57.4548C15.28 58.5473 14.1852 59.9318 13.2197 61.448C14.6029 58.2755 15.9713 56.8048 18.0978 55.1761C18.8023 54.3112 19.6436 53.4292 20.6442 52.5375C20.6442 52.5375 18.8614 52.4371 17.002 53.5466C16.9041 53.6097 16.8016 53.6746 16.6938 53.7415C16.8635 53.6274 17.0305 53.5206 17.1943 53.4211C17.4715 53.238 17.7114 53.0706 17.9327 52.9162C19.0968 52.104 19.7456 51.6513 22.609 51.1686C19.8824 51.2055 17.641 50.4688 16.642 49.907Z" fill="#ECA75A"/>
<path fill-rule="evenodd" clip-rule="evenodd" d="M59.9998 59.5867C60.5801 53.8575 55.4202 51.3288 51.8071 51.5643C57.4003 52.4672 59.4589 55.9097 59.9998 59.5867ZM20.1782 61.9128C20.5031 61.6723 20.9752 61.1586 21.5956 60.4835C23.748 58.1415 27.6854 53.8573 33.4507 52.3017C26.7516 53.5403 23.116 57.4311 20.1782 61.9128ZM30.5234 56.314L30.5265 56.3126C30.2808 56.5598 29.9445 56.7913 29.5459 57.0656C28.1195 58.0474 25.8962 59.5777 24.182 64.3407C24.7525 60.9745 26.5745 58.0743 30.5234 56.314ZM66.4285 68.2365C66.1383 62.2605 63.2366 57.8573 61.8006 56.3858C62.0139 56.9735 62.3234 57.5402 62.7014 58.2322C63.6561 59.9801 65.0477 62.5278 66.4285 68.2365ZM39.9567 56.1852C38.9705 57.2566 37.7503 59.1294 37.2751 61.2847C36.7993 63.4426 37.0681 65.8975 39.0895 68.1103C38.9578 67.7761 38.8268 67.4602 38.7007 67.156C37.5127 64.2913 36.7568 62.4686 39.9567 56.1852ZM27.9149 67.1349C28.39 64.8678 29.6125 62.8984 30.6007 61.772C29.0416 64.9865 28.4207 67.0912 28.3315 68.7522L27.7169 68.7605C27.7341 68.2064 27.8043 67.6622 27.9149 67.1349ZM46.8783 54.106C50.7009 54.3735 53.0865 60.168 52.9383 62.4626C52.8855 62.325 52.8328 62.1867 52.7799 62.048C51.5391 58.7966 50.2113 55.3173 46.8783 54.106Z" fill="#B7651C"/>
<path fill-rule="evenodd" clip-rule="evenodd" d="M64.7109 51.3826C62.6017 49.5966 60.1003 49.7263 57.952 49.9183C60.712 50.016 62.054 49.748 64.7109 51.3826Z" fill="#FFCA8F"/>
<path fill-rule="evenodd" clip-rule="evenodd" d="M24.0078 51.4453C21.9648 51.9669 19.562 52.4811 17.0527 51.0347C19.594 52.0598 20.8718 51.8795 22.8473 51.6007C23.2071 51.55 23.5899 51.4959 24.0078 51.4453ZM19.6347 58.4457C20.6298 56.166 23.4371 53.0811 27.9845 51.8796C24.5024 52.3838 19.9783 55.4186 19.6347 58.4457ZM49.8113 66.8585C50.7622 64.4866 50.8326 60.6241 47.9838 57.5764C50.4898 59.5585 51.8882 64.1458 49.8113 66.8585ZM57.954 59.7081C57.652 57.9049 56.1368 55.3009 52.9298 53.8991C55.4679 54.6639 58.2939 57.4233 57.954 59.7081ZM32.4776 59.5566C32.7306 57.7459 34.1748 55.1019 37.3427 53.6139C34.8262 54.447 32.076 57.2819 32.4776 59.5566ZM68.7283 58.1923C66.9013 54.0496 64.047 53.4158 61.1496 52.7724C61.007 52.7407 60.8642 52.709 60.7215 52.6769C61.5261 53.048 62.2277 53.3426 62.8557 53.6062L62.8558 53.6063C65.3616 54.6583 66.6956 55.2184 68.7283 58.1923ZM14.6697 58.1493C15.0452 56.4441 15.6222 54.4996 18.9331 53.6876C16.1804 54.7802 15.7464 55.757 15.0753 57.2673C14.9531 57.5423 14.823 57.835 14.6697 58.1493Z" fill="#FFCA8F"/>
<path d="M67.9591 68.1969C66.5042 70.8525 20.7663 70.2415 15.5213 68.3447C15.1728 67.4309 13.9705 63.9382 15.8919 58.9927C25.0271 72.8896 63.966 66.9513 67.8485 60.0115C68.035 61.9754 68.2705 66.378 67.9591 68.1969Z" fill="black" fill-opacity="0.1"/>
<path d="M65 62.5C58.0977 62.4999 54 67.5 53 69.9655L73.5 69.9655C72.8835 68.8216 70.1283 62.5001 65 62.5Z" fill="#E3DFD9"/>
</svg>
