<svg width="80" height="71" viewBox="0 0 80 71" fill="none" xmlns="http://www.w3.org/2000/svg">
<ellipse rx="34.3667" ry="6.64352" transform="matrix(-0.999913 -0.0131704 -0.0131704 0.999913 40.2348 64.0136)" fill="#262626" fill-opacity="0.05"/>
<path d="M15.4116 36.9023L14.3864 32.8941" stroke="#D67B29" stroke-width="1.5" stroke-miterlimit="10" stroke-linecap="round"/>
<path d="M12.7283 34.2845L15.0569 36.5448C15.3125 36.7738 15.5826 36.9601 15.867 37.1036L17.1047 37.6641" stroke="#EC8822" stroke-width="1.5" stroke-miterlimit="10" stroke-linecap="round"/>
<path d="M20.7933 34.6283C20.7933 34.6283 18.7561 34.4639 17.0284 35.3551C15.115 36.374 12.9496 39.9713 15.6993 43.9433L19.017 40.8776L20.7933 34.6283Z" fill="#B2B2B2"/>
<path d="M9.57295 49.0116L9.40625 45.3752" stroke="#D67B29" stroke-width="1.5" stroke-miterlimit="10" stroke-linecap="round"/>
<path d="M6.92712 46.4323L9.24321 48.6767C9.47661 48.9072 9.73165 49.0983 10.03 49.2102L11.2807 49.7409" stroke="#EC8822" stroke-width="1.5" stroke-miterlimit="10" stroke-linecap="round"/>
<path d="M17.0418 41.9879C17.0418 41.9879 12.8579 43.8383 11.287 47.3399C9.51989 51.1473 10.8622 56.0811 14.6813 57.6232L17.0418 41.9879Z" fill="#D7D7D7"/>
<path d="M46.9594 41.8427C44.4399 41.1199 31.767 35.6414 29.0127 21.5107C26.784 9.9359 35.0719 16.5372 36.839 20.0789C36.839 20.0789 35.5437 17.4471 37.1281 16.2646C38.6697 15.0778 43.5291 16.5923 44.9456 22.8196C44.9456 22.8196 43.9238 17.4083 48.1524 17.4359C52.381 17.4634 55.7722 23.3669 56.5072 31.2542C57.2422 39.1415 49.4746 42.6084 46.9594 41.8427Z" fill="url(#paint0_linear_2286_40639)"/>
<path d="M68.2904 46.4512C68.2904 46.4512 70.6244 47.2865 72.1572 48.9454C73.0373 49.8607 73.7188 50.5188 73.935 49.8784C74.3102 48.6257 72.819 47.2663 68.2904 46.4512Z" fill="#989899"/>
<path d="M67.5907 59.7401C81.6918 36.641 53.7228 28.0971 43.7822 30.2116C41.365 28.7774 36.609 27.7905 34.0727 27.6955C19.8081 27.1655 10.3649 39.9913 14.2616 56.4056C16.0056 70.3568 58.2707 75.0072 67.5907 59.7401Z" fill="url(#paint1_linear_2286_40639)"/>
<path d="M55.2384 30.5112C48.0951 27.7198 42.928 29.9234 42.928 29.9234C42.928 29.9234 42.564 31.9884 40.9025 34.2337C38.181 37.9287 34.4004 50.398 45.3368 56.3246C53.5284 60.8017 62.6669 54.1994 64.8355 45.9422C66.1491 40.8181 66.465 37.5607 63.0913 34.3162C61.3474 33.1536 58.9358 31.9615 55.2384 30.5112Z" fill="white"/>
<ellipse cx="50.4916" cy="43.5182" rx="3.47818" ry="1.54586" transform="rotate(-82.8262 50.4916 43.5182)" fill="#FFA895" fill-opacity="0.58"/>
<path d="M57.1022 36.3946C58.6516 36.88 59.6181 38.1977 59.261 39.3377C58.9038 40.4778 57.3583 41.0085 55.8089 40.5231C54.2595 40.0378 53.2929 38.7201 53.6501 37.58C54.0072 36.44 55.5528 35.9093 57.1022 36.3946Z" fill="#231F20"/>
<path d="M68.8372 48.6336C68.8372 48.6336 70.1944 51.5173 69.7861 53.9954C69.4498 56.26 71.4326 55.7402 71.2416 53.4879C71.0212 51.4635 68.8372 48.6336 68.8372 48.6336Z" fill="#989899"/>
<path d="M68.8432 47.3511C68.8432 47.3511 71.1873 49.2837 71.832 52.1648C72.3502 54.5751 73.4016 55.4056 73.9167 54.866C74.9468 53.7868 74.8433 50.9933 68.8432 47.3511Z" fill="#989899"/>
<path d="M53.2718 64.1999C51.133 66.9051 38.1173 72.1364 25.0328 65.4412C14.3324 59.935 24.858 57.4401 28.8162 58.2534C28.8162 58.2534 25.8862 57.6348 25.9352 55.617C25.9538 53.6309 30.2332 50.6829 36.1272 53.4707C36.1272 53.4707 31.1373 50.8803 33.8249 47.5018C36.5125 44.1232 43.3912 45.1209 50.1887 49.5023C56.9863 53.8838 55.4108 61.4947 53.2718 64.1999Z" fill="url(#paint2_linear_2286_40639)"/>
<path d="M52.9947 26.6875C52.9947 26.6875 52.136 28.6004 50.8375 29.5325C49.7992 30.3106 52.1141 32.1257 53.3087 31.7702C54.5033 31.4148 52.9947 26.6875 52.9947 26.6875Z" fill="#EC6C22"/>
<path d="M57.0096 31.8521C57.0096 31.8521 57.0572 29.2014 53.8714 26.8244C53.8714 26.8244 53.9264 29.6485 52.9273 31.3636C52.148 32.7378 56.477 33.0101 57.0096 31.8521Z" fill="#EC8822"/>
<path d="M38.075 31.1243C38.3709 31.3395 39.1707 31.7113 39.3229 32.0157" stroke="#FEC047" stroke-width="1.1626" stroke-linecap="round"/>
<path d="M36.5603 35.0686C36.9517 35.2977 37.3398 35.6034 37.8082 35.6034" stroke="#FEC047" stroke-width="1.1626" stroke-linecap="round"/>
<path d="M34.2349 39.8973C34.8392 39.7822 35.4073 39.719 36.0176 39.719" stroke="#FEC047" stroke-width="1.1626" stroke-linecap="round"/>
<path d="M31.9092 30.4182C32.221 30.7206 32.5146 31.1313 32.9788 31.1313" stroke="#FEC047" stroke-width="1.1626" stroke-linecap="round"/>
<path d="M27.259 31.5808C27.5708 31.8832 27.8644 32.2939 28.3287 32.2939" stroke="#FEC047" stroke-width="1.1626" stroke-linecap="round"/>
<path d="M29.584 35.1644C30.2704 35.1473 30.5682 34.9577 31.1885 35.1644" stroke="#FEC047" stroke-width="1.1626" stroke-linecap="round"/>
<path d="M28.4216 38.913C28.7749 38.844 29.5048 38.886 29.6696 38.5564" stroke="#FEC047" stroke-width="1.1626" stroke-linecap="round"/>
<path d="M27.259 44.2764C27.7903 43.9525 28.2494 43.6427 28.6852 43.2068" stroke="#FEC047" stroke-width="1.1626" stroke-linecap="round"/>
<path d="M23.7708 36.4095C24.1517 36.4 24.363 36.3509 24.6621 36.2312" stroke="#FEC047" stroke-width="1.1626" stroke-linecap="round"/>
<path d="M21.4458 40.0755C21.8917 40.0755 22.6525 40.1579 22.872 39.719" stroke="#FEC047" stroke-width="1.1626" stroke-linecap="round"/>
<path d="M20.2832 44.9042C21.0274 44.5879 21.2889 44.3694 22.066 44.3694" stroke="#FEC047" stroke-width="1.1626" stroke-linecap="round"/>
<path d="M20.2155 6.62946C23.6236 1.47115 27.3243 1.47157 29.4813 1.20774C30.4111 3.33478 32.9741 11.5302 33.9741 15C28.9567 14.7251 26.8647 16.495 24.4741 20C22.0836 23.505 18.7901 24.0622 16.4741 24.5L11.3818 10.5302C12.8878 10.6294 16.4666 12.3036 20.2155 6.62946Z" fill="#2771FF"/>
<mask id="mask0_2286_40639" style="mask-type:alpha" maskUnits="userSpaceOnUse" x="11" y="1" width="23" height="24">
<path d="M20.2155 6.62946C23.6236 1.47115 27.3243 1.47157 29.4813 1.20774C30.4111 3.33478 32.9741 11.5302 33.9741 15C28.9567 14.7251 26.8647 16.495 24.4741 20C22.0836 23.505 18.7901 24.0622 16.4741 24.5L11.3818 10.5302C12.8878 10.6294 16.4666 12.3036 20.2155 6.62946Z" fill="#00008B"/>
</mask>
<g mask="url(#mask0_2286_40639)">
<mask id="mask1_2286_40639" style="mask-type:alpha" maskUnits="userSpaceOnUse" x="10" y="6" width="14" height="12">
<rect x="10.4741" y="10.7847" width="10.6936" height="7.26365" transform="rotate(-23.6205 10.4741 10.7847)" fill="#D9D9D9"/>
</mask>
<g mask="url(#mask1_2286_40639)">
<path fill-rule="evenodd" clip-rule="evenodd" d="M16.0364 12.7199L11.1649 12.3624L11.1988 11.2426L16.8816 11.6597L20.4335 7.20411L21.2786 7.93948L18.2338 11.759L23.1053 12.1165L23.0884 12.6764L23.0715 13.2362L17.3886 12.8192L13.7014 17.3016L12.9916 16.5394L16.0364 12.7199Z" fill="white"/>
<path fill-rule="evenodd" clip-rule="evenodd" d="M16.4761 12.5276L11.1718 12.1383L11.1922 11.4665L16.9832 11.8915L20.6027 7.35109L21.1098 7.7923L17.7945 11.951L23.0987 12.3403L23.0784 13.0122L17.2874 12.5872L13.6678 17.1276L13.1608 16.6864L16.4761 12.5276Z" fill="#C8102E"/>
<path fill-rule="evenodd" clip-rule="evenodd" d="M15.9855 11.7537L15.1022 9.73407L16.6746 9.04646L17.5578 11.0661L21.6087 9.29458L22.3344 10.9538L18.2834 12.7254L19.2271 14.8832L17.6547 15.5708L16.7111 13.413L12.6601 15.1845L11.9345 13.5253L15.9855 11.7537Z" fill="white"/>
<path fill-rule="evenodd" clip-rule="evenodd" d="M16.4163 11.9359L15.324 9.43839L16.3067 9.00864L17.399 11.5062L21.7447 9.60571L22.1982 10.6427L17.8525 12.5432L18.9322 15.0122L17.9495 15.4419L16.8698 12.973L12.524 14.8734L12.0705 13.8364L16.4163 11.9359Z" fill="#C8102E"/>
</g>
<path fill-rule="evenodd" clip-rule="evenodd" d="M26.7181 4.99366L26.4743 4.5L26.2304 4.99366L25.6924 4.87651L25.9264 5.37494L25.4993 5.72252L26.0349 5.8504L26.0404 6.40097L26.4743 6.062L26.9082 6.40097L26.9137 5.8504L27.4492 5.72252L27.0222 5.37494L27.2561 4.87651L26.7181 4.99366ZM20.962 17.4873L20.4743 16.5L19.9866 17.4873L18.9106 17.253L19.3785 18.2499L18.5244 18.945L19.5955 19.2008L19.6065 20.3019L20.4743 19.624L21.342 20.3019L21.353 19.2008L22.4241 18.945L21.5701 18.2499L22.0379 17.253L20.962 17.4873ZM26.4743 13.5L26.7181 13.9937L27.2561 13.8765L27.0222 14.3749L27.4492 14.7225L26.9137 14.8504L26.9082 15.401L26.4743 15.062L26.0404 15.401L26.0349 14.8504L25.4993 14.7225L25.9264 14.3749L25.6924 13.8765L26.2304 13.9937L26.4743 13.5ZM24.7181 8.99366L24.4743 8.5L24.2304 8.99366L23.6924 8.87651L23.9264 9.37494L23.4993 9.72252L24.0349 9.8504L24.0404 10.401L24.4743 10.062L24.9082 10.401L24.9137 9.8504L25.4492 9.72252L25.0222 9.37494L25.2561 8.87651L24.7181 8.99366ZM29.4743 7.5L29.7181 7.99366L30.2561 7.87651L30.0222 8.37494L30.4492 8.72252L29.9137 8.8504L29.9082 9.40097L29.4743 9.062L29.0404 9.40097L29.0349 8.8504L28.4993 8.72252L28.9264 8.37494L28.6924 7.87651L29.2304 7.99366L29.4743 7.5ZM28.0962 10.7468L27.9743 10.5L27.8523 10.7468L27.5834 10.6883L27.7003 10.9375L27.4868 11.1113L27.7546 11.1752L27.7573 11.4505L27.9743 11.281L28.1912 11.4505L28.194 11.1752L28.4617 11.1113L28.2482 10.9375L28.3652 10.6883L28.0962 10.7468Z" fill="white"/>
</g>
<path d="M28.9741 1L37.9741 26.5" stroke="#DDDDDD" stroke-linecap="round"/>
<defs>
<linearGradient id="paint0_linear_2286_40639" x1="36.4646" y1="22.6129" x2="28.0502" y2="14.6896" gradientUnits="userSpaceOnUse">
<stop stop-color="#989899"/>
<stop offset="1" stop-color="#B1A579"/>
</linearGradient>
<linearGradient id="paint1_linear_2286_40639" x1="20.1895" y1="42.7074" x2="74.0352" y2="44.8721" gradientUnits="userSpaceOnUse">
<stop stop-color="#DADADA"/>
<stop offset="1" stop-color="#FFE047"/>
</linearGradient>
<linearGradient id="paint2_linear_2286_40639" x1="30.7506" y1="60.2715" x2="18.9918" y2="62.1883" gradientUnits="userSpaceOnUse">
<stop stop-color="#989899"/>
<stop offset="1" stop-color="#B1A579"/>
</linearGradient>
</defs>
</svg>
