<svg width="80" height="70" viewBox="0 0 80 70" fill="none" xmlns="http://www.w3.org/2000/svg">
<path fill-rule="evenodd" clip-rule="evenodd" d="M18.9132 24.2234L23.4495 22.7304L24.2402 18.5131C23.8969 18.3002 23.4613 18.012 22.9829 17.6955C21.2764 16.5668 19.027 15.0789 18.4927 15.3675C18.337 15.3093 18.2831 15.227 18.2313 15.1479C18.1246 14.9852 18.027 14.8362 17.0682 14.9397C16.7049 14.6166 16.5062 14.6768 16.3043 14.7378C16.2133 14.7653 16.1216 14.7931 16.0139 14.7859C15.7916 14.7712 15.5717 14.7687 15.3549 14.78C14.6067 14.8189 14.0514 15.4481 14.0113 16.1962C13.973 16.9094 14.0337 17.5997 14.1688 18.256C14.6455 19.2856 14.5295 19.6342 14.4486 19.8776C14.3504 20.1726 14.3037 20.3131 15.4253 21.324C14.6955 21.5178 15.5259 22.0984 16.2068 22.5744C16.4522 22.746 16.6781 22.904 16.8046 23.0254C15.4253 23.0254 18.3861 24.2234 18.9132 24.2234ZM60.0868 24.5318L55.5505 23.0389L54.7598 18.8216C55.1031 18.6086 55.5388 18.3204 56.0171 18.004C57.7236 16.8753 59.973 15.3874 60.5073 15.676C60.663 15.6178 60.7169 15.5355 60.7687 15.4564C60.8754 15.2936 60.973 15.1447 61.9318 15.2482C62.2951 14.9251 62.4938 14.9852 62.6957 15.0463C62.7867 15.0738 62.8784 15.1015 62.9861 15.0944C63.2084 15.0796 63.4283 15.0772 63.6451 15.0885C64.3933 15.1274 64.9486 15.7565 64.9887 16.5046C65.027 17.2179 64.9663 17.9081 64.8312 18.5645C64.3545 19.5941 64.4705 19.9427 64.5514 20.1861C64.6496 20.4811 64.6963 20.6216 63.5747 21.6325C64.3045 21.8262 63.4741 22.4068 62.7932 22.8829C62.5478 23.0545 62.3219 23.2124 62.1954 23.3338C63.5747 23.3338 60.6139 24.5318 60.0868 24.5318Z" fill="#FEC047"/>
<path fill-rule="evenodd" clip-rule="evenodd" d="M39.045 3.01943C38.3907 2.45892 37.6661 1.69124 38.1668 1.60741C38.7561 1.50876 39.4927 2.05957 39.7873 2.34731C39.6891 1.60742 39.7283 0.102963 40.6712 0.0043097C41.614 -0.0943432 41.3587 1.5252 41.1131 2.34731C41.8497 1.85405 43.4113 1.0155 43.7649 1.60741C44.0078 2.01414 42.8967 2.63822 41.875 3.09561C51.5877 4.03288 56.4213 11.7195 60.1256 19.8689C60.4485 20.5795 59.2082 19.7819 58.3438 19.2261C58.0541 19.0399 57.8066 18.8807 57.6743 18.8146C58.9044 19.781 61.259 22.9271 60.8373 23.5597C60.4155 24.1923 58.3772 22.5932 57.4108 21.7146C58.6408 23.1204 60.8373 25.9846 59.783 26.1954C58.7286 26.4063 57.9379 25.7562 57.6743 25.4047C56.7958 30.237 51.7702 39.9014 38.6968 39.9014C25.6234 39.9014 22.1794 30.237 22.0915 25.4047C21.7401 25.4047 20.8264 25.1939 19.983 24.3504C19.1987 23.566 21.0892 21.9608 22.347 21.1039C22.0674 21.2359 21.6192 21.333 21.0372 21.1875C20.2708 20.9959 22.638 18.9764 23.077 18.6089C22.6897 18.8417 20.8665 19.3836 21.0372 18.8146C22.5803 14.1857 28.4636 3.53524 39.045 3.01943Z" fill="#FFE047"/>
<path fill-rule="evenodd" clip-rule="evenodd" d="M50.7807 16.3872C50.6748 16.1159 50.3692 15.9819 50.098 16.0877C49.8267 16.1936 49.6927 16.4992 49.7985 16.7705C49.8073 16.7929 49.8172 16.8248 49.8355 16.8863L49.8375 16.8932L49.8375 16.8932C49.8531 16.9457 49.8747 17.0185 49.9015 17.0904C49.9476 17.2142 50.0606 17.4903 50.3449 17.6324C50.6053 17.7626 50.922 17.6571 51.0522 17.3967C51.1682 17.1645 51.0969 16.8876 50.8956 16.738L50.8896 16.7225C50.8762 16.6867 50.8638 16.6456 50.846 16.5858L50.844 16.5791L50.844 16.579L50.844 16.579L50.844 16.5788L50.8439 16.5788C50.8288 16.5278 50.8072 16.455 50.7807 16.3872ZM46.1586 16.0813C46.4498 16.0813 46.6858 16.3173 46.6858 16.6085C46.6858 16.6717 46.6855 16.7259 46.6852 16.7729V16.7734V16.7738V16.7741V16.7742C46.6838 17.0062 46.6835 17.0616 46.7272 17.1489C46.8574 17.4093 46.7518 17.7259 46.4914 17.8561C46.231 17.9863 45.9144 17.8808 45.7842 17.6204C45.6169 17.2858 45.6246 16.9458 45.6299 16.7119L45.6299 16.7116C45.6307 16.6744 45.6315 16.6399 45.6315 16.6085C45.6315 16.3173 45.8675 16.0813 46.1586 16.0813ZM36.323 16.2555C36.6088 16.3113 36.7952 16.5881 36.7395 16.8739C36.7317 16.9136 36.7243 16.9509 36.7172 16.9862L36.7172 16.9863L36.7172 16.9863C36.6788 17.179 36.6522 17.3122 36.6522 17.452C36.6522 17.7432 36.4162 17.9792 36.1251 17.9792C35.8339 17.9792 35.5979 17.7432 35.5979 17.452C35.5979 17.198 35.6487 16.9483 35.6871 16.7595L35.6871 16.7593L35.6872 16.7589L35.6873 16.7585C35.6935 16.728 35.6994 16.699 35.7047 16.6719C35.7604 16.3862 36.0373 16.1997 36.323 16.2555ZM32.2771 16.971C32.3328 16.6853 32.1464 16.4084 31.8606 16.3527C31.5749 16.2969 31.298 16.4834 31.2423 16.7691C31.1809 17.0834 31.1355 17.3945 31.1355 17.7432C31.1355 18.0344 31.3715 18.2704 31.6627 18.2704C31.9538 18.2704 32.1898 18.0344 32.1898 17.7432C32.1898 17.4893 32.2222 17.2521 32.2771 16.971ZM27.6108 17.4905C27.7927 17.2632 27.7558 16.9314 27.5285 16.7496C27.3011 16.5677 26.9694 16.6046 26.7875 16.8319L26.3995 17.317C26.2176 17.5443 26.2544 17.8761 26.4818 18.0579C26.7091 18.2398 27.0409 18.203 27.2227 17.9756L27.6108 17.4905ZM41.6752 16.8721C41.6752 16.581 41.4391 16.345 41.148 16.345C40.8569 16.345 40.6208 16.581 40.6208 16.8721V16.8737V16.8752V16.8768V16.8783V16.8799V16.8814V16.883V16.8845V16.886V16.8876V16.8891V16.8907V16.8922V16.8938V16.8953V16.8969V16.8984V16.9V16.9015V16.903V16.9046V16.9061V16.9077V16.9092V16.9108V16.9123V16.9139V16.9154V16.917V16.9185V16.9201V16.9216V16.9232V16.9247V16.9263V16.9278V16.9294V16.9309V16.9325V16.934V16.9356V16.9372V16.9387V16.9403V16.9418V16.9434V16.9449V16.9465V16.948V16.9496V16.9512V16.9527V16.9543V16.9558V16.9574V16.959V16.9605V16.9621V16.9637V16.9652V16.9668V16.9684V16.9699V16.9715V16.9731V16.9746V16.9762V16.9778V16.9794V16.9809V16.9825V16.9841V16.9856V16.9872V16.9888V16.9904V16.992V16.9935V16.9951V16.9967V16.9983V16.9999V17.0015V17.003V17.0046V17.0062V17.0078V17.0094V17.011V17.0126V17.0142V17.0158V17.0174V17.0189V17.0205V17.0221V17.0237V17.0253V17.0269V17.0285V17.0302V17.0318V17.0334V17.035V17.0366V17.0382V17.0398V17.0414V17.043V17.0446V17.0463V17.0479V17.0495V17.0511V17.0527V17.0544V17.056V17.0576V17.0592V17.0609V17.0625V17.0641V17.0658V17.0674V17.069V17.0707V17.0723V17.0739V17.0756V17.0772V17.0789V17.0805V17.0822V17.0838V17.0855V17.0871V17.0888V17.0904V17.0921V17.0937V17.0954V17.0971V17.0987V17.1004V17.1021V17.1037V17.1054V17.1071V17.1088V17.1104V17.1121V17.1138V17.1155V17.1172V17.1188V17.1205V17.1222V17.1239V17.1256V17.1273V17.129V17.1307V17.1324V17.1341V17.1358V17.1375V17.1392V17.1409V17.1426V17.1443V17.1461V17.1478V17.1495V17.1512V17.1529V17.1547V17.1564V17.1581V17.1599V17.1616V17.1633V17.1651V17.1668V17.1685V17.1703V17.172V17.1738V17.1755V17.1773V17.179V17.1808V17.1826V17.1843V17.1861V17.1879V17.1896V17.1914V17.1932V17.195V17.1967V17.1985V17.2003V17.2021V17.2039V17.2057V17.2075V17.2093V17.211V17.2128V17.2147V17.2165V17.2183V17.2201V17.2219V17.2237V17.2255V17.2273V17.2292V17.231V17.2328V17.2347V17.2365V17.2383V17.2402V17.242V17.2438V17.2457V17.2475V17.2494V17.2512V17.2531V17.255V17.2568V17.2587V17.2606V17.2624V17.2643V17.2662V17.2681V17.2699V17.2718V17.2737V17.2756V17.2775V17.2794V17.2813V17.2832V17.2851V17.287V17.2889V17.2908V17.2928V17.2947V17.2966V17.2985V17.3005V17.3024V17.3043V17.3063V17.3082V17.3101V17.3121V17.314V17.316V17.318V17.3199V17.3219V17.3238V17.3258V17.3278V17.3298V17.3317V17.3337V17.3357V17.3377V17.3397V17.3417V17.3437V17.3457V17.3477V17.3497V17.3517V17.3537V17.3557V17.3578V17.3598V17.3618V17.3638V17.3659V17.3679V17.37V17.372V17.374V17.3761V17.3782V17.3802V17.3823V17.3843V17.3864V17.3885V17.3906V17.3926V17.3947V17.3968V17.3989V17.401V17.4031V17.4052V17.4073V17.4094V17.4115V17.4136V17.4158V17.4179V17.42V17.4221V17.4243V17.4264V17.4286V17.4307V17.4328V17.435V17.4372V17.4393V17.4415V17.4437V17.4458V17.448V17.4502V17.4524V17.4546V17.4567V17.4589V17.4611V17.4633V17.4656V17.4678V17.47V17.4722V17.4744V17.4766V17.4789V17.4811V17.4834V17.4856V17.4878V17.4901V17.4924V17.4946V17.4969V17.4991V17.5014V17.5037V17.506V17.5083V17.5105V17.5128V17.5151V17.5174V17.5197V17.5221V17.5244V17.5267V17.529V17.5313V17.5337V17.536V17.5383V17.5407V17.543V17.5454V17.5478V17.5501V17.5525V17.5549V17.5572V17.5596V17.562V17.5644V17.5668V17.5692V17.5716V17.574V17.5764V17.5788V17.5812V17.5836V17.5861V17.5885V17.5909V17.5934V17.5958V17.5983V17.6007V17.6032V17.6057V17.6081V17.6106V17.6131V17.6156V17.6181V17.6206V17.6231V17.6256V17.6281V17.6306V17.6331V17.6356V17.6382V17.6407V17.6432V17.6458V17.6483V17.6509V17.6534V17.656V17.6586V17.6611V17.6637V17.6663V17.6689V17.6715V17.6741V17.6767V17.6793V17.6819V17.6845V17.6871V17.6897V17.6924V17.695V17.6976V17.7003V17.7029V17.7056V17.7083V17.7109V17.7136V17.7163V17.719V17.7216V17.7243V17.727V17.7297V17.7325V17.7352V17.7379V17.7406V17.7433V17.7461V17.7488V17.7516V17.7543V17.7571V17.7598V17.7626V17.7654V17.7681V17.7709V17.7737V17.7765V17.7793V17.7821V17.7849V17.7877V17.7906V17.7934V17.7962V17.7991V17.8019V17.8047V17.8076V17.8105V17.8133V17.8162V17.8191V17.822V17.8248V17.8277V17.8306V17.8335V17.8364V17.8394V17.8423V17.8452V17.8481V17.8511V17.854V17.857V17.8599V17.8629V17.8659V17.8688V17.8718V17.8748V17.8778V17.8808V17.8838V17.8868V17.8898V17.8928V17.8959V17.8989V17.9019V17.905V17.908V17.9111V17.9141V17.9172V17.9203V17.9234V17.9264C40.6208 18.2176 40.8569 18.4536 41.148 18.4536C41.4391 18.4536 41.6752 18.2176 41.6752 17.9264V17.9234V17.9203V17.9172V17.9141V17.9111V17.908V17.905V17.9019V17.8989V17.8959V17.8928V17.8898V17.8868V17.8838V17.8808V17.8778V17.8748V17.8718V17.8688V17.8659V17.8629V17.8599V17.857V17.854V17.8511V17.8481V17.8452V17.8423V17.8394V17.8364V17.8335V17.8306V17.8277V17.8248V17.822V17.8191V17.8162V17.8133V17.8105V17.8076V17.8047V17.8019V17.7991V17.7962V17.7934V17.7906V17.7877V17.7849V17.7821V17.7793V17.7765V17.7737V17.7709V17.7681V17.7654V17.7626V17.7598V17.7571V17.7543V17.7516V17.7488V17.7461V17.7433V17.7406V17.7379V17.7352V17.7325V17.7297V17.727V17.7243V17.7216V17.719V17.7163V17.7136V17.7109V17.7083V17.7056V17.7029V17.7003V17.6976V17.695V17.6924V17.6897V17.6871V17.6845V17.6819V17.6793V17.6767V17.6741V17.6715V17.6689V17.6663V17.6637V17.6611V17.6586V17.656V17.6534V17.6509V17.6483V17.6458V17.6432V17.6407V17.6382V17.6356V17.6331V17.6306V17.6281V17.6256V17.6231V17.6206V17.6181V17.6156V17.6131V17.6106V17.6081V17.6057V17.6032V17.6007V17.5983V17.5958V17.5934V17.5909V17.5885V17.5861V17.5836V17.5812V17.5788V17.5764V17.574V17.5716V17.5692V17.5668V17.5644V17.562V17.5596V17.5572V17.5549V17.5525V17.5501V17.5478V17.5454V17.543V17.5407V17.5383V17.536V17.5337V17.5313V17.529V17.5267V17.5244V17.5221V17.5197V17.5174V17.5151V17.5128V17.5105V17.5083V17.506V17.5037V17.5014V17.4991V17.4969V17.4946V17.4924V17.4901V17.4878V17.4856V17.4834V17.4811V17.4789V17.4766V17.4744V17.4722V17.47V17.4678V17.4656V17.4633V17.4611V17.4589V17.4567V17.4546V17.4524V17.4502V17.448V17.4458V17.4437V17.4415V17.4393V17.4372V17.435V17.4328V17.4307V17.4286V17.4264V17.4243V17.4221V17.42V17.4179V17.4158V17.4136V17.4115V17.4094V17.4073V17.4052V17.4031V17.401V17.3989V17.3968V17.3947V17.3926V17.3906V17.3885V17.3864V17.3843V17.3823V17.3802V17.3782V17.3761V17.374V17.372V17.37V17.3679V17.3659V17.3638V17.3618V17.3598V17.3578V17.3557V17.3537V17.3517V17.3497V17.3477V17.3457V17.3437V17.3417V17.3397V17.3377V17.3357V17.3337V17.3317V17.3298V17.3278V17.3258V17.3238V17.3219V17.3199V17.318V17.316V17.314V17.3121V17.3101V17.3082V17.3063V17.3043V17.3024V17.3005V17.2985V17.2966V17.2947V17.2928V17.2908V17.2889V17.287V17.2851V17.2832V17.2813V17.2794V17.2775V17.2756V17.2737V17.2718V17.2699V17.2681V17.2662V17.2643V17.2624V17.2606V17.2587V17.2568V17.255V17.2531V17.2512V17.2494V17.2475V17.2457V17.2438V17.242V17.2402V17.2383V17.2365V17.2347V17.2328V17.231V17.2292V17.2273V17.2255V17.2237V17.2219V17.2201V17.2183V17.2165V17.2147V17.2128V17.211V17.2093V17.2075V17.2057V17.2039V17.2021V17.2003V17.1985V17.1967V17.195V17.1932V17.1914V17.1896V17.1879V17.1861V17.1843V17.1826V17.1808V17.179V17.1773V17.1755V17.1738V17.172V17.1703V17.1685V17.1668V17.1651V17.1633V17.1616V17.1599V17.1581V17.1564V17.1547V17.1529V17.1512V17.1495V17.1478V17.1461V17.1443V17.1426V17.1409V17.1392V17.1375V17.1358V17.1341V17.1324V17.1307V17.129V17.1273V17.1256V17.1239V17.1222V17.1205V17.1188V17.1172V17.1155V17.1138V17.1121V17.1104V17.1088V17.1071V17.1054V17.1037V17.1021V17.1004V17.0987V17.0971V17.0954V17.0937V17.0921V17.0904V17.0888V17.0871V17.0855V17.0838V17.0822V17.0805V17.0789V17.0772V17.0756V17.0739V17.0723V17.0707V17.069V17.0674V17.0658V17.0641V17.0625V17.0609V17.0592V17.0576V17.056V17.0544V17.0527V17.0511V17.0495V17.0479V17.0463V17.0446V17.043V17.0414V17.0398V17.0382V17.0366V17.035V17.0334V17.0318V17.0302V17.0285V17.0269V17.0253V17.0237V17.0221V17.0205V17.0189V17.0174V17.0158V17.0142V17.0126V17.011V17.0094V17.0078V17.0062V17.0046V17.003V17.0015V16.9999V16.9983V16.9967V16.9951V16.9935V16.992V16.9904V16.9888V16.9872V16.9856V16.9841V16.9825V16.9809V16.9794V16.9778V16.9762V16.9746V16.9731V16.9715V16.9699V16.9684V16.9668V16.9652V16.9637V16.9621V16.9605V16.959V16.9574V16.9558V16.9543V16.9527V16.9512V16.9496V16.948V16.9465V16.9449V16.9434V16.9418V16.9403V16.9387V16.9372V16.9356V16.934V16.9325V16.9309V16.9294V16.9278V16.9263V16.9247V16.9232V16.9216V16.9201V16.9185V16.917V16.9154V16.9139V16.9123V16.9108V16.9092V16.9077V16.9061V16.9046V16.903V16.9015V16.9V16.8984V16.8969V16.8953V16.8938V16.8922V16.8907V16.8891V16.8876V16.886V16.8845V16.883V16.8814V16.8799V16.8783V16.8768V16.8752V16.8737V16.8721ZM55.5417 18.2002C55.8272 18.1431 56.1049 18.3282 56.162 18.6137L56.259 19.0988C56.3161 19.3843 56.131 19.662 55.8455 19.7191C55.56 19.7762 55.2823 19.5911 55.2252 19.3056L55.1282 18.8205C55.0711 18.535 55.2562 18.2573 55.5417 18.2002ZM52.4828 19.2443C52.4828 18.9532 52.2468 18.7172 51.9556 18.7172C51.6645 18.7172 51.4285 18.9532 51.4285 19.2443V19.8264C51.4285 20.1176 51.6645 20.3536 51.9556 20.3536C52.2468 20.3536 52.4828 20.1176 52.4828 19.8264V19.2443ZM53.5362 16.0813C53.8273 16.0813 54.0633 16.3173 54.0633 16.6085V17.1906C54.0633 17.4817 53.8273 17.7177 53.5362 17.7177C53.245 17.7177 53.009 17.4817 53.009 17.1906V16.6085C53.009 16.3173 53.245 16.0813 53.5362 16.0813ZM48.4387 19.914C48.5174 19.6337 48.354 19.3427 48.0737 19.264C47.7934 19.1853 47.5023 19.3488 47.4237 19.6291C47.3567 19.8675 47.356 20.0485 47.3724 20.2141C47.3781 20.271 47.3836 20.314 47.3884 20.3514C47.3975 20.4227 47.4041 20.4737 47.4041 20.5623C47.4041 20.8534 47.6401 21.0894 47.9312 21.0894C48.2223 21.0894 48.4584 20.8534 48.4584 20.5623C48.4584 20.4016 48.4393 20.2521 48.4282 20.1649L48.4282 20.1649C48.4253 20.1419 48.4229 20.1232 48.4216 20.1099C48.4152 20.0458 48.4144 20.0006 48.4387 19.914ZM43.521 19.2444C43.8122 19.2444 44.0482 19.4804 44.0482 19.7716V20.4507C44.0482 20.7418 43.8122 20.9778 43.521 20.9778C43.2299 20.9778 42.9939 20.7418 42.9939 20.4507V19.7716C42.9939 19.4804 43.2299 19.2444 43.521 19.2444ZM39.5826 19.8835C39.6444 19.599 39.464 19.3183 39.1795 19.2564C38.895 19.1946 38.6142 19.3751 38.5524 19.6596C38.4883 19.954 38.4046 20.2371 38.3133 20.5456L38.2707 20.69C38.1885 20.9693 38.3484 21.2624 38.6277 21.3445C38.907 21.4266 39.2 21.2668 39.2822 20.9875L39.3232 20.8485C39.4138 20.5426 39.5097 20.219 39.5826 19.8835ZM34.1038 18.7806C34.3882 18.8429 34.5682 19.124 34.5059 19.4083C34.4365 19.7248 34.3736 20.0409 34.3156 20.36C34.2635 20.6464 33.9891 20.8364 33.7026 20.7843C33.4162 20.7322 33.2262 20.4578 33.2783 20.1714C33.3384 19.8408 33.4038 19.5123 33.476 19.1826C33.5384 18.8982 33.8194 18.7182 34.1038 18.7806ZM29.6492 20.2067C29.7237 19.9253 29.5559 19.6367 29.2745 19.5622C28.993 19.4877 28.7045 19.6555 28.63 19.937C28.5304 20.3132 28.4034 20.663 28.2579 21.051C28.1557 21.3236 28.2938 21.6274 28.5664 21.7297C28.839 21.8319 29.1429 21.6938 29.2451 21.4212C29.3913 21.0314 29.5349 20.6386 29.6492 20.2067ZM24.9156 19.3988C25.1215 19.6047 25.1215 19.9384 24.9156 20.1443L24.3884 20.6715C24.1826 20.8773 23.8488 20.8773 23.6429 20.6715C23.4371 20.4656 23.4371 20.1318 23.6429 19.926L24.1701 19.3988C24.3759 19.1929 24.7097 19.1929 24.9156 19.3988ZM26.0158 22.0678C26.0627 21.7805 25.8678 21.5095 25.5805 21.4626C25.2931 21.4157 25.0222 21.6106 24.9752 21.8979C24.937 22.132 24.9045 22.3641 24.8754 22.5966C24.8393 22.8855 25.0442 23.149 25.3331 23.1851C25.622 23.2212 25.8855 23.0163 25.9216 22.7274C25.9493 22.5053 25.9801 22.2865 26.0158 22.0678ZM27.9752 23.6193C28.2663 23.6193 28.5023 23.8553 28.5023 24.1464V25.2136C28.5023 25.5048 28.2663 25.7408 27.9752 25.7408C27.684 25.7408 27.448 25.5048 27.448 25.2136V24.1464C27.448 23.8553 27.684 23.6193 27.9752 23.6193ZM32.4502 22.9116C32.4376 22.6207 32.1916 22.3951 31.9008 22.4077C31.6099 22.4203 31.3843 22.6664 31.3969 22.9572C31.4039 23.1185 31.3864 23.2567 31.3638 23.4352C31.3547 23.5074 31.3447 23.5861 31.3352 23.6757C31.305 23.9605 31.2895 24.3117 31.4279 24.6949C31.5268 24.9687 31.8289 25.1106 32.1027 25.0117C32.3766 24.9128 32.5184 24.6106 32.4195 24.3368C32.3625 24.1788 32.359 24.0183 32.3836 23.7871C32.3884 23.7424 32.3949 23.6914 32.4021 23.6354L32.4021 23.6353V23.6353C32.4277 23.4346 32.4615 23.1707 32.4502 22.9116ZM36.3266 22.4147C36.6137 22.4636 36.8067 22.7358 36.7579 23.0229C36.7073 23.3197 36.6934 23.6049 36.6772 23.9348V23.9348V23.9348L36.6772 23.9352C36.6742 23.9972 36.671 24.0608 36.6676 24.1263C36.6523 24.4171 36.4042 24.6404 36.1135 24.6251C35.8227 24.6098 35.5994 24.3617 35.6147 24.0709C35.6177 24.0139 35.6205 23.9558 35.6234 23.8968V23.8968L35.6234 23.8967C35.6392 23.5675 35.6564 23.2106 35.7185 22.8459C35.7674 22.5589 36.0396 22.3659 36.3266 22.4147ZM42.3299 22.9137C42.3687 22.6251 42.1663 22.3597 41.8778 22.3209C41.5892 22.2821 41.3238 22.4845 41.285 22.773C41.2312 23.1726 41.2157 23.5667 41.2875 23.9972C41.3353 24.2844 41.6069 24.4784 41.8941 24.4305C42.1813 24.3827 42.3753 24.1111 42.3274 23.8239C42.2781 23.5278 42.2853 23.245 42.3299 22.9137ZM46.8943 22.7462C47.1854 22.7462 47.4214 22.9822 47.4214 23.2734C47.4214 23.3527 47.4087 23.4868 47.3969 23.6108L47.3907 23.6768C47.3757 23.8386 47.3599 24.0225 47.3532 24.2003C47.3463 24.3835 47.3504 24.5337 47.3661 24.6348L47.3689 24.6517C47.5212 24.808 47.5659 25.0493 47.4628 25.2555C47.3326 25.5159 47.0159 25.6214 46.7555 25.4912C46.5673 25.3971 46.4689 25.2392 46.4187 25.1297C46.3669 25.0165 46.34 24.8977 46.3244 24.7971C46.2928 24.5946 46.292 24.364 46.2996 24.1607C46.3075 23.952 46.3256 23.7438 46.3409 23.5793L46.3482 23.5015C46.353 23.4508 46.3571 23.4067 46.3605 23.3673C46.363 23.3388 46.3647 23.3161 46.3659 23.2983C46.3669 23.2825 46.3671 23.2751 46.3671 23.2736V23.2735C46.3671 23.2733 46.3671 23.2732 46.3671 23.2734C46.3671 22.9822 46.6031 22.7462 46.8943 22.7462ZM51.9813 22.4678C51.9813 22.1767 51.7453 21.9407 51.4542 21.9407C51.163 21.9407 50.927 22.1767 50.927 22.4678V23.244C50.927 23.5351 51.163 23.7712 51.4542 23.7712C51.7453 23.7712 51.9813 23.5351 51.9813 23.244V22.4678ZM55.7735 22.321C55.8697 22.3712 55.9514 22.4514 56.0028 22.5564C56.122 22.7997 56.2217 23.0361 56.314 23.2823C56.4162 23.5549 56.2781 23.8588 56.0055 23.961C55.7329 24.0632 55.429 23.9251 55.3268 23.6525C55.2446 23.4333 55.1581 23.2287 55.0559 23.0202C55.0164 22.9395 54.9994 22.8538 55.0024 22.7699C54.8856 22.7089 54.7914 22.6043 54.7464 22.4694C54.7028 22.3385 54.6572 22.2885 54.564 22.1953L54.543 22.1744C54.4244 22.0565 54.2495 21.8827 54.1089 21.5676C53.9904 21.3017 54.1098 20.99 54.3757 20.8714C54.6416 20.7528 54.9533 20.8723 55.0718 21.1382C55.1316 21.2721 55.1884 21.3289 55.2961 21.4364L55.3094 21.4497C55.4508 21.5911 55.6277 21.7792 55.7466 22.136C55.7671 22.1974 55.7756 22.2599 55.7735 22.321Z" fill="#FEC047"/>
<path d="M40.5541 56C59.2345 56 68.2437 42.6789 62.0662 24.5L57.1281 21.659C56.4276 21.256 55.5584 21.2888 54.8903 21.7435L52.0262 23.6926C51.3103 24.1798 50.3694 24.1798 49.6535 23.6926L46.8833 21.8074C46.1674 21.3202 45.2265 21.3202 44.5106 21.8074L41.7405 23.6926C41.0246 24.1798 40.0836 24.1798 39.3678 23.6926L36.5975 21.8074C35.8817 21.3202 34.9407 21.3202 34.2248 21.8074L31.4475 23.6976C30.7352 24.1823 29.7997 24.1849 29.0847 23.7043L26.1386 21.7237C25.4783 21.2799 24.6245 21.2454 23.9306 21.6346L18.8224 24.5C11.8723 46.858 26.0295 56 40.5541 56Z" fill="#2771FF"/>
<mask id="mask0_2286_40637" style="mask-type:alpha" maskUnits="userSpaceOnUse" x="17" y="21" width="47" height="35">
<path d="M40.5541 56C59.2345 56 68.2437 42.6789 62.0662 24.5L57.1282 21.659C56.4276 21.256 55.5584 21.2888 54.8903 21.7435L52.0262 23.6926C51.3104 24.1798 50.3694 24.1798 49.6535 23.6926L46.8833 21.8074C46.1674 21.3202 45.2265 21.3202 44.5106 21.8074L41.7405 23.6926C41.0246 24.1798 40.0836 24.1798 39.3678 23.6926L36.5975 21.8074C35.8817 21.3202 34.9407 21.3202 34.2248 21.8074L31.4475 23.6976C30.7352 24.1823 29.7997 24.1849 29.0847 23.7043L26.1386 21.7237C25.4783 21.2799 24.6245 21.2454 23.9306 21.6346L18.8224 24.5C11.8723 46.858 26.0295 56 40.5541 56Z" fill="#D9D9D9"/>
</mask>
<g mask="url(#mask0_2286_40637)">
<path d="M41 42L41.7315 43.481L43.3455 43.1295L42.6437 44.6248L43.9248 45.6676L42.3182 46.0512L42.3017 47.7029L41 46.686L39.6983 47.7029L39.6818 46.0512L38.0752 45.6676L39.3563 44.6248L38.6545 43.1295L40.2685 43.481L41 42Z" fill="white"/>
<path d="M55 29L55.4877 29.9873L56.5637 29.753L56.0958 30.7499L56.9499 31.445L55.8788 31.7008L55.8678 32.8019L55 32.124L54.1322 32.8019L54.1212 31.7008L53.0501 31.445L53.9042 30.7499L53.4363 29.753L54.5123 29.9873L55 29Z" fill="white"/>
<mask id="mask1_2286_40637" style="mask-type:alpha" maskUnits="userSpaceOnUse" x="16" y="21" width="31" height="18">
<rect x="16" y="21" width="31" height="18" fill="#D9D9D9"/>
</mask>
<g mask="url(#mask1_2286_40637)">
<path fill-rule="evenodd" clip-rule="evenodd" d="M28.5237 29.5429L16 22.9348L17.3905 20L32 27.7086L46.6095 20L48 22.9348L35.4763 29.5429L48 36.151L47.3047 37.6184L46.6095 39.0858L32 31.3771L17 39L16 36.151L28.5237 29.5429Z" fill="white"/>
<path fill-rule="evenodd" clip-rule="evenodd" d="M29.9144 29.5428L16.2783 22.3478L17.1126 20.5869L32.0002 28.4423L46.8878 20.5869L47.7221 22.3478L34.086 29.5428L47.7221 36.7379L46.8878 38.4988L32.0002 30.6434L17.1126 38.4988L16.2783 36.7379L29.9144 29.5428Z" fill="#C8102E"/>
<path fill-rule="evenodd" clip-rule="evenodd" d="M29.5126 26.9178V20.5276H34.4875V26.9178H47.3048V32.1678H34.4875V38.9952H29.5126V32.1678H16.6953V26.9178H29.5126Z" fill="white"/>
<path fill-rule="evenodd" clip-rule="evenodd" d="M30.4454 27.9023V20H33.5547V27.9023H47.3048V31.1835H33.5547V38.9953H30.4454V31.1835H16.6953V27.9023H30.4454Z" fill="#C8102E"/>
</g>
<path d="M53.083 52.88C49.7639 55.22 42.3339 56 39.3877 56C28.8277 56 18.1061 50 17.083 37.573C16.583 31.5 18.3596 23.5 21.9341 17C18.9667 38.9132 27.9579 52.88 53.083 52.88Z" fill="black" fill-opacity="0.1"/>
</g>
<path fill-rule="evenodd" clip-rule="evenodd" d="M47.6456 11.3073C48.2279 11.3073 48.6999 10.8353 48.6999 10.253C48.6999 9.67076 48.2279 9.19873 47.6456 9.19873C47.0633 9.19873 46.5913 9.67076 46.5913 10.253C46.5913 10.8353 47.0633 11.3073 47.6456 11.3073ZM33.0543 11.3075C33.6366 11.3075 34.1086 10.8354 34.1086 10.2532C34.1086 9.67088 33.6366 9.19885 33.0543 9.19885C32.472 9.19885 32 9.67088 32 10.2532C32 10.8354 32.472 11.3075 33.0543 11.3075Z" fill="#443635"/>
<path fill-rule="evenodd" clip-rule="evenodd" d="M31.1324 14.4704C32.4426 14.4704 33.5046 13.9984 33.5046 13.4161C33.5046 12.8338 32.4426 12.3618 31.1324 12.3618C29.8223 12.3618 28.7603 12.8338 28.7603 13.4161C28.7603 13.9984 29.8223 14.4704 31.1324 14.4704ZM49.0553 14.4704C50.3654 14.4704 51.4275 13.9984 51.4275 13.4161C51.4275 12.8338 50.3654 12.3618 49.0553 12.3618C47.7452 12.3618 46.6831 12.8338 46.6831 13.4161C46.6831 13.9984 47.7452 14.4704 49.0553 14.4704Z" fill="#FFA572"/>
<path d="M39.8019 11.5023L38.0119 12.6957C37.9251 12.7535 37.9661 12.8888 38.0704 12.8888H40.0944H42.1183C42.2226 12.8888 42.2636 12.7535 42.1768 12.6957L40.3868 11.5023C40.2097 11.3843 39.979 11.3843 39.8019 11.5023Z" fill="#EC8822"/>
<path d="M39.7517 14.1764L38.2498 12.889H40.0948H41.9398L40.4379 14.1764C40.2404 14.3456 39.9491 14.3456 39.7517 14.1764Z" fill="#EC6C22"/>
<path fill-rule="evenodd" clip-rule="evenodd" d="M16.642 49.907L17.2929 49.9871C20.9199 50.434 21.459 50.5004 23.588 50.1966C24.8259 50.0199 26.1994 50.308 28.0447 50.695C30.626 51.2364 34.1306 51.9714 39.4791 51.8991C45.1494 51.9451 48.9448 50.7768 51.615 49.9549C52.7981 49.5907 53.7603 49.2945 54.5667 49.2021C57.43 48.8741 58.3558 49.0087 59.4192 49.1633C60.4704 49.3162 61.6561 49.4886 64.9808 49.253C61.5187 49.924 59.2938 49.9542 59.2938 49.9542C62.0249 50.6842 64.7909 53.0906 64.7909 53.0906C64.7909 53.0906 62.6046 51.4955 60.7977 51.6106C64.2481 53.6321 66.2261 55.9948 67.2863 58.4602C68.4699 60.1354 69.1446 61.7737 69.3991 64.6592C69.0744 63.4391 68.6555 62.2758 68.1151 61.232C68.5468 63.6082 68.3394 65.9972 67.9639 68.1963C66.5126 70.8526 20.8838 70.2398 15.6513 68.3424C15.061 66.7907 13.5634 62.5766 16.517 57.4548C15.28 58.5473 14.1852 59.9318 13.2197 61.448C14.6029 58.2755 15.9713 56.8048 18.0978 55.1761C18.8023 54.3112 19.6436 53.4292 20.6442 52.5375C20.6442 52.5375 18.8614 52.4371 17.002 53.5466C16.9041 53.6097 16.8016 53.6746 16.6938 53.7415C16.8635 53.6274 17.0305 53.5206 17.1943 53.4211C17.4715 53.238 17.7114 53.0706 17.9327 52.9162C19.0968 52.104 19.7456 51.6513 22.609 51.1686C19.8824 51.2055 17.641 50.4688 16.642 49.907Z" fill="#ECA75A"/>
<path fill-rule="evenodd" clip-rule="evenodd" d="M59.9998 59.5867C60.5801 53.8575 55.4202 51.3288 51.8071 51.5643C57.4003 52.4672 59.4589 55.9097 59.9998 59.5867ZM20.1782 61.9128C20.5031 61.6723 20.9752 61.1586 21.5956 60.4835C23.748 58.1415 27.6854 53.8573 33.4507 52.3017C26.7516 53.5403 23.116 57.4311 20.1782 61.9128ZM30.5234 56.314L30.5265 56.3126C30.2808 56.5598 29.9445 56.7913 29.5459 57.0656C28.1195 58.0474 25.8962 59.5777 24.182 64.3407C24.7525 60.9745 26.5745 58.0743 30.5234 56.314ZM66.4285 68.2365C66.1383 62.2605 63.2366 57.8573 61.8006 56.3858C62.0139 56.9735 62.3234 57.5402 62.7014 58.2322C63.6561 59.9801 65.0477 62.5278 66.4285 68.2365ZM39.9567 56.1852C38.9705 57.2566 37.7503 59.1294 37.2751 61.2847C36.7993 63.4426 37.0681 65.8975 39.0895 68.1103C38.9578 67.7761 38.8268 67.4602 38.7007 67.156C37.5127 64.2913 36.7568 62.4686 39.9567 56.1852ZM27.9149 67.1349C28.39 64.8678 29.6125 62.8984 30.6007 61.772C29.0416 64.9865 28.4207 67.0912 28.3315 68.7522L27.7169 68.7605C27.7341 68.2064 27.8043 67.6622 27.9149 67.1349ZM46.8783 54.106C50.7009 54.3735 53.0865 60.168 52.9383 62.4626C52.8855 62.325 52.8328 62.1867 52.7799 62.048C51.5391 58.7966 50.2113 55.3173 46.8783 54.106Z" fill="#B7651C"/>
<path fill-rule="evenodd" clip-rule="evenodd" d="M64.7109 51.3826C62.6017 49.5966 60.1003 49.7263 57.952 49.9183C60.712 50.016 62.054 49.748 64.7109 51.3826Z" fill="#FFCA8F"/>
<path fill-rule="evenodd" clip-rule="evenodd" d="M24.0078 51.4453C21.9648 51.9669 19.562 52.4811 17.0527 51.0347C19.594 52.0598 20.8718 51.8795 22.8473 51.6007C23.2071 51.55 23.5899 51.4959 24.0078 51.4453ZM19.6347 58.4457C20.6298 56.166 23.4371 53.0811 27.9845 51.8796C24.5024 52.3838 19.9783 55.4186 19.6347 58.4457ZM49.8113 66.8585C50.7622 64.4866 50.8326 60.6241 47.9838 57.5764C50.4898 59.5585 51.8882 64.1458 49.8113 66.8585ZM57.954 59.7081C57.652 57.9049 56.1368 55.3009 52.9298 53.8991C55.4679 54.6639 58.2939 57.4233 57.954 59.7081ZM32.4776 59.5566C32.7306 57.7459 34.1748 55.1019 37.3427 53.6139C34.8262 54.447 32.076 57.2819 32.4776 59.5566ZM68.7283 58.1923C66.9013 54.0496 64.047 53.4158 61.1496 52.7724C61.007 52.7407 60.8642 52.709 60.7215 52.6769C61.5261 53.048 62.2277 53.3426 62.8557 53.6062L62.8558 53.6063C65.3616 54.6583 66.6956 55.2184 68.7283 58.1923ZM14.6697 58.1493C15.0452 56.4441 15.6222 54.4996 18.9331 53.6876C16.1804 54.7802 15.7464 55.757 15.0753 57.2673C14.9531 57.5423 14.823 57.835 14.6697 58.1493Z" fill="#FFCA8F"/>
<path d="M67.9591 68.1969C66.5042 70.8525 20.7663 70.2415 15.5213 68.3447C15.1728 67.4309 13.9705 63.9382 15.8919 58.9927C25.0271 72.8896 63.966 66.9513 67.8485 60.0115C68.035 61.9754 68.2705 66.378 67.9591 68.1969Z" fill="black" fill-opacity="0.1"/>
<path d="M65 62.5C58.0977 62.4999 54 67.5 53 69.9655L73.5 69.9655C72.8835 68.8216 70.1283 62.5001 65 62.5Z" fill="#E3DFD9"/>
</svg>
