<svg width="80" height="71" viewBox="0 0 80 71" fill="none" xmlns="http://www.w3.org/2000/svg">
<path d="M64 37.4327C64 48.274 53.2548 57 40 57C26.7452 57 16 47.7452 16 37.4327C16 22.2449 26.7452 2 40 2C53.2548 2 64 22.2449 64 37.4327Z" fill="#E2503C"/>
<path fill-rule="evenodd" clip-rule="evenodd" d="M44.4586 21.2688L43.1909 21.1294C43.0268 21.1113 42.9344 21.3151 43.0549 21.4291L43.9861 22.3107L43.4634 23.4877C43.3957 23.6401 43.5587 23.7919 43.7032 23.7112L44.8194 23.0874L45.764 23.9543C45.8863 24.0665 46.0794 23.9566 46.0481 23.7926L45.8068 22.5255L46.9134 21.8843C47.0567 21.8013 47.0131 21.5816 46.8493 21.5609L45.5839 21.4016L45.3232 20.1384C45.2894 19.9748 45.0694 19.9489 44.9994 20.1002L44.4586 21.2688ZM34.9456 24.3361L36.0482 27.797L39.5331 27.8253C39.9843 27.8289 40.1715 28.4317 39.8085 28.7123L37.0049 30.8796L38.0561 34.358C38.1922 34.8084 37.7024 35.1809 37.3353 34.9062L34.5 32.7847L31.6647 34.9062C31.2977 35.1808 30.8078 34.8083 30.9439 34.358L31.9951 30.8796L29.1915 28.7123C28.8285 28.4317 29.0157 27.829 29.4669 27.8253L32.9518 27.797L34.0544 24.3361C34.1974 23.888 34.8028 23.888 34.9456 24.3361ZM47.7186 25.0701L48.5024 26.0921L49.7674 25.7139C49.9311 25.6649 50.0658 25.8434 49.9656 25.9766L49.1913 27.0052L49.9583 28.0387C50.0577 28.1725 49.9217 28.3501 49.7582 28.3002L48.4959 27.9139L47.7051 28.9308C47.6027 29.0625 47.3839 28.9937 47.3832 28.8297L47.3774 27.5623L46.1215 27.1574C45.9589 27.105 45.9597 26.8848 46.1226 26.8334L47.3813 26.4365L47.396 25.1693C47.398 25.0051 47.6172 24.9378 47.7186 25.0701ZM45.2814 35.0701L44.4976 36.0921L43.2326 35.7139C43.0689 35.6649 42.9342 35.8434 43.0344 35.9766L43.8087 37.0052L43.0417 38.0387C42.9423 38.1725 43.0783 38.3501 43.2418 38.3002L44.5041 37.9139L45.2949 38.9308C45.3974 39.0625 45.6161 38.9937 45.6168 38.8297L45.6226 37.5623L46.8785 37.1574C47.0411 37.105 47.0403 36.8848 46.8774 36.8335L45.6187 36.4366L45.604 35.1693C45.6021 35.0051 45.3828 34.9378 45.2814 35.0701ZM48.5414 31.2688L49.8091 31.1294C49.9732 31.1113 50.0656 31.3151 49.9451 31.429L49.0139 32.3107L49.5366 33.4876C49.6043 33.6401 49.4413 33.7919 49.2968 33.7112L48.1806 33.0874L47.236 33.9543C47.1137 34.0665 46.9206 33.9566 46.9519 33.7926L47.1932 32.5255L46.0866 31.8843C45.9433 31.8013 45.9869 31.5815 46.1507 31.5609L47.4161 31.4015L47.6768 30.1384C47.7106 29.9748 47.9306 29.9489 48.0006 30.1002L48.5414 31.2688Z" fill="#FFE15A"/>
<path d="M54 53.88C50.4965 56.22 42.6537 57 39.5438 57C28.3972 57 16 48.2845 16 38.573C16 33.1799 17.3475 24.5 21.1206 18C17.9884 39.9132 27.479 53.88 54 53.88Z" fill="black" fill-opacity="0.3"/>
<path fill-rule="evenodd" clip-rule="evenodd" d="M16.642 50.907L17.2929 50.9871C20.9199 51.434 21.459 51.5004 23.588 51.1966C24.8259 51.0199 26.1994 51.308 28.0447 51.695C30.626 52.2364 34.1306 52.9714 39.4791 52.8991C45.1494 52.9451 48.9448 51.7768 51.615 50.9549C52.7981 50.5907 53.7603 50.2945 54.5667 50.2021C57.43 49.8741 58.3558 50.0087 59.4192 50.1633C60.4704 50.3162 61.6561 50.4886 64.9808 50.253C61.5187 50.924 59.2938 50.9542 59.2938 50.9542C62.0249 51.6842 64.7909 54.0906 64.7909 54.0906C64.7909 54.0906 62.6046 52.4955 60.7977 52.6106C64.2481 54.6321 66.2261 56.9948 67.2863 59.4602C68.4699 61.1354 69.1446 62.7737 69.3991 65.6592C69.0744 64.4391 68.6555 63.2758 68.1151 62.232C68.5468 64.6082 68.3394 66.9972 67.9639 69.1963C66.5126 71.8526 20.8838 71.2398 15.6513 69.3424C15.061 67.7907 13.5634 63.5766 16.517 58.4548C15.28 59.5473 14.1852 60.9318 13.2197 62.448C14.6029 59.2755 15.9713 57.8048 18.0978 56.1761C18.8023 55.3112 19.6436 54.4292 20.6442 53.5375C20.6442 53.5375 18.8614 53.4371 17.002 54.5466C16.9041 54.6097 16.8016 54.6746 16.6938 54.7415C16.8635 54.6274 17.0305 54.5206 17.1943 54.4211C17.4715 54.238 17.7114 54.0706 17.9327 53.9162C19.0968 53.104 19.7456 52.6513 22.609 52.1686C19.8824 52.2055 17.641 51.4688 16.642 50.907Z" fill="#ECA75A"/>
<path fill-rule="evenodd" clip-rule="evenodd" d="M59.9998 60.5867C60.5801 54.8575 55.4202 52.3288 51.8071 52.5643C57.4003 53.4672 59.4589 56.9097 59.9998 60.5867ZM20.1782 62.9128C20.5031 62.6723 20.9752 62.1586 21.5956 61.4835C23.748 59.1415 27.6854 54.8573 33.4507 53.3017C26.7516 54.5403 23.116 58.4311 20.1782 62.9128ZM30.5234 57.314L30.5265 57.3126C30.2808 57.5598 29.9445 57.7913 29.5459 58.0656C28.1195 59.0474 25.8962 60.5777 24.182 65.3407C24.7525 61.9745 26.5745 59.0743 30.5234 57.314ZM66.4285 69.2365C66.1383 63.2605 63.2366 58.8573 61.8006 57.3858C62.0139 57.9735 62.3234 58.5402 62.7014 59.2322C63.6561 60.9801 65.0477 63.5278 66.4285 69.2365ZM39.9567 57.1852C38.9705 58.2566 37.7503 60.1294 37.2751 62.2847C36.7993 64.4426 37.0681 66.8975 39.0895 69.1103C38.9578 68.7761 38.8268 68.4602 38.7007 68.156C37.5127 65.2913 36.7568 63.4686 39.9567 57.1852ZM27.9149 68.1349C28.39 65.8678 29.6125 63.8984 30.6007 62.772C29.0416 65.9865 28.4207 68.0912 28.3315 69.7522L27.7169 69.7605C27.7341 69.2064 27.8043 68.6622 27.9149 68.1349ZM46.8783 55.106C50.7009 55.3735 53.0865 61.168 52.9383 63.4626C52.8855 63.325 52.8328 63.1867 52.7799 63.048C51.5391 59.7966 50.2113 56.3173 46.8783 55.106Z" fill="#B7651C"/>
<path fill-rule="evenodd" clip-rule="evenodd" d="M64.7109 52.3826C62.6017 50.5966 60.1003 50.7263 57.952 50.9183C60.712 51.016 62.054 50.748 64.7109 52.3826Z" fill="#FFCA8F"/>
<path fill-rule="evenodd" clip-rule="evenodd" d="M24.0075 52.4453C21.9645 52.9669 19.5618 53.4811 17.0525 52.0347C19.5938 53.0598 20.8715 52.8795 22.8471 52.6007C23.2068 52.55 23.5897 52.4959 24.0075 52.4453ZM19.6344 59.4457C20.6296 57.166 23.4369 54.0811 27.9842 52.8796C24.5022 53.3838 19.978 56.4186 19.6344 59.4457ZM49.8111 67.8585C50.7619 65.4866 50.8323 61.6241 47.9835 58.5764C50.4896 60.5585 51.888 65.1458 49.8111 67.8585ZM57.9537 60.7081C57.6518 58.9049 56.1365 56.3009 52.9295 54.8991C55.4677 55.6639 58.2936 58.4233 57.9537 60.7081ZM32.4773 60.5566C32.7304 58.7459 34.1746 56.1019 37.3425 54.6139C34.826 55.447 32.0757 58.2819 32.4773 60.5566ZM68.728 59.1923C66.901 55.0496 64.0468 54.4158 61.1493 53.7724C61.0067 53.7407 60.864 53.709 60.7213 53.6769C61.5259 54.048 62.2275 54.3426 62.8554 54.6062L62.8555 54.6063C65.3614 55.6583 66.6954 56.2184 68.728 59.1923ZM14.6694 59.1493C15.0449 57.4441 15.622 55.4996 18.9329 54.6876C16.1802 55.7802 15.7461 56.757 15.075 58.2673C14.9528 58.5423 14.8228 58.835 14.6694 59.1493Z" fill="#FFCA8F"/>
<path d="M67.9588 69.1969C66.504 71.8525 20.766 71.2415 15.5211 69.3447C15.1726 68.4309 13.9702 64.9382 15.8917 59.9927C25.0269 73.8896 63.9657 67.9513 67.8483 61.0115C68.0347 62.9754 68.2703 67.378 67.9588 69.1969Z" fill="black" fill-opacity="0.1"/>
<path d="M65 63.5C58.0977 63.4999 54 68.5 53 70.9655L73.5 70.9655C72.8835 69.8216 70.1283 63.5001 65 63.5Z" fill="#E3DFD9"/>
</svg>
