<svg width="80" height="70" viewBox="0 0 80 70" fill="none" xmlns="http://www.w3.org/2000/svg">
<ellipse rx="26.8509" ry="4.08149" transform="matrix(-0.999913 -0.0131704 -0.0131704 0.999913 32.9024 65.5586)" fill="#262626" fill-opacity="0.05"/>
<path d="M46.9111 28.1382C61.605 28.7434 68.7393 23.8182 70.9723 28.1445C73.3157 32.653 62.2606 33.1295 62.2606 33.1295C62.2606 33.1295 67.0128 33.3865 67.0198 35.5747C67.0346 38.9044 61.9204 37.97 58.55 37.5726C58.55 37.5726 61.8289 37.5772 62.1134 39.4974C62.5403 42.3779 52.0584 43.1545 48.0773 37.397C45.4849 33.6873 42.4839 27.9333 46.9111 28.1382Z" fill="#989899"/>
<path d="M42.5312 60.8076L45.6394 62.8259" stroke="#D67B29" stroke-width="1.5" stroke-miterlimit="10" stroke-linecap="round"/>
<path d="M43.9847 63.8352L42.7334 61.2114C42.6123 60.9289 42.5316 60.6463 42.4912 60.3638L42.3701 59.1528" stroke="#EC8822" stroke-width="1.5" stroke-miterlimit="10" stroke-linecap="round"/>
<path d="M46.0029 56.8922C46.0029 56.8922 45.5589 58.6682 44.3076 59.8792C42.8948 61.2112 39.2216 62.0185 36.6382 58.5471L40.1903 56.6096L46.0029 56.8922Z" fill="#B2B2B2"/>
<path d="M14.9624 56.4482L13.2671 59.2334" stroke="#D67B29" stroke-width="1.5" stroke-miterlimit="10" stroke-linecap="round"/>
<path d="M11.7734 57.3359L14.5586 56.569C14.8412 56.4883 15.1237 56.4479 15.4063 56.4882L16.6173 56.6094" stroke="#EC8822" stroke-width="1.5" stroke-miterlimit="10" stroke-linecap="round"/>
<path d="M24.8515 56.7307C24.8515 56.7307 21.1783 58.5472 17.8684 57.6188C14.2355 56.65 11.6118 52.896 12.742 49.3843L24.8515 56.7307Z" fill="#D7D7D7"/>
<path d="M46.0833 12.3291C46.0833 12.3291 46.043 10.109 45.0742 8.33295C44.5495 7.32382 44.1862 6.55688 44.7917 6.55688C45.9623 6.59725 46.6888 8.25223 46.0833 12.3291Z" fill="#989899"/>
<path d="M4.91115 35.4583C4.91115 35.4583 8.58437 36.306 10.9256 33.6823C15.5675 27.2238 20.9361 7.92932 38.3738 9.50356C61.826 11.6429 60.9783 30.8164 56.3363 38.6472C56.8611 41.1095 56.3363 45.4285 55.6905 47.6082C53.1878 56.0445 43.8231 60.0003 31.9558 58.6683C29.5742 58.3857 27.0716 58.1435 25.0533 57.5784C4.79005 51.8466 4.91115 35.4583 4.91115 35.4583Z" fill="#D7D7D7"/>
<path d="M59.3637 28.8385C59.6867 35.7006 56.3364 39.4545 56.3364 39.4545C56.3364 39.4545 54.4796 39.1719 52.098 39.9389C48.1826 41.1902 36.5171 40.8269 34.6199 29.8476C33.1668 21.6131 40.2307 13.2575 47.8597 13.7823C54.8832 14.307 58.839 17.9803 59.3637 28.8385Z" fill="white"/>
<path d="M54.8772 26.8135C54.9242 24.6738 54.0949 22.9202 53.0251 22.8967C51.9552 22.8733 51.0499 24.5888 51.003 26.7285C50.956 28.8682 51.7853 30.6218 52.8551 30.6453C53.925 30.6687 54.8303 28.9532 54.8772 26.8135Z" fill="#231F20"/>
<path d="M54.4876 26.0196C54.5047 25.2395 54.1391 24.5988 53.6711 24.5886C53.203 24.5783 52.8097 25.2024 52.7926 25.9825C52.7756 26.7626 53.1412 27.4033 53.6092 27.4136C54.0773 27.4238 54.4706 26.7997 54.4876 26.0196Z" fill="white"/>
<path d="M61.3817 32.3904C61.3817 32.3904 59.5249 32.1079 58.1928 32.6326C57.103 33.0363 56.8608 30.4126 57.7085 29.686C58.5561 28.9594 61.3817 32.3904 61.3817 32.3904Z" fill="#EC6C22"/>
<path d="M44.3885 11.2393C44.3885 11.2393 42.3299 9.2614 40.1098 8.89812C38.0915 8.53483 39.1007 7.00095 40.9575 7.80825C42.6124 8.57519 44.3885 11.2393 44.3885 11.2393Z" fill="#989899"/>
<path d="M45.4781 11.6025C45.4781 11.6025 44.5094 9.05954 42.2489 7.68712C40.3518 6.5569 39.9481 5.42667 40.5536 5.14411C41.7645 4.579 44.1057 5.46703 45.4781 11.6025Z" fill="#989899"/>
<path d="M44.7107 52.2099C43.8631 51.6852 43.3787 50.7568 43.3383 49.8284C42.6521 50.9586 42.975 52.4117 44.1053 53.1383C45.2355 53.8649 46.729 53.542 47.4959 52.4521C46.6079 52.8154 45.5584 52.7347 44.7107 52.2099Z" fill="#989899"/>
<path d="M43.904 45.4689C42.9756 44.7019 42.572 43.6121 42.6527 42.5222C41.684 43.7332 41.8454 45.4689 43.0564 46.4376C44.227 47.4064 46.003 47.2853 47.0525 46.1551C46.003 46.4376 44.8324 46.1954 43.904 45.4689Z" fill="#989899"/>
<path d="M51.3311 49.1421C50.2009 48.7384 49.4339 47.81 49.1514 46.7605C48.667 48.2136 49.4339 49.7879 50.8871 50.3126C52.3402 50.8374 53.9548 50.1512 54.5603 48.7384C53.6319 49.3842 52.4209 49.5861 51.3311 49.1421Z" fill="#989899"/>
<path d="M49.5955 53.4609C49.5955 53.4609 48.8285 54.793 49.0707 55.6003C49.0707 55.6003 49.878 55.6407 50.4431 54.8334C50.4431 54.8334 49.878 54.8737 49.5955 53.4609Z" fill="#989899"/>
<path d="M59.445 26.8606C59.445 26.8606 61.4632 28.1119 61.7054 31.664C61.7054 31.664 59.6064 30.2512 57.8304 30.1705C56.4176 30.0898 58.3147 26.6991 59.445 26.8606Z" fill="#EC8822"/>
<path d="M63.5508 39.68C63.5508 38.8111 64.2552 38.1067 65.1241 38.1067H66.6974C67.5664 38.1067 68.2708 38.8111 68.2708 39.68V59.3467C68.2708 60.2156 67.5664 60.92 66.6974 60.92H65.1241C64.2552 60.92 63.5508 60.2156 63.5508 59.3467V39.68Z" fill="#FFE086"/>
<path d="M77.7113 49.9068C77.7113 55.5549 72.4283 60.1335 65.9113 60.1335C59.3944 60.1335 54.1113 55.5549 54.1113 49.9068C54.1113 44.2588 59.3944 39.6802 65.9113 39.6802C72.4283 39.6802 77.7113 44.2588 77.7113 49.9068Z" fill="#FC5D42"/>
<mask id="mask0_2079_36314" style="mask-type:alpha" maskUnits="userSpaceOnUse" x="54" y="39" width="24" height="22">
<path d="M77.7113 49.9068C77.7113 55.5549 72.4283 60.1335 65.9113 60.1335C59.3944 60.1335 54.1113 55.5549 54.1113 49.9068C54.1113 44.2588 59.3944 39.6802 65.9113 39.6802C72.4283 39.6802 77.7113 44.2588 77.7113 49.9068Z" fill="#FC5D42"/>
</mask>
<g mask="url(#mask0_2079_36314)">
<path fill-rule="evenodd" clip-rule="evenodd" d="M65.125 38.1062L65.1247 38.1069L64.9956 38.1967C65.0411 38.2622 65.0858 38.3347 65.1295 38.4139C58.5571 40.6719 55.5273 45.5962 55.5273 50.3985C55.5274 55.5527 59.0205 60.5341 65.2891 61.8608L65.3042 61.7897L65.3421 61.7274L65.4896 61.6077C62.8612 58.3715 61.8658 53.4997 62.1969 48.9349C62.4714 45.1496 63.6545 41.6152 65.5341 39.4181C65.5676 39.527 65.6002 39.6408 65.6321 39.7593C65.6729 39.9112 65.7122 40.0703 65.7501 40.2361C65.6205 40.8164 65.5088 41.4714 65.4138 42.1833C65.1599 44.0853 65.0231 46.4045 64.9814 48.8116C64.8982 53.6239 65.1949 58.8065 65.7041 61.7338L65.9114 61.6978L66.1187 61.7338C66.6279 58.8065 66.9246 53.6239 66.8413 48.8116C66.7997 46.4045 66.6629 44.0853 66.409 42.1833C66.314 41.4714 66.2023 40.8164 66.0727 40.2361C66.1106 40.0703 66.1499 39.9112 66.1907 39.7593C66.2225 39.6408 66.2552 39.527 66.2887 39.4181C68.1683 41.6152 69.3514 45.1496 69.6259 48.9349C69.957 53.4997 68.9616 58.3715 66.3332 61.6077L66.4807 61.7274L66.5186 61.7897L66.5337 61.8608C72.8023 60.5341 76.2954 55.5527 76.2954 50.3985C76.2955 45.5962 73.2657 40.6719 66.6932 38.4139C66.737 38.3347 66.7817 38.2622 66.8272 38.1967L66.6981 38.1069L66.6977 38.1062L66.6584 37.9546C66.4048 38.0204 66.1558 38.09 65.9114 38.163C65.667 38.09 65.418 38.0204 65.1644 37.9546L65.125 38.1062ZM66.5527 38.6983C66.5482 38.7083 66.5438 38.7184 66.5393 38.7286C69.9356 40.9365 72.4048 44.7887 73.0069 48.9007C73.6544 53.3231 72.1419 58.0454 67.3163 61.3463C72.9025 59.7994 75.9807 55.1694 75.9808 50.3985C75.9808 45.7359 73.0381 40.9107 66.5527 38.6983ZM72.6955 48.9463C73.3281 53.2666 71.8529 57.8817 67.0995 61.1133C69.4022 57.8196 70.2517 53.2143 69.9397 48.9122C69.6574 45.0183 68.4198 41.3314 66.4038 39.0714L66.4201 39.0266C69.7108 41.1889 72.1091 44.9411 72.6955 48.9463ZM65.9114 39.0049C65.8664 39.051 65.8217 39.0979 65.7774 39.1454C65.8239 39.2858 65.8686 39.4334 65.9114 39.5877C65.9542 39.4334 65.9988 39.2858 66.0454 39.1454C66.0011 39.0979 65.9564 39.051 65.9114 39.0049ZM55.842 50.3985C55.842 45.7359 58.7847 40.9107 65.2701 38.6983L65.2834 38.7286C61.8871 40.9365 59.418 44.7887 58.8159 48.9007C58.1684 53.3231 59.6809 58.0454 64.5065 61.3463C58.9202 59.7994 55.8421 55.1694 55.842 50.3985ZM59.1273 48.9463C59.7137 44.9411 62.112 41.1889 65.4027 39.0266L65.419 39.0714C63.403 41.3314 62.1654 45.0183 61.883 48.9122C61.571 53.2143 62.4206 57.8196 64.7233 61.1133C59.9699 57.8817 58.4947 53.2666 59.1273 48.9463ZM65.7257 42.2249C65.7819 41.8041 65.8437 41.4048 65.9114 41.0305C65.9791 41.4048 66.0409 41.8041 66.0971 42.2249C66.3488 44.1106 66.4852 46.4167 66.5267 48.817C66.604 53.2836 66.3527 58.0601 65.9114 61.0393C65.4701 58.0601 65.2188 53.2836 65.2961 48.817C65.3376 46.4167 65.474 44.1106 65.7257 42.2249Z" fill="#A93724"/>
</g>
<path d="M67.4846 63.2801C67.4846 64.149 66.7802 64.8535 65.9112 64.8535C65.0423 64.8535 64.3379 64.149 64.3379 63.2801C64.3379 62.4112 65.0423 61.7068 65.9112 61.7068C66.7802 61.7068 67.4846 62.4112 67.4846 63.2801Z" fill="#FC5D42"/>
<path fill-rule="evenodd" clip-rule="evenodd" d="M66.0691 60.9202V61.7068H65.7544V60.9202H66.0691Z" fill="#FC5D42"/>
<path fill-rule="evenodd" clip-rule="evenodd" d="M65.9113 65.0107C65.5637 65.0107 65.282 65.2925 65.282 65.64V68H64.9673V65.64C64.9673 65.1187 65.3899 64.696 65.9113 64.696C66.4326 64.696 66.8553 65.1187 66.8553 65.64V68H66.5406V65.64C66.5406 65.2925 66.2589 65.0107 65.9113 65.0107Z" fill="#FC5D42"/>
<path fill-rule="evenodd" clip-rule="evenodd" d="M65.7544 68.0002V64.8535H66.0691V68.0002H65.7544Z" fill="#FC5D42"/>
<path fill-rule="evenodd" clip-rule="evenodd" d="M66.0691 32.6001V38.1068H65.7544V32.6001H66.0691Z" fill="#FC5D42"/>
<path d="M9.21553 7.62946C12.6236 2.47115 16.3243 2.47157 18.4813 2.20774C19.4111 4.33478 21.4741 11.5302 22.4741 15C17.4567 14.7251 18.2289 17.8407 15.8384 21.3458C13.0211 25.4765 7.27781 23.8996 4.96181 24.3374L0.381847 11.5302C1.88782 11.6294 5.46665 13.3036 9.21553 7.62946Z" fill="#E2503C"/>
<mask id="mask1_2079_36314" style="mask-type:alpha" maskUnits="userSpaceOnUse" x="0" y="2" width="23" height="23">
<path d="M9.21553 7.62922C12.6236 2.47091 16.3243 2.47133 18.4813 2.2075C19.4111 4.33454 21.4741 11.53 22.4741 14.9998C17.4567 14.7249 18.2289 17.8405 15.8384 21.3455C13.0211 25.4763 7.27781 23.8994 4.96181 24.3372L0.381847 11.53C1.88782 11.6291 5.46665 13.3034 9.21553 7.62922Z" fill="#00008B"/>
</mask>
<g mask="url(#mask1_2079_36314)">
<path d="M6.35374 13.3873L6.96956 14.6386L8.3528 14.461C8.53189 14.438 8.63719 14.6562 8.50776 14.7821L7.50802 15.7544L8.10437 17.0151C8.18157 17.1783 8.00661 17.3459 7.84686 17.2617L6.61317 16.6114L5.5985 17.5681C5.46714 17.692 5.25369 17.5773 5.2844 17.3994L5.52165 16.0251L4.29818 15.3558C4.13977 15.2691 4.18286 15.0307 4.36156 15.0049L5.74188 14.8059L6.00041 13.4355C6.03395 13.258 6.27401 13.2253 6.35374 13.3873Z" fill="#FFE15A"/>
<path d="M11.415 13.0265L11.7867 13.4112L12.2711 13.1841C12.3338 13.1547 12.3979 13.222 12.3654 13.2832L12.1143 13.7556L12.48 14.1461C12.5274 14.1967 12.4831 14.2784 12.4149 14.2664L11.888 14.1736L11.6297 14.6421C11.5962 14.7027 11.5048 14.6859 11.4952 14.6173L11.4206 14.0875L10.8952 13.9866C10.8272 13.9735 10.815 13.8814 10.8772 13.851L11.358 13.6164L11.2916 13.0855C11.2831 13.0168 11.3669 12.9766 11.415 13.0265Z" fill="#FFE15A"/>
<path d="M9.33302 12.0125L9.86783 11.9979L10.0272 11.4872C10.0478 11.4211 10.1408 11.4193 10.164 11.4846L10.3431 11.9887L10.878 11.9825C10.9473 11.9817 10.9777 12.0695 10.9228 12.1117L10.4987 12.4378L10.6699 12.9446C10.6921 13.0102 10.618 13.0663 10.5608 13.0272L10.1196 12.7246L9.69051 13.044C9.63496 13.0854 9.55873 13.0323 9.57831 12.9658L9.72973 12.4527L9.29327 12.1433C9.23678 12.1033 9.26379 12.0143 9.33302 12.0125Z" fill="#FFE15A"/>
<path d="M10.8662 17.0363L10.611 17.5065L10.0835 17.4173C10.0152 17.4057 9.97146 17.4877 10.0192 17.538L10.3875 17.926L10.1396 18.4001C10.1075 18.4615 10.172 18.5284 10.2345 18.4986L10.7174 18.2682L11.0917 18.6505C11.1401 18.7 11.2237 18.6593 11.2146 18.5906L11.1447 18.0602L11.6239 17.8224C11.686 17.7916 11.6731 17.6995 11.605 17.6869L11.079 17.5895L11.0009 17.0602C10.9907 16.9917 10.8992 16.9754 10.8662 17.0363Z" fill="#FFE15A"/>
<path d="M12.6121 15.5785L12.0929 15.7076L11.8026 15.2581C11.7651 15.1999 11.675 15.2231 11.6702 15.2922L11.6325 15.8258L11.1154 15.963C11.0484 15.9808 11.0426 16.0735 11.1068 16.0995L11.6027 16.3002L11.5734 16.8344C11.5696 16.9035 11.656 16.9377 11.7005 16.8847L12.0447 16.4751L12.5437 16.6681C12.6082 16.693 12.6675 16.6214 12.6308 16.5627L12.3476 16.1088L12.6854 15.6939C12.7291 15.6402 12.6793 15.5618 12.6121 15.5785Z" fill="#FFE15A"/>
</g>
<path d="M17.9741 2L25.4741 24" stroke="url(#paint0_linear_2079_36314)" stroke-linecap="round"/>
<path d="M35.963 39.9921C35.5501 37.7402 31.872 26.2553 19.8242 22.6523C9.95319 19.7247 14.9825 27.4939 17.91 29.333C17.91 29.333 15.7331 27.9818 14.5696 29.2579C13.4062 30.4965 14.3069 34.8502 19.599 36.6142C19.599 36.6142 14.9825 35.2631 14.6447 38.9412C14.3069 42.6194 19.1486 46.0723 25.9419 47.386C32.7352 48.6996 36.4134 42.2441 35.963 39.9921Z" fill="#989899"/>
<defs>
<linearGradient id="paint0_linear_2079_36314" x1="21.5" y1="13" x2="26" y2="23.5" gradientUnits="userSpaceOnUse">
<stop stop-color="#DDDDDD"/>
<stop offset="1" stop-color="white"/>
</linearGradient>
</defs>
</svg>
