<svg width="80" height="70" viewBox="0 0 80 70" fill="none" xmlns="http://www.w3.org/2000/svg">
<path fill-rule="evenodd" clip-rule="evenodd" d="M18.798 25L23.2278 23.5907L24 19.6095C23.6648 19.4085 23.2393 19.1365 22.7722 18.8378C21.1057 17.7722 18.9091 16.3676 18.3873 16.6401C18.2352 16.5851 18.1826 16.5074 18.132 16.4328C18.0279 16.2791 17.9326 16.1385 16.9962 16.2362C16.6415 15.9313 16.4474 15.988 16.2503 16.0456C16.1614 16.0716 16.0718 16.0978 15.9666 16.0911C15.7488 16.0771 15.5334 16.0748 15.3209 16.0856C14.5929 16.1225 14.046 16.7292 14.0092 17.4572C13.9757 18.1182 14.0352 18.758 14.1648 19.3669C14.6303 20.3388 14.5171 20.6678 14.438 20.8976C14.3422 21.1761 14.2965 21.3088 15.3919 22.263C14.6792 22.4459 15.4901 22.994 16.155 23.4434C16.3946 23.6054 16.6153 23.7545 16.7388 23.8691C15.3919 23.8691 18.2832 25 18.798 25ZM59.202 26L54.7722 24.5907L54 20.6095C54.3352 20.4085 54.7607 20.1365 55.2278 19.8378C56.8943 18.7722 59.0909 17.3676 59.6127 17.6401C59.7648 17.5851 59.8174 17.5074 59.868 17.4328C59.9721 17.2791 60.0674 17.1385 61.0038 17.2362C61.3585 16.9313 61.5526 16.988 61.7497 17.0456C61.8386 17.0716 61.9282 17.0978 62.0334 17.0911C62.2512 17.0771 62.4666 17.0748 62.6791 17.0856C63.4071 17.1225 63.954 17.7292 63.9908 18.4572C64.0243 19.1182 63.9648 19.758 63.8352 20.3669C63.3697 21.3388 63.4829 21.6678 63.562 21.8976C63.6578 22.1761 63.7035 22.3088 62.6081 23.263C63.3208 23.4459 62.5099 23.994 61.845 24.4434C61.6054 24.6054 61.3847 24.7545 61.2612 24.8691C62.6081 24.8691 59.7168 26 59.202 26Z" fill="#FEC047"/>
<path d="M61 21C53.8 23.4 30 22 19 21L23.5 17.5H56C56.3333 17.1667 57.8 17.4 61 21Z" fill="black" fill-opacity="0.35"/>
<path d="M21.7192 20.2591C20.077 20.049 25.1404 16.1459 27.8774 14.2206C43.4781 7.70949 51.997 12.5578 54.3064 15.7958C56.017 17.2836 59.3356 20.4166 58.925 21.0467C58.5145 21.6768 57.3855 21.3092 56.8723 21.0467C58.0697 22.0094 60.362 24.0922 59.9514 24.7223C59.5409 25.3524 57.5566 23.7596 56.6157 22.8845C57.8131 24.2847 59.9514 27.1377 58.925 27.3477C57.8987 27.5578 57.1289 26.9102 56.8723 26.5601C56.017 31.3734 51.1247 41 38.3977 41C25.6707 41 22.3179 31.3734 22.2324 26.5601C21.8903 26.5601 21.0008 26.3501 20.1798 25.5099C19.4162 24.7286 21.2566 23.1297 22.4811 22.2762C22.2089 22.4076 21.7726 22.5043 21.206 22.3594C20.4861 22.1753 21.8177 20.9012 22.8485 20.0591C22.6025 20.1699 22.2371 20.2591 21.7192 20.2591Z" fill="#FFE047"/>
<path d="M22.8089 19.7213L22.4267 19.8647C22.3645 19.8881 22.2986 19.9 22.2322 19.9C21.7547 19.9 21.5012 19.3358 21.8184 18.9788L23.073 17.5666C23.2839 17.3293 23.5691 17.1705 23.882 17.1163L29.9821 16.06C30.2126 16.0201 30.4462 16 30.6801 16H54.3646C55.6738 16 56.8978 16.6313 57.7009 17.6653C58.4516 18.6318 59.257 19.6075 59.6468 19.9C60.3657 20.4395 59.1375 20.9089 58.2959 20.5932L57.7877 20.4025C56.9272 20.0796 55.9761 20.0959 55.1271 20.4479L52.9999 21.3301C51.968 21.758 50.8061 21.7453 49.7839 21.2951L47.1266 20.1247C45.9479 19.6055 44.5936 19.6718 43.4712 20.3034L42.3174 20.9528C41.1515 21.6089 39.7385 21.6536 38.5336 21.0723L36.6812 20.1787C35.5331 19.6249 34.1924 19.6379 33.0553 20.2139L31.3332 21.0861C30.1961 21.6621 28.8554 21.6751 27.7073 21.1213L25.0121 19.8211C24.3221 19.4883 23.5261 19.4522 22.8089 19.7213Z" fill="black" fill-opacity="0.15"/>
<path fill-rule="evenodd" clip-rule="evenodd" d="M33 22C33.5523 22 34 21.5523 34 21C34 20.4477 33.5523 20 33 20C32.4477 20 32 20.4477 32 21C32 21.5523 32.4477 22 33 22ZM46 22C46.5523 22 47 21.5523 47 21C47 20.4477 46.5523 20 46 20C45.4477 20 45 20.4477 45 21C45 21.5523 45.4477 22 46 22Z" fill="#443635"/>
<mask id="mask0_2079_36310" style="mask-type:alpha" maskUnits="userSpaceOnUse" x="16" y="22" width="47" height="35">
<path d="M39.5541 57C58.2345 57 67.2437 43.6789 61.0662 25.5L56.0938 22.6393C55.4143 22.2483 54.5711 22.2801 53.923 22.7212L50.9907 24.7168C50.2963 25.1894 49.3835 25.1894 48.6891 24.7168L45.8478 22.7832C45.1533 22.3106 44.2406 22.3106 43.5461 22.7832L40.7049 24.7168C40.0105 25.1894 39.0977 25.1894 38.4033 24.7168L35.562 22.7832C34.8676 22.3106 33.9548 22.3106 33.2604 22.7832L30.4121 24.7216C29.7212 25.1918 28.8137 25.1944 28.1201 24.7281L25.1063 22.7021C24.4659 22.2715 23.6376 22.2381 22.9645 22.6156L17.8224 25.5C10.8723 47.858 25.0295 57 39.5541 57Z" fill="#D9D9D9"/>
</mask>
<g mask="url(#mask0_2079_36310)">
<path d="M63 37.7885C63 48.4327 52.4787 57 39.5 57C26.5213 57 16 47.9135 16 37.7885C16 22.8768 26.5213 3 39.5 3C52.4787 3 63 22.8768 63 37.7885Z" fill="#E2503C"/>
<path fill-rule="evenodd" clip-rule="evenodd" d="M44.4586 29.2688L43.1909 29.1294C43.0268 29.1113 42.9344 29.3151 43.0549 29.4291L43.9861 30.3107L43.4634 31.4877C43.3957 31.6401 43.5587 31.7919 43.7032 31.7112L44.8194 31.0874L45.764 31.9543C45.8863 32.0665 46.0794 31.9566 46.0481 31.7926L45.8068 30.5255L46.9134 29.8843C47.0567 29.8013 47.0131 29.5816 46.8493 29.5609L45.5839 29.4016L45.3232 28.1384C45.2894 27.9748 45.0694 27.9489 44.9994 28.1002L44.4586 29.2688ZM34.9456 32.3361L36.0482 35.797L39.5331 35.8253C39.9843 35.8289 40.1715 36.4317 39.8085 36.7123L37.0049 38.8796L38.0561 42.358C38.1922 42.8084 37.7024 43.1809 37.3353 42.9062L34.5 40.7847L31.6647 42.9062C31.2977 43.1808 30.8078 42.8083 30.9439 42.358L31.9951 38.8796L29.1915 36.7123C28.8285 36.4317 29.0157 35.829 29.4669 35.8253L32.9518 35.797L34.0544 32.3361C34.1974 31.888 34.8028 31.888 34.9456 32.3361ZM47.7186 33.0701L48.5024 34.0921L49.7674 33.7139C49.9311 33.6649 50.0658 33.8434 49.9656 33.9766L49.1913 35.0052L49.9583 36.0387C50.0577 36.1725 49.9217 36.3501 49.7582 36.3002L48.4959 35.9139L47.7051 36.9308C47.6027 37.0625 47.3839 36.9937 47.3832 36.8297L47.3774 35.5623L46.1215 35.1574C45.9589 35.105 45.9597 34.8848 46.1226 34.8334L47.3813 34.4365L47.396 33.1693C47.398 33.0051 47.6172 32.9378 47.7186 33.0701ZM45.2814 43.0701L44.4976 44.0921L43.2326 43.7139C43.0689 43.6649 42.9342 43.8434 43.0344 43.9766L43.8087 45.0052L43.0417 46.0387C42.9423 46.1725 43.0783 46.3501 43.2418 46.3002L44.5041 45.9139L45.2949 46.9308C45.3974 47.0625 45.6161 46.9937 45.6168 46.8297L45.6226 45.5623L46.8785 45.1574C47.0411 45.105 47.0403 44.8848 46.8774 44.8335L45.6187 44.4366L45.604 43.1693C45.6021 43.0051 45.3828 42.9378 45.2814 43.0701ZM48.5414 39.2688L49.8091 39.1294C49.9732 39.1113 50.0656 39.3151 49.9451 39.429L49.0139 40.3107L49.5366 41.4876C49.6043 41.6401 49.4413 41.7919 49.2968 41.7112L48.1806 41.0874L47.236 41.9543C47.1137 42.0665 46.9206 41.9566 46.9519 41.7926L47.1932 40.5255L46.0866 39.8843C45.9433 39.8013 45.9869 39.5815 46.1507 39.5609L47.4161 39.4015L47.6768 38.1384C47.7106 37.9748 47.9306 37.9489 48.0006 38.1002L48.5414 39.2688Z" fill="#FFE15A"/>
<path d="M52 53.88C48.6809 56.22 41.2509 57 38.3047 57C27.7447 57 16 48.2845 16 38.573C16 33.1799 17.2766 24.5 20.8511 18C17.8837 39.9132 26.8749 53.88 52 53.88Z" fill="black" fill-opacity="0.3"/>
</g>
<mask id="mask1_2079_36310" style="mask-type:alpha" maskUnits="userSpaceOnUse" x="19" y="0" width="42" height="21">
<path d="M39.4815 0C49.6444 0 56.8519 9.7125 61 21L56.6647 18.8324C56.0889 18.5445 55.4111 18.5445 54.8352 18.8324L51.4147 20.5426C50.8389 20.8305 50.1611 20.8305 49.5852 20.5426L46.1648 18.8324C45.5889 18.5445 44.9111 18.5445 44.3352 18.8324L40.9148 20.5426C40.3389 20.8305 39.6611 20.8305 39.0852 20.5426L35.6648 18.8324C35.0889 18.5445 34.4111 18.5445 33.8352 18.8324L30.4148 20.5426C29.8389 20.8305 29.1611 20.8305 28.5852 20.5426L25.1648 18.8324C24.5889 18.5445 23.9111 18.5445 23.3352 18.8324L19 21C20.8148 14.4375 29.3185 0 39.4815 0Z" fill="#D9D9D9"/>
</mask>
<g mask="url(#mask1_2079_36310)">
<rect x="16" y="-5" width="49" height="30" fill="#E2503C"/>
<path d="M41.1143 8.27126L41.6919 10.0841L43.5174 10.0989C43.7537 10.1008 43.8517 10.4166 43.6616 10.5636L42.1931 11.6988L42.7437 13.5208C42.815 13.7567 42.5584 13.9519 42.3661 13.808L40.881 12.6967L39.3958 13.808C39.2035 13.9518 38.9469 13.7567 39.0182 13.5208L39.5689 11.6988L38.1003 10.5636C37.9102 10.4166 38.0082 10.1009 38.2445 10.0989L40.07 10.0841L40.6476 8.27126C40.7224 8.03653 41.0396 8.03653 41.1143 8.27126Z" fill="black" fill-opacity="0.15"/>
</g>
<path fill-rule="evenodd" clip-rule="evenodd" d="M16.642 49.907L17.2929 49.9871C20.9199 50.434 21.459 50.5004 23.588 50.1966C24.8259 50.0199 26.1994 50.308 28.0447 50.695C30.626 51.2364 34.1306 51.9714 39.4791 51.8991C45.1494 51.9451 48.9448 50.7768 51.615 49.9549C52.7981 49.5907 53.7603 49.2945 54.5667 49.2021C57.43 48.8741 58.3558 49.0087 59.4192 49.1633C60.4704 49.3162 61.6561 49.4886 64.9808 49.253C61.5187 49.924 59.2938 49.9542 59.2938 49.9542C62.0249 50.6842 64.7909 53.0906 64.7909 53.0906C64.7909 53.0906 62.6046 51.4955 60.7977 51.6106C64.2481 53.6321 66.2261 55.9948 67.2863 58.4602C68.4699 60.1354 69.1446 61.7737 69.3991 64.6592C69.0744 63.4391 68.6555 62.2758 68.1151 61.232C68.5468 63.6082 68.3394 65.9972 67.9639 68.1963C66.5126 70.8526 20.8838 70.2398 15.6513 68.3424C15.061 66.7907 13.5634 62.5766 16.517 57.4548C15.28 58.5473 14.1852 59.9318 13.2197 61.448C14.6029 58.2755 15.9713 56.8048 18.0978 55.1761C18.8023 54.3112 19.6436 53.4292 20.6442 52.5375C20.6442 52.5375 18.8614 52.4371 17.002 53.5466C16.9041 53.6097 16.8016 53.6746 16.6938 53.7415C16.8635 53.6274 17.0305 53.5206 17.1943 53.4211C17.4715 53.238 17.7114 53.0706 17.9327 52.9162C19.0968 52.104 19.7456 51.6513 22.609 51.1686C19.8824 51.2055 17.641 50.4688 16.642 49.907Z" fill="#ECA75A"/>
<path fill-rule="evenodd" clip-rule="evenodd" d="M59.9998 59.5867C60.5801 53.8575 55.4202 51.3288 51.8071 51.5643C57.4003 52.4672 59.4589 55.9097 59.9998 59.5867ZM20.1782 61.9128C20.5031 61.6723 20.9752 61.1586 21.5956 60.4835C23.748 58.1415 27.6854 53.8573 33.4507 52.3017C26.7516 53.5403 23.116 57.4311 20.1782 61.9128ZM30.5234 56.314L30.5265 56.3126C30.2808 56.5598 29.9445 56.7913 29.5459 57.0656C28.1195 58.0474 25.8962 59.5777 24.182 64.3407C24.7525 60.9745 26.5745 58.0743 30.5234 56.314ZM66.4285 68.2365C66.1383 62.2605 63.2366 57.8573 61.8006 56.3858C62.0139 56.9735 62.3234 57.5402 62.7014 58.2322C63.6561 59.9801 65.0477 62.5278 66.4285 68.2365ZM39.9567 56.1852C38.9705 57.2566 37.7503 59.1294 37.2751 61.2847C36.7993 63.4426 37.0681 65.8975 39.0895 68.1103C38.9578 67.7761 38.8268 67.4602 38.7007 67.156C37.5127 64.2913 36.7568 62.4686 39.9567 56.1852ZM27.9149 67.1349C28.39 64.8678 29.6125 62.8984 30.6007 61.772C29.0416 64.9865 28.4207 67.0912 28.3315 68.7522L27.7169 68.7605C27.7341 68.2064 27.8043 67.6622 27.9149 67.1349ZM46.8783 54.106C50.7009 54.3735 53.0865 60.168 52.9383 62.4626C52.8855 62.325 52.8328 62.1867 52.7799 62.048C51.5391 58.7966 50.2113 55.3173 46.8783 54.106Z" fill="#B7651C"/>
<path fill-rule="evenodd" clip-rule="evenodd" d="M64.7109 51.3826C62.6017 49.5966 60.1003 49.7263 57.952 49.9183C60.712 50.016 62.054 49.748 64.7109 51.3826Z" fill="#FFCA8F"/>
<path fill-rule="evenodd" clip-rule="evenodd" d="M24.0075 51.4453C21.9645 51.9669 19.5618 52.4811 17.0525 51.0347C19.5938 52.0598 20.8715 51.8795 22.8471 51.6007C23.2068 51.55 23.5897 51.4959 24.0075 51.4453ZM19.6344 58.4457C20.6296 56.166 23.4369 53.0811 27.9842 51.8796C24.5022 52.3838 19.978 55.4186 19.6344 58.4457ZM49.8111 66.8585C50.7619 64.4866 50.8323 60.6241 47.9835 57.5764C50.4896 59.5585 51.888 64.1458 49.8111 66.8585ZM57.9537 59.7081C57.6518 57.9049 56.1365 55.3009 52.9295 53.8991C55.4677 54.6639 58.2936 57.4233 57.9537 59.7081ZM32.4773 59.5566C32.7304 57.7459 34.1746 55.1019 37.3425 53.6139C34.826 54.447 32.0757 57.2819 32.4773 59.5566ZM68.728 58.1923C66.901 54.0496 64.0468 53.4158 61.1493 52.7724C61.0067 52.7407 60.864 52.709 60.7213 52.6769C61.5259 53.048 62.2275 53.3426 62.8554 53.6062L62.8555 53.6063C65.3614 54.6583 66.6954 55.2184 68.728 58.1923ZM14.6694 58.1493C15.0449 56.4441 15.622 54.4996 18.9329 53.6876C16.1802 54.7802 15.7461 55.757 15.075 57.2673C14.9528 57.5423 14.8228 57.835 14.6694 58.1493Z" fill="#FFCA8F"/>
<path d="M67.9588 68.1969C66.504 70.8525 20.766 70.2415 15.5211 68.3447C15.1726 67.4309 13.9702 63.9382 15.8917 58.9927C25.0269 72.8896 63.9657 66.9513 67.8483 60.0115C68.0347 61.9754 68.2703 66.378 67.9588 68.1969Z" fill="black" fill-opacity="0.1"/>
<path d="M65 62.5C58.0977 62.4999 54 67.5 53 69.9655L73.5 69.9655C72.8835 68.8216 70.1283 62.5001 65 62.5Z" fill="#E3DFD9"/>
</svg>
