<svg width="80" height="70" viewBox="0 0 80 70" fill="none" xmlns="http://www.w3.org/2000/svg">
<path fill-rule="evenodd" clip-rule="evenodd" d="M18.9132 24.2234L23.4495 22.7304L24.2402 18.5131C23.8969 18.3002 23.4613 18.012 22.9829 17.6955C21.2764 16.5668 19.027 15.0789 18.4927 15.3675C18.337 15.3093 18.2831 15.227 18.2313 15.1479C18.1246 14.9852 18.027 14.8362 17.0682 14.9397C16.7049 14.6166 16.5062 14.6768 16.3043 14.7378C16.2133 14.7653 16.1216 14.7931 16.0139 14.7859C15.7916 14.7712 15.5717 14.7687 15.3549 14.78C14.6067 14.8189 14.0514 15.4481 14.0113 16.1962C13.973 16.9094 14.0337 17.5997 14.1688 18.256C14.6455 19.2856 14.5295 19.6342 14.4486 19.8776C14.3504 20.1726 14.3037 20.3131 15.4253 21.324C14.6955 21.5178 15.5259 22.0984 16.2068 22.5744C16.4522 22.746 16.6781 22.904 16.8046 23.0254C15.4253 23.0254 18.3861 24.2234 18.9132 24.2234ZM60.0868 24.5318L55.5505 23.0389L54.7598 18.8216C55.1031 18.6086 55.5388 18.3204 56.0171 18.004C57.7236 16.8753 59.973 15.3874 60.5073 15.676C60.663 15.6178 60.7169 15.5355 60.7687 15.4564C60.8754 15.2936 60.973 15.1447 61.9318 15.2482C62.2951 14.9251 62.4938 14.9852 62.6957 15.0463C62.7867 15.0738 62.8784 15.1015 62.9861 15.0944C63.2084 15.0796 63.4283 15.0772 63.6451 15.0885C64.3933 15.1274 64.9486 15.7565 64.9887 16.5046C65.027 17.2179 64.9663 17.9081 64.8312 18.5645C64.3545 19.5941 64.4705 19.9427 64.5514 20.1861C64.6496 20.4811 64.6963 20.6216 63.5747 21.6325C64.3045 21.8262 63.4741 22.4068 62.7932 22.8829C62.5478 23.0545 62.3219 23.2124 62.1954 23.3338C63.5747 23.3338 60.6139 24.5318 60.0868 24.5318Z" fill="#FEC047"/>
<path fill-rule="evenodd" clip-rule="evenodd" d="M39.045 3.01943C38.3907 2.45892 37.6661 1.69124 38.1668 1.60741C38.7561 1.50876 39.4927 2.05957 39.7873 2.34731C39.6891 1.60742 39.7283 0.102963 40.6712 0.0043097C41.614 -0.0943432 41.3587 1.5252 41.1131 2.34731C41.8497 1.85405 43.4113 1.0155 43.7649 1.60741C44.0078 2.01414 42.8967 2.63822 41.875 3.09561C51.5877 4.03288 56.4213 11.7195 60.1256 19.8689C60.4485 20.5795 59.2082 19.7819 58.3438 19.2261C58.0541 19.0399 57.8066 18.8807 57.6743 18.8146C58.9044 19.781 61.259 22.9271 60.8373 23.5597C60.4155 24.1923 58.3772 22.5932 57.4108 21.7146C58.6408 23.1204 60.8373 25.9846 59.783 26.1954C58.7286 26.4063 57.9379 25.7562 57.6743 25.4047C56.7958 30.237 51.7702 39.9014 38.6968 39.9014C25.6234 39.9014 22.1794 30.237 22.0915 25.4047C21.7401 25.4047 20.8264 25.1939 19.983 24.3504C19.1987 23.566 21.0892 21.9608 22.347 21.1039C22.0674 21.2359 21.6192 21.333 21.0372 21.1875C20.2708 20.9959 22.638 18.9764 23.077 18.6089C22.6897 18.8417 20.8665 19.3836 21.0372 18.8146C22.5803 14.1857 28.4636 3.53524 39.045 3.01943Z" fill="#FFE047"/>
<path fill-rule="evenodd" clip-rule="evenodd" d="M50.7804 16.3872C50.6746 16.1159 50.3689 15.9819 50.0977 16.0877C49.8265 16.1936 49.6924 16.4992 49.7983 16.7705C49.807 16.7929 49.8169 16.8248 49.8352 16.8863L49.8373 16.8932L49.8373 16.8932C49.8529 16.9457 49.8745 17.0185 49.9013 17.0904C49.9474 17.2142 50.0604 17.4903 50.3447 17.6324C50.6051 17.7626 50.9217 17.6571 51.0519 17.3967C51.168 17.1645 51.0967 16.8876 50.8953 16.738L50.8893 16.7225C50.876 16.6867 50.8636 16.6456 50.8458 16.5858L50.8438 16.5791L50.8438 16.579L50.8438 16.579L50.8437 16.5788L50.8437 16.5788C50.8285 16.5278 50.8069 16.455 50.7804 16.3872ZM46.1584 16.0813C46.4495 16.0813 46.6856 16.3173 46.6856 16.6085C46.6856 16.6717 46.6852 16.7259 46.685 16.7729V16.7734V16.7738V16.7741V16.7742C46.6836 17.0062 46.6833 17.0616 46.7269 17.1489C46.8571 17.4093 46.7516 17.7259 46.4912 17.8561C46.2308 17.9863 45.9141 17.8808 45.7839 17.6204C45.6166 17.2858 45.6243 16.9458 45.6296 16.7119L45.6296 16.7116C45.6305 16.6744 45.6312 16.6399 45.6312 16.6085C45.6312 16.3173 45.8673 16.0813 46.1584 16.0813ZM36.3228 16.2555C36.6085 16.3113 36.795 16.5881 36.7392 16.8739C36.7315 16.9136 36.724 16.9509 36.717 16.9862L36.717 16.9863L36.717 16.9863C36.6785 17.179 36.652 17.3122 36.652 17.452C36.652 17.7432 36.4159 17.9792 36.1248 17.9792C35.8337 17.9792 35.5977 17.7432 35.5977 17.452C35.5977 17.198 35.6484 16.9483 35.6868 16.7595L35.6869 16.7593L35.687 16.7589L35.687 16.7585C35.6933 16.728 35.6991 16.699 35.7044 16.6719C35.7602 16.3862 36.037 16.1997 36.3228 16.2555ZM32.2768 16.971C32.3326 16.6853 32.1461 16.4084 31.8604 16.3527C31.5746 16.2969 31.2978 16.4834 31.242 16.7691C31.1807 17.0834 31.1353 17.3945 31.1353 17.7432C31.1353 18.0344 31.3713 18.2704 31.6624 18.2704C31.9535 18.2704 32.1896 18.0344 32.1896 17.7432C32.1896 17.4893 32.222 17.2521 32.2768 16.971ZM27.6106 17.4905C27.7924 17.2632 27.7556 16.9314 27.5282 16.7496C27.3009 16.5677 26.9692 16.6046 26.7873 16.8319L26.3992 17.317C26.2173 17.5443 26.2542 17.8761 26.4815 18.0579C26.7089 18.2398 27.0406 18.203 27.2225 17.9756L27.6106 17.4905ZM41.6749 16.8721C41.6749 16.581 41.4389 16.345 41.1478 16.345C40.8566 16.345 40.6206 16.581 40.6206 16.8721V16.8737V16.8752V16.8768V16.8783V16.8799V16.8814V16.883V16.8845V16.886V16.8876V16.8891V16.8907V16.8922V16.8938V16.8953V16.8969V16.8984V16.9V16.9015V16.903V16.9046V16.9061V16.9077V16.9092V16.9108V16.9123V16.9139V16.9154V16.917V16.9185V16.9201V16.9216V16.9232V16.9247V16.9263V16.9278V16.9294V16.9309V16.9325V16.934V16.9356V16.9372V16.9387V16.9403V16.9418V16.9434V16.9449V16.9465V16.948V16.9496V16.9512V16.9527V16.9543V16.9558V16.9574V16.959V16.9605V16.9621V16.9637V16.9652V16.9668V16.9684V16.9699V16.9715V16.9731V16.9746V16.9762V16.9778V16.9794V16.9809V16.9825V16.9841V16.9856V16.9872V16.9888V16.9904V16.992V16.9935V16.9951V16.9967V16.9983V16.9999V17.0015V17.003V17.0046V17.0062V17.0078V17.0094V17.011V17.0126V17.0142V17.0158V17.0174V17.0189V17.0205V17.0221V17.0237V17.0253V17.0269V17.0285V17.0302V17.0318V17.0334V17.035V17.0366V17.0382V17.0398V17.0414V17.043V17.0446V17.0463V17.0479V17.0495V17.0511V17.0527V17.0544V17.056V17.0576V17.0592V17.0609V17.0625V17.0641V17.0658V17.0674V17.069V17.0707V17.0723V17.0739V17.0756V17.0772V17.0789V17.0805V17.0822V17.0838V17.0855V17.0871V17.0888V17.0904V17.0921V17.0937V17.0954V17.0971V17.0987V17.1004V17.1021V17.1037V17.1054V17.1071V17.1088V17.1104V17.1121V17.1138V17.1155V17.1172V17.1188V17.1205V17.1222V17.1239V17.1256V17.1273V17.129V17.1307V17.1324V17.1341V17.1358V17.1375V17.1392V17.1409V17.1426V17.1443V17.1461V17.1478V17.1495V17.1512V17.1529V17.1547V17.1564V17.1581V17.1599V17.1616V17.1633V17.1651V17.1668V17.1685V17.1703V17.172V17.1738V17.1755V17.1773V17.179V17.1808V17.1826V17.1843V17.1861V17.1879V17.1896V17.1914V17.1932V17.195V17.1967V17.1985V17.2003V17.2021V17.2039V17.2057V17.2075V17.2093V17.211V17.2128V17.2147V17.2165V17.2183V17.2201V17.2219V17.2237V17.2255V17.2273V17.2292V17.231V17.2328V17.2347V17.2365V17.2383V17.2402V17.242V17.2438V17.2457V17.2475V17.2494V17.2512V17.2531V17.255V17.2568V17.2587V17.2606V17.2624V17.2643V17.2662V17.2681V17.2699V17.2718V17.2737V17.2756V17.2775V17.2794V17.2813V17.2832V17.2851V17.287V17.2889V17.2908V17.2928V17.2947V17.2966V17.2985V17.3005V17.3024V17.3043V17.3063V17.3082V17.3101V17.3121V17.314V17.316V17.318V17.3199V17.3219V17.3238V17.3258V17.3278V17.3298V17.3317V17.3337V17.3357V17.3377V17.3397V17.3417V17.3437V17.3457V17.3477V17.3497V17.3517V17.3537V17.3557V17.3578V17.3598V17.3618V17.3638V17.3659V17.3679V17.37V17.372V17.374V17.3761V17.3782V17.3802V17.3823V17.3843V17.3864V17.3885V17.3906V17.3926V17.3947V17.3968V17.3989V17.401V17.4031V17.4052V17.4073V17.4094V17.4115V17.4136V17.4158V17.4179V17.42V17.4221V17.4243V17.4264V17.4286V17.4307V17.4328V17.435V17.4372V17.4393V17.4415V17.4437V17.4458V17.448V17.4502V17.4524V17.4546V17.4567V17.4589V17.4611V17.4633V17.4656V17.4678V17.47V17.4722V17.4744V17.4766V17.4789V17.4811V17.4834V17.4856V17.4878V17.4901V17.4924V17.4946V17.4969V17.4991V17.5014V17.5037V17.506V17.5083V17.5106V17.5128V17.5151V17.5174V17.5197V17.5221V17.5244V17.5267V17.529V17.5313V17.5337V17.536V17.5383V17.5407V17.543V17.5454V17.5478V17.5501V17.5525V17.5549V17.5572V17.5596V17.562V17.5644V17.5668V17.5692V17.5716V17.574V17.5764V17.5788V17.5812V17.5836V17.5861V17.5885V17.5909V17.5934V17.5958V17.5983V17.6007V17.6032V17.6057V17.6081V17.6106V17.6131V17.6156V17.6181V17.6206V17.6231V17.6256V17.6281V17.6306V17.6331V17.6356V17.6382V17.6407V17.6432V17.6458V17.6483V17.6509V17.6534V17.656V17.6586V17.6611V17.6637V17.6663V17.6689V17.6715V17.6741V17.6767V17.6793V17.6819V17.6845V17.6871V17.6897V17.6924V17.695V17.6976V17.7003V17.7029V17.7056V17.7083V17.7109V17.7136V17.7163V17.719V17.7216V17.7243V17.727V17.7297V17.7325V17.7352V17.7379V17.7406V17.7433V17.7461V17.7488V17.7516V17.7543V17.7571V17.7598V17.7626V17.7654V17.7681V17.7709V17.7737V17.7765V17.7793V17.7821V17.7849V17.7877V17.7906V17.7934V17.7962V17.7991V17.8019V17.8047V17.8076V17.8105V17.8133V17.8162V17.8191V17.822V17.8248V17.8277V17.8306V17.8335V17.8364V17.8394V17.8423V17.8452V17.8481V17.8511V17.854V17.857V17.8599V17.8629V17.8659V17.8688V17.8718V17.8748V17.8778V17.8808V17.8838V17.8868V17.8898V17.8928V17.8959V17.8989V17.9019V17.905V17.908V17.9111V17.9141V17.9172V17.9203V17.9234V17.9264C40.6206 18.2176 40.8566 18.4536 41.1478 18.4536C41.4389 18.4536 41.6749 18.2176 41.6749 17.9264V17.9234V17.9203V17.9172V17.9141V17.9111V17.908V17.905V17.9019V17.8989V17.8959V17.8928V17.8898V17.8868V17.8838V17.8808V17.8778V17.8748V17.8718V17.8688V17.8659V17.8629V17.8599V17.857V17.854V17.8511V17.8481V17.8452V17.8423V17.8394V17.8364V17.8335V17.8306V17.8277V17.8248V17.822V17.8191V17.8162V17.8133V17.8105V17.8076V17.8047V17.8019V17.7991V17.7962V17.7934V17.7906V17.7877V17.7849V17.7821V17.7793V17.7765V17.7737V17.7709V17.7681V17.7654V17.7626V17.7598V17.7571V17.7543V17.7516V17.7488V17.7461V17.7433V17.7406V17.7379V17.7352V17.7325V17.7297V17.727V17.7243V17.7216V17.719V17.7163V17.7136V17.7109V17.7083V17.7056V17.7029V17.7003V17.6976V17.695V17.6924V17.6897V17.6871V17.6845V17.6819V17.6793V17.6767V17.6741V17.6715V17.6689V17.6663V17.6637V17.6611V17.6586V17.656V17.6534V17.6509V17.6483V17.6458V17.6432V17.6407V17.6382V17.6356V17.6331V17.6306V17.6281V17.6256V17.6231V17.6206V17.6181V17.6156V17.6131V17.6106V17.6081V17.6057V17.6032V17.6007V17.5983V17.5958V17.5934V17.5909V17.5885V17.5861V17.5836V17.5812V17.5788V17.5764V17.574V17.5716V17.5692V17.5668V17.5644V17.562V17.5596V17.5572V17.5549V17.5525V17.5501V17.5478V17.5454V17.543V17.5407V17.5383V17.536V17.5337V17.5313V17.529V17.5267V17.5244V17.5221V17.5197V17.5174V17.5151V17.5128V17.5106V17.5083V17.506V17.5037V17.5014V17.4991V17.4969V17.4946V17.4924V17.4901V17.4878V17.4856V17.4834V17.4811V17.4789V17.4766V17.4744V17.4722V17.47V17.4678V17.4656V17.4633V17.4611V17.4589V17.4567V17.4546V17.4524V17.4502V17.448V17.4458V17.4437V17.4415V17.4393V17.4372V17.435V17.4328V17.4307V17.4286V17.4264V17.4243V17.4221V17.42V17.4179V17.4158V17.4136V17.4115V17.4094V17.4073V17.4052V17.4031V17.401V17.3989V17.3968V17.3947V17.3926V17.3906V17.3885V17.3864V17.3843V17.3823V17.3802V17.3782V17.3761V17.374V17.372V17.37V17.3679V17.3659V17.3638V17.3618V17.3598V17.3578V17.3557V17.3537V17.3517V17.3497V17.3477V17.3457V17.3437V17.3417V17.3397V17.3377V17.3357V17.3337V17.3317V17.3298V17.3278V17.3258V17.3238V17.3219V17.3199V17.318V17.316V17.314V17.3121V17.3101V17.3082V17.3063V17.3043V17.3024V17.3005V17.2985V17.2966V17.2947V17.2928V17.2908V17.2889V17.287V17.2851V17.2832V17.2813V17.2794V17.2775V17.2756V17.2737V17.2718V17.2699V17.2681V17.2662V17.2643V17.2624V17.2606V17.2587V17.2568V17.255V17.2531V17.2512V17.2494V17.2475V17.2457V17.2438V17.242V17.2402V17.2383V17.2365V17.2347V17.2328V17.231V17.2292V17.2273V17.2255V17.2237V17.2219V17.2201V17.2183V17.2165V17.2147V17.2128V17.211V17.2093V17.2075V17.2057V17.2039V17.2021V17.2003V17.1985V17.1967V17.195V17.1932V17.1914V17.1896V17.1879V17.1861V17.1843V17.1826V17.1808V17.179V17.1773V17.1755V17.1738V17.172V17.1703V17.1685V17.1668V17.1651V17.1633V17.1616V17.1599V17.1581V17.1564V17.1547V17.1529V17.1512V17.1495V17.1478V17.1461V17.1443V17.1426V17.1409V17.1392V17.1375V17.1358V17.1341V17.1324V17.1307V17.129V17.1273V17.1256V17.1239V17.1222V17.1205V17.1188V17.1172V17.1155V17.1138V17.1121V17.1104V17.1088V17.1071V17.1054V17.1037V17.1021V17.1004V17.0987V17.0971V17.0954V17.0937V17.0921V17.0904V17.0888V17.0871V17.0855V17.0838V17.0822V17.0805V17.0789V17.0772V17.0756V17.0739V17.0723V17.0707V17.069V17.0674V17.0658V17.0641V17.0625V17.0609V17.0592V17.0576V17.056V17.0544V17.0527V17.0511V17.0495V17.0479V17.0463V17.0446V17.043V17.0414V17.0398V17.0382V17.0366V17.035V17.0334V17.0318V17.0302V17.0285V17.0269V17.0253V17.0237V17.0221V17.0205V17.0189V17.0174V17.0158V17.0142V17.0126V17.011V17.0094V17.0078V17.0062V17.0046V17.003V17.0015V16.9999V16.9983V16.9967V16.9951V16.9935V16.992V16.9904V16.9888V16.9872V16.9856V16.9841V16.9825V16.9809V16.9794V16.9778V16.9762V16.9746V16.9731V16.9715V16.9699V16.9684V16.9668V16.9652V16.9637V16.9621V16.9605V16.959V16.9574V16.9558V16.9543V16.9527V16.9512V16.9496V16.948V16.9465V16.9449V16.9434V16.9418V16.9403V16.9387V16.9372V16.9356V16.934V16.9325V16.9309V16.9294V16.9278V16.9263V16.9247V16.9232V16.9216V16.9201V16.9185V16.917V16.9154V16.9139V16.9123V16.9108V16.9092V16.9077V16.9061V16.9046V16.903V16.9015V16.9V16.8984V16.8969V16.8953V16.8938V16.8922V16.8907V16.8891V16.8876V16.886V16.8845V16.883V16.8814V16.8799V16.8783V16.8768V16.8752V16.8737V16.8721ZM55.5414 18.2002C55.8269 18.1431 56.1046 18.3282 56.1617 18.6137L56.2588 19.0988C56.3159 19.3843 56.1307 19.662 55.8452 19.7191C55.5597 19.7762 55.282 19.5911 55.2249 19.3056L55.1279 18.8205C55.0708 18.535 55.256 18.2573 55.5414 18.2002ZM52.4825 19.2443C52.4825 18.9532 52.2465 18.7172 51.9554 18.7172C51.6642 18.7172 51.4282 18.9532 51.4282 19.2443V19.8264C51.4282 20.1176 51.6642 20.3536 51.9554 20.3536C52.2465 20.3536 52.4825 20.1176 52.4825 19.8264V19.2443ZM53.5359 16.0813C53.8271 16.0813 54.0631 16.3173 54.0631 16.6085V17.1906C54.0631 17.4817 53.8271 17.7177 53.5359 17.7177C53.2448 17.7177 53.0088 17.4817 53.0088 17.1906V16.6085C53.0088 16.3173 53.2448 16.0813 53.5359 16.0813ZM48.4385 19.914C48.5172 19.6337 48.3537 19.3427 48.0734 19.264C47.7931 19.1853 47.5021 19.3488 47.4234 19.6291C47.3565 19.8675 47.3557 20.0485 47.3722 20.2141C47.3778 20.271 47.3833 20.314 47.3881 20.3514C47.3973 20.4227 47.4038 20.4737 47.4038 20.5623C47.4038 20.8534 47.6398 21.0894 47.931 21.0894C48.2221 21.0894 48.4581 20.8534 48.4581 20.5623C48.4581 20.4016 48.4391 20.2521 48.428 20.1649L48.428 20.1649C48.425 20.1419 48.4226 20.1232 48.4213 20.1099C48.415 20.0458 48.4142 20.0006 48.4385 19.914ZM43.5208 19.2444C43.8119 19.2444 44.048 19.4804 44.048 19.7716V20.4507C44.048 20.7418 43.8119 20.9778 43.5208 20.9778C43.2297 20.9778 42.9937 20.7418 42.9937 20.4507V19.7716C42.9937 19.4804 43.2297 19.2444 43.5208 19.2444ZM39.5824 19.8835C39.6442 19.599 39.4637 19.3183 39.1792 19.2564C38.8947 19.1946 38.614 19.3751 38.5521 19.6596C38.4881 19.954 38.4044 20.2371 38.3131 20.5456L38.2704 20.69C38.1883 20.9693 38.3481 21.2624 38.6274 21.3445C38.9067 21.4266 39.1998 21.2668 39.2819 20.9875L39.323 20.8485C39.4136 20.5426 39.5094 20.219 39.5824 19.8835ZM34.1036 18.7806C34.388 18.8429 34.568 19.124 34.5057 19.4083C34.4363 19.7248 34.3733 20.0409 34.3153 20.36C34.2633 20.6464 33.9888 20.8364 33.7024 20.7843C33.4159 20.7322 33.226 20.4578 33.278 20.1714C33.3381 19.8408 33.4035 19.5123 33.4758 19.1826C33.5381 18.8982 33.8192 18.7182 34.1036 18.7806ZM29.649 20.2067C29.7235 19.9253 29.5557 19.6367 29.2742 19.5622C28.9928 19.4877 28.7042 19.6555 28.6297 19.937C28.5301 20.3132 28.4032 20.663 28.2577 21.051C28.1555 21.3236 28.2936 21.6274 28.5662 21.7297C28.8388 21.8319 29.1426 21.6938 29.2449 21.4212C29.391 21.0314 29.5346 20.6386 29.649 20.2067ZM24.9153 19.3988C25.1212 19.6047 25.1212 19.9384 24.9153 20.1443L24.3882 20.6715C24.1823 20.8773 23.8485 20.8773 23.6427 20.6715C23.4368 20.4656 23.4368 20.1318 23.6427 19.926L24.1698 19.3988C24.3757 19.1929 24.7095 19.1929 24.9153 19.3988ZM26.0155 22.0678C26.0624 21.7805 25.8675 21.5095 25.5802 21.4626C25.2929 21.4157 25.0219 21.6106 24.975 21.8979C24.9368 22.132 24.9042 22.3641 24.8752 22.5966C24.8391 22.8855 25.044 23.149 25.3329 23.1851C25.6218 23.2212 25.8852 23.0163 25.9213 22.7274C25.9491 22.5053 25.9798 22.2865 26.0155 22.0678ZM27.9749 23.6193C28.266 23.6193 28.5021 23.8553 28.5021 24.1464V25.2136C28.5021 25.5048 28.266 25.7408 27.9749 25.7408C27.6838 25.7408 27.4478 25.5048 27.4478 25.2136V24.1464C27.4478 23.8553 27.6838 23.6193 27.9749 23.6193ZM32.45 22.9116C32.4374 22.6207 32.1914 22.3951 31.9005 22.4077C31.6096 22.4203 31.3841 22.6664 31.3967 22.9572C31.4037 23.1185 31.3862 23.2567 31.3636 23.4352C31.3545 23.5074 31.3445 23.5861 31.335 23.6757C31.3047 23.9605 31.2893 24.3117 31.4276 24.6949C31.5265 24.9687 31.8287 25.1106 32.1025 25.0117C32.3763 24.9128 32.5182 24.6106 32.4193 24.3368C32.3622 24.1788 32.3588 24.0183 32.3834 23.7871C32.3881 23.7424 32.3947 23.6914 32.4018 23.6354L32.4018 23.6353V23.6353C32.4275 23.4346 32.4612 23.1707 32.45 22.9116ZM36.3264 22.4147C36.6134 22.4636 36.8065 22.7358 36.7576 23.0229C36.7071 23.3197 36.6931 23.6049 36.677 23.9348V23.9348V23.9348L36.6769 23.9352C36.6739 23.9972 36.6708 24.0608 36.6673 24.1263C36.652 24.4171 36.404 24.6404 36.1132 24.6251C35.8225 24.6098 35.5992 24.3617 35.6145 24.0709C35.6175 24.0139 35.6203 23.9558 35.6231 23.8968V23.8968L35.6231 23.8967C35.639 23.5675 35.6562 23.2106 35.7183 22.8459C35.7671 22.5589 36.0394 22.3659 36.3264 22.4147ZM42.3296 22.9137C42.3685 22.6251 42.1661 22.3597 41.8775 22.3209C41.589 22.2821 41.3236 22.4845 41.2847 22.773C41.231 23.1726 41.2155 23.5667 41.2872 23.9972C41.3351 24.2844 41.6067 24.4784 41.8939 24.4305C42.181 24.3827 42.375 24.1111 42.3272 23.8239C42.2778 23.5278 42.285 23.245 42.3296 22.9137ZM46.894 22.7462C47.1852 22.7462 47.4212 22.9822 47.4212 23.2734C47.4212 23.3527 47.4084 23.4868 47.3967 23.6108L47.3904 23.6768C47.3754 23.8386 47.3596 24.0225 47.353 24.2003C47.3461 24.3835 47.3501 24.5337 47.3659 24.6348L47.3687 24.6517C47.521 24.808 47.5656 25.0493 47.4625 25.2555C47.3323 25.5159 47.0157 25.6214 46.7553 25.4912C46.5671 25.3971 46.4687 25.2392 46.4185 25.1297C46.3667 25.0165 46.3398 24.8977 46.3241 24.7971C46.2926 24.5946 46.2918 24.364 46.2994 24.1607C46.3072 23.952 46.3254 23.7438 46.3407 23.5793L46.348 23.5015C46.3527 23.4508 46.3569 23.4067 46.3603 23.3673C46.3627 23.3388 46.3645 23.3161 46.3656 23.2983C46.3666 23.2825 46.3668 23.2751 46.3669 23.2736V23.2735C46.3669 23.2733 46.3669 23.2732 46.3669 23.2734C46.3669 22.9822 46.6029 22.7462 46.894 22.7462ZM51.9811 22.4678C51.9811 22.1767 51.745 21.9407 51.4539 21.9407C51.1628 21.9407 50.9268 22.1767 50.9268 22.4678V23.244C50.9268 23.5351 51.1628 23.7712 51.4539 23.7712C51.745 23.7712 51.9811 23.5351 51.9811 23.244V22.4678ZM55.7732 22.321C55.8695 22.3712 55.9511 22.4514 56.0025 22.5564C56.1217 22.7997 56.2214 23.0361 56.3138 23.2823C56.416 23.5549 56.2779 23.8588 56.0053 23.961C55.7327 24.0632 55.4288 23.9251 55.3266 23.6525C55.2444 23.4333 55.1578 23.2287 55.0557 23.0202C55.0162 22.9395 54.9992 22.8538 55.0022 22.7699C54.8853 22.7089 54.7911 22.6043 54.7461 22.4694C54.7025 22.3385 54.657 22.2885 54.5638 22.1953L54.5427 22.1744C54.4241 22.0565 54.2492 21.8827 54.1087 21.5676C53.9901 21.3017 54.1095 20.99 54.3754 20.8714C54.6413 20.7528 54.953 20.8723 55.0716 21.1382C55.1313 21.2721 55.1881 21.3289 55.2958 21.4364L55.3092 21.4497C55.4506 21.5911 55.6274 21.7792 55.7464 22.136C55.7668 22.1974 55.7754 22.2599 55.7732 22.321Z" fill="#FEC047"/>
<path d="M40.5541 56C59.2345 56 68.2437 42.6789 62.0662 24.5L57.1281 21.659C56.4276 21.256 55.5584 21.2888 54.8903 21.7435L52.0262 23.6926C51.3103 24.1798 50.3694 24.1798 49.6535 23.6926L46.8833 21.8074C46.1674 21.3202 45.2265 21.3202 44.5106 21.8074L41.7405 23.6926C41.0246 24.1798 40.0836 24.1798 39.3678 23.6926L36.5975 21.8074C35.8817 21.3202 34.9407 21.3202 34.2248 21.8074L31.4475 23.6976C30.7352 24.1823 29.7997 24.1849 29.0847 23.7043L26.1386 21.7237C25.4783 21.2799 24.6245 21.2454 23.9306 21.6346L18.8224 24.5C11.8723 46.858 26.0295 56 40.5541 56Z" fill="#E2503C"/>
<mask id="mask0_2079_36311" style="mask-type:alpha" maskUnits="userSpaceOnUse" x="17" y="21" width="47" height="35">
<path d="M40.5541 56C59.2345 56 68.2437 42.6789 62.0662 24.5L57.1282 21.659C56.4276 21.256 55.5584 21.2888 54.8903 21.7435L52.0262 23.6926C51.3104 24.1798 50.3694 24.1798 49.6535 23.6926L46.8833 21.8074C46.1674 21.3202 45.2265 21.3202 44.5106 21.8074L41.7405 23.6926C41.0246 24.1798 40.0836 24.1798 39.3678 23.6926L36.5975 21.8074C35.8817 21.3202 34.9407 21.3202 34.2248 21.8074L31.4475 23.6976C30.7352 24.1823 29.7997 24.1849 29.0847 23.7043L26.1386 21.7237C25.4783 21.2799 24.6245 21.2454 23.9306 21.6346L18.8224 24.5C11.8723 46.858 26.0295 56 40.5541 56Z" fill="#E2503C"/>
</mask>
<g mask="url(#mask0_2079_36311)">
<path fill-rule="evenodd" clip-rule="evenodd" d="M45.4586 28.2688L44.1909 28.1294C44.0268 28.1113 43.9344 28.3151 44.0549 28.4291L44.9861 29.3107L44.4634 30.4877C44.3957 30.6401 44.5587 30.7919 44.7032 30.7112L45.8194 30.0874L46.764 30.9543C46.8863 31.0665 47.0794 30.9566 47.0481 30.7926L46.8068 29.5255L47.9134 28.8843C48.0567 28.8013 48.0131 28.5816 47.8493 28.5609L46.5839 28.4016L46.3232 27.1384C46.2894 26.9748 46.0694 26.9489 45.9994 27.1002L45.4586 28.2688ZM35.9456 31.3361L37.0482 34.797L40.5331 34.8253C40.9843 34.8289 41.1715 35.4317 40.8085 35.7123L38.0049 37.8796L39.0561 41.358C39.1922 41.8084 38.7024 42.1809 38.3353 41.9062L35.5 39.7847L32.6647 41.9062C32.2977 42.1808 31.8078 41.8083 31.9439 41.358L32.9951 37.8796L30.1915 35.7123C29.8285 35.4317 30.0157 34.829 30.4669 34.8253L33.9518 34.797L35.0544 31.3361C35.1974 30.888 35.8028 30.888 35.9456 31.3361ZM48.7186 32.0701L49.5024 33.0921L50.7674 32.7139C50.9311 32.6649 51.0658 32.8434 50.9656 32.9766L50.1913 34.0052L50.9583 35.0387C51.0577 35.1725 50.9217 35.3501 50.7582 35.3002L49.4959 34.9139L48.7051 35.9308C48.6027 36.0625 48.3839 35.9937 48.3832 35.8297L48.3774 34.5623L47.1215 34.1574C46.9589 34.105 46.9597 33.8848 47.1226 33.8334L48.3813 33.4365L48.396 32.1693C48.398 32.0051 48.6172 31.9378 48.7186 32.0701ZM46.2814 42.0701L45.4976 43.0921L44.2326 42.7139C44.0689 42.6649 43.9342 42.8434 44.0344 42.9766L44.8087 44.0052L44.0417 45.0387C43.9423 45.1725 44.0783 45.3501 44.2418 45.3002L45.5041 44.9139L46.2949 45.9308C46.3974 46.0625 46.6161 45.9937 46.6168 45.8297L46.6226 44.5623L47.8785 44.1574C48.0411 44.105 48.0403 43.8848 47.8774 43.8335L46.6187 43.4366L46.604 42.1693C46.6021 42.0051 46.3828 41.9378 46.2814 42.0701ZM49.5414 38.2688L50.8091 38.1294C50.9732 38.1113 51.0656 38.3151 50.9451 38.429L50.0139 39.3107L50.5366 40.4876C50.6043 40.6401 50.4413 40.7919 50.2968 40.7112L49.1806 40.0874L48.236 40.9543C48.1137 41.0665 47.9206 40.9566 47.9519 40.7926L48.1932 39.5255L47.0866 38.8843C46.9433 38.8013 46.9869 38.5815 47.1507 38.5609L48.4161 38.4015L48.6768 37.1384C48.7106 36.9748 48.9306 36.9489 49.0006 37.1002L49.5414 38.2688Z" fill="#FFE15A"/>
<path d="M53 52.88C49.6808 55.22 42.2509 56 39.3047 56C28.7447 56 17.982 49.5 17 37.573C16.5 31.5 18.2766 23.5 21.8511 17C18.8837 38.9132 27.8749 52.88 53 52.88Z" fill="black" fill-opacity="0.3"/>
</g>
<path fill-rule="evenodd" clip-rule="evenodd" d="M47.6456 11.3073C48.2279 11.3073 48.6999 10.8353 48.6999 10.253C48.6999 9.67076 48.2279 9.19873 47.6456 9.19873C47.0633 9.19873 46.5913 9.67076 46.5913 10.253C46.5913 10.8353 47.0633 11.3073 47.6456 11.3073ZM33.0543 11.3075C33.6366 11.3075 34.1086 10.8354 34.1086 10.2532C34.1086 9.67088 33.6366 9.19885 33.0543 9.19885C32.472 9.19885 32 9.67088 32 10.2532C32 10.8354 32.472 11.3075 33.0543 11.3075Z" fill="#443635"/>
<path fill-rule="evenodd" clip-rule="evenodd" d="M31.1324 14.4704C32.4426 14.4704 33.5046 13.9984 33.5046 13.4161C33.5046 12.8338 32.4426 12.3618 31.1324 12.3618C29.8223 12.3618 28.7603 12.8338 28.7603 13.4161C28.7603 13.9984 29.8223 14.4704 31.1324 14.4704ZM49.0553 14.4704C50.3654 14.4704 51.4275 13.9984 51.4275 13.4161C51.4275 12.8338 50.3654 12.3618 49.0553 12.3618C47.7452 12.3618 46.6831 12.8338 46.6831 13.4161C46.6831 13.9984 47.7452 14.4704 49.0553 14.4704Z" fill="#FFA572"/>
<path d="M39.8019 11.5023L38.0119 12.6957C37.9251 12.7535 37.9661 12.8888 38.0704 12.8888H40.0944H42.1183C42.2226 12.8888 42.2636 12.7535 42.1768 12.6957L40.3868 11.5023C40.2097 11.3843 39.979 11.3843 39.8019 11.5023Z" fill="#EC8822"/>
<path d="M39.7515 14.1764L38.2495 12.889H40.0945H41.9396L40.4376 14.1764C40.2402 14.3456 39.9489 14.3456 39.7515 14.1764Z" fill="#EC6C22"/>
<path fill-rule="evenodd" clip-rule="evenodd" d="M16.642 49.907L17.2929 49.9871C20.9199 50.434 21.459 50.5004 23.588 50.1966C24.8259 50.0199 26.1994 50.308 28.0447 50.695C30.626 51.2364 34.1306 51.9714 39.4791 51.8991C45.1494 51.9451 48.9448 50.7768 51.615 49.9549C52.7981 49.5907 53.7603 49.2945 54.5667 49.2021C57.43 48.8741 58.3558 49.0087 59.4192 49.1633C60.4704 49.3162 61.6561 49.4886 64.9808 49.253C61.5187 49.924 59.2938 49.9542 59.2938 49.9542C62.0249 50.6842 64.7909 53.0906 64.7909 53.0906C64.7909 53.0906 62.6046 51.4955 60.7977 51.6106C64.2481 53.6321 66.2261 55.9948 67.2863 58.4602C68.4699 60.1354 69.1446 61.7737 69.3991 64.6592C69.0744 63.4391 68.6555 62.2758 68.1151 61.232C68.5468 63.6082 68.3394 65.9972 67.9639 68.1963C66.5126 70.8526 20.8838 70.2398 15.6513 68.3424C15.061 66.7907 13.5634 62.5766 16.517 57.4548C15.28 58.5473 14.1852 59.9318 13.2197 61.448C14.6029 58.2755 15.9713 56.8048 18.0978 55.1761C18.8023 54.3112 19.6436 53.4292 20.6442 52.5375C20.6442 52.5375 18.8614 52.4371 17.002 53.5466C16.9041 53.6097 16.8016 53.6746 16.6938 53.7415C16.8635 53.6274 17.0305 53.5206 17.1943 53.4211C17.4715 53.238 17.7114 53.0706 17.9327 52.9162C19.0968 52.104 19.7456 51.6513 22.609 51.1686C19.8824 51.2055 17.641 50.4688 16.642 49.907Z" fill="#ECA75A"/>
<path fill-rule="evenodd" clip-rule="evenodd" d="M59.9998 59.5867C60.5801 53.8575 55.4202 51.3288 51.8071 51.5643C57.4003 52.4672 59.4589 55.9097 59.9998 59.5867ZM20.1782 61.9128C20.5031 61.6723 20.9752 61.1586 21.5956 60.4835C23.748 58.1415 27.6854 53.8573 33.4507 52.3017C26.7516 53.5403 23.116 57.4311 20.1782 61.9128ZM30.5234 56.314L30.5265 56.3126C30.2808 56.5598 29.9445 56.7913 29.5459 57.0656C28.1195 58.0474 25.8962 59.5777 24.182 64.3407C24.7525 60.9745 26.5745 58.0743 30.5234 56.314ZM66.4285 68.2365C66.1383 62.2605 63.2366 57.8573 61.8006 56.3858C62.0139 56.9735 62.3234 57.5402 62.7014 58.2322C63.6561 59.9801 65.0477 62.5278 66.4285 68.2365ZM39.9567 56.1852C38.9705 57.2566 37.7503 59.1294 37.2751 61.2847C36.7993 63.4426 37.0681 65.8975 39.0895 68.1103C38.9578 67.7761 38.8268 67.4602 38.7007 67.156C37.5127 64.2913 36.7568 62.4686 39.9567 56.1852ZM27.9149 67.1349C28.39 64.8678 29.6125 62.8984 30.6007 61.772C29.0416 64.9865 28.4207 67.0912 28.3315 68.7522L27.7169 68.7605C27.7341 68.2064 27.8043 67.6622 27.9149 67.1349ZM46.8783 54.106C50.7009 54.3735 53.0865 60.168 52.9383 62.4626C52.8855 62.325 52.8328 62.1867 52.7799 62.048C51.5391 58.7966 50.2113 55.3173 46.8783 54.106Z" fill="#B7651C"/>
<path fill-rule="evenodd" clip-rule="evenodd" d="M64.7109 51.3826C62.6017 49.5966 60.1003 49.7263 57.952 49.9183C60.712 50.016 62.054 49.748 64.7109 51.3826Z" fill="#FFCA8F"/>
<path fill-rule="evenodd" clip-rule="evenodd" d="M24.0075 51.4453C21.9645 51.9669 19.5618 52.4811 17.0525 51.0347C19.5938 52.0598 20.8715 51.8795 22.8471 51.6007C23.2068 51.55 23.5897 51.4959 24.0075 51.4453ZM19.6344 58.4457C20.6296 56.166 23.4369 53.0811 27.9842 51.8796C24.5022 52.3838 19.978 55.4186 19.6344 58.4457ZM49.8111 66.8585C50.7619 64.4866 50.8323 60.6241 47.9835 57.5764C50.4896 59.5585 51.888 64.1458 49.8111 66.8585ZM57.9537 59.7081C57.6518 57.9049 56.1365 55.3009 52.9295 53.8991C55.4677 54.6639 58.2936 57.4233 57.9537 59.7081ZM32.4773 59.5566C32.7304 57.7459 34.1746 55.1019 37.3425 53.6139C34.826 54.447 32.0757 57.2819 32.4773 59.5566ZM68.728 58.1923C66.901 54.0496 64.0468 53.4158 61.1493 52.7724C61.0067 52.7407 60.864 52.709 60.7213 52.6769C61.5259 53.048 62.2275 53.3426 62.8554 53.6062L62.8555 53.6063C65.3614 54.6583 66.6954 55.2184 68.728 58.1923ZM14.6694 58.1493C15.0449 56.4441 15.622 54.4996 18.9329 53.6876C16.1802 54.7802 15.7461 55.757 15.075 57.2673C14.9528 57.5423 14.8228 57.835 14.6694 58.1493Z" fill="#FFCA8F"/>
<path d="M67.9588 68.1969C66.504 70.8525 20.766 70.2415 15.5211 68.3447C15.1726 67.4309 13.9702 63.9382 15.8917 58.9927C25.0269 72.8896 63.9657 66.9513 67.8483 60.0115C68.0347 61.9754 68.2703 66.378 67.9588 68.1969Z" fill="black" fill-opacity="0.1"/>
<path d="M65 62.5C58.0977 62.4999 54 67.5 53 69.9655L73.5 69.9655C72.8835 68.8216 70.1283 62.5001 65 62.5Z" fill="#E3DFD9"/>
</svg>
