<svg width="80" height="71" viewBox="0 0 80 71" fill="none" xmlns="http://www.w3.org/2000/svg">
<ellipse rx="24.7743" ry="6.64352" transform="matrix(-0.999913 -0.0131704 -0.0131704 0.999913 54.0126 56.0239)" fill="#262626" fill-opacity="0.05"/>
<ellipse rx="13.486" ry="4.85574" transform="matrix(-0.999913 -0.0131704 -0.0131704 0.999913 16.596 63.0329)" fill="#262626" fill-opacity="0.05"/>
<ellipse rx="3.36771" ry="1.21257" transform="matrix(-0.999913 -0.0131704 -0.0131704 0.999913 38.8893 67.6276)" fill="#262626" fill-opacity="0.05"/>
<ellipse rx="3.36771" ry="1.21257" transform="matrix(-0.999913 -0.0131704 -0.0131704 0.999913 48.3835 67.2567)" fill="#262626" fill-opacity="0.05"/>
<path d="M51.0815 28.7906C50.1258 26.5687 43.6506 15.5918 30.5269 14.6079C19.7803 13.8271 26.748 20.6788 30.166 21.9085C30.166 21.9085 27.6283 21.0109 26.747 22.5856C25.8567 24.1217 27.8088 28.3943 33.6165 29.0129C33.6165 29.0129 28.5948 28.6662 29.1253 32.5239C29.6557 36.3816 35.4063 38.8383 42.6355 38.6549C49.8648 38.4715 52.0754 31.0041 51.0815 28.7906Z" fill="#989899"/>
<path d="M33.7894 49.209L32.4786 46.8408" stroke="#D67B29" stroke-width="1.5" stroke-miterlimit="10" stroke-linecap="round"/>
<path d="M31.2737 48.2583L34.2765 49.6262L36.2072 49.9297" stroke="#EC8822" stroke-width="1.5" stroke-miterlimit="10" stroke-linecap="round"/>
<path d="M55.0377 13.5155C55.0377 13.5155 56.0477 11.5877 57.6638 10.4613C58.5599 9.80996 59.2103 9.29915 58.6878 9.0302C57.6599 8.54563 56.306 9.67341 55.0377 13.5155Z" fill="#989899"/>
<path d="M77.2916 47.4102C77.2916 47.4102 71.5723 47.5792 72.1073 42.6504C73.3638 31.0736 73.1 19.009 61.6139 14.3635C42.6398 6.68925 35.2846 22.777 34.4076 30.8604C32.8732 32.7854 31.5789 38.0989 31.1788 40.2962C29.6327 48.8019 35.4361 55.2259 46.2619 59.3297C56.3942 62.4699 71.4592 59.2634 77.2916 47.4102Z" fill="#D7D7D7"/>
<path d="M56.9792 13.3132C56.9792 13.3132 59.6245 12.4941 61.6998 13.1618C63.601 13.7399 63.404 11.9473 61.4471 11.8301C59.6821 11.7671 56.9792 13.3132 56.9792 13.3132Z" fill="#989899"/>
<path d="M55.8797 13.1475C55.8797 13.1475 57.8327 11.349 60.3862 11.1502C62.5198 11.0023 63.3646 10.191 62.9662 9.67436C62.1694 8.64118 59.7591 8.37959 55.8797 13.1475Z" fill="#989899"/>
<path d="M38.7045 49.0788C39.6665 48.9954 40.4923 48.3969 40.9349 47.6011C41.0306 48.8965 40.1137 50.0267 38.8192 50.1614C37.5247 50.2962 36.3778 49.3498 36.1947 48.0539C36.8014 48.7668 37.7425 49.1622 38.7045 49.0788Z" fill="#989899"/>
<path d="M42.3621 43.5293C43.5002 43.2694 44.3272 42.4935 44.7363 41.5025C45.0403 42.9941 44.1386 44.4437 42.6681 44.7549C41.2324 45.084 39.753 44.1889 39.3438 42.7322C40.1253 43.446 41.2418 43.7537 42.3621 43.5293Z" fill="#989899"/>
<path d="M34.3389 43.4497C35.4915 43.598 36.5611 43.1249 37.266 42.3306C37.0457 43.8194 35.6923 44.8585 34.2079 44.6729C32.7234 44.4874 31.6315 43.1688 31.7296 41.6616C32.2471 42.64 33.2034 43.3548 34.3389 43.4497Z" fill="#989899"/>
<path d="M33.9414 48.0059C33.9414 48.0059 34.0181 49.5141 33.4545 50.1141C33.4545 50.1141 32.7401 49.7908 32.6071 48.8323C32.6071 48.8323 33.077 49.1187 33.9414 48.0059Z" fill="#989899"/>
<path d="M37.865 20.3576C33.7809 25.6929 34.338 30.6034 34.338 30.6034C34.338 30.6034 35.9651 31.4248 37.422 33.3864C39.8225 36.6037 49.2573 42.8994 56.8844 35.1425C62.6286 29.3419 61.6999 18.6342 55.3695 14.7478C49.5183 11.2034 44.3383 11.923 37.865 20.3576Z" fill="white"/>
<path d="M44.3824 18.6298C45.539 16.8828 47.1736 15.941 48.0334 16.5263C48.8932 17.1116 48.6525 19.0023 47.4959 20.7494C46.3393 22.4964 44.7046 23.4381 43.8448 22.8528C42.9851 22.2675 43.2257 20.3768 44.3824 18.6298Z" fill="#231F20"/>
<path d="M45.1329 18.2111C45.5546 17.5742 46.2014 17.2655 46.5776 17.5216C46.9537 17.7777 46.9168 18.5016 46.495 19.1385C46.0733 19.7754 45.4265 20.0841 45.0504 19.8281C44.6742 19.572 44.7112 18.848 45.1329 18.2111Z" fill="white"/>
<path d="M34.3298 21.2494C34.3298 21.2494 35.8724 22.2202 36.52 23.4608C37.0661 24.4566 38.8999 22.6482 38.7355 21.565C38.5712 20.4818 34.3298 21.2494 34.3298 21.2494Z" fill="#EC6C22"/>
<path d="M39.2422 18.3466C39.2422 18.3466 36.9696 17.9976 34.5499 20.5006C34.5499 20.5006 36.9838 20.7801 38.3397 21.8505C39.4288 22.6896 40.1746 18.9454 39.2422 18.3466Z" fill="#EC8822"/>
<path d="M30.5947 55.1558L29.3341 52.7598" stroke="#D67B29" stroke-width="1.5" stroke-miterlimit="10" stroke-linecap="round"/>
<path d="M28.0987 54.1512L31.072 55.5835L32.9957 55.9285" stroke="#EC8822" stroke-width="1.5" stroke-miterlimit="10" stroke-linecap="round"/>
<path d="M52.1736 57.3883C52.4056 55.6915 51.2044 54.1303 49.5051 53.9203L35.4275 52.1803C33.764 51.9747 32.2462 53.1432 32.0191 54.8044V54.8044C31.7871 56.5012 32.9883 58.0624 34.6876 58.2724L48.7652 60.0124C50.4287 60.218 51.9465 59.0495 52.1736 57.3883V57.3883Z" fill="#D7D7D7"/>
<path d="M60.5478 34.0436C57.4484 35.6113 50.5654 41.9941 51.5065 53.0421C52.2977 62.0857 57.0628 55.3714 57.6274 52.3635C57.6274 52.3635 57.221 54.5947 58.649 55.1167C60.046 55.6512 63.3382 53.4547 63.0741 48.541C63.0741 48.541 63.459 52.7644 66.5967 51.806C69.7344 50.8477 71.0069 45.735 69.8851 39.7464C68.7634 33.7578 63.6473 32.476 60.5478 34.0436Z" fill="#989899"/>
<path d="M26.5296 58.8769L27.8188 56.8041" stroke="#D67B29" stroke-width="1.2" stroke-miterlimit="10" stroke-linecap="round"/>
<path d="M28.839 58.1354L26.0722 59.2303L24.3198 59.4157" stroke="#EC8822" stroke-width="1.2" stroke-miterlimit="10" stroke-linecap="round"/>
<path d="M7.97856 59.4838C7.88009 57.9428 9.06169 56.6168 10.6034 56.5383L23.376 55.8875C24.8853 55.8106 26.1743 56.9599 26.2707 58.4685V58.4685C26.3692 60.0095 25.1876 61.3355 23.6459 61.414L10.8733 62.0648C9.364 62.1417 8.07497 60.9924 7.97856 59.4838V59.4838Z" fill="#84503E"/>
<path d="M27.5797 36.5152C27.5797 36.5152 29.6571 36.1145 32.2019 36.9943C32.2019 36.9943 29.7182 38.6098 28.543 39.6321C27.5983 40.4345 26.7658 37.0946 27.5797 36.5152Z" fill="#ECBF22"/>
<circle cx="13.9381" cy="52.8822" r="13" transform="rotate(-2.73076 13.9381 52.8822)" fill="#8D5E4E"/>
<circle cx="20.8342" cy="40.0392" r="7.5" transform="rotate(-2.73076 20.8342 40.0392)" fill="#8D5E4E"/>
<circle cx="22.6888" cy="36.9474" r="2.5" transform="rotate(-2.73076 22.6888 36.9474)" fill="white"/>
<circle cx="22.6889" cy="36.9473" r="1.5" transform="rotate(-2.73076 22.6889 36.9473)" fill="#210303"/>
<path d="M14.674 36.829C12.8097 39.7211 9.69585 40.9041 8.37197 41.1341L11.44 42.4895C12.9383 42.418 15.6827 41.1859 14.674 36.829Z" fill="#8D5E4E"/>
<path d="M26.2333 48.2914C25.6386 46.3175 26.0666 44.7954 27.4935 43.2256L23.0224 43.9395C22.8798 44.4468 23.3031 45.628 26.2333 48.2914Z" fill="#8D5E4E"/>
<path d="M14.1279 46.3658C15.3964 48.4744 15.4983 54.1093 13.5578 55.4032C11.6172 56.6971 10.4818 53.8814 9.44322 53.0966" stroke="#7C4B3A"/>
<path d="M25.1507 63.6713L26.6642 61.756" stroke="#D67B29" stroke-width="1.5" stroke-miterlimit="10" stroke-linecap="round"/>
<path d="M27.5286 63.1933L24.6565 63.9712L22.8944 63.9589" stroke="#EC8822" stroke-width="1.5" stroke-miterlimit="10" stroke-linecap="round"/>
<path d="M10.4897 62.3221C10.5649 60.7741 11.8969 59.5872 13.4428 59.6907L21.3749 60.2216C22.8769 60.3221 24.02 61.6057 23.9469 63.1097V63.1097C23.8717 64.6577 22.5397 65.8446 20.9938 65.7411L13.0617 65.2102C11.5597 65.1096 10.4166 63.8261 10.4897 62.3221V62.3221Z" fill="#8D5E4E"/>
<path d="M43 62C43 63.1046 43 67.6 39 67.6C35 67.6 35 63.1046 35 62C35 60.8954 36.7909 60 39 60C41.2091 60 43 60.8954 43 62Z" fill="#7B3D0A"/>
<ellipse cx="39" cy="62" rx="4" ry="2" fill="#92C800"/>
<path d="M39.3999 61.6001C40.1999 60.4001 37.3998 60.8001 38.5998 61.6001C36.9996 60.8001 36.5998 62.4001 38.1997 62.0001C37.3997 62.4001 37.3997 63.6001 38.9997 62.8001C39.3997 63.6001 40.9997 62.8001 40.1997 62.0001C41.3997 62.0001 40.9999 60.8001 39.3999 61.6001Z" fill="#F1FF9C"/>
<circle cx="36" cy="61.8001" r="0.2" fill="#7DA808"/>
<circle cx="41.5999" cy="61.8001" r="0.2" fill="#7DA808"/>
<circle cx="40.8001" cy="62.5999" r="0.2" fill="#7DA808"/>
<circle cx="40.8001" cy="61" r="0.2" fill="#7DA808"/>
<circle cx="37.5999" cy="61" r="0.2" fill="#7DA808"/>
<circle cx="36.8001" cy="62.5999" r="0.2" fill="#7DA808"/>
<path d="M50.7802 64.5153C51.0214 65.4512 51.4352 67.0573 48.0459 67.9306C44.6566 68.804 44.2428 67.1979 44.0016 66.262C43.7605 65.3261 45.0824 64.1764 46.9542 63.694C48.8261 63.2117 50.539 63.5794 50.7802 64.5153Z" fill="#7B3D0A"/>
<ellipse cx="47.3909" cy="65.3887" rx="3.5" ry="1.75" transform="rotate(-14.4498 47.3909 65.3887)" fill="#92C800"/>
<path d="M47.6425 64.9624C48.0584 63.771 45.7731 64.7213 46.9646 65.1372C45.434 64.8087 45.4446 66.2517 46.7129 65.5634C46.1224 66.077 46.3844 67.0938 47.5655 66.0666C48.0791 66.6571 49.2601 65.6299 48.4076 65.1267C49.4243 64.8647 48.8236 63.9352 47.6425 64.9624Z" fill="#F1FF9C"/>
<circle cx="44.8052" cy="65.8743" r="0.175" transform="rotate(-14.4498 44.8052 65.8743)" fill="#7DA808"/>
<circle cx="49.5503" cy="64.6514" r="0.175" transform="rotate(-14.4498 49.5503 64.6514)" fill="#7DA808"/>
<circle cx="49.0471" cy="65.504" r="0.175" transform="rotate(-14.4498 49.0471 65.504)" fill="#7DA808"/>
<circle cx="48.6978" cy="64.1483" r="0.175" transform="rotate(-14.4498 48.6978 64.1483)" fill="#7DA808"/>
<circle cx="45.9863" cy="64.847" r="0.175" transform="rotate(-14.4498 45.9863 64.847)" fill="#7DA808"/>
<circle cx="45.658" cy="66.3775" r="0.175" transform="rotate(-14.4498 45.658 66.3775)" fill="#7DA808"/>
<path d="M16.2312 6.67859C19.6249 1.51084 23.3256 1.501 25.4819 1.23118C26.4176 3.35564 29.0033 11.544 30.0129 15.0109C24.9948 14.75 22.9076 16.5256 20.5268 20.0373C18.146 23.5489 14.8541 24.1152 12.5393 24.5594L7.40833 10.6039C8.91457 10.6988 12.498 12.3631 16.2312 6.67859Z" fill="#2771FF"/>
<mask id="mask0_2286_40646" style="mask-type:alpha" maskUnits="userSpaceOnUse" x="7" y="1" width="24" height="24">
<path d="M16.2309 6.67859C19.6247 1.51084 23.3254 1.501 25.4816 1.23118C26.4174 3.35564 29.0031 11.544 30.0127 15.0109C24.9945 14.75 22.9074 16.5256 20.5266 20.0373C18.1458 23.5489 14.8539 24.1152 12.5391 24.5594L7.40809 10.6039C8.91433 10.6988 12.4978 12.3631 16.2309 6.67859Z" fill="#00008B"/>
</mask>
<g mask="url(#mask0_2286_40646)">
<path d="M20.9687 4.27831L21.543 4.82607L21.582 4.86329L21.6345 4.85113L22.4077 4.67219L22.0642 5.38758L22.0408 5.4362L22.0686 5.48242L22.4777 6.16243L21.6912 6.05681L21.6378 6.04963L21.6024 6.09035L21.0821 6.68957L20.9395 5.9089L20.9298 5.85584L20.8801 5.8348L20.1495 5.52512L20.8479 5.14826L20.8953 5.12265L20.9 5.06891L20.9687 4.27831Z" fill="#C8102E" stroke="white" stroke-width="0.2"/>
<path d="M20.9851 10.2261L21.5593 10.7738L21.5983 10.811L21.6509 10.7989L22.424 10.6199L22.0805 11.3353L22.0572 11.384L22.085 11.4302L22.4941 12.1102L21.7076 12.0046L21.6541 11.9974L21.6188 12.0381L21.0984 12.6373L20.9558 11.8567L20.9461 11.8036L20.8965 11.7825L20.1658 11.4729L20.8642 11.096L20.9117 11.0704L20.9164 11.0167L20.9851 10.2261Z" fill="#C8102E" stroke="white" stroke-width="0.2"/>
<path d="M23.9907 12.2178L24.5649 12.7655L24.604 12.8027L24.6565 12.7906L25.4296 12.6116L25.0861 13.327L25.0628 13.3757L25.0906 13.4219L25.4997 14.1019L24.7132 13.9963L24.6597 13.9891L24.6244 14.0298L24.1041 14.629L23.9615 13.8484L23.9518 13.7953L23.9021 13.7742L23.1714 13.4646L23.8698 13.0877L23.9173 13.0621L23.922 13.0084L23.9907 12.2178Z" fill="#C8102E" stroke="white" stroke-width="0.2"/>
<path d="M23.9768 7.21777L24.551 7.76552L24.59 7.80275L24.6426 7.79059L25.4157 7.61165L25.0722 8.32704L25.0489 8.37566L25.0767 8.42187L25.4858 9.10188L24.6993 8.99626L24.6458 8.98908L24.6104 9.02981L24.0901 9.62902L23.9475 8.84835L23.9378 8.7953L23.8882 8.77425L23.1575 8.46457L23.8559 8.08771L23.9034 8.0621L23.9081 8.00837L23.9768 7.21777Z" fill="#C8102E" stroke="white" stroke-width="0.2"/>
<mask id="mask1_2286_40646" style="mask-type:alpha" maskUnits="userSpaceOnUse" x="6" y="6" width="14" height="12">
<rect x="6.50122" y="10.8608" width="10.6936" height="7.26365" transform="rotate(-23.7795 6.50122 10.8608)" fill="#D9D9D9"/>
</mask>
<g mask="url(#mask1_2286_40646)">
<path fill-rule="evenodd" clip-rule="evenodd" d="M12.0688 12.7807L7.19629 12.4367L7.22703 11.3168L12.911 11.7182L16.4506 7.25273L17.2977 7.98575L14.2635 11.8137L19.136 12.1577L19.1206 12.7176L19.1052 13.2775L13.4213 12.8762L9.7465 17.3689L9.03455 16.6086L12.0688 12.7807Z" fill="white"/>
<path fill-rule="evenodd" clip-rule="evenodd" d="M12.508 12.5872L7.20269 12.2126L7.22113 11.5407L13.0133 11.9497L16.6202 7.39922L17.1285 7.83903L13.8248 12.007L19.1301 12.3815L19.1116 13.0534L13.3195 12.6445L9.71252 17.1949L9.20423 16.7551L12.508 12.5872Z" fill="#C8102E"/>
<path fill-rule="evenodd" clip-rule="evenodd" d="M12.0152 11.8145L11.1264 9.7973L12.6968 9.10534L13.5856 11.1225L17.6316 9.33976L18.3618 10.997L14.3158 12.7798L15.2655 14.935L13.695 15.627L12.7454 13.4717L8.69938 15.2545L7.96915 13.5973L12.0152 11.8145Z" fill="white"/>
<path fill-rule="evenodd" clip-rule="evenodd" d="M12.4465 11.9956L11.3473 9.50105L12.3288 9.06858L13.428 11.5631L17.7684 9.65055L18.2248 10.6863L13.8844 12.5989L14.9709 15.0648L13.9894 15.4973L12.9028 13.0313L8.56236 14.9439L8.10598 13.9081L12.4465 11.9956Z" fill="#C8102E"/>
</g>
</g>
<path d="M24.9741 1.0249L34.0448 26.4998" stroke="#DDDDDD" stroke-linecap="round"/>
</svg>
