<svg width="80" height="71" viewBox="0 0 80 71" fill="none" xmlns="http://www.w3.org/2000/svg">
<ellipse rx="26.8509" ry="2.46223" transform="matrix(-0.999913 -0.0131704 -0.0131704 0.999913 42.8812 67.8157)" fill="#262626" fill-opacity="0.05"/>
<path d="M22.3164 17.7971C31.6327 9.06286 46.4805 10.2278 55.7968 17.797C54.6715 18.7615 53.5571 20.5747 52.8664 21.5818C41.8224 14.3034 32.2872 15.7591 24.6455 21.5818C24.0632 20.7084 23.0973 18.5778 22.3164 17.7971Z" fill="#54817A"/>
<path d="M24.0637 18.8731C32.3904 10.6915 45.4328 11.7829 53.7594 18.8731C53.1413 19.4283 52.4841 20.3432 52.0234 20.9844L52.0126 20.9995C46.1899 17.7971 37.1647 13.43 25.5194 20.7084C24.9371 20.1261 24.4957 19.3257 24.0637 18.8731Z" fill="#3D6861"/>
<path d="M33.6705 13.1388L30.2124 14.5945L24.0986 7.89844L33.6705 13.1388Z" fill="#54817A"/>
<path d="M43.2777 13.1386L47.0667 14.012L51.4294 7.31592L43.2777 13.1386Z" fill="#54817A"/>
<path d="M40.6937 12.8477H35.7444L38.0379 3.24023L40.6937 12.8477Z" fill="#54817A"/>
<path d="M14.7468 17.4011L24.0631 20.126L22.6074 17.5057L14.7468 17.4011Z" fill="#54817A"/>
<path d="M27.2655 14.8854L24.063 16.9234L19.1138 10.8096L27.2655 14.8854Z" fill="#54817A"/>
<path d="M49.7183 14.8857L53.4675 16.9236L59.908 11.9744L49.7183 14.8857Z" fill="#54817A"/>
<path d="M26.1011 16.6323L27.8479 19.5437" stroke="#54817A" stroke-width="1.44004"/>
<path d="M30.4675 14.3032L31.9232 17.7968" stroke="#54817A" stroke-width="1.44004"/>
<path d="M34.8352 13.1389L35.9997 16.9237" stroke="#54817A" stroke-width="1.44004"/>
<path d="M41.5314 13.1389L40.658 16.9237" stroke="#54817A" stroke-width="1.44004"/>
<path d="M46.4808 14.3032L45.0251 17.7968" stroke="#54817A" stroke-width="1.44004"/>
<path d="M50.8474 16.3413L49.1006 19.5438" stroke="#54817A" stroke-width="1.44004"/>
<path d="M60.1196 59.3693C59.9645 59.5258 59.7707 59.6432 59.538 59.6041L57.5606 59.4476L57.8708 61.5605C57.9483 61.9518 57.6769 62.304 57.2892 62.3822C56.9014 62.4605 56.5525 62.1866 56.4749 61.7953L56.0096 58.8215C55.9709 58.6259 56.0484 58.3911 56.2035 58.2346C56.3586 58.0781 56.5525 57.9998 56.7851 57.9998L59.6544 58.1954C60.0421 58.2345 60.3523 58.5476 60.3135 58.978C60.2747 59.0954 60.1972 59.2519 60.1196 59.3693Z" fill="#EC8822"/>
<path d="M28.0172 36.1178C15.8041 30.2463 9.36145 16.881 4.6015 21.3156C1.01982 24.6666 12.7891 33.6863 12.7891 33.6863C12.7891 33.6863 8.89966 29.4633 6.52814 32.0515C3.95338 34.878 13.1398 38.8361 16.2694 39.8823C16.2694 39.8823 10.4224 37.5602 10.4244 38.7224C10.3937 42.222 18.0955 46.7498 23.7969 43.2261C27.4405 40.9745 31.8896 37.9795 28.0172 36.1178Z" fill="#989899"/>
<path d="M59.1727 32.4325C69.1893 38.8911 76.2658 38.4853 75.9923 42.3402C75.7188 46.3641 67.7876 42.1373 67.7876 42.1373C67.7876 42.1373 71.0011 44.2676 70.0781 45.7554C68.6765 48.021 65.4971 45.282 63.3092 43.6251C63.3092 43.6251 65.5997 44.9777 64.9843 46.3979C64.0613 48.5282 56.4036 44.741 56.0617 39.1954C55.8224 35.6111 56.1643 30.4713 59.1727 32.4325Z" fill="#989899"/>
<path d="M35.7493 66.6589C35.5554 66.698 35.3227 66.6197 35.1289 66.4632L33.6555 65.0937L32.5698 66.9327C32.376 67.2849 31.9495 67.4023 31.6005 67.1675C31.2515 66.9719 31.1352 66.5414 31.3679 66.1893L32.88 63.6068C32.9963 63.4111 33.1514 63.2937 33.3841 63.2546C33.6167 63.2155 33.8106 63.2937 33.9657 63.4502L36.0594 65.4459C36.3309 65.7198 36.3696 66.1893 36.0982 66.4632C36.0207 66.5806 35.8656 66.6589 35.7493 66.6589Z" fill="#EC8822"/>
<path d="M60.1755 34.6518C60.1755 34.6518 60.1755 34.6518 60.1367 34.6909C58.547 24.2826 49.5515 16.3394 38.6562 16.3394C26.6364 16.3394 16.9043 26.0042 16.9043 37.9386C16.9043 50.4599 22.4101 59.5379 30.2036 63.2943C31.4443 63.8812 32.8014 63.9595 34.1197 63.6073C34.8176 63.4508 35.8645 62.8639 37.9195 60.3596C40.0908 57.6988 47.5353 57.7771 49.2414 58.1292C51.8004 58.5988 55.0961 60.5552 58.198 57.5423C60.8734 54.9206 61.4162 41.4994 60.1755 34.6518Z" fill="#E7E4E2"/>
<path d="M48.1959 21.5435C46.0634 21.387 44.0472 21.8565 42.2636 22.7174C39.976 23.8521 37.3394 23.8521 35.0517 22.7174C33.3069 21.8565 31.2519 21.4261 29.1194 21.5435C23.536 21.8957 18.9995 26.3173 18.6118 31.7562C18.1465 38.2125 23.3809 43.5732 29.9336 43.5732C31.7948 43.5732 33.5783 43.1428 35.1293 42.3602C37.3394 41.2646 39.976 41.2646 42.1861 42.3602C43.737 43.1428 45.5206 43.5732 47.3817 43.5732C53.8956 43.5732 59.1688 38.2125 58.7035 31.7562C58.3546 26.3564 53.7793 21.9348 48.1959 21.5435Z" fill="white"/>
<path d="M28.8477 32.5772C30.6679 32.5772 32.1435 31.0881 32.1435 29.2513C32.1435 27.4144 30.6679 25.9253 28.8477 25.9253C27.0276 25.9253 25.552 27.4144 25.552 29.2513C25.552 31.0881 27.0276 32.5772 28.8477 32.5772Z" fill="#231F20"/>
<path d="M28.0326 29.5645C28.675 29.5645 29.1958 29.039 29.1958 28.3907C29.1958 27.7424 28.675 27.2168 28.0326 27.2168C27.3902 27.2168 26.8694 27.7424 26.8694 28.3907C26.8694 29.039 27.3902 29.5645 28.0326 29.5645Z" fill="white"/>
<path d="M48.4286 32.5772C50.2487 32.5772 51.7243 31.0881 51.7243 29.2513C51.7243 27.4144 50.2487 25.9253 48.4286 25.9253C46.6084 25.9253 45.1328 27.4144 45.1328 29.2513C45.1328 31.0881 46.6084 32.5772 48.4286 32.5772Z" fill="#231F20"/>
<path d="M47.5753 29.5645C48.2177 29.5645 48.7385 29.039 48.7385 28.3907C48.7385 27.7424 48.2177 27.2168 47.5753 27.2168C46.9329 27.2168 46.4121 27.7424 46.4121 28.3907C46.4121 29.039 46.9329 29.5645 47.5753 29.5645Z" fill="white"/>
<path d="M38.3474 32.3817C38.3474 32.3817 37.6883 34.4555 38.0372 34.6512C38.2311 34.8077 39.8984 34.1425 40.3249 31.3252L38.3474 32.3817Z" fill="#EC8822"/>
<path d="M37.572 29.7207C37.572 29.7207 38.2699 32.4597 38.2312 33.7119C38.2312 34.0249 38.6965 34.0249 38.9291 33.7901C39.7433 33.0467 40.3637 32.3032 40.2862 30.5815L38.2312 29.2903L37.572 29.7207Z" fill="#D32E2E"/>
<path d="M37.6886 28.2726C37.6886 28.2726 36.9519 28.1943 35.7112 29.8377C35.7112 29.8377 37.6886 29.1725 40.364 30.5812C40.3252 30.5812 39.5498 28.3117 37.6886 28.2726Z" fill="#EC8822"/>
<path d="M27.2196 49.1291C26.289 48.8552 25.6299 48.1509 25.3584 47.29C25.0483 48.503 25.7462 49.7552 26.9482 50.1073C28.1501 50.4595 29.3909 49.7943 29.8174 48.6204C29.0807 49.1682 28.1114 49.403 27.2196 49.1291Z" fill="#989899"/>
<path d="M33.2298 54.2553C32.3768 54.0205 31.7952 53.3553 31.5237 52.5728C31.2523 53.6684 31.8727 54.8422 32.9584 55.1553C34.044 55.4683 35.2072 54.8814 35.5562 53.7857C34.9358 54.2944 34.044 54.4901 33.2298 54.2553Z" fill="#989899"/>
<path d="M40.9448 54.9206C40.0918 54.9206 39.3163 54.5293 38.8123 53.8641C38.8898 54.9989 39.8204 55.8989 40.9836 55.8989C42.108 55.8597 43.0386 54.9206 43.0386 53.7859C42.5733 54.4511 41.8366 54.9206 40.9448 54.9206Z" fill="#989899"/>
<path d="M47.7306 53.0818C48.5449 52.7296 49.049 52.0253 49.2428 51.2036C49.6693 52.2601 49.1653 53.4731 48.1184 53.9426C47.0715 54.4122 45.8695 53.9426 45.3655 52.8861C46.0634 53.3557 46.9552 53.4339 47.7306 53.0818Z" fill="#989899"/>
<path d="M34.935 50.2643C34.0044 50.1469 33.2289 49.56 32.8024 48.7383C32.6861 49.9904 33.5779 51.1252 34.7799 51.2817C36.0206 51.4382 37.1451 50.5773 37.3777 49.3643C36.7961 50.0687 35.9043 50.4208 34.935 50.2643Z" fill="#989899"/>
<path d="M52.1505 47.564C53.0423 47.1727 53.6239 46.3901 53.779 45.5293C54.2443 46.7032 53.7015 48.0335 52.5383 48.5422C51.4138 49.0509 50.0567 48.5422 49.5139 47.4075C50.3282 47.8379 51.2975 47.9553 52.1505 47.564Z" fill="#989899"/>
<path d="M44.6284 49.6771C45.559 49.4423 46.2569 48.738 46.5671 47.9163C46.8385 49.1293 46.1018 50.3814 44.8998 50.6944C43.6979 51.0074 42.4571 50.3031 42.1082 49.0901C42.7673 49.6771 43.6979 49.9118 44.6284 49.6771Z" fill="#989899"/>
<path d="M61.0301 32.969C61.0301 32.969 74.6784 33.3994 76.8885 39.5427C79.0986 45.6859 48.0022 54.6074 30.1277 52.4553C30.1277 52.4553 42.6903 54.1378 63.7443 46.1164C87.5512 37.0776 61.0301 32.969 61.0301 32.969Z" fill="url(#paint0_linear_2286_41553)"/>
<path d="M18.1993 10.3731L6.63306 10.752L6.73483 13.7743L8.33048 17.3961L8.38136 18.9072L9.85343 18.859L11.6435 36.7384L14.3973 36.6481L15.1108 18.6868L16.5829 18.6386L16.532 17.1274L18.301 13.3954L18.1993 10.3731Z" fill="#54817A"/>
<path d="M12.8233 0.255536C11.8247 3.34842 5.84105 5.77002 8.21258 10.6999L16.7496 10.4202C19.0315 4.50331 12.9824 4.97968 12.8233 0.255536Z" fill="#FFE047"/>
<path d="M10.1843 10.6357L14.5873 10.4914C15.1146 9.22723 14.7875 8.54622 14.2557 7.97978C13.5932 7.27408 12.6899 7.36005 12.6476 6.10383C12.3646 6.91323 11.2412 7.05446 10.546 7.95672C9.96665 8.7086 9.63112 9.56271 10.1843 10.6357Z" fill="#FFB547"/>
<path d="M8.23413 17.376L16.4957 17.1053L16.5519 18.7727L8.29028 19.0433L8.23413 17.376Z" fill="#9ED2CA"/>
<rect width="11.5724" height="2.78048" transform="matrix(0.999464 -0.0327416 0.0336547 0.999433 6.63306 10.752)" fill="#9ED2CA"/>
<path d="M64.2402 18.3791L53.7594 20.1259L55.5418 17.7969L64.2402 18.3791Z" fill="#54817A"/>
<path d="M7.54107 15C7.54107 15 -0.234727 18.5015 0.00545159 22.6315C0.24563 26.7614 9.43247 31.5498 21.2313 32.1483C21.2313 32.1483 8.29162 31.071 2.25713 23.8884C-1.37558 19.519 7.54107 15 7.54107 15Z" fill="url(#paint1_linear_2286_41553)"/>
<path d="M69.2508 15.5936C75.3546 14.6101 77.8595 17.3342 79.5138 18.7432C78.5777 20.8675 74.2807 28.3019 72.4039 31.3868C69.2096 27.5078 66.4907 27.1661 62.2927 27.7793C58.0946 28.3926 55.455 26.3457 53.5649 24.9374L60.3997 11.7325C61.3463 12.908 62.5367 16.6755 69.2508 15.5936Z" fill="#E2503C"/>
<mask id="mask0_2286_41553" style="mask-type:alpha" maskUnits="userSpaceOnUse" x="54" y="11" width="26" height="20">
<path d="M69.2508 15.5939C75.3546 14.6104 77.8595 17.3345 79.5138 18.7435C78.5777 20.8677 74.6783 27.2571 72.8014 30.342C69.6071 26.463 67.8367 29.1405 63.6387 29.7538C58.6912 30.4766 55.9638 25.1818 54.0738 23.7736L60.3997 11.7327C61.3463 12.9083 62.5367 16.6758 69.2508 15.5939Z" fill="#F5F5F5"/>
</mask>
<g mask="url(#mask0_2286_41553)">
<path d="M58.2903 13.7984C59.7208 15.5995 63.4224 18.2962 67.6888 17.382C72.7866 16.2897 76.1465 18.7141 77.8219 20.2899" stroke="#F5F5F5" stroke-linecap="round"/>
<path d="M56.759 16.5652C58.1895 18.3664 61.8912 21.063 66.1575 20.1489C71.2554 19.0565 74.6153 21.4809 76.2907 23.0568" stroke="#F5F5F5" stroke-linecap="round"/>
<path d="M55.228 19.3321C56.6585 21.1332 60.3602 23.8298 64.6265 22.9157C69.7244 21.8234 73.0842 24.2477 74.7597 25.8236" stroke="#F5F5F5" stroke-linecap="round"/>
<path d="M53.6967 22.0989C55.1273 23.9 58.8289 26.5967 63.0953 25.6825C68.1931 24.5902 71.553 27.0146 73.2284 28.5905" stroke="#F5F5F5" stroke-linecap="round"/>
<rect width="10.4504" height="10.6148" transform="translate(60.1084 8.05005) rotate(26.3545)" fill="#00008B"/>
<path d="M56.2592 19.7424L60.3996 11.7326C61.2941 12.8435 62.4065 16.2693 68.1927 15.7294C66.8933 18.7929 66.1205 20.8624 65.3549 22.2458C61.7634 23.5111 57.2451 21.553 56.2592 19.7424Z" fill="#1D88EC"/>
<path d="M59.7628 11.9937C59.7403 12.0203 59.7647 12.0602 59.7986 12.0524L60.0608 11.992L60.2028 12.2204C60.2211 12.25 60.2666 12.2392 60.2697 12.2045L60.2933 11.9365L60.5545 11.8721C60.5883 11.8637 60.592 11.8171 60.5599 11.8035L60.3124 11.6983L60.3229 11.5536C60.1778 11.6021 60.0354 11.6581 59.8961 11.7211L59.9362 11.788L59.7628 11.9937Z" fill="white"/>
<path d="M59.5146 13.3957L59.4952 13.664L59.7428 13.7692C59.7748 13.7828 59.7711 13.8294 59.7373 13.8378L59.4761 13.9022L59.4525 14.1702C59.4495 14.2049 59.404 14.2157 59.3856 14.1861L59.2436 13.9577L58.9815 14.0181C58.9475 14.0259 58.9232 13.986 58.9456 13.9594L59.119 13.7537L58.9805 13.523C58.9626 13.4932 58.993 13.4577 59.0253 13.4708L59.2744 13.5722L59.451 13.3692C59.474 13.343 59.5172 13.3609 59.5146 13.3957Z" fill="white"/>
<path d="M58.6077 15.5754L58.5882 15.8437L58.8358 15.9489C58.8678 15.9625 58.8641 16.0091 58.8303 16.0175L58.5691 16.0819L58.5455 16.3499C58.5425 16.3846 58.4971 16.3954 58.4786 16.3658L58.3366 16.1374L58.0745 16.1977C58.0406 16.2055 58.0162 16.1657 58.0386 16.139L58.212 15.9334L58.0736 15.7027C58.0556 15.6729 58.086 15.6374 58.1183 15.6505L58.3674 15.7519L58.544 15.5489C58.567 15.5227 58.6102 15.5406 58.6077 15.5754Z" fill="white"/>
<path d="M57.7751 17.5788L57.7557 17.8471L58.0033 17.9523C58.0353 17.9659 58.0316 18.0125 57.9978 18.0209L57.7366 18.0853L57.713 18.3533C57.71 18.388 57.6645 18.3988 57.6461 18.3692L57.5041 18.1408L57.242 18.2012C57.208 18.209 57.1837 18.1691 57.2061 18.1425L57.3795 17.9368L57.241 17.7062C57.2231 17.6763 57.2535 17.6408 57.2858 17.6539L57.5349 17.7553L57.7115 17.5523C57.7345 17.5261 57.7777 17.544 57.7751 17.5788Z" fill="white"/>
<path d="M57.0168 19.4008L56.9974 19.6691L57.245 19.7743C57.277 19.788 57.2733 19.8345 57.2395 19.8429L56.9783 19.9073L56.9547 20.1753C56.9517 20.21 56.9062 20.2208 56.8878 20.1913L56.7458 19.9628L56.4837 20.0232C56.4497 20.031 56.4254 19.9911 56.4478 19.9645L56.6212 19.7588L56.4827 19.5282C56.4648 19.4983 56.4952 19.4628 56.5275 19.4759L56.7766 19.5773L56.9532 19.3743C56.9762 19.3481 57.0194 19.3661 57.0168 19.4008Z" fill="white"/>
<path d="M60.9015 12.7587L60.8821 13.027L61.1296 13.1322C61.1617 13.1458 61.1579 13.1924 61.1242 13.2007L60.863 13.2652L60.8394 13.5331C60.8363 13.5678 60.7909 13.5787 60.7725 13.5491L60.6306 13.3206L60.3684 13.381C60.3345 13.3889 60.3101 13.349 60.3325 13.3223L60.5059 13.1167L60.3675 12.886C60.3496 12.8562 60.38 12.8207 60.4122 12.8338L60.6614 12.9352L60.838 12.7323C60.8609 12.706 60.904 12.7239 60.9015 12.7587Z" fill="white"/>
<path d="M59.9948 14.9389L59.9754 15.2072L60.223 15.3124C60.255 15.326 60.2513 15.3726 60.2175 15.381L59.9563 15.4454L59.9327 15.7134C59.9296 15.7481 59.8842 15.7589 59.8658 15.7293L59.7238 15.5008L59.4617 15.5613C59.4277 15.5691 59.4034 15.5292 59.4258 15.5026L59.5992 15.2969L59.4608 15.0663C59.4429 15.0364 59.4732 15.0009 59.5055 15.014L59.7546 15.1154L59.9312 14.9124C59.9542 14.8862 59.9974 14.9041 59.9948 14.9389Z" fill="white"/>
<path d="M59.1335 17.0097L59.1141 17.278L59.3616 17.3832C59.3937 17.3968 59.39 17.4434 59.3562 17.4517L59.095 17.5162L59.0714 17.7842C59.0683 17.8189 59.0229 17.8297 59.0045 17.8001L58.8625 17.5716L58.6003 17.632C58.5664 17.6399 58.542 17.6 58.5645 17.5733L58.7379 17.3677L58.5995 17.137C58.5815 17.1072 58.6119 17.0717 58.6442 17.0848L58.8933 17.1861L59.0699 16.9832C59.0929 16.957 59.136 16.975 59.1335 17.0097Z" fill="white"/>
<path d="M58.3601 18.8698L58.3406 19.1381L58.5882 19.2433C58.6202 19.2569 58.6165 19.3035 58.5827 19.3119L58.3215 19.3763L58.2979 19.6443C58.2949 19.679 58.2494 19.6899 58.231 19.6602L58.089 19.4318L57.8269 19.4922C57.7929 19.5 57.7686 19.4601 57.791 19.4335L57.9644 19.2278L57.826 18.9972C57.8081 18.9673 57.8385 18.9318 57.8707 18.9449L58.1199 19.0463L58.2964 18.8433C58.3194 18.8171 58.3626 18.835 58.3601 18.8698Z" fill="white"/>
<path d="M62.2453 12.226L62.2259 12.4943L62.4735 12.5995C62.5055 12.6131 62.5018 12.6597 62.468 12.668L62.2068 12.7325L62.1832 13.0004C62.1802 13.0351 62.1347 13.046 62.1163 13.0164L61.9743 12.7879L61.7122 12.8483C61.6782 12.8561 61.6539 12.8162 61.6763 12.7896L61.8497 12.5839L61.7113 12.3533C61.6934 12.3235 61.7238 12.2879 61.756 12.3011L62.0051 12.4025L62.1817 12.1995C62.2047 12.1733 62.2478 12.1913 62.2453 12.226Z" fill="white"/>
<path d="M61.4277 14.1913L61.4083 14.4596L61.6558 14.5648C61.6879 14.5785 61.6841 14.625 61.6503 14.6334L61.3891 14.6979L61.3656 14.9658C61.3625 15.0005 61.3171 15.0114 61.2987 14.9818L61.1567 14.7533L60.8945 14.8137C60.8606 14.8215 60.8362 14.7816 60.8587 14.755L61.032 14.5493L60.8936 14.3187C60.8757 14.2889 60.9061 14.2533 60.9384 14.2665L61.1875 14.3678L61.3641 14.1649C61.387 14.1386 61.4302 14.1566 61.4277 14.1913Z" fill="white"/>
<path d="M60.5207 16.371L60.5013 16.6393L60.7488 16.7445C60.7809 16.7582 60.7772 16.8047 60.7434 16.8131L60.4822 16.8775L60.4586 17.1455C60.4555 17.1802 60.4101 17.191 60.3917 17.1615L60.2497 16.933L59.9875 16.9934C59.9536 17.0012 59.9292 16.9613 59.9517 16.9347L60.1251 16.729L59.9867 16.4984C59.9687 16.4685 59.9991 16.433 60.0314 16.4461L60.2805 16.5475L60.4571 16.3446C60.4801 16.3183 60.5232 16.3363 60.5207 16.371Z" fill="white"/>
<path d="M59.6882 18.3744L59.6688 18.6427L59.9163 18.7479C59.9483 18.7616 59.9446 18.8082 59.9108 18.8165L59.6496 18.881L59.6261 19.1489C59.623 19.1836 59.5776 19.1945 59.5592 19.1649L59.4172 18.9364L59.155 18.9968C59.1211 19.0046 59.0967 18.9647 59.1192 18.9381L59.2925 18.7324L59.1541 18.5018C59.1362 18.472 59.1666 18.4364 59.1989 18.4496L59.448 18.5509L59.6246 18.348C59.6475 18.3217 59.6907 18.3397 59.6882 18.3744Z" fill="white"/>
<path d="M58.9296 20.1967L58.9102 20.465L59.1578 20.5702C59.1898 20.5838 59.1861 20.6304 59.1523 20.6388L58.8911 20.7032L58.8675 20.9712C58.8645 21.0059 58.819 21.0167 58.8006 20.9871L58.6586 20.7587L58.3965 20.8191C58.3625 20.8269 58.3382 20.787 58.3606 20.7604L58.534 20.5547L58.3956 20.3241C58.3777 20.2942 58.4081 20.2587 58.4403 20.2718L58.6895 20.3732L58.866 20.1702C58.889 20.144 58.9322 20.162 58.9296 20.1967Z" fill="white"/>
<path d="M62.8152 13.5549L62.7958 13.8232L63.0433 13.9284C63.0753 13.942 63.0716 13.9886 63.0378 13.9969L62.7767 14.0614L62.7531 14.3293C62.75 14.364 62.7046 14.3749 62.6862 14.3453L62.5442 14.1168L62.282 14.1772C62.2481 14.185 62.2237 14.1451 62.2462 14.1185L62.4196 13.9128L62.2811 13.6822C62.2632 13.6524 62.2936 13.6168 62.3258 13.63L62.575 13.7314L62.7516 13.5284C62.7746 13.5022 62.8177 13.5201 62.8152 13.5549Z" fill="white"/>
<path d="M61.9082 15.7343L61.8888 16.0026L62.1363 16.1078C62.1684 16.1215 62.1646 16.168 62.1308 16.1764L61.8697 16.2408L61.8461 16.5088C61.843 16.5435 61.7976 16.5544 61.7792 16.5248L61.6372 16.2963L61.375 16.3567C61.3411 16.3645 61.3167 16.3246 61.3392 16.298L61.5126 16.0923L61.3741 15.8617C61.3562 15.8318 61.3866 15.7963 61.4189 15.8094L61.668 15.9108L61.8446 15.7079C61.8676 15.6816 61.9107 15.6996 61.9082 15.7343Z" fill="white"/>
<path d="M61.0466 17.8056L61.0272 18.0739L61.2748 18.1791C61.3068 18.1927 61.3031 18.2393 61.2692 18.2476L61.0081 18.3121L60.9845 18.5801C60.9814 18.6148 60.936 18.6256 60.9176 18.596L60.7756 18.3675L60.5135 18.4279C60.4795 18.4358 60.4552 18.3959 60.4776 18.3692L60.651 18.1636L60.5125 17.9329C60.4946 17.9031 60.525 17.8676 60.5573 17.8807L60.8065 17.9821L60.983 17.7791C61.006 17.7529 61.0491 17.7709 61.0466 17.8056Z" fill="white"/>
<path d="M60.2732 19.6657L60.2538 19.934L60.5013 20.0392C60.5333 20.0529 60.5296 20.0994 60.4958 20.1078L60.2346 20.1722L60.2111 20.4402C60.208 20.4749 60.1626 20.4858 60.1442 20.4562L60.0021 20.2277L59.74 20.2881C59.7061 20.2959 59.6817 20.256 59.7042 20.2294L59.8775 20.0237L59.7391 19.7931C59.7212 19.7632 59.7516 19.7277 59.7839 19.7408L60.033 19.8422L60.2096 19.6392C60.2326 19.613 60.2757 19.631 60.2732 19.6657Z" fill="white"/>
<path d="M64.1582 13.0216L64.1387 13.2899L64.3863 13.3951C64.4183 13.4088 64.4146 13.4553 64.3808 13.4637L64.1196 13.5281L64.0961 13.7961C64.093 13.8308 64.0476 13.8416 64.0292 13.812L63.8872 13.5835L63.625 13.6439C63.5911 13.6518 63.5667 13.6119 63.5892 13.5853L63.7625 13.3796L63.6241 13.149C63.6062 13.1191 63.6366 13.0836 63.6689 13.0968L63.918 13.1981L64.0946 12.9952C64.1176 12.969 64.1607 12.9869 64.1582 13.0216Z" fill="white"/>
<path d="M63.341 14.987L63.3216 15.2553L63.5691 15.3605C63.6011 15.3741 63.5974 15.4207 63.5636 15.429L63.3024 15.4935L63.2789 15.7614C63.2758 15.7961 63.2304 15.807 63.212 15.7774L63.07 15.5489L62.8079 15.6093C62.7739 15.6172 62.7496 15.5773 62.772 15.5506L62.9454 15.345L62.807 15.1143C62.7891 15.0845 62.8195 15.049 62.8517 15.0621L63.1009 15.1635L63.2775 14.9605C63.3004 14.9343 63.3435 14.9522 63.341 14.987Z" fill="white"/>
<path d="M62.4343 17.1669L62.4149 17.4352L62.6624 17.5404C62.6944 17.5541 62.6907 17.6006 62.6569 17.609L62.3957 17.6734L62.3722 17.9414C62.3691 17.9761 62.3237 17.9869 62.3053 17.9574L62.1632 17.7289L61.9011 17.7893C61.8672 17.7971 61.8428 17.7572 61.8652 17.7306L62.0386 17.5249L61.9002 17.2943C61.8823 17.2644 61.9127 17.2289 61.945 17.2421L62.1941 17.3434L62.3707 17.1405C62.3937 17.1142 62.4368 17.1322 62.4343 17.1669Z" fill="white"/>
<path d="M61.6015 19.1698L61.5821 19.4381L61.8296 19.5434C61.8617 19.557 61.858 19.6036 61.8241 19.6119L61.563 19.6764L61.5394 19.9443C61.5363 19.979 61.4909 19.9899 61.4725 19.9603L61.3305 19.7318L61.0683 19.7922C61.0344 19.8 61.01 19.7601 61.0325 19.7335L61.2059 19.5279L61.0675 19.2972C61.0495 19.2674 61.0799 19.2319 61.1122 19.245L61.3614 19.3463L61.5379 19.1434C61.5609 19.1172 61.604 19.1351 61.6015 19.1698Z" fill="white"/>
<path d="M60.843 20.9921L60.8235 21.2604L61.0711 21.3656C61.1031 21.3793 61.0994 21.4258 61.0656 21.4342L60.8044 21.4986L60.7808 21.7666C60.7778 21.8013 60.7324 21.8121 60.7139 21.7826L60.5719 21.5541L60.3098 21.6145C60.2759 21.6223 60.2515 21.5824 60.2739 21.5558L60.4473 21.3501L60.3089 21.1195C60.291 21.0896 60.3214 21.0541 60.3537 21.0672L60.6028 21.1686L60.7794 20.9657C60.8024 20.9394 60.8455 20.9574 60.843 20.9921Z" fill="white"/>
<path d="M64.7283 14.3505L64.7088 14.6188L64.9564 14.724C64.9884 14.7377 64.9847 14.7842 64.9509 14.7926L64.6897 14.857L64.6661 15.125C64.6631 15.1597 64.6176 15.1705 64.5992 15.1409L64.4572 14.9124L64.1951 14.9728C64.1611 14.9807 64.1368 14.9408 64.1592 14.9141L64.3326 14.7085L64.1942 14.4778C64.1763 14.448 64.2067 14.4125 64.2389 14.4256L64.488 14.527L64.6646 14.324C64.6877 14.2978 64.7308 14.3158 64.7283 14.3505Z" fill="white"/>
<path d="M63.8213 16.53L63.8019 16.7983L64.0494 16.9035C64.0814 16.9171 64.0777 16.9637 64.0439 16.972L63.7827 17.0365L63.7591 17.3044C63.7561 17.3391 63.7106 17.35 63.6922 17.3204L63.5502 17.0919L63.2881 17.1523C63.2541 17.1602 63.2298 17.1203 63.2522 17.0936L63.4256 16.888L63.2872 16.6573C63.2693 16.6275 63.2997 16.592 63.3319 16.6051L63.5811 16.7064L63.7576 16.5035C63.7807 16.4773 63.8238 16.4952 63.8213 16.53Z" fill="white"/>
<path d="M62.9602 18.6015L62.9408 18.8698L63.1883 18.975C63.2204 18.9886 63.2167 19.0352 63.1828 19.0435L62.9216 19.108L62.898 19.376C62.895 19.4106 62.8495 19.4215 62.8311 19.3919L62.6891 19.1634L62.427 19.2238C62.3931 19.2317 62.3687 19.1918 62.3911 19.1651L62.5645 18.9595L62.4261 18.7288C62.4082 18.699 62.4386 18.6635 62.4708 18.6766L62.72 18.7779L62.8966 18.575C62.9196 18.5488 62.9627 18.5668 62.9602 18.6015Z" fill="white"/>
<path d="M62.1863 20.4611L62.1668 20.7294L62.4144 20.8346C62.4464 20.8483 62.4427 20.8948 62.4089 20.9032L62.1477 20.9676L62.1241 21.2356C62.121 21.2703 62.0756 21.2811 62.0572 21.2516L61.9152 21.0231L61.6531 21.0835C61.6191 21.0913 61.5948 21.0514 61.6172 21.0248L61.7906 20.8191L61.6522 20.5885C61.6343 20.5586 61.6647 20.5231 61.6969 20.5362L61.9461 20.6376L62.1226 20.4346C62.1457 20.4084 62.1888 20.4264 62.1863 20.4611Z" fill="white"/>
<path d="M66.0716 13.8173L66.0521 14.0856L66.2997 14.1908C66.3317 14.2044 66.328 14.251 66.2942 14.2593L66.033 14.3238L66.0094 14.5918C66.0064 14.6264 65.9609 14.6373 65.9425 14.6077L65.8005 14.3792L65.5384 14.4396C65.5044 14.4475 65.4801 14.4076 65.5025 14.3809L65.6759 14.1753L65.5375 13.9446C65.5195 13.9148 65.5499 13.8793 65.5822 13.8924L65.8314 13.9938L66.0079 13.7908C66.031 13.7647 66.0741 13.7826 66.0716 13.8173Z" fill="white"/>
<path d="M65.2542 15.7827L65.2348 16.051L65.4823 16.1562C65.5143 16.1698 65.5106 16.2164 65.4768 16.2247L65.2156 16.2892L65.192 16.5571C65.189 16.5918 65.1435 16.6027 65.1251 16.5731L64.9831 16.3446L64.721 16.405C64.687 16.4129 64.6627 16.373 64.6851 16.3463L64.8585 16.1407L64.72 15.91C64.7021 15.8802 64.7325 15.8447 64.7648 15.8578L65.014 15.9591L65.1905 15.7562C65.2136 15.73 65.2567 15.7479 65.2542 15.7827Z" fill="white"/>
<path d="M64.3474 17.9626L64.328 18.2309L64.5756 18.3361C64.6076 18.3497 64.6039 18.3963 64.57 18.4047L64.3089 18.4691L64.2853 18.7371C64.2822 18.7718 64.2368 18.7826 64.2184 18.753L64.0764 18.5246L63.8142 18.5849C63.7803 18.5927 63.7559 18.5529 63.7784 18.5263L63.9518 18.3206L63.8133 18.0899C63.7954 18.0601 63.8258 18.0246 63.8581 18.0377L64.1072 18.1391L64.2838 17.9361C64.3068 17.9099 64.35 17.9279 64.3474 17.9626Z" fill="white"/>
<path d="M63.5147 19.9655L63.4953 20.2338L63.7428 20.339C63.7748 20.3527 63.7711 20.3992 63.7373 20.4076L63.4761 20.472L63.4525 20.74C63.4495 20.7747 63.404 20.7855 63.3856 20.756L63.2436 20.5275L62.9815 20.5879C62.9475 20.5957 62.9232 20.5558 62.9456 20.5292L63.119 20.3235L62.9805 20.0929C62.9626 20.063 62.993 20.0275 63.0253 20.0406L63.2745 20.142L63.451 19.9391C63.4741 19.9128 63.5172 19.9308 63.5147 19.9655Z" fill="white"/>
<path d="M62.7569 21.788L62.7374 22.0563L62.985 22.1616C63.017 22.1752 63.0133 22.2218 62.9795 22.2301L62.7183 22.2946L62.6947 22.5625C62.6916 22.5972 62.6462 22.608 62.6278 22.5785L62.4858 22.35L62.2237 22.4104C62.1897 22.4182 62.1653 22.3783 62.1878 22.3517L62.3612 22.146L62.2227 21.9154C62.2048 21.8855 62.2352 21.85 62.2675 21.8631L62.5166 21.9645L62.6932 21.7616C62.7163 21.7354 62.7594 21.7533 62.7569 21.788Z" fill="white"/>
<path d="M66.6414 15.1462L66.6219 15.4145L66.8695 15.5197C66.9015 15.5333 66.8978 15.5799 66.864 15.5882L66.6028 15.6527L66.5792 15.9206C66.5762 15.9553 66.5307 15.9662 66.5123 15.9366L66.3703 15.7081L66.1082 15.7685C66.0743 15.7763 66.0499 15.7364 66.0723 15.7098L66.2457 15.5042L66.1073 15.2735C66.0894 15.2437 66.1197 15.2081 66.152 15.2213L66.4012 15.3227L66.5777 15.1197C66.6007 15.0935 66.6439 15.1114 66.6414 15.1462Z" fill="white"/>
<path d="M65.7349 17.3261L65.7154 17.5944L65.963 17.6996C65.9951 17.7133 65.9913 17.7598 65.9575 17.7682L65.6963 17.8326L65.6727 18.1006C65.6697 18.1353 65.6242 18.1462 65.6058 18.1166L65.4638 17.8881L65.2017 17.9485C65.1677 17.9563 65.1434 17.9164 65.1658 17.8898L65.3392 17.6841L65.2008 17.4535C65.1828 17.4236 65.2132 17.3881 65.2455 17.4012L65.4947 17.5026L65.6712 17.2996C65.6943 17.2734 65.7374 17.2914 65.7349 17.3261Z" fill="white"/>
<path d="M64.8735 19.3971L64.8541 19.6654L65.1017 19.7707C65.1337 19.7843 65.13 19.8309 65.0962 19.8392L64.835 19.9037L64.8114 20.1716C64.8084 20.2063 64.7629 20.2171 64.7445 20.1876L64.6025 19.9591L64.3404 20.0195C64.3064 20.0273 64.2821 19.9874 64.3045 19.9608L64.4779 19.7551L64.3394 19.5245C64.3215 19.4946 64.3519 19.4591 64.3842 19.4722L64.6334 19.5736L64.8099 19.3707C64.8329 19.3445 64.8761 19.3624 64.8735 19.3971Z" fill="white"/>
<path d="M64.0999 21.257L64.0804 21.5253L64.328 21.6305C64.36 21.6442 64.3563 21.6908 64.3225 21.6991L64.0613 21.7636L64.0377 22.0315C64.0347 22.0662 63.9892 22.0771 63.9708 22.0475L63.8288 21.819L63.5667 21.8794C63.5327 21.8872 63.5084 21.8473 63.5308 21.8207L63.7042 21.615L63.5658 21.3844C63.5478 21.3545 63.5782 21.319 63.6105 21.3321L63.8597 21.4335L64.0362 21.2306C64.0592 21.2043 64.1024 21.2223 64.0999 21.257Z" fill="white"/>
<path d="M67.9854 14.6129L67.9659 14.8812L68.2135 14.9865C68.2455 15.0001 68.2418 15.0467 68.208 15.055L67.9468 15.1194L67.9232 15.3874C67.9202 15.4221 67.8747 15.4329 67.8563 15.4034L67.7143 15.1749L67.4522 15.2353C67.4183 15.2431 67.3939 15.2032 67.4163 15.1766L67.5897 14.9709L67.4513 14.7403C67.4334 14.7104 67.4638 14.6749 67.496 14.6881L67.7451 14.7894L67.9217 14.5865C67.9447 14.5603 67.9879 14.5782 67.9854 14.6129Z" fill="white"/>
<path d="M67.1677 16.5788L67.1483 16.8471L67.3958 16.9523C67.4279 16.9659 67.4242 17.0125 67.3904 17.0209L67.1292 17.0853L67.1056 17.3533C67.1025 17.388 67.0571 17.3988 67.0387 17.3692L66.8967 17.1408L66.6345 17.2012C66.6006 17.209 66.5762 17.1691 66.5987 17.1425L66.7721 16.9368L66.6336 16.7062C66.6157 16.6763 66.6461 16.6408 66.6784 16.6539L66.9275 16.7553L67.1041 16.5523C67.1271 16.5261 67.1702 16.544 67.1677 16.5788Z" fill="white"/>
<path d="M66.2607 18.7582L66.2413 19.0265L66.4889 19.1318C66.5209 19.1454 66.5172 19.192 66.4834 19.2003L66.2222 19.2648L66.1986 19.5327C66.1955 19.5674 66.1501 19.5782 66.1317 19.5487L65.9897 19.3202L65.7276 19.3806C65.6936 19.3884 65.6693 19.3485 65.6917 19.3219L65.8651 19.1163L65.7266 18.8856C65.7087 18.8558 65.7391 18.8202 65.7714 18.8333L66.0205 18.9347L66.1971 18.7318C66.2201 18.7056 66.2633 18.7235 66.2607 18.7582Z" fill="white"/>
<path d="M65.4282 20.7617L65.4088 21.03L65.6563 21.1352C65.6884 21.1488 65.6847 21.1954 65.6509 21.2037L65.3897 21.2682L65.3661 21.5362C65.363 21.5708 65.3176 21.5817 65.2992 21.5521L65.1572 21.3236L64.895 21.384C64.8611 21.3918 64.8367 21.352 64.8592 21.3253L65.0326 21.1197L64.8941 20.889C64.8762 20.8592 64.9066 20.8237 64.9389 20.8368L65.188 20.9381L65.3646 20.7352C65.3876 20.709 65.4307 20.7269 65.4282 20.7617Z" fill="white"/>
<path d="M64.6699 22.5839L64.6505 22.8522L64.898 22.9574C64.9301 22.9711 64.9264 23.0176 64.8926 23.026L64.6314 23.0905L64.6078 23.3584C64.6047 23.3931 64.5593 23.4039 64.5409 23.3744L64.3989 23.1459L64.1367 23.2063C64.1028 23.2141 64.0784 23.1742 64.1009 23.1476L64.2743 22.9419L64.1358 22.7113C64.1179 22.6814 64.1483 22.6459 64.1805 22.659L64.4297 22.7604L64.6063 22.5574C64.6293 22.5312 64.6724 22.5492 64.6699 22.5839Z" fill="white"/>
</g>
<path d="M79.3235 18.2295L67.2122 41.5001" stroke="#DDDDDD" stroke-linecap="round"/>
<defs>
<linearGradient id="paint0_linear_2286_41553" x1="30.4848" y1="42.2377" x2="76.8845" y2="43.8445" gradientUnits="userSpaceOnUse">
<stop stop-color="#FFF480"/>
<stop offset="1" stop-color="#FFFFA3" stop-opacity="0"/>
</linearGradient>
<linearGradient id="paint1_linear_2286_41553" x1="0.00863396" y1="23.5592" x2="21.2377" y2="23.5592" gradientUnits="userSpaceOnUse">
<stop stop-color="#FFF480"/>
<stop offset="1" stop-color="#FFFFA3" stop-opacity="0"/>
</linearGradient>
</defs>
</svg>
