<svg width="80" height="70" viewBox="0 0 80 70" fill="none" xmlns="http://www.w3.org/2000/svg">
<ellipse rx="24.9221" ry="2.80251" transform="matrix(-0.999913 -0.0131704 -0.0131704 0.999913 32.8854 67.13)" fill="#262626" fill-opacity="0.05"/>
<path d="M47.4551 38.6069C48.1892 36.4207 53.5988 25.4763 66.8329 23.4664C77.6726 21.844 71.3221 28.9155 67.9792 30.3625C67.9792 30.3625 70.4628 29.3028 71.5267 30.7243C72.5956 32.1085 71.0676 36.3218 65.2306 37.3851C65.2306 37.3851 70.2977 36.6442 70.1705 40.3474C70.0433 44.0505 64.4605 46.8528 57.0929 47.2718C49.7254 47.6909 46.6812 40.7883 47.4551 38.6069Z" fill="url(#paint0_linear_2286_41552)"/>
<path d="M9.13209 26.692C-2.88025 35.6999 4.88406 50.3745 11.1533 54.3456L9.13209 26.692Z" fill="url(#paint1_linear_2286_41552)"/>
<path d="M25.4697 66.3762C25.2773 66.4149 25.0463 66.3375 24.8538 66.1828L23.3912 64.8285L22.3134 66.6471C22.1209 66.9953 21.6975 67.1114 21.3511 66.8792C21.0047 66.6857 20.8892 66.2601 21.1202 65.9119L22.6213 63.3581C22.7368 63.1646 22.8908 63.0486 23.1217 63.0099C23.3527 62.9712 23.5451 63.0486 23.6991 63.2033L25.7777 65.1767C26.0471 65.4476 26.0856 65.9119 25.8161 66.1828C25.7391 66.2988 25.5852 66.3762 25.4697 66.3762Z" fill="#EC8822"/>
<path d="M45.4697 67.3762C45.2773 67.4149 45.0463 67.3375 44.8538 67.1828L43.3912 65.8285L42.3134 67.6471C42.1209 67.9953 41.6975 68.1114 41.3511 67.8792C41.0047 67.6857 40.8892 67.2601 41.1202 66.9119L42.6213 64.3581C42.7368 64.1646 42.8908 64.0486 43.1217 64.0099C43.3527 63.9712 43.5451 64.0486 43.6991 64.2033L45.7777 66.1767C46.0471 66.4476 46.0856 66.9119 45.8161 67.1828C45.7391 67.2988 45.5852 67.3762 45.4697 67.3762Z" fill="#EC8822"/>
<path d="M29.9847 12.0208C29.9847 12.0208 29.6358 10.0684 30.1709 8.35487C30.4526 7.38543 30.6358 6.65441 30.1093 6.75243C29.0985 6.97732 28.753 8.54551 29.9847 12.0208Z" fill="#989899"/>
<path d="M31.271 10.7908C31.271 10.7908 32.7188 8.72391 34.5863 8.04608C36.2783 7.40093 35.1356 6.21987 33.6607 7.22806C32.3544 8.1682 31.271 10.7908 31.271 10.7908Z" fill="#989899"/>
<path d="M30.3859 11.2852C30.3859 11.2852 30.7883 8.89943 32.5163 7.33058C33.9704 6.03282 34.1259 4.97683 33.5505 4.8272C32.3998 4.52793 30.5178 5.68529 30.3859 11.2852Z" fill="#989899"/>
<path d="M56.7283 32.9743C50.5166 4.36297 15.1998 1.97834 7.67877 29.568C2.56293 48.3347 13.9512 60.6809 19.2603 63.084C24.5694 65.4872 28.5757 61.6747 33.0904 61.6747C40.6309 61.6747 40.4324 65.9489 46.1694 63.084C51.9063 60.2192 59.9994 48.0408 56.7283 32.9743Z" fill="url(#paint2_linear_2286_41552)"/>
<path d="M40.6205 18.0142C38.5558 17.8627 36.6038 18.3173 34.877 19.1507C32.6622 20.2494 30.1095 20.2494 27.8947 19.1507C26.2054 18.3173 24.2158 17.9006 22.1512 18.0142C16.7455 18.3552 12.3535 22.636 11.9781 27.9018C11.5276 34.1526 16.5954 39.3427 22.9395 39.3427C24.7414 39.3427 26.4682 38.9259 27.9698 38.1683C30.1095 37.1075 32.6622 37.1075 34.8019 38.1683C36.3035 38.9259 38.0303 39.3427 39.8322 39.3427C46.1388 39.3427 51.2441 34.1526 50.7936 27.9018C50.4558 22.6739 46.0261 18.3931 40.6205 18.0142Z" fill="white"/>
<path d="M30.552 29.6912L32.3604 33.2059L33.9344 29.6912C33.9009 29.6912 32.2934 28.7205 30.552 29.6912Z" fill="#EC8822"/>
<circle cx="21.8146" cy="25.5959" r="1.97307" fill="#231F20"/>
<circle cx="41.5453" cy="25.5959" r="1.97307" fill="#231F20"/>
<ellipse cx="46.1651" cy="30.4851" rx="2.62043" ry="1.16464" transform="rotate(-1.32947 46.1651 30.4851)" fill="#FFA895" fill-opacity="0.58"/>
<ellipse cx="17.4155" cy="31.0493" rx="2.62043" ry="1.16464" transform="rotate(-1.32947 17.4155 31.0493)" fill="#FFA895" fill-opacity="0.58"/>
<path fill-rule="evenodd" clip-rule="evenodd" d="M47.2808 42.2724C47.5663 42.1753 47.8765 42.3281 47.9736 42.6136C48.1514 43.1368 48.3824 43.5985 48.632 44.0974L48.632 44.0975L48.6581 44.1497C48.793 44.4194 48.6836 44.7474 48.4139 44.8823C48.1441 45.0172 47.8161 44.9079 47.6813 44.6381L47.646 44.5676C47.4031 44.0822 47.142 43.5606 46.9396 42.9652C46.8425 42.6796 46.9953 42.3695 47.2808 42.2724ZM15.5753 43.473C15.7886 43.6862 15.7886 44.032 15.5753 44.2452L14.5057 45.3149C14.2924 45.5282 13.9467 45.5282 13.7334 45.3149C13.5201 45.1017 13.5201 44.7559 13.7334 44.5427L14.8031 43.473C15.0163 43.2597 15.3621 43.2597 15.5753 43.473ZM20.8932 44.0259C21.1947 44.0259 21.4392 44.2704 21.4392 44.572V46.3548C21.4392 46.6564 21.1947 46.9008 20.8932 46.9008C20.5916 46.9008 20.3471 46.6564 20.3471 46.3548V44.572C20.3471 44.2704 20.5916 44.0259 20.8932 44.0259ZM28.3921 45.1072C28.3921 44.8056 28.1476 44.5611 27.846 44.5611C27.5444 44.5611 27.2999 44.8056 27.2999 45.1072C27.2999 45.1848 27.2979 45.2759 27.2956 45.3732V45.3732V45.3732V45.3733V45.3733V45.3733V45.3733V45.3734V45.3734V45.3734V45.3734V45.3734V45.3734V45.3735V45.3735L27.2956 45.3737C27.2912 45.5638 27.2863 45.7776 27.2954 45.9614C27.3106 46.2718 27.3642 46.6127 27.5359 46.9559C27.6707 47.2257 27.9988 47.335 28.2685 47.2002C28.5383 47.0653 28.6476 46.7373 28.5127 46.4675C28.4327 46.3075 28.3972 46.1313 28.3862 45.9078C28.3787 45.7556 28.3822 45.6218 28.3863 45.4666C28.3891 45.3609 28.3921 45.2453 28.3921 45.1072ZM34.7087 44.5683C35.0063 44.6169 35.2082 44.8976 35.1596 45.1952C35.1431 45.2964 35.1264 45.3936 35.1102 45.4877C35.045 45.8667 34.9885 46.1951 34.9885 46.5335C34.9885 46.835 34.744 47.0795 34.4424 47.0795C34.1408 47.0795 33.8964 46.835 33.8964 46.5335C33.8964 46.0921 33.9732 45.6493 34.0401 45.2639L34.0401 45.2638L34.0401 45.2638C34.0548 45.1793 34.069 45.0976 34.0818 45.0192C34.1304 44.7216 34.411 44.5197 34.7087 44.5683ZM42.8327 44.9176C42.8266 44.6161 42.5772 44.3766 42.2756 44.3828C41.9741 44.3889 41.7347 44.6383 41.7408 44.9399C41.7514 45.4599 41.8207 45.8508 41.9353 46.3091C42.0084 46.6017 42.3049 46.7796 42.5975 46.7064C42.8901 46.6333 43.068 46.3368 42.9948 46.0442C42.894 45.6408 42.8412 45.334 42.8327 44.9176ZM16.7902 49.3244C16.8548 49.0298 16.6685 48.7386 16.3739 48.6739C16.0793 48.6092 15.7881 48.7956 15.7234 49.0902C15.715 49.1285 15.6879 49.2048 15.6307 49.3551L15.6244 49.3717C15.5759 49.4991 15.514 49.6618 15.4667 49.8233C15.4197 49.9836 15.3696 50.1984 15.384 50.4129C15.3998 50.6474 15.5045 50.957 15.8343 51.1219C16.1041 51.2568 16.4321 51.1475 16.567 50.8777C16.671 50.6697 16.6298 50.4271 16.4818 50.265C16.4878 50.2319 16.4981 50.1874 16.5148 50.1303C16.5498 50.0107 16.5984 49.8829 16.6515 49.7435L16.6515 49.7435L16.6515 49.7433L16.658 49.7263C16.7026 49.609 16.7618 49.4537 16.7902 49.3244ZM24.9179 49.2057C25.2142 49.2621 25.4086 49.5481 25.3522 49.8443C25.2423 50.4212 25.1835 50.9546 25.1835 51.5249C25.1835 51.8265 24.9391 52.071 24.6375 52.071C24.3359 52.071 24.0914 51.8265 24.0914 51.5249C24.0914 50.8746 24.159 50.2719 24.2793 49.64C24.3358 49.3437 24.6217 49.1493 24.9179 49.2057ZM31.0668 50.4555C31.0668 50.1539 30.8223 49.9094 30.5207 49.9094C30.2192 49.9094 29.9747 50.1539 29.9747 50.4555V51.8817C29.9747 52.1833 30.2192 52.4278 30.5207 52.4278C30.8223 52.4278 31.0668 52.1833 31.0668 51.8817V50.4555ZM37.996 49.5531C38.2975 49.5465 38.5472 49.7856 38.5538 50.0871C38.5657 50.6362 38.6288 51.1629 38.6971 51.7325V51.7325C38.7075 51.8194 38.718 51.9072 38.7285 51.9963C38.7637 52.2958 38.5495 52.5672 38.2499 52.6024C37.9504 52.6377 37.679 52.4234 37.6438 52.1239C37.6338 52.0391 37.6236 51.9539 37.6133 51.8683L37.6133 51.8682L37.6133 51.8678L37.6132 51.8675L37.6132 51.8675C37.5452 51.3014 37.4751 50.7174 37.4619 50.1109C37.4554 49.8094 37.6945 49.5596 37.996 49.5531ZM46.3881 48.5704C46.3317 48.2741 46.0458 48.0797 45.7495 48.1361C45.4533 48.1925 45.2589 48.4784 45.3153 48.7747C45.3257 48.8291 45.3337 48.9191 45.3446 49.0664L45.3467 49.0946V49.0947L45.3468 49.0953L45.3468 49.0955C45.3562 49.2232 45.3677 49.3788 45.3877 49.5305C45.4087 49.6906 45.443 49.8798 45.5104 50.0534C45.5741 50.2178 45.7013 50.4558 45.9641 50.5872C46.2338 50.7221 46.5618 50.6127 46.6967 50.343C46.8183 50.0998 46.7414 49.8093 46.5275 49.6556C46.5075 49.6027 46.4873 49.5154 46.4705 49.3881C46.4547 49.2682 46.4453 49.1413 46.4353 49.0068L46.4338 48.9854L46.4335 48.9814C46.424 48.8541 46.4124 48.6975 46.3881 48.5704ZM46.5404 49.6841C46.5403 49.6842 46.5394 49.6829 46.5378 49.6797C46.5396 49.6824 46.5404 49.684 46.5404 49.6841ZM12.4076 53.8421C12.7033 53.7829 12.991 53.9747 13.0501 54.2705L13.2284 55.1619C13.2876 55.4576 13.0958 55.7453 12.8001 55.8044C12.5043 55.8636 12.2166 55.6718 12.1575 55.376L11.9792 54.4847C11.9201 54.1889 12.1119 53.9012 12.4076 53.8421ZM19.4781 54.3776C19.4781 54.076 19.2337 53.8315 18.9321 53.8315C18.6305 53.8315 18.386 54.076 18.386 54.3776V55.9821C18.386 56.2837 18.6305 56.5281 18.9321 56.5281C19.2337 56.5281 19.4781 56.2837 19.4781 55.9821V54.3776ZM27.3115 55.2577C27.6131 55.2577 27.8576 55.5022 27.8576 55.8038V57.0517C27.8576 57.3533 27.6131 57.5978 27.3115 57.5978C27.01 57.5978 26.7655 57.3533 26.7655 57.0517V55.8038C26.7655 55.5022 27.01 55.2577 27.3115 55.2577ZM34.7995 55.8752C34.7404 55.5795 34.4527 55.3877 34.157 55.4468C33.8612 55.506 33.6694 55.7936 33.7286 56.0894L33.9069 56.9808C33.966 57.2765 34.2537 57.4683 34.5494 57.4091C34.8452 57.35 35.0369 57.0623 34.9778 56.7666L34.7995 55.8752ZM43.0902 53.6604C43.3878 53.6118 43.6685 53.8137 43.7171 54.1113C43.7279 54.1773 43.7379 54.2406 43.7477 54.3014L43.7478 54.3024L43.7478 54.3024C43.8205 54.7583 43.8716 55.0782 44.0231 55.3813C44.158 55.6511 44.0487 55.9791 43.7789 56.114C43.5092 56.2488 43.1812 56.1395 43.0463 55.8698C42.8137 55.4045 42.7358 54.9048 42.6677 54.4673L42.6676 54.467L42.6676 54.4665C42.6581 54.4055 42.6487 54.3456 42.6392 54.2873C42.5906 53.9897 42.7925 53.709 43.0902 53.6604ZM51.085 51.8879C50.8914 51.6567 50.547 51.6262 50.3157 51.8198C50.0845 52.0134 50.054 52.3578 50.2476 52.589C50.7005 53.13 51.1776 53.5671 51.6583 54.0075L51.7235 54.0672C51.9458 54.271 52.2913 54.256 52.495 54.0337C52.6988 53.8114 52.6838 53.466 52.4615 53.2622L52.4129 53.2176C51.9196 52.7656 51.4905 52.3724 51.085 51.8879Z" fill="#FEC047"/>
<path d="M63.777 4.20389C69.687 2.38871 72.5434 4.74168 74.3761 5.90928C73.7417 8.14229 70.51 16.0978 69.0761 19.4119C65.3778 16.01 62.6378 16.0462 58.5643 17.2321C54.4907 18.418 51.5943 16.7543 49.5282 15.6199L54.4783 1.59916C55.5778 2.63306 57.276 6.20059 63.777 4.20389Z" fill="#E2503C"/>
<mask id="mask0_2286_41552" style="mask-type:alpha" maskUnits="userSpaceOnUse" x="49" y="1" width="26" height="19">
<path d="M63.7773 4.20414C69.6873 2.38896 72.5436 4.74193 74.3764 5.90952C73.7419 8.14254 70.76 15.0083 69.3261 18.3224C65.6279 14.9205 64.2433 17.8164 60.1697 19.0023C55.369 20.3999 51.9382 15.5314 49.8721 14.3971L54.4786 1.59941C55.578 2.6333 57.2762 6.20083 63.7773 4.20414Z" fill="#F5F5F5"/>
</mask>
<g mask="url(#mask0_2286_41552)">
<path d="M52.6737 3.93592C54.3388 5.52272 58.3766 7.68361 62.4763 6.19032C67.3751 4.406 71.0369 6.34427 72.9135 7.67426" stroke="#F5F5F5" stroke-linecap="round"/>
<path d="M51.5384 6.88733C53.2035 8.47414 57.2414 10.635 61.3411 9.14174C66.2398 7.35742 69.9017 9.29569 71.7783 10.6257" stroke="#F5F5F5" stroke-linecap="round"/>
<path d="M50.4032 9.83899C52.0682 11.4258 56.1061 13.5867 60.2058 12.0934C65.1045 10.3091 68.7664 12.2474 70.643 13.5773" stroke="#F5F5F5" stroke-linecap="round"/>
<path d="M49.2679 12.7904C50.933 14.3772 54.9709 16.5381 59.0706 15.0448C63.9693 13.2605 67.6312 15.1988 69.5078 16.5287" stroke="#F5F5F5" stroke-linecap="round"/>
<rect width="10.4504" height="10.6148" transform="translate(53.6824 -2.00806) rotate(18.4345)" fill="#00008B"/>
<path d="M51.481 10.1032L54.4783 1.59923C55.5174 2.57629 57.0911 5.81611 62.7478 4.48413C61.8829 7.69743 61.4026 9.85367 60.835 11.3294C57.4521 13.0775 52.707 11.7606 51.481 10.1032Z" fill="#1D88EC"/>
<path d="M53.8833 1.94564C53.8647 1.97511 53.8943 2.01126 53.9269 1.99883L54.1782 1.90292L54.3503 2.10963C54.3726 2.13641 54.4161 2.11939 54.4144 2.08461L54.4008 1.81595L54.6506 1.71613C54.683 1.70318 54.6803 1.65655 54.6466 1.64746L54.3869 1.57736L54.3773 1.43257C54.2404 1.50063 54.107 1.57573 53.9777 1.65731L54.0267 1.71808L53.8833 1.94564Z" fill="white"/>
<path d="M53.8309 3.36869L53.8486 3.6371L54.1083 3.7072C54.1419 3.71629 54.1446 3.76293 54.1123 3.77588L53.8625 3.8757L53.876 4.14435C53.8778 4.17914 53.8343 4.19613 53.812 4.16938L53.6398 3.96263L53.3885 4.05858C53.356 4.07102 53.3264 4.03486 53.3449 4.00539L53.4883 3.7778L53.3194 3.56842C53.2975 3.54134 53.3228 3.50197 53.3565 3.51051L53.6172 3.57658L53.7642 3.35123C53.7833 3.32209 53.8286 3.33392 53.8309 3.36869Z" fill="white"/>
<path d="M53.2327 5.65238L53.2504 5.9208L53.5101 5.99089C53.5437 5.99998 53.5465 6.04662 53.5141 6.05957L53.2643 6.15939L53.2779 6.42804C53.2796 6.46283 53.2361 6.47982 53.2138 6.45307L53.0417 6.24636L52.7904 6.34227C52.7579 6.35467 52.7282 6.31855 52.7468 6.28908L52.8902 6.06149L52.7213 5.85211C52.6994 5.82503 52.7246 5.78566 52.7584 5.7942L53.0191 5.86027L53.166 5.63493C53.1852 5.60578 53.2304 5.61761 53.2327 5.65238Z" fill="white"/>
<path d="M52.6841 7.75125L52.7019 8.01967L52.9615 8.08977C52.9952 8.09886 52.9979 8.1455 52.9656 8.15845L52.7157 8.25827L52.7293 8.52692C52.7311 8.56171 52.6876 8.57869 52.6652 8.55194L52.4931 8.3452L52.2418 8.44115C52.2093 8.45355 52.1796 8.41743 52.1982 8.38796L52.3416 8.16037L52.1727 7.95099C52.1508 7.9239 52.176 7.88453 52.2098 7.89308L52.4705 7.95914L52.6174 7.7338C52.6366 7.70466 52.6818 7.71649 52.6841 7.75125Z" fill="white"/>
<path d="M52.1841 9.66068L52.2019 9.9291L52.4615 9.9992C52.4952 10.0083 52.4979 10.0549 52.4656 10.0679L52.2157 10.1677L52.2293 10.4363C52.2311 10.4711 52.1876 10.4881 52.1652 10.4614L51.9931 10.2547L51.7418 10.3506C51.7093 10.363 51.6796 10.3269 51.6982 10.2974L51.8416 10.0698L51.6727 9.86041C51.6508 9.83333 51.676 9.79396 51.7098 9.8025L51.9705 9.86857L52.1174 9.64323C52.1366 9.61408 52.1818 9.62592 52.1841 9.66068Z" fill="white"/>
<path d="M55.1166 2.54663L55.1344 2.81505L55.394 2.88515C55.4277 2.89424 55.4304 2.94088 55.3981 2.95379L55.1483 3.05361L55.1618 3.32226C55.1636 3.35705 55.1201 3.37407 55.0978 3.34728L54.9257 3.14056L54.6744 3.23651C54.6418 3.24895 54.6122 3.21279 54.6308 3.18332L54.7742 2.95573L54.6053 2.74636C54.5834 2.71928 54.6087 2.67991 54.6424 2.68849L54.9031 2.75455L55.0501 2.52921C55.0691 2.50004 55.1143 2.51187 55.1166 2.54663Z" fill="white"/>
<path d="M54.5191 4.83083L54.5368 5.09925L54.7965 5.16935C54.8301 5.17844 54.8328 5.22508 54.8005 5.23803L54.5507 5.33785L54.5642 5.6065C54.566 5.64129 54.5225 5.65831 54.5002 5.63152L54.328 5.42478L54.0767 5.52073C54.0442 5.53317 54.0146 5.49701 54.0331 5.46754L54.1765 5.23995L54.0076 5.03058C53.9858 5.00349 54.011 4.96412 54.0447 4.97267L54.3055 5.03873L54.4524 4.81339C54.4715 4.78424 54.5168 4.79607 54.5191 4.83083Z" fill="white"/>
<path d="M53.9512 7.00073L53.9689 7.26915L54.2286 7.33924C54.2622 7.34833 54.265 7.39497 54.2326 7.40792L53.9828 7.50774L53.9964 7.77639C53.9981 7.81118 53.9546 7.82817 53.9323 7.80142L53.7602 7.59467L53.5088 7.69062C53.4763 7.70306 53.4467 7.6669 53.4652 7.63743L53.6087 7.40984L53.4398 7.20047C53.4179 7.17339 53.4431 7.13402 53.4769 7.14256L53.7376 7.20863L53.8845 6.98328C53.9037 6.95417 53.9489 6.966 53.9512 7.00073Z" fill="white"/>
<path d="M53.4414 8.94949L53.4591 9.21791L53.7188 9.288C53.7524 9.29709 53.7552 9.34373 53.7228 9.35668L53.473 9.4565L53.4866 9.72516C53.4883 9.75994 53.4448 9.77697 53.4225 9.75018L53.2504 9.54347L52.9991 9.63938C52.9665 9.65182 52.9369 9.61566 52.9555 9.58619L53.0989 9.3586L52.93 9.14923C52.9081 9.12215 52.9334 9.08278 52.9671 9.09132L53.2278 9.15739L53.3748 8.93204C53.3939 8.90289 53.4391 8.91472 53.4414 8.94949Z" fill="white"/>
<path d="M56.374 1.83349L56.3918 2.10191L56.6515 2.17201C56.6851 2.18109 56.6878 2.22773 56.6555 2.24064L56.4057 2.34047L56.4192 2.60912C56.421 2.64391 56.3775 2.66089 56.3552 2.63414L56.183 2.4274L55.9317 2.52334C55.8992 2.53579 55.8695 2.49963 55.8881 2.47015L56.0315 2.24257L55.8626 2.0332C55.8408 2.00611 55.866 1.96674 55.8997 1.97532L56.1605 2.04139L56.3074 1.81605C56.3265 1.78693 56.3717 1.79877 56.374 1.83349Z" fill="white"/>
<path d="M55.8352 3.89309L55.8529 4.16151L56.1126 4.23161C56.1462 4.24069 56.149 4.28733 56.1166 4.30028L55.8668 4.4001L55.8804 4.66876C55.8821 4.70354 55.8386 4.72053 55.8163 4.69378L55.6442 4.48704L55.3929 4.58298C55.3603 4.59542 55.3307 4.55927 55.3493 4.52979L55.4927 4.30221L55.3238 4.09284C55.3019 4.06575 55.3272 4.02638 55.3609 4.03492L55.6216 4.10099L55.7686 3.87565C55.7877 3.84649 55.8329 3.85833 55.8352 3.89309Z" fill="white"/>
<path d="M55.2371 6.17678L55.2548 6.4452L55.5145 6.5153C55.5481 6.52438 55.5508 6.57102 55.5185 6.58397L55.2687 6.68379L55.2823 6.95245C55.284 6.98723 55.2405 7.00422 55.2182 6.97747L55.046 6.77076L54.7947 6.86667C54.7622 6.87908 54.7326 6.84296 54.7511 6.81348L54.8945 6.5859L54.7257 6.37653C54.7038 6.34944 54.729 6.31007 54.7628 6.31861L55.0235 6.38468L55.1704 6.15934C55.1896 6.13018 55.2348 6.14202 55.2371 6.17678Z" fill="white"/>
<path d="M54.6887 8.27566L54.7065 8.54408L54.9661 8.61418C54.9998 8.62326 55.0025 8.6699 54.9702 8.68285L54.7203 8.78267L54.7339 9.05133C54.7357 9.08611 54.6922 9.1031 54.6698 9.07635L54.4977 8.8696L54.2464 8.96555C54.2139 8.97795 54.1842 8.94183 54.2028 8.91236L54.3462 8.68477L54.1773 8.4754C54.1555 8.44832 54.1807 8.40895 54.2144 8.41749L54.4752 8.48356L54.6221 8.25822C54.6412 8.22906 54.6864 8.2409 54.6887 8.27566Z" fill="white"/>
<path d="M54.1885 10.1851L54.2062 10.4535L54.4659 10.5236C54.4995 10.5327 54.5023 10.5793 54.4699 10.5923L54.2201 10.6921L54.2337 10.9607C54.2354 10.9955 54.1919 11.0125 54.1696 10.9858L53.9975 10.7791L53.7461 10.875C53.7136 10.8874 53.684 10.8513 53.7025 10.8218L53.8459 10.5942L53.6771 10.3848C53.6552 10.3577 53.6804 10.3184 53.7142 10.3269L53.9749 10.393L54.1218 10.1676C54.141 10.1385 54.1862 10.1503 54.1885 10.1851Z" fill="white"/>
<path d="M57.1216 3.07132L57.1394 3.33974L57.399 3.40984C57.4327 3.41892 57.4354 3.46557 57.403 3.47847L57.1533 3.5783L57.1668 3.84695C57.1686 3.88174 57.1251 3.89876 57.1028 3.87197L56.9306 3.66523L56.6793 3.76118C56.6468 3.77362 56.6171 3.73746 56.6357 3.70799L56.7791 3.4804L56.6102 3.27102C56.5883 3.24393 56.6135 3.20456 56.6473 3.21315L56.9081 3.27922L57.055 3.05388C57.0741 3.02474 57.1193 3.03656 57.1216 3.07132Z" fill="white"/>
<path d="M56.5235 5.35501L56.5412 5.62343L56.8009 5.69353C56.8345 5.70262 56.8373 5.74926 56.8049 5.7622L56.5551 5.86203L56.5687 6.13068C56.5704 6.16547 56.5269 6.18249 56.5046 6.1557L56.3325 5.94896L56.0811 6.04491C56.0486 6.05735 56.019 6.02119 56.0375 5.99172L56.1809 5.76413L56.012 5.55475C55.9902 5.52766 56.0154 5.48829 56.0492 5.49685L56.3099 5.56291L56.4568 5.33757C56.476 5.30843 56.5212 5.32025 56.5235 5.35501Z" fill="white"/>
<path d="M55.9556 7.52515L55.9733 7.79357L56.233 7.86367C56.2666 7.87275 56.2694 7.91939 56.237 7.93233L55.9872 8.03216L56.0008 8.30082C56.0026 8.3356 55.9591 8.35259 55.9367 8.32584L55.7646 8.1191L55.5133 8.21504C55.4807 8.22748 55.4511 8.19132 55.4697 8.16185L55.6131 7.93427L55.4442 7.72489C55.4223 7.6978 55.4475 7.65843 55.4813 7.66698L55.742 7.73305L55.889 7.50771C55.9081 7.4786 55.9533 7.49043 55.9556 7.52515Z" fill="white"/>
<path d="M55.4456 9.47415L55.4633 9.74257L55.723 9.81267C55.7566 9.82176 55.7594 9.8684 55.727 9.88134L55.4772 9.98117L55.4908 10.2498C55.4925 10.2846 55.449 10.3016 55.4267 10.2748L55.2546 10.0681L55.0033 10.164C54.9707 10.1765 54.9411 10.1403 54.9597 10.1109L55.1031 9.88327L54.9342 9.67389C54.9123 9.6468 54.9375 9.60743 54.9713 9.61599L55.232 9.68205L55.3789 9.45671C55.3981 9.42757 55.4433 9.43939 55.4456 9.47415Z" fill="white"/>
<path d="M58.3784 2.35815L58.3962 2.62657L58.6558 2.69667C58.6895 2.70575 58.6922 2.75239 58.6598 2.76529L58.4101 2.86512L58.4236 3.13378C58.4254 3.16856 58.3819 3.18555 58.3596 3.1588L58.1874 2.95206L57.9361 3.048C57.9036 3.06044 57.8739 3.02428 57.8925 2.99481L58.0359 2.76723L57.867 2.55786C57.8452 2.53077 57.8704 2.4914 57.9042 2.49999L58.1649 2.56606L58.3118 2.34072C58.3309 2.3116 58.3761 2.32342 58.3784 2.35815Z" fill="white"/>
<path d="M57.8398 4.41725L57.8575 4.68567L58.1172 4.75577C58.1508 4.76486 58.1536 4.8115 58.1212 4.82444L57.8714 4.92427L57.885 5.19289C57.8868 5.22768 57.8433 5.24467 57.821 5.21791L57.6488 5.01117L57.3975 5.10712C57.365 5.11956 57.3354 5.0834 57.3539 5.05393L57.4973 4.82634L57.3284 4.61697C57.3066 4.58989 57.3318 4.55052 57.3656 4.55907L57.6263 4.62514L57.7732 4.39979C57.7923 4.37067 57.8375 4.38249 57.8398 4.41725Z" fill="white"/>
<path d="M57.2422 6.70144L57.2599 6.96986L57.5196 7.03996C57.5532 7.04904 57.556 7.09568 57.5236 7.10862L57.2738 7.20845L57.2874 7.47711C57.2891 7.51189 57.2456 7.52888 57.2233 7.50213L57.0512 7.29542L56.7999 7.39133C56.7673 7.40373 56.7377 7.36761 56.7563 7.33814L56.8997 7.11055L56.7308 6.90118C56.7089 6.8741 56.7341 6.83473 56.7679 6.84328L57.0287 6.90935L57.1756 6.68401C57.1947 6.65485 57.2399 6.66668 57.2422 6.70144Z" fill="white"/>
<path d="M56.6931 8.80007L56.7109 9.06849L56.9705 9.13859C57.0041 9.14767 57.0069 9.19432 56.9745 9.20725L56.7247 9.30708L56.7383 9.57574C56.7401 9.61053 56.6966 9.62751 56.6742 9.60076L56.5021 9.39402L56.2508 9.48996C56.2183 9.50237 56.1886 9.46625 56.2072 9.43677L56.3506 9.20919L56.1817 8.99982C56.1599 8.97273 56.1851 8.93336 56.2188 8.94191L56.4796 9.00798L56.6265 8.78264C56.6456 8.75348 56.6908 8.76531 56.6931 8.80007Z" fill="white"/>
<path d="M56.1931 10.7095L56.2109 10.9779L56.4705 11.048C56.5041 11.0571 56.5069 11.1037 56.4745 11.1167L56.2247 11.2165L56.2383 11.4852C56.2401 11.5199 56.1966 11.5369 56.1742 11.5102L56.0021 11.3035L55.7508 11.3994C55.7183 11.4118 55.6886 11.3757 55.7072 11.3462L55.8506 11.1186L55.6817 10.9092C55.6599 10.8822 55.6851 10.8428 55.7188 10.8513L55.9796 10.9174L56.1265 10.6921C56.1456 10.6629 56.1908 10.6747 56.1931 10.7095Z" fill="white"/>
<path d="M59.1263 3.59574L59.144 3.86416L59.4037 3.93425C59.4373 3.94334 59.44 3.98998 59.4077 4.00288L59.1579 4.1027L59.1714 4.37136C59.1732 4.40614 59.1296 4.42316 59.1074 4.39638L58.9352 4.18963L58.6839 4.28558C58.6514 4.29802 58.6217 4.26186 58.6403 4.23239L58.7837 4.0048L58.6148 3.79543C58.593 3.76835 58.6182 3.72898 58.6519 3.73756L58.9127 3.80363L59.0596 3.57828C59.0788 3.54915 59.124 3.56097 59.1263 3.59574Z" fill="white"/>
<path d="M58.5281 5.87943L58.5459 6.14785L58.8055 6.21795C58.8391 6.22703 58.8419 6.27367 58.8095 6.28661L58.5597 6.38643L58.5733 6.65509C58.575 6.68987 58.5315 6.70689 58.5092 6.68011L58.3371 6.47336L58.0857 6.56931C58.0532 6.58175 58.0236 6.54559 58.0421 6.51612L58.1855 6.28853L58.0167 6.07916C57.9948 6.05208 58.02 6.01271 58.0538 6.02125L58.3145 6.08732L58.4614 5.86198C58.4806 5.83284 58.5258 5.84467 58.5281 5.87943Z" fill="white"/>
<path d="M57.9608 8.04981L57.9785 8.31823L58.2382 8.38833C58.2718 8.39741 58.2745 8.44405 58.2421 8.45699L57.9923 8.55681L58.0059 8.82547C58.0076 8.86025 57.9641 8.87723 57.9418 8.85049L57.7697 8.64374L57.5184 8.73969C57.4858 8.75213 57.4562 8.71597 57.4748 8.6865L57.6182 8.45891L57.4493 8.24955C57.4274 8.22246 57.4526 8.18309 57.4864 8.19163L57.7471 8.2577L57.8941 8.03236C57.9133 8.00326 57.9585 8.01508 57.9608 8.04981Z" fill="white"/>
<path d="M57.4505 9.99832L57.4682 10.2667L57.7279 10.3368C57.7615 10.3459 57.7643 10.3926 57.7319 10.4055L57.4821 10.5053L57.4956 10.774C57.4974 10.8088 57.4538 10.8258 57.4316 10.799L57.2594 10.5923L57.0081 10.6882C56.9756 10.7006 56.9459 10.6645 56.9645 10.635L57.1079 10.4074L56.939 10.1981C56.9172 10.171 56.9424 10.1316 56.9761 10.1401L57.2369 10.2062L57.3838 9.98087C57.403 9.95174 57.4482 9.96356 57.4505 9.99832Z" fill="white"/>
<path d="M60.3832 2.88258L60.4009 3.151L60.6606 3.2211C60.6942 3.23018 60.6969 3.27683 60.6646 3.28973L60.4147 3.38955L60.4283 3.6582C60.4301 3.69299 60.3865 3.70996 60.3642 3.68322L60.1921 3.47648L59.9408 3.57243C59.9082 3.58487 59.8786 3.54871 59.8972 3.51924L60.0406 3.29165L59.8717 3.08227C59.8498 3.05518 59.875 3.01581 59.9088 3.0244L60.1695 3.09047L60.3165 2.86513C60.3357 2.83603 60.3809 2.84786 60.3832 2.88258Z" fill="white"/>
<path d="M59.8446 4.94194L59.8623 5.21036L60.122 5.28046C60.1556 5.28954 60.1583 5.33618 60.126 5.34912L59.8761 5.44894L59.8897 5.7176C59.8915 5.75238 59.8479 5.76936 59.8256 5.74262L59.6535 5.53587L59.4022 5.63182C59.3697 5.64426 59.34 5.6081 59.3586 5.57863L59.502 5.35104L59.3331 5.14166C59.3112 5.11458 59.3364 5.07521 59.3702 5.08376L59.631 5.14983L59.7779 4.92449C59.7971 4.89535 59.8423 4.90717 59.8446 4.94194Z" fill="white"/>
<path d="M59.2469 7.22587L59.2646 7.49429L59.5243 7.56439C59.5579 7.57347 59.5607 7.62012 59.5283 7.63306L59.2785 7.73288L59.2921 8.00153C59.2938 8.03632 59.2503 8.05329 59.228 8.02655L59.0559 7.81985L58.8045 7.91576C58.772 7.92816 58.7424 7.89204 58.7609 7.86256L58.9043 7.63498L58.7354 7.4256C58.7136 7.39851 58.7388 7.35914 58.7726 7.36769L59.0333 7.43376L59.1802 7.20842C59.1994 7.17929 59.2446 7.19111 59.2469 7.22587Z" fill="white"/>
<path d="M58.6978 9.32451L58.7156 9.59292L58.9753 9.66302C59.0089 9.67211 59.0116 9.71875 58.9792 9.73169L58.7294 9.83151L58.743 10.1002C58.7447 10.1349 58.7012 10.1519 58.6789 10.1252L58.5068 9.91844L58.2555 10.0144C58.2229 10.0268 58.1933 9.99067 58.2119 9.9612L58.3553 9.73361L58.1863 9.52423C58.1645 9.49715 58.1897 9.45778 58.2235 9.46633L58.4842 9.5324L58.6311 9.30705C58.6504 9.27792 58.6956 9.28974 58.6978 9.32451Z" fill="white"/>
<path d="M58.1983 11.2342L58.2161 11.5026L58.4757 11.5727C58.5093 11.5818 58.5121 11.6284 58.4797 11.6414L58.2299 11.7412L58.2435 12.0098C58.2452 12.0446 58.2017 12.0616 58.1794 12.0349L58.0073 11.8281L57.7559 11.9241C57.7234 11.9365 57.6938 11.9003 57.7123 11.8709L57.8558 11.6433L57.6868 11.4339C57.665 11.4068 57.6902 11.3674 57.724 11.376L57.9847 11.4421L58.1316 11.2167C58.1508 11.1876 58.196 11.1994 58.1983 11.2342Z" fill="white"/>
<path d="M61.1307 4.12039L61.1484 4.38881L61.4081 4.45892C61.4417 4.46801 61.4445 4.51465 61.4121 4.52755L61.1623 4.62737L61.1759 4.89602C61.1776 4.93081 61.1341 4.94782 61.1118 4.92104L60.9397 4.7143L60.6883 4.81025C60.6558 4.82269 60.6262 4.78653 60.6447 4.75706L60.7881 4.52947L60.6192 4.32009C60.5974 4.29301 60.6226 4.25364 60.6563 4.26222L60.9171 4.32829L61.064 4.10295C61.0832 4.07381 61.1284 4.08563 61.1307 4.12039Z" fill="white"/>
<path d="M60.533 6.40433L60.5507 6.67275L60.8105 6.74286C60.8441 6.75194 60.8468 6.79858 60.8144 6.81152L60.5646 6.91134L60.5782 7.18C60.5799 7.21479 60.5364 7.2318 60.5141 7.20502L60.342 6.99828L60.0907 7.09422C60.0581 7.10667 60.0285 7.07051 60.0471 7.04103L60.1905 6.81345L60.0216 6.60407C59.9997 6.57698 60.0249 6.53761 60.0587 6.54615L60.3194 6.61223L60.4663 6.38689C60.4855 6.35774 60.5307 6.36957 60.533 6.40433Z" fill="white"/>
<path d="M59.9654 8.57422L59.9831 8.84264L60.2428 8.91275C60.2764 8.92183 60.2792 8.96848 60.2468 8.98141L59.997 9.08124L60.0106 9.34989C60.0123 9.38468 59.9688 9.40165 59.9465 9.37491L59.7744 9.16817L59.523 9.26412C59.4905 9.27656 59.4609 9.2404 59.4794 9.21093L59.6228 8.98334L59.4539 8.77396C59.4321 8.74687 59.4573 8.7075 59.491 8.71604L59.7518 8.78212L59.8987 8.55678C59.9179 8.52768 59.9631 8.5395 59.9654 8.57422Z" fill="white"/>
<path d="M59.4556 10.5232L59.4733 10.7916L59.7331 10.8618C59.7667 10.8708 59.7694 10.9175 59.737 10.9304L59.4872 11.0302L59.5008 11.2989C59.5025 11.3337 59.459 11.3507 59.4367 11.3239L59.2646 11.1172L59.0133 11.2131C58.9807 11.2256 58.9511 11.1894 58.9697 11.1599L59.1131 10.9323L58.9442 10.723C58.9223 10.6959 58.9475 10.6565 58.9813 10.665L59.242 10.7311L59.389 10.5058C59.4081 10.4766 59.4533 10.4885 59.4556 10.5232Z" fill="white"/>
<path d="M62.3882 3.40699L62.406 3.67541L62.6657 3.7455C62.6993 3.75459 62.702 3.80123 62.6697 3.81414L62.4199 3.91396L62.4334 4.18262C62.4352 4.2174 62.3916 4.23438 62.3694 4.20764L62.1972 4.00089L61.9459 4.09684C61.9134 4.10928 61.8837 4.07312 61.9023 4.04365L62.0457 3.81606L61.8768 3.60668C61.8549 3.5796 61.8801 3.54023 61.9139 3.54881L62.1746 3.61488L62.3215 3.38953C62.3408 3.36044 62.3859 3.37226 62.3882 3.40699Z" fill="white"/>
<path d="M61.8494 5.46683L61.8671 5.73525L62.1268 5.80535C62.1604 5.81443 62.1632 5.86107 62.1308 5.87402L61.881 5.97384L61.8946 6.2425C61.8963 6.27729 61.8528 6.29426 61.8305 6.26752L61.6584 6.06078L61.4071 6.15672C61.3745 6.16917 61.3449 6.13301 61.3635 6.10353L61.5069 5.87595L61.338 5.66657C61.3161 5.63948 61.3413 5.60011 61.3751 5.60865L61.6358 5.67472L61.7827 5.44938C61.8019 5.42024 61.8471 5.43207 61.8494 5.46683Z" fill="white"/>
<path d="M61.2513 7.75052L61.269 8.01894L61.5287 8.08904C61.5623 8.09812 61.565 8.14476 61.5327 8.15771L61.2829 8.25753L61.2965 8.52619C61.2982 8.56098 61.2547 8.57795 61.2324 8.55121L61.0602 8.34451L60.8089 8.44041C60.7764 8.45282 60.7468 8.4167 60.7653 8.38722L60.9087 8.15964L60.7398 7.95026C60.718 7.92317 60.7432 7.8838 60.7769 7.89234L61.0377 7.95841L61.1846 7.73307C61.2038 7.70393 61.249 7.71576 61.2513 7.75052Z" fill="white"/>
<path d="M60.7029 9.84915L60.7207 10.1176L60.9803 10.1877C61.014 10.1968 61.0167 10.2434 60.9844 10.2563L60.7345 10.3562L60.7481 10.6248C60.7499 10.6596 60.7063 10.6766 60.684 10.6498L60.5119 10.4431L60.2606 10.539C60.2281 10.5514 60.1984 10.5153 60.217 10.4859L60.3604 10.2583L60.1915 10.0489C60.1696 10.0218 60.1948 9.98243 60.2286 9.99098L60.4893 10.057L60.6362 9.8317C60.6555 9.80257 60.7006 9.81439 60.7029 9.84915Z" fill="white"/>
<path d="M60.2027 11.7586L60.2204 12.027L60.4801 12.0971C60.5137 12.1062 60.5165 12.1528 60.4841 12.1658L60.2343 12.2656L60.2479 12.5342C60.2496 12.569 60.2061 12.586 60.1838 12.5593L60.0117 12.3526L59.7603 12.4485C59.7278 12.4609 59.6982 12.4248 59.7167 12.3953L59.8601 12.1677L59.6912 11.9583C59.6694 11.9312 59.6946 11.8919 59.7283 11.9004L59.9891 11.9665L60.136 11.7411C60.1552 11.712 60.2004 11.7238 60.2027 11.7586Z" fill="white"/>
</g>
<path d="M74.1167 5.42651L65.3716 31.3225" stroke="#DDDDDD" stroke-linecap="round"/>
<defs>
<linearGradient id="paint0_linear_2286_41552" x1="65.6268" y1="29.9623" x2="72.7441" y2="22.3782" gradientUnits="userSpaceOnUse">
<stop stop-color="#989899"/>
<stop offset="1" stop-color="#B1A579"/>
</linearGradient>
<linearGradient id="paint1_linear_2286_41552" x1="5.5" y1="28.0001" x2="17.4851" y2="49.2041" gradientUnits="userSpaceOnUse">
<stop stop-color="#989899"/>
<stop offset="1" stop-color="#B1A579"/>
</linearGradient>
<linearGradient id="paint2_linear_2286_41552" x1="31.0474" y1="58.6056" x2="42.8604" y2="8.16706" gradientUnits="userSpaceOnUse">
<stop stop-color="#DADADA"/>
<stop offset="1" stop-color="#FFE047"/>
</linearGradient>
</defs>
</svg>
