<svg width="80" height="70" viewBox="0 0 80 70" fill="none" xmlns="http://www.w3.org/2000/svg">
<path d="M64 36.4327C64 47.274 53.2548 56 40 56C26.7452 56 16 46.7452 16 36.4327C16 21.2449 26.7452 1 40 1C53.2548 1 64 21.2449 64 36.4327Z" fill="#FEFFFF"/>
<mask id="mask0_2286_41548" style="mask-type:alpha" maskUnits="userSpaceOnUse" x="16" y="1" width="48" height="55">
<path d="M64 36.4327C64 47.274 53.2548 56 40 56C26.7452 56 16 46.7452 16 36.4327C16 21.2449 26.7452 1 40 1C53.2548 1 64 21.2449 64 36.4327Z" fill="#FEFFFF"/>
</mask>
<g mask="url(#mask0_2286_41548)">
<rect x="15" y="-5" width="50" height="31" fill="url(#paint0_linear_2286_41548)"/>
<mask id="mask1_2286_41548" style="mask-type:alpha" maskUnits="userSpaceOnUse" x="15" y="-5" width="50" height="31">
<rect x="15" y="-5" width="50" height="31" fill="#2766C5"/>
</mask>
<g mask="url(#mask1_2286_41548)">
<path fill-rule="evenodd" clip-rule="evenodd" d="M19.9028 -4L20.352 -2.61755H21.8056L20.6296 -1.76315L21.0788 -0.380702L19.9028 -1.2351L18.7268 -0.380702L19.176 -1.76315L18 -2.61755H19.4536L19.9028 -4ZM26.5718 -4L27.021 -2.61755H28.4746L27.2986 -1.76315L27.7478 -0.380702L26.5718 -1.2351L25.3958 -0.380702L25.845 -1.76315L24.669 -2.61755H26.1226L26.5718 -4ZM33.69 -2.61755L33.2408 -4L32.7916 -2.61755H31.338L32.514 -1.76315L32.0648 -0.380702L33.2408 -1.2351L34.4167 -0.380702L33.9676 -1.76315L35.1435 -2.61755H33.69ZM39.9098 -4L40.3589 -2.61755H41.8125L40.6366 -1.76315L41.0857 -0.380702L39.9098 -1.2351L38.7338 -0.380702L39.183 -1.76315L38.007 -2.61755H39.4606L39.9098 -4ZM47.0279 -2.61755L46.5788 -4L46.1296 -2.61755H44.676L45.852 -1.76315L45.4028 -0.380702L46.5788 -1.2351L47.7547 -0.380702L47.3056 -1.76315L48.4815 -2.61755H47.0279ZM53.2478 -4L53.6969 -2.61755H55.1505L53.9745 -1.76315L54.4237 -0.380702L53.2478 -1.2351L52.0718 -0.380702L52.521 -1.76315L51.345 -2.61755H52.7986L53.2478 -4ZM60.3659 -2.61755L59.9167 -4L59.4676 -2.61755H58.014L59.19 -1.76315L58.7408 -0.380702L59.9167 -1.2351L61.0927 -0.380702L60.6435 -1.76315L61.8195 -2.61755H60.3659ZM19.9028 20.5419L20.352 21.9244H21.8056L20.6296 22.7788L21.0788 24.1612L19.9028 23.3068L18.7268 24.1612L19.176 22.7788L18 21.9244H19.4536L19.9028 20.5419ZM27.021 21.9244L26.5718 20.5419L26.1226 21.9244H24.669L25.845 22.7788L25.3958 24.1612L26.5718 23.3068L27.7478 24.1612L27.2986 22.7788L28.4746 21.9244H27.021ZM33.2408 20.5419L33.69 21.9244H35.1435L33.9676 22.7788L34.4167 24.1612L33.2408 23.3068L32.0648 24.1612L32.514 22.7788L31.338 21.9244H32.7916L33.2408 20.5419ZM40.3589 21.9244L39.9098 20.5419L39.4606 21.9244H38.007L39.183 22.7788L38.7338 24.1612L39.9098 23.3068L41.0857 24.1612L40.6366 22.7788L41.8125 21.9244H40.3589ZM46.5788 20.5419L47.0279 21.9244H48.4815L47.3056 22.7788L47.7547 24.1612L46.5788 23.3068L45.4028 24.1612L45.852 22.7788L44.676 21.9244H46.1296L46.5788 20.5419ZM53.6969 21.9244L53.2478 20.5419L52.7986 21.9244H51.345L52.521 22.7788L52.0718 24.1612L53.2478 23.3068L54.4237 24.1612L53.9745 22.7788L55.1505 21.9244H53.6969ZM59.9167 20.5419L60.3659 21.9244H61.8195L60.6435 22.7788L61.0927 24.1612L59.9167 23.3068L58.7408 24.1612L59.19 22.7788L58.014 21.9244H59.4676L59.9167 20.5419ZM20.352 9.6534L19.9028 8.27095L19.4536 9.6534H18L19.176 10.5078L18.7268 11.8902L19.9028 11.0358L21.0788 11.8902L20.6296 10.5078L21.8056 9.6534H20.352ZM26.5718 8.27095L27.021 9.6534H28.4746L27.2986 10.5078L27.7478 11.8902L26.5718 11.0358L25.3958 11.8902L25.845 10.5078L24.669 9.6534H26.1226L26.5718 8.27095ZM33.69 9.6534L33.2408 8.27095L32.7916 9.6534H31.338L32.514 10.5078L32.0648 11.8902L33.2408 11.0358L34.4167 11.8902L33.9676 10.5078L35.1435 9.6534H33.69ZM39.9098 8.27095L40.3589 9.6534H41.8125L40.6366 10.5078L41.0857 11.8902L39.9098 11.0358L38.7338 11.8902L39.183 10.5078L38.007 9.6534H39.4606L39.9098 8.27095ZM47.0279 9.6534L46.5788 8.27095L46.1296 9.6534H44.676L45.852 10.5078L45.4028 11.8902L46.5788 11.0358L47.7547 11.8902L47.3056 10.5078L48.4815 9.6534H47.0279ZM53.2478 8.27095L53.6969 9.6534H55.1505L53.9745 10.5078L54.4237 11.8902L53.2478 11.0358L52.0718 11.8902L52.521 10.5078L51.345 9.6534H52.7986L53.2478 8.27095ZM60.3659 9.6534L59.9167 8.27095L59.4676 9.6534H58.014L59.19 10.5078L58.7408 11.8902L59.9167 11.0358L61.0927 11.8902L60.6435 10.5078L61.8195 9.6534H60.3659ZM24.0021 2.13548L24.4513 3.51792H25.9049L24.7289 4.37232L25.1781 5.75477L24.0021 4.90037L22.8261 5.75477L23.2753 4.37232L22.0993 3.51792H23.5529L24.0021 2.13548ZM31.1203 3.51792L30.6711 2.13548L30.2219 3.51792H28.7683L29.9443 4.37232L29.4951 5.75477L30.6711 4.90037L31.8471 5.75477L31.3979 4.37232L32.5739 3.51792H31.1203ZM37.3401 2.13548L37.7893 3.51792H39.2429L38.0669 4.37232L38.5161 5.75477L37.3401 4.90037L36.1641 5.75477L36.6133 4.37232L35.4373 3.51792H36.8909L37.3401 2.13548ZM44.4583 3.51792L44.0091 2.13548L43.5599 3.51792H42.1063L43.2823 4.37232L42.8331 5.75477L44.0091 4.90037L45.1851 5.75477L44.7359 4.37232L45.9119 3.51792H44.4583ZM50.6781 2.13548L51.1273 3.51792H52.5809L51.4049 4.37232L51.8541 5.75477L50.6781 4.90037L49.5021 5.75477L49.9513 4.37232L48.7753 3.51792H50.2289L50.6781 2.13548ZM57.7963 3.51792L57.3471 2.13548L56.8979 3.51792H55.4443L56.6203 4.37232L56.1711 5.75477L57.3471 4.90037L58.5231 5.75477L58.0739 4.37232L59.2499 3.51792H57.7963ZM64.0161 2.13548L64.4653 3.51792H65.9189L64.7429 4.37232L65.1921 5.75477L64.0161 4.90037L62.8401 5.75477L63.2893 4.37232L62.1133 3.51792H63.5669L64.0161 2.13548ZM24.4513 15.7889L24.0021 14.4064L23.5529 15.7889H22.0993L23.2753 16.6433L22.8261 18.0257L24.0021 17.1713L25.1781 18.0257L24.7289 16.6433L25.9049 15.7889H24.4513ZM30.6711 14.4064L31.1203 15.7889H32.5739L31.3979 16.6433L31.8471 18.0257L30.6711 17.1713L29.4951 18.0257L29.9443 16.6433L28.7683 15.7889H30.2219L30.6711 14.4064ZM37.7893 15.7889L37.3401 14.4064L36.8909 15.7889H35.4373L36.6133 16.6433L36.1641 18.0257L37.3401 17.1713L38.5161 18.0257L38.0669 16.6433L39.2429 15.7889H37.7893ZM44.0091 14.4064L44.4583 15.7889H45.9119L44.7359 16.6433L45.1851 18.0257L44.0091 17.1713L42.8331 18.0257L43.2823 16.6433L42.1063 15.7889H43.5599L44.0091 14.4064ZM51.1273 15.7889L50.6781 14.4064L50.2289 15.7889H48.7753L49.9513 16.6433L49.5021 18.0257L50.6781 17.1713L51.8541 18.0257L51.4049 16.6433L52.5809 15.7889H51.1273ZM57.3471 14.4064L57.7963 15.7889H59.2499L58.0739 16.6433L58.5231 18.0257L57.3471 17.1713L56.1711 18.0257L56.6203 16.6433L55.4443 15.7889H56.8979L57.3471 14.4064ZM64.4653 15.7889L64.0161 14.4064L63.5669 15.7889H62.1133L63.2893 16.6433L62.8401 18.0257L64.0161 17.1713L65.1921 18.0257L64.7429 16.6433L65.9189 15.7889H64.4653Z" fill="white"/>
</g>
<path fill-rule="evenodd" clip-rule="evenodd" d="M68 30H10V34H68V30ZM68 54H10V58H68V54ZM10 38H68V42H10V38ZM68 46H10V50H68V46Z" fill="#E31E1E"/>
</g>
<path d="M54 52.88C50.4965 55.22 42.6537 56 39.5438 56C28.3972 56 16 47.2845 16 37.573C16 32.1799 17.3475 23.5 21.1206 17C17.9884 38.9132 27.479 52.88 54 52.88Z" fill="black" fill-opacity="0.3"/>
<path fill-rule="evenodd" clip-rule="evenodd" d="M16.642 49.907L17.2929 49.9871C20.9199 50.434 21.459 50.5004 23.588 50.1966C24.8259 50.0199 26.1994 50.308 28.0447 50.695C30.626 51.2364 34.1306 51.9714 39.4791 51.8991C45.1494 51.9451 48.9448 50.7768 51.615 49.9549C52.7981 49.5907 53.7603 49.2945 54.5667 49.2021C57.43 48.8741 58.3558 49.0087 59.4192 49.1633C60.4704 49.3162 61.6561 49.4886 64.9808 49.253C61.5187 49.924 59.2938 49.9542 59.2938 49.9542C62.0249 50.6842 64.7909 53.0906 64.7909 53.0906C64.7909 53.0906 62.6046 51.4955 60.7977 51.6106C64.2481 53.6321 66.2261 55.9948 67.2863 58.4602C68.4699 60.1354 69.1446 61.7737 69.3991 64.6592C69.0744 63.4391 68.6555 62.2758 68.1151 61.232C68.5468 63.6082 68.3394 65.9972 67.9639 68.1963C66.5126 70.8526 20.8838 70.2398 15.6513 68.3424C15.061 66.7907 13.5634 62.5766 16.517 57.4548C15.28 58.5473 14.1852 59.9318 13.2197 61.448C14.6029 58.2755 15.9713 56.8048 18.0978 55.1761C18.8023 54.3112 19.6436 53.4292 20.6442 52.5375C20.6442 52.5375 18.8614 52.4371 17.002 53.5466C16.9041 53.6097 16.8016 53.6746 16.6938 53.7415C16.8635 53.6274 17.0305 53.5206 17.1943 53.4211C17.4715 53.238 17.7114 53.0706 17.9327 52.9162C19.0968 52.104 19.7456 51.6513 22.609 51.1686C19.8824 51.2055 17.641 50.4688 16.642 49.907Z" fill="#ECA75A"/>
<path fill-rule="evenodd" clip-rule="evenodd" d="M59.9998 59.5867C60.5801 53.8575 55.4202 51.3288 51.8071 51.5643C57.4003 52.4672 59.4589 55.9097 59.9998 59.5867ZM20.1782 61.9128C20.5031 61.6723 20.9752 61.1586 21.5956 60.4835C23.748 58.1415 27.6854 53.8573 33.4507 52.3017C26.7516 53.5403 23.116 57.4311 20.1782 61.9128ZM30.5234 56.314L30.5265 56.3126C30.2808 56.5598 29.9445 56.7913 29.5459 57.0656C28.1195 58.0474 25.8962 59.5777 24.182 64.3407C24.7525 60.9745 26.5745 58.0743 30.5234 56.314ZM66.4285 68.2365C66.1383 62.2605 63.2366 57.8573 61.8006 56.3858C62.0139 56.9735 62.3234 57.5402 62.7014 58.2322C63.6561 59.9801 65.0477 62.5278 66.4285 68.2365ZM39.9567 56.1852C38.9705 57.2566 37.7503 59.1294 37.2751 61.2847C36.7993 63.4426 37.0681 65.8975 39.0895 68.1103C38.9578 67.7761 38.8268 67.4602 38.7007 67.156C37.5127 64.2913 36.7568 62.4686 39.9567 56.1852ZM27.9149 67.1349C28.39 64.8678 29.6125 62.8984 30.6007 61.772C29.0416 64.9865 28.4207 67.0912 28.3315 68.7522L27.7169 68.7605C27.7341 68.2064 27.8043 67.6622 27.9149 67.1349ZM46.8783 54.106C50.7009 54.3735 53.0865 60.168 52.9383 62.4626C52.8855 62.325 52.8328 62.1867 52.7799 62.048C51.5391 58.7966 50.2113 55.3173 46.8783 54.106Z" fill="#B7651C"/>
<path fill-rule="evenodd" clip-rule="evenodd" d="M64.7109 51.3826C62.6017 49.5966 60.1003 49.7263 57.952 49.9183C60.712 50.016 62.054 49.748 64.7109 51.3826Z" fill="#FFCA8F"/>
<path fill-rule="evenodd" clip-rule="evenodd" d="M24.0078 51.4453C21.9648 51.9669 19.562 52.4811 17.0527 51.0347C19.594 52.0598 20.8718 51.8795 22.8473 51.6007C23.2071 51.55 23.5899 51.4959 24.0078 51.4453ZM19.6347 58.4457C20.6298 56.166 23.4371 53.0811 27.9845 51.8796C24.5024 52.3838 19.9783 55.4186 19.6347 58.4457ZM49.8113 66.8585C50.7622 64.4866 50.8326 60.6241 47.9838 57.5764C50.4898 59.5585 51.8882 64.1458 49.8113 66.8585ZM57.954 59.7081C57.652 57.9049 56.1368 55.3009 52.9298 53.8991C55.4679 54.6639 58.2939 57.4233 57.954 59.7081ZM32.4776 59.5566C32.7306 57.7459 34.1748 55.1019 37.3427 53.6139C34.8262 54.447 32.076 57.2819 32.4776 59.5566ZM68.7283 58.1923C66.9013 54.0496 64.047 53.4158 61.1496 52.7724C61.007 52.7407 60.8642 52.709 60.7215 52.6769C61.5261 53.048 62.2277 53.3426 62.8557 53.6062L62.8558 53.6063C65.3616 54.6583 66.6956 55.2184 68.7283 58.1923ZM14.6697 58.1493C15.0452 56.4441 15.6222 54.4996 18.9331 53.6876C16.1804 54.7802 15.7464 55.757 15.0753 57.2673C14.9531 57.5423 14.823 57.835 14.6697 58.1493Z" fill="#FFCA8F"/>
<path d="M67.9591 68.1969C66.5042 70.8525 20.7663 70.2415 15.5213 68.3447C15.1728 67.4309 13.9705 63.9382 15.8919 58.9927C25.0271 72.8896 63.966 66.9513 67.8485 60.0115C68.035 61.9754 68.2705 66.378 67.9591 68.1969Z" fill="black" fill-opacity="0.1"/>
<path d="M65 62.5C58.0977 62.4999 54 67.5 53 69.9655L73.5 69.9655C72.8835 68.8216 70.1283 62.5001 65 62.5Z" fill="#E3DFD9"/>
<defs>
<linearGradient id="paint0_linear_2286_41548" x1="36.2766" y1="0.982456" x2="40.1651" y2="25.9743" gradientUnits="userSpaceOnUse">
<stop stop-color="#1D88EC"/>
<stop offset="1" stop-color="#22A8E1"/>
</linearGradient>
</defs>
</svg>
