<svg width="80" height="71" viewBox="0 0 80 71" fill="none" xmlns="http://www.w3.org/2000/svg">
<path d="M40.9638 37.2473C38.7739 38.4011 35.9037 38.1173 32.4122 36.7094C25.8516 34.326 31.3129 35.3488 29.8166 34.3316C23.9014 32.113 25.1004 30.9789 26.5782 30.5671C23.4848 28.4417 20.896 27.9522 21.9428 24.487C22.0975 23.9749 22.4736 23.5546 22.9698 23.3545C31.3971 19.9559 47.0227 31.0686 40.9638 37.2473Z" fill="#FEC047"/>
<ellipse rx="27.8657" ry="4.968" transform="matrix(-0.9997 -0.0245031 -0.0245031 0.9997 45.9594 65.1841)" fill="#262626" fill-opacity="0.05"/>
<path fill-rule="evenodd" clip-rule="evenodd" d="M22.4082 57.8238L21.5789 56.3255C21.3942 55.9916 21.5115 55.5691 21.8411 55.3816C22.1707 55.1942 22.5876 55.3128 22.7724 55.6467L24.4339 58.6486C24.4559 58.6883 24.4736 58.7292 24.4871 58.7708L24.6019 58.8231L30.6165 58.8259C30.994 58.8261 31.3003 59.1369 31.3007 59.52C31.3011 59.9032 30.9954 60.2137 30.6179 60.2135L24.457 60.2106L24.3107 60.2105L24.1772 60.1497L20.3709 58.4158C20.0263 58.2588 19.8719 57.8482 20.0261 57.4986C20.1802 57.1491 20.5845 56.993 20.9291 57.15L22.4082 57.8238Z" fill="#EC8822"/>
<path fill-rule="evenodd" clip-rule="evenodd" d="M24.2489 43.6364C28.9917 26.8192 41.9938 7.83042 63.6011 15.9252C64.6716 13.2647 65.7676 12.4898 66.625 12.8941C67.1223 13.15 66.5033 13.6362 65.6506 14.256C64.9155 14.7683 64.3122 15.4548 63.8827 16.032C63.9508 16.0582 64.019 16.0846 64.0873 16.1113C64.1975 16.1608 64.3063 16.2108 64.4137 16.2614C67.8355 12.2976 69.9699 12.5658 70.696 13.5074C71.0751 13.999 70.2711 14.7711 68.2407 14.9119C66.6501 15.0357 65.3043 15.8118 64.5644 16.3332C64.8503 16.4711 65.1261 16.6132 65.392 16.7592C66.1769 16.3546 67.9723 15.5132 69.2507 15.5587C71.113 15.6703 71.3005 17.3762 69.4912 16.8261C68.0711 16.3692 66.3707 16.6438 65.5272 16.8342C73.1925 21.1377 72.4909 28.8286 71.8124 36.2666C71.3901 40.8959 70.9767 45.4272 72.595 48.9829C72.9258 49.7097 73.1762 50.448 73.3489 51.1915C74.5843 50.2742 75.9203 49.373 76.8507 48.9743C78.9792 48.0621 79.8913 51.1027 78.6751 51.7108C77.7021 52.1973 75.8372 52.927 75.0264 53.2311C76.5467 52.9271 79.5873 52.5015 79.5873 53.2311C79.5873 54.1431 79.2832 55.6634 75.9386 55.3594C75.0627 55.2797 74.2715 55.0894 73.5821 54.8479C72.6619 63.9307 60.6971 72.1787 42.1885 67.6569C30.3541 62.9948 20.9045 55.4947 24.2489 43.6364Z" fill="#FFE047"/>
<path fill-rule="evenodd" clip-rule="evenodd" d="M27.5111 64.9592L26.7127 63.4418C26.535 63.104 26.6612 62.6841 26.9946 62.5037C27.3281 62.3234 27.7424 62.451 27.9201 62.7888L29.5181 65.8259C29.5394 65.8664 29.5564 65.9082 29.5691 65.9506L29.6727 66.0005L42.3825 66.0003C42.76 66.0003 43.0664 66.3109 43.0669 66.6941C43.0674 67.0773 42.7618 67.388 42.3843 67.388L29.5205 67.3882L29.3664 67.3882L29.2272 67.3211L25.4584 65.5056C25.1172 65.3413 24.9715 64.9274 25.1329 64.5812C25.2944 64.2351 25.7019 64.0877 26.0431 64.2521L27.5111 64.9592Z" fill="#EC8822"/>
<path d="M44.3568 16.0484C44.8645 16.382 45.7168 16.937 46.1183 17.4059C46.9283 18.3339 48.2008 18.6521 49.4073 18.3767C50.4952 18.1145 51.6458 18.0362 52.8555 18.1705C58.1572 18.741 61.9031 23.2523 61.2891 28.2266C60.6751 33.2009 55.973 36.6286 50.7271 35.861C48.2908 35.5024 46.2254 34.3463 44.7505 32.7145C43.9614 31.8477 42.8519 31.4054 41.7144 31.6024C40.9043 31.756 40.0889 31.7335 39.2641 31.5635C36.1468 30.8544 34.1259 28.1777 33.9402 24.6791C34.8331 22.8934 40.4878 16.6435 44.3568 16.0484Z" fill="white"/>
<path fill-rule="evenodd" clip-rule="evenodd" d="M42.7694 18.9552C42.3181 18.648 41.4602 19.1423 40.8531 20.0592C40.2461 20.9761 40.1198 21.9685 40.571 22.2757C41.0223 22.5829 41.8802 22.0886 42.4873 21.1717C43.0944 20.2547 43.2207 19.2624 42.7694 18.9552ZM53.4472 22.1706C52.8543 21.767 51.727 22.4165 50.9293 23.6212C50.1317 24.826 49.9657 26.1299 50.5586 26.5335C51.1516 26.9372 52.2789 26.2877 53.0765 25.0829C53.8741 23.8782 54.0401 22.5743 53.4472 22.1706Z" fill="#231F20"/>
<path d="M41.2252 27.1478C41.2252 27.1478 42.7091 27.9283 43.3914 29.02C43.9632 29.8944 45.5162 28.1052 45.2883 27.1234C45.0605 26.1417 41.2252 27.1478 41.2252 27.1478Z" fill="#EC6C22"/>
<path d="M45.524 24.1354C45.524 24.1354 43.4148 23.9773 41.374 26.4451C41.374 26.4451 43.6261 26.5282 44.9459 27.4132C46.0044 28.1052 46.4218 24.6182 45.524 24.1354Z" fill="#EC8822"/>
<path fill-rule="evenodd" clip-rule="evenodd" d="M34.0343 24.6674C35.0737 25.1111 37.1708 26.0063 37.5139 24.5349C37.6664 23.8807 36.8982 22.854 35.4263 22.5107C35.0597 22.7038 34.5609 23.3998 34.178 23.9341C33.9841 24.2046 33.82 24.4336 33.7178 24.5348C33.8059 24.5699 33.9129 24.6155 34.0343 24.6674ZM53.3661 31.727C54.838 32.0702 56.1548 31.8181 56.3074 31.164C56.4599 30.5098 55.3904 29.7013 53.9185 29.3581C52.4467 29.0149 51.1298 29.2669 50.9773 29.9211C50.8248 30.5753 51.8943 31.3838 53.3661 31.727Z" fill="#FFA572"/>
<path fill-rule="evenodd" clip-rule="evenodd" d="M29.4381 36.0548C29.6174 35.8755 29.6174 35.5848 29.4381 35.4055C29.2588 35.2262 28.9681 35.2262 28.7888 35.4055L27.8767 36.3176C27.6974 36.4969 27.6974 36.7876 27.8767 36.9669C28.056 37.1462 28.3467 37.1462 28.526 36.9669L29.4381 36.0548ZM32.7297 36.7807C32.7741 36.531 32.6077 36.2927 32.358 36.2483C32.1084 36.2039 31.87 36.3703 31.8256 36.62C31.7735 36.9134 31.755 37.1959 31.7378 37.4597L31.7325 37.5409C31.7156 37.7939 31.907 38.0127 32.16 38.0295C32.413 38.0464 32.6318 37.855 32.6487 37.602L32.6537 37.5253C32.6716 37.2536 32.6869 37.0214 32.7297 36.7807ZM35.7412 37.0299C35.9921 37.0664 36.166 37.2994 36.1295 37.5504C36.0699 37.9601 36.0471 38.3669 36.0471 38.7909C36.0471 39.0445 35.8416 39.25 35.588 39.25C35.3345 39.25 35.1289 39.0445 35.1289 38.7909C35.1289 38.3338 35.1534 37.8815 35.2208 37.4182C35.2573 37.1673 35.4903 36.9934 35.7412 37.0299ZM41.3556 39.0715C41.3182 38.8207 41.0845 38.6478 40.8337 38.6852C40.5829 38.7226 40.41 38.9563 40.4474 39.2071C40.5072 39.608 40.6109 39.9171 40.7305 40.2519C40.8157 40.4907 41.0785 40.6151 41.3172 40.5299C41.556 40.4446 41.6805 40.1819 41.5952 39.9431C41.4799 39.6202 41.4017 39.3802 41.3556 39.0715ZM47.0534 38.6157C47.3069 38.6157 47.5125 38.8213 47.5125 39.0748V40.2944C47.5125 40.5479 47.3069 40.7535 47.0534 40.7535C46.7998 40.7535 46.5942 40.5479 46.5942 40.2944V39.0748C46.5942 38.8213 46.7998 38.6157 47.0534 38.6157ZM29.2332 42.1444C29.3052 41.9012 29.1666 41.6458 28.9234 41.5737C28.6803 41.5017 28.4248 41.6404 28.3528 41.8835C28.2183 42.3374 28.1597 42.7672 28.1597 43.2335C28.1597 43.487 28.3652 43.6926 28.6188 43.6926C28.8724 43.6926 29.0779 43.487 29.0779 43.2335C29.0779 42.8512 29.125 42.5094 29.2332 42.1444ZM33.5486 42.1672C33.8006 42.1952 33.9822 42.4222 33.9542 42.6742L33.8671 43.4582C33.8391 43.7102 33.6121 43.8918 33.3601 43.8638C33.1081 43.8358 32.9265 43.6088 32.9545 43.3568L33.0416 42.5728C33.0696 42.3208 33.2966 42.1392 33.5486 42.1672ZM38.6581 43.105C38.6354 42.8525 38.4123 42.6662 38.1597 42.6889C37.9072 42.7116 37.7208 42.9347 37.7435 43.1872C37.7747 43.5336 37.8035 43.8799 37.8302 44.2267C37.8496 44.4795 38.0703 44.6687 38.3231 44.6492C38.576 44.6298 38.7651 44.409 38.7457 44.1562C38.7187 43.8057 38.6896 43.4554 38.6581 43.105ZM43.5017 43.384C43.7551 43.3767 43.9665 43.5763 43.9737 43.8298C43.9843 44.199 44.0475 44.5147 44.1277 44.9148L44.1392 44.9724C44.1889 45.221 44.0277 45.4629 43.779 45.5126C43.5304 45.5624 43.2885 45.4011 43.2388 45.1525L43.2237 45.077C43.1463 44.6917 43.0687 44.3055 43.0559 43.856C43.0486 43.6026 43.2482 43.3912 43.5017 43.384ZM26.7229 48.0185C26.7197 47.7649 26.5115 47.562 26.258 47.5652C26.0045 47.5684 25.8015 47.7766 25.8047 48.0301C25.8108 48.5067 25.8508 48.967 25.8901 49.4184L25.8935 49.4578C25.9155 49.7104 26.1381 49.8974 26.3907 49.8754C26.6433 49.8535 26.8303 49.6309 26.8083 49.3783L26.806 49.3522C26.7659 48.8911 26.7285 48.4606 26.7229 48.0185ZM30.4129 48.176C30.6657 48.1567 30.8863 48.3461 30.9055 48.5989C30.9156 48.731 30.9121 48.8723 30.9092 48.9881L30.9085 49.0151C30.9053 49.1471 30.904 49.2522 30.9125 49.3442C30.9211 49.4367 30.9373 49.4811 30.9473 49.4993L30.9483 49.5013C30.9508 49.5061 30.9519 49.5082 30.9667 49.5142C31.2021 49.6083 31.3166 49.8755 31.2225 50.1109C31.1283 50.3464 30.8611 50.4609 30.6257 50.3667C30.1434 50.1738 30.0267 49.7346 29.9982 49.4294C29.9839 49.2758 29.9875 49.1188 29.9905 48.9928L29.9908 48.9832C29.994 48.8506 29.9964 48.7528 29.9899 48.6687C29.9707 48.4158 30.16 48.1953 30.4129 48.176ZM36.2189 48.4218C36.1978 48.1692 35.9759 47.9814 35.7232 48.0024C35.4705 48.0235 35.2828 48.2454 35.3038 48.4981C35.352 49.0758 35.5507 49.4487 35.7468 49.8166L35.7469 49.8167C35.7897 49.897 35.8324 49.9771 35.8734 50.059C35.9868 50.2858 36.2625 50.3778 36.4893 50.2644C36.7161 50.151 36.8081 49.8752 36.6947 49.6484C36.6351 49.5293 36.5813 49.4271 36.5331 49.3355C36.3523 48.9922 36.2503 48.7985 36.2189 48.4218ZM40.5739 48.2668C40.8249 48.2305 41.0578 48.4044 41.0942 48.6554C41.1468 49.0184 41.2365 49.3456 41.3435 49.7307C41.4113 49.9751 41.2683 50.2281 41.024 50.296C40.7797 50.3639 40.5266 50.2208 40.4587 49.9765C40.3533 49.597 40.2476 49.2161 40.1854 48.7871C40.149 48.5361 40.323 48.3032 40.5739 48.2668ZM46.1232 48.7351C46.0347 48.4975 45.7703 48.3766 45.5327 48.4652C45.2951 48.5537 45.1743 48.8181 45.2628 49.0557L45.2789 49.0993C45.3909 49.4022 45.5419 49.8106 45.9794 50.0731C46.1969 50.2035 46.4789 50.133 46.6094 49.9156C46.7398 49.6982 46.6693 49.4161 46.4519 49.2857C46.3094 49.2002 46.2547 49.088 46.1232 48.7351ZM30.2147 54.1224C30.455 54.0413 30.7154 54.1704 30.7965 54.4106C30.961 54.8984 31.0733 55.1918 31.3523 55.4242C31.547 55.5865 31.5734 55.876 31.411 56.0708C31.2487 56.2656 30.9592 56.2919 30.7644 56.1296C30.2674 55.7154 30.0882 55.1838 29.9335 54.7251L29.9264 54.7041C29.8454 54.4639 29.9744 54.2034 30.2147 54.1224ZM35.1314 54.0995C35.0228 53.8703 34.7491 53.7726 34.5199 53.8811C34.2907 53.9897 34.193 54.2634 34.3015 54.4926C34.4909 54.8924 34.6684 55.0715 34.9145 55.3176C35.0937 55.4968 35.3844 55.4968 35.5637 55.3176C35.743 55.1383 35.743 54.8476 35.5637 54.6683C35.338 54.4426 35.2517 54.3536 35.1314 54.0995ZM39.0871 53.2991C39.3011 53.1629 39.5848 53.226 39.721 53.4399L39.7409 53.4713L39.7409 53.4713L39.7409 53.4713C39.8827 53.6943 40.0621 53.9765 40.2684 54.1852C40.5061 54.4256 40.6112 54.4056 40.644 54.3925C40.8794 54.2984 41.1466 54.4129 41.2408 54.6483C41.3349 54.8837 41.2204 55.1509 40.985 55.2451C40.3913 55.4826 39.893 55.1116 39.6154 54.8308C39.3364 54.5487 39.1084 54.1887 38.9741 53.9768L38.9463 53.9329C38.8102 53.719 38.8732 53.4352 39.0871 53.2991ZM45.245 54.1589C45.0728 53.9727 44.7824 53.9613 44.5962 54.1335C44.41 54.3056 44.3986 54.5961 44.5707 54.7823C44.912 55.1514 45.2866 55.4927 45.7865 55.7427C45.835 55.7669 45.909 55.7934 45.9594 55.8106C46.0324 55.8594 46.1201 55.8879 46.2145 55.8879C46.2292 55.8879 46.2619 55.8875 46.3011 55.8811C46.3204 55.8779 46.3569 55.8707 46.3999 55.8535C46.4358 55.8392 46.5266 55.7984 46.5998 55.6997C46.6922 55.5752 46.7104 55.4222 46.6707 55.2915C46.6393 55.1879 46.5801 55.1238 46.5563 55.0998C46.5072 55.0503 46.4573 55.0231 46.4451 55.0164L46.4443 55.0159C46.3952 54.9891 46.3349 54.9684 46.3147 54.9614L46.3111 54.9602L46.2656 54.9446C46.2516 54.9399 46.2393 54.9358 46.2211 54.9293C46.2113 54.9259 46.2042 54.9233 46.1994 54.9215C46.1947 54.9197 46.1922 54.9188 46.1915 54.9185C45.8346 54.7389 45.5488 54.4875 45.245 54.1589Z" fill="#FEC047"/>
<path d="M71.1699 48.5774C45.1093 48.5774 28.7368 32.7307 28.5866 32.5805C28.2862 32.2801 28.2862 31.8295 28.5866 31.5666C28.887 31.2662 29.3377 31.2662 29.6005 31.5666C29.7507 31.7168 45.7476 47.1504 71.1699 47.1504C71.583 47.1504 71.8834 47.4884 71.8834 47.8639C71.921 48.2394 71.583 48.5774 71.1699 48.5774Z" fill="#1D88EC"/>
<path d="M63.0592 46.5119C63.0592 46.5119 62.7588 47.6385 63.6976 49.2907C64.6363 50.943 64.3735 52.1071 65.0119 52.8957C65.8004 53.9096 68.9923 53.7593 71.5082 52.8206C74.1744 51.8067 74.0993 50.6426 74.1744 49.854C74.2495 49.0654 73.9491 46.7372 71.3581 45.6858L63.0592 46.5119Z" fill="#E31E1E"/>
<path fill-rule="evenodd" clip-rule="evenodd" d="M66.0637 49.9296C65.3878 47.5638 63.0596 46.5124 63.0596 46.5124C66.1012 45.1981 72.0344 44.2593 72.0344 44.2593C73.3487 45.1981 73.7617 47.5638 73.7617 47.5638C73.4621 48.1109 73.0349 48.5394 72.5333 48.8739L72.634 49.5538C72.7091 49.8167 72.5589 50.1171 72.296 50.2297C71.4205 50.631 70.1906 50.7842 69.5703 50.8615C69.5521 50.8638 69.5344 50.866 69.5172 50.8681C69.3295 50.9057 69.1417 50.793 69.1042 50.6052L68.9246 49.9641C67.3629 50.1011 66.0637 49.9296 66.0637 49.9296ZM69.798 49.8555C69.8823 50.0146 70.0565 50.0768 70.2307 50.042L71.7328 49.6289L71.7632 49.2945C71.1436 49.5705 70.4646 49.7464 69.798 49.8555Z" fill="#1B5FC5"/>
<path fill-rule="evenodd" clip-rule="evenodd" d="M71.8291 45.4918L71.6309 44.8816L71.4326 45.4918H70.791L71.3101 45.8689L71.1118 46.4791L71.6309 46.102L72.1499 46.4791L71.9517 45.8689L72.4707 45.4918H71.8291ZM68.6885 45.4702L68.8867 46.0804H69.5283L69.0093 46.4575L69.2075 47.0677L68.6885 46.6906L68.1694 47.0677L68.3677 46.4575L67.8486 46.0804H68.4902L68.6885 45.4702ZM65.7446 46.0592L65.9429 46.6694H66.5845L66.0654 47.0465L66.2637 47.6567L65.7446 47.2796L65.2256 47.6567L65.4238 47.0465L64.9048 46.6694H65.5464L65.7446 46.0592ZM68.0986 47.8251L68.2969 48.4353H68.9385L68.4194 48.8124L68.6177 49.4226L68.0986 49.0454L67.5796 49.4226L67.7778 48.8124L67.2588 48.4353H67.9004L68.0986 47.8251ZM71.2412 47.8466L71.043 47.2365L70.8447 47.8466H70.2031L70.7222 48.2237L70.5239 48.8339L71.043 48.4568L71.562 48.8339L71.3638 48.2237L71.8828 47.8466H71.2412Z" fill="white"/>
<path d="M50.5627 38.5229C49.0143 40.454 48.7482 43.3259 49.4677 47.0212C50.5625 53.9148 50.595 48.3587 51.3096 50.0208C52.3651 56.2497 53.7062 55.2877 54.391 53.9149C55.8906 57.3555 55.8798 59.9902 59.4807 59.6201C60.0129 59.5654 60.497 59.276 60.7876 58.8268C65.7239 51.1977 57.7792 33.7469 50.5627 38.5229Z" fill="#FEC047"/>
<path d="M9.74141 7.12946C13.1495 1.97115 16.8502 1.97157 19.0072 1.70774C19.937 3.83478 22.5 12.0302 23.5 15.5C18.4826 15.2251 16.3905 16.995 14 20.5C11.6095 24.005 8.316 24.5622 6 25L0.907726 11.0302C2.4137 11.1294 5.99252 12.8036 9.74141 7.12946Z" fill="#E2503C"/>
<mask id="mask0_2286_41551" style="mask-type:alpha" maskUnits="userSpaceOnUse" x="0" y="1" width="24" height="24">
<path d="M9.74165 7.12946C13.1497 1.97115 16.8505 1.97157 19.0074 1.70774C19.9373 3.83478 22.5002 12.0302 23.5002 15.5C18.4828 15.2251 16.3908 16.995 14.0002 20.5C11.6097 24.005 8.31625 24.5622 6.00024 25L0.90797 11.0302C2.41394 11.1294 5.99277 12.8036 9.74165 7.12946Z" fill="#E2503C"/>
</mask>
<g mask="url(#mask0_2286_41551)">
<path fill-rule="evenodd" clip-rule="evenodd" d="M19.0364 4.49871C19.3118 4.47874 19.5189 4.23928 19.499 3.96386C19.479 3.68844 19.2395 3.48136 18.9641 3.50133C16.5924 3.67332 12.3358 4.54195 9.56951 9.23587C8.53087 10.9982 6.95403 12.1 5.34428 12.7432C3.72915 13.3886 2.10885 13.5604 1.03643 13.4826C0.761009 13.4627 0.521547 13.6697 0.501576 13.9452C0.481604 14.2206 0.688685 14.46 0.964104 14.48C2.18575 14.5686 3.9578 14.3741 5.71533 13.6718C7.47823 12.9674 9.25435 11.7402 10.431 9.7436C12.9588 5.45436 16.82 4.65944 19.0364 4.49871ZM20.0364 7.49871C20.3118 7.47874 20.5189 7.23928 20.499 6.96386C20.479 6.68844 20.2395 6.48136 19.9641 6.50133C17.5924 6.67332 13.3358 7.54195 10.5695 12.2359C9.53087 13.9982 7.95403 15.1 6.34428 15.7432C4.72915 16.3886 3.10885 16.5604 2.03643 16.4826C1.76101 16.4627 1.52155 16.6697 1.50158 16.9452C1.4816 17.2206 1.68868 17.46 1.9641 17.48C3.18575 17.5686 4.9578 17.3741 6.71533 16.6718C8.47823 15.9674 10.2544 14.7402 11.431 12.7436C13.9588 8.45436 17.82 7.65944 20.0364 7.49871ZM21.499 9.96386C21.5189 10.2393 21.3118 10.4787 21.0364 10.4987C18.82 10.6594 14.9588 11.4544 12.431 15.7436C11.2544 17.7402 9.47823 18.9674 7.71533 19.6718C5.9578 20.3741 4.18575 20.5686 2.9641 20.48C2.68868 20.46 2.4816 20.2206 2.50158 19.9452C2.52155 19.6697 2.76101 19.4627 3.03643 19.4826C4.10885 19.5604 5.72915 19.3886 7.34428 18.7432C8.95403 18.1 10.5309 16.9982 11.5695 15.2359C14.3358 10.5419 18.5924 9.67332 20.9641 9.50133C21.2395 9.48136 21.479 9.68844 21.499 9.96386ZM22.0364 13.4987C22.3118 13.4787 22.5189 13.2393 22.499 12.9639C22.479 12.6884 22.2395 12.4814 21.9641 12.5013C19.5924 12.6733 15.3358 13.5419 12.5695 18.2359C11.5309 19.9982 9.95403 21.1 8.34428 21.7432C6.72915 22.3886 5.10885 22.5604 4.03643 22.4826C3.76101 22.4627 3.52155 22.6697 3.50158 22.9452C3.4816 23.2206 3.68868 23.46 3.9641 23.48C5.18575 23.5686 6.9578 23.3741 8.71533 22.6718C10.4782 21.9674 12.2544 20.7402 13.431 18.7436C15.9588 14.4544 19.82 13.6594 22.0364 13.4987Z" fill="#F5F5F5"/>
<path d="M4.00024 19.4999L0.907736 11.0301C2.33093 11.1237 5.60536 12.6241 9.12507 7.99986C10.5002 11.0301 11.5002 12.9999 12.0002 14.4999C10.5002 17.9999 6.00024 19.9999 4.00024 19.4999Z" fill="#1D88EC"/>
<path fill-rule="evenodd" clip-rule="evenodd" d="M8.34673 7.59321L8.16241 7.39728C8.13856 7.37194 8.09616 7.39154 8.09983 7.42621L8.12968 7.69355L7.88641 7.80831C7.85491 7.82314 7.86048 7.86955 7.89457 7.87657L8.15806 7.93081L8.19205 8.19765C8.19646 8.2322 8.24232 8.24127 8.25952 8.21099L8.39253 7.97715L8.65683 8.02731C8.69103 8.03379 8.71384 7.99301 8.69038 7.96727L8.50912 7.76851L8.63849 7.53265C8.65524 7.50213 8.62347 7.46787 8.59175 7.48223L8.34673 7.59321ZM2.51979 10.0061L2.70412 10.202L2.94913 10.091C2.98085 10.0767 3.01262 10.1109 2.99588 10.1414L2.8665 10.3773L3.04776 10.5761C3.07123 10.6018 3.04845 10.6426 3.01422 10.6361L2.74991 10.5859L2.61691 10.8198C2.59971 10.8501 2.55385 10.841 2.54944 10.8064L2.51545 10.5396L2.25199 10.4853C2.2179 10.4783 2.21233 10.4319 2.24383 10.4171L2.4871 10.3023L2.45725 10.035C2.45351 10.0003 2.49594 9.98072 2.51979 10.0061ZM0.66818 11.676C0.672589 11.7106 0.718412 11.7197 0.735651 11.6894L0.868675 11.4556L1.13296 11.5057C1.16717 11.5122 1.18997 11.4714 1.16651 11.4457L0.985245 11.2469L1.11462 11.011C1.13135 10.9805 1.09961 10.9462 1.06786 10.9606L0.822842 11.0716L0.723407 10.9659C0.660932 11.1055 0.605764 11.2482 0.557816 11.3934L0.634265 11.4092L0.66818 11.676ZM1.53254 12.8077L1.71686 13.0036L1.96188 12.8927C1.9936 12.8783 2.02537 12.9126 2.00864 12.9431L1.87926 13.179L2.06052 13.3777C2.08399 13.4035 2.06121 13.4442 2.02698 13.4378L1.76268 13.3876L1.62967 13.6215C1.61247 13.6517 1.56661 13.6427 1.5622 13.6081L1.52821 13.3413L1.26472 13.287C1.23062 13.28 1.22505 13.2336 1.25654 13.2187L1.49981 13.104L1.46996 12.8366C1.46623 12.8019 1.50867 12.7823 1.53254 12.8077ZM2.70709 15.1468L2.52277 14.9509C2.4989 14.9255 2.45647 14.9451 2.46019 14.9798L2.49004 15.2472L2.24677 15.3619C2.21529 15.3768 2.22086 15.4232 2.25495 15.4302L2.51844 15.4845L2.55243 15.7513C2.55684 15.7858 2.60268 15.7949 2.6199 15.7646L2.75293 15.5308L3.01721 15.581C3.05145 15.5874 3.07422 15.5467 3.05076 15.5209L2.8695 15.3222L2.99887 15.0863C3.0156 15.0557 2.98383 15.0215 2.95211 15.0358L2.70709 15.1468ZM3.43342 16.9198L3.61774 17.1157L3.86276 17.0047C3.89448 16.9904 3.92625 17.0246 3.90952 17.0552L3.78014 17.291L3.9614 17.4898C3.98487 17.5155 3.96209 17.5563 3.92786 17.5498L3.66355 17.4997L3.53055 17.7335C3.51333 17.7638 3.46749 17.7547 3.46308 17.7202L3.42909 17.4533L3.16559 17.3991C3.1315 17.3921 3.12593 17.3457 3.15741 17.3308L3.40068 17.216L3.37084 16.9487C3.36711 16.914 3.40955 16.8944 3.43342 16.9198ZM4.44586 18.9074L4.26154 18.7115C4.23767 18.6861 4.19524 18.7058 4.19896 18.7404L4.22881 19.0078L3.98554 19.1225C3.95406 19.1374 3.95963 19.1838 3.99372 19.1908L4.25721 19.2451L4.2912 19.5119C4.29561 19.5465 4.34145 19.5555 4.35867 19.5253L4.4917 19.2915L4.75598 19.3416C4.79022 19.348 4.81299 19.3073 4.78953 19.2815L4.60827 19.0828L4.73764 18.8469C4.75437 18.8164 4.7226 18.7821 4.69088 18.7965L4.44586 18.9074ZM2.00264 11.3559L2.18697 11.5518L2.43198 11.4408C2.4637 11.4264 2.49547 11.4607 2.47873 11.4912L2.34935 11.7271L2.53061 11.9258C2.55408 11.9516 2.53132 11.9924 2.49707 11.9859L2.23284 11.9357L2.09983 12.1695C2.08263 12.1998 2.03677 12.1907 2.03236 12.1562L1.99837 11.8893L1.73491 11.8351C1.70082 11.8281 1.69525 11.7817 1.72675 11.7668L1.97002 11.6521L1.94017 11.3847C1.93634 11.3501 1.97877 11.3305 2.00264 11.3559ZM3.17776 13.6948L2.99344 13.4989C2.96957 13.4735 2.92713 13.4931 2.93089 13.5278L2.96074 13.7951L2.71747 13.9099C2.68599 13.9248 2.69156 13.9712 2.72565 13.9782L2.98911 14.0325L3.0231 14.2993C3.02751 14.3338 3.07337 14.3429 3.09057 14.3126L3.22358 14.0788L3.48788 14.129C3.52213 14.1355 3.54489 14.0947 3.52142 14.0689L3.34016 13.8702L3.46954 13.6343C3.48627 13.6037 3.4545 13.5695 3.42278 13.5838L3.17776 13.6948ZM3.93434 15.5349L4.11867 15.7308L4.36369 15.6198C4.3954 15.6055 4.42717 15.6397 4.41045 15.6703L4.28107 15.9061L4.46233 16.1049C4.48579 16.1306 4.46302 16.1714 4.42878 16.1649L4.16448 16.1148L4.03148 16.3486C4.01427 16.3789 3.96841 16.3698 3.964 16.3353L3.93002 16.0684L3.66656 16.0142C3.63247 16.0072 3.6269 15.9607 3.65838 15.9459L3.90165 15.8311L3.8718 15.5638C3.86806 15.5291 3.91049 15.5095 3.93434 15.5349ZM4.96438 17.5592L4.78006 17.3633C4.75619 17.3379 4.71376 17.3575 4.71752 17.3922L4.74736 17.6595L4.50409 17.7743C4.47261 17.7891 4.47818 17.8356 4.51227 17.8426L4.77573 17.8968L4.80972 18.1637C4.81413 18.1982 4.85999 18.2073 4.87719 18.177L5.01022 17.9432L5.2745 17.9933C5.30875 17.9998 5.33151 17.959 5.30805 17.9333L5.12679 17.7345L5.25616 17.4987C5.27289 17.4681 5.24112 17.4339 5.2094 17.4482L4.96438 17.5592ZM3.59768 12.1341L3.41336 11.9382C3.38949 11.9128 3.34706 11.9325 3.35082 11.9671L3.38067 12.2345L3.1374 12.3492C3.10591 12.3641 3.11148 12.4105 3.14557 12.4175L3.40903 12.4718L3.44302 12.7386C3.44743 12.7732 3.49329 12.7822 3.51049 12.752L3.6435 12.5181L3.9078 12.5683C3.94203 12.5747 3.96481 12.534 3.94135 12.5082L3.76009 12.3095L3.88946 12.0736C3.90619 12.0431 3.87442 12.0088 3.8427 12.0232L3.59768 12.1341ZM4.4036 14.0814L4.58792 14.2773L4.83294 14.1664C4.86465 14.152 4.89642 14.1863 4.8797 14.2168L4.75032 14.4527L4.93158 14.6514C4.95504 14.6772 4.93227 14.7179 4.89803 14.7115L4.63375 14.6613L4.50073 14.8952C4.48351 14.9254 4.43766 14.9164 4.43325 14.8818L4.39927 14.615L4.13581 14.5607C4.10172 14.5537 4.09615 14.5073 4.12763 14.4924L4.3709 14.3777L4.34105 14.1103C4.33729 14.0756 4.37973 14.056 4.4036 14.0814ZM5.49856 16.2462L5.31424 16.0503C5.29037 16.0249 5.24793 16.0445 5.25169 16.0792L5.28154 16.3465L5.03827 16.4613C5.00679 16.4762 5.01236 16.5226 5.04645 16.5296L5.30991 16.5838L5.3439 16.8507C5.34831 16.8852 5.39415 16.8943 5.41137 16.864L5.54438 16.6302L5.80868 16.6803C5.84291 16.6868 5.86569 16.646 5.84222 16.6203L5.66096 16.4215L5.79034 16.1857C5.80707 16.1551 5.7753 16.1209 5.74358 16.1352L5.49856 16.2462ZM6.14188 17.8421L6.3262 18.0381L6.57122 17.9271C6.60293 17.9127 6.63471 17.947 6.61798 17.9776L6.4886 18.2134L6.66986 18.4122C6.69332 18.4379 6.67055 18.4787 6.63631 18.4722L6.37203 18.4221L6.23901 18.6559C6.22179 18.6861 6.17594 18.6771 6.17154 18.6426L6.13755 18.3757L5.87409 18.3215C5.84 18.3144 5.83443 18.268 5.86591 18.2532L6.10918 18.1384L6.07933 17.8711C6.07557 17.8364 6.11801 17.8168 6.14188 17.8421ZM4.06793 10.6822L3.88361 10.4863C3.85974 10.4609 3.81734 10.4805 3.82107 10.5152L3.85092 10.7826L3.60764 10.8973C3.57611 10.9122 3.58168 10.9586 3.61577 10.9656L3.87927 11.0198L3.91325 11.2867C3.91766 11.3212 3.96352 11.3303 3.98072 11.3L4.11373 11.0662L4.37803 11.1163C4.41228 11.1228 4.43504 11.082 4.41158 11.0563L4.23032 10.8575L4.35966 10.6217C4.37644 10.5911 4.34467 10.5569 4.31295 10.5712L4.06793 10.6822ZM4.87385 12.6292L5.05817 12.8252L5.30319 12.7142C5.3349 12.6998 5.36667 12.7341 5.34991 12.7647L5.22057 13.0005L5.40183 13.1993C5.4253 13.225 5.40254 13.2658 5.36828 13.2593L5.10398 13.2091L4.97098 13.443C4.95377 13.4733 4.90791 13.4642 4.9035 13.4296L4.86952 13.1628L4.60602 13.1086C4.57193 13.1016 4.56636 13.0551 4.59788 13.0403L4.84115 12.9255L4.8113 12.6582C4.80758 12.6235 4.84998 12.6039 4.87385 12.6292ZM5.99956 14.8614L5.81524 14.6655C5.79139 14.6401 5.74899 14.6597 5.75269 14.6944L5.78254 14.9617L5.53927 15.0765C5.50775 15.0914 5.51332 15.1378 5.54742 15.1448L5.81091 15.199L5.8449 15.4659C5.84931 15.5004 5.89517 15.5095 5.91237 15.4792L6.04538 15.2454L6.30968 15.2955C6.34391 15.302 6.36669 15.2612 6.34322 15.2355L6.16196 15.0367L6.29131 14.8009C6.30807 14.7703 6.2763 14.7361 6.24458 14.7504L5.99956 14.8614ZM6.66047 16.494L6.84479 16.6899L7.08981 16.5789C7.12153 16.5646 7.1533 16.5988 7.13653 16.6294L7.00719 16.8653L7.18845 17.064C7.21192 17.0898 7.18916 17.1306 7.15491 17.1241L6.89062 17.0739L6.7576 17.3077C6.74039 17.338 6.69454 17.3289 6.69013 17.2944L6.65614 17.0276L6.39264 16.9733C6.35855 16.9663 6.35298 16.9199 6.3845 16.905L6.62777 16.7902L6.59792 16.5229C6.5942 16.4882 6.6366 16.4686 6.66047 16.494ZM4.58497 9.3326L4.40065 9.13667C4.3768 9.11133 4.3344 9.13094 4.33814 9.16557L4.36799 9.43291L4.12472 9.54767C4.09319 9.56252 4.09876 9.60893 4.13285 9.61595L4.39631 9.6702L4.43029 9.93705C4.4347 9.9716 4.48056 9.98067 4.49777 9.95039L4.63077 9.71655L4.89507 9.76671C4.92931 9.77317 4.95208 9.73241 4.92862 9.70667L4.74736 9.50791L4.8767 9.27206C4.89348 9.24153 4.86171 9.20727 4.82999 9.22163L4.58497 9.3326ZM5.2937 11.0686L5.47802 11.2645L5.72304 11.1536C5.75476 11.1392 5.78653 11.1735 5.76976 11.204L5.64042 11.4399L5.8217 11.6386C5.84517 11.6643 5.82239 11.7051 5.78816 11.6986L5.52385 11.6485L5.39085 11.8823C5.37364 11.9126 5.32778 11.9035 5.32338 11.869L5.28939 11.6021L5.02593 11.5479C4.99184 11.5409 4.98627 11.4944 5.01779 11.4796L5.26106 11.3648L5.23121 11.0975C5.22743 11.0628 5.26983 11.0432 5.2937 11.0686ZM6.46878 13.4077L6.28445 13.2118C6.26058 13.1864 6.21818 13.206 6.22194 13.2407L6.25179 13.508L6.00852 13.6228C5.977 13.6377 5.98257 13.6841 6.01667 13.6911L6.28012 13.7453L6.31411 14.0122C6.31852 14.0467 6.36436 14.0558 6.38158 14.0255L6.51461 13.7917L6.77889 13.8418C6.81313 13.8483 6.8359 13.8075 6.81244 13.7818L6.63118 13.583L6.76052 13.3472C6.77728 13.3166 6.74551 13.2824 6.71379 13.2967L6.46878 13.4077ZM7.1951 15.1806L7.37942 15.3766L7.62444 15.2656C7.65616 15.2512 7.68793 15.2855 7.67116 15.3161L7.54182 15.5519L7.72308 15.7507C7.74655 15.7764 7.72377 15.8172 7.68954 15.8107L7.42524 15.7606L7.29223 15.9944C7.27501 16.0246 7.22917 16.0156 7.22476 15.9811L7.19077 15.7142L6.92731 15.66C6.89322 15.6529 6.88765 15.6065 6.91917 15.5916L7.16244 15.4769L7.13259 15.2095C7.12883 15.1749 7.17123 15.1553 7.1951 15.1806ZM8.20706 17.1683L8.02273 16.9724C7.99887 16.947 7.95647 16.9666 7.96023 17.0013L7.99007 17.2686L7.7468 17.3834C7.71529 17.3983 7.72085 17.4447 7.75495 17.4517L8.01841 17.506L8.05239 17.7728C8.0568 17.8074 8.10265 17.8164 8.11986 17.7861L8.25289 17.5523L8.51717 17.6025C8.55141 17.6089 8.57418 17.5682 8.55072 17.5424L8.36946 17.3437L8.4988 17.1078C8.51556 17.0772 8.48379 17.043 8.45208 17.0573L8.20706 17.1683ZM5.76447 9.61679L5.94879 9.81272L6.19381 9.70174C6.22553 9.68738 6.2573 9.72164 6.24052 9.75217L6.11114 9.98804L6.2924 10.1868C6.31587 10.2125 6.29307 10.2534 6.25886 10.2468L5.99456 10.1967L5.86155 10.4305C5.84435 10.4608 5.79849 10.4517 5.79408 10.4172L5.76009 10.1503L5.49663 10.0961C5.46254 10.0891 5.45697 10.0426 5.48847 10.0278L5.73174 9.91306L5.70189 9.64572C5.6982 9.61101 5.7406 9.59141 5.76447 9.61679ZM6.93903 11.9557L6.75471 11.7597C6.73084 11.7344 6.68844 11.754 6.69212 11.7887L6.72197 12.056L6.4787 12.1708C6.44722 12.1856 6.45279 12.232 6.48688 12.2391L6.75034 12.2933L6.78433 12.5602C6.78874 12.5947 6.8346 12.6038 6.8518 12.5735L6.98481 12.3397L7.24911 12.3898C7.28332 12.3963 7.30612 12.3555 7.28266 12.3298L7.10139 12.131L7.23077 11.8952C7.24754 11.8646 7.21576 11.8303 7.18405 11.8447L6.93903 11.9557ZM7.69659 13.7957L7.88091 13.9916L8.12593 13.8807C8.15765 13.8663 8.18942 13.9006 8.17265 13.9311L8.04328 14.167L8.22454 14.3658C8.248 14.3915 8.22519 14.4323 8.19099 14.4258L7.92669 14.3756L7.79368 14.6095C7.77648 14.6398 7.73062 14.6307 7.72621 14.5961L7.69222 14.3293L7.42877 14.275C7.39467 14.268 7.3891 14.2216 7.42059 14.2067L7.66386 14.092L7.63401 13.8246C7.63034 13.79 7.67274 13.7704 7.69659 13.7957ZM8.72565 15.8203L8.54133 15.6244C8.51746 15.599 8.47506 15.6186 8.47875 15.6533L8.5086 15.9206L8.26532 16.0354C8.23384 16.0503 8.23941 16.0967 8.2735 16.1037L8.53696 16.1579L8.57095 16.4248C8.57536 16.4593 8.62122 16.4684 8.63842 16.4381L8.77145 16.2043L9.03573 16.2544C9.06994 16.261 9.09274 16.2201 9.06928 16.1944L8.88802 15.9956L9.01739 15.7598C9.03416 15.7292 9.00239 15.695 8.97067 15.7093L8.72565 15.8203ZM6.28158 8.26713L6.46591 8.46306L6.71093 8.35208C6.74264 8.33773 6.77441 8.37199 6.75763 8.40252L6.62826 8.63839L6.80952 8.83714C6.83298 8.86289 6.81017 8.90366 6.77597 8.89719L6.51167 8.84702L6.37866 9.08086C6.36146 9.11115 6.3156 9.10207 6.31119 9.06752L6.2772 8.80068L6.01371 8.74644C5.97961 8.73943 5.97405 8.69301 6.00558 8.67817L6.24885 8.56341L6.219 8.29607C6.21533 8.2614 6.25773 8.24179 6.28158 8.26713ZM7.35899 10.395L7.17466 10.199C7.15079 10.1737 7.10839 10.1933 7.11208 10.228L7.14193 10.4953L6.89866 10.6101C6.86714 10.625 6.87271 10.6714 6.9068 10.6784L7.1703 10.7326L7.20429 10.9995C7.2087 11.034 7.25456 11.0431 7.27176 11.0128L7.40477 10.779L7.66907 10.8291C7.70326 10.8356 7.72608 10.7948 7.70261 10.7691L7.52135 10.5703L7.65073 10.3345C7.66749 10.3039 7.63572 10.2696 7.604 10.284L7.35899 10.395ZM8.16539 12.3422L8.34971 12.5382L8.59473 12.4272C8.62644 12.4128 8.65822 12.4471 8.64145 12.4777L8.51207 12.7135L8.69333 12.9123C8.7168 12.938 8.69399 12.9788 8.65979 12.9723L8.3955 12.9222L8.26248 13.156C8.24526 13.1862 8.19942 13.1772 8.19501 13.1427L8.16102 12.8758L7.89753 12.8216C7.86343 12.8146 7.85786 12.7681 7.88938 12.7533L8.13265 12.6385L8.1028 12.3712C8.09912 12.3365 8.14152 12.3169 8.16539 12.3422ZM9.26035 14.507L9.07603 14.3111C9.05216 14.2857 9.00976 14.3053 9.01345 14.34L9.0433 14.6074L8.80003 14.7221C8.76851 14.737 8.77408 14.7834 8.80817 14.7904L9.07167 14.8447L9.10565 15.1115C9.11006 15.1461 9.15591 15.1551 9.17312 15.1249L9.30613 14.891L9.57043 14.9412C9.60463 14.9477 9.62744 14.9069 9.60398 14.8812L9.42272 14.6824L9.5521 14.4465C9.56886 14.416 9.53709 14.3817 9.50537 14.3961L9.26035 14.507ZM9.90416 16.1027L10.0885 16.2987L10.3335 16.1877C10.3652 16.1733 10.397 16.2076 10.3802 16.2382L10.2508 16.474L10.4321 16.6728C10.4556 16.6985 10.4328 16.7393 10.3986 16.7328L10.1343 16.6827L10.0012 16.9165C9.98403 16.9467 9.93819 16.9377 9.93378 16.9032L9.89979 16.6363L9.6363 16.5821C9.6022 16.5751 9.59663 16.5286 9.62815 16.5138L9.87142 16.399L9.84157 16.1317C9.83789 16.097 9.88029 16.0774 9.90416 16.1027ZM7.82965 8.94321L7.64533 8.74728C7.62146 8.7219 7.57906 8.7415 7.58279 8.7762L7.61264 9.04354L7.36933 9.15831C7.33783 9.17314 7.3434 9.21956 7.37749 9.22657L7.64099 9.28081L7.67497 9.54765C7.67938 9.5822 7.72524 9.59128 7.74244 9.56099L7.87545 9.32715L8.13975 9.37731C8.17397 9.38383 8.19676 9.34301 8.1733 9.31727L7.99204 9.11852L8.12142 8.88265C8.1382 8.85212 8.10643 8.81786 8.07471 8.83221L7.82965 8.94321ZM8.63605 10.8902L8.82038 11.0862L9.06543 10.9752C9.09715 10.9608 9.12892 10.9951 9.11216 11.0256L8.98278 11.2615L9.16404 11.4603C9.1875 11.486 9.16471 11.5268 9.13049 11.5203L8.86619 11.4701L8.73318 11.704C8.71598 11.7343 8.67012 11.7252 8.66571 11.6906L8.63173 11.4238L8.36823 11.3695C8.33414 11.3625 8.32857 11.3161 8.36005 11.3013L8.60336 11.1865L8.57351 10.9191C8.56978 10.8844 8.61218 10.8648 8.63605 10.8902ZM9.76128 13.1221L9.57696 12.9262C9.55311 12.9009 9.51071 12.9205 9.51441 12.9551L9.54426 13.2225L9.30096 13.3372C9.26947 13.3521 9.27504 13.3985 9.30914 13.4055L9.57263 13.4598L9.60662 13.7266C9.61103 13.7612 9.65689 13.7702 9.67409 13.74L9.8071 13.5061L10.0714 13.5563C10.1056 13.5628 10.1284 13.522 10.1049 13.4962L9.92368 13.2975L10.0531 13.0616C10.0698 13.031 10.0381 12.9968 10.0063 13.0111L9.76128 13.1221ZM10.4227 14.7546L10.607 14.9505L10.8521 14.8395C10.8838 14.8252 10.9155 14.8594 10.8988 14.89L10.7694 15.1259L10.9507 15.3246C10.9741 15.3504 10.9513 15.3912 10.9171 15.3847L10.6528 15.3346L10.5198 15.5684C10.5026 15.5986 10.4567 15.5896 10.4523 15.555L10.4183 15.2882L10.1549 15.2339C10.1208 15.2269 10.1152 15.1805 10.1467 15.1656L10.39 15.0509L10.3601 14.7835C10.3564 14.7488 10.3988 14.7292 10.4227 14.7546ZM9.05597 9.32968L9.2403 9.52561L9.48532 9.41463C9.51703 9.40027 9.5488 9.43453 9.53208 9.46508L9.4027 9.70095L9.58396 9.89971C9.60742 9.92545 9.58461 9.96623 9.55041 9.95975L9.28611 9.90959L9.15311 10.1434C9.1359 10.1737 9.09004 10.1646 9.08564 10.1301L9.05165 9.86324L8.78815 9.809C8.75406 9.80199 8.74849 9.75557 8.77997 9.74071L9.02324 9.62595L8.99339 9.35861C8.98971 9.3239 9.03211 9.3043 9.05597 9.32968ZM10.2305 11.6687L10.0462 11.4727C10.0223 11.4474 9.97994 11.467 9.98363 11.5017L10.0135 11.769L9.77021 11.8838C9.73872 11.8986 9.74429 11.9451 9.77839 11.9521L10.0419 12.0063L10.0759 12.2732C10.0803 12.3077 10.1261 12.3167 10.1433 12.2865L10.2764 12.0527L10.5406 12.1028C10.5748 12.1093 10.5977 12.0685 10.5742 12.0428L10.3929 11.844L10.5223 11.6081C10.539 11.5776 10.5073 11.5433 10.4756 11.5577L10.2305 11.6687ZM10.9569 13.4415L11.1412 13.6374L11.3862 13.5264C11.4179 13.5121 11.4497 13.5463 11.433 13.5769L11.3036 13.8128L11.4848 14.0115C11.5083 14.0373 11.4855 14.078 11.4513 14.0716L11.187 14.0214L11.054 14.2552C11.0368 14.2855 10.9909 14.2765 10.9865 14.2419L10.9525 13.9751L10.689 13.9208C10.6549 13.9138 10.6494 13.8674 10.6809 13.8525L10.9241 13.7378L10.8943 13.4704C10.8906 13.4357 10.933 13.4161 10.9569 13.4415ZM11.9693 15.4293L11.785 15.2334C11.7611 15.208 11.7187 15.2276 11.7224 15.2623L11.7522 15.5296L11.509 15.6444C11.4775 15.6593 11.4831 15.7057 11.5172 15.7127L11.7807 15.7669L11.8146 16.0338C11.819 16.0683 11.8649 16.0774 11.8821 16.0471L12.0151 15.8133L12.2794 15.8634C12.3136 15.8699 12.3364 15.8291 12.313 15.8034L12.1317 15.6046L12.2611 15.3688C12.2778 15.3382 12.246 15.304 12.2143 15.3183L11.9693 15.4293Z" fill="white"/>
</g>
<path d="M18.5 1.5L27.5 27" stroke="#DDDDDD" stroke-linecap="round"/>
</svg>
