<svg width="80" height="70" viewBox="0 0 80 70" fill="none" xmlns="http://www.w3.org/2000/svg">
<ellipse rx="30.2182" ry="6.64352" transform="matrix(-0.999913 -0.0131704 -0.0131704 0.999913 36.3033 63.0409)" fill="#262626" fill-opacity="0.05"/>
<path d="M43.2 30.9383C44.6647 29.1054 53.5408 20.5013 66.0689 22.9518C76.3214 24.9817 68.0442 29.6009 64.5313 29.8732C64.5313 29.8732 67.1355 29.6855 67.5554 31.3847C67.9935 33.0501 65.0702 36.5452 59.479 35.6321C59.479 35.6321 64.2651 36.5976 62.7781 40.0698C61.2912 43.5419 55.2812 44.3627 48.5664 42.3343C41.8515 40.3059 41.7018 32.7534 43.2 30.9383Z" fill="url(#paint0_linear_2079_36313)"/>
<path fill-rule="evenodd" clip-rule="evenodd" d="M53.814 57.4644C53.4077 57.5283 53.0277 57.2457 52.9654 56.8334C52.903 56.421 53.1819 56.0349 53.5883 55.971L55.6626 55.645L55.7375 55.6108C55.748 55.5858 55.76 55.561 55.7735 55.5367L57.2493 52.8703C57.4505 52.5068 57.9046 52.3776 58.2635 52.5817C58.6224 52.7858 58.7502 53.246 58.549 53.6096L58.0157 54.573L58.9516 54.1467C59.3269 53.9757 59.7672 54.1457 59.9351 54.5264C60.1029 54.9071 59.9348 55.3542 59.5595 55.5252L56.1788 57.0653L56.087 57.1071L55.9877 57.1227L53.814 57.4644Z" fill="#EC8822"/>
<rect width="13.692" height="6.90939" rx="3.45469" transform="matrix(0.993121 -0.116204 0.114608 0.993513 40.4561 50.7893)" fill="#D7D7D7"/>
<path d="M30.9479 15.32C30.9479 15.32 29.8107 13.1495 27.9912 11.8814C26.9823 11.1481 26.2501 10.5729 26.8384 10.2702C27.9956 9.72459 29.52 10.9943 30.9479 15.32Z" fill="#989899"/>
<path d="M5.8928 53.4807C5.8928 53.4807 12.3319 53.671 11.7296 48.1217C10.3149 35.0879 10.612 21.5048 23.5437 16.2746C44.906 7.63448 53.1868 25.7471 54.1743 34.8479C55.9018 37.0152 57.359 42.9975 57.8094 45.4713C59.5501 55.0475 53.0163 62.2801 40.8279 66.9004C29.4204 70.4358 12.4593 66.8257 5.8928 53.4807Z" fill="url(#paint1_linear_2079_36313)"/>
<path d="M28.7618 15.0923C28.7618 15.0923 25.7836 14.1701 23.4471 14.9218C21.3066 15.5727 21.5284 13.5544 23.7316 13.4225C25.7188 13.3516 28.7618 15.0923 28.7618 15.0923Z" fill="#989899"/>
<path d="M29.9991 14.9055C29.9991 14.9055 27.8003 12.8806 24.9255 12.6568C22.5234 12.4903 21.5723 11.5769 22.0208 10.9953C22.9178 9.83205 25.6315 9.53754 29.9991 14.9055Z" fill="#989899"/>
<path d="M50.2809 23.0228C54.879 29.0296 54.2519 34.5582 54.2519 34.5582C54.2519 34.5582 52.42 35.4829 50.7797 37.6914C48.077 41.3137 37.4547 48.4018 28.8677 39.6686C22.4005 33.1379 23.4461 21.0824 30.5732 16.7069C37.1609 12.7164 42.9929 13.5266 50.2809 23.0228Z" fill="white"/>
<ellipse cx="41.8496" cy="29.46" rx="3.5042" ry="1.55742" transform="rotate(-38.9612 41.8496 29.46)" fill="#FFA895" fill-opacity="0.58"/>
<path d="M43.0986 21.0179C42.3902 19.9479 41.0312 19.6146 40.0632 20.2736C39.0952 20.9326 38.8848 22.3342 39.5932 23.4043C40.3017 24.4743 41.6607 24.8076 42.6287 24.1486C43.5967 23.4897 43.8071 22.088 43.0986 21.0179Z" fill="#231F20"/>
<path d="M54.2613 24.027C54.2613 24.027 52.5245 25.12 51.7954 26.5167C51.1806 27.6379 49.1161 25.6018 49.3011 24.3823C49.4861 23.1628 54.2613 24.027 54.2613 24.027Z" fill="#EC6C22"/>
<path d="M48.7301 20.7585C48.7301 20.7585 51.2888 20.3656 54.013 23.1836C54.013 23.1836 51.2728 23.4983 49.7462 24.7034C48.5201 25.6481 47.6804 21.4327 48.7301 20.7585Z" fill="#EC8822"/>
<path fill-rule="evenodd" clip-rule="evenodd" d="M55.892 63.8148C55.4871 63.8874 55.1013 63.6131 55.0303 63.2022C54.9592 62.7912 55.2299 62.3992 55.6348 62.3266L57.7018 61.9559L57.7756 61.9204C57.7856 61.895 57.7971 61.8698 57.8101 61.8451L59.2295 59.1475C59.423 58.7797 59.8742 58.6407 60.2373 58.8371C60.6004 59.0335 60.7379 59.4909 60.5444 59.8587L60.0313 60.8338L60.9584 60.3872C61.33 60.2082 61.7738 60.3687 61.9496 60.7457C62.1255 61.1226 61.9668 61.5733 61.5952 61.7523L58.2477 63.3649L58.1569 63.4086L58.0579 63.4264L55.892 63.8148Z" fill="#EC8822"/>
<path d="M34.1727 64.7145C33.9115 62.8041 35.2639 61.0464 37.177 60.8099L53.0265 58.851C54.8994 58.6195 56.6082 59.9351 56.8639 61.8053C57.1251 63.7157 55.7727 65.4734 53.8596 65.7099L38.0101 67.6688C36.1372 67.9003 34.4284 66.5848 34.1727 64.7145Z" fill="#DADADA"/>
<path d="M24.7436 38.4318C28.2332 40.1967 35.9825 47.3829 34.923 59.8214C34.0321 70.0033 28.6673 62.4439 28.0317 59.0575C28.0317 59.0575 28.4892 61.5694 26.8815 62.1571C25.3086 62.759 21.6021 60.2859 21.8994 54.7538C21.8994 54.7538 21.4661 59.5088 17.9334 58.4298C14.4008 57.3508 12.9682 51.5946 14.2311 44.8523C15.4941 38.1099 21.2541 36.6668 24.7436 38.4318Z" fill="url(#paint2_linear_2079_36313)"/>
<path d="M41.8438 47.439C42.0202 47.9065 42.1718 48.3672 42.3118 48.8431" stroke="#FEC047" stroke-width="1.1713" stroke-linecap="round"/>
<path d="M46.8984 45.5669C47.1261 46.1889 47.3446 46.8117 47.5537 47.4391" stroke="#FEC047" stroke-width="1.1713" stroke-linecap="round"/>
<path d="M51.1108 43.3198L51.6725 44.2559" stroke="#FEC047" stroke-width="1.1713" stroke-linecap="round"/>
<path d="M54.1064 40.418C54.1874 40.6513 54.2788 40.8564 54.3873 41.0733" stroke="#FEC047" stroke-width="1.1713" stroke-linecap="round"/>
<path d="M46.0645 52.1963L46.9635 53.4444" stroke="#FEC047" stroke-width="1.1713" stroke-linecap="round"/>
<path d="M50.7495 49.8538L51.0303 50.6027" stroke="#FEC047" stroke-width="1.1713" stroke-linecap="round"/>
<path d="M53.6782 47.511C54.0366 48.127 53.9239 47.4704 54.2639 48.0966" stroke="#FEC047" stroke-width="1.1713" stroke-linecap="round"/>
<path d="M55.8857 45.4731L56.3538 46.0348" stroke="#FEC047" stroke-width="1.1713" stroke-linecap="round"/>
<path d="M51.4863 55.396C51.6239 55.763 51.773 56.0932 51.9544 56.4257" stroke="#FEC047" stroke-width="1.1713" stroke-linecap="round"/>
<path d="M53.9189 53.3364C54.0714 53.5886 54.2288 53.8368 54.387 54.0853" stroke="#FEC047" stroke-width="1.1713" stroke-linecap="round"/>
<path d="M56.6343 50.4346C56.7114 50.6755 56.7471 51.0154 56.9151 51.1835" stroke="#FEC047" stroke-width="1.1713" stroke-linecap="round"/>
<path d="M60.8655 4.27006C66.98 3.3555 69.454 6.10771 71.0924 7.53529C70.1323 9.64887 66.161 15.9938 64.2494 19.0574C61.0992 15.1425 59.2986 17.7999 55.0939 18.3657C50.1386 19.0326 47.4712 13.7074 45.5971 12.2779L52.0586 0.309247C52.9918 1.49538 54.1396 5.27608 60.8655 4.27006Z" fill="#E2503C"/>
<mask id="mask0_2079_36313" style="mask-type:alpha" maskUnits="userSpaceOnUse" x="45" y="0" width="27" height="20">
<path d="M60.8655 4.27006C66.98 3.3555 69.454 6.10771 71.0924 7.53529C70.1323 9.64887 66.161 15.9938 64.2494 19.0574C61.0992 15.1425 59.2986 17.7999 55.0939 18.3657C50.1386 19.0326 47.4712 13.7074 45.5971 12.2779L52.0586 0.309247C52.9918 1.49538 54.1396 5.27608 60.8655 4.27006Z" fill="#00008B"/>
</mask>
<g mask="url(#mask0_2079_36313)">
<path d="M54.67 5.99143L54.1513 7.28597L55.2082 8.19583C55.345 8.31362 55.2532 8.53782 55.073 8.52575L53.6815 8.43244L53.1428 9.71879C53.073 9.88533 52.8314 9.86726 52.7872 9.69216L52.446 8.33996L51.0561 8.22511C50.8762 8.21024 50.8187 7.97487 50.9715 7.87876L52.1521 7.13633L51.8318 5.779C51.7904 5.60326 51.9965 5.4759 52.1351 5.59155L53.206 6.4849L54.3979 5.76088C54.5523 5.66718 54.7372 5.82382 54.67 5.99143Z" fill="#FFE15A"/>
<path d="M58.3226 9.51407L58.285 10.0478L58.7778 10.2561C58.8416 10.283 58.8344 10.3757 58.7671 10.3924L58.248 10.5216L58.2021 11.0546C58.1962 11.1236 58.1058 11.1454 58.0691 11.0866L57.7858 10.6328L57.2647 10.7539C57.1973 10.7696 57.1487 10.6903 57.1932 10.6373L57.5373 10.2277L57.2611 9.76949C57.2253 9.71016 57.2857 9.63948 57.3499 9.66543L57.8458 9.8661L58.1962 9.46181C58.2416 9.40946 58.3275 9.44497 58.3226 9.51407Z" fill="#FFE15A"/>
<path d="M57.6846 7.2879L58.053 7.67588L58.5394 7.45294C58.6023 7.42407 58.6658 7.49196 58.6328 7.55286L58.3776 8.02311L58.7399 8.41675C58.7868 8.46773 58.7419 8.54905 58.6738 8.53644L58.1477 8.43907L57.8853 8.90529C57.8513 8.96565 57.7601 8.94804 57.751 8.87937L57.6811 8.34896L57.1566 8.24347C57.0887 8.2298 57.0772 8.13759 57.1397 8.10772L57.6225 7.87725L57.5608 7.34582C57.5528 7.27706 57.637 7.23768 57.6846 7.2879Z" fill="#FFE15A"/>
<path d="M54.9739 11.7867L54.4536 11.9113L54.1673 11.4593C54.1303 11.4008 54.0401 11.4232 54.0346 11.4922L53.9923 12.0255L53.474 12.1582C53.4069 12.1754 53.4003 12.2681 53.4643 12.2946L53.9584 12.4997L53.9244 13.0336C53.92 13.1027 54.0061 13.1376 54.0511 13.085L54.3988 12.6784L54.8961 12.8757C54.9604 12.9012 55.0203 12.8301 54.9841 12.7711L54.7049 12.3148L55.0462 11.9028C55.0904 11.8494 55.0413 11.7705 54.9739 11.7867Z" fill="#FFE15A"/>
<path d="M57.2251 12.1102L56.7819 11.8104L56.9221 11.2941C56.9402 11.2272 56.8629 11.1758 56.8082 11.2183L56.3862 11.5471L55.9385 11.2543C55.8805 11.2164 55.8076 11.2741 55.8312 11.3392L56.0136 11.8422L55.5967 12.1775C55.5427 12.2209 55.5751 12.308 55.6443 12.3057L56.179 12.2877L56.3691 12.7878C56.3937 12.8525 56.4866 12.8487 56.5058 12.7822L56.6539 12.2681L57.1883 12.2418C57.2574 12.2385 57.2824 12.149 57.2251 12.1102Z" fill="#FFE15A"/>
</g>
<path d="M70.9077 7.01929L59.5626 27.3057" stroke="#DDDDDD" stroke-linecap="round"/>
<defs>
<linearGradient id="paint0_linear_2079_36313" x1="62.5853" y1="28.7188" x2="72.0271" y2="24.5222" gradientUnits="userSpaceOnUse">
<stop stop-color="#989899"/>
<stop offset="1" stop-color="#B1A579"/>
</linearGradient>
<linearGradient id="paint1_linear_2079_36313" x1="38.935" y1="62.1612" x2="25.9108" y2="12.3527" gradientUnits="userSpaceOnUse">
<stop stop-color="#DADADA"/>
<stop offset="1" stop-color="#FFE047"/>
</linearGradient>
<linearGradient id="paint2_linear_2079_36313" x1="28.9346" y1="57.0432" x2="34.0048" y2="65.7929" gradientUnits="userSpaceOnUse">
<stop stop-color="#989899"/>
<stop offset="1" stop-color="#B1A579"/>
</linearGradient>
</defs>
</svg>
