<svg width="80" height="71" viewBox="0 0 80 71" fill="none" xmlns="http://www.w3.org/2000/svg">
<path d="M40.9638 37.2473C38.7739 38.4011 35.9037 38.1173 32.4122 36.7094C25.8516 34.326 31.3129 35.3488 29.8166 34.3316C23.9014 32.113 25.1004 30.9789 26.5782 30.5671C23.4848 28.4417 20.896 27.9522 21.9428 24.487C22.0975 23.9749 22.4736 23.5546 22.9698 23.3545C31.3971 19.9559 47.0227 31.0686 40.9638 37.2473Z" fill="#FEC047"/>
<ellipse rx="27.8657" ry="4.968" transform="matrix(-0.9997 -0.0245031 -0.0245031 0.9997 45.9594 65.1841)" fill="#262626" fill-opacity="0.05"/>
<path fill-rule="evenodd" clip-rule="evenodd" d="M22.4082 57.8238L21.5789 56.3255C21.3942 55.9916 21.5115 55.5691 21.8411 55.3816C22.1707 55.1942 22.5876 55.3128 22.7724 55.6467L24.4339 58.6486C24.4559 58.6883 24.4736 58.7292 24.4871 58.7708L24.6019 58.8231L30.6165 58.8259C30.994 58.8261 31.3003 59.1369 31.3007 59.52C31.3011 59.9032 30.9954 60.2137 30.6179 60.2135L24.457 60.2106L24.3107 60.2105L24.1772 60.1497L20.3709 58.4158C20.0263 58.2588 19.8719 57.8482 20.0261 57.4986C20.1802 57.1491 20.5845 56.993 20.9291 57.15L22.4082 57.8238Z" fill="#EC8822"/>
<path fill-rule="evenodd" clip-rule="evenodd" d="M24.2489 43.6364C28.9917 26.8192 41.9938 7.83042 63.6011 15.9252C64.6716 13.2647 65.7676 12.4898 66.625 12.8941C67.1223 13.15 66.5033 13.6362 65.6506 14.256C64.9155 14.7683 64.3122 15.4548 63.8827 16.032C63.9508 16.0582 64.019 16.0846 64.0873 16.1113C64.1975 16.1608 64.3063 16.2108 64.4137 16.2614C67.8355 12.2976 69.9699 12.5658 70.696 13.5074C71.0751 13.999 70.2711 14.7711 68.2407 14.9119C66.6501 15.0357 65.3043 15.8118 64.5644 16.3332C64.8503 16.4711 65.1261 16.6132 65.392 16.7592C66.1769 16.3546 67.9723 15.5132 69.2507 15.5587C71.113 15.6703 71.3005 17.3762 69.4912 16.8261C68.0711 16.3692 66.3707 16.6438 65.5272 16.8342C73.1925 21.1377 72.4909 28.8286 71.8124 36.2666C71.3901 40.8959 70.9767 45.4272 72.595 48.9829C72.9258 49.7097 73.1762 50.448 73.3489 51.1915C74.5843 50.2742 75.9203 49.373 76.8507 48.9743C78.9792 48.0621 79.8913 51.1027 78.6751 51.7108C77.7021 52.1973 75.8372 52.927 75.0264 53.2311C76.5467 52.9271 79.5873 52.5015 79.5873 53.2311C79.5873 54.1431 79.2832 55.6634 75.9386 55.3594C75.0627 55.2797 74.2715 55.0894 73.5821 54.8479C72.6619 63.9307 60.6971 72.1787 42.1885 67.6569C30.3541 62.9948 20.9045 55.4947 24.2489 43.6364Z" fill="#FFE047"/>
<path fill-rule="evenodd" clip-rule="evenodd" d="M27.5111 64.9592L26.7127 63.4418C26.535 63.104 26.6612 62.6841 26.9946 62.5037C27.3281 62.3234 27.7424 62.451 27.9201 62.7888L29.5181 65.8259C29.5394 65.8664 29.5564 65.9082 29.5691 65.9506L29.6727 66.0005L42.3825 66.0003C42.76 66.0003 43.0664 66.3109 43.0669 66.6941C43.0674 67.0773 42.7618 67.388 42.3843 67.388L29.5205 67.3882L29.3664 67.3882L29.2272 67.3211L25.4584 65.5056C25.1172 65.3413 24.9715 64.9274 25.1329 64.5812C25.2944 64.2351 25.7019 64.0877 26.0431 64.2521L27.5111 64.9592Z" fill="#EC8822"/>
<path d="M44.3568 16.0484C44.8645 16.382 45.7168 16.937 46.1183 17.4059C46.9283 18.3339 48.2008 18.6521 49.4073 18.3767C50.4952 18.1145 51.6458 18.0362 52.8555 18.1705C58.1572 18.741 61.9031 23.2523 61.2891 28.2266C60.6751 33.2009 55.973 36.6286 50.7271 35.861C48.2908 35.5024 46.2254 34.3463 44.7505 32.7145C43.9614 31.8477 42.8519 31.4054 41.7144 31.6024C40.9043 31.756 40.0889 31.7335 39.2641 31.5635C36.1468 30.8544 34.1259 28.1777 33.9402 24.6791C34.8331 22.8934 40.4878 16.6435 44.3568 16.0484Z" fill="white"/>
<path fill-rule="evenodd" clip-rule="evenodd" d="M42.7694 18.9552C42.3181 18.648 41.4602 19.1423 40.8531 20.0592C40.2461 20.9761 40.1198 21.9685 40.571 22.2757C41.0223 22.5829 41.8802 22.0886 42.4873 21.1717C43.0944 20.2547 43.2207 19.2624 42.7694 18.9552ZM53.4472 22.1706C52.8543 21.767 51.727 22.4165 50.9293 23.6212C50.1317 24.826 49.9657 26.1299 50.5586 26.5335C51.1516 26.9372 52.2789 26.2877 53.0765 25.0829C53.8741 23.8782 54.0401 22.5743 53.4472 22.1706Z" fill="#231F20"/>
<path d="M41.2252 27.1478C41.2252 27.1478 42.7091 27.9283 43.3914 29.02C43.9632 29.8944 45.5162 28.1052 45.2883 27.1234C45.0605 26.1417 41.2252 27.1478 41.2252 27.1478Z" fill="#EC6C22"/>
<path d="M45.524 24.1354C45.524 24.1354 43.4148 23.9773 41.374 26.4451C41.374 26.4451 43.6261 26.5282 44.9459 27.4132C46.0044 28.1052 46.4218 24.6182 45.524 24.1354Z" fill="#EC8822"/>
<path fill-rule="evenodd" clip-rule="evenodd" d="M34.0343 24.6674C35.0737 25.1111 37.1708 26.0063 37.5139 24.5349C37.6664 23.8807 36.8982 22.854 35.4263 22.5107C35.0597 22.7038 34.5609 23.3998 34.178 23.9341C33.9841 24.2046 33.82 24.4336 33.7178 24.5348C33.8059 24.5699 33.9129 24.6155 34.0343 24.6674ZM53.3661 31.727C54.838 32.0702 56.1548 31.8181 56.3074 31.164C56.4599 30.5098 55.3904 29.7013 53.9185 29.3581C52.4467 29.0149 51.1298 29.2669 50.9773 29.9211C50.8248 30.5753 51.8943 31.3838 53.3661 31.727Z" fill="#FFA572"/>
<path fill-rule="evenodd" clip-rule="evenodd" d="M29.4381 36.0548C29.6174 35.8755 29.6174 35.5848 29.4381 35.4055C29.2588 35.2262 28.9681 35.2262 28.7888 35.4055L27.8767 36.3176C27.6974 36.4969 27.6974 36.7876 27.8767 36.9669C28.056 37.1462 28.3467 37.1462 28.526 36.9669L29.4381 36.0548ZM32.7297 36.7807C32.7741 36.531 32.6077 36.2927 32.358 36.2483C32.1084 36.2039 31.87 36.3703 31.8256 36.62C31.7735 36.9134 31.755 37.1959 31.7378 37.4597L31.7325 37.5409C31.7156 37.7939 31.907 38.0127 32.16 38.0295C32.413 38.0464 32.6318 37.855 32.6487 37.602L32.6537 37.5253C32.6716 37.2536 32.6869 37.0214 32.7297 36.7807ZM35.7412 37.0299C35.9921 37.0664 36.166 37.2994 36.1295 37.5504C36.0699 37.9601 36.0471 38.3669 36.0471 38.7909C36.0471 39.0445 35.8416 39.25 35.588 39.25C35.3345 39.25 35.1289 39.0445 35.1289 38.7909C35.1289 38.3338 35.1534 37.8815 35.2208 37.4182C35.2573 37.1673 35.4903 36.9934 35.7412 37.0299ZM41.3556 39.0715C41.3182 38.8207 41.0845 38.6478 40.8337 38.6852C40.5829 38.7226 40.41 38.9563 40.4474 39.2071C40.5072 39.608 40.6109 39.9171 40.7305 40.2519C40.8157 40.4907 41.0785 40.6151 41.3172 40.5299C41.556 40.4446 41.6805 40.1819 41.5952 39.9431C41.4799 39.6202 41.4017 39.3802 41.3556 39.0715ZM47.0534 38.6157C47.3069 38.6157 47.5125 38.8213 47.5125 39.0748V40.2944C47.5125 40.5479 47.3069 40.7535 47.0534 40.7535C46.7998 40.7535 46.5942 40.5479 46.5942 40.2944V39.0748C46.5942 38.8213 46.7998 38.6157 47.0534 38.6157ZM29.2332 42.1444C29.3052 41.9012 29.1666 41.6458 28.9234 41.5737C28.6803 41.5017 28.4248 41.6404 28.3528 41.8835C28.2183 42.3374 28.1597 42.7672 28.1597 43.2335C28.1597 43.487 28.3652 43.6926 28.6188 43.6926C28.8724 43.6926 29.0779 43.487 29.0779 43.2335C29.0779 42.8512 29.125 42.5094 29.2332 42.1444ZM33.5486 42.1672C33.8006 42.1952 33.9822 42.4222 33.9542 42.6742L33.8671 43.4582C33.8391 43.7102 33.6121 43.8918 33.3601 43.8638C33.1081 43.8358 32.9265 43.6088 32.9545 43.3568L33.0416 42.5728C33.0696 42.3208 33.2966 42.1392 33.5486 42.1672ZM38.6581 43.105C38.6354 42.8525 38.4123 42.6662 38.1597 42.6889C37.9072 42.7116 37.7208 42.9347 37.7435 43.1872C37.7747 43.5336 37.8035 43.8799 37.8302 44.2267C37.8496 44.4795 38.0703 44.6687 38.3231 44.6492C38.576 44.6298 38.7651 44.409 38.7457 44.1562C38.7187 43.8057 38.6896 43.4554 38.6581 43.105ZM43.5017 43.384C43.7551 43.3767 43.9665 43.5763 43.9737 43.8298C43.9843 44.199 44.0475 44.5147 44.1277 44.9148L44.1392 44.9724C44.1889 45.221 44.0277 45.4629 43.779 45.5126C43.5304 45.5624 43.2885 45.4011 43.2388 45.1525L43.2237 45.077C43.1463 44.6917 43.0687 44.3055 43.0559 43.856C43.0486 43.6026 43.2482 43.3912 43.5017 43.384ZM26.7229 48.0185C26.7197 47.7649 26.5115 47.562 26.258 47.5652C26.0045 47.5684 25.8015 47.7766 25.8047 48.0301C25.8108 48.5067 25.8508 48.967 25.8901 49.4184L25.8935 49.4578C25.9155 49.7104 26.1381 49.8974 26.3907 49.8754C26.6433 49.8535 26.8303 49.6309 26.8083 49.3783L26.806 49.3522C26.7659 48.8911 26.7285 48.4606 26.7229 48.0185ZM30.4129 48.176C30.6657 48.1567 30.8863 48.3461 30.9055 48.5989C30.9156 48.731 30.9121 48.8723 30.9092 48.9881L30.9085 49.0151C30.9053 49.1471 30.904 49.2522 30.9125 49.3442C30.9211 49.4367 30.9373 49.4811 30.9473 49.4993L30.9483 49.5013C30.9508 49.5061 30.9519 49.5082 30.9667 49.5142C31.2021 49.6083 31.3166 49.8755 31.2225 50.1109C31.1283 50.3464 30.8611 50.4609 30.6257 50.3667C30.1434 50.1738 30.0267 49.7346 29.9982 49.4294C29.9839 49.2758 29.9875 49.1188 29.9905 48.9928L29.9908 48.9832C29.994 48.8506 29.9964 48.7528 29.9899 48.6687C29.9707 48.4158 30.16 48.1953 30.4129 48.176ZM36.2189 48.4218C36.1978 48.1692 35.9759 47.9814 35.7232 48.0024C35.4705 48.0235 35.2828 48.2454 35.3038 48.4981C35.352 49.0758 35.5507 49.4487 35.7468 49.8166L35.7469 49.8167C35.7897 49.897 35.8324 49.9771 35.8734 50.059C35.9868 50.2858 36.2625 50.3778 36.4893 50.2644C36.7161 50.151 36.8081 49.8752 36.6947 49.6484C36.6351 49.5293 36.5813 49.4271 36.5331 49.3355C36.3523 48.9922 36.2503 48.7985 36.2189 48.4218ZM40.5739 48.2668C40.8249 48.2305 41.0578 48.4044 41.0942 48.6554C41.1468 49.0184 41.2365 49.3456 41.3435 49.7307C41.4113 49.9751 41.2683 50.2281 41.024 50.296C40.7797 50.3639 40.5266 50.2208 40.4587 49.9765C40.3533 49.597 40.2476 49.2161 40.1854 48.7871C40.149 48.5361 40.323 48.3032 40.5739 48.2668ZM46.1232 48.7351C46.0347 48.4975 45.7703 48.3766 45.5327 48.4652C45.2951 48.5537 45.1743 48.8181 45.2628 49.0557L45.2789 49.0993C45.3909 49.4022 45.5419 49.8106 45.9794 50.0731C46.1969 50.2035 46.4789 50.133 46.6094 49.9156C46.7398 49.6982 46.6693 49.4161 46.4519 49.2857C46.3094 49.2002 46.2547 49.088 46.1232 48.7351ZM30.2147 54.1224C30.455 54.0413 30.7154 54.1704 30.7965 54.4106C30.961 54.8984 31.0733 55.1918 31.3523 55.4242C31.547 55.5865 31.5734 55.876 31.411 56.0708C31.2487 56.2656 30.9592 56.2919 30.7644 56.1296C30.2674 55.7154 30.0882 55.1838 29.9335 54.7251L29.9264 54.7041C29.8454 54.4639 29.9744 54.2034 30.2147 54.1224ZM35.1314 54.0995C35.0228 53.8703 34.7491 53.7726 34.5199 53.8811C34.2907 53.9897 34.193 54.2634 34.3015 54.4926C34.4909 54.8924 34.6684 55.0715 34.9145 55.3176C35.0937 55.4968 35.3844 55.4968 35.5637 55.3176C35.743 55.1383 35.743 54.8476 35.5637 54.6683C35.338 54.4426 35.2517 54.3536 35.1314 54.0995ZM39.0871 53.2991C39.3011 53.1629 39.5848 53.226 39.721 53.4399L39.7409 53.4713L39.7409 53.4713L39.7409 53.4713C39.8827 53.6943 40.0621 53.9765 40.2684 54.1852C40.5061 54.4256 40.6112 54.4056 40.644 54.3925C40.8794 54.2984 41.1466 54.4129 41.2408 54.6483C41.3349 54.8837 41.2204 55.1509 40.985 55.2451C40.3913 55.4826 39.893 55.1116 39.6154 54.8308C39.3364 54.5487 39.1084 54.1887 38.9741 53.9768L38.9463 53.9329C38.8102 53.719 38.8732 53.4352 39.0871 53.2991ZM45.245 54.1589C45.0728 53.9727 44.7824 53.9613 44.5962 54.1335C44.41 54.3056 44.3986 54.5961 44.5707 54.7823C44.912 55.1514 45.2866 55.4927 45.7865 55.7427C45.835 55.7669 45.909 55.7934 45.9594 55.8106C46.0324 55.8594 46.1201 55.8879 46.2145 55.8879C46.2292 55.8879 46.2619 55.8875 46.3011 55.8811C46.3204 55.8779 46.3569 55.8707 46.3999 55.8535C46.4358 55.8392 46.5266 55.7984 46.5998 55.6997C46.6922 55.5752 46.7104 55.4222 46.6707 55.2915C46.6393 55.1879 46.5801 55.1238 46.5563 55.0998C46.5072 55.0503 46.4573 55.0231 46.4451 55.0164L46.4443 55.0159C46.3952 54.9891 46.3349 54.9684 46.3147 54.9614L46.3111 54.9602L46.2656 54.9446C46.2516 54.9399 46.2393 54.9358 46.2211 54.9293C46.2113 54.9259 46.2042 54.9233 46.1994 54.9215C46.1947 54.9197 46.1922 54.9188 46.1915 54.9185C45.8346 54.7389 45.5488 54.4875 45.245 54.1589Z" fill="#FEC047"/>
<path d="M71.1699 48.5774C45.1093 48.5774 28.7368 32.7307 28.5866 32.5805C28.2862 32.2801 28.2862 31.8295 28.5866 31.5666C28.887 31.2662 29.3377 31.2662 29.6005 31.5666C29.7507 31.7168 45.7476 47.1504 71.1699 47.1504C71.583 47.1504 71.8834 47.4884 71.8834 47.8639C71.921 48.2394 71.583 48.5774 71.1699 48.5774Z" fill="#2771FF"/>
<path d="M63.0589 46.5119C63.0589 46.5119 62.7585 47.6385 63.6973 49.2907C64.6361 50.943 64.3732 52.1071 65.0116 52.8957C65.8002 53.9096 68.9921 53.7593 71.508 52.8206C74.1741 51.8067 74.0991 50.6426 74.1742 49.854C74.2493 49.0654 73.9489 46.7372 71.3578 45.6858L63.0589 46.5119Z" fill="#2771FF"/>
<mask id="mask0_2286_40644" style="mask-type:alpha" maskUnits="userSpaceOnUse" x="63" y="45" width="12" height="9">
<path d="M63.0589 46.5119C63.0589 46.5119 62.7585 47.6385 63.6973 49.2907C64.6361 50.943 64.3732 52.1071 65.0116 52.8957C65.8002 53.9096 68.9921 53.7593 71.508 52.8206C74.1741 51.8067 74.0991 50.6426 74.1742 49.854C74.2493 49.0654 73.9489 46.7372 71.3578 45.6858L63.0589 46.5119Z" fill="#2D42FF"/>
</mask>
<g mask="url(#mask0_2286_40644)">
<mask id="mask1_2286_40644" style="mask-type:alpha" maskUnits="userSpaceOnUse" x="61" y="44" width="15" height="12">
<rect x="61.8953" y="47.6565" width="11.4167" height="7.80336" transform="rotate(-16.9691 61.8953 47.6565)" fill="#D9D9D9"/>
</mask>
<g mask="url(#mask1_2286_40644)">
<path fill-rule="evenodd" clip-rule="evenodd" d="M67.8719 50.3034L63.1448 49.1002L63.2982 47.926L68.8126 49.3296L72.7661 45.2371L73.5139 46.1553L70.1248 49.6636L74.8519 50.8667L74.7752 51.4538L74.6985 52.0409L69.184 50.6373L65.0953 54.7352L64.4828 53.8116L67.8719 50.3034Z" fill="white"/>
<path fill-rule="evenodd" clip-rule="evenodd" d="M68.3241 50.1753L63.1771 48.8653L63.2691 48.1608L68.8885 49.5911L72.9173 45.4207L73.3659 45.9716L69.6758 49.7915L74.8228 51.1015L74.7307 51.806L69.1113 50.3757L65.0826 54.5461L64.634 53.9952L68.3241 50.1753Z" fill="#C8102E"/>
<path fill-rule="evenodd" clip-rule="evenodd" d="M67.9264 49.2767L67.2795 46.9987L68.8915 46.5409L69.5384 48.8189L73.6917 47.6394L74.2232 49.5109L70.07 50.6905L70.7612 53.1244L69.1492 53.5822L68.4579 51.1483L64.3047 52.3278L63.7732 50.4563L67.9264 49.2767Z" fill="white"/>
<path fill-rule="evenodd" clip-rule="evenodd" d="M68.3283 49.5417L67.5282 46.7246L68.5358 46.4385L69.3358 49.2555L73.7913 47.9902L74.1235 49.1599L69.668 50.4253L70.4589 53.2101L69.4514 53.4962L68.6605 50.7114L64.205 51.9768L63.8728 50.8071L68.3283 49.5417Z" fill="#C8102E"/>
</g>
</g>
<path fill-rule="evenodd" clip-rule="evenodd" d="M66.0637 49.9296C65.3878 47.5638 63.0596 46.5124 63.0596 46.5124C66.1012 45.1981 72.0344 44.2593 72.0344 44.2593C73.3487 45.1981 73.7617 47.5638 73.7617 47.5638C73.4621 48.1109 73.0349 48.5394 72.5333 48.8739L72.634 49.5538C72.7091 49.8167 72.5589 50.1171 72.296 50.2297C71.4205 50.631 70.1906 50.7842 69.5703 50.8615C69.5521 50.8638 69.5344 50.866 69.5172 50.8681C69.3295 50.9057 69.1417 50.793 69.1042 50.6052L68.9246 49.9641C67.3629 50.1011 66.0637 49.9296 66.0637 49.9296ZM69.798 49.8555C69.8823 50.0146 70.0565 50.0768 70.2307 50.042L71.7328 49.6289L71.7632 49.2945C71.1436 49.5705 70.4646 49.7464 69.798 49.8555Z" fill="#2771FF"/>
<path d="M69.1397 46.0084L69.7435 46.8118L69.7759 46.8549L69.8297 46.8516L70.8327 46.7884L70.2552 47.6109L70.2242 47.655L70.244 47.7052L70.6141 48.6396L69.6534 48.3445L69.6018 48.3286L69.5602 48.363L68.7859 49.0037L68.7697 47.9988L68.7688 47.9449L68.7233 47.916L67.8747 47.3775L68.8254 47.0516L68.8764 47.0341L68.8898 46.9818L69.1397 46.0084Z" fill="#C8102E" stroke="white" stroke-width="0.2"/>
<path d="M50.5627 38.5229C49.0143 40.454 48.7482 43.3259 49.4677 47.0212C50.5625 53.9148 50.595 48.3587 51.3096 50.0208C52.3651 56.2497 53.7062 55.2877 54.391 53.9149C55.8906 57.3555 55.8798 59.9902 59.4807 59.6201C60.0129 59.5654 60.497 59.276 60.7876 58.8268C65.7239 51.1977 57.7792 33.7469 50.5627 38.5229Z" fill="#FEC047"/>
<path d="M9.74141 7.12946C13.1495 1.97115 16.8502 1.97157 19.0072 1.70774C19.937 3.83478 22.5 12.0302 23.5 15.5C18.4826 15.2251 16.3905 16.995 14 20.5C11.6095 24.005 8.316 24.5622 6 25L0.907726 11.0302C2.4137 11.1294 5.99252 12.8036 9.74141 7.12946Z" fill="#2771FF"/>
<mask id="mask2_2286_40644" style="mask-type:alpha" maskUnits="userSpaceOnUse" x="0" y="1" width="24" height="24">
<path d="M9.74141 7.12946C13.1495 1.97115 16.8502 1.97157 19.0072 1.70774C19.937 3.83478 22.5 12.0302 23.5 15.5C18.4826 15.2251 16.3905 16.995 14 20.5C11.6095 24.005 8.316 24.5622 6 25L0.907726 11.0302C2.4137 11.1294 5.99252 12.8036 9.74141 7.12946Z" fill="#00008B"/>
</mask>
<g mask="url(#mask2_2286_40644)">
<path d="M14.4857 4.74239L15.0584 5.29174L15.0973 5.32907L15.1499 5.31706L15.9236 5.14026L15.5781 5.8547L15.5546 5.90325L15.5823 5.94955L15.9895 6.63069L15.2033 6.52289L15.1498 6.51556L15.1143 6.55619L14.5924 7.15395L14.4519 6.37289L14.4424 6.31981L14.3928 6.29863L13.663 5.98692L14.3624 5.612L14.41 5.58652L14.4148 5.5328L14.4857 4.74239Z" fill="#C8102E" stroke="white" stroke-width="0.2"/>
<path d="M14.4857 10.6901L15.0584 11.2395L15.0973 11.2768L15.1499 11.2648L15.9236 11.088L15.5781 11.8025L15.5546 11.851L15.5823 11.8973L15.9895 12.5784L15.2033 12.4706L15.1498 12.4633L15.1143 12.5039L14.5924 13.1017L14.4519 12.3206L14.4424 12.2676L14.3928 12.2464L13.663 11.9347L14.3624 11.5598L14.41 11.5343L14.4148 11.4806L14.4857 10.6901Z" fill="#C8102E" stroke="white" stroke-width="0.2"/>
<path d="M17.4857 12.6901L18.0584 13.2395L18.0973 13.2768L18.1499 13.2648L18.9236 13.088L18.5781 13.8025L18.5546 13.851L18.5823 13.8973L18.9895 14.5784L18.2033 14.4706L18.1498 14.4633L18.1143 14.5039L17.5924 15.1017L17.4519 14.3206L17.4424 14.2676L17.3928 14.2464L16.663 13.9347L17.3624 13.5598L17.41 13.5343L17.4148 13.4806L17.4857 12.6901Z" fill="#C8102E" stroke="white" stroke-width="0.2"/>
<path d="M17.4857 7.69015L18.0584 8.23949L18.0973 8.27683L18.1499 8.26481L18.9236 8.08802L18.5781 8.80245L18.5546 8.85101L18.5823 8.8973L18.9895 9.57844L18.2033 9.47064L18.1498 9.46331L18.1143 9.50394L17.5924 10.1017L17.4519 9.32065L17.4424 9.26756L17.3928 9.24638L16.663 8.93468L17.3624 8.55976L17.41 8.53427L17.4148 8.48056L17.4857 7.69015Z" fill="#C8102E" stroke="white" stroke-width="0.2"/>
<mask id="mask3_2286_40644" style="mask-type:alpha" maskUnits="userSpaceOnUse" x="0" y="7" width="13" height="11">
<rect y="11.2847" width="10.6936" height="7.26365" transform="rotate(-23.6205 0 11.2847)" fill="#D9D9D9"/>
</mask>
<g mask="url(#mask3_2286_40644)">
<path fill-rule="evenodd" clip-rule="evenodd" d="M5.5623 13.2199L0.690791 12.8624L0.724634 11.7426L6.40747 12.1597L9.9594 7.70411L10.8045 8.43948L7.75969 12.259L12.6312 12.6165L12.6143 13.1764L12.5973 13.7362L6.91451 13.3192L3.2273 17.8016L2.51747 17.0394L5.5623 13.2199Z" fill="white"/>
<path fill-rule="evenodd" clip-rule="evenodd" d="M6.00194 13.0276L0.697727 12.6383L0.718032 11.9665L6.50904 12.3915L10.1286 7.85109L10.6357 8.2923L7.32037 12.451L12.6246 12.8403L12.6043 13.5122L6.81327 13.0872L3.19373 17.6276L2.68666 17.1864L6.00194 13.0276Z" fill="#C8102E"/>
<path fill-rule="evenodd" clip-rule="evenodd" d="M5.51134 12.2537L4.62811 10.2341L6.20043 9.54646L7.08367 11.5661L11.1346 9.79458L11.8602 11.4538L7.80929 13.2254L8.75294 15.3832L7.18062 16.0708L6.23696 13.913L2.186 15.6845L1.46038 14.0253L5.51134 12.2537Z" fill="white"/>
<path fill-rule="evenodd" clip-rule="evenodd" d="M5.94214 12.4359L4.84992 9.93839L5.83262 9.50864L6.92484 12.0062L11.2706 10.1057L11.7241 11.1427L7.37835 13.0432L8.45806 15.5122L7.47536 15.9419L6.39565 13.473L2.04988 15.3734L1.59637 14.3364L5.94214 12.4359Z" fill="#C8102E"/>
</g>
</g>
<path d="M18.5 1.5L27.5 27" stroke="#DDDDDD" stroke-linecap="round"/>
</svg>
