<svg width="80" height="70" viewBox="0 0 80 70" fill="none" xmlns="http://www.w3.org/2000/svg">
<ellipse rx="27.5806" ry="3.66832" transform="matrix(-0.999913 -0.0131704 -0.0131704 0.999913 33.6269 65.981)" fill="#262626" fill-opacity="0.05"/>
<path d="M42.4345 31.6405C59.145 29.0655 66.1014 21.9276 69.5795 26.3131C73.2227 30.8797 60.857 33.8682 60.857 33.8682C60.857 33.8682 66.2749 33.1045 66.768 35.5715C67.5229 39.3245 61.5465 39.4042 57.6561 39.7032C57.6561 39.7032 61.356 38.9813 62.1028 41.0845C63.2229 44.2393 51.5704 47.4393 45.8028 41.8268C42.0559 38.2166 37.3947 32.3909 42.4345 31.6405Z" fill="url(#paint0_linear_2286_40645)"/>
<path d="M36.6702 64.3037C36.7912 64.344 36.9121 64.3037 37.033 64.2634C37.4362 64.1424 37.6378 63.699 37.4765 63.3362L37.0734 62.167L39.4116 63.2958C39.7744 63.4571 40.2179 63.2958 40.3791 62.933C40.5404 62.5702 40.3791 62.1267 40.0163 61.9655L36.1058 60.111C35.8236 59.9901 35.5011 60.0304 35.2995 60.2319C35.0979 60.4335 34.977 60.756 35.0979 61.0382L36.0655 63.8602C36.1864 64.1021 36.4283 64.2634 36.6702 64.3037Z" fill="#EC8822"/>
<path d="M19.6991 66.3599C19.82 66.4002 19.9409 66.4405 20.0619 66.4405C20.465 66.4002 20.7876 66.0374 20.7472 65.6342L20.6666 64.4248L22.642 66.0777C22.9645 66.3599 23.408 66.3196 23.6902 65.9971C23.9724 65.6746 23.9321 65.2311 23.6096 64.9489L20.2635 62.1672C20.0216 61.9656 19.6991 61.9253 19.4572 62.0866C19.175 62.2075 19.054 62.4897 19.054 62.8122L19.2959 65.7955C19.2959 66.0374 19.4572 66.239 19.6991 66.3599Z" fill="#EC8822"/>
<path d="M25.2215 9.23411C38.9688 7.78279 51.3453 18.2242 52.2726 31.4071C53.1998 44.9527 47.8783 54.346 39.7348 59.7079C38.0012 60.877 35.8646 61.0785 34.0101 60.4335C32.8813 60.0304 31.6315 59.9497 30.3415 60.1513C29.0111 60.3529 27.8017 60.9173 26.7938 61.6429C25.0603 62.8927 20.8676 63.3361 18.9325 62.812C9.53921 60.2319 3.97581 51.2015 2.48417 36.9302C0.992533 23.0217 11.0308 10.7257 25.2215 9.23411Z" fill="url(#paint1_linear_2286_40645)"/>
<path d="M23.8108 19.8774C25.7459 19.6759 28.0035 19.9177 29.9789 20.5225C31.3899 20.9659 32.9219 20.6434 34.0104 19.5952C35.2601 18.4261 37.1146 17.6601 39.1303 17.4586C45.0968 16.8538 50.0958 21.49 50.7812 27.7791C51.4665 34.1488 47.0319 39.7525 40.9445 40.1959C39.6544 40.2766 38.6868 40.1153 37.7596 39.7928C36.3486 39.2284 34.7763 39.4299 33.5669 40.3169C31.4302 41.8891 28.4873 42.9373 25.8265 43.1389C19.2149 43.6227 13.5306 38.7849 13.0065 32.4555C12.5227 26.1262 17.3202 20.5628 23.8108 19.8774Z" fill="white"/>
<path d="M21.9575 29.0165C21.5529 27.6765 22.3241 26.2583 23.6799 25.849C25.0357 25.4397 26.4628 26.1942 26.8673 27.5343C27.2719 28.8744 26.5007 30.2925 25.1449 30.7018C23.7891 31.1111 22.362 30.3566 21.9575 29.0165Z" fill="#231F20"/>
<path d="M39.8312 25.6652C39.4267 24.3252 40.1978 22.907 41.5537 22.4977C42.9095 22.0884 44.3366 22.8429 44.7411 24.183C45.1457 25.523 44.3745 26.9412 43.0187 27.3505C41.6629 27.7598 40.2358 27.0053 39.8312 25.6652Z" fill="#231F20"/>
<path d="M37.5174 28.545C37.5174 28.545 37.9609 29.6738 37.5578 33.1006C37.5578 33.1006 35.7436 31.2864 32.9619 29.0288C32.9619 29.0288 35.7033 27.134 37.5174 28.545Z" fill="#EC8822"/>
<path d="M6.15313 35.3985C6.15313 35.3985 10.9506 36.5273 11.1924 42.0504C11.4746 47.5331 6.99974 50.4358 9.45893 56.7651C9.45893 56.7651 0.791303 52.2903 0.0656417 43.7839C-0.418132 37.7367 1.79917 34.5922 6.15313 35.3985Z" fill="url(#paint2_linear_2286_40645)"/>
<path d="M25.5042 11.8145C25.5042 11.8145 23.1256 9.96008 20.223 9.79882C17.7638 9.67788 18.3282 7.82341 20.747 8.58939C22.6821 9.23442 25.5042 11.8145 25.5042 11.8145Z" fill="#989899"/>
<path d="M27.0759 11.7741C27.0759 11.7741 26.955 9.03277 28.4466 7.1783C29.4948 5.84792 28.5272 4.96101 27.8419 5.00132C26.6324 5.12226 25.9874 7.09767 27.0759 11.7741Z" fill="#989899"/>
<path d="M28.2452 11.1695C28.2452 11.1695 30.9462 6.29143 33.4054 6.89615C35.0986 7.33961 30.3818 9.07314 28.2452 11.1695Z" fill="#989899"/>
<path d="M24.777 45.2156C24.7004 45.6849 24.6348 46.1522 24.5759 46.6233" stroke="#FEC047" stroke-width="1.1171" stroke-linecap="round"/>
<path d="M32.3958 44.0984C32.4071 44.5651 32.4761 44.8825 32.5969 45.305" stroke="#FEC047" stroke-width="1.1171" stroke-linecap="round"/>
<path d="M38.7114 43.4583L38.9125 44.4638" stroke="#FEC047" stroke-width="1.1171" stroke-linecap="round"/>
<path d="M45.8008 41.8643C45.8008 42.2233 45.8008 42.6227 45.8008 42.9814" stroke="#FEC047" stroke-width="1.1171" stroke-linecap="round"/>
<path d="M35.7468 47.4497C35.7468 48.1944 35.7468 48.1944 35.7468 48.5668" stroke="#FEC047" stroke-width="1.1171" stroke-linecap="round"/>
<path d="M48.0352 45.2156C48.0352 45.9603 48.0352 45.9603 48.0352 46.3327" stroke="#FEC047" stroke-width="1.1171" stroke-linecap="round"/>
<path d="M42.4497 46.3328C42.4497 46.7046 42.4497 47.1084 42.4497 47.4499" stroke="#FEC047" stroke-width="1.1171" stroke-linecap="round"/>
<path d="M29.0444 47.4497C29.0444 47.8216 29.0444 48.2253 29.0444 48.5668" stroke="#FEC047" stroke-width="1.1171" stroke-linecap="round"/>
<path d="M23.459 51.9182C23.459 52.2901 23.459 52.6938 23.459 53.0353" stroke="#FEC047" stroke-width="1.1171" stroke-linecap="round"/>
<path d="M26.8101 50.801C26.8101 51.1729 26.8101 51.5766 26.8101 51.9181" stroke="#FEC047" stroke-width="1.1171" stroke-linecap="round"/>
<path d="M25.6934 55.2695C25.6934 55.6414 25.6934 56.0451 25.6934 56.3866" stroke="#FEC047" stroke-width="1.1171" stroke-linecap="round"/>
<path d="M30.1614 55.2695C30.1614 55.6414 30.1614 56.0451 30.1614 56.3866" stroke="#FEC047" stroke-width="1.1171" stroke-linecap="round"/>
<path d="M35.7468 54.1523C35.7468 54.5242 35.7468 54.9279 35.7468 55.2694" stroke="#FEC047" stroke-width="1.1171" stroke-linecap="round"/>
<path d="M41.3323 53.0352C41.3323 53.407 41.3323 53.8108 41.3323 54.1523" stroke="#FEC047" stroke-width="1.1171" stroke-linecap="round"/>
<path d="M32.5969 50.801C32.5183 51.2037 32.4536 51.6027 32.3958 52.0076" stroke="#FEC047" stroke-width="1.1171" stroke-linecap="round"/>
<path d="M39.2995 49.6838C39.2869 50.1877 39.0984 50.6168 39.0984 51.0916" stroke="#FEC047" stroke-width="1.1171" stroke-linecap="round"/>
<path d="M44.8849 49.6838C44.8723 50.1877 44.6838 50.6168 44.6838 51.0916" stroke="#FEC047" stroke-width="1.1171" stroke-linecap="round"/>
<ellipse cx="24.7784" cy="34.9858" rx="3.34206" ry="1.48536" transform="rotate(-10.2866 24.7784 34.9858)" fill="#FFA895" fill-opacity="0.58"/>
<ellipse cx="47.1205" cy="29.4003" rx="3.34206" ry="1.48536" transform="rotate(-10.2866 47.1205 29.4003)" fill="#FFA895" fill-opacity="0.58"/>
<path d="M66.3158 5.72367C72.4772 5.21374 74.7646 8.12289 76.3054 9.65526C75.2083 11.701 70.3508 18.7819 68.2416 21.7129C65.356 17.5991 62.6716 17.0488 58.4387 17.3365C54.2058 17.6242 51.7319 15.3799 49.9561 13.8301L57.7888 1.1915C58.6419 2.43651 59.5382 6.28458 66.3158 5.72367Z" fill="#2771FF"/>
<mask id="mask0_2286_40645" style="mask-type:alpha" maskUnits="userSpaceOnUse" x="49" y="1" width="28" height="21">
<path d="M66.316 5.72367C72.4775 5.21374 74.7649 8.12289 76.3057 9.65526C75.2085 11.701 70.351 18.7819 68.2419 21.7129C65.3562 17.5991 62.6718 17.0488 58.4389 17.3365C54.2061 17.6242 51.7322 15.3799 49.9563 13.8301L57.7891 1.1915C58.6421 2.43651 59.5385 6.28458 66.316 5.72367Z" fill="#00008B"/>
</mask>
<g mask="url(#mask0_2286_40645)">
<path d="M71.1251 7.97724L71.0474 8.76701L71.0421 8.82068L71.084 8.85458L71.7012 9.3534L70.9261 9.52349L70.8734 9.53505L70.8541 9.58542L70.5705 10.3266L70.1692 9.64193L70.1419 9.5954L70.088 9.59263L69.2955 9.55188L69.8226 8.95865L69.8585 8.91833L69.8444 8.86625L69.6383 8.09991L70.3654 8.41792L70.4148 8.43953L70.46 8.41011L71.1251 7.97724Z" fill="#C8102E" stroke="white" stroke-width="0.2"/>
<path d="M66.4501 11.654L66.3723 12.4438L66.367 12.4974L66.409 12.5313L67.0262 13.0302L66.2511 13.2002L66.1984 13.2118L66.1791 13.2622L65.8954 14.0033L65.4941 13.3187L65.4669 13.2722L65.413 13.2694L64.6205 13.2286L65.1476 12.6354L65.1834 12.5951L65.1694 12.543L64.9632 11.7767L65.6903 12.0947L65.7397 12.1163L65.7849 12.0869L66.4501 11.654Z" fill="#C8102E" stroke="white" stroke-width="0.2"/>
<path d="M66.7326 15.2485L66.6548 16.0382L66.6495 16.0919L66.6914 16.1258L67.3087 16.6246L66.5335 16.7947L66.4808 16.8063L66.4616 16.8567L66.1779 17.5978L65.7766 16.9132L65.7493 16.8666L65.6955 16.8639L64.9029 16.8231L65.4301 16.2299L65.4659 16.1896L65.4519 16.1375L65.2457 15.3712L65.9728 15.6892L66.0222 15.7108L66.0674 15.6814L66.7326 15.2485Z" fill="#C8102E" stroke="white" stroke-width="0.2"/>
<path d="M70.6627 12.1577L70.585 12.9474L70.5797 13.0011L70.6216 13.035L71.2388 13.5338L70.4637 13.7039L70.411 13.7155L70.3917 13.7658L70.1081 14.507L69.7068 13.8224L69.6795 13.7758L69.6256 13.7731L68.8331 13.7323L69.3602 13.1391L69.3961 13.0988L69.382 13.0467L69.1759 12.2803L69.903 12.5983L69.9524 12.62L69.9976 12.5905L70.6627 12.1577Z" fill="#C8102E" stroke="white" stroke-width="0.2"/>
<mask id="mask1_2286_40645" style="mask-type:alpha" maskUnits="userSpaceOnUse" x="53" y="0" width="14" height="13">
<rect x="57.0278" y="0.635498" width="10.6936" height="7.26365" transform="rotate(28.1958 57.0278 0.635498)" fill="#D9D9D9"/>
</mask>
<g mask="url(#mask1_2286_40645)">
<path fill-rule="evenodd" clip-rule="evenodd" d="M58.9452 6.20366L56.2148 2.15347L57.1159 1.48787L60.3011 6.2126L65.9991 6.25015L65.9435 7.36903L61.059 7.33684L63.7894 11.387L63.3389 11.7198L62.8883 12.0526L59.7031 7.3279L53.9004 7.20062L54.0607 6.17147L58.9452 6.20366Z" fill="white"/>
<path fill-rule="evenodd" clip-rule="evenodd" d="M59.3684 6.4304L56.3954 2.02045L56.936 1.62109L60.1818 6.43576L65.9883 6.47403L65.955 7.14536L60.6366 7.1103L63.6096 11.5203L63.0689 11.9196L59.8231 7.10494L54.0166 7.06668L54.05 6.39535L59.3684 6.4304Z" fill="#C8102E"/>
<path fill-rule="evenodd" clip-rule="evenodd" d="M59.6731 5.56649L60.7146 3.62371L62.2271 4.43455L61.1855 6.37732L65.0823 8.46637L64.2266 10.0625L60.3299 7.97341L59.2171 10.0491L57.7046 9.23826L58.8174 7.16258L54.9207 5.07354L55.7763 3.47744L59.6731 5.56649Z" fill="white"/>
<path fill-rule="evenodd" clip-rule="evenodd" d="M59.7962 6.0178L61.0841 3.61534L62.0294 4.12211L60.7415 6.52457L64.9218 8.76565L64.387 9.76321L60.2067 7.52213L58.9335 9.89708L57.9882 9.39031L59.2614 7.01536L55.0811 4.77428L55.6158 3.77673L59.7962 6.0178Z" fill="#C8102E"/>
</g>
</g>
<path d="M76.1553 9.12817L61.6751 31.9662" stroke="#DDDDDD" stroke-linecap="round"/>
<defs>
<linearGradient id="paint0_linear_2286_40645" x1="48.6577" y1="33.4293" x2="69.1293" y2="39.054" gradientUnits="userSpaceOnUse">
<stop stop-color="#989899"/>
<stop offset="1" stop-color="#B1A579"/>
</linearGradient>
<linearGradient id="paint1_linear_2286_40645" x1="28.2266" y1="57.5618" x2="16.1929" y2="7.23745" gradientUnits="userSpaceOnUse">
<stop stop-color="#DADADA"/>
<stop offset="1" stop-color="#FFE047"/>
</linearGradient>
<linearGradient id="paint2_linear_2286_40645" x1="0.000491614" y1="37.3959" x2="1.59154" y2="57.1579" gradientUnits="userSpaceOnUse">
<stop stop-color="#989899"/>
<stop offset="1" stop-color="#B1A579"/>
</linearGradient>
</defs>
</svg>
