<svg width="80" height="70" viewBox="0 0 80 70" fill="none" xmlns="http://www.w3.org/2000/svg">
<path fill-rule="evenodd" clip-rule="evenodd" d="M18.798 25L23.2278 23.5907L24 19.6095C23.6648 19.4085 23.2393 19.1365 22.7722 18.8378C21.1057 17.7722 18.9091 16.3676 18.3873 16.6401C18.2352 16.5851 18.1826 16.5074 18.132 16.4328C18.0279 16.2791 17.9326 16.1385 16.9962 16.2362C16.6415 15.9313 16.4474 15.988 16.2503 16.0456C16.1614 16.0716 16.0718 16.0978 15.9666 16.0911C15.7488 16.0771 15.5334 16.0748 15.3209 16.0856C14.5929 16.1225 14.046 16.7292 14.0092 17.4572C13.9757 18.1182 14.0352 18.758 14.1648 19.3669C14.6303 20.3388 14.5171 20.6678 14.438 20.8976C14.3422 21.1761 14.2965 21.3088 15.3919 22.263C14.6792 22.4459 15.4901 22.994 16.155 23.4434C16.3946 23.6054 16.6153 23.7545 16.7388 23.8691C15.3919 23.8691 18.2832 25 18.798 25ZM59.202 26L54.7722 24.5907L54 20.6095C54.3352 20.4085 54.7607 20.1365 55.2278 19.8378C56.8943 18.7722 59.0909 17.3676 59.6127 17.6401C59.7648 17.5851 59.8174 17.5074 59.868 17.4328C59.9721 17.2791 60.0674 17.1385 61.0038 17.2362C61.3585 16.9313 61.5526 16.988 61.7497 17.0456C61.8386 17.0716 61.9282 17.0978 62.0334 17.0911C62.2512 17.0771 62.4666 17.0748 62.6791 17.0856C63.4071 17.1225 63.954 17.7292 63.9908 18.4572C64.0243 19.1182 63.9648 19.758 63.8352 20.3669C63.3697 21.3388 63.4829 21.6678 63.562 21.8976C63.6578 22.1761 63.7035 22.3088 62.6081 23.263C63.3208 23.4459 62.5099 23.994 61.845 24.4434C61.6054 24.6054 61.3847 24.7545 61.2612 24.8691C62.6081 24.8691 59.7168 26 59.202 26Z" fill="#FEC047"/>
<path d="M61 21C53.8 23.4 30 22 19 21L23.5 17.5H56C56.3333 17.1667 57.8 17.4 61 21Z" fill="black" fill-opacity="0.35"/>
<path d="M21.7192 20.2591C20.077 20.049 25.1404 16.1459 27.8774 14.2206C43.4781 7.70949 51.997 12.5578 54.3064 15.7958C56.017 17.2836 59.3356 20.4166 58.925 21.0467C58.5145 21.6768 57.3855 21.3092 56.8723 21.0467C58.0697 22.0094 60.362 24.0922 59.9514 24.7223C59.5409 25.3524 57.5566 23.7596 56.6157 22.8845C57.8131 24.2847 59.9514 27.1377 58.925 27.3477C57.8987 27.5578 57.1289 26.9102 56.8723 26.5601C56.017 31.3734 51.1247 41 38.3977 41C25.6707 41 22.3179 31.3734 22.2324 26.5601C21.8903 26.5601 21.0008 26.3501 20.1798 25.5099C19.4162 24.7286 21.2566 23.1297 22.4811 22.2762C22.2089 22.4076 21.7726 22.5043 21.206 22.3594C20.4861 22.1753 21.8177 20.9012 22.8485 20.0591C22.6025 20.1699 22.2371 20.2591 21.7192 20.2591Z" fill="#FFE047"/>
<path d="M22.8089 19.7213L22.4267 19.8647C22.3645 19.8881 22.2986 19.9 22.2322 19.9C21.7547 19.9 21.5012 19.3358 21.8184 18.9788L23.073 17.5666C23.2839 17.3293 23.5691 17.1705 23.882 17.1163L29.9821 16.06C30.2126 16.0201 30.4462 16 30.6801 16H54.3646C55.6738 16 56.8978 16.6313 57.7009 17.6653C58.4516 18.6318 59.257 19.6075 59.6468 19.9C60.3657 20.4395 59.1375 20.9089 58.2959 20.5932L57.7877 20.4025C56.9272 20.0796 55.9761 20.0959 55.1271 20.4479L52.9999 21.3301C51.968 21.758 50.8061 21.7453 49.7839 21.2951L47.1266 20.1247C45.9479 19.6055 44.5936 19.6718 43.4712 20.3034L42.3174 20.9528C41.1515 21.6089 39.7385 21.6536 38.5336 21.0723L36.6812 20.1787C35.5331 19.6249 34.1924 19.6379 33.0553 20.2139L31.3332 21.0861C30.1961 21.6621 28.8554 21.6751 27.7073 21.1213L25.0121 19.8211C24.3221 19.4883 23.5261 19.4522 22.8089 19.7213Z" fill="black" fill-opacity="0.15"/>
<path fill-rule="evenodd" clip-rule="evenodd" d="M33 22C33.5523 22 34 21.5523 34 21C34 20.4477 33.5523 20 33 20C32.4477 20 32 20.4477 32 21C32 21.5523 32.4477 22 33 22ZM46 22C46.5523 22 47 21.5523 47 21C47 20.4477 46.5523 20 46 20C45.4477 20 45 20.4477 45 21C45 21.5523 45.4477 22 46 22Z" fill="#443635"/>
<mask id="mask0_2286_41549" style="mask-type:alpha" maskUnits="userSpaceOnUse" x="16" y="22" width="47" height="35">
<path d="M39.5541 57C58.2345 57 67.2437 43.6789 61.0662 25.5L56.0938 22.6393C55.4143 22.2483 54.5711 22.2801 53.923 22.7212L50.9907 24.7168C50.2963 25.1894 49.3835 25.1894 48.6891 24.7168L45.8478 22.7832C45.1533 22.3106 44.2406 22.3106 43.5461 22.7832L40.7049 24.7168C40.0105 25.1894 39.0977 25.1894 38.4033 24.7168L35.562 22.7832C34.8676 22.3106 33.9548 22.3106 33.2604 22.7832L30.4121 24.7216C29.7212 25.1918 28.8137 25.1944 28.1201 24.7281L25.1063 22.7021C24.4659 22.2715 23.6376 22.2381 22.9645 22.6156L17.8224 25.5C10.8723 47.858 25.0295 57 39.5541 57Z" fill="#D9D9D9"/>
</mask>
<g mask="url(#mask0_2286_41549)">
<path d="M63 37.7885C63 48.4327 52.4787 57 39.5 57C26.5213 57 16 47.9135 16 37.7885C16 22.8768 26.5213 3 39.5 3C52.4787 3 63 22.8768 63 37.7885Z" fill="#FEFFFF"/>
<rect x="17" y="-2" width="45" height="30" fill="#1D88EC"/>
<path fill-rule="evenodd" clip-rule="evenodd" d="M20.0009 23L20.4501 24.3824H21.9037L20.7277 25.2368L21.1769 26.6193L20.0009 25.7649L18.8249 26.6193L19.2741 25.2368L18.0981 24.3824H19.5517L20.0009 23ZM26.6699 23L27.1191 24.3824H28.5726L27.3967 25.2368L27.8458 26.6193L26.6699 25.7649L25.4939 26.6193L25.9431 25.2368L24.7671 24.3824H26.2207L26.6699 23ZM33.788 24.3824L33.3388 23L32.8896 24.3824H31.436L32.612 25.2368L32.1628 26.6193L33.3388 25.7649L34.5148 26.6193L34.0656 25.2368L35.2416 24.3824H33.788ZM40.0078 23L40.4569 24.3824H41.9105L40.7346 25.2368L41.1837 26.6193L40.0078 25.7649L38.8318 26.6193L39.281 25.2368L38.105 24.3824H39.5586L40.0078 23ZM47.1259 24.3824L46.6767 23L46.2275 24.3824H44.7739L45.9499 25.2368L45.5007 26.6193L46.6767 25.7649L47.8527 26.6193L47.4035 25.2368L48.5795 24.3824H47.1259ZM53.3461 23L53.7953 24.3824H55.2489L54.0729 25.2368L54.5221 26.6193L53.3461 25.7649L52.1702 26.6193L52.6193 25.2368L51.4434 24.3824H52.897L53.3461 23ZM60.4643 24.3824L60.0151 23L59.5659 24.3824H58.1123L59.2883 25.2368L58.8391 26.6193L60.0151 25.7649L61.1911 26.6193L60.7419 25.2368L61.9179 24.3824H60.4643Z" fill="#FEFFFF"/>
<path fill-rule="evenodd" clip-rule="evenodd" d="M69 32H11V36H69V32ZM69 40H11V44H69V40ZM11 48H69V52H11V48ZM69 56H11V60H69V56Z" fill="#E31E1E"/>
<path d="M52 53.88C48.6809 56.22 41.2509 57 38.3047 57C27.7447 57 16 48.2845 16 38.573C16 33.1799 17.2766 24.5 20.8511 18C17.8837 39.9132 26.8749 53.88 52 53.88Z" fill="black" fill-opacity="0.3"/>
</g>
<mask id="mask1_2286_41549" style="mask-type:alpha" maskUnits="userSpaceOnUse" x="19" y="0" width="42" height="21">
<path d="M39.4815 0C49.6444 0 56.8519 9.7125 61 21L56.6647 18.8324C56.0889 18.5445 55.4111 18.5445 54.8352 18.8324L51.4147 20.5426C50.8389 20.8305 50.1611 20.8305 49.5852 20.5426L46.1648 18.8324C45.5889 18.5445 44.9111 18.5445 44.3352 18.8324L40.9148 20.5426C40.3389 20.8305 39.6611 20.8305 39.0852 20.5426L35.6648 18.8324C35.0889 18.5445 34.4111 18.5445 33.8352 18.8324L30.4148 20.5426C29.8389 20.8305 29.1611 20.8305 28.5852 20.5426L25.1648 18.8324C24.5889 18.5445 23.9111 18.5445 23.3352 18.8324L19 21C20.8148 14.4375 29.3185 0 39.4815 0Z" fill="#D9D9D9"/>
</mask>
<g mask="url(#mask1_2286_41549)">
<rect x="16" y="-5" width="50" height="31" fill="url(#paint0_linear_2286_41549)"/>
<path fill-rule="evenodd" clip-rule="evenodd" d="M19.9028 -4L20.352 -2.61755H21.8056L20.6296 -1.76315L21.0788 -0.380702L19.9028 -1.2351L18.7268 -0.380702L19.176 -1.76315L18 -2.61755H19.4536L19.9028 -4ZM26.5718 -4L27.021 -2.61755H28.4746L27.2986 -1.76315L27.7478 -0.380702L26.5718 -1.2351L25.3958 -0.380702L25.845 -1.76315L24.669 -2.61755H26.1226L26.5718 -4ZM33.69 -2.61755L33.2408 -4L32.7916 -2.61755H31.338L32.514 -1.76315L32.0648 -0.380702L33.2408 -1.2351L34.4167 -0.380702L33.9676 -1.76315L35.1435 -2.61755H33.69ZM39.9098 -4L40.3589 -2.61755H41.8125L40.6366 -1.76315L41.0857 -0.380702L39.9098 -1.2351L38.7338 -0.380702L39.183 -1.76315L38.007 -2.61755H39.4606L39.9098 -4ZM47.0279 -2.61755L46.5788 -4L46.1296 -2.61755H44.676L45.852 -1.76315L45.4028 -0.380702L46.5788 -1.2351L47.7547 -0.380702L47.3056 -1.76315L48.4815 -2.61755H47.0279ZM53.2478 -4L53.6969 -2.61755H55.1505L53.9745 -1.76315L54.4237 -0.380702L53.2478 -1.2351L52.0718 -0.380702L52.521 -1.76315L51.345 -2.61755H52.7986L53.2478 -4ZM60.3659 -2.61755L59.9167 -4L59.4676 -2.61755H58.014L59.19 -1.76315L58.7408 -0.380702L59.9167 -1.2351L61.0927 -0.380702L60.6435 -1.76315L61.8195 -2.61755H60.3659ZM19.9028 20.5419L20.352 21.9244H21.8056L20.6296 22.7788L21.0788 24.1612L19.9028 23.3068L18.7268 24.1612L19.176 22.7788L18 21.9244H19.4536L19.9028 20.5419ZM27.021 21.9244L26.5718 20.5419L26.1226 21.9244H24.669L25.845 22.7788L25.3958 24.1612L26.5718 23.3068L27.7478 24.1612L27.2986 22.7788L28.4746 21.9244H27.021ZM33.2408 20.5419L33.69 21.9244H35.1435L33.9676 22.7788L34.4167 24.1612L33.2408 23.3068L32.0648 24.1612L32.514 22.7788L31.338 21.9244H32.7916L33.2408 20.5419ZM40.3589 21.9244L39.9098 20.5419L39.4606 21.9244H38.007L39.183 22.7788L38.7338 24.1612L39.9098 23.3068L41.0857 24.1612L40.6366 22.7788L41.8125 21.9244H40.3589ZM46.5788 20.5419L47.0279 21.9244H48.4815L47.3056 22.7788L47.7547 24.1612L46.5788 23.3068L45.4028 24.1612L45.852 22.7788L44.676 21.9244H46.1296L46.5788 20.5419ZM53.6969 21.9244L53.2478 20.5419L52.7986 21.9244H51.345L52.521 22.7788L52.0718 24.1612L53.2478 23.3068L54.4237 24.1612L53.9745 22.7788L55.1505 21.9244H53.6969ZM59.9167 20.5419L60.3659 21.9244H61.8195L60.6435 22.7788L61.0927 24.1612L59.9167 23.3068L58.7408 24.1612L59.19 22.7788L58.014 21.9244H59.4676L59.9167 20.5419ZM20.352 9.6534L19.9028 8.27095L19.4536 9.6534H18L19.176 10.5078L18.7268 11.8902L19.9028 11.0358L21.0788 11.8902L20.6296 10.5078L21.8056 9.6534H20.352ZM26.5718 8.27095L27.021 9.6534H28.4746L27.2986 10.5078L27.7478 11.8902L26.5718 11.0358L25.3958 11.8902L25.845 10.5078L24.669 9.6534H26.1226L26.5718 8.27095ZM33.69 9.6534L33.2408 8.27095L32.7916 9.6534H31.338L32.514 10.5078L32.0648 11.8902L33.2408 11.0358L34.4167 11.8902L33.9676 10.5078L35.1435 9.6534H33.69ZM39.9098 8.27095L40.3589 9.6534H41.8125L40.6366 10.5078L41.0857 11.8902L39.9098 11.0358L38.7338 11.8902L39.183 10.5078L38.007 9.6534H39.4606L39.9098 8.27095ZM47.0279 9.6534L46.5788 8.27095L46.1296 9.6534H44.676L45.852 10.5078L45.4028 11.8902L46.5788 11.0358L47.7547 11.8902L47.3056 10.5078L48.4815 9.6534H47.0279ZM53.2478 8.27095L53.6969 9.6534H55.1505L53.9745 10.5078L54.4237 11.8902L53.2478 11.0358L52.0718 11.8902L52.521 10.5078L51.345 9.6534H52.7986L53.2478 8.27095ZM60.3659 9.6534L59.9167 8.27095L59.4676 9.6534H58.014L59.19 10.5078L58.7408 11.8902L59.9167 11.0358L61.0927 11.8902L60.6435 10.5078L61.8195 9.6534H60.3659ZM24.0021 2.13548L24.4513 3.51792H25.9049L24.7289 4.37232L25.1781 5.75477L24.0021 4.90037L22.8261 5.75477L23.2753 4.37232L22.0993 3.51792H23.5529L24.0021 2.13548ZM31.1203 3.51792L30.6711 2.13548L30.2219 3.51792H28.7683L29.9443 4.37232L29.4951 5.75477L30.6711 4.90037L31.8471 5.75477L31.3979 4.37232L32.5739 3.51792H31.1203ZM37.3401 2.13548L37.7893 3.51792H39.2429L38.0669 4.37232L38.5161 5.75477L37.3401 4.90037L36.1641 5.75477L36.6133 4.37232L35.4373 3.51792H36.8909L37.3401 2.13548ZM44.4583 3.51792L44.0091 2.13548L43.5599 3.51792H42.1063L43.2823 4.37232L42.8331 5.75477L44.0091 4.90037L45.1851 5.75477L44.7359 4.37232L45.9119 3.51792H44.4583ZM50.6781 2.13548L51.1273 3.51792H52.5809L51.4049 4.37232L51.8541 5.75477L50.6781 4.90037L49.5021 5.75477L49.9513 4.37232L48.7753 3.51792H50.2289L50.6781 2.13548ZM57.7963 3.51792L57.3471 2.13548L56.8979 3.51792H55.4443L56.6203 4.37232L56.1711 5.75477L57.3471 4.90037L58.5231 5.75477L58.0739 4.37232L59.2499 3.51792H57.7963ZM64.0161 2.13548L64.4653 3.51792H65.9189L64.7429 4.37232L65.1921 5.75477L64.0161 4.90037L62.8401 5.75477L63.2893 4.37232L62.1133 3.51792H63.5669L64.0161 2.13548ZM24.4513 15.7889L24.0021 14.4064L23.5529 15.7889H22.0993L23.2753 16.6433L22.8261 18.0257L24.0021 17.1713L25.1781 18.0257L24.7289 16.6433L25.9049 15.7889H24.4513ZM30.6711 14.4064L31.1203 15.7889H32.5739L31.3979 16.6433L31.8471 18.0257L30.6711 17.1713L29.4951 18.0257L29.9443 16.6433L28.7683 15.7889H30.2219L30.6711 14.4064ZM37.7893 15.7889L37.3401 14.4064L36.8909 15.7889H35.4373L36.6133 16.6433L36.1641 18.0257L37.3401 17.1713L38.5161 18.0257L38.0669 16.6433L39.2429 15.7889H37.7893ZM44.0091 14.4064L44.4583 15.7889H45.9119L44.7359 16.6433L45.1851 18.0257L44.0091 17.1713L42.8331 18.0257L43.2823 16.6433L42.1063 15.7889H43.5599L44.0091 14.4064ZM51.1273 15.7889L50.6781 14.4064L50.2289 15.7889H48.7753L49.9513 16.6433L49.5021 18.0257L50.6781 17.1713L51.8541 18.0257L51.4049 16.6433L52.5809 15.7889H51.1273ZM57.3471 14.4064L57.7963 15.7889H59.2499L58.0739 16.6433L58.5231 18.0257L57.3471 17.1713L56.1711 18.0257L56.6203 16.6433L55.4443 15.7889H56.8979L57.3471 14.4064ZM64.4653 15.7889L64.0161 14.4064L63.5669 15.7889H62.1133L63.2893 16.6433L62.8401 18.0257L64.0161 17.1713L65.1921 18.0257L64.7429 16.6433L65.9189 15.7889H64.4653Z" fill="white"/>
</g>
<path fill-rule="evenodd" clip-rule="evenodd" d="M16.642 49.907L17.2929 49.9871C20.9199 50.434 21.459 50.5004 23.588 50.1966C24.8259 50.0199 26.1994 50.308 28.0447 50.695C30.626 51.2364 34.1306 51.9714 39.4791 51.8991C45.1494 51.9451 48.9448 50.7768 51.615 49.9549C52.7981 49.5907 53.7603 49.2945 54.5667 49.2021C57.43 48.8741 58.3558 49.0087 59.4192 49.1633C60.4704 49.3162 61.6561 49.4886 64.9808 49.253C61.5187 49.924 59.2938 49.9542 59.2938 49.9542C62.0249 50.6842 64.7909 53.0906 64.7909 53.0906C64.7909 53.0906 62.6046 51.4955 60.7977 51.6106C64.2481 53.6321 66.2261 55.9948 67.2863 58.4602C68.4699 60.1354 69.1446 61.7737 69.3991 64.6592C69.0744 63.4391 68.6555 62.2758 68.1151 61.232C68.5468 63.6082 68.3394 65.9972 67.9639 68.1963C66.5126 70.8526 20.8838 70.2398 15.6513 68.3424C15.061 66.7907 13.5634 62.5766 16.517 57.4548C15.28 58.5473 14.1852 59.9318 13.2197 61.448C14.6029 58.2755 15.9713 56.8048 18.0978 55.1761C18.8023 54.3112 19.6436 53.4292 20.6442 52.5375C20.6442 52.5375 18.8614 52.4371 17.002 53.5466C16.9041 53.6097 16.8016 53.6746 16.6938 53.7415C16.8635 53.6274 17.0305 53.5206 17.1943 53.4211C17.4715 53.238 17.7114 53.0706 17.9327 52.9162C19.0968 52.104 19.7456 51.6513 22.609 51.1686C19.8824 51.2055 17.641 50.4688 16.642 49.907Z" fill="#ECA75A"/>
<path fill-rule="evenodd" clip-rule="evenodd" d="M59.9998 59.5867C60.5801 53.8575 55.4202 51.3288 51.8071 51.5643C57.4003 52.4672 59.4589 55.9097 59.9998 59.5867ZM20.1782 61.9128C20.5031 61.6723 20.9752 61.1586 21.5956 60.4835C23.748 58.1415 27.6854 53.8573 33.4507 52.3017C26.7516 53.5403 23.116 57.4311 20.1782 61.9128ZM30.5234 56.314L30.5265 56.3126C30.2808 56.5598 29.9445 56.7913 29.5459 57.0656C28.1195 58.0474 25.8962 59.5777 24.182 64.3407C24.7525 60.9745 26.5745 58.0743 30.5234 56.314ZM66.4285 68.2365C66.1383 62.2605 63.2366 57.8573 61.8006 56.3858C62.0139 56.9735 62.3234 57.5402 62.7014 58.2322C63.6561 59.9801 65.0477 62.5278 66.4285 68.2365ZM39.9567 56.1852C38.9705 57.2566 37.7503 59.1294 37.2751 61.2847C36.7993 63.4426 37.0681 65.8975 39.0895 68.1103C38.9578 67.7761 38.8268 67.4602 38.7007 67.156C37.5127 64.2913 36.7568 62.4686 39.9567 56.1852ZM27.9149 67.1349C28.39 64.8678 29.6125 62.8984 30.6007 61.772C29.0416 64.9865 28.4207 67.0912 28.3315 68.7522L27.7169 68.7605C27.7341 68.2064 27.8043 67.6622 27.9149 67.1349ZM46.8783 54.106C50.7009 54.3735 53.0865 60.168 52.9383 62.4626C52.8855 62.325 52.8328 62.1867 52.7799 62.048C51.5391 58.7966 50.2113 55.3173 46.8783 54.106Z" fill="#B7651C"/>
<path fill-rule="evenodd" clip-rule="evenodd" d="M64.7109 51.3826C62.6017 49.5966 60.1003 49.7263 57.952 49.9183C60.712 50.016 62.054 49.748 64.7109 51.3826Z" fill="#FFCA8F"/>
<path fill-rule="evenodd" clip-rule="evenodd" d="M24.0078 51.4453C21.9648 51.9669 19.562 52.4811 17.0527 51.0347C19.594 52.0598 20.8718 51.8795 22.8473 51.6007C23.2071 51.55 23.5899 51.4959 24.0078 51.4453ZM19.6347 58.4457C20.6298 56.166 23.4371 53.0811 27.9845 51.8796C24.5024 52.3838 19.9783 55.4186 19.6347 58.4457ZM49.8113 66.8585C50.7622 64.4866 50.8326 60.6241 47.9838 57.5764C50.4898 59.5585 51.8882 64.1458 49.8113 66.8585ZM57.954 59.7081C57.652 57.9049 56.1368 55.3009 52.9298 53.8991C55.4679 54.6639 58.2939 57.4233 57.954 59.7081ZM32.4776 59.5566C32.7306 57.7459 34.1748 55.1019 37.3427 53.6139C34.8262 54.447 32.076 57.2819 32.4776 59.5566ZM68.7283 58.1923C66.9013 54.0496 64.047 53.4158 61.1496 52.7724C61.007 52.7407 60.8642 52.709 60.7215 52.6769C61.5261 53.048 62.2277 53.3426 62.8557 53.6062L62.8558 53.6063C65.3616 54.6583 66.6956 55.2184 68.7283 58.1923ZM14.6697 58.1493C15.0452 56.4441 15.6222 54.4996 18.9331 53.6876C16.1804 54.7802 15.7464 55.757 15.0753 57.2673C14.9531 57.5423 14.823 57.835 14.6697 58.1493Z" fill="#FFCA8F"/>
<path d="M67.9591 68.1969C66.5042 70.8525 20.7663 70.2415 15.5213 68.3447C15.1728 67.4309 13.9705 63.9382 15.8919 58.9927C25.0271 72.8896 63.966 66.9513 67.8485 60.0115C68.035 61.9754 68.2705 66.378 67.9591 68.1969Z" fill="black" fill-opacity="0.1"/>
<path d="M65 62.5C58.0977 62.4999 54 67.5 53 69.9655L73.5 69.9655C72.8835 68.8216 70.1283 62.5001 65 62.5Z" fill="#E3DFD9"/>
<defs>
<linearGradient id="paint0_linear_2286_41549" x1="37.2766" y1="0.982456" x2="41.1651" y2="25.9743" gradientUnits="userSpaceOnUse">
<stop stop-color="#1D88EC"/>
<stop offset="1" stop-color="#22A8E1"/>
</linearGradient>
</defs>
</svg>
