<svg width="160" height="106" viewBox="0 0 160 106" fill="none" xmlns="http://www.w3.org/2000/svg">
<path d="M71.5 105C92.763 105 110 101.866 110 98C110 94.134 92.763 91 71.5 91C50.237 91 33 94.134 33 98C33 101.866 50.237 105 71.5 105Z" fill="black" fill-opacity="0.08"/>
<path d="M88.4688 89.7012L93.4644 92.9452" stroke="#D67B29" stroke-width="3" stroke-miterlimit="10" stroke-linecap="round"/>
<path d="M90.8062 94.5671L88.7949 90.3499C88.6002 89.8957 88.4705 89.4416 88.4056 88.9874L88.2109 87.041" stroke="#EC8822" stroke-width="3" stroke-miterlimit="10" stroke-linecap="round"/>
<path d="M94.0483 83.4072C94.0483 83.4072 93.3347 86.262 91.3234 88.2084C89.0526 90.3495 83.1484 91.6471 78.9961 86.0674L84.7056 82.9531L94.0483 83.4072Z" fill="#B2B2B2"/>
<path d="M44.1547 82.6934L41.4297 87.1702" stroke="#D67B29" stroke-width="3" stroke-miterlimit="10" stroke-linecap="round"/>
<path d="M39.0312 84.1223L43.508 82.8896C43.9622 82.7598 44.4163 82.6949 44.8705 82.7598L46.8169 82.9545" stroke="#EC8822" stroke-width="3" stroke-miterlimit="10" stroke-linecap="round"/>
<path d="M60.0509 83.1481C60.0509 83.1481 54.1468 86.0677 48.8266 84.5755C42.9874 83.0183 38.7702 76.9844 40.5868 71.3398L60.0509 83.1481Z" fill="#D7D7D7"/>
<path d="M106.502 49.0861C109.277 47.3683 124.623 40.0398 137.729 47.6626C148.441 53.9309 136.125 56.574 131.888 55.6176C131.888 55.6176 135.021 56.344 134.513 58.5902C134.045 60.8015 128.603 64.0292 122.648 60.8494C122.648 60.8494 127.638 63.7977 123.877 67.5253C120.116 71.2529 112.658 70.0538 106.052 65.0879C99.4464 60.1221 103.699 50.7698 106.502 49.0861Z" fill="#989899"/>
<path d="M93.8877 12.55C93.8877 12.55 93.8241 9.05121 92.2974 6.25217C91.4704 4.6618 90.8978 3.45312 91.8521 3.45312C93.6969 3.51675 94.8419 6.12495 93.8877 12.55Z" fill="#989899"/>
<path d="M29 49.0006C29 49.0006 34.7889 50.3365 38.4786 46.2015C45.7943 36.0232 54.255 5.61552 81.7365 8.09648C118.696 11.468 117.361 41.6849 110.045 54.0262C110.872 57.9066 110.045 64.7134 109.027 68.1485C105.083 81.444 90.3244 87.6782 71.6218 85.5789C67.8685 85.1336 63.9244 84.7519 60.7437 83.8613C28.8092 74.8281 29 49.0006 29 49.0006Z" fill="#D7D7D7"/>
<path d="M114.817 38.5681C115.325 49.3825 110.045 55.2987 110.045 55.2987C110.045 55.2987 107.119 54.8534 103.366 56.062C97.1953 58.0341 78.8107 57.4616 75.8209 40.1584C73.5307 27.1811 84.6633 14.0128 96.6864 14.8398C107.755 15.6668 113.99 21.4558 114.817 38.5681Z" fill="white"/>
<path d="M115.504 37.4845C115.504 37.4845 115.821 38.3094 117.148 39.2732C117.148 39.2732 111.565 40.105 111.518 34.0153L113.086 33L115.504 37.4845Z" fill="#EC8822"/>
<path d="M114.376 33.2773C114.376 33.2773 114.976 36.7834 115.991 38.3519C114.561 38.721 112.116 37.5223 112.299 33.5085L114.376 33.2773Z" fill="#D32E2E"/>
<path d="M114.237 30.5645C114.237 30.5645 116.219 30.9887 119.176 32.9543C119.176 32.9543 113.732 33.1397 111.518 34.0168C111.545 34.0815 111.425 31.295 114.237 30.5645Z" fill="#EC8822"/>
<path d="M91.214 10.8328C91.214 10.8328 87.9697 7.71566 84.4709 7.14313C81.2902 6.5706 82.8805 4.15324 85.8068 5.42553C88.415 6.63421 91.214 10.8328 91.214 10.8328Z" fill="#989899"/>
<path d="M92.9334 11.4054C92.9334 11.4054 91.4067 7.39774 87.8443 5.23485C84.8544 3.45364 84.2182 1.67242 85.1725 1.22712C87.0809 0.336517 90.7705 1.73604 92.9334 11.4054Z" fill="#989899"/>
<path d="M91.7237 75.4017C90.3878 74.5747 89.6244 73.1116 89.5608 71.6484C88.4794 73.4296 88.9883 75.7198 90.7695 76.8648C92.5507 78.0099 94.9044 77.501 96.1131 75.7834C94.7136 76.3559 93.0596 76.2287 91.7237 75.4017Z" fill="#989899"/>
<path d="M90.4521 64.7786C88.9889 63.57 88.3528 61.8524 88.48 60.1348C86.9533 62.0432 87.2077 64.7787 89.1162 66.3054C90.961 67.8322 93.76 67.6413 95.414 65.8601C93.76 66.3054 91.9152 65.9237 90.4521 64.7786Z" fill="#989899"/>
<path d="M102.156 70.5677C100.375 69.9316 99.166 68.4685 98.7207 66.8145C97.9574 69.1046 99.166 71.5856 101.456 72.4125C103.746 73.2395 106.291 72.1581 107.245 69.9316C105.782 70.9494 103.874 71.2675 102.156 70.5677Z" fill="#989899"/>
<path d="M99.421 77.373C99.421 77.373 98.2124 79.4724 98.5941 80.7446C98.5941 80.7446 99.8663 80.8082 100.757 79.536C100.757 79.536 99.8663 79.5996 99.421 77.373Z" fill="#989899"/>
<path d="M78.8742 60.8978C78.1745 57.0809 71.9402 37.6149 51.52 31.5079C34.7894 26.5459 43.3137 39.7141 48.2756 42.8313C48.2756 42.8313 44.586 40.5411 42.614 42.704C40.6419 44.8033 42.1687 52.1826 51.1383 55.1725C51.1383 55.1725 43.3137 52.8824 42.7412 59.1166C42.1687 65.3508 50.3749 71.2034 61.8892 73.4299C73.4034 75.6564 79.6376 64.7147 78.8742 60.8978Z" fill="#989899"/>
<path d="M106.654 29.2965C105.468 26.1392 103.226 24.0606 101.648 24.6538C100.069 25.2471 99.7511 28.2876 100.938 31.4449C102.124 34.6023 104.366 36.6809 105.944 36.0876C107.523 35.4944 107.841 32.4539 106.654 29.2965Z" fill="#231F20"/>
<path d="M105.616 28.3643C105.184 27.2132 104.273 26.4905 103.582 26.7501C102.892 27.0097 102.682 28.1533 103.115 29.3044C103.548 30.4554 104.458 31.1782 105.149 30.9186C105.84 30.659 106.049 29.5154 105.616 28.3643Z" fill="white"/>
<path d="M123.176 18.5684L124.883 22.5764L127.714 23.7731L126.295 18.6663L123.176 18.5684Z" fill="#13C7EF"/>
<path d="M141.123 32.7755L137.962 32.3906L136.533 33.6032L140.402 34.5257L141.123 32.7755Z" fill="#E5524B"/>
<path d="M137.026 18.9395L135.307 19.145L134.326 20.1743L136.363 20.2276L137.026 18.9395Z" fill="#FFAD59"/>
<path d="M124.201 48.8613L122.483 49.0668L121.502 50.0961L123.539 50.1493L124.201 48.8613Z" fill="#FCFF59"/>
<path d="M131.352 43.7227L130.153 46.8333L131.993 49.0427L134.015 45.9126L131.352 43.7227Z" fill="#A2D167"/>
<path d="M150 42.2988H147.15V45.1486L149.525 44.6737L150 42.2988Z" fill="#EF9113"/>
<path fill-rule="evenodd" clip-rule="evenodd" d="M144.924 16.6963C144.981 16.746 145.01 16.8205 145.002 16.8957L144.918 17.6432C144.897 17.8324 145.103 17.9642 145.266 17.8661L145.912 17.4783C145.977 17.4394 146.057 17.4348 146.126 17.4661L146.813 17.7777C146.987 17.8565 147.175 17.7024 147.132 17.5169L146.961 16.7837C146.944 16.71 146.964 16.6326 147.015 16.5768L147.523 16.0218C147.652 15.8813 147.563 15.6543 147.373 15.6377L146.621 15.5723C146.546 15.5657 146.478 15.5225 146.441 15.4567L146.068 14.802C145.973 14.6364 145.73 14.6502 145.656 14.8255L145.362 15.5184C145.333 15.588 145.271 15.6386 145.197 15.6537L144.458 15.8044C144.271 15.8425 144.209 16.078 144.354 16.203L144.924 16.6963Z" fill="#D84473"/>
<path d="M133.603 7.28524L132.183 6.11052C133.546 4.01481 135.993 2.95429 137.117 2.42578L136.64 3.74268C136.975 3.84588 137.826 4.11454 138.55 4.3636C136.467 4.13826 134.384 6.21747 133.603 7.28524Z" fill="#E5524B"/>
<path d="M129.868 38.299L131.081 36.4593C128.79 34.5393 125.621 34.1822 124.151 33.9707L125.157 35.3098C124.81 35.545 123.931 36.1497 123.19 36.6877C125.493 35.7017 128.602 37.3511 129.868 38.299Z" fill="#FF8C87"/>
<path d="M149.06 36.7507L147.076 34.5003C146.346 33.6717 145.082 33.5921 144.254 34.3225L125.5 50.8544C124.671 51.5848 124.592 52.8486 125.322 53.6772L127.306 55.9277C128.037 56.7563 129.3 56.8358 130.129 56.1054L148.883 39.5736C149.711 38.8431 149.791 37.5793 149.06 36.7507Z" fill="#218C87"/>
<mask id="mask0_1958_42688" style="mask-type:alpha" maskUnits="userSpaceOnUse" x="124" y="33" width="26" height="24">
<path d="M144.254 34.322C145.082 33.5916 146.346 33.6712 147.076 34.4998L149.06 36.7502C149.791 37.5788 149.711 38.8426 148.883 39.5731L130.129 56.1049C129.3 56.8353 128.036 56.7557 127.306 55.9272L125.322 53.6767C124.592 52.8481 124.671 51.5843 125.5 50.8539L144.254 34.322Z" fill="#C4C4C4"/>
</mask>
<g mask="url(#mask0_1958_42688)">
<path d="M152.744 37.903L136.934 35.4434L136.473 38.4077L152.283 40.8674L152.744 37.903Z" fill="#F78C1F"/>
<path d="M147.494 42.5319L131.684 40.0723L131.223 43.0366L147.033 45.4963L147.494 42.5319Z" fill="#F78C1F"/>
<path d="M142.24 47.1608L126.43 44.7012L125.969 47.6655L141.779 50.1252L142.24 47.1608Z" fill="#F78C1F"/>
<path d="M136.99 51.7897L121.18 49.3301L120.719 52.2944L136.529 54.7541L136.99 51.7897Z" fill="#F78C1F"/>
</g>
</svg>
