<svg width="375" height="351" viewBox="0 0 375 351" fill="none" xmlns="http://www.w3.org/2000/svg">
<g clip-path="url(#clip0_2539_74766)">
<path d="M-2.06428 19.0248C124.207 11.7706 286.978 54.0941 374.935 106.47C374.936 121.97 374.937 349.97 374.937 349.97L-2.06371 349.97C-2.06428 276.97 -2.06428 43.9705 -2.06428 19.0248Z" fill="url(#paint0_linear_2539_74766)"/>
<path d="M66.55 19.5796C15.1021 55.709 94.418 91.2958 95.8062 127.626C97.7383 178.19 3.2255 234.271 -79.2582 224.779" stroke="url(#paint1_linear_2539_74766)" stroke-linecap="round"/>
<path d="M374.937 105.5C341 81 226.79 43.5355 182.938 35.9705C182.938 35.9705 180.475 71.5193 220.506 84.1926C308.549 112.066 294.344 211.067 374.937 224.97C374.937 179.47 374.937 105.5 374.937 105.5Z" fill="#FFE3DD"/>
<path d="M-44.4948 23.2558C-22.7266 18.9233 9.12777 18.2992 39.6255 17.9792C-8.56309 50.257 70.1579 83.6794 50.3732 108.626C29.9087 134.429 -39.4935 169.231 -68.8048 164.174C-61.8609 123.922 -44.4948 23.2558 -44.4948 23.2558Z" fill="#21A39C"/>
<circle cx="2.10988" cy="38.3987" r="1.5" transform="rotate(9.78787 2.10988 38.3987)" fill="#218C87"/>
<circle cx="22.9068" cy="23.7207" r="1.5" transform="rotate(9.78787 22.9068 23.7207)" fill="#218C87"/>
</g>
<ellipse cx="306.5" cy="103" rx="38.5" ry="7" fill="black" fill-opacity="0.08"/>
<path d="M323.469 92.7017L328.465 95.9457" stroke="#D67B29" stroke-width="3" stroke-miterlimit="10" stroke-linecap="round"/>
<path d="M325.806 97.5676L323.795 93.3504C323.6 92.8962 323.47 92.4421 323.406 91.9879L323.211 90.0415" stroke="#EC8822" stroke-width="3" stroke-miterlimit="10" stroke-linecap="round"/>
<path d="M329.048 86.4082C329.048 86.4082 328.335 89.263 326.323 91.2094C324.053 93.3505 318.148 94.6481 313.996 89.0684L319.706 85.9541L329.048 86.4082Z" fill="#B2B2B2"/>
<path d="M279.155 85.6943L276.43 90.1711" stroke="#D67B29" stroke-width="3" stroke-miterlimit="10" stroke-linecap="round"/>
<path d="M274.031 87.1226L278.508 85.8898C278.962 85.7601 279.416 85.6952 279.87 85.7601L281.817 85.9547" stroke="#EC8822" stroke-width="3" stroke-miterlimit="10" stroke-linecap="round"/>
<path d="M295.051 86.1486C295.051 86.1486 289.147 89.0682 283.827 87.576C277.987 86.0188 273.77 79.9849 275.587 74.3403L295.051 86.1486Z" fill="#D7D7D7"/>
<path d="M329.176 14.7804C329.176 14.7804 329.112 11.2119 327.554 8.35718C326.711 6.73517 326.127 5.50244 327.1 5.50244C328.982 5.56732 330.15 8.22743 329.176 14.7804Z" fill="#989899"/>
<path d="M263 51.8643C263 51.8643 268.904 53.2268 272.667 49.0096C280.128 38.6287 288.758 7.61587 316.786 10.1462C354.481 13.5849 353.119 44.4031 345.658 56.9899C346.501 60.9476 345.658 67.8898 344.62 71.3933C340.597 84.9533 325.545 91.3116 306.47 89.1705C302.642 88.7164 298.619 88.3271 295.375 87.4188C262.805 78.2058 263 51.8643 263 51.8643Z" fill="#D7D7D7"/>
<path d="M350.524 41.3163C351.043 52.346 345.658 58.3799 345.658 58.3799C345.658 58.3799 342.674 57.9257 338.846 59.1584C332.552 61.1697 313.802 60.5858 310.753 42.9383C308.417 29.7027 319.771 16.2724 332.033 17.1159C343.323 17.9593 349.681 23.8635 350.524 41.3163Z" fill="white"/>
<path d="M343.313 38.0617C343.389 34.6224 342.056 31.8038 340.336 31.7661C338.616 31.7284 337.161 34.4858 337.086 37.9251C337.01 41.3643 338.343 44.1829 340.063 44.2206C341.782 44.2584 343.238 41.5009 343.313 38.0617Z" fill="#231F20"/>
<path d="M342.688 36.7856C342.716 35.5317 342.128 34.5019 341.376 34.4854C340.623 34.469 339.991 35.4721 339.964 36.726C339.936 37.9799 340.524 39.0097 341.276 39.0262C342.029 39.0426 342.661 38.0395 342.688 36.7856Z" fill="white"/>
<path d="M353.766 47.0259C353.766 47.0259 350.782 46.5718 348.641 47.4152C346.889 48.064 346.5 43.8468 347.862 42.679C349.225 41.5111 353.766 47.0259 353.766 47.0259Z" fill="#EC6C22"/>
<path d="M326.453 13.0287C326.453 13.0287 323.144 9.84955 319.576 9.26563C316.332 8.6817 317.954 6.21624 320.938 7.51385C323.599 8.74658 326.453 13.0287 326.453 13.0287Z" fill="#989899"/>
<path d="M328.205 13.6125C328.205 13.6125 326.648 9.52505 323.015 7.31912C319.966 5.50247 319.317 3.6858 320.29 3.23164C322.236 2.32331 325.999 3.75068 328.205 13.6125Z" fill="#989899"/>
<path d="M326.973 78.8824C325.611 78.039 324.832 76.5467 324.767 75.0544C323.664 76.8711 324.183 79.2068 326 80.3746C327.817 81.5425 330.217 81.0234 331.45 79.2717C330.023 79.8556 328.336 79.7258 326.973 78.8824Z" fill="#989899"/>
<path d="M325.675 68.0473C324.183 66.8146 323.534 65.0628 323.664 63.311C322.107 65.2574 322.366 68.0473 324.313 69.6044C326.194 71.1616 329.049 70.9669 330.736 69.1503C329.049 69.6044 327.167 69.2151 325.675 68.0473Z" fill="#989899"/>
<path d="M337.612 73.9515C335.795 73.3027 334.562 71.8104 334.108 70.1235C333.33 72.4592 334.562 74.9896 336.898 75.833C339.234 76.6764 341.829 75.5735 342.802 73.3027C341.31 74.3408 339.363 74.6652 337.612 73.9515Z" fill="#989899"/>
<path d="M334.822 80.8936C334.822 80.8936 333.589 83.0346 333.978 84.3322C333.978 84.3322 335.276 84.3971 336.184 83.0995C336.184 83.0995 335.276 83.1644 334.822 80.8936Z" fill="#989899"/>
<path d="M313.865 64.0896C313.151 60.1968 306.793 40.3434 285.966 34.1148C268.903 29.0542 277.597 42.4844 282.658 45.6635C282.658 45.6635 278.894 43.3279 276.883 45.5338C274.872 47.6748 276.429 55.201 285.577 58.2504C285.577 58.2504 277.597 55.9147 277.013 62.273C276.429 68.6312 284.799 74.6002 296.542 76.871C308.285 79.1419 314.644 67.9824 313.865 64.0896Z" fill="#989899"/>
<path d="M350.653 38.1374C350.653 38.1374 353.897 40.1487 354.287 45.8582C354.287 45.8582 350.913 43.5873 348.058 43.4576C345.787 43.3278 348.837 37.8779 350.653 38.1374Z" fill="#EC8822"/>
<defs>
<linearGradient id="paint0_linear_2539_74766" x1="127.436" y1="73.9705" x2="127.436" y2="284.47" gradientUnits="userSpaceOnUse">
<stop stop-color="#0D837C"/>
<stop offset="0.966417" stop-color="#E4F0EF"/>
</linearGradient>
<linearGradient id="paint1_linear_2539_74766" x1="44.0802" y1="15.7033" x2="5.49002" y2="239.399" gradientUnits="userSpaceOnUse">
<stop stop-color="#309B9A"/>
<stop offset="1" stop-color="#56B6B5"/>
</linearGradient>
<clipPath id="clip0_2539_74766">
<rect width="375" height="335" fill="white" transform="translate(0 16)"/>
</clipPath>
</defs>
</svg>
