<svg width="40" height="40" viewBox="0 0 40 40" fill="none" xmlns="http://www.w3.org/2000/svg">
<path d="M12.095 37.4355C8.01048 34.6464 5.09223 29.6261 6.25928 22.9323C7.7125 14.5971 12.095 8.42904 16.1798 4.52327C21.3337 1.32965 24.3491 3.40773 22.5982 8.42904C21.2934 12.171 24.9329 9.54563 23.7656 16.7973C22.7536 23.0834 19.3478 29.0355 17.3468 30.1839C14.4292 31.8583 16.1795 40.2246 12.095 37.4355Z" fill="#009891"/>
<mask id="mask0_3505_12266" style="mask-type:alpha" maskUnits="userSpaceOnUse" x="5" y="3" width="19" height="35">
<path d="M12.0949 37.4355C8.01036 34.6464 4.41195 29.4712 6.25916 22.9323C8.5 15 8.38718 9.35147 16.1796 4.52327C21.3336 1.32965 24.349 3.40773 22.5981 8.42904C21.2933 12.171 24.9328 9.54563 23.7654 16.7973C22.7535 23.0834 19.3477 29.0355 17.3467 30.1839C14.4291 31.8583 16.1793 40.2246 12.0949 37.4355Z" fill="#009891"/>
</mask>
<g mask="url(#mask0_3505_12266)">
<path d="M33.2737 26.6158C35.1611 33.0302 31.7985 39.5222 25.7631 41.1161C19.7277 42.71 13.3049 38.8022 11.4175 32.3878C11.2784 31.915 11.1678 31.4419 11.0847 30.9702C10.9486 30.1981 10.8863 29.4303 10.893 28.6753C10.9 27.8948 10.9809 27.1281 11.1307 26.385C11.9484 22.3288 14.8187 18.9727 18.9281 17.8874C24.9635 16.2935 31.3863 20.2014 33.2737 26.6158Z" fill="#00827B"/>
</g>
<path d="M33 29.8462C33 34.3494 25 38 25 38C25 38 17 34.3494 17 29.8462C17 25.3429 21.6667 21.6916 25 25.7691C28.3333 21.6935 33 25.3429 33 29.8462Z" fill="#FA5669"/>
</svg>
