<svg width="22" height="50" viewBox="0 0 22 50" fill="none" xmlns="http://www.w3.org/2000/svg">
<path d="M21.1122 43.2399C21.1122 44.0801 21.1122 47.9492 21.1122 47.9492C21.1122 47.9492 19.3997 50.0898 10.8374 50.0898C2.27498 50.0898 0.5625 47.9492 0.5625 47.9492C0.5625 47.9492 0.5625 45.1314 0.5625 43.2399C0.5625 41.3483 5.16271 39.8149 10.8374 39.8149C16.512 39.8149 21.1122 41.3483 21.1122 43.2399Z" fill="#FFBC00"/>
<ellipse cx="10.8374" cy="43.0258" rx="10.2749" ry="3.21089" fill="#FFE506"/>
<ellipse cx="10.8374" cy="43.0257" rx="7.06396" ry="1.92654" fill="#FFD300"/>
<path d="M21.1122 38.1027C21.1122 38.9429 21.1122 42.812 21.1122 42.812C21.1122 42.812 19.3997 44.9526 10.8374 44.9526C2.27498 44.9526 0.5625 42.812 0.5625 42.812C0.5625 42.812 0.5625 39.9942 0.5625 38.1027C0.5625 36.2111 5.16271 34.6777 10.8374 34.6777C16.512 34.6777 21.1122 36.2111 21.1122 38.1027Z" fill="#FFBC00"/>
<ellipse cx="10.8374" cy="37.8886" rx="10.2749" ry="3.21089" fill="#FFE506"/>
<ellipse cx="10.8374" cy="37.8885" rx="7.06396" ry="1.92654" fill="#FFD300"/>
<path d="M21.1122 32.965C21.1122 33.8052 21.1122 37.6743 21.1122 37.6743C21.1122 37.6743 19.3997 39.8149 10.8374 39.8149C2.27498 39.8149 0.5625 37.6743 0.5625 37.6743C0.5625 37.6743 0.5625 34.8565 0.5625 32.965C0.5625 31.0734 5.16271 29.54 10.8374 29.54C16.512 29.54 21.1122 31.0734 21.1122 32.965Z" fill="#FFBC00"/>
<ellipse cx="10.8374" cy="32.7509" rx="10.2749" ry="3.21089" fill="#FFE506"/>
<ellipse cx="10.8374" cy="32.7508" rx="7.06396" ry="1.92654" fill="#FFD300"/>
<path d="M21.1122 27.8278C21.1122 28.668 21.1122 32.5371 21.1122 32.5371C21.1122 32.5371 19.3997 34.6777 10.8374 34.6777C2.27498 34.6777 0.5625 32.5371 0.5625 32.5371C0.5625 32.5371 0.5625 29.7193 0.5625 27.8278C0.5625 25.9362 5.16271 24.4028 10.8374 24.4028C16.512 24.4028 21.1122 25.9362 21.1122 27.8278Z" fill="#FFBC00"/>
<ellipse cx="10.8374" cy="27.6137" rx="10.2749" ry="3.21089" fill="#FFE506"/>
<ellipse cx="10.8374" cy="27.6135" rx="7.06396" ry="1.92654" fill="#FFD300"/>
<path d="M21.1122 22.6901C21.1122 23.5303 21.1122 27.3994 21.1122 27.3994C21.1122 27.3994 19.3997 29.54 10.8374 29.54C2.27498 29.54 0.5625 27.3994 0.5625 27.3994C0.5625 27.3994 0.5625 24.5816 0.5625 22.6901C0.5625 20.7985 5.16271 19.2651 10.8374 19.2651C16.512 19.2651 21.1122 20.7985 21.1122 22.6901Z" fill="#FFBC00"/>
<ellipse cx="10.8374" cy="22.476" rx="10.2749" ry="3.21089" fill="#FFE506"/>
<ellipse cx="10.8374" cy="22.4759" rx="7.06396" ry="1.92654" fill="#FFD300"/>
<path d="M21.1122 13.6999C21.1122 14.5401 21.1122 18.4092 21.1122 18.4092C21.1122 18.4092 19.3997 20.5498 10.8374 20.5498C2.27498 20.5498 0.5625 18.4092 0.5625 18.4092C0.5625 18.4092 0.5625 15.5914 0.5625 13.6999C0.5625 11.8083 5.16271 10.2749 10.8374 10.2749C16.512 10.2749 21.1122 11.8083 21.1122 13.6999Z" fill="#FFBC00"/>
<ellipse cx="10.8374" cy="13.4858" rx="10.2749" ry="3.21089" fill="#FFE506"/>
<ellipse cx="10.8374" cy="13.4856" rx="7.06396" ry="1.92654" fill="#FFD300"/>
<path d="M21.1122 3.42495C21.1122 4.2652 21.1122 8.13426 21.1122 8.13426C21.1122 8.13426 19.3997 10.2749 10.8374 10.2749C2.27498 10.2749 0.5625 8.13426 0.5625 8.13426C0.5625 8.13426 0.5625 5.3165 0.5625 3.42495C0.5625 1.5334 5.16271 0 10.8374 0C16.512 0 21.1122 1.5334 21.1122 3.42495Z" fill="#FFBC00"/>
<ellipse cx="10.8374" cy="3.21089" rx="10.2749" ry="3.21089" fill="#FFE506"/>
<ellipse cx="10.8374" cy="3.21072" rx="7.06396" ry="1.92654" fill="#FFD300"/>
</svg>
