<svg width="120" height="112" viewBox="0 0 120 112" fill="none" xmlns="http://www.w3.org/2000/svg">
<path d="M53.7865 14.6078C56.5481 9.79746 63.4519 9.79745 66.2135 14.6078L119.028 101.177C121.79 105.987 118.338 112 112.815 112H7.18542C1.66233 112 -1.78962 105.987 0.971931 101.177L53.7865 14.6078Z" fill="#E2F8E5"/>
<mask id="mask0_3244_121082" style="mask-type:alpha" maskUnits="userSpaceOnUse" x="0" y="11" width="120" height="101">
<path d="M53.7865 14.59C56.5481 9.80341 63.4519 9.80341 66.2135 14.5899L119.028 101.23C121.79 106.017 118.338 112 112.815 112H7.18542C1.66233 112 -1.78962 106.017 0.971931 101.23L53.7865 14.59Z" fill="#F5F5F5"/>
</mask>
<g mask="url(#mask0_3244_121082)">
<rect x="-6" y="11" width="133" height="101" fill="#89E294"/>
</g>
<path d="M55.1328 26.8529C57.296 23.049 62.704 23.049 64.8672 26.8529L106.239 95.4413C108.402 99.2452 105.698 104 101.371 104H18.6286C14.3022 104 11.5981 99.2452 13.7613 95.4414L55.1328 26.8529Z" fill="white"/>
</svg>
