<svg width="120" height="119" viewBox="0 0 120 119" fill="none" xmlns="http://www.w3.org/2000/svg">
<path d="M63.3872 2.63625C61.4129 1.15689 58.6585 1.23934 56.7555 2.80941C41.0753 15.7467 23.2838 21.6366 14.8843 23.8625C12.0744 24.6072 10 27.1159 10 30.0227C9.99999 39.1644 9.99998 59.1839 10 76.5721C10 77.774 10.357 78.9509 11.0539 79.9301C26.2735 101.315 50.4591 114.34 57.8101 117.962C59.2058 118.649 60.7965 118.708 62.2332 118.11C70.4614 114.69 99.1427 101.468 109.482 79.5549C109.835 78.8078 110 77.9927 110 77.1667C110 59.8829 110 39.0073 110 29.7811C110 26.9778 108.067 24.5444 105.383 23.7328C97.3257 21.2956 79.968 15.0604 63.3872 2.63625Z" fill="#3C82FC"/>
<path d="M63.4015 15.6244C61.4107 14.1612 58.6614 14.2443 56.7366 15.7932C45.3172 24.9828 32.6309 29.4649 25.8707 31.3593C23.0725 32.1434 21 34.6485 21 37.5546C21 45.0333 21 59.6033 21 72.4408C21 73.6408 21.3542 74.8181 22.055 75.7923C33.6294 91.8814 51.6289 101.849 57.8211 104.954C59.2143 105.653 60.8047 105.704 62.2395 105.095C69.2084 102.138 90.5175 91.9814 98.4792 75.4186C98.8365 74.6754 99 73.8592 99 73.0345C99 60.2017 99 44.9209 99 37.3223C99 34.52 97.0698 32.0811 94.3975 31.2376C87.8915 29.1839 75.4508 24.4809 63.4015 15.6244Z" fill="white"/>
</svg>
