<svg width="120" height="148" viewBox="0 0 120 148" fill="none" xmlns="http://www.w3.org/2000/svg">
<path d="M54.4893 2.25406C39.2877 17.3457 16.4726 21.989 5.84099 23.3751C2.57665 23.8007 7.34044e-06 26.5356 6.97416e-06 29.8233L0 90.8068C0 91.866 0.259463 92.8822 0.810244 93.7873C5.07425 100.794 25.9269 132.962 57.6364 147.482C59.1369 148.169 60.8656 148.173 62.3698 147.494C94.5616 132.965 115.07 100.731 119.22 93.7662C119.751 92.8743 120 91.8783 120 90.8405L120 29.2456C120 26.1999 117.781 23.6035 114.791 22.9998C104.229 20.8666 80.0754 14.8269 65.7302 2.04493C62.6074 -0.737612 57.4573 -0.692563 54.4893 2.25406Z" fill="#3C82FC"/>
<path d="M55.9588 21.6449C44.811 32.6577 28.0799 36.046 20.2834 37.0575C17.8895 37.3681 16 39.3638 16 41.7629L16 86.2645C16 87.0373 16.1903 87.7789 16.5942 88.4394C19.7211 93.5527 35.0131 117.026 58.2667 127.622C59.3671 128.123 60.6348 128.126 61.7379 127.631C85.3452 117.029 100.385 93.5067 103.428 88.424C103.817 87.7732 104 87.0463 104 86.289L104 41.3414C104 39.1189 102.372 37.2242 100.18 36.7837C92.4343 35.227 74.7219 30.8196 64.2022 21.4922C61.9121 19.4617 58.1354 19.4946 55.9588 21.6449Z" fill="white"/>
</svg>
