<svg width="120" height="148" viewBox="0 0 120 148" fill="none" xmlns="http://www.w3.org/2000/svg">
<path fill-rule="evenodd" clip-rule="evenodd" d="M60.1881 0H0V32L6.97417e-06 29.8233C7.34044e-06 26.5356 2.57665 23.8007 5.84099 23.3751C16.4726 21.989 39.2877 17.3457 54.4893 2.25406C56.0062 0.74806 58.0932 0 60.1881 0ZM120 29.2456V0H60.1881C62.1921 0 64.2035 0.684524 65.7302 2.04493C80.0754 14.8269 104.229 20.8666 114.791 22.9998C117.781 23.6035 120 26.1999 120 29.2456Z" fill="#3C82FC"/>
<path fill-rule="evenodd" clip-rule="evenodd" d="M120 32L120 90.8405C120 91.8783 119.751 92.8743 119.22 93.7662C115.07 100.731 94.5616 132.965 62.3698 147.494C60.8656 148.173 59.1369 148.169 57.6364 147.482C25.9269 132.962 5.07425 100.794 0.810244 93.7873C0.259463 92.8822 0 91.866 0 90.8068V148H120V32Z" fill="#3C82FC"/>
<path fill-rule="evenodd" clip-rule="evenodd" d="M58.2302 6.0222C41.7159 22.4171 17.3709 27.2266 6.52744 28.6403C6.16458 28.6876 5.83817 28.8655 5.6105 29.1138C5.39124 29.353 5.30974 29.6006 5.30974 29.8233L5.30973 90.8068C5.30973 90.9017 5.32114 90.9572 5.32778 90.982C5.33386 91.0048 5.33968 91.0165 5.34614 91.0271C9.55022 97.9357 29.7021 128.85 59.847 142.654C59.9518 142.702 60.078 142.703 60.1856 142.654C90.7767 128.848 110.578 97.8962 114.658 91.0485C114.663 91.0405 114.668 91.0311 114.673 91.0104C114.679 90.9876 114.69 90.9339 114.69 90.8405L114.69 29.2456C114.69 28.8447 114.369 28.3315 113.74 28.2045C108.299 27.1057 99.3358 24.9979 89.8423 21.4976C80.4164 18.0222 70.0848 13.0368 62.1979 6.00925C61.0867 5.01914 59.1281 5.13079 58.2302 6.0222ZM5.84099 23.3751C16.4726 21.989 39.2877 17.3457 54.4893 2.25406C57.4573 -0.692563 62.6074 -0.737612 65.7302 2.04493C80.0754 14.8269 104.229 20.8666 114.791 22.9998C117.781 23.6035 120 26.1999 120 29.2456L120 90.8405C120 91.8783 119.751 92.8743 119.22 93.7662C115.07 100.731 94.5616 132.965 62.3698 147.494C60.8656 148.173 59.1369 148.169 57.6364 147.482C25.9269 132.962 5.07425 100.794 0.810244 93.7873C0.259464 92.8822 0 91.866 0 90.8068L6.97416e-06 29.8233C7.34044e-06 26.5356 2.57665 23.8007 5.84099 23.3751Z" fill="white"/>
</svg>
