<svg width="203" height="244" viewBox="0 0 203 244" fill="none" xmlns="http://www.w3.org/2000/svg">
<g opacity="0.3" filter="url(#filter0_f_2694_91793)">
<path d="M15.1812 143.812C13.8814 144.504 13.0834 146.038 12.6118 147.911C10.6502 155.705 16.847 162.76 24.1255 166.166L96.8228 200.19C98.8137 201.1 101.114 201.128 103.128 200.266L181.394 166.569C187.346 164.023 189.489 148.046 183.177 145.929C120.3 149.223 84.613 152.517 15.1812 143.812Z" fill="#599990"/>
</g>
<path d="M3.54639 138.299C2.31702 143.464 3.54638 161.533 3.54638 161.533L99.6686 207.177C101.95 208.242 104.586 208.275 106.894 207.267L196.576 167.851C203.397 164.872 205.852 140.477 198.619 138C126.57 141.853 83.1062 148.481 3.54639 138.299Z" fill="url(#paint0_linear_2694_91793)"/>
<path d="M100.162 91.5532L6.8666 133.601C1.79596 135.885 1.68754 143.287 6.68898 145.729L100.162 191.364C101.85 192.187 103.799 192.213 105.506 191.433L198.164 149.1C203.209 146.796 203.298 139.421 198.31 136.987L105.474 91.6361C103.798 90.8179 101.862 90.7877 100.162 91.5532Z" fill="#FBFBFB"/>
<path opacity="0.46" d="M66 109.175L100 142.175C94 147.775 51.5 132.508 31 124.175L66 109.175Z" fill="url(#paint1_linear_2694_91793)"/>
<g filter="url(#filter1_d_2694_91793)">
<path d="M104 145L59.0684 164.918C56.8988 165.88 55.5 168.03 55.5 170.403V180.031C55.5 182.437 54.0619 184.611 51.8468 185.553L47.4533 187.42C42.7442 189.421 42.5403 196.02 47.1168 198.308L90.5 220" stroke="#856FF1" stroke-width="2"/>
</g>
<g filter="url(#filter2_d_2694_91793)">
<path d="M103.5 145L141.552 162.88C143.656 163.869 145 165.985 145 168.31V187.544C145 189.944 143.57 192.113 141.364 193.058L140.943 193.239C136.012 195.352 136.121 202.381 141.116 204.34L153 209" stroke="#856FF1" stroke-width="2"/>
</g>
<g opacity="0.5" filter="url(#filter3_f_2694_91793)">
<path d="M100.677 215.343L84.5 234.5L98 241.5L109.724 236.089C110.563 235.702 111.302 235.125 111.882 234.405L120.462 223.754C122.977 220.632 121.708 216.131 117.774 215.357C114.397 214.694 110.903 214.182 107.658 213.349C105.133 212.7 102.359 213.351 100.677 215.343Z" fill="url(#paint2_linear_2694_91793)"/>
</g>
<path d="M98.2754 240.231V227.543L104.619 217.71L110.964 219.613V234.839L98.2754 240.231Z" fill="#FBFBFB"/>
<path d="M98.2749 229L85.2695 223.103V234.205L98.2749 240.232V229Z" fill="url(#paint3_linear_2694_91793)"/>
<path d="M113.499 220.247L105.252 218.344L91.2949 212L98.9078 213.903L113.499 220.247Z" fill="#FAB70A"/>
<path d="M105.253 218.344L97.957 230.081L84 224.054L91.2957 212L105.253 218.344Z" fill="url(#paint4_linear_2694_91793)"/>
<path d="M103.252 226.403C102.286 224.767 104.797 223.131 105.376 225.585C105.762 222.722 107.474 223.127 107.474 224.354C107.474 225.932 105.698 229.129 105.698 229.129C105.698 229.129 104.024 227.712 103.252 226.403Z" fill="url(#paint5_linear_2694_91793)"/>
<g opacity="0.5" filter="url(#filter4_f_2694_91793)">
<path d="M163.876 200.107L147.5 219.5L161 226.5L172.581 221.155C173.512 220.725 174.316 220.065 174.919 219.236L181.512 210.172C183.798 207.028 182.537 202.573 178.886 201.241C176.144 200.241 173.402 199.307 170.358 198.287C168.03 197.508 165.461 198.231 163.876 200.107Z" fill="url(#paint6_linear_2694_91793)"/>
</g>
<path d="M161.275 225.231V212.543L167.619 202.71L173.964 204.613V219.839L161.275 225.231Z" fill="#FBFBFB"/>
<path d="M161.275 214L148.27 208.103V219.205L161.275 225.232V214Z" fill="url(#paint7_linear_2694_91793)"/>
<path d="M176.499 205.247L168.252 203.344L154.295 197L161.908 198.903L176.499 205.247Z" fill="#1BA3DC"/>
<path d="M168.253 203.344L160.957 215.081L147 209.054L154.296 197L168.253 203.344Z" fill="url(#paint8_linear_2694_91793)"/>
<path d="M166.252 211.403C165.286 209.767 167.797 208.131 168.376 210.585C168.762 207.722 170.474 208.127 170.474 209.354C170.474 210.932 168.698 214.129 168.698 214.129C168.698 214.129 167.024 212.712 166.252 211.403Z" fill="url(#paint9_linear_2694_91793)"/>
<path d="M104.692 17.4002C84.7077 49.9186 55.933 50.8414 55.933 50.8414L55.7755 94.2953C55.7164 110.591 78.5084 143.79 104.229 145.046C139.929 123.448 146.922 84.093 146.988 65.7608L147.2 7.36962C147.2 7.36962 120.398 31.0366 104.692 17.4002Z" fill="url(#paint10_linear_2694_91793)"/>
<path d="M105.5 27.5C89.1038 53.9552 64.0876 56.721 64.0876 56.721L63.9594 92.0734C63.9114 105.33 82.6134 132.341 103.717 133.363C133.009 115.793 138.746 83.7755 138.8 68.8612L138.972 21.3565C138.972 21.3565 118.388 38.5945 105.5 27.5Z" fill="url(#paint11_linear_2694_91793)"/>
<mask id="mask0_2694_91793" style="mask-type:alpha" maskUnits="userSpaceOnUse" x="63" y="21" width="76" height="113">
<path d="M105.5 28.9995C89.1038 55.4547 64.0876 56.721 64.0876 56.721L63.9594 92.0734C63.9114 105.33 82.6134 132.341 103.717 133.363C133.009 115.793 138.746 83.7755 138.8 68.8612L138.972 21.3565C138.972 21.3565 118.388 40.094 105.5 28.9995Z" fill="url(#paint12_linear_2694_91793)"/>
</mask>
<g mask="url(#mask0_2694_91793)">
<path d="M56.9166 107.888C56.9166 107.888 62.1851 92.627 98.395 98.4673C134.605 104.308 152.257 68.5192 152.257 68.5192L152.05 125.713L56.7092 165.081L56.9166 107.888Z" fill="#5F49C7"/>
</g>
<path d="M147.199 7.36979L138.464 0.329697C118.319 15.208 101.816 13.8243 96.3759 10.6897L104.529 17.1437C116.753 28.2847 138.409 15.5144 147.199 7.36979Z" fill="url(#paint13_linear_2694_91793)"/>
<path d="M105.112 17.73L96.9606 10.692C74.6575 40.981 55.9665 41.4973 47.7817 43.8037C49.7228 45.3682 54.0705 48.966 55.9326 50.8417C80.2332 49.5281 98.8439 28.2199 105.112 17.73Z" fill="url(#paint14_linear_2694_91793)"/>
<path d="M55.9335 50.8425L47.7825 43.8045C47.7373 56.2637 46.7066 82.8141 47.6004 94.0308C48.4942 105.248 64.6316 121.737 72.0067 127.993C66.5862 119.603 55.7387 104.573 55.7725 95.2285L55.9335 50.8425Z" fill="url(#paint15_linear_2694_91793)"/>
<g filter="url(#filter5_d_2694_91793)">
<path fill-rule="evenodd" clip-rule="evenodd" d="M106.189 54.6433C105.111 54.0713 103.782 55.3155 102.978 56.233L91.3553 72.3775C90.8768 72.9237 90.0462 72.9785 89.5 72.5C88.9538 72.0215 88.899 71.1908 89.3775 70.6447L101 54.5002C102.608 52.6651 105.267 51.1768 107.422 52.3207L117.96 57.5949C118.602 57.9353 118.846 58.7313 118.505 59.3726C118.165 60.014 117.369 60.2579 116.727 59.9174L106.189 54.6433Z" fill="url(#paint16_linear_2694_91793)"/>
</g>
<g filter="url(#filter6_d_2694_91793)">
<path d="M101.458 68.5591C100.179 66.1879 103.825 64.0068 104.512 67.5157C105.216 61.4794 108.119 64.0654 107.654 65.5809C106.593 69.0372 104.775 72.5561 104.775 72.5561C104.775 72.5561 102.481 70.456 101.458 68.5591Z" fill="url(#paint17_linear_2694_91793)"/>
</g>
<g filter="url(#filter7_d_2694_91793)">
<path fill-rule="evenodd" clip-rule="evenodd" d="M114.4 61.3406C115.126 61.3406 115.715 61.9292 115.715 62.6553L115.715 74.0267C115.715 75.2783 114.833 76.3564 113.606 76.6042L96.4322 85.0731C94.8037 85.402 93.282 84.157 93.282 82.4956L93.282 72.9015C93.282 72.1754 93.8707 71.5867 94.5968 71.5868C95.3229 71.5867 95.9116 72.1754 95.9116 72.9015L95.9116 82.4956L113.085 74.0268L113.085 62.6553C113.085 61.9292 113.674 61.3406 114.4 61.3406Z" fill="url(#paint18_linear_2694_91793)"/>
</g>
<g filter="url(#filter8_d_2694_91793)">
<path d="M103.711 132.447V145.447" stroke="#856FF1" stroke-width="2"/>
</g>
<defs>
<filter id="filter0_f_2694_91793" x="0.244141" y="131.812" width="198.756" height="81.0815" filterUnits="userSpaceOnUse" color-interpolation-filters="sRGB">
<feFlood flood-opacity="0" result="BackgroundImageFix"/>
<feBlend mode="normal" in="SourceGraphic" in2="BackgroundImageFix" result="shape"/>
<feGaussianBlur stdDeviation="6" result="effect1_foregroundBlur_2694_91793"/>
</filter>
<filter id="filter1_d_2694_91793" x="39.8008" y="143.086" width="67.6035" height="82.8088" filterUnits="userSpaceOnUse" color-interpolation-filters="sRGB">
<feFlood flood-opacity="0" result="BackgroundImageFix"/>
<feColorMatrix in="SourceAlpha" type="matrix" values="0 0 0 0 0 0 0 0 0 0 0 0 0 0 0 0 0 0 127 0" result="hardAlpha"/>
<feOffset dy="2"/>
<feGaussianBlur stdDeviation="1.5"/>
<feComposite in2="hardAlpha" operator="out"/>
<feColorMatrix type="matrix" values="0 0 0 0 0.521569 0 0 0 0 0.435294 0 0 0 0 0.945098 0 0 0 1 0"/>
<feBlend mode="normal" in2="BackgroundImageFix" result="effect1_dropShadow_2694_91793"/>
<feBlend mode="normal" in="SourceGraphic" in2="effect1_dropShadow_2694_91793" result="shape"/>
</filter>
<filter id="filter2_d_2694_91793" x="100.074" y="143.095" width="56.291" height="71.8359" filterUnits="userSpaceOnUse" color-interpolation-filters="sRGB">
<feFlood flood-opacity="0" result="BackgroundImageFix"/>
<feColorMatrix in="SourceAlpha" type="matrix" values="0 0 0 0 0 0 0 0 0 0 0 0 0 0 0 0 0 0 127 0" result="hardAlpha"/>
<feOffset dy="2"/>
<feGaussianBlur stdDeviation="1.5"/>
<feComposite in2="hardAlpha" operator="out"/>
<feColorMatrix type="matrix" values="0 0 0 0 0.521569 0 0 0 0 0.435294 0 0 0 0 0.945098 0 0 0 1 0"/>
<feBlend mode="normal" in2="BackgroundImageFix" result="effect1_dropShadow_2694_91793"/>
<feBlend mode="normal" in="SourceGraphic" in2="effect1_dropShadow_2694_91793" result="shape"/>
</filter>
<filter id="filter3_f_2694_91793" x="82.5" y="211.106" width="41.2598" height="32.3936" filterUnits="userSpaceOnUse" color-interpolation-filters="sRGB">
<feFlood flood-opacity="0" result="BackgroundImageFix"/>
<feBlend mode="normal" in="SourceGraphic" in2="BackgroundImageFix" result="shape"/>
<feGaussianBlur stdDeviation="1" result="effect1_foregroundBlur_2694_91793"/>
</filter>
<filter id="filter4_f_2694_91793" x="145.5" y="195.978" width="39.1582" height="32.5225" filterUnits="userSpaceOnUse" color-interpolation-filters="sRGB">
<feFlood flood-opacity="0" result="BackgroundImageFix"/>
<feBlend mode="normal" in="SourceGraphic" in2="BackgroundImageFix" result="shape"/>
<feGaussianBlur stdDeviation="1" result="effect1_foregroundBlur_2694_91793"/>
</filter>
<filter id="filter5_d_2694_91793" x="86.7996" y="48.5436" width="34.1098" height="25.4079" filterUnits="userSpaceOnUse" color-interpolation-filters="sRGB">
<feFlood flood-opacity="0" result="BackgroundImageFix"/>
<feColorMatrix in="SourceAlpha" type="matrix" values="0 0 0 0 0 0 0 0 0 0 0 0 0 0 0 0 0 0 127 0" result="hardAlpha"/>
<feOffset dy="-1.12559"/>
<feGaussianBlur stdDeviation="1.12559"/>
<feComposite in2="hardAlpha" operator="out"/>
<feColorMatrix type="matrix" values="0 0 0 0 0.371436 0 0 0 0 0.285851 0 0 0 0 0.770833 0 0 0 1 0"/>
<feBlend mode="normal" in2="BackgroundImageFix" result="effect1_dropShadow_2694_91793"/>
<feBlend mode="normal" in="SourceGraphic" in2="effect1_dropShadow_2694_91793" result="shape"/>
</filter>
<filter id="filter6_d_2694_91793" x="98.9363" y="60.3344" width="11.0199" height="13.3473" filterUnits="userSpaceOnUse" color-interpolation-filters="sRGB">
<feFlood flood-opacity="0" result="BackgroundImageFix"/>
<feColorMatrix in="SourceAlpha" type="matrix" values="0 0 0 0 0 0 0 0 0 0 0 0 0 0 0 0 0 0 127 0" result="hardAlpha"/>
<feOffset dy="-1.12559"/>
<feGaussianBlur stdDeviation="1.12559"/>
<feComposite in2="hardAlpha" operator="out"/>
<feColorMatrix type="matrix" values="0 0 0 0 0.371436 0 0 0 0 0.285851 0 0 0 0 0.770833 0 0 0 1 0"/>
<feBlend mode="normal" in2="BackgroundImageFix" result="effect1_dropShadow_2694_91793"/>
<feBlend mode="normal" in="SourceGraphic" in2="effect1_dropShadow_2694_91793" result="shape"/>
</filter>
<filter id="filter7_d_2694_91793" x="91.0301" y="57.9638" width="26.936" height="28.2878" filterUnits="userSpaceOnUse" color-interpolation-filters="sRGB">
<feFlood flood-opacity="0" result="BackgroundImageFix"/>
<feColorMatrix in="SourceAlpha" type="matrix" values="0 0 0 0 0 0 0 0 0 0 0 0 0 0 0 0 0 0 127 0" result="hardAlpha"/>
<feOffset dy="-1.12559"/>
<feGaussianBlur stdDeviation="1.12559"/>
<feComposite in2="hardAlpha" operator="out"/>
<feColorMatrix type="matrix" values="0 0 0 0 0.371436 0 0 0 0 0.285851 0 0 0 0 0.770833 0 0 0 1 0"/>
<feBlend mode="normal" in2="BackgroundImageFix" result="effect1_dropShadow_2694_91793"/>
<feBlend mode="normal" in="SourceGraphic" in2="effect1_dropShadow_2694_91793" result="shape"/>
</filter>
<filter id="filter8_d_2694_91793" x="99.7109" y="131.447" width="8" height="19" filterUnits="userSpaceOnUse" color-interpolation-filters="sRGB">
<feFlood flood-opacity="0" result="BackgroundImageFix"/>
<feColorMatrix in="SourceAlpha" type="matrix" values="0 0 0 0 0 0 0 0 0 0 0 0 0 0 0 0 0 0 127 0" result="hardAlpha"/>
<feOffset dy="2"/>
<feGaussianBlur stdDeviation="1.5"/>
<feComposite in2="hardAlpha" operator="out"/>
<feColorMatrix type="matrix" values="0 0 0 0 0.521569 0 0 0 0 0.435294 0 0 0 0 0.945098 0 0 0 1 0"/>
<feBlend mode="normal" in2="BackgroundImageFix" result="effect1_dropShadow_2694_91793"/>
<feBlend mode="normal" in="SourceGraphic" in2="effect1_dropShadow_2694_91793" result="shape"/>
</filter>
<linearGradient id="paint0_linear_2694_91793" x1="7.4586" y1="180.602" x2="203.094" y2="171.358" gradientUnits="userSpaceOnUse">
<stop stop-color="#ECECEC"/>
<stop offset="1" stop-color="#ECECEC"/>
</linearGradient>
<linearGradient id="paint1_linear_2694_91793" x1="93" y1="138.675" x2="48.5" y2="118.175" gradientUnits="userSpaceOnUse">
<stop stop-opacity="0.26"/>
<stop offset="1" stop-opacity="0"/>
<stop offset="1" stop-opacity="0"/>
</linearGradient>
<linearGradient id="paint2_linear_2694_91793" x1="96.5" y1="237.5" x2="110.5" y2="215.5" gradientUnits="userSpaceOnUse">
<stop stop-color="#599990"/>
<stop offset="1" stop-color="#599990" stop-opacity="0"/>
</linearGradient>
<linearGradient id="paint3_linear_2694_91793" x1="91.7722" y1="223.103" x2="91.7722" y2="240.232" gradientUnits="userSpaceOnUse">
<stop stop-color="#ECECEC"/>
<stop offset="1" stop-color="#EDEAEA"/>
</linearGradient>
<linearGradient id="paint4_linear_2694_91793" x1="94.6263" y1="212" x2="94.6263" y2="230.081" gradientUnits="userSpaceOnUse">
<stop stop-color="#F99909"/>
<stop offset="1" stop-color="#F98B09"/>
</linearGradient>
<linearGradient id="paint5_linear_2694_91793" x1="105.254" y1="223.42" x2="105.254" y2="229.129" gradientUnits="userSpaceOnUse">
<stop stop-color="#FFD83C"/>
<stop offset="1" stop-color="#F9C909"/>
</linearGradient>
<linearGradient id="paint6_linear_2694_91793" x1="159.5" y1="222.5" x2="173.5" y2="200.5" gradientUnits="userSpaceOnUse">
<stop stop-color="#599990"/>
<stop offset="1" stop-color="#599990" stop-opacity="0"/>
</linearGradient>
<linearGradient id="paint7_linear_2694_91793" x1="154.772" y1="208.103" x2="154.772" y2="225.232" gradientUnits="userSpaceOnUse">
<stop stop-color="#ECECEC"/>
<stop offset="1" stop-color="#EDEAEA"/>
</linearGradient>
<linearGradient id="paint8_linear_2694_91793" x1="157.626" y1="197" x2="157.626" y2="215.081" gradientUnits="userSpaceOnUse">
<stop stop-color="#51C0FF"/>
<stop offset="1" stop-color="#5AB3E6"/>
</linearGradient>
<linearGradient id="paint9_linear_2694_91793" x1="168.254" y1="208.42" x2="168.254" y2="214.129" gradientUnits="userSpaceOnUse">
<stop stop-color="#FFD83C"/>
<stop offset="1" stop-color="#F9C909"/>
</linearGradient>
<linearGradient id="paint10_linear_2694_91793" x1="60.0005" y1="32.6743" x2="121" y2="131.674" gradientUnits="userSpaceOnUse">
<stop stop-color="#FCFFFF"/>
<stop offset="1" stop-color="#E1F1F0"/>
</linearGradient>
<linearGradient id="paint11_linear_2694_91793" x1="101.595" y1="21.221" x2="101.188" y2="133.354" gradientUnits="userSpaceOnUse">
<stop stop-color="#6B91F3"/>
<stop offset="1" stop-color="#836BF3"/>
</linearGradient>
<linearGradient id="paint12_linear_2694_91793" x1="101.595" y1="21.221" x2="101.188" y2="133.354" gradientUnits="userSpaceOnUse">
<stop stop-color="#8D76FA"/>
<stop offset="1" stop-color="#866EF4" stop-opacity="0"/>
</linearGradient>
<linearGradient id="paint13_linear_2694_91793" x1="118" y1="11.1746" x2="121.742" y2="21.5238" gradientUnits="userSpaceOnUse">
<stop stop-color="white"/>
<stop offset="1" stop-color="#ECF4F4"/>
</linearGradient>
<linearGradient id="paint14_linear_2694_91793" x1="71.0005" y1="44.6746" x2="56.0005" y2="54.6746" gradientUnits="userSpaceOnUse">
<stop stop-color="#D2E8E6"/>
<stop offset="1" stop-color="#D2E8E6" stop-opacity="0"/>
</linearGradient>
<linearGradient id="paint15_linear_2694_91793" x1="60.001" y1="77.1748" x2="64.501" y2="123.175" gradientUnits="userSpaceOnUse">
<stop stop-color="#D2E8E6"/>
<stop offset="1" stop-color="white"/>
</linearGradient>
<linearGradient id="paint16_linear_2694_91793" x1="101.5" y1="44.1746" x2="104.338" y2="70.4716" gradientUnits="userSpaceOnUse">
<stop offset="0.208333" stop-color="#D6CEFF"/>
<stop offset="1" stop-color="white"/>
</linearGradient>
<linearGradient id="paint17_linear_2694_91793" x1="104.527" y1="65.2995" x2="104.248" y2="72.5359" gradientUnits="userSpaceOnUse">
<stop stop-color="white"/>
<stop offset="1" stop-color="#D6CEFF"/>
</linearGradient>
<linearGradient id="paint18_linear_2694_91793" x1="105.5" y1="83.6746" x2="105.5" y2="67.6746" gradientUnits="userSpaceOnUse">
<stop stop-color="white"/>
<stop offset="1" stop-color="#D6CEFF"/>
</linearGradient>
</defs>
</svg>
