<svg width="200" height="231" viewBox="0 0 200 231" fill="none" xmlns="http://www.w3.org/2000/svg">
<g filter="url(#filter0_f_178_23305)">
<ellipse cx="97.5" cy="209.5" rx="84.5" ry="17.5" fill="#1D8980" fill-opacity="0.11"/>
</g>
<path d="M200 186.528C200 203.909 155.228 218 100 218C44.7715 218 0 203.909 0 186.528C0 176.763 1.34913e-05 173.207 0 165.5C17.2982 160.997 75.7979 164.046 100 164.046C134.038 164.046 181.939 157.824 200 166C200 173.707 200 179.858 200 186.528Z" fill="url(#paint0_linear_178_23305)"/>
<ellipse cx="100" cy="166.5" rx="100" ry="31.5" fill="url(#paint1_linear_178_23305)"/>
<path d="M182.5 148.5C175.5 169.5 89.5 180.999 81 165.499C81 161.357 121.155 137.499 138 137.499C150 138.5 175 142.5 182.5 148.5Z" fill="url(#paint2_linear_178_23305)" fill-opacity="0.17"/>
<path d="M167 103.499C167 131.221 151.774 155.04 130 165.431C112.5 173.782 91.9999 170.999 91.9999 170.999C28.686 135.891 30.302 74.5833 93.5 35.999C93.5 35.999 113.964 36.48 118 37.3947C145.972 43.7334 167 70.9212 167 103.499Z" fill="url(#paint3_linear_178_23305)"/>
<path d="M153.5 103.499C153.5 140.084 126.509 169.499 93.5 169.499C60.4913 169.499 33.5 140.084 33.5 103.499C33.5 66.9138 60.4913 37.499 93.5 37.499C126.509 37.499 153.5 66.9138 153.5 103.499Z" fill="url(#paint4_linear_178_23305)" stroke="url(#paint5_linear_178_23305)" stroke-width="3"/>
<path d="M138.5 102.5C138.5 130.576 118.138 152.5 94 152.5C69.8616 152.5 49.5 130.576 49.5 102.5C49.5 74.4235 69.8616 52.5 94 52.5C118.138 52.5 138.5 74.4235 138.5 102.5Z" stroke="#E3E3E3" stroke-width="9"/>
<mask id="mask0_178_23305" style="mask-type:alpha" maskUnits="userSpaceOnUse" x="45" y="48" width="98" height="109">
<path fill-rule="evenodd" clip-rule="evenodd" d="M94 148C115.215 148 134 128.553 134 102.5C134 76.4466 115.215 57 94 57C72.7852 57 54 76.4466 54 102.5C54 128.553 72.7852 148 94 148ZM94 157C121.062 157 143 132.6 143 102.5C143 72.4005 121.062 48 94 48C66.938 48 45 72.4005 45 102.5C45 132.6 66.938 157 94 157Z" fill="#E3E3E3"/>
</mask>
<g mask="url(#mask0_178_23305)">
<mask id="path-9-inside-1_178_23305" fill="white">
<path d="M94 157C106.996 157 119.459 151.258 128.648 141.037C137.838 130.817 143 116.954 143 102.5C143 88.0457 137.838 74.1834 128.648 63.9627C119.459 53.742 106.996 48 94 48L94 102.5L94 157Z"/>
</mask>
<path d="M94 157C106.996 157 119.459 151.258 128.648 141.037C137.838 130.817 143 116.954 143 102.5C143 88.0457 137.838 74.1834 128.648 63.9627C119.459 53.742 106.996 48 94 48L94 102.5L94 157Z" stroke="url(#paint6_linear_178_23305)" stroke-width="18" mask="url(#path-9-inside-1_178_23305)"/>
</g>
<path d="M117.5 103.499C117.5 118.924 106.495 130.499 94 130.499C81.5049 130.499 70.5 118.924 70.5 103.499C70.5 88.0744 81.5049 76.499 94 76.499C106.495 76.499 117.5 88.0744 117.5 103.499Z" stroke="#E3E3E3" stroke-width="9"/>
<mask id="mask1_178_23305" style="mask-type:alpha" maskUnits="userSpaceOnUse" x="66" y="71" width="56" height="64">
<path fill-rule="evenodd" clip-rule="evenodd" d="M94 125.999C103.526 125.999 113 116.951 113 103.499C113 90.0468 103.526 80.999 94 80.999C84.4739 80.999 75 90.0468 75 103.499C75 116.951 84.4739 125.999 94 125.999ZM94 134.999C109.464 134.999 122 120.896 122 103.499C122 86.1021 109.464 71.999 94 71.999C78.536 71.999 66 86.1021 66 103.499C66 120.896 78.536 134.999 94 134.999Z" fill="#E3E3E3"/>
</mask>
<g mask="url(#mask1_178_23305)">
<mask id="path-12-inside-2_178_23305" fill="white">
<path d="M74.201 125.773C77.457 129.436 81.4657 132.139 85.872 133.643C90.2784 135.146 94.9464 135.404 99.4625 134.394C103.979 133.383 108.204 131.135 111.763 127.849C115.322 124.563 118.107 120.339 119.869 115.554C121.631 110.768 122.317 105.567 121.865 100.411C121.414 95.2562 119.839 90.3057 117.281 85.9986C114.723 81.6914 111.26 78.1604 107.199 75.7185C103.138 73.2766 98.6046 71.999 94 71.999L94 103.499L74.201 125.773Z"/>
</mask>
<path d="M74.201 125.773C77.457 129.436 81.4657 132.139 85.872 133.643C90.2784 135.146 94.9464 135.404 99.4625 134.394C103.979 133.383 108.204 131.135 111.763 127.849C115.322 124.563 118.107 120.339 119.869 115.554C121.631 110.768 122.317 105.567 121.865 100.411C121.414 95.2562 119.839 90.3057 117.281 85.9986C114.723 81.6914 111.26 78.1604 107.199 75.7185C103.138 73.2766 98.6046 71.999 94 71.999L94 103.499L74.201 125.773Z" stroke="url(#paint7_linear_178_23305)" stroke-width="24" stroke-linecap="round" mask="url(#path-12-inside-2_178_23305)"/>
</g>
<ellipse cx="93.5" cy="103.499" rx="7.5" ry="8.5" fill="#F0696A"/>
<path d="M17.3384 59.777L26.0153 65.1723C24.7198 63.1443 22.8074 58.6617 22.8074 58.6617C22.8074 58.6617 13.3894 51.3622 17.3384 59.777Z" fill="url(#paint8_linear_178_23305)"/>
<path d="M15.3118 61.0722L24.5426 66.5884C19.7041 66.984 16.4363 66.2582 14.3361 65.4992C10.152 63.4174 10.884 60.0963 15.3118 61.0722Z" fill="url(#paint9_linear_178_23305)"/>
<path fill-rule="evenodd" clip-rule="evenodd" d="M15.0814 59.8894C15.5632 59.0833 16.6071 58.8204 17.4132 59.3021L92.7968 104.355C93.6028 104.837 94.68 107.418 94.68 107.418C94.68 107.418 91.8583 107.756 91.0523 107.274L15.6686 62.2211C14.8626 61.7394 14.5997 60.6954 15.0814 59.8894Z" fill="url(#paint10_linear_178_23305)"/>
<path d="M19.4302 60.8186C30.9407 67.2084 34.5587 70.4889 46.0692 76.8787C41.5037 63.3623 17.3112 44.1014 19.4302 60.8186Z" fill="url(#paint11_linear_178_23305)"/>
<path d="M18.3885 62.911C29.8111 69.4566 34.4056 72.6249 45.8282 79.1705C23.0964 83.681 1.42728 66.1367 18.3885 62.911Z" fill="url(#paint12_linear_178_23305)"/>
<rect x="76" width="64" height="24" rx="4" fill="#46BADE"/>
<path d="M82.599 6.899V9.941H92.401V6.899H82.599ZM91.504 9.174H89.437V7.666H91.504V9.174ZM88.579 9.174H86.421V7.666H88.579V9.174ZM85.576 9.174H83.496V7.666H85.576V9.174ZM83.301 10.656V16.285H91.712V10.656H83.301ZM90.815 15.518H84.198V14.556H90.815V15.518ZM84.198 13.88V12.983H90.815V13.88H84.198ZM84.198 12.307V11.397H90.815V12.307H84.198ZM88.969 16.428L88.644 17.065C90.061 17.377 91.426 17.806 92.739 18.352L93.051 17.598C91.751 17.078 90.386 16.688 88.969 16.428ZM85.888 16.363C84.991 16.883 83.678 17.299 81.936 17.637L82.352 18.365C84.094 18.014 85.42 17.546 86.356 16.974L85.888 16.363ZM99.434 13.529C99.291 15.375 98.394 16.688 96.743 17.494L97.237 18.274C98.537 17.598 99.447 16.649 99.941 15.427H104.14C104.075 16.285 104.023 16.805 103.984 16.974C103.919 17.13 103.789 17.234 103.607 17.312C103.399 17.377 102.957 17.416 102.255 17.416C102.008 17.416 101.761 17.403 101.514 17.39L101.774 18.235H102.008C103.1 18.235 103.815 18.183 104.153 18.092C104.491 17.988 104.712 17.806 104.816 17.52C104.933 17.234 105.024 16.259 105.076 14.595H100.201C100.279 14.257 100.331 13.906 100.357 13.529H106.025V12.71H102.047C101.891 12.294 101.735 11.917 101.579 11.592L100.604 11.748C100.773 12.034 100.929 12.359 101.085 12.71H97.354V13.529H99.434ZM105.076 6.366C102.372 6.756 99.317 6.964 95.937 6.99V11.397C95.872 13.893 95.43 15.843 94.624 17.247L95.3 17.962C96.249 16.324 96.756 14.14 96.808 11.397V11.28H105.492V8.472H96.808V7.718C100.032 7.666 102.918 7.458 105.479 7.107L105.076 6.366ZM96.808 10.474V9.278H104.582V10.474H96.808ZM117.868 7.016H109.145V18.313H110.094V17.442H116.932V18.287H117.868V7.016ZM110.094 16.532V14.088H116.932V16.532H110.094ZM110.094 13.23V10.942H116.932V13.23H110.094ZM110.094 10.084V7.926H116.932V10.084H110.094ZM123.393 11.319C123.718 11.826 124.108 12.502 124.576 13.347L125.122 12.528C124.55 11.722 123.965 10.994 123.393 10.331V9.59H124.81V8.732H123.393V6.379H122.522V8.732H120.923V9.59H122.457C122.08 11.202 121.443 12.632 120.533 13.906L120.936 14.933C121.586 13.893 122.119 12.723 122.522 11.449V18.274H123.393V11.319ZM125.369 8.628V11.67H131.999V8.628H130.075V7.666H132.233V6.86H125.031V7.666H127.28V8.628H125.369ZM129.295 7.666V8.628H128.06V7.666H129.295ZM131.18 10.942H130.01V9.343H131.18V10.942ZM129.282 10.942H128.073V9.343H129.282V10.942ZM127.345 10.942H126.188V9.343H127.345V10.942ZM125.707 12.476V13.282H131.739V12.476H125.707ZM125.109 14.166V14.972H128.177V18.261H129.035V14.972H132.259V14.166H125.109ZM126.578 15.479C126.006 16.259 125.317 16.935 124.498 17.507L125.031 18.196C125.876 17.572 126.591 16.831 127.176 15.999L126.578 15.479ZM130.582 15.492L130.01 16.038C130.816 16.792 131.453 17.494 131.908 18.157L132.532 17.546C132.012 16.87 131.362 16.181 130.582 15.492Z" fill="white"/>
<rect x="46" y="163" width="68" height="24" rx="4" fill="#2981D2"/>
<path d="M55.599 169.899V172.941H65.401V169.899H55.599ZM64.504 172.174H62.437V170.666H64.504V172.174ZM61.579 172.174H59.421V170.666H61.579V172.174ZM58.576 172.174H56.496V170.666H58.576V172.174ZM56.301 173.656V179.285H64.712V173.656H56.301ZM63.815 178.518H57.198V177.556H63.815V178.518ZM57.198 176.88V175.983H63.815V176.88H57.198ZM57.198 175.307V174.397H63.815V175.307H57.198ZM61.969 179.428L61.644 180.065C63.061 180.377 64.426 180.806 65.739 181.352L66.051 180.598C64.751 180.078 63.386 179.688 61.969 179.428ZM58.888 179.363C57.991 179.883 56.678 180.299 54.936 180.637L55.352 181.365C57.094 181.014 58.42 180.546 59.356 179.974L58.888 179.363ZM69.002 172.447V177.504H73.058V178.622H67.754V179.532H73.058V181.3H74.007V179.532H79.259V178.622H74.007V177.504H78.024V172.447H74.007V171.355H79.077V170.471H74.007V169.366H73.058V170.471H67.936V171.355H73.058V172.447H69.002ZM77.127 176.633H74.007V175.398H77.127V176.633ZM73.058 176.633H69.899V175.398H73.058V176.633ZM69.899 174.553V173.305H73.058V174.553H69.899ZM74.007 173.305H77.127V174.553H74.007V173.305ZM90.868 170.016H82.145V181.313H83.094V180.442H89.932V181.287H90.868V170.016ZM83.094 179.532V177.088H89.932V179.532H83.094ZM83.094 176.23V173.942H89.932V176.23H83.094ZM83.094 173.084V170.926H89.932V173.084H83.094ZM96.393 174.319C96.718 174.826 97.108 175.502 97.576 176.347L98.122 175.528C97.55 174.722 96.965 173.994 96.393 173.331V172.59H97.81V171.732H96.393V169.379H95.522V171.732H93.923V172.59H95.457C95.08 174.202 94.443 175.632 93.533 176.906L93.936 177.933C94.586 176.893 95.119 175.723 95.522 174.449V181.274H96.393V174.319ZM98.369 171.628V174.67H104.999V171.628H103.075V170.666H105.233V169.86H98.031V170.666H100.28V171.628H98.369ZM102.295 170.666V171.628H101.06V170.666H102.295ZM104.18 173.942H103.01V172.343H104.18V173.942ZM102.282 173.942H101.073V172.343H102.282V173.942ZM100.345 173.942H99.188V172.343H100.345V173.942ZM98.707 175.476V176.282H104.739V175.476H98.707ZM98.109 177.166V177.972H101.177V181.261H102.035V177.972H105.259V177.166H98.109ZM99.578 178.479C99.006 179.259 98.317 179.935 97.498 180.507L98.031 181.196C98.876 180.572 99.591 179.831 100.176 178.999L99.578 178.479ZM103.582 178.492L103.01 179.038C103.816 179.792 104.453 180.494 104.908 181.157L105.532 180.546C105.012 179.87 104.362 179.181 103.582 178.492Z" fill="white"/>
<path d="M74.5002 163.5L74.5 125.5" stroke="#2981D2"/>
<path d="M94 24L94 57" stroke="#46BADE"/>
<circle cx="93.5" cy="52.5" r="4.5" fill="#46BADE"/>
<circle cx="77.5" cy="122.5" r="4.5" fill="#1955A5"/>
<path d="M63.7745 43.1034L52.7893 24.9383C59.2938 10.7856 63.7202 41.4395 63.7745 43.1034Z" fill="url(#paint13_linear_178_23305)"/>
<path d="M58.5332 39.9236L50.7826 26.0294C37.6991 22.1382 50.5925 43.0123 58.5332 39.9236Z" fill="url(#paint14_linear_178_23305)"/>
<path fill-rule="evenodd" clip-rule="evenodd" d="M50.7803 23.9026C51.605 23.4535 52.6376 23.758 53.0866 24.5827L95.1355 101.801C95.5846 102.626 94.7207 105.162 94.7207 105.162C94.7207 105.162 92.5981 104.252 92.149 103.427L50.1002 26.209C49.6511 25.3843 49.9556 24.3517 50.7803 23.9026Z" fill="url(#paint15_linear_178_23305)"/>
<path d="M54.0626 26.9002C60.7343 38.2644 62.1785 42.9448 68.8503 54.309C71.841 40.2328 65.7027 17.7994 54.0626 26.9002Z" fill="url(#paint16_linear_178_23305)"/>
<path d="M52.089 28.1977C58.6049 39.6533 60.9508 44.7277 67.4666 56.1834C45.4981 48.6657 38.7684 29.7723 52.089 28.1977Z" fill="url(#paint17_linear_178_23305)"/>
<defs>
<filter id="filter0_f_178_23305" x="9" y="188" width="177" height="43" filterUnits="userSpaceOnUse" color-interpolation-filters="sRGB">
<feFlood flood-opacity="0" result="BackgroundImageFix"/>
<feBlend mode="normal" in="SourceGraphic" in2="BackgroundImageFix" result="shape"/>
<feGaussianBlur stdDeviation="2" result="effect1_foregroundBlur_178_23305"/>
</filter>
<linearGradient id="paint0_linear_178_23305" x1="4.4586" y1="192.951" x2="200.009" y2="182.844" gradientUnits="userSpaceOnUse">
<stop stop-color="#ECECEC"/>
<stop offset="1" stop-color="#ECECEC"/>
</linearGradient>
<linearGradient id="paint1_linear_178_23305" x1="30.198" y1="146.174" x2="175.872" y2="177.572" gradientUnits="userSpaceOnUse">
<stop stop-color="#F7FEFD"/>
<stop offset="1" stop-color="#FBFBFB"/>
</linearGradient>
<linearGradient id="paint2_linear_178_23305" x1="111.5" y1="164.674" x2="177" y2="137.174" gradientUnits="userSpaceOnUse">
<stop stop-color="#5A5A5A"/>
<stop offset="1" stop-color="#5A5A5A" stop-opacity="0"/>
</linearGradient>
<linearGradient id="paint3_linear_178_23305" x1="106.15" y1="35.999" x2="134" y2="163.174" gradientUnits="userSpaceOnUse">
<stop stop-color="#E2F1EF"/>
<stop offset="0.484375" stop-color="white"/>
<stop offset="1" stop-color="#B8D6D3"/>
</linearGradient>
<linearGradient id="paint4_linear_178_23305" x1="93.5" y1="35.999" x2="93.5" y2="170.999" gradientUnits="userSpaceOnUse">
<stop stop-color="white"/>
<stop offset="1" stop-color="#FCFBFB"/>
</linearGradient>
<linearGradient id="paint5_linear_178_23305" x1="69.5" y1="39.6743" x2="100.5" y2="97.6743" gradientUnits="userSpaceOnUse">
<stop stop-color="white"/>
<stop offset="1" stop-color="#D3E8E7"/>
</linearGradient>
<linearGradient id="paint6_linear_178_23305" x1="94" y1="48" x2="94" y2="157" gradientUnits="userSpaceOnUse">
<stop stop-color="#68D7FA"/>
<stop offset="1" stop-color="#68E0FA"/>
</linearGradient>
<linearGradient id="paint7_linear_178_23305" x1="95.784" y1="71.999" x2="95.784" y2="134.999" gradientUnits="userSpaceOnUse">
<stop stop-color="#41B9FC"/>
<stop offset="1" stop-color="#2C71D8"/>
</linearGradient>
<linearGradient id="paint8_linear_178_23305" x1="13.8863" y1="54.374" x2="20.3495" y2="59.2807" gradientUnits="userSpaceOnUse">
<stop stop-color="#F0696A"/>
<stop offset="1" stop-color="#CB3434"/>
</linearGradient>
<linearGradient id="paint9_linear_178_23305" x1="10.2948" y1="60.4813" x2="16.7761" y2="65.3643" gradientUnits="userSpaceOnUse">
<stop stop-color="#F0696A"/>
<stop offset="1" stop-color="#CB3434"/>
</linearGradient>
<linearGradient id="paint10_linear_178_23305" x1="62.2446" y1="77.2191" x2="55.6955" y2="93.767" gradientUnits="userSpaceOnUse">
<stop stop-color="#F16A6B"/>
<stop offset="1" stop-color="#DC3E3F"/>
</linearGradient>
<linearGradient id="paint11_linear_178_23305" x1="33.7721" y1="54.7052" x2="29.6812" y2="73.2657" gradientUnits="userSpaceOnUse">
<stop stop-color="#F0696A"/>
<stop offset="1" stop-color="#D84949"/>
</linearGradient>
<linearGradient id="paint12_linear_178_23305" x1="20.491" y1="80.1158" x2="34.2593" y2="67.0139" gradientUnits="userSpaceOnUse">
<stop stop-color="#F0696A"/>
<stop offset="1" stop-color="#D84949"/>
</linearGradient>
<linearGradient id="paint13_linear_178_23305" x1="52.5776" y1="18.4923" x2="55.714" y2="25.9945" gradientUnits="userSpaceOnUse">
<stop stop-color="#F0696A"/>
<stop offset="1" stop-color="#CB3434"/>
</linearGradient>
<linearGradient id="paint14_linear_178_23305" x1="46.3323" y1="22.0073" x2="49.4959" y2="29.4977" gradientUnits="userSpaceOnUse">
<stop stop-color="#F0696A"/>
<stop offset="1" stop-color="#CB3434"/>
</linearGradient>
<linearGradient id="paint15_linear_178_23305" x1="81.024" y1="66.5179" x2="68.4768" y2="73.8257" gradientUnits="userSpaceOnUse">
<stop stop-color="#F16A6B"/>
<stop offset="1" stop-color="#DC3E3F"/>
</linearGradient>
<linearGradient id="paint16_linear_178_23305" x1="69.6004" y1="28.7961" x2="56.5364" y2="42.9079" gradientUnits="userSpaceOnUse">
<stop stop-color="#F0696A"/>
<stop offset="1" stop-color="#D84949"/>
</linearGradient>
<linearGradient id="paint17_linear_178_23305" x1="45.076" y1="44.247" x2="63.7515" y2="39.9682" gradientUnits="userSpaceOnUse">
<stop stop-color="#F0696A"/>
<stop offset="1" stop-color="#D84949"/>
</linearGradient>
</defs>
</svg>
