<svg width="40" height="40" viewBox="0 0 40 40" fill="none" xmlns="http://www.w3.org/2000/svg">
<path fill-rule="evenodd" clip-rule="evenodd" d="M2 11C2 10.4477 2.44772 10 3 10H5C5.55228 10 6 10.4477 6 11V27H37C37.5523 27 38 27.4477 38 28V29V30V37C38 37.5523 37.5523 38 37 38H35C34.4477 38 34 37.5523 34 37V31H6V37C6 37.5523 5.55228 38 5 38H3C2.44772 38 2 37.5523 2 37V30V28V11ZM14.8868 25H8.17443C7.6581 23.6667 8.49999 21 11.2727 21C14.5 21 15.231 23.6667 14.8868 25ZM19 21C17.8954 21 17 21.8954 17 23V25H38V23C38 21.8954 37.1046 21 36 21H19Z" fill="#009891"/>
<mask id="mask0_1631_2205" style="mask-type:alpha" maskUnits="userSpaceOnUse" x="2" y="10" width="36" height="28">
<path fill-rule="evenodd" clip-rule="evenodd" d="M2 11C2 10.4477 2.44772 10 3 10H5C5.55228 10 6 10.4477 6 11V27H37C37.5523 27 38 27.4477 38 28V29V30V37C38 37.5523 37.5523 38 37 38H35C34.4477 38 34 37.5523 34 37V31H6V37C6 37.5523 5.55228 38 5 38H3C2.44772 38 2 37.5523 2 37V30V28V11ZM14.8868 25H8.17443C7.6581 23.6667 8.49999 21 11.2727 21C14.5 21 15.231 23.6667 14.8868 25ZM19 21C17.8954 21 17 21.8954 17 23V25H38V23C38 21.8954 37.1046 21 36 21H19Z" fill="#009891"/>
</mask>
<g mask="url(#mask0_1631_2205)">
<path d="M40.3942 18.4623C42.4193 25.3445 38.5255 32.3854 31.6972 34.1887C24.8689 35.992 17.6918 31.8747 15.6667 24.9925C15.5175 24.4853 15.4004 23.9772 15.3142 23.4704C15.1732 22.6407 15.1151 21.8145 15.1348 21.0012C15.1551 20.1604 15.2586 19.3334 15.4393 18.5308C16.4256 14.15 19.7144 10.4939 24.3637 9.26611C31.192 7.46283 38.3691 11.5801 40.3942 18.4623Z" fill="#00827B"/>
</g>
<path d="M19 10L21.4 16L23.8 10" stroke="#FA5669" stroke-width="2" stroke-linecap="round" stroke-linejoin="round"/>
<path d="M28 10V16" stroke="#FA5669" stroke-width="2" stroke-linecap="round" stroke-linejoin="round"/>
<path d="M32.7998 10V16" stroke="#FA5669" stroke-width="2" stroke-linecap="round" stroke-linejoin="round"/>
<path d="M33.4004 10H35.2004C36.1945 10 37.0004 10.8059 37.0004 11.8V11.8C37.0004 12.7941 36.1945 13.6 35.2004 13.6H34.0004" stroke="#FA5669" stroke-width="2" stroke-linecap="round" stroke-linejoin="round"/>
</svg>
