<svg width="40" height="40" viewBox="0 0 40 40" fill="none" xmlns="http://www.w3.org/2000/svg">
<path fill-rule="evenodd" clip-rule="evenodd" d="M2 11C2 10.4477 2.44772 10 3 10H5C5.55228 10 6 10.4477 6 11V27H37C37.5523 27 38 27.4477 38 28V29V30V37C38 37.5523 37.5523 38 37 38H35C34.4477 38 34 37.5523 34 37V31H6V37C6 37.5523 5.55228 38 5 38H3C2.44772 38 2 37.5523 2 37V30V28V11Z" fill="#009891"/>
<mask id="mask0_1631_2125" style="mask-type:alpha" maskUnits="userSpaceOnUse" x="2" y="10" width="36" height="28">
<path fill-rule="evenodd" clip-rule="evenodd" d="M2 11C2 10.4477 2.44772 10 3 10H5C5.55228 10 6 10.4477 6 11V27H37C37.5523 27 38 27.4477 38 28V29V30V37C38 37.5523 37.5523 38 37 38H35C34.4477 38 34 37.5523 34 37V31H6V37C6 37.5523 5.55228 38 5 38H3C2.44772 38 2 37.5523 2 37V30V28V11Z" fill="#009891"/>
</mask>
<g mask="url(#mask0_1631_2125)">
<path d="M41.3942 20.4623C43.4193 27.3445 39.5255 34.3854 32.6972 36.1887C25.8689 37.992 18.6918 33.8747 16.6667 26.9925C16.5175 26.4853 16.4004 25.9772 16.3142 25.4704C16.1732 24.6407 16.1151 23.8145 16.1348 23.0012C16.1551 22.1604 16.2586 21.3334 16.4393 20.5308C17.4256 16.15 20.7144 12.4939 25.3637 11.2661C32.192 9.46283 39.3691 13.5801 41.3942 20.4623Z" fill="#00827B"/>
</g>
<path d="M14.6689 25H8.16895C8.16891 23.5 8.33837 21 11.1692 21C14 21 14.6689 23.5 14.6689 25Z" fill="#FA5669"/>
<path d="M17 23C17 21.8954 17.8954 21 19 21H36C37.1046 21 38 21.8954 38 23V25H17V23Z" fill="#FA5669"/>
</svg>
