<svg width="40" height="40" viewBox="0 0 40 40" fill="none" xmlns="http://www.w3.org/2000/svg">
<path d="M15.8135 14.1393C15.8135 13.1498 16.6156 12.3477 17.6051 12.3477H27.9752C28.9647 12.3477 29.7669 13.1498 29.7669 14.1393V16.1475H15.8135V14.1393Z" fill="#FA5669"/>
<path d="M13.8631 16.1475H8.51115C8.09946 14.8809 8.51097 12.3477 10.9815 12.3477C13.9457 12.3477 14.1376 14.8809 13.8631 16.1475Z" fill="#FA5669"/>
<path d="M20.3749 24.6983H15.0229C14.6112 23.4317 15.0227 20.8984 17.4932 20.8984C20.4574 20.8984 20.6493 23.4317 20.3749 24.6983Z" fill="#FA5669"/>
<path d="M22.3252 22.6901C22.3252 21.7006 23.1274 20.8984 24.1169 20.8984H34.4869C35.4764 20.8984 36.2786 21.7006 36.2786 22.6901V24.6983H22.3252V22.6901Z" fill="#FA5669"/>
<path fill-rule="evenodd" clip-rule="evenodd" d="M2.79102 5.64583C2.79102 5.15108 3.19209 4.75 3.68685 4.75H5.61608C6.11084 4.75 6.51192 5.15108 6.51192 5.64583V18.0495H9.45884V14.1955C9.45884 13.7008 9.85992 13.2997 10.3547 13.2997H12.2839C12.7787 13.2997 13.1797 13.7008 13.1797 14.1955V26.5992H35.3833C35.8781 26.5992 36.2791 27.0003 36.2791 27.4951V28.445V29.5033V36.153C36.2791 36.6478 35.8781 37.0488 35.3833 37.0488H33.4541C32.9593 37.0488 32.5582 36.6478 32.5582 36.153V30.3991H13.1797V36.153C13.1797 36.6478 12.7787 37.0488 12.2839 37.0488H10.3547C9.85992 37.0488 9.45884 36.6478 9.45884 36.153V21.8494H6.51192V27.6033C6.51192 28.0981 6.11084 28.4991 5.61608 28.4991H3.68685C3.19209 28.4991 2.79102 28.0981 2.79102 27.6033V5.64583Z" fill="#009891"/>
<mask id="mask0_1412_44440" style="mask-type:alpha" maskUnits="userSpaceOnUse" x="2" y="4" width="35" height="34">
<path fill-rule="evenodd" clip-rule="evenodd" d="M3.68685 4.75C3.19209 4.75 2.79102 5.15108 2.79102 5.64583V30.4532C2.79102 30.948 3.19209 31.349 3.68685 31.349H5.61608C6.11084 31.349 6.51192 30.948 6.51192 30.4532V21.8494H11.1974C11.6922 21.8494 12.0933 21.4483 12.0933 20.9536V18.9454C12.0933 18.4506 11.6922 18.0495 11.1974 18.0495H6.51192V5.64583C6.51192 5.15108 6.11084 4.75 5.61608 4.75H3.68685ZM10.2328 27.4951C10.2328 27.0003 10.6339 26.5992 11.1287 26.5992H35.3833C35.8781 26.5992 36.2791 27.0003 36.2791 27.4951V28.445V29.5033V36.153C36.2791 36.6478 35.8781 37.0488 35.3833 37.0488H33.4541C32.9593 37.0488 32.5582 36.6478 32.5582 36.153V30.3991H11.1287C10.6339 30.3991 10.2328 29.998 10.2328 29.5032V27.4951Z" fill="#009891"/>
</mask>
<g mask="url(#mask0_1412_44440)">
<path d="M37.7186 22.8187C39.4083 28.6002 36.1431 34.5193 30.4256 36.0395C24.7081 37.5597 18.7034 34.1052 17.0136 28.3237C16.8891 27.8976 16.7915 27.4708 16.7198 27.045C16.6024 26.3479 16.5544 25.6537 16.5715 24.9703C16.5892 24.2638 16.6765 23.5688 16.8284 22.8943C17.6576 19.2125 20.4136 16.138 24.3066 15.1029C30.0241 13.5828 36.0288 17.0372 37.7186 22.8187Z" fill="#00827B"/>
</g>
</svg>
