<svg width="205" height="215" viewBox="0 0 205 215" fill="none" xmlns="http://www.w3.org/2000/svg">
<path d="M106.5 25.5V11.5" stroke="#87AC58" stroke-dasharray="2 2"/>
<circle cx="106.5" cy="9.5" r="3.5" fill="#87AC58"/>
<path d="M48.094 6.655V8.059H54.841V6.655H48.094ZM45.676 8.995V10.464H57.324V8.995H45.676ZM48.822 10.165C48.627 11.946 48.276 13.155 45.299 13.818C45.65 14.143 46.053 14.793 46.209 15.209C49.641 14.299 50.265 12.583 50.512 10.165H48.822ZM52.176 9.918V13.116C52.176 14.52 52.54 14.975 54.061 14.975C54.36 14.975 55.426 14.975 55.725 14.975C56.96 14.975 57.376 14.481 57.532 12.583C57.129 12.479 56.453 12.232 56.141 11.985C56.089 13.35 56.011 13.571 55.582 13.571C55.335 13.571 54.49 13.571 54.282 13.571C53.827 13.571 53.749 13.506 53.749 13.09V9.918H52.176ZM50.629 2.976V5.329H52.293V2.976H50.629ZM45.91 4.224V7.318H47.496V5.693H55.4V7.318H57.077V4.224H45.91ZM60.353 7.851V9.281H63.356V7.851H60.353ZM62.758 7.851V8.085C62.732 10.607 62.68 11.517 62.524 11.725C62.42 11.855 62.303 11.881 62.121 11.881C61.913 11.881 61.471 11.881 61.003 11.829C61.237 12.219 61.406 12.83 61.432 13.285C62.043 13.298 62.602 13.298 62.953 13.246C63.33 13.181 63.59 13.064 63.85 12.739C64.149 12.336 64.214 11.179 64.266 8.423C64.266 8.241 64.279 7.851 64.279 7.851H62.758ZM66.671 3.782C67.399 4.198 68.322 4.835 68.751 5.29L69.752 4.237C69.284 3.808 68.322 3.21 67.607 2.833L66.671 3.782ZM68.205 7.123C67.308 10.139 65.566 12.492 63.07 13.831C63.395 14.143 63.967 14.793 64.201 15.118C66.775 13.532 68.686 10.893 69.778 7.5L68.205 7.123ZM60.444 4.913V6.447H70.467V4.913H60.444ZM59.404 4.913V8.722C59.404 10.425 59.313 12.7 58.312 14.26C58.676 14.442 59.378 15.014 59.638 15.326C60.821 13.571 61.042 10.685 61.042 8.735V4.913H59.404ZM64.682 2.976C64.721 8.904 65.774 15.079 68.608 15.079C69.83 15.079 70.35 14.494 70.597 12.076C70.181 11.92 69.622 11.556 69.271 11.192C69.193 12.83 69.037 13.493 68.738 13.493C67.425 13.493 66.229 8.28 66.32 2.976H64.682ZM73.951 6.681V8.15H81.01V6.681H73.951ZM73.951 9.697V11.166H81.01V9.697H73.951ZM73.951 12.7V14.221H81.01V12.7H73.951ZM72.82 3.665V15.027H74.393V5.199H80.438V15.027H82.089V3.665H72.82ZM89.759 9.138V10.256H95.895V9.138H89.759ZM88.979 3.496V4.731H96.571V3.496H88.979ZM88.914 10.776V12.011H96.597V10.776H88.914ZM93.854 12.869C94.465 13.48 95.206 14.338 95.531 14.884L96.701 14.065C96.35 13.506 95.583 12.713 94.959 12.154L93.854 12.869ZM90.63 6.473H94.894V7.539H90.63V6.473ZM89.356 5.342V8.657H96.233V5.342H89.356ZM92.008 11.387V13.779C92.008 13.896 91.969 13.935 91.826 13.935C91.709 13.948 91.293 13.948 90.877 13.922C91.046 14.286 91.228 14.793 91.293 15.183C92.008 15.183 92.541 15.17 92.944 14.975C93.36 14.767 93.451 14.416 93.451 13.805V11.387H92.008ZM90.227 12.128C89.811 12.752 89.096 13.493 88.42 13.935C88.732 14.182 89.148 14.585 89.369 14.871C90.097 14.377 90.877 13.584 91.41 12.778L90.227 12.128ZM91.163 4.224V6.018H92.372V4.224H91.163ZM91.306 5.823V8.358H92.359V5.823H91.306ZM93.074 4.224V6.018H94.283V4.224H93.074ZM93.074 5.823V8.358H94.127V5.823H93.074ZM84.572 5.654V7.097H88.862V5.654H84.572ZM86.158 2.963V15.17H87.575V2.963H86.158ZM86.132 6.642C85.833 8.293 85.105 10.334 84.273 11.465C84.494 11.829 84.832 12.427 84.962 12.843C85.885 11.504 86.626 8.995 87.003 6.941L86.132 6.642ZM87.51 7.617L86.86 8.254C87.224 8.891 88.004 10.412 88.303 11.205L89.109 10.087C88.888 9.697 87.809 7.994 87.51 7.617Z" fill="#87AC58"/>
<g opacity="0.1" filter="url(#filter0_f_178_23162)">
<path d="M7.58116 147C5.77913 147.957 4.83394 150.342 4.37648 153.111C3.06502 161.047 8.91563 167.993 16.2067 171.392L99.4862 210.211C101.727 211.232 104.317 211.263 106.584 210.297L194.689 172.516C201.39 169.661 203.802 151.748 196.696 149.374C125.915 153.067 85.7415 156.76 7.58116 147Z" fill="#599990"/>
</g>
<path d="M3.54639 136.299C2.31702 141.464 3.54638 159.533 3.54638 159.533L99.6686 205.177C101.95 206.242 104.586 206.275 106.894 205.267L196.576 165.851C203.397 162.872 205.852 138.477 198.619 136C126.57 139.853 83.1062 146.481 3.54639 136.299Z" fill="url(#paint0_linear_178_23162)"/>
<path d="M100.162 89.5532L6.8666 131.601C1.79596 133.885 1.68754 141.287 6.68898 143.729L100.162 189.364C101.85 190.187 103.799 190.213 105.506 189.433L198.164 147.1C203.209 144.796 203.298 137.421 198.31 134.987L105.474 89.6361C103.798 88.8179 101.862 88.7877 100.162 89.5532Z" fill="#FBFBFB"/>
<g filter="url(#filter1_d_178_23162)">
<path d="M103.909 93.4874L15.6589 130.313C11.1233 132.326 11.0264 138.848 15.5 141L103.909 181.439C105.418 182.165 107.162 182.187 108.689 181.5L191.569 144.197C196.082 142.166 196.161 135.668 191.7 133.523L108.66 93.5605C107.161 92.8395 105.429 92.8129 103.909 93.4874Z" fill="url(#paint1_linear_178_23162)"/>
</g>
<path d="M106.584 22L183.5 138L106.584 172.5L23 135.056L51.5056 77.5618L64.5506 70.3146L106.584 22Z" fill="url(#paint2_linear_178_23162)"/>
<mask id="mask0_178_23162" style="mask-type:alpha" maskUnits="userSpaceOnUse" x="23" y="22" width="161" height="151">
<path d="M106.584 22L183.5 138L106.584 172.5L23 135.056L51.5056 77.5618L64.5506 70.3146L106.584 22Z" fill="url(#paint3_linear_178_23162)"/>
</mask>
<g mask="url(#mask0_178_23162)">
<path d="M18 100L104 132.5L190 100V171.5H18V100Z" fill="url(#paint4_linear_178_23162)"/>
<path opacity="0.2" d="M18 65L104 97.5L190 65V136.5H18V65Z" fill="url(#paint5_linear_178_23162)"/>
</g>
<path d="M23 135.056L51.5056 77.5618L64.5506 70.3146L106.584 22L102.5 171.5L23 135.056Z" fill="url(#paint6_linear_178_23162)"/>
<path d="M93.6235 148.156L88.6331 166.121C87.6173 169.778 88.5653 174.081 92.2809 174.855C94.1916 175.253 96.2186 175.204 98.0602 174.817C101.841 174.021 102.752 169.757 101.531 166.092L95.5357 148.107C95.2235 147.171 93.8876 147.205 93.6235 148.156Z" fill="url(#paint7_linear_178_23162)"/>
<path d="M106.22 164.86L104.404 170.828C103.54 173.666 104.759 177.11 107.724 176.993C110.75 176.875 111.345 173.647 110.306 170.802L108.116 164.808C107.787 163.906 106.5 163.942 106.22 164.86Z" fill="url(#paint8_linear_178_23162)"/>
<defs>
<filter id="filter0_f_178_23162" x="0.19165" y="143" width="204.808" height="72" filterUnits="userSpaceOnUse" color-interpolation-filters="sRGB">
<feFlood flood-opacity="0" result="BackgroundImageFix"/>
<feBlend mode="normal" in="SourceGraphic" in2="BackgroundImageFix" result="shape"/>
<feGaussianBlur stdDeviation="2" result="effect1_foregroundBlur_178_23162"/>
</filter>
<filter id="filter1_d_178_23162" x="12.2002" y="93" width="182.8" height="91" filterUnits="userSpaceOnUse" color-interpolation-filters="sRGB">
<feFlood flood-opacity="0" result="BackgroundImageFix"/>
<feColorMatrix in="SourceAlpha" type="matrix" values="0 0 0 0 0 0 0 0 0 0 0 0 0 0 0 0 0 0 127 0" result="hardAlpha"/>
<feOffset dy="2"/>
<feComposite in2="hardAlpha" operator="out"/>
<feColorMatrix type="matrix" values="0 0 0 0 0.891667 0 0 0 0 0.861304 0 0 0 0 0.59816 0 0 0 1 0"/>
<feBlend mode="normal" in2="BackgroundImageFix" result="effect1_dropShadow_178_23162"/>
<feBlend mode="normal" in="SourceGraphic" in2="effect1_dropShadow_178_23162" result="shape"/>
</filter>
<linearGradient id="paint0_linear_178_23162" x1="7.4586" y1="178.602" x2="203.094" y2="169.358" gradientUnits="userSpaceOnUse">
<stop stop-color="#ECECEC"/>
<stop offset="1" stop-color="#ECECEC"/>
</linearGradient>
<linearGradient id="paint1_linear_178_23162" x1="62.8369" y1="100.648" x2="168.308" y2="172.48" gradientUnits="userSpaceOnUse">
<stop stop-color="#EAE192"/>
<stop offset="1" stop-color="#F0EEE4"/>
</linearGradient>
<linearGradient id="paint2_linear_178_23162" x1="109" y1="22" x2="109" y2="175.157" gradientUnits="userSpaceOnUse">
<stop stop-color="#FCFCFC"/>
<stop offset="1" stop-color="#F0F8F7"/>
</linearGradient>
<linearGradient id="paint3_linear_178_23162" x1="109" y1="22" x2="109" y2="175.157" gradientUnits="userSpaceOnUse">
<stop stop-color="#FCFCFC"/>
<stop offset="1" stop-color="#F0F8F7"/>
</linearGradient>
<linearGradient id="paint4_linear_178_23162" x1="104" y1="100" x2="104" y2="171.5" gradientUnits="userSpaceOnUse">
<stop stop-color="#BDDB97"/>
<stop offset="1" stop-color="#CADEB1"/>
</linearGradient>
<linearGradient id="paint5_linear_178_23162" x1="104" y1="65" x2="104" y2="136.5" gradientUnits="userSpaceOnUse">
<stop stop-color="#BDDB97"/>
<stop offset="1" stop-color="#CADEB1"/>
</linearGradient>
<linearGradient id="paint6_linear_178_23162" x1="109" y1="22" x2="109" y2="175.157" gradientUnits="userSpaceOnUse">
<stop stop-color="#030303" stop-opacity="0.06"/>
<stop offset="1" stop-opacity="0.06"/>
</linearGradient>
<linearGradient id="paint7_linear_178_23162" x1="96.1394" y1="153.655" x2="96.1394" y2="175.739" gradientUnits="userSpaceOnUse">
<stop stop-color="#65B97F"/>
<stop offset="1" stop-color="#A9C182"/>
</linearGradient>
<linearGradient id="paint8_linear_178_23162" x1="107.985" y1="166.309" x2="107.985" y2="177.303" gradientUnits="userSpaceOnUse">
<stop stop-color="#65B97F"/>
<stop offset="1" stop-color="#A9C182"/>
</linearGradient>
</defs>
</svg>
