<svg width="200" height="235" viewBox="0 0 200 235" fill="none" xmlns="http://www.w3.org/2000/svg">
<g filter="url(#filter0_f_178_23185)">
<ellipse cx="97.5" cy="213.619" rx="84.5" ry="17.5" fill="#1D8980" fill-opacity="0.11"/>
</g>
<path d="M200 170.646C200 188.028 155.228 202.119 100 202.119C44.7715 202.119 0 188.028 0 170.646C0 160.881 1.34913e-05 157 0 149.293C17.2982 144.79 75.7979 157 100 157C134.038 157 181.939 141.117 200 149.293C200 157 200 163.977 200 170.646Z" fill="url(#paint0_linear_178_23185)"/>
<ellipse cx="100" cy="150.619" rx="100" ry="31.5" fill="#FBFBFB"/>
<path d="M122.191 31.4473C111.49 42.8047 89.5523 39.5944 81.5264 31.4473C68.0456 54.8985 26.6575 90.5048 44.3123 124.143C64.7731 163.127 128.24 164.571 154.696 129.372C181.152 94.1721 128.612 47.0851 122.191 31.4473Z" fill="url(#paint1_radial_178_23185)"/>
<path d="M81.1953 30.7651L81.1953 30.7651L81.1907 30.7606C78.8821 28.5408 75.3851 24.7403 72.1442 20.7992C68.8978 16.8513 65.9326 12.791 64.6656 10.0459C63.8866 8.35791 63.8346 6.91526 64.2785 5.80851C64.7214 4.70422 65.6772 3.88572 67.0151 3.47895C69.7019 2.66209 73.9069 3.52632 78.2247 7.11136C81.8284 10.1035 84.4868 11.2209 86.6108 11.1289C88.7521 11.0361 90.2619 9.71944 91.5713 8.09507C92.1209 7.41338 92.6447 6.66506 93.1677 5.91784C93.2681 5.77445 93.3684 5.6311 93.4689 5.48827C94.0965 4.59631 94.7326 3.72022 95.4351 2.94601C96.8354 1.40269 98.4769 0.287627 100.789 0.2875C106.179 0.287204 108.305 3.60305 110.182 6.5311C110.553 7.10996 110.914 7.67366 111.289 8.19359C111.851 8.97289 112.453 9.66031 113.177 10.1182C113.911 10.582 114.758 10.8024 115.786 10.6682C116.805 10.5353 117.987 10.0567 119.41 9.15221C120.834 8.24675 122.514 6.90463 124.527 5.02533C126.42 3.25935 128.557 2.40147 130.343 2.4773C131.234 2.5151 132.034 2.78398 132.684 3.28399C133.333 3.78347 133.847 4.52549 134.146 5.53581C134.745 7.56602 134.468 10.6757 132.642 14.9749C130.819 19.2669 127.466 24.71 121.969 31.3849L122.191 31.5676L121.969 31.3849C118.296 35.8451 111.034 38.6384 103.189 38.8298C95.3544 39.021 87.0115 36.6133 81.1953 30.7651Z" fill="url(#paint2_linear_178_23185)" stroke="url(#paint3_linear_178_23185)" stroke-width="0.575"/>
<path d="M80.5 32C83.5 36 105.5 46.5 122.5 32" stroke="#FFBC00" stroke-width="3" stroke-linecap="round"/>
<path d="M133.5 32.5C130 34 125 32 123 31C125.5 35.9999 133.5 37.4999 136 36.9999C136.333 35.8333 135.1 34.5 133.5 32.5Z" fill="#FFBC00"/>
<path d="M164 157.333C164 158.642 164 164.667 164 164.667C164 164.667 161.333 168 148 168C134.667 168 132 164.667 132 164.667C132 164.667 132 160.279 132 157.333C132 154.388 139.163 152 148 152C156.837 152 164 154.388 164 157.333Z" fill="#FFBC00"/>
<ellipse cx="148" cy="157" rx="16" ry="5" fill="#FFE506"/>
<ellipse cx="148" cy="157" rx="11" ry="3" fill="#FFD300"/>
<path d="M164 149.333C164 150.642 164 156.667 164 156.667C164 156.667 161.333 160 148 160C134.667 160 132 156.667 132 156.667C132 156.667 132 152.279 132 149.333C132 146.388 139.163 144 148 144C156.837 144 164 146.388 164 149.333Z" fill="#FFBC00"/>
<ellipse cx="148" cy="149" rx="16" ry="5" fill="#FFE506"/>
<ellipse cx="148" cy="149" rx="11" ry="3" fill="#FFD300"/>
<path d="M164 141.333C164 142.642 164 148.667 164 148.667C164 148.667 161.333 152 148 152C134.667 152 132 148.667 132 148.667C132 148.667 132 144.279 132 141.333C132 138.388 139.163 136 148 136C156.837 136 164 138.388 164 141.333Z" fill="#FFBC00"/>
<ellipse cx="148" cy="141" rx="16" ry="5" fill="#FFE506"/>
<ellipse cx="148" cy="141" rx="11" ry="3" fill="#FFD300"/>
<path d="M164 130.333C164 131.642 164 137.667 164 137.667C164 137.667 161.333 141 148 141C134.667 141 132 137.667 132 137.667C132 137.667 132 133.279 132 130.333C132 127.388 139.163 125 148 125C156.837 125 164 127.388 164 130.333Z" fill="#FFBC00"/>
<ellipse cx="148" cy="130" rx="16" ry="5" fill="#FFE506"/>
<ellipse cx="148" cy="130" rx="11" ry="3" fill="#FFD300"/>
<path d="M164 113.333C164 114.642 164 120.667 164 120.667C164 120.667 161.333 124 148 124C134.667 124 132 120.667 132 120.667C132 120.667 132 116.279 132 113.333C132 110.388 139.163 108 148 108C156.837 108 164 110.388 164 113.333Z" fill="#FFBC00"/>
<ellipse cx="148" cy="113" rx="16" ry="5" fill="#FFE506"/>
<ellipse cx="148" cy="113" rx="11" ry="3" fill="#FFD300"/>
<path d="M64 96.4205C64 97.505 64 156.237 64 156.237C64 156.237 61.3333 159 48 159C34.6667 159 32 156.237 32 156.237C32 156.237 32 98.8619 32 96.4205C32 93.9791 39.1634 92 48 92C56.8366 92 64 93.9791 64 96.4205Z" fill="url(#paint4_linear_178_23185)"/>
<path d="M64 156.333C64 157.642 64 163.667 64 163.667C64 163.667 61.3333 167 48 167C34.6667 167 32 163.667 32 163.667C32 163.667 32 159.279 32 156.333C32 153.388 39.1634 151 48 151C56.8366 151 64 153.388 64 156.333Z" fill="#FFBC00"/>
<ellipse cx="48" cy="156" rx="16" ry="5" fill="#FFE506"/>
<ellipse cx="48" cy="156" rx="11" ry="3" fill="#FFD300"/>
<path d="M64 148.333C64 149.642 64 155.667 64 155.667C64 155.667 61.3333 159 48 159C34.6667 159 32 155.667 32 155.667C32 155.667 32 151.279 32 148.333C32 145.388 39.1634 143 48 143C56.8366 143 64 145.388 64 148.333Z" stroke="#FFBC00" stroke-opacity="0.5" stroke-dasharray="1 1"/>
<path d="M32.6667 147.666C34.6667 151 54.6667 153 63.3334 148.333" stroke="#FFBC00" stroke-opacity="0.5" stroke-dasharray="1 1"/>
<path d="M64 140.333C64 141.642 64 147.667 64 147.667C64 147.667 61.3333 151 48 151C34.6667 151 32 147.667 32 147.667C32 147.667 32 143.279 32 140.333C32 137.388 39.1634 135 48 135C56.8366 135 64 137.388 64 140.333Z" stroke="#FFBC00" stroke-opacity="0.5" stroke-dasharray="1 1"/>
<path d="M32.6667 139.666C34.6667 143 54.6667 145 63.3334 140.333" stroke="#FFBC00" stroke-opacity="0.5" stroke-dasharray="1 1"/>
<path d="M64 132.333C64 133.642 64 139.667 64 139.667C64 139.667 61.3333 143 48 143C34.6667 143 32 139.667 32 139.667C32 139.667 32 135.279 32 132.333C32 129.388 39.1634 127 48 127C56.8366 127 64 129.388 64 132.333Z" stroke="#FFBC00" stroke-opacity="0.5" stroke-dasharray="1 1"/>
<path d="M32.6667 131.666C34.6667 135 54.6667 137 63.3334 132.333" stroke="#FFBC00" stroke-opacity="0.5" stroke-dasharray="1 1"/>
<path d="M130 159.452C130 160.76 130 166.785 130 166.785C130 166.785 127.333 170.119 114 170.119C100.667 170.119 98 166.785 98 166.785C98 166.785 98 162.398 98 159.452C98 156.506 105.163 154.119 114 154.119C122.837 154.119 130 156.506 130 159.452Z" fill="#FFBC00"/>
<ellipse cx="114" cy="159.119" rx="16" ry="5" fill="#FFE506"/>
<ellipse cx="114" cy="159.119" rx="11" ry="3" fill="#FFD300"/>
<path d="M130 151.452C130 152.76 130 158.785 130 158.785C130 158.785 127.333 162.119 114 162.119C100.667 162.119 98 158.785 98 158.785C98 158.785 98 154.398 98 151.452C98 148.506 105.163 146.119 114 146.119C122.837 146.119 130 148.506 130 151.452Z" fill="#FFBC00"/>
<ellipse cx="114" cy="151.119" rx="16" ry="5" fill="#FFE506"/>
<ellipse cx="114" cy="151.119" rx="11" ry="3" fill="#FFD300"/>
<path d="M130 143.452C130 144.76 130 150.785 130 150.785C130 150.785 127.333 154.119 114 154.119C100.667 154.119 98 150.785 98 150.785C98 150.785 98 146.398 98 143.452C98 140.506 105.163 138.119 114 138.119C122.837 138.119 130 140.506 130 143.452Z" fill="#FFBC00"/>
<ellipse cx="114" cy="143.119" rx="16" ry="5" fill="#FFE506"/>
<ellipse cx="114" cy="143.119" rx="11" ry="3" fill="#FFD300"/>
<path d="M130 135.452C130 136.76 130 142.785 130 142.785C130 142.785 127.333 146.119 114 146.119C100.667 146.119 98 142.785 98 142.785C98 142.785 98 138.398 98 135.452C98 132.506 105.163 130.119 114 130.119C122.837 130.119 130 132.506 130 135.452Z" fill="#FFBC00"/>
<ellipse cx="114" cy="135.119" rx="16" ry="5" fill="#FFE506"/>
<ellipse cx="114" cy="135.119" rx="11" ry="3" fill="#FFD300"/>
<path opacity="0.8" fill-rule="evenodd" clip-rule="evenodd" d="M118.278 79.4335L99.139 56L80 79.4335H90.7563V115.06H107.522V79.4335H118.278Z" fill="url(#paint5_linear_178_23185)"/>
<path opacity="0.8" fill-rule="evenodd" clip-rule="evenodd" d="M129.001 96.9593L122.501 89L116 96.9593H119.653V109.06H125.348V96.9593H129.001Z" fill="url(#paint6_linear_178_23185)"/>
<defs>
<filter id="filter0_f_178_23185" x="10" y="193.119" width="175" height="41" filterUnits="userSpaceOnUse" color-interpolation-filters="sRGB">
<feFlood flood-opacity="0" result="BackgroundImageFix"/>
<feBlend mode="normal" in="SourceGraphic" in2="BackgroundImageFix" result="shape"/>
<feGaussianBlur stdDeviation="1.5" result="effect1_foregroundBlur_178_23185"/>
</filter>
<linearGradient id="paint0_linear_178_23185" x1="4.4586" y1="177.069" x2="200.009" y2="166.962" gradientUnits="userSpaceOnUse">
<stop stop-color="#ECECEC"/>
<stop offset="1" stop-color="#ECECEC"/>
</linearGradient>
<radialGradient id="paint1_radial_178_23185" cx="0" cy="0" r="1" gradientUnits="userSpaceOnUse" gradientTransform="translate(131.569 78.5944) rotate(92.1596) scale(68.5653 67.2891)">
<stop offset="0.46875" stop-color="white"/>
<stop offset="1" stop-color="#F7ECC8"/>
</radialGradient>
<linearGradient id="paint2_linear_178_23185" x1="94.4616" y1="3.51026" x2="98.6211" y2="39.197" gradientUnits="userSpaceOnUse">
<stop stop-color="white"/>
<stop offset="1" stop-color="#F5E6B3"/>
</linearGradient>
<linearGradient id="paint3_linear_178_23185" x1="99.2143" y1="0" x2="99.2143" y2="39.1278" gradientUnits="userSpaceOnUse">
<stop stop-color="#EBEBEB"/>
<stop offset="1" stop-color="white"/>
</linearGradient>
<linearGradient id="paint4_linear_178_23185" x1="48" y1="92" x2="48" y2="159" gradientUnits="userSpaceOnUse">
<stop stop-color="#FFE600" stop-opacity="0"/>
<stop offset="1" stop-color="#FFF500" stop-opacity="0.34"/>
</linearGradient>
<linearGradient id="paint5_linear_178_23185" x1="99.139" y1="56" x2="99.139" y2="115.06" gradientUnits="userSpaceOnUse">
<stop stop-color="#FFBC00"/>
<stop offset="1" stop-color="#FFBC00" stop-opacity="0"/>
</linearGradient>
<linearGradient id="paint6_linear_178_23185" x1="122.501" y1="89" x2="122.501" y2="109.06" gradientUnits="userSpaceOnUse">
<stop stop-color="#FFBC00"/>
<stop offset="1" stop-color="#FFBC00" stop-opacity="0"/>
</linearGradient>
</defs>
</svg>
