<svg width="40" height="40" viewBox="0 0 40 40" fill="none" xmlns="http://www.w3.org/2000/svg">
<path d="M17.469 5.84853C18.1602 4.71716 19.8399 4.71716 20.5312 5.84853L24.2984 12.0145C24.5482 12.4234 24.959 12.7145 25.4348 12.8199L32.611 14.4092C33.9277 14.7008 34.4468 16.2591 33.5573 17.2499L28.7094 22.65C28.3879 23.0081 28.231 23.4791 28.2753 23.9531L28.9432 31.1014C29.0658 32.4129 27.7068 33.376 26.4658 32.857L19.7024 30.0285C19.2539 29.8409 18.7462 29.8409 18.2977 30.0285L11.5343 32.857C10.2933 33.376 8.93437 32.4129 9.05692 31.1014L9.72484 23.9531C9.76913 23.4791 9.61224 23.0081 9.29075 22.65L4.44283 17.2499C3.5533 16.2591 4.07238 14.7008 5.38911 14.4092L12.5653 12.8199C13.0412 12.7145 13.4519 12.4234 13.7017 12.0145L17.469 5.84853Z" fill="#009891"/>
<mask id="mask0_3868_12734" style="mask-type:alpha" maskUnits="userSpaceOnUse" x="4" y="5" width="30" height="29">
<path d="M17.469 5.84853C18.1602 4.71716 19.8399 4.71716 20.5312 5.84853L24.2984 12.0145C24.5482 12.4234 24.959 12.7145 25.4348 12.8199L32.611 14.4092C33.9277 14.7008 34.4468 16.2591 33.5573 17.2499L28.7094 22.65C28.3879 23.0081 28.231 23.4791 28.2753 23.9531L28.9432 31.1014C29.0658 32.4129 27.7068 33.376 26.4658 32.857L19.7024 30.0285C19.2539 29.8409 18.7462 29.8409 18.2977 30.0285L11.5343 32.857C10.2933 33.376 8.93437 32.4129 9.05692 31.1014L9.72484 23.9531C9.76913 23.4791 9.61224 23.0081 9.29075 22.65L4.44283 17.2499C3.5533 16.2591 4.07238 14.7008 5.38911 14.4092L12.5653 12.8199C13.0412 12.7145 13.4519 12.4234 13.7017 12.0145L17.469 5.84853Z" fill="#009891"/>
</mask>
<g mask="url(#mask0_3868_12734)">
<path d="M39.3941 25.4605C41.4191 32.3427 37.5253 39.3837 30.697 41.187C23.8687 42.9902 16.6916 38.873 14.6665 31.9908C14.5172 31.4835 14.4001 30.9754 14.314 30.4686C14.173 29.6389 14.1149 28.8127 14.1346 27.9994C14.1549 27.1586 14.2583 26.3316 14.439 25.529C15.4254 21.1482 18.7142 17.4921 23.3635 16.2643C30.1919 14.461 37.369 18.5783 39.3941 25.4605Z" fill="#00827B"/>
</g>
<path d="M27.1837 20.4546C27.5523 19.8485 28.4482 19.8485 28.8169 20.4546L30.826 23.7578C30.9593 23.9768 31.1784 24.1328 31.4322 24.1892L35.2594 25.0406C35.9617 25.1969 36.2385 26.0316 35.7641 26.5624L33.1786 29.4554C33.0071 29.6472 32.9234 29.8995 32.9471 30.1535L33.3033 33.9829C33.3686 34.6855 32.6439 35.2014 31.982 34.9234L28.3749 33.4081C28.1357 33.3076 27.8649 33.3076 27.6257 33.4081L24.0185 34.9234C23.3567 35.2014 22.6319 34.6855 22.6973 33.9829L23.0535 30.1535C23.0771 29.8995 22.9934 29.6472 22.822 29.4554L20.2364 26.5624C19.762 26.0316 20.0388 25.1969 20.7411 25.0406L24.5684 24.1892C24.8222 24.1328 25.0413 23.9768 25.1745 23.7578L27.1837 20.4546Z" fill="#FA5669"/>
</svg>
