<svg width="100" height="66" viewBox="0 0 100 66" fill="none" xmlns="http://www.w3.org/2000/svg">
<g clip-path="url(#clip0_853_60620)">
<ellipse cx="84.8372" cy="6.74528" rx="5.32933" ry="5.79681" transform="rotate(52.9015 84.8372 6.74528)" fill="#0B2D50"/>
<path d="M18.7612 40.8083C18.8501 42.4545 21.8905 45.5875 23.3092 46.6765L17.8794 50.2643C16.3552 49.0192 12.2296 44.677 10.4665 43.6845C8.26265 42.4439 3.07021 39.8103 3.29797 38.6325C3.46808 37.7529 5.11951 38.3902 5.95645 38.7088C4.84669 38.2405 2.52695 36.406 3.04398 35.7324C3.406 35.2607 4.42142 35.7558 5.3008 36.3464C4.07509 35.3074 2.70087 33.8299 3.10696 33.3008C3.55439 32.7179 4.69477 32.8193 6.18383 34.2162C5.35851 32.8603 6.06321 31.6895 8.04589 33.0342C10.5607 34.7398 12.3695 35.9031 14.1766 37.0653L14.1888 37.0731C13.2258 33.6286 16.2018 32.9822 15.8981 34.5527C15.5944 36.1231 18.6966 39.6105 18.7612 40.8083Z" fill="#FFC7B0"/>
<path fill-rule="evenodd" clip-rule="evenodd" d="M9.40164 36.5545C8.3298 35.8066 6.74854 34.7434 6.17188 34.3008C6.73008 34.7293 9.25842 36.0164 10.3397 36.771C11.4211 37.5255 10.4735 37.3024 9.40164 36.5545Z" fill="#F2AC8F"/>
<path fill-rule="evenodd" clip-rule="evenodd" d="M8.23758 38.367C7.16573 37.6191 5.58447 36.5559 5.00781 36.1133C5.56602 36.5418 8.09435 37.8289 9.17569 38.5835C10.257 39.338 9.30943 39.1149 8.23758 38.367Z" fill="#F2AC8F"/>
<path fill-rule="evenodd" clip-rule="evenodd" d="M7.98586 39.9182C7.14868 39.3276 6.1808 39.045 5.73047 38.6953C6.16638 39.0338 7.87488 39.492 8.71947 40.0879C9.56406 40.6837 8.82304 40.5089 7.98586 39.9182Z" fill="#F2AC8F"/>
<path fill-rule="evenodd" clip-rule="evenodd" d="M15.5604 42.6312C15.1916 41.2149 14.0739 39.7867 14.3565 38.3255C13.2675 39.7441 14.8489 41.5785 15.5604 42.6312Z" fill="#F2AC8F"/>
<path d="M33.1381 53.5478C41.3843 54.6802 54.8017 48.4457 60.2252 47.7737L57.2314 63.4571C54.935 62.2937 36.4822 63.9276 29.9217 61.9967C23.3613 60.0657 19.4595 50.9972 16.2215 49.8752L19.3986 46.1695L20.5924 46.2869L20.5696 44.4765L21.2252 43.9383C24.8134 48.3093 30.6263 50.4885 33.1381 53.5478Z" fill="#DC5D5A"/>
<path d="M72.1074 53.4448C71.7162 53.8555 71.247 54.3407 70.6359 54.3647C69.9866 54.3877 69.4633 53.9176 69.0544 53.4502C66.9335 51.1112 65.5879 48.256 65.0832 45.344C65.6242 45.0513 66.1653 44.7586 66.6292 44.5023C67.0549 44.245 67.4062 43.9097 67.6066 43.4946C67.7282 43.1921 67.8124 42.8506 67.7823 42.5065C67.5436 39.6389 67.3138 38.0307 66.3896 35.109C71.1447 34.1128 75.6746 32.9588 78.3187 30.845C78.5928 32.187 78.9139 34.7895 79.6546 37.4017C80.4298 40.1673 81.7018 42.9063 83.9247 44.141C79.4401 46.6317 75.4362 49.7824 72.1074 53.4448Z" fill="#FFC7B0"/>
<path d="M67.7474 42.5058C67.7776 42.85 67.7315 43.1924 67.5718 43.494C70.3145 46.9922 76.7504 42.6387 79.657 37.44C78.9163 34.8278 78.5952 32.2254 78.3211 30.8834C75.677 32.9971 71.1472 34.1512 66.3157 35.1456C67.279 38.0301 67.5088 39.6382 67.7474 42.5058Z" fill="#DF9576"/>
<path d="M54.6681 94.5583C64.1651 94.779 84.0231 95.8129 94.2005 94.6756C94.7176 92.1308 89.855 86.2555 89.9861 80.6106C90.0039 79.8478 90.0606 79.0477 90.12 78.1333C90.3311 75.6195 90.7825 72.6153 91.2739 69.5356C89.437 71.401 86.9914 63.3303 85.7931 65.6303C79.2056 78.1467 74.2083 81.3506 65.5885 81.1503C63.0331 81.0909 60.6763 80.6927 58.1342 80.0612C58.379 81.0209 58.5848 82.0179 58.7507 83.0903C58.7835 83.32 58.8155 83.5879 58.8474 83.8557C59.4001 87.99 54.8339 92.3488 54.6681 94.5583Z" fill="#FFBB33"/>
<path d="M53.4935 27.2158C53.4907 23.5495 55.4528 20.5759 57.876 20.5741C60.2991 20.5723 62.2657 23.5429 62.2684 27.2092C62.2712 30.8755 60.3091 33.8491 57.886 33.851C55.4628 33.8528 53.4963 30.8821 53.4935 27.2158Z" fill="#26A7A1"/>
<path d="M55.5638 16.1026C55.4432 19.262 56.1601 22.9261 57.4896 27.053C58.7731 24.1094 59.9193 20.4419 61.2156 16.8022C62.5493 13.1695 64.0331 9.56459 66.0293 6.75323C66.4547 6.13373 66.9482 5.56566 67.3971 5.02813C66.5858 4.79997 65.7091 4.71489 64.8797 4.79378C63.5792 4.90167 62.298 5.32356 61.1626 6.00532C59.3227 7.13837 57.8798 8.84955 56.8663 10.7568C56.0654 12.3543 55.6188 14.1339 55.5638 16.1026Z" fill="#0B2D50"/>
<path d="M57.3367 19.7289C57.2628 20.3361 57.182 20.9807 57.1082 21.5878C56.1193 31.7258 59.0161 39.3253 65.4304 40.5156C74.508 42.2002 82.2391 33.1582 84.0837 23.2179C85.9075 13.3901 81.2214 5.18686 74.0162 4.70345C69.8815 4.40181 66.6676 5.20228 64.1981 6.80054C62.5666 7.85586 61.2614 9.24336 60.2521 10.9186C59.0885 12.798 58.2888 15.0165 57.7544 17.4783C57.7544 17.4783 57.7544 17.4783 57.7474 17.5158C57.5776 18.2215 57.4454 18.9342 57.3367 19.7289Z" fill="#FFC7B0"/>
<path d="M66.9922 21.2295C67.5854 20.6367 69.2157 20.4883 69.9569 20.4883" stroke="#AC6523" stroke-width="0.741176"/>
<path d="M61.7949 20.9514C61.4338 20.802 60.4108 20.5563 59.2072 20.7689" stroke="#AC6523" stroke-width="0.741176"/>
<path d="M56.5729 17.8319C57.5927 19.0835 63.3787 18.3845 67.7339 17.8319C68.6632 17.714 68.8856 15.4258 69.7063 15.3006C69.7063 15.3006 71.1929 17.5863 71.8104 17.4807C72.9796 17.2807 73.716 17.1371 73.716 17.1371C73.716 17.1371 76.2175 19.6462 76.9864 22.094C78.4528 27.9925 79.2382 31.7282 78.9989 36.5729C83.9574 38.1456 88.0041 29.4944 88.1819 21.8464C88.3612 14.1307 86.9012 10.2651 81.212 5.80513C80.637 5.3492 80.1161 5.01972 79.7383 4.7556C76.7796 2.92608 73.1577 2.37036 69.7063 2.77756C67.8014 3.0061 66.1269 3.66542 64.6733 4.59854C58.3763 8.50968 56.6745 13.4614 56.5729 17.8319Z" fill="#0B2D50"/>
<path d="M55.561 16.1021C55.9505 15.0491 56.483 14.0614 57.0905 13.0877C57.4575 12.5738 57.862 12.0668 58.304 11.5668C59.7634 9.97511 61.6854 8.81847 63.8293 8.55668C64.5381 7.87337 65.2705 7.27204 66.0265 6.7527C68.7088 4.84469 71.6531 4.033 74.55 4.10494C76.9828 4.16837 79.3792 4.84588 81.4906 6.01375C80.9156 5.55782 80.3947 5.22834 80.0169 4.96422C77.0582 3.1347 73.4363 2.57899 69.9849 2.98618C68.08 3.21472 66.4055 3.87405 64.9519 4.80717C63.6514 4.91505 62.3702 5.33695 61.2349 6.01871C59.3949 7.15176 57.9521 8.86293 56.9385 10.7702C56.0626 12.3537 55.616 14.1334 55.561 16.1021Z" fill="#225570"/>
<path d="M62.8738 34.1855C62.8738 34.1855 62.9751 34.4759 63.1681 34.8998C63.4833 35.5015 64.0192 36.377 64.9013 36.8511C65.2931 37.0402 65.6917 37.1918 66.2003 37.1697C67.6744 37.1717 68.2862 35.9659 68.5116 34.9601C68.5464 34.7726 68.5812 34.585 68.6091 34.435C68.6856 34.0223 68.6969 33.7528 68.6969 33.7528C66.2165 34.573 62.8738 34.1855 62.8738 34.1855Z" fill="#CC454E"/>
<path d="M62.8754 34.1864C62.8754 34.1864 62.9767 34.4768 63.1697 34.9006C64.3325 35.1164 66.7695 34.9478 68.6481 34.4428C68.7247 34.0302 68.7359 33.7606 68.7359 33.7606C66.2181 34.5739 62.8754 34.1864 62.8754 34.1864Z" fill="white"/>
<path d="M64.9014 36.8539C65.2931 37.043 65.6918 37.1946 66.2004 37.1725C67.6745 37.1745 68.2863 35.9687 68.5117 34.9629C67.8226 34.9126 67.0987 35.0499 66.497 35.3651C65.8133 35.7038 65.2893 36.2274 64.9014 36.8539Z" fill="#E8729B"/>
<path d="M80.893 25.3437C80.893 25.3437 81.8381 20.6688 80.7507 15.6556C79.3915 9.38895 74.9064 5.95691 70.0954 4.90891C64.323 3.60492 59.9536 6.86833 59.9536 6.86833C59.9536 6.86833 62.4862 3.88489 66.3807 3.59874C68.9372 3.41351 72.6717 3.9901 75.4123 5.74035C78.2584 7.54899 81.4066 11.703 82.1193 15.5991C82.832 19.4952 82.4561 25.2846 82.4561 25.2846L80.893 25.3437Z" fill="#26A7A1"/>
<path d="M78.7521 37.5296C76.3071 36.8078 75.21 33.2248 76.3017 29.5269C77.3934 25.829 80.2606 23.4164 82.7056 24.1383C85.1507 24.8601 86.2478 28.4431 85.1561 32.141C84.0643 35.8389 81.1972 38.2515 78.7521 37.5296Z" fill="#26A7A1"/>
<path d="M80.1075 36.5563C78.5342 36.0127 78.0285 33.3442 78.9779 30.5958C79.9274 27.8475 81.9725 26.0602 83.5458 26.6037C85.1191 27.1473 85.6248 29.8158 84.6754 32.5642C83.7259 35.3125 81.6808 37.0998 80.1075 36.5563Z" fill="#13817B"/>
<path d="M63.4858 40.3093C62.16 40.0632 61.2098 39.192 61.3636 38.3633C61.5173 37.5347 62.7168 37.0624 64.0427 37.3084C65.3685 37.5545 66.3187 38.4257 66.1649 39.2543C66.0112 40.083 64.8117 40.5553 63.4858 40.3093Z" fill="#13817B"/>
<path d="M76.8496 36.0391C76.8496 36.0391 72.4369 39.9541 66.2016 39.2626" stroke="#13817B" stroke-width="1.48235" stroke-miterlimit="10" stroke-linecap="round"/>
<path d="M61.7696 81.4033L61.8567 87.5111C61.8567 87.5111 83.7487 94.6218 87.4589 92.6092C89.2755 91.621 91.0458 86.0525 92.4321 80.5894C93.8627 74.8603 94.8321 69.2731 94.8321 69.2731L81.9609 66.4554C81.9609 66.4554 81.7774 74.3505 81.2143 78.8786C81.0227 80.5533 80.7646 81.8066 80.4551 81.9902C79.2931 82.7264 61.7696 81.4033 61.7696 81.4033Z" fill="#F9A07B"/>
<path d="M64.767 27.1602C64.0262 27.9016 62.9137 28.6422 63.2846 29.3837C63.5814 29.9768 64.8902 30.372 65.5076 30.4955" stroke="#E89185" stroke-width="0.741176"/>
<path d="M71.1724 44.5335H67.8937C67.5294 47.8122 66.8008 54.5154 66.8008 55.0983C66.8008 55.6812 67.5294 59.2271 67.8937 60.9272L75.5441 59.1056L79.9157 42.3477L72.2653 44.5335L71.5367 45.9907L71.1724 44.5335Z" fill="#716767"/>
<path d="M71.1694 44.5344L71.5289 44.4445L71.4587 44.1638H71.1694V44.5344ZM71.5337 45.9916L71.1741 46.0815C71.2118 46.232 71.3391 46.3431 71.4932 46.36C71.6474 46.3769 71.7958 46.2961 71.8651 46.1574L71.5337 45.9916ZM72.2623 44.5344L72.1724 44.1749L72.007 44.2162L71.9308 44.3687L72.2623 44.5344ZM67.8906 44.905H71.1694V44.1638H67.8906V44.905ZM70.8098 44.6243L71.1741 46.0815L71.8932 45.9017L71.5289 44.4445L70.8098 44.6243ZM71.8651 46.1574L72.5937 44.7001L71.9308 44.3687L71.2022 45.8259L71.8651 46.1574ZM72.3522 44.8939L79.6382 43.0724L79.4585 42.3534L72.1724 44.1749L72.3522 44.8939Z" fill="#C43834"/>
<circle cx="71.5362" cy="47.4483" r="0.364304" fill="#C33834"/>
<path d="M58.874 83.8184C59.3876 87.9899 54.8223 92.3105 54.6565 94.52C64.1536 94.7407 84.0116 95.7746 94.1889 94.6374C94.706 92.0926 89.8434 86.2172 89.9746 80.5724C89.9923 79.8096 90.0491 79.0095 90.1085 78.095C90.3195 75.5813 90.771 72.577 91.2623 69.4974C92.5989 61.2474 94.2929 52.3952 93.2294 50.5388C91.1387 46.903 86.1227 44.3441 83.6293 43.2558C82.7601 42.8922 82.2794 43.2558 80.6418 40.1611C77.3512 45.4654 72.6272 56.1898 70.077 58.376C70.077 58.376 70.077 47.5089 67.5269 42.7109C66.7983 44.5945 65.0371 45.2279 64.5351 45.4834C61.9876 46.7216 59.5972 47.7728 58.8717 49.435C56.9762 53.8177 54.9621 64.9521 55.2513 68.9276C55.5396 72.9413 57.0706 76.0298 58.1209 80.0993C58.3657 81.059 58.5715 82.056 58.7374 83.1283C58.8092 83.3208 58.8421 83.5505 58.874 83.8184Z" fill="#F5504C"/>
<path d="M83.6956 53.6785C84.7103 51.0689 88.2688 45.7327 88.2688 45.7327C88.2688 45.7327 93.4436 48.0282 95.2265 51.7713C98.2468 58.0999 96.2265 76.0651 96.2265 76.0651C91.9512 77.7593 83.4077 77.5608 79.7958 76.9807C79.795 77.0189 81.7035 58.9366 83.6956 53.6785Z" fill="#F5504C"/>
<path d="M82.9805 54.7676C81.3725 61.5611 80.4607 67.951 80.0865 74.2008" stroke="#CC2D29" stroke-width="0.741176" stroke-miterlimit="10" stroke-linecap="round"/>
<ellipse cx="60.6782" cy="24.1992" rx="1.11176" ry="1.48235" fill="#202020"/>
<ellipse cx="68.8305" cy="24.1992" rx="1.11176" ry="1.48235" fill="#202020"/>
</g>
<defs>
<clipPath id="clip0_853_60620">
<rect width="100" height="66" fill="white"/>
</clipPath>
</defs>
</svg>
