<svg width="40" height="40" viewBox="0 0 40 40" fill="none" xmlns="http://www.w3.org/2000/svg">
<g clip-path="url(#clip0_3389_43361)">
<path d="M12.4248 22.5156L16.2378 24.8835L14.4619 27.7432L16.3685 28.9272C12.5207 35.1233 9.8569 39.413 2.95344 37.7677L12.4248 22.5156Z" fill="#009891"/>
<path d="M23.311 2.85977C24.2918 1.28036 26.3673 0.795089 27.9467 1.77588C29.5261 2.75667 30.0114 4.83212 29.0306 6.41153L17.1914 25.4767L11.4718 21.9249L23.311 2.85977Z" fill="#009891"/>
<mask id="mask0_3389_43361" style="mask-type:alpha" maskUnits="userSpaceOnUse" x="11" y="1" width="19" height="25">
<path d="M23.311 2.85977C24.2918 1.28036 26.3673 0.795089 27.9467 1.77588C29.5261 2.75667 30.0114 4.83212 29.0306 6.41153L17.1914 25.4767L11.4718 21.9249L23.311 2.85977Z" fill="#009891"/>
</mask>
<g mask="url(#mask0_3389_43361)">
<path d="M43.3942 7.46227C45.4193 14.3445 41.5255 21.3854 34.6972 23.1887C27.8689 24.992 20.6918 20.8747 18.6667 13.9925C18.5175 13.4853 18.4004 12.9772 18.3142 12.4704C18.1732 11.6407 18.1151 10.8145 18.1348 10.0012C18.1551 9.16039 18.2586 8.33342 18.4393 7.53078C19.4256 3.14998 22.7144 -0.506056 27.3637 -1.73389C34.192 -3.53717 41.3691 0.580088 43.3942 7.46227Z" fill="#00827B"/>
</g>
<path d="M38 26.619C36.9231 28.2302 34.866 29.3113 31 29.3113C27.134 29.3113 24.5385 27.6917 24 26.619C24 25.8555 24 24.4609 24 24.4609C24 24.4609 26.1538 26.619 31 26.619C35.8462 26.619 38 24.4609 38 24.4609C38 24.4609 38 25.1321 38 26.619Z" fill="#FA5669"/>
<path d="M38 30.9276C36.9231 32.5388 34.866 33.6199 31 33.6199C27.134 33.6199 24.5385 32.0003 24 30.9276C24 30.1641 24 28.7695 24 28.7695C24 28.7695 26.1538 30.9276 31 30.9276C35.8462 30.9276 38 28.7695 38 28.7695C38 28.7695 38 29.4407 38 30.9276Z" fill="#FA5669"/>
<path d="M38 35.2362C36.9231 36.8474 34.866 37.9285 31 37.9285C27.134 37.9285 24.5385 36.3089 24 35.2362C24 34.4727 24 33.0781 24 33.0781C24 33.0781 26.1538 35.2362 31 35.2362C35.8462 35.2362 38 33.0781 38 33.0781C38 33.0781 38 33.7493 38 35.2362Z" fill="#FA5669"/>
<ellipse cx="31" cy="20.6923" rx="7" ry="2.69231" fill="#FA5669"/>
<path d="M38 22.3068C38 23.7937 34.866 24.9991 31 24.9991C27.134 24.9991 24 23.7937 24 22.3068C24 21.5433 24 20.6914 24 20.6914H38C38 20.6914 38 20.8199 38 22.3068Z" fill="#FA5669"/>
</g>
<defs>
<clipPath id="clip0_3389_43361">
<rect width="40" height="40" fill="white"/>
</clipPath>
</defs>
</svg>
