<svg width="40" height="40" viewBox="0 0 40 40" fill="none" xmlns="http://www.w3.org/2000/svg">
<path d="M3 19.3484C3 18.8062 3.22013 18.2872 3.60996 17.9104L16.61 5.34371C17.3852 4.59434 18.6148 4.59435 19.39 5.34371L32.39 17.9104C32.7799 18.2872 33 18.8062 33 19.3484V36.5C33 37.6046 32.1046 38.5 31 38.5H24C22.8954 38.5 22 37.6046 22 36.5V29C22 27.8954 21.1046 27 20 27H16.5C15.3954 27 14.5 27.8954 14.5 29V36.5C14.5 37.6046 13.6046 38.5 12.5 38.5H5C3.89543 38.5 3 37.6046 3 36.5V19.3484Z" fill="#009891"/>
<mask id="mask0_2590_41988" style="mask-type:alpha" maskUnits="userSpaceOnUse" x="3" y="4" width="30" height="35">
<path d="M3 19.3484C3 18.8062 3.22013 18.2872 3.60996 17.9104L16.61 5.34371C17.3852 4.59434 18.6148 4.59435 19.39 5.34371L32.39 17.9104C32.7799 18.2872 33 18.8062 33 19.3484V36.5C33 37.6046 32.1046 38.5 31 38.5H24C22.8954 38.5 22 37.6046 22 36.5V29C22 27.8954 21.1046 27 20 27H16.5C15.3954 27 14.5 27.8954 14.5 29V36.5C14.5 37.6046 13.6046 38.5 12.5 38.5H5C3.89543 38.5 3 37.6046 3 36.5V19.3484Z" fill="#009891"/>
</mask>
<g mask="url(#mask0_2590_41988)">
<path d="M42.8679 26.7919C44.7841 33.3041 41.0996 39.9666 34.6384 41.673C28.1771 43.3793 21.3858 39.4834 19.4696 32.9711C19.3284 32.4912 19.2176 32.0104 19.1361 31.5308C19.0026 30.7457 18.9477 29.9639 18.9663 29.1944C18.9855 28.3987 19.0834 27.6162 19.2544 26.8567C20.1877 22.7114 23.2998 19.2519 27.6991 18.0901C34.1604 16.3837 40.9517 20.2797 42.8679 26.7919Z" fill="#00827B"/>
</g>
<path d="M37 27.5C37 31.0899 34.9853 32 32.5 32C30.0147 32 28 31.0899 28 27.5C28 23.9101 30.0147 16 32.5 16C34.9853 16 37 23.9101 37 27.5Z" fill="#FA5669"/>
<path d="M32 29.5C32 29.2239 32.2239 29 32.5 29V29C32.7761 29 33 29.2239 33 29.5V38C33 38.2761 32.7761 38.5 32.5 38.5V38.5C32.2239 38.5 32 38.2761 32 38V29.5Z" fill="#FA5669"/>
</svg>
