<svg width="40" height="40" viewBox="0 0 40 40" fill="none" xmlns="http://www.w3.org/2000/svg">
<path fill-rule="evenodd" clip-rule="evenodd" d="M10.6383 7.55328C7.75887 8.17031 2 9.89801 2 11.8725C2 13.847 5.70213 14.752 7.55319 14.9577L5.70213 29.7665L8.78723 31.0006C9.40425 28.3268 12.2426 22.9791 18.6596 22.9791C22.3617 22.9791 25.8582 27.9154 25.4468 30.3836C25.9028 29.5212 26.5 24.5006 26.5 24.5006C26.5 24.5006 28 22.9791 29.5 22.0006C29.2588 20.904 29.0863 20.0473 28.9434 19.3383C28.7877 18.5652 28.6674 17.9676 28.5319 17.4258C28.0619 15.5456 24.0108 15.8139 20.4709 16.0484C19.3641 16.1218 18.3073 16.1918 17.4255 16.1918C16.5665 15.3327 16.7706 13.9419 16.9893 12.4514C17.242 10.7302 17.5141 8.87595 16.1915 7.55328C14.938 6.29977 12.9551 4.59253 11.411 3.39059C10.7045 2.84069 9.99271 3.43489 10.2974 4.27671C10.8142 5.70468 11.2319 7.25617 10.6383 7.55328ZM1.99995 31.499C1.47585 32.3507 1.4762 32.3509 1.47658 32.3512L1.47746 32.3517L1.47968 32.353L1.4859 32.3568L1.50552 32.3686C1.52177 32.3784 1.54439 32.3918 1.57332 32.4086C1.63117 32.4422 1.71427 32.4895 1.82225 32.5485C2.03822 32.6665 2.35378 32.8313 2.76602 33.0272C3.59044 33.419 4.80197 33.9353 6.37705 34.4496C9.52782 35.4785 14.1327 36.499 19.9999 36.499C23.7763 36.499 27.0301 36.0762 29.71 35.5004L29.2899 33.545C26.739 34.0931 23.6261 34.499 19.9999 34.499C14.3672 34.499 9.97208 33.5196 6.99785 32.5484C5.51043 32.0627 4.37821 31.5791 3.6245 31.2209C3.24767 31.0418 2.96559 30.8941 2.78116 30.7933C2.68895 30.743 2.62117 30.7043 2.57819 30.6793C2.5567 30.6669 2.54142 30.6578 2.53238 30.6524L2.52346 30.647C2.52374 30.6472 2.52405 30.6474 1.99995 31.499Z" fill="#009891"/>
<mask id="mask0_2590_41989" style="mask-type:alpha" maskUnits="userSpaceOnUse" x="1" y="3" width="29" height="34">
<path fill-rule="evenodd" clip-rule="evenodd" d="M10.6383 7.55328C7.75887 8.17031 2 9.89801 2 11.8725C2 13.847 5.70213 14.752 7.55319 14.9577L5.70213 29.7665L8.78723 31.0006C9.40425 28.3268 12.2426 22.9791 18.6596 22.9791C22.3617 22.9791 25.8582 27.9154 25.4468 30.3836C25.6278 29.2977 25.7509 28.408 25.8608 27.6139C26.0427 26.2997 26.1883 25.2473 26.5 24.0006C26.5 24.0006 28.5319 22.5006 29.5 21.6462C29.1037 19.8602 28.7406 18.2606 28.5319 17.4258C28.0619 15.5456 24.0108 15.8139 20.4709 16.0484C19.3641 16.1218 18.3073 16.1918 17.4255 16.1918C16.5665 15.3327 16.7706 13.9419 16.9893 12.4514C17.242 10.7302 17.5141 8.87595 16.1915 7.55328C14.938 6.29977 12.9551 4.59253 11.411 3.39059C10.7045 2.84069 9.99271 3.43489 10.2974 4.27671C10.8142 5.70468 11.2319 7.25617 10.6383 7.55328ZM1.99995 31.499C1.47585 32.3507 1.4762 32.3509 1.47658 32.3512L1.47746 32.3517L1.47968 32.353L1.4859 32.3568L1.50552 32.3686C1.52177 32.3784 1.54439 32.3918 1.57332 32.4086C1.63117 32.4422 1.71427 32.4895 1.82225 32.5485C2.03822 32.6665 2.35378 32.8313 2.76602 33.0272C3.59044 33.419 4.80197 33.9353 6.37705 34.4496C9.52782 35.4785 14.1327 36.499 19.9999 36.499C23.7763 36.499 27.0301 36.0762 29.71 35.5004L29.2899 33.545C26.739 34.0931 23.6261 34.499 19.9999 34.499C14.3672 34.499 9.97208 33.5196 6.99785 32.5484C5.51043 32.0627 4.37821 31.5791 3.6245 31.2209C3.24767 31.0418 2.96559 30.8941 2.78116 30.7933C2.68895 30.743 2.62117 30.7043 2.57819 30.6793C2.5567 30.6669 2.54142 30.6578 2.53238 30.6524L2.52346 30.647C2.52374 30.6472 2.52405 30.6474 1.99995 31.499Z" fill="#009891"/>
</mask>
<g mask="url(#mask0_2590_41989)">
<path d="M39.8679 25.7919C41.7841 32.3041 38.0996 38.9666 31.6384 40.673C25.1771 42.3793 18.3858 38.4834 16.4696 31.9711C16.3284 31.4912 16.2176 31.0104 16.1361 30.5308C16.0026 29.7457 15.9477 28.9639 15.9663 28.1944C15.9855 27.3987 16.0834 26.6162 16.2544 25.8567C17.1877 21.7114 20.2998 18.2519 24.6991 17.0901C31.1604 15.3837 37.9517 19.2797 39.8679 25.7919Z" fill="#00827B"/>
</g>
<path fill-rule="evenodd" clip-rule="evenodd" d="M30 35C33.866 35 37 31.866 37 28C37 24.134 33.866 21 30 21C26.134 21 23 24.134 23 28C23 31.866 26.134 35 30 35ZM30.4792 23.7695C30.4792 23.3447 30.1348 23.0003 29.71 23.0003C29.2851 23.0003 28.9407 23.3447 28.9407 23.7695V24.1129C28.603 24.1811 28.2733 24.2975 27.9818 24.4714C27.4507 24.7881 27.0003 25.3351 27.0003 26.1083C27.0003 26.8698 27.4383 27.4112 27.8832 27.7821C28.2968 28.1269 28.8253 28.4142 29.2741 28.658L29.2741 28.658L29.2741 28.6581L29.2741 28.6581L29.3419 28.6949C29.8434 28.9678 30.25 29.196 30.5389 29.447C30.8143 29.6861 30.8803 29.8571 30.8803 30.0058C30.8803 30.1452 30.825 30.2622 30.6375 30.3786C30.4272 30.5092 30.0945 30.5985 29.7142 30.5962C29.3344 30.5939 28.9981 30.5007 28.7835 30.3665C28.5876 30.2441 28.5388 30.127 28.5388 30.0058C28.5388 29.581 28.1944 29.2366 27.7695 29.2366C27.3447 29.2366 27.0003 29.581 27.0003 30.0058C27.0003 30.7792 27.4365 31.3389 27.9681 31.6712C28.3118 31.886 28.7098 32.0194 29.1126 32.0851L29.1126 32.2369C29.1127 32.6616 29.4572 33.003 29.8822 32.9995C30.3073 32.996 30.6518 32.6489 30.6517 32.2242L30.6517 32.0199C30.9326 31.9471 31.2043 31.8376 31.4491 31.6856C31.9891 31.3503 32.4188 30.7846 32.4188 30.0058C32.4188 29.2363 31.9998 28.678 31.5477 28.2854C31.111 27.9062 30.5506 27.6012 30.0833 27.3469L30.0833 27.3469L30.0772 27.3436C29.5697 27.0674 29.1612 26.8446 28.8684 26.6004C28.5857 26.3648 28.5388 26.2147 28.5388 26.1083C28.5388 26.0137 28.5733 25.9099 28.7698 25.7927C28.9847 25.6645 29.324 25.5759 29.7095 25.5759C30.095 25.5759 30.4344 25.6645 30.6493 25.7927C30.8458 25.9099 30.8803 26.0137 30.8803 26.1083C30.8803 26.5332 31.2247 26.8775 31.6496 26.8775C32.0744 26.8775 32.4188 26.5332 32.4188 26.1083C32.4188 25.3351 31.9683 24.7881 31.4373 24.4714C31.146 24.2977 30.8166 24.1813 30.4792 24.1131V23.7695Z" fill="#FA5669"/>
</svg>
