<svg width="40" height="40" viewBox="0 0 40 40" fill="none" xmlns="http://www.w3.org/2000/svg">
<path fill-rule="evenodd" clip-rule="evenodd" d="M20.5 33C27.4036 33 33 27.4036 33 20.5C33 13.5964 27.4036 8 20.5 8C13.5964 8 8 13.5964 8 20.5C8 27.4036 13.5964 33 20.5 33ZM20.5 39C30.7173 39 39 30.7173 39 20.5C39 10.2827 30.7173 2 20.5 2C10.2827 2 2 10.2827 2 20.5C2 30.7173 10.2827 39 20.5 39ZM20.5 25C22.9853 25 25 22.9853 25 20.5C25 18.0147 22.9853 16 20.5 16C18.0147 16 16 18.0147 16 20.5C16 22.9853 18.0147 25 20.5 25ZM20.5 31C26.299 31 31 26.299 31 20.5C31 14.701 26.299 10 20.5 10C14.701 10 10 14.701 10 20.5C10 26.299 14.701 31 20.5 31ZM20.5 23C21.8807 23 23 21.8807 23 20.5C23 19.1193 21.8807 18 20.5 18C19.1193 18 18 19.1193 18 20.5C18 21.8807 19.1193 23 20.5 23Z" fill="#009891"/>
<mask id="mask0_2590_41994" style="mask-type:alpha" maskUnits="userSpaceOnUse" x="2" y="2" width="37" height="37">
<path fill-rule="evenodd" clip-rule="evenodd" d="M20.5 33C27.4036 33 33 27.4036 33 20.5C33 13.5964 27.4036 8 20.5 8C13.5964 8 8 13.5964 8 20.5C8 27.4036 13.5964 33 20.5 33ZM20.5 39C30.7173 39 39 30.7173 39 20.5C39 10.2827 30.7173 2 20.5 2C10.2827 2 2 10.2827 2 20.5C2 30.7173 10.2827 39 20.5 39ZM20.5 25C22.9853 25 25 22.9853 25 20.5C25 18.0147 22.9853 16 20.5 16C18.0147 16 16 18.0147 16 20.5C16 22.9853 18.0147 25 20.5 25ZM20.5 31C26.299 31 31 26.299 31 20.5C31 14.701 26.299 10 20.5 10C14.701 10 10 14.701 10 20.5C10 26.299 14.701 31 20.5 31ZM20.5 23C21.8807 23 23 21.8807 23 20.5C23 19.1193 21.8807 18 20.5 18C19.1193 18 18 19.1193 18 20.5C18 21.8807 19.1193 23 20.5 23Z" fill="#009891"/>
</mask>
<g mask="url(#mask0_2590_41994)">
<path d="M42.8659 28.3506C44.6134 34.6195 40.9481 41.1181 34.6792 42.8656C28.4103 44.6132 21.9117 40.9479 20.1642 34.679C20.0354 34.2169 19.936 33.7537 19.8649 33.2911C19.7484 32.5339 19.7078 31.7786 19.738 31.0342C19.7693 30.2644 19.8763 29.5062 20.0535 28.7692C21.0211 24.7463 24.0824 21.3538 28.3508 20.1639C34.6198 18.4164 41.1184 22.0817 42.8659 28.3506Z" fill="#00827B"/>
</g>
<path d="M26.2399 12.9244L25.226 17.2568C25.1137 17.7371 25.3682 18.2276 25.8256 18.4121L29.9521 20.0766C30.2228 20.1858 30.5278 20.1712 30.7869 20.0368L38.0915 16.2454C38.8134 15.8707 38.8098 14.8368 38.0853 14.4671L35.6597 13.2295C35.2791 13.0353 35.0639 12.6208 35.1242 12.1977L35.5082 9.5019C35.6229 8.69665 34.7794 8.0986 34.0575 8.47331L26.7529 12.2646C26.4938 12.3991 26.3064 12.6401 26.2399 12.9244Z" fill="#FA5669"/>
<rect x="25.5391" y="17" width="1.46795" height="6.18123" rx="0.733974" transform="rotate(62.5693 25.5391 17)" fill="#FA5669"/>
</svg>
