<svg width="40" height="40" viewBox="0 0 40 40" fill="none" xmlns="http://www.w3.org/2000/svg">
<rect x="12" y="35" width="2" height="3" rx="1" fill="#009891"/>
<rect x="18" y="35" width="2" height="3" rx="1" fill="#009891"/>
<path fill-rule="evenodd" clip-rule="evenodd" d="M4 10C4 8.89543 4.89543 8 6 8H9V35H6C4.89543 35 4 34.1046 4 33V10ZM11 35V8H21V35H11ZM23 35H26C27.1046 35 28 34.1046 28 33V10C28 8.89543 27.1046 8 26 8H23V35Z" fill="#009891"/>
<mask id="mask0_2590_41992" style="mask-type:alpha" maskUnits="userSpaceOnUse" x="4" y="8" width="24" height="27">
<path fill-rule="evenodd" clip-rule="evenodd" d="M4 10C4 8.89543 4.89543 8 6 8H9V35H6C4.89543 35 4 34.1046 4 33V10ZM11 35V8H21V35H11ZM23 35H26C27.1046 35 28 34.1046 28 33V10C28 8.89543 27.1046 8 26 8H23V35Z" fill="#009891"/>
</mask>
<g mask="url(#mask0_2590_41992)">
<circle cx="28.5" cy="26.5" r="11.5" fill="#00827B"/>
</g>
<path d="M14 4H18C18.5523 4 19 4.44772 19 5V9H13V5C13 4.44772 13.4477 4 14 4Z" stroke="#009891" stroke-width="2"/>
<path fill-rule="evenodd" clip-rule="evenodd" d="M30 38C30 38 36 30.5765 36 26.6C36 22.6235 33.3137 20 30 20C26.6863 20 24 22.6235 24 26.6C24 30.5765 30 38 30 38ZM30 28C31.1046 28 32 27.1046 32 26C32 24.8954 31.1046 24 30 24C28.8954 24 28 24.8954 28 26C28 27.1046 28.8954 28 30 28Z" fill="#FA5669"/>
</svg>
