<svg width="50" height="32" viewBox="0 0 50 32" fill="none" xmlns="http://www.w3.org/2000/svg">
<mask id="mask0_4134_225449" style="mask-type:alpha" maskUnits="userSpaceOnUse" x="0" y="0" width="50" height="32">
<path d="M0 0H50V32H0V0Z" fill="#D7A72E"/>
</mask>
<g mask="url(#mask0_4134_225449)">
<circle cx="24.5" cy="28.5" r="22.5" fill="black" fill-opacity="0.1"/>
<path d="M12 33.5001V19.5718L24.9998 23.0717V36.5001L12 33.5001Z" fill="#FFCF52"/>
<path d="M37.9998 34.5001L38 19.5718L25.0002 23.0717L25 37.5001L37.9998 34.5001Z" fill="#FFBD3D"/>
<path d="M24.9998 11.0718L11 15.0717L24.9998 18.5717L38.9996 15.0717L24.9998 11.0718Z" fill="#FFCE52"/>
<path d="M21.4999 12.0718L17 13.3718L29.1745 17.528L34.6964 16.1475L21.4999 12.0718Z" fill="#FDDB61"/>
<path d="M15.8994 16.2965L21.5 17.6966L33.4997 13.5717L29.4999 12.4717L15.8994 16.2965Z" fill="#FDDB61"/>
<path d="M11 19.5717V15.0718L24.9998 18.5717V23.0717L11 19.5717Z" fill="#FFCF52"/>
<path d="M39 19.5717V15.0718L25.0002 18.5717V23.0717L39 19.5717Z" fill="#FFBD3D"/>
<path d="M18 16.8218L21.4999 17.6968V22.1967L18 21.3217L16 20.8217V16.3218L18 16.8218Z" fill="#FFE791"/>
<path d="M16.5 20.7832L21.6955 22.182V33.3089L16.5 32.11V20.7832Z" fill="#FFE791"/>
<path d="M32.6953 16.5718L29.1954 17.4468V21.9467L32.6953 21.0717L34.6953 20.5717V16.0718L32.6953 16.5718Z" fill="#FFE791"/>
<path d="M34.1953 20.5332L28.9998 21.932V35.699L34.1953 34.5V20.5332Z" fill="#FFE791"/>
<path d="M12 21.0718V19.5718L24.9998 23.0717V24.5717L12 21.0718Z" fill="#F28F33" fill-opacity="0.32"/>
<path d="M38 21.0718V19.5718L25.0002 23.0717V24.5717L38 21.0718Z" fill="#F28F33" fill-opacity="0.32"/>
<path fill-rule="evenodd" clip-rule="evenodd" d="M17.0288 8.45489C17.7766 11.0707 20.206 13.166 23.6222 13.9692C23.38 13.2778 23.0755 12.4937 22.7186 11.7041C22.0456 10.2154 21.2303 8.80697 20.3602 7.93686C18.946 6.52267 16.4752 6.5183 17.0288 8.45489ZM17.0176 5.39167C18.4278 4.77234 20.253 5.00128 21.7744 6.52267C22.9043 7.65252 23.839 9.32735 24.541 10.8803C25.3453 12.6597 26.1851 14.3102 25.7387 16.2235H24.7057C19.9331 15.6932 16.2501 13.0072 15.1059 9.00459C14.6492 7.40683 15.6958 5.97217 17.0176 5.39167Z" fill="#FFE791"/>
<path fill-rule="evenodd" clip-rule="evenodd" d="M33.2164 7.28818C33.8872 7.58278 34.0604 8.11703 33.9695 8.4352C33.2399 10.9873 30.8859 13.0487 27.5559 13.869C27.79 13.2103 28.0786 12.4743 28.4135 11.7335C29.0855 10.2471 29.8965 8.84816 30.7573 7.98732C31.7165 7.02813 32.6403 7.03517 33.2164 7.28818ZM34.0781 5.32619C32.6391 4.69424 30.7829 4.93132 29.2421 6.47209C28.1029 7.61122 27.164 9.29557 26.4609 10.8508C25.7483 12.4271 25.2298 13.9808 24.9661 14.9477L24.5513 16.4686L26.1181 16.2945C30.9102 15.762 34.8753 13.0627 36.0298 9.02417C36.4991 7.38228 35.4223 5.91656 34.0781 5.32619Z" fill="#FFE791"/>
<path d="M18.5 5.07154C18.0149 5.19281 17 5.57154 17 7.57154C20.4153 6.05364 21.8051 10.7848 23.7755 14.0715H25.8304C24.8897 7.38428 20.2912 4.62373 18.5 5.07154Z" fill="#FFCE52"/>
<path d="M32.334 5.11808C32.8191 5.23935 33.834 5.61808 33.834 7.61808C30.4187 6.10019 29.5252 10.7848 27.5548 14.0715H25.4999C26.4406 7.38422 30.5428 4.67028 32.334 5.11808Z" fill="#FFCE52"/>
</g>
</svg>
