<svg width="44" height="44" viewBox="0 0 44 44" fill="none" xmlns="http://www.w3.org/2000/svg">
<ellipse cx="34.4" cy="13" rx="2.15" ry="2" fill="#C9EBE9"/>
<path d="M12.4 7.5C12.4 8.01884 11.9366 8.5 11.2875 8.5C10.6385 8.5 10.175 8.01884 10.175 7.5C10.175 6.98116 10.6385 6.5 11.2875 6.5C11.9366 6.5 12.4 6.98116 12.4 7.5Z" stroke="#C9EBE9"/>
<path d="M40.35 24.5C40.35 25.0188 39.8866 25.5 39.2375 25.5C38.5884 25.5 38.125 25.0188 38.125 24.5C38.125 23.9812 38.5884 23.5 39.2375 23.5C39.8866 23.5 40.35 23.9812 40.35 24.5Z" stroke="#C9EBE9"/>
<path d="M7.0251 25C7.0251 25.795 6.32104 26.5 5.3751 26.5C4.42916 26.5 3.7251 25.795 3.7251 25C3.7251 24.205 4.42916 23.5 5.3751 23.5C6.32104 23.5 7.0251 24.205 7.0251 25Z" fill="#C9EBE9" stroke="#C9EBE9"/>
<path d="M10 33.675C10 32.5705 10.8954 31.675 12 31.675H32C33.1046 31.675 34 32.5705 34 33.675V39.925H10V33.675Z" fill="#EFFFFE" stroke="#009891" stroke-width="2"/>
<ellipse cx="29" cy="35.7999" rx="1" ry="1.025" fill="#009891"/>
<path d="M27.1212 12.4087C22.9873 9.84853 24.9258 6.23506 25.009 6.08486C25.1297 5.87112 25.1293 5.60816 25.008 5.39479C24.8868 5.18142 24.6629 5.05005 24.4208 5.05005C22.2928 5.05005 20.6265 5.66549 19.4681 6.87932C17.4888 8.95341 17.5806 12.1815 17.6198 13.56C17.6241 13.7127 17.6279 13.8446 17.6279 13.9426C17.6279 14.9661 17.7892 15.911 17.9315 16.7446C18.0233 17.2818 18.1025 17.7458 18.1165 18.1106C18.1316 18.501 18.0616 18.5905 18.0586 18.5941C18.0486 18.6062 17.9654 18.6513 17.7403 18.6513C17.4837 18.6513 17.2945 18.5659 17.1268 18.3746C16.472 17.6272 16.4267 15.5864 16.5519 14.4761C16.5743 14.2803 16.5135 14.0842 16.3847 13.937C16.256 13.7898 16.0716 13.7057 15.878 13.7057C14.1164 13.7057 12.8 16.6382 12.8 19.2602C12.8 20.4927 13.0436 21.7002 13.5239 22.8489C13.9883 23.9594 14.6505 24.9617 15.4921 25.8278C17.245 27.6316 19.5561 28.625 21.9998 28.625C24.4533 28.625 26.7639 27.6457 28.5058 25.8674C30.2432 24.0938 31.2 21.7472 31.2 19.2601C31.2 16.0866 28.7607 13.424 27.1212 12.4087Z" fill="#EFFFFE"/>
<path d="M30.28 21.7294C30.28 21.7294 29.3929 24.971 27.0271 26.7391C24.2507 26.7391 22 25.0855 22 22.3188C22 19.552 24.2507 17.3091 27.0271 17.3091C29.8036 17.3091 30.28 21.7294 30.28 21.7294Z" fill="#C9EBE9"/>
<path d="M26.5946 13.2588L26.5947 13.2589C27.2917 13.6905 28.2112 14.5112 28.9505 15.5902C29.6873 16.6658 30.2 17.9307 30.2 19.2601C30.2 23.7565 26.4924 27.625 21.9998 27.625C17.5482 27.625 13.8 23.7204 13.8 19.2602C13.8 18.0973 14.096 16.868 14.5664 15.9595C14.9031 15.3093 15.2431 14.9691 15.5191 14.8143C15.484 15.3683 15.4858 16.0289 15.5523 16.6653C15.5952 17.0766 15.6676 17.5022 15.7855 17.8943C15.8997 18.2739 16.0777 18.6946 16.3747 19.0335L16.3747 19.0336C16.7551 19.4678 17.3696 19.6995 17.9228 19.6364C18.2267 19.6018 18.6352 19.4589 18.9069 19.0611C19.1607 18.6896 19.1722 18.276 19.104 17.9439L19.0936 17.8553C19.0832 17.767 19.0683 17.6438 19.0505 17.5033C19.0153 17.226 18.9669 16.867 18.9173 16.5763C18.6551 15.0411 18.4668 13.2883 18.6128 11.6473C18.7594 10.0009 19.2325 8.57471 20.1916 7.56972L20.1916 7.56971C21.0316 6.68947 22.2475 6.1518 23.9182 6.06309C23.7207 6.55046 23.4666 7.37444 23.4839 8.36051C23.5115 9.94223 24.2383 11.7995 26.5946 13.2588Z" stroke="#009891" stroke-width="2" stroke-linejoin="round"/>
</svg>
