<svg width="44" height="44" viewBox="0 0 44 44" fill="none" xmlns="http://www.w3.org/2000/svg">
<path d="M36.5 37.0539C36.5 37.9247 35.816 38.6077 35 38.6077C34.184 38.6077 33.5 37.9247 33.5 37.0539C33.5 36.1831 34.184 35.5 35 35.5C35.816 35.5 36.5 36.1831 36.5 37.0539Z" stroke="#C9EBE9"/>
<path d="M9.5 35.5404C9.5 36.1276 9.03984 36.5808 8.5 36.5808C7.96016 36.5808 7.5 36.1276 7.5 35.5404C7.5 34.9532 7.96016 34.5 8.5 34.5C9.03984 34.5 9.5 34.9532 9.5 35.5404Z" fill="#C9EBE9" stroke="#C9EBE9"/>
<circle cx="8.9435" cy="8.96448" r="1.5" transform="rotate(-2.09186 8.9435 8.96448)" stroke="#C9EBE9"/>
<path d="M37.5 13.0269C37.5 13.3306 37.2637 13.5539 37 13.5539C36.7363 13.5539 36.5 13.3306 36.5 13.0269C36.5 12.7233 36.7363 12.5 37 12.5C37.2637 12.5 37.5 12.7233 37.5 13.0269Z" fill="#C9EBE9" stroke="#C9EBE9"/>
<path d="M6.59215 13.0799C6.60323 13.3833 6.37524 13.6151 6.11172 13.6247C5.84819 13.6344 5.6039 13.4198 5.59282 13.1164C5.58173 12.813 5.80973 12.5812 6.07325 12.5716C6.33677 12.5619 6.58107 12.7765 6.59215 13.0799Z" fill="#C9EBE9" stroke="#C9EBE9"/>
<circle cx="22" cy="22" r="14" fill="#EFFFFE" stroke="#009891" stroke-width="2"/>
<mask id="mask0_914_12651" style="mask-type:alpha" maskUnits="userSpaceOnUse" x="9" y="9" width="26" height="26">
<circle cx="22" cy="22" r="11.8947" fill="#EFFFFE" stroke="#009891" stroke-width="2.21053"/>
</mask>
<g mask="url(#mask0_914_12651)">
<ellipse cx="27.6325" cy="29.5124" rx="8.65231" ry="8.86862" fill="#C9EBE9"/>
</g>
<circle opacity="0.8" cx="22" cy="22" r="14" stroke="#009891" stroke-width="2"/>
<mask id="path-10-inside-1_914_12651" fill="white">
<path fill-rule="evenodd" clip-rule="evenodd" d="M20.1362 26H22.8638V28.5481C22.8638 29.3499 23.5138 29.9998 24.3156 29.9998H28.8362C28.9266 29.9998 29 29.9265 29 29.836V21.5989C29 19.9044 27.6264 18.5308 25.9319 18.5308C24.4424 18.5308 23.2007 19.5922 22.9222 21H20.0778C19.7991 19.5923 18.5576 18.531 17.0681 18.531C15.3736 18.531 14 19.9046 14 21.5991V29.8362C14 29.9267 14.0734 30.0001 14.1638 30.0001H18.6844C19.4862 30.0001 20.1362 29.3501 20.1362 28.5483V26Z"/>
</mask>
<path fill-rule="evenodd" clip-rule="evenodd" d="M20.1362 26H22.8638V28.5481C22.8638 29.3499 23.5138 29.9998 24.3156 29.9998H28.8362C28.9266 29.9998 29 29.9265 29 29.836V21.5989C29 19.9044 27.6264 18.5308 25.9319 18.5308C24.4424 18.5308 23.2007 19.5922 22.9222 21H20.0778C19.7991 19.5923 18.5576 18.531 17.0681 18.531C15.3736 18.531 14 19.9046 14 21.5991V29.8362C14 29.9267 14.0734 30.0001 14.1638 30.0001H18.6844C19.4862 30.0001 20.1362 29.3501 20.1362 28.5483V26Z" fill="#EFFFFE"/>
<path d="M22.8638 26H24.8638V24H22.8638V26ZM20.1362 26V24H18.1362V26H20.1362ZM22.9222 21V23H24.5652L24.8842 21.3882L22.9222 21ZM20.0778 21L18.1158 21.3884L18.4349 23H20.0778V21ZM22.8638 24H20.1362V28H22.8638V24ZM24.8638 28.5481V26H20.8638V28.5481H24.8638ZM24.3156 27.9998C24.6183 27.9998 24.8638 28.2453 24.8638 28.5481H20.8638C20.8638 30.4544 22.4092 31.9998 24.3156 31.9998V27.9998ZM28.8362 27.9998H24.3156V31.9998H28.8362V27.9998ZM27 29.836C27 28.8219 27.8221 27.9998 28.8362 27.9998V31.9998C30.0312 31.9998 31 31.031 31 29.836H27ZM27 21.5989V29.836H31V21.5989H27ZM25.9319 20.5308C26.5218 20.5308 27 21.009 27 21.5989H31C31 18.7998 28.7309 16.5308 25.9319 16.5308V20.5308ZM24.8842 21.3882C24.9809 20.8991 25.4156 20.5308 25.9319 20.5308V16.5308C23.4691 16.5308 21.4205 18.2854 20.9602 20.6118L24.8842 21.3882ZM20.0778 23H22.9222V19H20.0778V23ZM17.0681 20.531C17.5844 20.531 18.019 20.8993 18.1158 21.3884L22.0397 20.6116C21.5792 18.2854 19.5308 16.531 17.0681 16.531V20.531ZM16 21.5991C16 21.0092 16.4782 20.531 17.0681 20.531V16.531C14.2691 16.531 12 18.8001 12 21.5991H16ZM16 29.8362V21.5991H12V29.8362H16ZM14.1638 28.0001C15.1779 28.0001 16 28.8222 16 29.8362H12C12 31.0313 12.9688 32.0001 14.1638 32.0001V28.0001ZM18.6844 28.0001H14.1638V32.0001H18.6844V28.0001ZM18.1362 28.5483C18.1362 28.2455 18.3817 28.0001 18.6844 28.0001V32.0001C20.5908 32.0001 22.1362 30.4547 22.1362 28.5483H18.1362ZM18.1362 26V28.5483H22.1362V26H18.1362Z" fill="#009891" mask="url(#path-10-inside-1_914_12651)"/>
<path d="M15.4321 15.3863C15.4321 14.4826 16.1647 13.75 17.0684 13.75C17.9722 13.75 18.7048 14.4826 18.7048 15.3863V17.0897H15.4321V15.3863Z" fill="#EFFFFE" stroke="#009891" stroke-width="1.5"/>
<path d="M27.5685 15.4199C27.5685 16.352 26.8261 17.0897 25.9322 17.0897C25.0383 17.0897 24.2959 16.352 24.2959 15.4199C24.2959 14.4877 25.0383 13.75 25.9322 13.75C26.8261 13.75 27.5685 14.4877 27.5685 15.4199Z" fill="#EFFFFE" stroke="#009891" stroke-width="1.5"/>
</svg>
