<svg width="44" height="44" viewBox="0 0 44 44" fill="none" xmlns="http://www.w3.org/2000/svg">
<path d="M5.80068 30.6246C5.65116 31.4824 4.86001 32.0379 4.05615 31.8978C3.25229 31.7577 2.69572 30.9673 2.84524 30.1095C2.99476 29.2516 3.7859 28.6961 4.58977 28.8362C5.39363 28.9763 5.9502 29.7667 5.80068 30.6246Z" stroke="#C9EBE9"/>
<path d="M40.8001 11.5324C40.9282 12.1054 40.5781 12.6481 40.0513 12.7659C39.5244 12.8838 38.9765 12.5419 38.8483 11.9689C38.7201 11.3958 39.0703 10.8531 39.5971 10.7353C40.124 10.6175 40.6719 10.9593 40.8001 11.5324Z" stroke="#C9EBE9"/>
<path d="M10.83 36.7133C10.7778 37.0125 10.5067 37.1919 10.2469 37.1466C9.98712 37.1013 9.79267 36.8407 9.84481 36.5416C9.89694 36.2425 10.1681 36.0631 10.4279 36.1084C10.6876 36.1536 10.8821 36.4142 10.83 36.7133Z" fill="#C9EBE9" stroke="#C9EBE9"/>
<path d="M34.688 7.11158C34.7542 7.40789 34.5724 7.67739 34.315 7.73494C34.0577 7.79249 33.7783 7.62614 33.7121 7.32983C33.6458 7.03352 33.8277 6.76402 34.085 6.70647C34.3424 6.64892 34.6217 6.81527 34.688 7.11158Z" fill="#C9EBE9" stroke="#C9EBE9"/>
<rect x="8.19995" y="11.5125" width="27.6" height="21.15" rx="2" fill="#EFFFFE"/>
<path d="M35.8001 27.3749C35.8001 30.944 32.3933 32.0749 28.9001 32.0749C25.4069 32.0749 23.1501 30.944 23.1501 27.3749C23.1501 23.8057 25.9819 20.9124 29.4751 20.9124C32.9683 20.9124 35.2251 22.0874 35.8001 27.3749Z" fill="#C9EBE9"/>
<rect x="9.19995" y="12.5125" width="25.6" height="19.15" rx="1" stroke="#009891" stroke-width="2"/>
<rect x="9.18555" y="16.5481" width="25.6286" height="2.01429" fill="#009891"/>
<rect x="11.6499" y="26.7876" width="5.91429" height="2.01429" rx="1.00714" fill="#009891"/>
</svg>
