<svg width="44" height="44" viewBox="0 0 44 44" fill="none" xmlns="http://www.w3.org/2000/svg">
<path d="M35.0479 36.6496C34.3984 36.7562 33.7603 36.3019 33.6454 35.6025C33.5306 34.9032 33.9899 34.2687 34.6394 34.162C35.2889 34.0554 35.927 34.5097 36.0418 35.2091C36.1567 35.9084 35.6973 36.5429 35.0479 36.6496Z" stroke="#C9EBE9"/>
<circle cx="7" cy="10" r="1.5" transform="rotate(90 7 10)" stroke="#C9EBE9"/>
<circle cx="37" cy="12" r="1" transform="rotate(90 37 12)" fill="#C9EBE9"/>
<circle cx="4.85093" cy="29.8508" r="1.31575" transform="rotate(140.949 4.85093 29.8508)" fill="#C9EBE9"/>
<ellipse cx="38.9926" cy="30.6772" rx="0.897082" ry="0.873552" transform="rotate(80.6754 38.9926 30.6772)" fill="#C9EBE9"/>
<circle cx="8.92522" cy="34.9253" r="0.657874" transform="rotate(140.949 8.92522 34.9253)" fill="#C9EBE9"/>
<circle cx="22" cy="22" r="14" fill="#EFFFFE" stroke="#009891" stroke-width="2"/>
<mask id="mask0_914_12577" style="mask-type:alpha" maskUnits="userSpaceOnUse" x="8" y="7" width="28" height="29">
<path d="M34.8947 21.4761C34.8947 28.8037 29.1064 34.6971 22.0232 34.6971C14.94 34.6971 9.15165 28.8037 9.15165 21.4761C9.15165 14.1485 14.94 8.25517 22.0232 8.25517C29.1064 8.25517 34.8947 14.1485 34.8947 21.4761Z" fill="#EFFFFE" stroke="#009891" stroke-width="2.21053"/>
</mask>
<g mask="url(#mask0_914_12577)">
<ellipse cx="28.6789" cy="29.6623" rx="8.65231" ry="8.86862" fill="#C9EBE9"/>
</g>
<circle cx="22" cy="22" r="14" stroke="#009891" stroke-width="2"/>
<path fill-rule="evenodd" clip-rule="evenodd" d="M21.7924 14.6914H20.2593V16.3675C20.2593 16.9197 19.8116 17.3675 19.2593 17.3675H18.8166C18.9033 19.3057 18.7439 22.0637 18.5559 24.4353C18.4397 25.9012 18.3091 27.2571 18.2076 28.2461C18.1891 28.4259 18.1716 28.5936 18.1553 28.7477H19.5024V27.0716C19.5024 26.5193 19.9501 26.0716 20.5024 26.0716H21.479H22.3669H23.2547C23.807 26.0716 24.2547 26.5193 24.2547 27.0716L24.2548 28.7477H25.7118C25.698 28.5887 25.683 28.415 25.6672 28.2283C25.5837 27.2401 25.4762 25.8856 25.3806 24.4214C25.2253 22.0411 25.0951 19.2895 25.1665 17.3675H24.525C23.9727 17.3675 23.525 16.9197 23.525 16.3675V14.6914H22.4192H22.3669H21.7924ZM21.7924 12.6914H19.2593C18.707 12.6914 18.2593 13.1391 18.2593 13.6914V15.3675H17.7322C17.4439 15.3675 17.1697 15.4918 16.9798 15.7087C16.7899 15.9256 16.7029 16.2139 16.741 16.4996C16.9551 18.1056 16.7951 21.3383 16.5622 24.2772C16.4475 25.7234 16.3185 27.0633 16.218 28.0419C16.1678 28.531 16.1248 28.9294 16.0944 29.2051C16.0792 29.343 16.0671 29.4502 16.0589 29.5227L16.0495 29.6049L16.0471 29.6255L16.0465 29.6306L16.0464 29.6318L16.0464 29.632L17.0396 29.7477L16.0463 29.6321L15.9165 30.7477H17.0396H20.5024C21.0546 30.7477 21.5024 30.3 21.5024 29.7477V28.0716H22.2547L22.2548 29.7477C22.2548 30.3 22.7025 30.7477 23.2548 30.7477H26.8063H27.9067L27.8017 29.6523L26.8063 29.7477L27.8017 29.6522L27.8017 29.652L27.8016 29.6507L27.8011 29.6456L27.7991 29.6248L27.7913 29.5424C27.7846 29.4697 27.7746 29.3624 27.7621 29.2243C27.737 28.9482 27.7015 28.5494 27.6601 28.0598C27.5773 27.0802 27.4709 25.739 27.3764 24.2911C27.1849 21.3569 27.0513 18.1044 27.23 16.4766C27.261 16.1941 27.1703 15.9117 26.9806 15.7C26.791 15.4884 26.5202 15.3675 26.2359 15.3675H25.525V13.6914C25.525 13.1391 25.0773 12.6914 24.525 12.6914H22.4192H22.3669H21.7924Z" fill="#009891"/>
<rect x="20.2742" y="17.917" width="3.29782" height="1.69013" rx="0.845067" fill="#009891"/>
<rect x="21.0989" y="24.6775" width="7.6056" height="1.64891" rx="0.824455" transform="rotate(-90 21.0989 24.6775)" fill="#009891"/>
<rect x="20.2742" y="21.2971" width="3.29782" height="1.69013" rx="0.845067" fill="#009891"/>
</svg>
