<svg width="44" height="44" viewBox="0 0 44 44" fill="none" xmlns="http://www.w3.org/2000/svg">
<path d="M37.5 35.0539C37.5 35.9247 36.816 36.6077 36 36.6077C35.184 36.6077 34.5 35.9247 34.5 35.0539C34.5 34.1831 35.184 33.5 36 33.5C36.816 33.5 37.5 34.1831 37.5 35.0539Z" stroke="#C9EBE9"/>
<path d="M13.5161 36.8371C13.6133 37.4162 13.2346 37.9394 12.7022 38.0288C12.1699 38.1183 11.641 37.7476 11.5437 37.1685C11.4464 36.5894 11.8251 36.0662 12.3575 35.9768C12.8899 35.8873 13.4188 36.258 13.5161 36.8371Z" fill="#C9EBE9" stroke="#C9EBE9"/>
<circle cx="10" cy="8" r="1.5" stroke="#C9EBE9"/>
<path d="M7.6494 32.0955C7.69971 32.395 7.50366 32.6543 7.24361 32.698C6.98356 32.7417 6.71352 32.5606 6.66322 32.2612C6.61292 31.9618 6.80896 31.7024 7.06902 31.6587C7.32907 31.615 7.5991 31.7961 7.6494 32.0955Z" fill="#C9EBE9" stroke="#C9EBE9"/>
<path d="M37.5 12.1414C37.5 12.4451 37.2637 12.6684 37 12.6684C36.7363 12.6684 36.5 12.4451 36.5 12.1414C36.5 11.8378 36.7363 11.6145 37 11.6145C37.2637 11.6145 37.5 11.8378 37.5 12.1414Z" fill="#C9EBE9" stroke="#C9EBE9"/>
<path d="M35 21.4761C35 28.8594 29.1669 34.8024 22.0232 34.8024C14.8794 34.8024 9.04639 28.8594 9.04639 21.4761C9.04639 14.0928 14.8794 8.1499 22.0232 8.1499C29.1669 8.1499 35 14.0928 35 21.4761Z" fill="#EFFFFE" stroke="#009891" stroke-width="2"/>
<mask id="mask0_1582_14724" style="mask-type:alpha" maskUnits="userSpaceOnUse" x="8" y="7" width="28" height="29">
<path d="M34.8947 21.4761C34.8947 28.8037 29.1064 34.6971 22.0232 34.6971C14.94 34.6971 9.15165 28.8037 9.15165 21.4761C9.15165 14.1485 14.94 8.25517 22.0232 8.25517C29.1064 8.25517 34.8947 14.1485 34.8947 21.4761Z" fill="#EFFFFE" stroke="#009891" stroke-width="2.21053"/>
</mask>
<g mask="url(#mask0_1582_14724)">
<ellipse cx="28.6789" cy="29.6623" rx="8.65231" ry="8.86862" fill="#C9EBE9"/>
</g>
<path d="M35 21.4761C35 28.8594 29.1669 34.8024 22.0232 34.8024C14.8794 34.8024 9.04639 28.8594 9.04639 21.4761C9.04639 14.0928 14.8794 8.1499 22.0232 8.1499C29.1669 8.1499 35 14.0928 35 21.4761Z" stroke="#009891" stroke-width="2"/>
<circle cx="16.5" cy="21.5" r="1.5" fill="#009891"/>
<circle cx="22.5" cy="21.5" r="1.5" fill="#009891"/>
<circle cx="28.5" cy="21.5" r="1.5" fill="#009891"/>
</svg>
