<svg width="24" height="24" viewBox="0 0 24 24" fill="none" xmlns="http://www.w3.org/2000/svg">
<path d="M19.4001 11.9857C19.4001 16.0649 16.0932 19.3718 12.014 19.3718C7.93479 19.3718 4.62793 16.0649 4.62793 11.9857C4.62793 7.90647 7.93479 4.59961 12.014 4.59961C16.0932 4.59961 19.4001 7.90647 19.4001 11.9857Z" fill="#EFFFFE" stroke="#009891" stroke-width="2"/>
<path d="M19.8003 14.0492C19.8003 16.9163 16.9674 19.6101 14.1003 19.6101C11.2332 19.6101 10.8164 19.6455 10.8164 16.7784C10.8164 13.9113 13.1407 11.587 16.0078 11.587C18.8749 11.587 19.8003 11.1821 19.8003 14.0492Z" fill="#C9EBE9"/>
<path d="M19.4001 11.9857C19.4001 16.0649 16.0932 19.3718 12.014 19.3718C7.93479 19.3718 4.62793 16.0649 4.62793 11.9857C4.62793 7.90647 7.93479 4.59961 12.014 4.59961C16.0932 4.59961 19.4001 7.90647 19.4001 11.9857Z" stroke="#009891" stroke-width="2"/>
<path fill-rule="evenodd" clip-rule="evenodd" d="M11.3342 9.28686C11.3338 9.27974 11.3337 9.27259 11.3337 9.26541L11.3335 8.89161C11.3335 8.5831 11.632 8.33301 12.0002 8.33301C12.3683 8.33301 12.6668 8.5831 12.6668 8.89161L12.667 9.26541C12.667 9.27266 12.6668 9.27988 12.6665 9.28707C12.9021 9.35047 13.1286 9.45006 13.3284 9.59033C13.7298 9.87227 13.9999 10.3059 13.9999 10.8559C13.9999 11.1468 13.7441 11.3826 13.4285 11.3826C13.1129 11.3826 12.8571 11.1468 12.8571 10.8559C12.8571 10.6534 12.77 10.5226 12.6358 10.4283C12.4856 10.3228 12.2569 10.2539 11.9999 10.2539C11.743 10.2539 11.5143 10.3228 11.3641 10.4283C11.2299 10.5226 11.1428 10.6534 11.1428 10.8559L11.1427 10.8598C11.1419 10.8814 11.1403 10.9251 11.3013 11.0099C11.4966 11.1128 11.7792 11.1905 12.1569 11.29L12.1915 11.2991C12.5227 11.3862 12.9367 11.4951 13.2656 11.6684C13.6298 11.8602 13.9999 12.1928 13.9999 12.7371C13.9999 13.2935 13.7216 13.7187 13.2911 13.9738C13.0983 14.088 12.885 14.1629 12.6668 14.2067V14.4412C12.6668 14.7497 12.3683 14.9998 12.0002 14.9998C11.632 14.9998 11.3335 14.7497 11.3335 14.4412V14.1411C11.1046 14.0752 10.8857 13.9809 10.6932 13.8584C10.3275 13.6256 10 13.2474 10 12.7371C10 12.4462 10.2558 12.2103 10.5714 12.2103C10.887 12.2103 11.1428 12.4462 11.1428 12.7371C11.1428 12.7912 11.1725 12.8832 11.3425 12.9915C11.5136 13.1003 11.7688 13.1814 12.0407 13.1993C12.3159 13.2175 12.5392 13.167 12.6731 13.0876C12.7782 13.0253 12.8571 12.9332 12.8571 12.7371L12.8572 12.7332C12.858 12.7116 12.8596 12.6678 12.6986 12.583C12.5033 12.4802 12.2207 12.4024 11.843 12.303L11.8084 12.2939C11.4772 12.2067 11.0632 12.0978 10.7343 11.9246C10.3701 11.7328 10 11.4002 10 10.8559C10 10.3059 10.2701 9.87227 10.6715 9.59033C10.8715 9.44991 11.0983 9.35026 11.3342 9.28686Z" fill="#009891"/>
</svg>
