<svg width="24" height="24" viewBox="0 0 24 24" fill="none" xmlns="http://www.w3.org/2000/svg">
<circle cx="11.9999" cy="11.9999" r="8.16667" fill="#EFFFFE" stroke="#009891" stroke-width="2"/>
<mask id="mask0_914_12740" style="mask-type:alpha" maskUnits="userSpaceOnUse" x="9" y="11" width="11" height="9">
<path d="M19.922 13.8758C19.922 17.0836 14.7757 19.986 11.4129 19.986C9.36829 19.986 9 20.3664 9 17.1586C9 13.9508 12.592 11 15.9548 11C21.2277 11 19.7752 11.5556 19.922 13.8758Z" fill="#C9EBE9"/>
</mask>
<g mask="url(#mask0_914_12740)">
<circle cx="12" cy="12" r="7" fill="#C9EBE9"/>
</g>
<mask id="path-4-inside-1_914_12740" fill="white">
<path fill-rule="evenodd" clip-rule="evenodd" d="M12.7275 12.6363C12.7275 11.7326 13.4602 11 14.3639 11C15.2676 11 16.0002 11.7326 16.0002 12.6363V16.717H13.4512C13.0515 16.717 12.7275 16.393 12.7275 15.9933V15.1169H11.2727V15.9934C11.2727 16.3931 10.9487 16.7171 10.549 16.7171H8V12.6366C8 11.7329 8.73261 11.0002 9.63634 11.0002C10.5401 11.0002 11.2727 11.7329 11.2727 12.6366V12.7169H12.7275V12.6363Z"/>
</mask>
<path d="M16.0002 16.717V17.717H17.0002V16.717H16.0002ZM12.7275 15.1169H13.7275V14.1169H12.7275V15.1169ZM11.2727 15.1169V14.1169H10.2727V15.1169H11.2727ZM8 16.7171H7V17.7171H8V16.7171ZM11.2727 12.7169H10.2727V13.7169H11.2727V12.7169ZM12.7275 12.7169V13.7169H13.7275V12.7169H12.7275ZM14.3639 10C12.9079 10 11.7275 11.1803 11.7275 12.6363H13.7275C13.7275 12.2849 14.0124 12 14.3639 12V10ZM17.0002 12.6363C17.0002 11.1803 15.8199 10 14.3639 10V12C14.7153 12 15.0002 12.2849 15.0002 12.6363H17.0002ZM17.0002 16.717V12.6363H15.0002V16.717H17.0002ZM13.4512 17.717H16.0002V15.717H13.4512V17.717ZM11.7275 15.9933C11.7275 16.9453 12.4993 17.717 13.4512 17.717V15.717C13.6038 15.717 13.7275 15.8407 13.7275 15.9933H11.7275ZM11.7275 15.1169V15.9933H13.7275V15.1169H11.7275ZM11.2727 16.1169H12.7275V14.1169H11.2727V16.1169ZM10.2727 15.1169V15.9934H12.2727V15.1169H10.2727ZM10.2727 15.9934C10.2727 15.8408 10.3964 15.7171 10.549 15.7171V17.7171C11.501 17.7171 12.2727 16.9454 12.2727 15.9934H10.2727ZM10.549 15.7171H8V17.7171H10.549V15.7171ZM9 16.7171V12.6366H7V16.7171H9ZM9 12.6366C9 12.2851 9.2849 12.0002 9.63634 12.0002V10.0002C8.18033 10.0002 7 11.1806 7 12.6366H9ZM9.63634 12.0002C9.98778 12.0002 10.2727 12.2851 10.2727 12.6366H12.2727C12.2727 11.1806 11.0923 10.0002 9.63634 10.0002V12.0002ZM10.2727 12.6366V12.7169H12.2727V12.6366H10.2727ZM12.7275 11.7169H11.2727V13.7169H12.7275V11.7169ZM11.7275 12.6363V12.7169H13.7275V12.6363H11.7275Z" fill="#009891" mask="url(#path-4-inside-1_914_12740)"/>
<path d="M8.86377 9.27271C8.86377 8.84595 9.20972 8.5 9.63648 8.5C10.0632 8.5 10.4092 8.84595 10.4092 9.27271V10.0812H8.86377V9.27271Z" fill="#EFFFFE" stroke="#009891"/>
<path d="M15.1365 9.2906C15.1365 9.73383 14.784 10.0812 14.3638 10.0812C13.9436 10.0812 13.5911 9.73383 13.5911 9.2906C13.5911 8.84736 13.9436 8.5 14.3638 8.5C14.784 8.5 15.1365 8.84736 15.1365 9.2906Z" fill="#EFFFFE" stroke="#009891"/>
</svg>
