<svg width="24" height="24" viewBox="0 0 24 24" fill="none" xmlns="http://www.w3.org/2000/svg">
<path fill-rule="evenodd" clip-rule="evenodd" d="M11.9998 9.70692C11.9999 9.69298 12 9.67902 12 9.66504C12 7.59397 10.3211 5.91504 8.25 5.91504C6.17893 5.91504 4.5 7.59397 4.5 9.66504C4.5 9.77953 4.50513 9.89282 4.51518 10.0047C4.5101 10.0051 4.50505 10.0055 4.5 10.0059C4.5 15.1196 12.3409 19.2105 12.3409 19.2105C12.3409 19.2105 19.5 14.7787 19.5 10.0059C19.495 10.0054 19.4899 10.0049 19.4849 10.0043C19.4949 9.89257 19.5 9.7794 19.5 9.66504C19.5 7.59397 17.8211 5.91504 15.75 5.91504C13.6789 5.91504 12 7.59397 12 9.66504C12 9.67902 12.0001 9.69298 12.0002 9.70692C12.0001 9.70692 11.9999 9.70692 11.9998 9.70692Z" fill="#EFFFFE"/>
<path d="M11.9998 9.70692L10.9998 9.69598C10.9969 9.96416 11.1018 10.2223 11.291 10.4124C11.4802 10.6024 11.7378 10.7086 12.006 10.7069L11.9998 9.70692ZM4.51518 10.0047L4.59466 11.0015C4.86076 10.9803 5.10733 10.8536 5.27947 10.6496C5.45162 10.4455 5.53504 10.1812 5.51117 9.91528L4.51518 10.0047ZM4.5 10.0059L4.4203 9.00909C3.90058 9.05065 3.5 9.48454 3.5 10.0059H4.5ZM12.3409 19.2105L11.8783 20.0971C12.1913 20.2604 12.5671 20.2466 12.8673 20.0608L12.3409 19.2105ZM19.5 10.0059H20.5C20.5 9.49416 20.1136 9.06499 19.6047 9.01141L19.5 10.0059ZM19.4849 10.0043L18.4889 9.915C18.4401 10.4592 18.8371 10.9419 19.3805 10.9989L19.4849 10.0043ZM12.0002 9.70692L12.0065 10.7069C12.2725 10.7052 12.5269 10.5977 12.7134 10.4079C12.8999 10.2182 13.0031 9.96199 13.0002 9.69598L12.0002 9.70692ZM12.9997 9.71787C12.9999 9.70027 13 9.68266 13 9.66504H11C11 9.67538 10.9999 9.68569 10.9998 9.69598L12.9997 9.71787ZM13 9.66504C13 7.04169 10.8734 4.91504 8.25 4.91504V6.91504C9.76878 6.91504 11 8.14626 11 9.66504H13ZM8.25 4.91504C5.62665 4.91504 3.5 7.04169 3.5 9.66504H5.5C5.5 8.14626 6.73122 6.91504 8.25 6.91504V4.91504ZM3.5 9.66504C3.5 9.80942 3.50647 9.95255 3.51918 10.0941L5.51117 9.91528C5.50379 9.8331 5.5 9.74964 5.5 9.66504H3.5ZM4.5797 11.0027C4.58467 11.0023 4.58966 11.0019 4.59466 11.0015L4.4357 9.00787C4.43055 9.00828 4.42542 9.00869 4.4203 9.00909L4.5797 11.0027ZM12.3409 19.2105C12.8035 18.3239 12.8037 18.324 12.8038 18.3241C12.8038 18.3241 12.804 18.3242 12.804 18.3242C12.8041 18.3242 12.804 18.3242 12.8038 18.3241C12.8035 18.3239 12.8027 18.3235 12.8014 18.3228C12.7988 18.3215 12.7944 18.3191 12.7883 18.3159C12.7759 18.3093 12.7565 18.2989 12.7304 18.2847C12.6782 18.2563 12.5995 18.2129 12.4981 18.1553C12.2952 18.04 12.0021 17.8681 11.6491 17.6455C10.9408 17.199 10.0015 16.5552 9.06714 15.7631C7.13014 14.1208 5.5 12.0809 5.5 10.0059H3.5C3.5 13.0446 5.79032 15.607 7.77377 17.2886C8.79964 18.1583 9.82052 18.857 10.5825 19.3373C10.9645 19.5781 11.284 19.7657 11.5099 19.8941C11.6229 19.9584 11.7127 20.0079 11.7753 20.0419C11.8067 20.059 11.8312 20.0721 11.8486 20.0813C11.8572 20.086 11.8641 20.0896 11.8691 20.0922C11.8716 20.0935 11.8736 20.0946 11.8751 20.0954C11.8759 20.0958 11.8766 20.0961 11.8771 20.0964C11.8774 20.0966 11.8777 20.0967 11.8778 20.0968C11.8781 20.0969 11.8783 20.0971 12.3409 19.2105ZM18.5 10.0059C18.5 10.9504 18.1438 11.9394 17.5306 12.9321C16.9196 13.9213 16.0889 14.8566 15.2308 15.6739C14.376 16.488 13.517 17.1633 12.8698 17.6358C12.5471 17.8715 12.2793 18.0551 12.0938 18.1787C12.0012 18.2405 11.9292 18.2872 11.8815 18.3178C11.8576 18.3331 11.8398 18.3443 11.8285 18.3515C11.8229 18.355 11.8188 18.3575 11.8165 18.359C11.8153 18.3597 11.8146 18.3602 11.8142 18.3604C11.8141 18.3605 11.814 18.3606 11.8141 18.3605C11.8141 18.3605 11.8142 18.3604 11.8142 18.3604C11.8144 18.3603 11.8146 18.3602 12.3409 19.2105C12.8673 20.0608 12.8675 20.0606 12.8677 20.0605C12.8679 20.0604 12.8681 20.0602 12.8684 20.0601C12.8689 20.0598 12.8695 20.0594 12.8702 20.0589C12.8716 20.0581 12.8734 20.0569 12.8757 20.0555C12.8802 20.0527 12.8865 20.0488 12.8944 20.0438C12.9101 20.0339 12.9325 20.0197 12.9611 20.0013C13.0183 19.9647 13.1001 19.9115 13.2032 19.8428C13.4093 19.7054 13.7008 19.5055 14.0492 19.2511C14.7444 18.7435 15.6751 18.0126 16.6101 17.1221C17.5418 16.2348 18.5008 15.1673 19.2322 13.9831C19.9613 12.8026 20.5 11.4478 20.5 10.0059H18.5ZM19.3805 10.9989C19.3855 10.9994 19.3904 10.9999 19.3953 11.0004L19.6047 9.01141C19.5995 9.01086 19.5943 9.01032 19.5892 9.00978L19.3805 10.9989ZM20.4809 10.0936C20.4935 9.95223 20.5 9.80926 20.5 9.66504H18.5C18.5 9.74954 18.4962 9.83291 18.4889 9.915L20.4809 10.0936ZM20.5 9.66504C20.5 7.04169 18.3734 4.91504 15.75 4.91504V6.91504C17.2688 6.91504 18.5 8.14626 18.5 9.66504H20.5ZM15.75 4.91504C13.1266 4.91504 11 7.04169 11 9.66504H13C13 8.14626 14.2312 6.91504 15.75 6.91504V4.91504ZM11 9.66504C11 9.68266 11.0001 9.70026 11.0003 9.71786L13.0002 9.69598C13.0001 9.68569 13 9.67538 13 9.66504H11ZM12.006 10.7069C12.0061 10.7069 12.0062 10.7069 12.0062 10.7069C12.0063 10.7069 12.0064 10.7069 12.0065 10.7069L11.994 8.70694C11.9939 8.70694 11.9938 8.70694 11.9938 8.70694C11.9937 8.70694 11.9936 8.70694 11.9935 8.70694L12.006 10.7069Z" fill="#009891"/>
<path d="M13.6541 18.375C12.2352 17.7228 11.25 16.289 11.25 14.625C11.25 12.3468 13.0968 10.5 15.375 10.5C17.039 10.5 18.4728 11.4852 19.125 12.9041C18 15.75 15 18 13.6541 18.375Z" fill="#C9EBE9"/>
<path d="M11.9998 9.70692L10.9998 9.69598C10.9969 9.96416 11.1018 10.2223 11.291 10.4124C11.4802 10.6024 11.7378 10.7086 12.006 10.7069L11.9998 9.70692ZM4.51518 10.0047L4.59466 11.0015C4.86076 10.9803 5.10733 10.8536 5.27947 10.6496C5.45162 10.4455 5.53504 10.1812 5.51117 9.91528L4.51518 10.0047ZM4.5 10.0059L4.4203 9.00909C3.90058 9.05065 3.5 9.48454 3.5 10.0059H4.5ZM12.3409 19.2105L11.8783 20.0971C12.1913 20.2604 12.5671 20.2466 12.8673 20.0608L12.3409 19.2105ZM19.5 10.0059H20.5C20.5 9.49416 20.1136 9.06499 19.6047 9.01141L19.5 10.0059ZM19.4849 10.0043L18.4889 9.915C18.4401 10.4592 18.8371 10.9419 19.3805 10.9989L19.4849 10.0043ZM12.0002 9.70692L12.0065 10.7069C12.2725 10.7052 12.5269 10.5977 12.7134 10.4079C12.8999 10.2182 13.0031 9.96199 13.0002 9.69598L12.0002 9.70692ZM12.9997 9.71787C12.9999 9.70027 13 9.68266 13 9.66504H11C11 9.67538 10.9999 9.68569 10.9998 9.69598L12.9997 9.71787ZM13 9.66504C13 7.04169 10.8734 4.91504 8.25 4.91504V6.91504C9.76878 6.91504 11 8.14626 11 9.66504H13ZM8.25 4.91504C5.62665 4.91504 3.5 7.04169 3.5 9.66504H5.5C5.5 8.14626 6.73122 6.91504 8.25 6.91504V4.91504ZM3.5 9.66504C3.5 9.80942 3.50647 9.95255 3.51918 10.0941L5.51117 9.91528C5.50379 9.8331 5.5 9.74964 5.5 9.66504H3.5ZM4.5797 11.0027C4.58467 11.0023 4.58966 11.0019 4.59466 11.0015L4.4357 9.00787C4.43055 9.00828 4.42542 9.00869 4.4203 9.00909L4.5797 11.0027ZM12.3409 19.2105C12.8035 18.3239 12.8037 18.324 12.8038 18.3241C12.8038 18.3241 12.804 18.3242 12.804 18.3242C12.8041 18.3242 12.804 18.3242 12.8038 18.3241C12.8035 18.3239 12.8027 18.3235 12.8014 18.3228C12.7988 18.3215 12.7944 18.3191 12.7883 18.3159C12.7759 18.3093 12.7565 18.2989 12.7304 18.2847C12.6782 18.2563 12.5995 18.2129 12.4981 18.1553C12.2952 18.04 12.0021 17.8681 11.6491 17.6455C10.9408 17.199 10.0015 16.5552 9.06714 15.7631C7.13014 14.1208 5.5 12.0809 5.5 10.0059H3.5C3.5 13.0446 5.79032 15.607 7.77377 17.2886C8.79964 18.1583 9.82052 18.857 10.5825 19.3373C10.9645 19.5781 11.284 19.7657 11.5099 19.8941C11.6229 19.9584 11.7127 20.0079 11.7753 20.0419C11.8067 20.059 11.8312 20.0721 11.8486 20.0813C11.8572 20.086 11.8641 20.0896 11.8691 20.0922C11.8716 20.0935 11.8736 20.0946 11.8751 20.0954C11.8759 20.0958 11.8766 20.0961 11.8771 20.0964C11.8774 20.0966 11.8777 20.0967 11.8778 20.0968C11.8781 20.0969 11.8783 20.0971 12.3409 19.2105ZM18.5 10.0059C18.5 10.9504 18.1438 11.9394 17.5306 12.9321C16.9196 13.9213 16.0889 14.8566 15.2308 15.6739C14.376 16.488 13.517 17.1633 12.8698 17.6358C12.5471 17.8715 12.2793 18.0551 12.0938 18.1787C12.0012 18.2405 11.9292 18.2872 11.8815 18.3178C11.8576 18.3331 11.8398 18.3443 11.8285 18.3515C11.8229 18.355 11.8188 18.3575 11.8165 18.359C11.8153 18.3597 11.8146 18.3602 11.8142 18.3604C11.8141 18.3605 11.814 18.3606 11.8141 18.3605C11.8141 18.3605 11.8142 18.3604 11.8142 18.3604C11.8144 18.3603 11.8146 18.3602 12.3409 19.2105C12.8673 20.0608 12.8675 20.0606 12.8677 20.0605C12.8679 20.0604 12.8681 20.0602 12.8684 20.0601C12.8689 20.0598 12.8695 20.0594 12.8702 20.0589C12.8716 20.0581 12.8734 20.0569 12.8757 20.0555C12.8802 20.0527 12.8865 20.0488 12.8944 20.0438C12.9101 20.0339 12.9325 20.0197 12.9611 20.0013C13.0183 19.9647 13.1001 19.9115 13.2032 19.8428C13.4093 19.7054 13.7008 19.5055 14.0492 19.2511C14.7444 18.7435 15.6751 18.0126 16.6101 17.1221C17.5418 16.2348 18.5008 15.1673 19.2322 13.9831C19.9613 12.8026 20.5 11.4478 20.5 10.0059H18.5ZM19.3805 10.9989C19.3855 10.9994 19.3904 10.9999 19.3953 11.0004L19.6047 9.01141C19.5995 9.01086 19.5943 9.01032 19.5892 9.00978L19.3805 10.9989ZM20.4809 10.0936C20.4935 9.95223 20.5 9.80926 20.5 9.66504H18.5C18.5 9.74954 18.4962 9.83291 18.4889 9.915L20.4809 10.0936ZM20.5 9.66504C20.5 7.04169 18.3734 4.91504 15.75 4.91504V6.91504C17.2688 6.91504 18.5 8.14626 18.5 9.66504H20.5ZM15.75 4.91504C13.1266 4.91504 11 7.04169 11 9.66504H13C13 8.14626 14.2312 6.91504 15.75 6.91504V4.91504ZM11 9.66504C11 9.68266 11.0001 9.70026 11.0003 9.71786L13.0002 9.69598C13.0001 9.68569 13 9.67538 13 9.66504H11ZM12.006 10.7069C12.0061 10.7069 12.0062 10.7069 12.0062 10.7069C12.0063 10.7069 12.0064 10.7069 12.0065 10.7069L11.994 8.70694C11.9939 8.70694 11.9938 8.70694 11.9938 8.70694C11.9937 8.70694 11.9936 8.70694 11.9935 8.70694L12.006 10.7069Z" fill="#009891"/>
</svg>
