<svg width="44" height="44" viewBox="0 0 44 44" fill="none" xmlns="http://www.w3.org/2000/svg">
<path d="M38.1347 13.5364C37.9725 14.392 37.1732 14.9357 36.3715 14.7836C35.5698 14.6316 35.025 13.8331 35.1872 12.9775C35.3494 12.122 36.1487 11.5783 36.9504 11.7303C37.7521 11.8823 38.2969 12.6809 38.1347 13.5364Z" stroke="#C9EBE9"/>
<circle cx="6.5" cy="20.5471" r="1" stroke="#C9EBE9"/>
<mask id="path-3-inside-1_914_12548" fill="white">
<ellipse cx="34.136" cy="19.2039" rx="0.967789" ry="0.993857" transform="rotate(10.7372 34.136 19.2039)"/>
</mask>
<ellipse cx="34.136" cy="19.2039" rx="0.967789" ry="0.993857" transform="rotate(10.7372 34.136 19.2039)" fill="#C9EBE9"/>
<path d="M34.1044 19.1979C34.1039 19.2005 34.1034 19.202 34.1031 19.2026C34.1028 19.2033 34.1027 19.2036 34.1026 19.2037C34.1024 19.204 34.1024 19.2037 34.1035 19.2029C34.1047 19.2021 34.1082 19.1999 34.115 19.1984C34.1226 19.1967 34.1308 19.1966 34.1372 19.1978L33.7646 21.1628C34.8568 21.3699 35.8689 20.6276 36.0694 19.5705L34.1044 19.1979ZM34.1372 19.1978C34.1436 19.1991 34.1512 19.2021 34.1576 19.2065C34.1634 19.2104 34.1659 19.2137 34.1666 19.2149C34.1674 19.216 34.1673 19.2163 34.1673 19.2159C34.1672 19.2158 34.1672 19.2155 34.1672 19.2147C34.1672 19.2141 34.1672 19.2125 34.1677 19.2099L32.2027 18.8373C32.0023 19.8944 32.6724 20.9557 33.7646 21.1628L34.1372 19.1978ZM34.1677 19.2099C34.1682 19.2072 34.1687 19.2058 34.169 19.2052C34.1692 19.2045 34.1694 19.2042 34.1695 19.2041C34.1697 19.2037 34.1697 19.2041 34.1685 19.2048C34.1674 19.2056 34.1639 19.2078 34.1571 19.2094C34.1495 19.2111 34.1413 19.2111 34.1349 19.2099L34.5075 17.2449C33.4153 17.0378 32.4032 17.7802 32.2027 18.8373L34.1677 19.2099ZM34.1349 19.2099C34.1285 19.2087 34.1209 19.2056 34.1145 19.2013C34.1087 19.1974 34.1062 19.194 34.1054 19.1929C34.1047 19.1917 34.1048 19.1914 34.1048 19.1918C34.1049 19.1919 34.1049 19.1923 34.1049 19.193C34.1049 19.1937 34.1049 19.1952 34.1044 19.1979L36.0694 19.5705C36.2698 18.5134 35.5997 17.452 34.5075 17.2449L34.1349 19.2099Z" fill="#C9EBE9" mask="url(#path-3-inside-1_914_12548)"/>
<mask id="path-5-inside-2_914_12548" fill="white">
<ellipse cx="31.5" cy="5.51347" rx="0.5" ry="0.513468"/>
</mask>
<ellipse cx="31.5" cy="5.51347" rx="0.5" ry="0.513468" fill="#C9EBE9"/>
<path d="M31 5.51347C31 5.26999 31.199 5.02694 31.5 5.02694V7.02694C32.3533 7.02694 33 6.32411 33 5.51347H31ZM31.5 5.02694C31.801 5.02694 32 5.26999 32 5.51347H30C30 6.32411 30.6467 7.02694 31.5 7.02694V5.02694ZM32 5.51347C32 5.75695 31.801 6 31.5 6V4C30.6467 4 30 4.70283 30 5.51347H32ZM31.5 6C31.199 6 31 5.75695 31 5.51347H33C33 4.70283 32.3533 4 31.5 4V6Z" fill="#C9EBE9" mask="url(#path-5-inside-2_914_12548)"/>
<circle cx="9.5" cy="8.54712" r="1" fill="#C9EBE9" stroke="#C9EBE9"/>
<path d="M33.847 28.193C33.847 31.1668 32.6006 33.5042 30.5833 35.1198C28.5458 36.7516 25.6738 37.6798 22.4239 37.6798C19.1741 37.6798 16.3019 36.7516 14.264 35.1198C12.2465 33.5041 11 31.1667 11 28.193C11 26.83 11.659 25.1335 12.7952 23.269C13.9153 21.4308 15.4238 19.5495 16.9556 17.8458C18.4838 16.1461 20.0151 14.6451 21.166 13.5679C21.6704 13.0959 22.1006 12.7062 22.4239 12.4182C22.7472 12.7062 23.1773 13.0958 23.6817 13.5679C24.8325 14.6451 26.3637 16.1461 27.8918 17.8458C29.4234 19.5495 30.9319 21.4308 32.0519 23.2689C33.188 25.1335 33.847 26.83 33.847 28.193Z" fill="#EFFFFE" stroke="#009891" stroke-width="2"/>
<mask id="mask0_914_12548" style="mask-type:alpha" maskUnits="userSpaceOnUse" x="10" y="11" width="25" height="28">
<path d="M33.847 28.1087C33.847 30.9879 32.6095 33.2567 30.5932 34.83C28.5553 36.4202 25.6797 37.3266 22.4239 37.3266C19.1682 37.3266 16.2923 36.4202 14.2541 34.83C12.2376 33.2566 11 30.9879 11 28.1087C11 26.795 11.6531 25.1507 12.7891 23.3341C13.9079 21.5452 15.4153 19.7133 16.9469 18.0535C18.4747 16.3978 20.0057 14.9356 21.1565 13.8861C21.6659 13.4216 22.0995 13.0391 22.4239 12.7576C22.7482 13.0391 23.1819 13.4216 23.6912 13.8861C24.8419 14.9356 26.3728 16.3978 27.9005 18.0535C29.4319 19.7133 30.9393 21.5451 32.058 23.3341C33.1939 25.1506 33.847 26.7949 33.847 28.1087Z" fill="#EFFFFE" stroke="#009891" stroke-width="2"/>
</mask>
<g mask="url(#mask0_914_12548)">
<ellipse cx="28.9216" cy="32.7419" rx="8.92164" ry="9.14468" fill="#C9EBE9"/>
</g>
<path d="M33.847 28.193C33.847 31.1668 32.6006 33.5042 30.5833 35.1198C28.5458 36.7516 25.6738 37.6798 22.4239 37.6798C19.1741 37.6798 16.3019 36.7516 14.264 35.1198C12.2465 33.5041 11 31.1667 11 28.193C11 26.83 11.659 25.1335 12.7952 23.269C13.9153 21.4308 15.4238 19.5495 16.9556 17.8458C18.4838 16.1461 20.0151 14.6451 21.166 13.5679C21.6704 13.0959 22.1006 12.7062 22.4239 12.4182C22.7472 12.7062 23.1773 13.0958 23.6817 13.5679C24.8325 14.6451 26.3637 16.1461 27.8918 17.8458C29.4234 19.5495 30.9319 21.4308 32.0519 23.2689C33.188 25.1335 33.847 26.83 33.847 28.193Z" stroke="#009891" stroke-width="2"/>
<path d="M16.7017 7.61054L18.9366 12.1921H25.9843L28.2192 7.61054C28.5433 6.94626 28.0596 6.17212 27.3205 6.17212H17.6004C16.8613 6.17212 16.3776 6.94626 16.7017 7.61054Z" fill="#EFFFFE" stroke="#009891" stroke-width="2" stroke-linecap="round"/>
<path d="M16.602 12.3962C15.7172 12.3962 15 13.1135 15 13.9982C15 14.883 15.7172 15.6002 16.602 15.6002H28.3189C29.2037 15.6002 29.9209 14.883 29.9209 13.9982C29.9209 13.1135 29.2037 12.3962 28.3189 12.3962H16.602Z" fill="#EFFFFE" stroke="#009891" stroke-width="2"/>
<path fill-rule="evenodd" clip-rule="evenodd" d="M21.6009 22.5734C21.6004 22.5618 21.6002 22.5502 21.6002 22.5385L21.5999 21.9217C21.5999 21.4127 22.0924 21 22.6999 21C23.3074 21 23.7999 21.4127 23.7999 21.9217L23.8002 22.5385C23.8002 22.5502 23.7999 22.5619 23.7994 22.5735C24.1882 22.6781 24.5622 22.8425 24.8919 23.074C25.5542 23.5392 25.9999 24.2547 25.9999 25.1622C25.9999 25.6422 25.5778 26.0314 25.057 26.0314C24.5363 26.0314 24.1142 25.6422 24.1142 25.1622C24.1142 24.8281 23.9706 24.6123 23.749 24.4567C23.5013 24.2827 23.1239 24.1689 22.6999 24.1689C22.2759 24.1689 21.8985 24.2827 21.6508 24.4567C21.4292 24.6123 21.2856 24.8281 21.2856 25.1622L21.2855 25.1687C21.2841 25.2044 21.2815 25.2765 21.5472 25.4164C21.8694 25.5862 22.3357 25.7144 22.9589 25.8786L23.016 25.8936L23.016 25.8936C23.5625 26.0373 24.2456 26.217 24.7882 26.5029C25.3892 26.8194 25.9999 27.3681 25.9999 28.2663C25.9999 29.1844 25.5407 29.886 24.8303 30.307C24.5121 30.4955 24.1601 30.6191 23.7999 30.6913V31.0785C23.7999 31.5876 23.3074 32.0002 22.6999 32.0002C22.0924 32.0002 21.5999 31.5876 21.5999 31.0785V30.5829C21.2224 30.4741 20.8613 30.3186 20.5436 30.1165C19.9402 29.7324 19.3999 29.1083 19.3999 28.2663C19.3999 27.7863 19.822 27.3972 20.3428 27.3972C20.8635 27.3972 21.2856 27.7863 21.2856 28.2663C21.2856 28.3555 21.3346 28.5075 21.6151 28.686C21.8974 28.8657 22.3184 28.9995 22.7671 29.029C23.2212 29.0589 23.5897 28.9757 23.8106 28.8447C23.9841 28.7419 24.1142 28.5898 24.1142 28.2663L24.1144 28.2598C24.1157 28.2242 24.1183 28.1521 23.8527 28.0121C23.5304 27.8424 23.0641 27.7141 22.4409 27.55L22.3838 27.535C21.8373 27.3912 21.1542 27.2115 20.6116 26.9257C20.0106 26.6091 19.3999 26.0604 19.3999 25.1622C19.3999 24.2547 19.8456 23.5392 20.508 23.074C20.8378 22.8424 21.2119 22.678 21.6009 22.5734Z" fill="#009891"/>
</svg>
