<svg width="24" height="24" viewBox="0 0 24 24" fill="none" xmlns="http://www.w3.org/2000/svg">
<path d="M17.6735 10.1092L17.8561 10.5403L18.3041 10.6761L19.9428 11.1728C20.3644 11.3006 20.6527 11.6893 20.6527 12.1298V13.9135C20.6527 14.4658 20.205 14.9135 19.6527 14.9135H3.7998C3.24752 14.9135 2.7998 14.4658 2.7998 13.9135V12.1979C2.7998 11.7413 3.10905 11.3427 3.5513 11.2292L6.26706 10.5325L6.68789 10.4245L6.89616 10.0432C7.00463 9.84466 7.11921 9.6252 7.23577 9.39547C8.15749 7.57882 9.94969 6.40042 11.916 6.40042H15.3774V6.40044L15.383 6.40041C15.7407 6.39839 16.1015 6.58523 16.3301 6.93902L17.6735 10.1092Z" fill="#EFFFFE" stroke="#009891" stroke-width="2"/>
<path d="M21.6 13.5C21.6 16.4423 20.2782 15.3 17.4 15.3C14.5218 15.3 13.2305 16.2 13.2305 14.4174C13.2305 12.6348 14.8218 10.5 17.7 10.5C20.5782 10.5 21.6 10.5577 21.6 13.5Z" fill="#C9EBE9"/>
<path d="M17.6735 10.1092L17.8561 10.5403L18.3041 10.6761L19.9428 11.1728C20.3644 11.3006 20.6527 11.6893 20.6527 12.1298V13.9135C20.6527 14.4658 20.205 14.9135 19.6527 14.9135H3.7998C3.24752 14.9135 2.7998 14.4658 2.7998 13.9135V12.1979C2.7998 11.7413 3.10905 11.3427 3.5513 11.2292L6.26706 10.5325L6.68789 10.4245L6.89616 10.0432C7.00463 9.84466 7.11921 9.6252 7.23577 9.39547C8.15749 7.57882 9.94969 6.40042 11.916 6.40042H15.3774V6.40044L15.383 6.40041C15.7407 6.39839 16.1015 6.58523 16.3301 6.93902L17.6735 10.1092Z" stroke="#009891" stroke-width="2"/>
<circle cx="7.5" cy="16.5" r="1.5" fill="#EFFFFE" stroke="#009891" stroke-width="2"/>
<circle cx="16.5" cy="16.5" r="1.5" fill="#EFFFFE" stroke="#009891" stroke-width="2"/>
</svg>
