<svg width="44" height="44" viewBox="0 0 44 44" fill="none" xmlns="http://www.w3.org/2000/svg">
<path d="M37.5 35.0539C37.5 35.9247 36.816 36.6077 36 36.6077C35.184 36.6077 34.5 35.9247 34.5 35.0539C34.5 34.1831 35.184 33.5 36 33.5C36.816 33.5 37.5 34.1831 37.5 35.0539Z" stroke="#C9EBE9"/>
<path d="M13.5161 36.8371C13.6133 37.4162 13.2346 37.9394 12.7022 38.0288C12.1699 38.1183 11.641 37.7476 11.5437 37.1685C11.4464 36.5894 11.8251 36.0662 12.3575 35.9768C12.8899 35.8873 13.4188 36.258 13.5161 36.8371Z" fill="#C9EBE9" stroke="#C9EBE9"/>
<circle cx="10" cy="8" r="1.5" stroke="#C9EBE9"/>
<path d="M7.6494 32.0955C7.69971 32.395 7.50366 32.6543 7.24361 32.698C6.98356 32.7417 6.71352 32.5606 6.66322 32.2612C6.61292 31.9618 6.80896 31.7024 7.06902 31.6587C7.32907 31.615 7.5991 31.7961 7.6494 32.0955Z" fill="#C9EBE9" stroke="#C9EBE9"/>
<path d="M37.5 12.1414C37.5 12.4451 37.2637 12.6684 37 12.6684C36.7363 12.6684 36.5 12.4451 36.5 12.1414C36.5 11.8378 36.7363 11.6145 37 11.6145C37.2637 11.6145 37.5 11.8378 37.5 12.1414Z" fill="#C9EBE9" stroke="#C9EBE9"/>
<path d="M35 21.4761C35 28.8594 29.1669 34.8024 22.0232 34.8024C14.8794 34.8024 9.04639 28.8594 9.04639 21.4761C9.04639 14.0928 14.8794 8.1499 22.0232 8.1499C29.1669 8.1499 35 14.0928 35 21.4761Z" fill="#EFFFFE" stroke="#009891" stroke-width="2"/>
<mask id="mask0_914_12510" style="mask-type:alpha" maskUnits="userSpaceOnUse" x="8" y="7" width="28" height="29">
<path d="M34.8947 21.4761C34.8947 28.8037 29.1064 34.6971 22.0232 34.6971C14.94 34.6971 9.15165 28.8037 9.15165 21.4761C9.15165 14.1485 14.94 8.25517 22.0232 8.25517C29.1064 8.25517 34.8947 14.1485 34.8947 21.4761Z" fill="#EFFFFE" stroke="#009891" stroke-width="2.21053"/>
</mask>
<g mask="url(#mask0_914_12510)">
<ellipse cx="28.6789" cy="29.6623" rx="8.65231" ry="8.86862" fill="#C9EBE9"/>
</g>
<path d="M35 21.4761C35 28.8594 29.1669 34.8024 22.0232 34.8024C14.8794 34.8024 9.04639 28.8594 9.04639 21.4761C9.04639 14.0928 14.8794 8.1499 22.0232 8.1499C29.1669 8.1499 35 14.0928 35 21.4761Z" stroke="#009891" stroke-width="2"/>
<path fill-rule="evenodd" clip-rule="evenodd" d="M24.4919 18.0741C25.1543 18.5393 25.6 19.2548 25.6 20.1623C25.6 20.6423 25.1779 21.0314 24.6571 21.0314C24.1364 21.0314 23.7143 20.6423 23.7143 20.1623C23.7143 19.8281 23.5707 19.6124 23.3491 19.4568C23.1014 19.2828 22.724 19.169 22.3 19.169C21.876 19.169 21.4986 19.2828 21.2509 19.4568C21.0293 19.6124 20.8857 19.8281 20.8857 20.1623C20.8857 20.1643 20.8856 20.1665 20.8855 20.1688C20.8842 20.2044 20.8816 20.2765 21.1473 20.4165C21.4695 20.5862 21.9358 20.7145 22.559 20.8786C22.5779 20.8836 22.5969 20.8886 22.6161 20.8936C23.1626 21.0374 23.8457 21.2171 24.3883 21.5029C24.9893 21.8195 25.6 22.3682 25.6 23.2664C25.6 24.1845 25.1408 24.886 24.4304 25.307C23.7674 25.6999 22.9573 25.8107 22.2328 25.763C21.5029 25.7149 20.7454 25.4995 20.1437 25.1165C19.5403 24.7325 19 24.1084 19 23.2664C19 22.7864 19.4221 22.3972 19.9429 22.3972C20.4636 22.3972 20.8857 22.7864 20.8857 23.2664C20.8857 23.3556 20.9347 23.5075 21.2152 23.6861C21.4975 23.8658 21.9185 23.9995 22.3672 24.0291C22.8213 24.059 23.1898 23.9757 23.4107 23.8448C23.5842 23.742 23.7143 23.5899 23.7143 23.2664C23.7143 23.2644 23.7144 23.2622 23.7145 23.2599C23.7158 23.2242 23.7184 23.1521 23.4527 23.0122C23.1305 22.8424 22.6642 22.7142 22.041 22.55C22.0221 22.5451 22.0031 22.5401 21.9839 22.535C21.4374 22.3913 20.7543 22.2116 20.2117 21.9257C19.6107 21.6092 19 21.0605 19 20.1623C19 19.2548 19.4457 18.5393 20.1081 18.0741C20.7442 17.6273 21.5454 17.4307 22.3 17.4307C23.0546 17.4307 23.8558 17.6273 24.4919 18.0741Z" fill="#009891"/>
<path fill-rule="evenodd" clip-rule="evenodd" d="M22.3002 27.0002C21.6927 27.0002 21.2002 26.5875 21.2002 26.0785V25.474C21.2002 24.9649 21.6927 24.5522 22.3002 24.5522C22.9077 24.5522 23.4002 24.9649 23.4002 25.474V26.0785C23.4002 26.5875 22.9077 27.0002 22.3002 27.0002Z" fill="#009891"/>
<path fill-rule="evenodd" clip-rule="evenodd" d="M22.3005 18.4602C21.693 18.4602 21.2005 18.0475 21.2005 17.5385L21.2002 16.9217C21.2002 16.4126 21.6927 16 22.3002 16C22.9077 16 23.4002 16.4126 23.4002 16.9217L23.4005 17.5385C23.4005 18.0475 22.908 18.4602 22.3005 18.4602Z" fill="#009891"/>
</svg>
