<svg width="80" height="80" viewBox="0 0 80 80" fill="none" xmlns="http://www.w3.org/2000/svg">
<mask id="mask0_8_4076" style="mask-type:alpha" maskUnits="userSpaceOnUse" x="0" y="0" width="80" height="80">
<circle cx="40" cy="40" r="40" fill="#C4C4C4"/>
</mask>
<g mask="url(#mask0_8_4076)">
<circle cx="40" cy="40" r="40" fill="#C082E8"/>
<mask id="mask1_8_4076" style="mask-type:alpha" maskUnits="userSpaceOnUse" x="7" y="19" width="66" height="67">
<path d="M60.5002 19.6153H19.5002C12.7071 19.6153 7.2002 25.1222 7.2002 31.9153V72.9153C7.2002 79.7084 12.7071 85.2153 19.5002 85.2153H60.5002C67.2933 85.2153 72.8002 79.7084 72.8002 72.9153V31.9153C72.8002 25.1222 67.2933 19.6153 60.5002 19.6153Z" fill="white"/>
</mask>
<g mask="url(#mask1_8_4076)">
<path d="M60.5002 19.6153H19.5002C12.7071 19.6153 7.2002 25.1222 7.2002 31.9153V72.9153C7.2002 79.7084 12.7071 85.2153 19.5002 85.2153H60.5002C67.2933 85.2153 72.8002 79.7084 72.8002 72.9153V31.9153C72.8002 25.1222 67.2933 19.6153 60.5002 19.6153Z" fill="#C082E8"/>
</g>
<path d="M49.8404 48.6433H29.5044V67.0113H49.8404V48.6433Z" fill="#FFB7A2"/>
<path fill-rule="evenodd" clip-rule="evenodd" d="M25.5684 33.5552C23.7569 33.5552 22.2884 35.0237 22.2884 36.8352V40.1152C22.2884 41.9267 23.7569 43.3952 25.5684 43.3952V33.5552Z" fill="#FFD8CD"/>
<path fill-rule="evenodd" clip-rule="evenodd" d="M54.4326 33.5552C56.2441 33.5552 57.7126 35.0237 57.7126 36.8352V40.1152C57.7126 41.9267 56.2441 43.3952 54.4326 43.3952V33.5552Z" fill="#FFB7A2"/>
<mask id="mask2_8_4076" style="mask-type:alpha" maskUnits="userSpaceOnUse" x="24" y="21" width="32" height="36">
<path d="M24.9126 25.6677C25.8049 23.1969 30.8022 21.8933 39.9045 21.7569C49.0068 21.6205 54.0682 22.9241 55.0886 25.6677L54.553 42.4206C54.3019 50.2766 47.8607 56.5152 40.0006 56.5152C32.1405 56.5152 25.6993 50.2766 25.4482 42.4206L24.9126 25.6677Z" fill="white"/>
</mask>
<g mask="url(#mask2_8_4076)">
<path d="M24.9126 25.6677C25.8049 23.1969 30.8022 21.8933 39.9045 21.7569C49.0068 21.6205 54.0682 22.9241 55.0886 25.6677L54.553 42.4206C54.3019 50.2766 47.8607 56.5152 40.0006 56.5152C32.1405 56.5152 25.6993 50.2766 25.4482 42.4206L24.9126 25.6677Z" fill="#FFD8CD"/>
<path fill-rule="evenodd" clip-rule="evenodd" d="M55.0883 20.4351V56.5151H40.0003L39.9997 46.6744L36.5005 45.0085C36.4859 45.0015 36.4715 44.9943 36.4572 44.9867L36.415 44.9631C35.8828 44.6505 35.7048 43.9658 36.0174 43.4336C36.522 42.5744 37.0844 41.6504 37.7043 40.6617C38.5864 39.2551 39.3517 37.9795 40.0003 36.8351L39.9997 36.8357L40.0003 20.4351H55.0883Z" fill="#FFB7A2"/>
</g>
<mask id="mask3_8_4076" style="mask-type:alpha" maskUnits="userSpaceOnUse" x="22" y="6" width="36" height="32">
<path d="M25.5699 37.1256L26.368 27.2016C29.9232 25.5098 34.6248 24.6639 40.4728 24.6639C46.3207 24.6639 50.8221 25.5098 53.9768 27.2016L54.7245 37.4914C56.7129 29.0186 57.7088 24.7428 57.7123 24.6639C57.7123 22.8657 57.0444 21.0529 55.2915 17.7217C54.1229 15.5009 51.4354 12.1756 47.229 7.7459L46.7459 8.92222L44.9721 6.65938L39.2371 9.49546V8.12328C32.0528 12.0362 27.471 15.2357 25.4916 17.7217C23.5121 20.2077 22.6863 22.5217 23.0142 24.6639L25.5699 37.1256Z" fill="white"/>
</mask>
<g mask="url(#mask3_8_4076)">
<path d="M25.5699 37.1256L26.368 27.2016C29.9232 25.5098 34.6248 24.6639 40.4728 24.6639C46.3207 24.6639 50.8221 25.5098 53.9768 27.2016L54.7245 37.4914C56.7129 29.0186 57.7088 24.7428 57.7123 24.6639C57.7123 22.8657 57.0444 21.0529 55.2915 17.7217C54.1229 15.5009 51.4354 12.1756 47.229 7.7459L46.7459 8.92222L44.9721 6.65938L39.2371 9.49546V8.12328C32.0528 12.0362 27.471 15.2357 25.4916 17.7217C23.5121 20.2077 22.6863 22.5217 23.0142 24.6639L25.5699 37.1256Z" fill="#324148"/>
</g>
<path d="M40 50.6113C42.9182 50.526 45.3236 49.214 47.216 46.6753" stroke="#FF625E" stroke-width="1.91363"/>
<mask id="mask4_8_4076" style="mask-type:alpha" maskUnits="userSpaceOnUse" x="43" y="34" width="7" height="5">
<path d="M46.6767 38.9699C48.6149 38.9699 49.9555 37.2195 49.9555 36.6738C49.9555 36.1255 48.6125 34.3779 46.6767 34.3779C44.753 34.3779 43.3955 36.1255 43.3955 36.6738C43.3955 37.2195 44.7627 38.9699 46.6767 38.9699Z" fill="white"/>
</mask>
<g mask="url(#mask4_8_4076)">
<path d="M46.7973 38.9647C48.7329 38.8633 49.98 37.0451 49.9514 36.5002C49.9227 35.9527 48.4901 34.2777 46.5569 34.379C44.6359 34.4797 43.3717 36.296 43.4004 36.8435C43.429 37.3884 44.8859 39.0649 46.7973 38.9647Z" fill="white"/>
<path d="M46.5598 38.1474C47.6467 38.1474 48.5278 37.1194 48.5278 35.8514C48.5278 34.5833 47.6467 33.5554 46.5598 33.5554C45.4729 33.5554 44.5918 34.5833 44.5918 35.8514C44.5918 37.1194 45.4729 38.1474 46.5598 38.1474Z" fill="#324148"/>
</g>
<mask id="mask5_8_4076" style="mask-type:alpha" maskUnits="userSpaceOnUse" x="30" y="34" width="7" height="5">
<path d="M33.5566 38.9699C35.4948 38.9699 36.8354 37.2195 36.8354 36.6738C36.8354 36.1255 35.4923 34.3779 33.5566 34.3779C31.6328 34.3779 30.2754 36.1255 30.2754 36.6738C30.2754 37.2195 31.6426 38.9699 33.5566 38.9699Z" fill="white"/>
</mask>
<g mask="url(#mask5_8_4076)">
<path d="M33.4358 38.9687C35.3714 39.0701 36.8017 37.3923 36.8303 36.8474C36.859 36.2998 35.6092 34.4843 33.6761 34.383C31.755 34.2823 30.3079 35.9565 30.2793 36.504C30.2507 37.049 31.5244 38.8685 33.4358 38.9687Z" fill="white"/>
<path d="M33.4402 38.1473C34.5271 38.1473 35.4082 37.1194 35.4082 35.8513C35.4082 34.5833 34.5271 33.5553 33.4402 33.5553C32.3533 33.5553 31.4722 34.5833 31.4722 35.8513C31.4722 37.1194 32.3533 38.1473 33.4402 38.1473Z" fill="#324148"/>
</g>
<mask id="mask6_8_4076" style="mask-type:alpha" maskUnits="userSpaceOnUse" x="7" y="22" width="66" height="66">
<path d="M59.48 22H20.12C12.874 22 7 27.874 7 35.12V74.48C7 81.726 12.874 87.6 20.12 87.6H59.48C66.726 87.6 72.6 81.726 72.6 74.48V35.12C72.6 27.874 66.726 22 59.48 22Z" fill="white"/>
</mask>
<g mask="url(#mask6_8_4076)">
<mask id="mask7_8_4076" style="mask-type:alpha" maskUnits="userSpaceOnUse" x="-7" y="59" width="86" height="101">
<path d="M28.8155 59.7954C30.8723 63.8209 34.4612 65.8337 39.5821 65.8337C44.703 65.8337 48.2919 63.8209 50.3487 59.7954L71.2799 64.2526C75.6092 65.1746 78.7043 68.9982 78.7043 73.4246V76.866V159.289H-6.57568L-1.64171 72.7776C-1.40845 68.6875 1.55684 65.2707 5.5733 64.464L28.8155 59.7954Z" fill="white"/>
</mask>
<g mask="url(#mask7_8_4076)">
<path d="M28.8155 59.7954C30.8723 63.8209 34.4612 65.8337 39.5821 65.8337C44.703 65.8337 48.2919 63.8209 50.3487 59.7954L71.2799 64.2526C75.6092 65.1746 78.7043 68.9982 78.7043 73.4246V76.866V159.289H-6.57568L-1.64171 72.7776C-1.40845 68.6875 1.55684 65.2707 5.5733 64.464L28.8155 59.7954Z" fill="white"/>
</g>
</g>
</g>
</svg>
