<svg width="102" height="54" viewBox="0 0 102 54" fill="none" xmlns="http://www.w3.org/2000/svg">
<g clip-path="url(#clip0_8_4306)">
<path d="M56.7397 32.1411C76.1429 38.2961 87.6586 34.4869 88.9075 40.9373C90.231 47.6653 75.2588 44.2482 75.2588 44.2482C75.2588 44.2482 81.5094 46.3185 80.6405 49.1712C79.3238 53.5134 72.8611 50.4285 68.5142 48.6799C68.5142 48.6799 72.8963 49.8834 72.506 52.4884C71.9206 56.3959 57.5943 53.579 54.5824 44.6261C52.6055 38.8476 50.9026 30.2573 56.7397 32.1411Z" fill="#989899"/>
<path d="M33.1066 11.7428C48.1929 11.5554 60.3276 22.8936 60.2808 37.1834C60.2339 53.3005 50.8167 65.2009 46.4126 68.3869C41.4463 72.0413 40.4624 67.6372 37.8855 67.7309C35.3555 67.8715 34.7933 68.7617 30.9983 70.6358C29.5927 71.3385 27.1564 71.3854 25.0481 70.4952C14.8812 66.3722 7.61913 54.7061 7.47857 38.6827C7.29116 23.3621 18.8168 11.8834 33.1066 11.7428Z" fill="#E7E4E2"/>
<path d="M52.5499 51.6608C53.5338 51.286 54.1897 50.4426 54.4708 49.4119C54.8456 50.8643 54.1429 52.4104 52.8779 52.8789C51.6129 53.3474 50.2541 52.5978 49.7388 51.1923C50.5821 51.8013 51.6128 51.9887 52.5499 51.6608Z" fill="#989899"/>
<path d="M45.2881 53.8159C46.4594 53.3942 47.3496 52.4572 47.7245 51.3327C48.0993 52.9257 47.2091 54.5655 45.663 55.1277C44.1168 55.6431 42.477 54.8466 41.9617 53.3005C42.8519 53.9564 44.1168 54.1907 45.2881 53.8159Z" fill="#989899"/>
<path d="M28.5151 54.0969C27.4843 53.7221 26.8284 52.8788 26.5941 51.8012C26.0319 53.2536 26.641 54.7997 27.9997 55.2682C29.3584 55.7368 30.9045 54.9871 31.5605 53.5815C30.6703 54.2375 29.5458 54.4718 28.5151 54.0969Z" fill="#989899"/>
<path d="M36.7607 55.3152C35.4489 55.2215 34.3244 54.5187 33.7153 53.4411C33.6216 55.1747 34.8866 56.6271 36.6202 56.7208C38.3537 56.8145 39.8529 55.5495 40.1341 53.8628C39.3376 54.8467 38.0726 55.4089 36.7607 55.3152Z" fill="#989899"/>
<path d="M29.3112 13.7574C29.3112 13.7574 26.5469 11.8833 23.3141 11.9302C20.5499 11.977 21.0653 9.86869 23.7827 10.5246C25.9847 11.0868 29.3112 13.7574 29.3112 13.7574Z" fill="#989899"/>
<path d="M30.9512 13.1952C30.9512 13.1952 30.6232 10.1967 32.1225 8.04149C33.2001 6.49538 32.0287 5.55834 31.2791 5.6989C29.9204 5.8863 29.3582 8.08835 30.9512 13.1952Z" fill="#989899"/>
<path d="M32.3098 13.1483C32.3098 13.1483 35.0741 7.19808 37.9789 7.71345C40.0404 8.08827 34.6993 10.5246 32.3098 13.1483Z" fill="#989899"/>
<path d="M58.1722 30.1558C57.7505 22.8469 52.3625 17.1778 46.0375 17.5058C43.6481 17.6463 41.4929 18.5834 39.7594 20.1295C38.2601 21.4413 36.1517 21.6756 34.2777 20.9728C32.591 20.3169 30.7638 19.9421 28.796 19.8952C20.1752 19.661 13.1943 26.0797 13.1006 34.1851C13.0069 42.2905 19.8004 48.8029 28.3743 48.7092C32.3568 48.6623 35.9175 47.2568 38.6349 44.961C40.0873 43.7429 41.9614 43.2744 43.7418 43.8366C45.0068 44.2582 46.3186 44.3988 47.6773 44.3051C53.9555 43.7429 58.5938 37.4647 58.1722 30.1558Z" fill="white"/>
<path d="M27.7652 37.6521C30.1716 37.6521 32.1224 35.7013 32.1224 33.2949C32.1224 30.8885 30.1716 28.9377 27.7652 28.9377C25.3588 28.9377 23.408 30.8885 23.408 33.2949C23.408 35.7013 25.3588 37.6521 27.7652 37.6521Z" fill="#231F20"/>
<path d="M29.0767 33.0137C29.8788 33.0137 30.5291 32.3634 30.5291 31.5613C30.5291 30.7591 29.8788 30.1089 29.0767 30.1089C28.2746 30.1089 27.6243 30.7591 27.6243 31.5613C27.6243 32.3634 28.2746 33.0137 29.0767 33.0137Z" fill="white"/>
<path d="M41.6338 36.1526C41.6338 36.1526 41.7275 37.605 42.3366 38.5421C42.3366 38.5421 39.666 38.0267 38.6353 34.3254L41.6338 36.1526Z" fill="#EC8822"/>
<path d="M42.0555 33.3416C42.0555 33.3416 41.5401 35.3562 41.7744 37.0429C41.8212 37.4646 41.1653 37.5114 40.8373 37.2772C39.666 36.387 38.1667 34.9814 38.5416 33.0136L42.0555 33.3416Z" fill="#D32E2E"/>
<path d="M42.805 30.9522C42.805 30.9522 43.8357 31.1396 44.8665 33.7164C44.8665 33.7164 42.5239 33.2011 38.4946 32.9668C38.4946 33.0136 40.3687 30.3431 42.805 30.9522Z" fill="#EC8822"/>
<path d="M53.6279 26.7354C53.6279 26.7354 51.8944 24.6739 49.7392 25.0956C47.6309 25.5641 45.8037 28.6095 45.71 30.2025C45.71 30.2025 48.1462 24.6271 53.6279 26.7354Z" fill="#231F20"/>
<path d="M9.0245 44.6798C9.0245 44.6798 14.2251 43.5553 16.5677 50.0677C18.8166 56.2991 14.5999 59.5318 18.676 66.9345C18.676 66.9345 10.3832 64.6387 7.38468 58.9228C3.87078 52.3167 5.37005 46.3196 9.0245 44.6798Z" fill="#989899"/>
<path fill-rule="evenodd" clip-rule="evenodd" d="M91.5731 43.4368L100.18 51.8417C101.159 52.7974 101.18 54.3645 100.228 55.3465L99.168 56.4396C98.2134 57.424 96.6415 57.4482 95.6571 56.4936C95.6506 56.4873 95.6441 56.4809 95.6376 56.4746L91.0399 51.9173C89.1273 50.0216 88.124 47.3938 88.2864 44.7058C88.3509 43.638 89.2688 42.8247 90.3366 42.8892C90.8012 42.9173 91.2401 43.1117 91.5731 43.4368Z" fill="#FF625E"/>
<path fill-rule="evenodd" clip-rule="evenodd" d="M66.6581 45.9065L55.8347 38.6637C54.6951 37.901 53.153 38.2067 52.3904 39.3463C52.3876 39.3505 52.3848 39.3547 52.382 39.359L51.0807 41.3296C50.3251 42.4739 50.6401 44.014 51.7844 44.7697C51.7856 44.7704 51.7867 44.7712 51.7879 44.772L57.7074 48.6666C60.1782 50.2922 63.2448 50.7327 66.0733 49.8681C67.2439 49.5103 67.9028 48.2713 67.545 47.1007C67.3958 46.6123 67.0825 46.1905 66.6581 45.9065Z" fill="#FF625E"/>
<path d="M75.3186 62.9219C66.2508 62.3013 59.401 54.4774 60.0191 45.4468C60.6372 36.4163 68.4892 29.5987 77.557 30.2194C86.6247 30.8401 93.4745 38.6639 92.8564 47.6945C92.2383 56.725 84.3863 63.5426 75.3186 62.9219Z" fill="#FF625E"/>
<path fill-rule="evenodd" clip-rule="evenodd" d="M72.5491 42.5036C72.0019 42.4661 71.5279 42.8794 71.4905 43.4266L71.1508 48.3886C71.1134 48.9358 71.5266 49.4098 72.0738 49.4473L77.7392 49.835C78.2864 49.8725 78.7604 49.4592 78.7979 48.912L79.1375 43.95C79.175 43.4028 78.7617 42.9288 78.2145 42.8913L72.5491 42.5036ZM72.9487 45.2314L77.447 45.5393L77.3396 47.1072L72.8414 46.7993L72.9487 45.2314Z" fill="#009944"/>
<path fill-rule="evenodd" clip-rule="evenodd" d="M82.3053 41.3439C83.2379 40.6132 84.463 40.7763 85.0431 41.4842L85.5567 42.111L86.8102 41.0838L86.2966 40.457C85.0867 38.9805 82.84 38.8661 81.3057 40.0683L80.6679 40.5681L81.6675 41.8437L82.3053 41.3439Z" fill="#324148"/>
<path fill-rule="evenodd" clip-rule="evenodd" d="M66.4463 41.0858C67.366 40.3388 68.5937 40.4805 69.1861 41.1783L69.7106 41.796L70.9459 40.747L70.4215 40.1293C69.1859 38.6741 66.9376 38.599 65.4246 39.8278L64.7956 40.3386L65.8173 41.5966L66.4463 41.0858Z" fill="#324148"/>
<path d="M20.3951 5.24158L20.1107 5.36919C19.6557 5.57336 19.1375 5.33198 18.9332 4.87678L17.9528 2.69183C17.7349 2.20629 17.9412 1.67625 18.3678 1.48484L18.6522 1.35723C19.1072 1.15306 19.6255 1.39444 19.8297 1.84964L20.8101 4.03459C21.0144 4.48979 20.8501 5.03741 20.3951 5.24158Z" fill="#FFCB29"/>
<path d="M51.0712 15.7578C38.6554 15.7578 3.98642 27.9979 3.71704 38.0124C0.939783 22.0828 3.9847 9.43332 19.6803 3.81088C27.1511 1.1347 41.2322 -2.04563 51.0712 15.7578Z" fill="#FFCB29"/>
<path d="M50.8365 15.0553C34.6725 11.7759 11.7151 21.6147 3.28171 33.3278C2.65701 34.3429 0.98596 37.3569 0.236328 42.2295C15.9786 21.9894 46.3855 16.6953 59.7383 20.2092C59.1917 19.6626 55.0874 15.9178 50.8365 15.0553Z" fill="#FFD658"/>
<path d="M7.73265 42.6983C5.62431 43.4011 1.17337 44.2444 0.236328 41.9955C0.236328 40.6836 5.23387 36.4513 7.73265 34.4992V42.6983Z" fill="#F9A80C"/>
<path d="M56.9274 23.9573C57.9425 23.4888 59.8322 22.0832 59.27 20.2091C58.0987 19.8968 55.0533 19.2252 52.2422 19.0378C53.1792 19.4127 55.7561 22.4737 56.9274 23.9573Z" fill="#F9A80C"/>
<path d="M12.6526 24.6602C11.4813 21.4586 14.765 8.02773 19.6843 3.34253C24.1349 3.34253 35.3794 4.04531 42.1729 14.3527C29.7535 15.524 19.6843 19.975 12.6526 24.6602Z" fill="#F5BE23"/>
</g>
<defs>
<clipPath id="clip0_8_4306">
<rect width="102" height="54.0723" fill="white" transform="matrix(-1 0 0 1 102 0)"/>
</clipPath>
</defs>
</svg>
