<svg width="170" height="90" viewBox="0 0 170 90" fill="none" xmlns="http://www.w3.org/2000/svg">
<mask id="mask0_13325_79176" style="mask-type:alpha" maskUnits="userSpaceOnUse" x="0" y="0" width="170" height="90">
<path d="M0 0H170V90H0V0Z" fill="#FFF8F0"/>
</mask>
<g mask="url(#mask0_13325_79176)">
<path d="M29.5 47.4999C33.0202 24.6416 3.8004 -0.701219 -5 4.57378V89.6555L92 92C91.2177 89.6555 74.0107 82.1176 77 72C83.5 50 55.5 26.9999 29.5 47.4999Z" fill="url(#paint0_linear_13325_79176)"/>
<path d="M101.788 78.4422C98.8886 71.7645 105.442 52.6599 137.11 57.0494C134.233 54.9971 145.387 24.2643 165.215 21.6444L173.5 91.4855L110.573 91.4855C110.972 89.4154 104.108 83.7844 101.788 78.4422Z" fill="url(#paint1_linear_13325_79176)"/>
<path d="M129 89.8356L171.5 41.9124V89.8356C161.906 95.156 129 89.8356 129 89.8356Z" fill="url(#paint2_linear_13325_79176)"/>
<path d="M135.404 68.8767L171.5 25.9513L171.5 68.8767C158.708 71.7303 135.404 68.8767 135.404 68.8767Z" fill="url(#paint3_linear_13325_79176)"/>
<path d="M146.466 47.9178L171.5 6V47.9178C166.17 50.4557 146.466 47.9178 146.466 47.9178Z" fill="url(#paint4_linear_13325_79176)"/>
<path d="M171.5 46.7534C171.034 48.6164 158.109 48.6941 151.705 48.5C154.965 53.1575 165.678 54.9041 171.5 55.4863V46.7534Z" fill="#095762"/>
<path d="M171.5 68.2946C168.007 70.0411 152.87 69.653 146.466 69.4589C155.199 74.1165 165.678 78.1918 171.5 78.774V68.2946Z" fill="#095762"/>
<g opacity="0.7">
<path d="M32.0908 95.1922L-3.99968 54.4963V95.1922C4.14732 99.7102 32.0908 95.1922 32.0908 95.1922Z" fill="url(#paint5_linear_13325_79176)"/>
<path d="M26.6523 77.3941L-3.99988 40.9424L-3.99989 77.3941C6.86278 79.8173 26.6523 77.3941 26.6523 77.3941Z" fill="url(#paint6_linear_13325_79176)"/>
<path d="M17.2588 59.5961L-4.00002 24V59.5961C0.526094 61.7513 17.2588 59.5961 17.2588 59.5961Z" fill="url(#paint7_linear_13325_79176)"/>
<path d="M-3.9997 58.6073C-3.60419 60.1893 7.37128 60.2553 12.8096 60.0905C10.041 64.0456 0.944201 65.5288 -3.9997 66.0232V58.6073Z" fill="#095762"/>
<path d="M-4 76.8998C-1.03366 78.383 11.8205 78.0534 17.2588 77.8886C9.84293 81.8437 0.943907 85.3044 -4 85.7988V76.8998Z" fill="#095762"/>
</g>
<path d="M122.603 64.7367V121" stroke="#443F3C" stroke-width="2.67126" stroke-linecap="round"/>
<path d="M66.3392 57.3907C65.0036 51.7143 66.6732 39.3597 75.0208 32.3477C81.0441 27.2882 90.0466 27.1721 96.2239 32.3477C102.401 37.5232 102.568 58.0585 101.233 63.2341C96.7313 80.6765 82.9911 66.3239 72.8504 73.0843C65.3375 78.093 64.8367 71.5818 55.3203 69.0775C60.6628 66.7401 68.4213 66.2393 66.3392 57.3907Z" fill="#5A4332"/>
<path d="M99.602 41.697C101.772 45.7039 102.568 54.0516 102.568 59.0602C102.568 64.0688 98.0605 62.7332 98.0605 62.7332" stroke="#443F3C" stroke-width="0.166954" stroke-linecap="round"/>
<path d="M98.8448 40.4926C101.39 44.2723 102.428 51.4762 103.403 56.389C104.803 63.4401 98.2278 62.3993 98.2278 62.3993" stroke="#443F3C" stroke-width="0.166954" stroke-linecap="round"/>
<path d="M56.4895 89.6127C54.6529 87.4423 62.4428 74.086 71.2913 63.401L75.2982 74.253L66.8989 85.7373C66.682 86.034 66.7455 86.4501 67.041 86.6686L78.0263 94.7883V103.303C73.5742 102.969 60.1625 93.9535 56.4895 89.6127Z" fill="#F1AB66"/>
<path d="M111.918 82.6007C110.415 82.7677 103.069 68.9105 99.0625 66.2393V80.4303C100.621 84.1033 105.173 91.8833 110.916 93.6196C116.659 95.3559 120.488 81.3764 122.269 73.4183L119.431 69.0775C117.761 72.973 113.12 82.4671 111.918 82.6007Z" fill="#F1AB66"/>
<rect x="68.8438" y="59.0603" width="34.0585" height="9.01549" rx="2.00344" fill="#EB787B"/>
<path d="M102.902 63.401V66.0723C102.902 67.1787 102.005 68.0757 100.899 68.0757H70.8472C69.7408 68.0757 69.0107 67.8466 69.0107 66.7401C75.2776 66.7401 91.1158 66.7401 98.2065 66.7401C100.318 66.7401 102.118 65.3613 102.902 63.401Z" fill="#BE4043"/>
<path fill-rule="evenodd" clip-rule="evenodd" d="M77.9343 63.2227C77.9933 61.5092 78.1897 59.9679 78.3599 59.0603H79.0277C78.8639 59.9335 78.6596 61.5643 78.6018 63.2456C78.5436 64.9339 78.6431 66.7939 79.0277 68.0758H78.3599C77.943 66.6864 77.8756 64.9291 77.9343 63.2227Z" fill="#3F3C3D"/>
<path fill-rule="evenodd" clip-rule="evenodd" d="M91.9021 63.2227C91.9611 61.5092 92.1574 59.9679 92.3276 59.0603H92.9954C92.8317 59.9335 92.6274 61.5643 92.5695 63.2456C92.5114 64.9339 92.6109 66.7939 92.9955 68.0758H92.3276C91.9108 66.6864 91.8434 64.9291 91.9021 63.2227Z" fill="#3F3C3D"/>
<path d="M69.8447 71.0808C69.8447 69.4211 71.1902 68.0757 72.8499 68.0757H99.2285C100.888 68.0757 102.234 69.4211 102.234 71.0808L101.232 101.8C101.232 103.46 99.8865 104.805 98.2268 104.805H73.8516C72.1919 104.805 70.8464 103.46 70.8464 101.8L69.8447 71.0808Z" fill="#44ABB6"/>
<g filter="url(#filter0_d_13325_79176)">
<path d="M69.8447 71.0928C69.8447 69.4265 71.1902 68.0757 72.8499 68.0757H99.2285C100.888 68.0757 102.234 69.4265 102.234 71.0928L101.9 79.8089C101.9 85.5347 70.1786 85.5347 70.1786 79.8089L69.8447 71.0928Z" fill="#056977"/>
</g>
<path d="M75.1875 73.6347C75.1875 73.3308 75.4339 73.0844 75.7379 73.0844H77.9762C78.2801 73.0844 78.5266 73.3308 78.5266 73.6347V91.4492C78.5266 92.3713 77.7791 93.1188 76.857 93.1188C75.935 93.1188 75.1875 92.3713 75.1875 91.4492V73.6347Z" fill="#0F474D"/>
<path d="M75.1874 82.2668V82.2668C74.9108 82.2668 74.6865 82.0425 74.6865 81.7659V81.3485C74.6865 80.8414 75.0976 80.4303 75.6048 80.4303H78.1091C78.6162 80.4303 79.0273 80.8414 79.0273 81.3485V81.7659C79.0273 82.0425 78.8031 82.2668 78.5265 82.2668V82.2668" stroke="#EDEAEB" stroke-width="1.00172"/>
<rect x="76.5234" y="80.4303" width="0.667814" height="1.33563" rx="0.333907" fill="#EDEAEB"/>
<path d="M93.3857 73.6347C93.3857 73.3308 93.6322 73.0844 93.9361 73.0844H96.1744C96.4784 73.0844 96.7248 73.3308 96.7248 73.6347V91.4492C96.7248 92.3713 95.9773 93.1188 95.0553 93.1188C94.1332 93.1188 93.3857 92.3713 93.3857 91.4492V73.6347Z" fill="#0F474D"/>
<path d="M93.3856 82.2668V82.2668C93.109 82.2668 92.8848 82.0425 92.8848 81.7659V81.3485C92.8848 80.8414 93.2959 80.4303 93.803 80.4303H96.3073C96.8144 80.4303 97.2256 80.8414 97.2256 81.3485V81.7659C97.2256 82.0425 97.0013 82.2668 96.7247 82.2668V82.2668" stroke="#EDEAEB" stroke-width="1.00172"/>
<rect x="94.7217" y="80.4303" width="0.667814" height="1.33563" rx="0.333907" fill="#EDEAEB"/>
<path d="M101.232 91.2823L101.399 87.2754H102.234C103.894 87.2754 105.239 88.6208 105.239 90.2806C105.239 90.8338 104.791 91.2823 104.238 91.2823H101.232Z" fill="#056977"/>
<path d="M71.1807 91.2823L71.0137 87.2754H70.1789C68.5192 87.2754 67.1738 88.6208 67.1738 90.2806C67.1738 90.8338 67.6223 91.2823 68.1755 91.2823H71.1807Z" fill="#056977"/>
<circle cx="86.3736" cy="80.5972" r="1.83649" fill="#EB787B"/>
<path d="M124.439 66.7401C123.568 66.2559 120.923 67.2221 119.431 69.2444L122.436 73.7521C122.817 73.2019 125.942 73.0843 125.942 70.7658C125.942 69.2188 125.942 67.5749 124.439 66.7401Z" fill="#FFE6CE"/>
<path d="M72.0154 37.3563C69.0103 39.6937 64.7379 46.9794 65.0034 53.2169C65.3373 61.0637 67.1738 65.5715 58.4922 66.7401" stroke="#443F3C" stroke-width="0.166954" stroke-linecap="round"/>
<path d="M102.902 41.6971C102.902 51.4709 98.5612 61.7315 85.3719 61.7315C73.3513 61.7315 67.8418 51.4709 67.8418 41.6971C67.8418 31.9233 73.0174 24 85.3719 24C97.7265 24 102.902 31.9233 102.902 41.6971Z" fill="#FFE49E"/>
<path d="M96.5579 39.0318C96.5579 44.5674 94.1188 50.3787 86.7077 50.3787C79.9532 50.3787 76.8574 44.5674 76.8574 39.0318C76.8574 33.4962 79.7656 29.0087 86.7077 29.0087C93.6498 29.0087 96.5579 33.4962 96.5579 39.0318Z" fill="#EBCD81"/>
<path d="M86.7077 50.3787C79.9532 50.3787 76.8574 44.5674 76.8574 39.0317C80.3634 44.0344 84.5373 48.3752 92.982 48.3752C92.086 49.1534 90.1214 49.8432 86.7077 50.3787Z" fill="#D7B96E"/>
<path d="M86.6399 52.716C77.2905 52.0482 74.1864 45.871 74.6193 37.3563C72.956 48.3753 77.7218 54.2746 86.0401 55.0534C94.9566 55.8882 99.8182 46.0379 98.9945 39.8606C98.3947 43.5336 95.9893 53.3839 86.6399 52.716Z" fill="#85621F"/>
<path fill-rule="evenodd" clip-rule="evenodd" d="M87.0416 50.5456C81.1047 50.4193 77.7213 46.4785 77.0244 40.9037C77.1868 42.2027 78.0885 44.3956 79.5659 46.3588C81.0328 48.3079 83.4026 49.9637 87.2157 50.0448C91.645 50.139 96.391 45.2031 96.558 40.1945C96.7249 45.537 92.7279 50.6666 87.0416 50.5456Z" fill="#FFEDBD"/>
<path d="M121.267 66.2393C120.711 66.5175 119.564 67.7752 119.431 69.2444C119.598 68.9105 119.932 68.7436 121.267 67.5749V66.2393Z" fill="#FACFA9"/>
</g>
<defs>
<filter id="filter0_d_13325_79176" x="69.8447" y="68.0757" width="32.3887" height="19.0328" filterUnits="userSpaceOnUse" color-interpolation-filters="sRGB">
<feFlood flood-opacity="0" result="BackgroundImageFix"/>
<feColorMatrix in="SourceAlpha" type="matrix" values="0 0 0 0 0 0 0 0 0 0 0 0 0 0 0 0 0 0 127 0" result="hardAlpha"/>
<feOffset dy="3.00516"/>
<feComposite in2="hardAlpha" operator="out"/>
<feColorMatrix type="matrix" values="0 0 0 0 0.170625 0 0 0 0 0.603744 0 0 0 0 0.65 0 0 0 1 0"/>
<feBlend mode="normal" in2="BackgroundImageFix" result="effect1_dropShadow_13325_79176"/>
<feBlend mode="normal" in="SourceGraphic" in2="effect1_dropShadow_13325_79176" result="shape"/>
</filter>
<linearGradient id="paint0_linear_13325_79176" x1="36.6553" y1="49.2138" x2="6.17807" y2="80.308" gradientUnits="userSpaceOnUse">
<stop stop-color="white"/>
<stop offset="1" stop-color="#FFE9D5"/>
</linearGradient>
<linearGradient id="paint1_linear_13325_79176" x1="147.196" y1="51.8466" x2="152.5" y2="87" gradientUnits="userSpaceOnUse">
<stop stop-color="white"/>
<stop offset="1" stop-color="#F0FCFF"/>
</linearGradient>
<linearGradient id="paint2_linear_13325_79176" x1="170.967" y1="49.8929" x2="157.311" y2="74.2138" gradientUnits="userSpaceOnUse">
<stop stop-color="#75C3CD"/>
<stop offset="1" stop-color="#056977"/>
</linearGradient>
<linearGradient id="paint3_linear_13325_79176" x1="170.967" y1="33.9318" x2="157.311" y2="58.2527" gradientUnits="userSpaceOnUse">
<stop stop-color="#75C3CD"/>
<stop offset="1" stop-color="#056977"/>
</linearGradient>
<linearGradient id="paint4_linear_13325_79176" x1="170.967" y1="13.9805" x2="157.311" y2="38.3014" gradientUnits="userSpaceOnUse">
<stop stop-color="#75C3CD"/>
<stop offset="1" stop-color="#056977"/>
</linearGradient>
<linearGradient id="paint5_linear_13325_79176" x1="-3.54708" y1="61.2733" x2="8.04935" y2="81.9263" gradientUnits="userSpaceOnUse">
<stop stop-color="#75C3CD"/>
<stop offset="1" stop-color="#056977"/>
</linearGradient>
<linearGradient id="paint6_linear_13325_79176" x1="-3.54727" y1="47.7193" x2="8.04916" y2="68.3724" gradientUnits="userSpaceOnUse">
<stop stop-color="#75C3CD"/>
<stop offset="1" stop-color="#056977"/>
</linearGradient>
<linearGradient id="paint7_linear_13325_79176" x1="-3.5474" y1="30.777" x2="8.04903" y2="51.43" gradientUnits="userSpaceOnUse">
<stop stop-color="#75C3CD"/>
<stop offset="1" stop-color="#056977"/>
</linearGradient>
</defs>
</svg>
