<svg width="375" height="170" viewBox="0 0 375 170" fill="none" xmlns="http://www.w3.org/2000/svg">
<g clip-path="url(#clip0_331_7931)">
<path d="M0 -3H375V167H0V-3Z" fill="url(#paint0_linear_331_7931)"/>
<path fill-rule="evenodd" clip-rule="evenodd" d="M255.15 166.303C256.985 164.71 259.602 162.643 263.753 160.932C267.903 159.222 273.575 157.872 281.519 157.692C285.461 157.603 289.344 157.066 293.096 156.46C294.005 156.314 294.907 156.163 295.8 156.014C298.589 155.547 301.294 155.095 303.87 154.826C310.672 154.115 316.674 154.666 321.123 159.663L320.75 159.995C316.469 155.187 310.684 154.616 303.922 155.323C301.363 155.591 298.679 156.039 295.894 156.505C294.998 156.655 294.092 156.806 293.176 156.954C289.418 157.56 285.507 158.102 281.531 158.192C273.638 158.37 268.029 159.711 263.944 161.395C259.861 163.078 257.29 165.107 255.478 166.68L255.15 166.303ZM235.469 166.906C237.44 163.73 241.307 158.848 246.515 154.496C251.722 150.145 258.287 146.309 265.654 145.256C274.833 143.944 281.123 145.349 287.084 146.978C287.667 147.138 288.247 147.299 288.826 147.46L288.826 147.46L288.827 147.46L288.827 147.461L288.828 147.461L288.828 147.461L288.829 147.461L288.832 147.462C294.162 148.946 299.413 150.408 306.501 150.056C308.475 149.959 310.28 149.836 311.938 149.722L312.106 149.711C313.697 149.601 315.153 149.501 316.489 149.442C319.251 149.318 321.525 149.365 323.451 149.868C325.389 150.374 326.968 151.34 328.342 153.036C329.71 154.723 330.87 157.126 331.991 160.494L331.517 160.652C330.403 157.306 329.267 154.97 327.954 153.351C326.648 151.74 325.162 150.832 323.325 150.352C321.476 149.869 319.267 149.818 316.512 149.941C315.182 150.001 313.731 150.1 312.137 150.21L311.972 150.221C310.314 150.335 308.505 150.458 306.525 150.556C299.353 150.911 294.029 149.428 288.7 147.944L288.699 147.944C288.118 147.782 287.536 147.62 286.952 147.461C281.021 145.84 274.806 144.452 265.724 145.751C258.482 146.786 252.001 150.563 246.836 154.88C241.671 159.196 237.838 164.037 235.894 167.169L235.469 166.906ZM205.503 160.224L205.503 160.224C202.737 163.527 200.497 166.203 198.777 167.822L199.12 168.186C200.864 166.545 203.132 163.835 205.905 160.523L205.905 160.523L205.905 160.523L205.905 160.523C206.767 159.492 207.678 158.404 208.637 157.272C212.689 152.488 217.616 146.894 223.401 141.498C234.975 130.704 249.961 120.727 268.21 119.61C277.975 119.339 287.911 122.243 296.627 125.592C300.6 127.119 304.314 128.736 307.642 130.184C307.964 130.324 308.282 130.463 308.597 130.6C312.158 132.148 315.249 133.468 317.68 134.207C327.357 137.146 342.738 139.387 353.451 136.71C356.111 136.046 358.367 135.592 360.141 135.491C361.929 135.389 363.149 135.652 363.819 136.331C364.475 136.997 364.681 138.152 364.208 140.059C363.737 141.954 362.612 144.517 360.725 147.907C356.947 153.554 354.845 157.304 354.262 158.483L354.71 158.705C355.28 157.553 357.371 153.819 361.147 148.176L361.152 148.168L361.157 148.159C363.053 144.754 364.206 142.142 364.693 140.179C365.178 138.226 365.021 136.839 364.175 135.98C363.342 135.135 361.921 134.889 360.112 134.991C358.289 135.095 355.994 135.56 353.329 136.225C342.744 138.87 327.465 136.657 317.826 133.728C315.428 133 312.365 131.692 308.796 130.141C308.482 130.004 308.163 129.866 307.841 129.725C304.514 128.277 300.79 126.656 296.806 125.125C288.069 121.768 278.058 118.836 268.192 119.11L268.184 119.11L268.184 119.11C249.765 120.237 234.671 130.304 223.06 141.132C217.253 146.548 212.311 152.16 208.256 156.948C207.287 158.093 206.369 159.189 205.503 160.223L205.503 160.224ZM225.118 149.16C218.258 155.86 211.629 162.931 207.619 167.399L207.991 167.733C211.995 163.272 218.617 156.208 225.468 149.518C232.325 142.821 239.391 136.518 244.289 133.561C256.545 126.162 276.572 122.625 294.027 131.097C302.805 135.357 309.292 137.925 315.174 139.347C321.061 140.771 326.331 141.044 332.674 140.73C337.248 140.503 341.439 139.867 345.013 139.324C345.528 139.246 346.031 139.17 346.519 139.097C348.462 138.807 350.187 138.573 351.661 138.485C353.138 138.397 354.337 138.458 355.239 138.744C356.127 139.025 356.714 139.519 357.006 140.308C357.306 141.115 357.311 142.268 356.935 143.888C356.185 147.128 353.951 152.09 349.88 159.545L350.319 159.784C354.388 152.333 356.654 147.315 357.422 144.001C357.806 142.345 357.825 141.077 357.475 140.134C357.119 139.172 356.393 138.585 355.39 138.267C354.399 137.953 353.125 137.897 351.631 137.986C350.133 138.075 348.388 138.313 346.446 138.602C345.956 138.675 345.454 138.751 344.939 138.83L344.937 138.83L344.937 138.83L344.936 138.83L344.936 138.83C341.361 139.373 337.197 140.005 332.649 140.231C326.339 140.543 321.119 140.27 315.292 138.861C309.461 137.451 303.011 134.901 294.245 130.647C276.612 122.088 256.405 125.663 244.031 133.133C239.077 136.124 231.972 142.466 225.118 149.16ZM225.336 130.716C211.424 141.606 199.102 155.672 190.518 168.271L190.931 168.552C199.491 155.989 211.779 141.963 225.644 131.11C239.515 120.252 254.932 112.594 269.758 112.708C283.54 112.814 295.822 118.301 308.159 123.813L308.168 123.817C309.117 124.241 310.067 124.665 311.018 125.087C324.307 130.986 337.79 136.428 353.31 134.589C356.168 134.34 359.058 133.741 361.671 133.186L362.048 133.105C364.519 132.579 366.711 132.113 368.393 132.029C369.277 131.986 369.993 132.05 370.525 132.25C371.044 132.445 371.383 132.767 371.543 133.261C371.708 133.772 371.693 134.497 371.418 135.511C371.145 136.52 370.622 137.789 369.805 139.368C365.641 147.417 361.088 155.288 359.332 158.215L359.761 158.472C361.521 155.538 366.08 147.658 370.249 139.598C371.074 138.003 371.615 136.699 371.901 135.642C372.186 134.588 372.227 133.751 372.018 133.107C371.804 132.447 371.34 132.022 370.701 131.782C370.075 131.546 369.278 131.485 368.369 131.53C366.644 131.615 364.416 132.09 361.968 132.611L361.567 132.697C358.951 133.253 356.087 133.845 353.263 134.091L353.255 134.092L353.255 134.092C337.884 135.915 324.514 130.531 311.22 124.63C310.262 124.205 309.304 123.777 308.346 123.349C296.028 117.844 283.653 112.315 269.762 112.208C254.771 112.092 239.243 119.83 225.336 130.716ZM233.971 150.522C228.042 156.184 222.373 162.185 218.964 165.984L219.336 166.318C222.738 162.527 228.398 156.536 234.316 150.883C240.241 145.225 246.404 139.929 250.817 137.508C261.839 131.462 278.854 131.02 300.155 139.331C310.584 143.958 325.898 144.906 336.637 143.519C337.915 143.354 339.138 143.155 340.283 142.969L340.457 142.941C341.654 142.746 342.76 142.569 343.763 142.46C344.766 142.351 345.653 142.311 346.411 142.388C347.168 142.465 347.779 142.657 348.245 142.996C349.158 143.661 349.617 144.98 349.321 147.518C349.025 150.047 347.988 153.701 346.028 158.914L346.496 159.09C348.459 153.87 349.514 150.169 349.817 147.576C350.119 144.994 349.682 143.424 348.539 142.592C347.977 142.182 347.27 141.973 346.461 141.89C345.653 141.808 344.726 141.852 343.709 141.963C342.691 142.074 341.571 142.253 340.377 142.447L340.204 142.475C339.058 142.661 337.843 142.859 336.573 143.023C325.889 144.403 310.672 143.452 300.352 138.871L300.342 138.867L300.342 138.867C278.965 130.525 261.779 130.925 250.577 137.07C246.099 139.525 239.894 144.866 233.971 150.522ZM330.285 145.175C326.713 145.805 322.325 146.5 317.116 146.545C306.951 146.634 301.057 144.795 295.024 142.913L294.572 142.772C288.361 140.836 281.896 138.907 270.45 139.046C258.964 139.185 249.658 144.479 242.55 150.287C238.995 153.192 235.986 156.229 233.525 158.819C232.923 159.453 232.355 160.059 231.821 160.629L231.819 160.63L231.819 160.631L231.817 160.633L231.817 160.633C230.161 162.399 228.828 163.821 227.803 164.668L228.122 165.054C229.173 164.184 230.539 162.727 232.203 160.952C232.734 160.385 233.296 159.786 233.888 159.163C236.343 156.578 239.336 153.559 242.866 150.675C249.929 144.904 259.127 139.684 270.457 139.546C281.827 139.408 288.235 141.32 294.423 143.249L294.876 143.39C300.923 145.277 306.877 147.135 317.121 147.045C322.371 146.999 326.792 146.298 330.372 145.667C330.774 145.597 331.165 145.527 331.545 145.459L331.545 145.459L331.545 145.459C332.86 145.224 334.044 145.012 335.104 144.864C336.472 144.674 337.611 144.593 338.535 144.702C339.454 144.81 340.138 145.102 340.624 145.64C341.114 146.181 341.434 147.004 341.553 148.236C341.793 150.71 341.21 154.701 339.775 160.961L340.262 161.073C341.695 154.821 342.299 150.755 342.051 148.188C341.926 146.899 341.584 145.956 340.995 145.304C340.401 144.649 339.588 144.322 338.593 144.205C337.603 144.089 336.412 144.177 335.035 144.369C333.964 144.518 332.767 144.732 331.45 144.968L331.449 144.968L331.439 144.97C331.064 145.037 330.679 145.106 330.285 145.175ZM248.178 164.181L248.178 164.181L248.178 164.182C247.915 164.651 247.675 165.082 247.445 165.462L247.872 165.721C248.111 165.327 248.359 164.885 248.626 164.407C250.018 161.92 251.948 158.471 256.02 155.795C260.865 152.611 268.777 150.509 282.478 152.595C293.425 154.262 300.847 153.336 306.548 152.624L306.548 152.624C308.022 152.44 309.381 152.271 310.656 152.164C313.757 151.904 316.349 152.016 318.916 153.167C321.488 154.32 324.065 156.527 327.105 160.518L327.503 160.215C324.438 156.191 321.799 153.911 319.121 152.711C316.44 151.509 313.749 151.403 310.614 151.666C309.321 151.774 307.949 151.945 306.467 152.13C300.768 152.841 293.425 153.756 282.553 152.101C268.778 150.003 260.727 152.103 255.745 155.378C251.562 158.127 249.568 161.695 248.178 164.181ZM364.375 158.001C364.375 158.001 364.375 158.001 364.608 158.092C364.84 158.183 364.84 158.183 364.841 158.183L364.841 158.182L364.843 158.177L364.85 158.159L364.878 158.087L364.989 157.806C365.086 157.558 365.229 157.195 365.414 156.729C365.783 155.797 366.316 154.456 366.973 152.82C368.286 149.547 370.094 145.095 372.073 140.376C376.034 130.926 380.664 120.436 383.375 116.174L382.953 115.906C380.214 120.212 375.566 130.748 371.611 140.182C369.632 144.905 367.823 149.36 366.509 152.633C365.851 154.27 365.318 155.612 364.949 156.545C364.764 157.011 364.621 157.375 364.523 157.623L364.413 157.905L364.384 157.977L364.377 157.995L364.375 158L364.375 158.001ZM369.704 157.315C371.197 153.252 373.969 146.605 376.671 140.703C378.022 137.752 379.357 134.984 380.507 132.816C381.082 131.733 381.613 130.796 382.077 130.061C382.537 129.333 382.945 128.78 383.277 128.484L383.61 128.857C383.335 129.102 382.959 129.601 382.5 130.328C382.045 131.049 381.521 131.973 380.949 133.051C379.805 135.206 378.474 137.965 377.125 140.911C374.427 146.805 371.661 153.44 370.173 157.487L369.704 157.315ZM375.734 157.03C376.733 153.709 378.321 148.615 379.839 144.129C380.598 141.886 381.34 139.792 381.983 138.147C382.304 137.324 382.601 136.611 382.865 136.046C383.125 135.488 383.361 135.054 383.561 134.805L383.95 135.119C383.792 135.315 383.578 135.699 383.318 136.257C383.061 136.809 382.768 137.511 382.448 138.329C381.809 139.964 381.07 142.049 380.312 144.289C378.797 148.768 377.211 153.856 376.213 157.174L375.734 157.03ZM380.786 156.83C380.986 154.47 381.376 150.798 381.893 147.449C382.152 145.775 382.443 144.177 382.759 142.863C383.072 141.561 383.418 140.501 383.801 139.929L384.216 140.208C383.89 140.695 383.56 141.673 383.245 142.98C382.934 144.275 382.645 145.857 382.387 147.525C381.872 150.86 381.484 154.52 381.284 156.872L380.786 156.83ZM182.68 167.026L182.246 167.737L182.672 167.998L183.1 167.297C189.163 157.371 199.888 139.809 216.756 126.412C234.016 112.703 257.706 103.354 289.43 111.042C300.56 114.182 309.579 117.963 317.669 121.356C319.959 122.316 322.175 123.245 324.343 124.12C334.167 128.082 343.014 130.924 353.326 130.413C364.655 129.852 370.856 126.299 374.93 122.214C376.48 120.659 377.719 119.031 378.811 117.475C380.534 115.739 382.178 113.73 383.724 111.419L383.473 111.251C383.536 111.19 383.601 111.13 383.665 111.07L383.327 110.702C381.968 111.948 380.819 113.642 379.571 115.482L379.571 115.483L379.373 115.774C379.066 116.226 378.752 116.687 378.425 117.153C372.571 123.034 365.801 125.697 358.841 126.231C349.832 126.923 340.483 124.049 332.369 119.919C293.136 99.9497 255.46 99.9722 227.78 112.042C212.433 118.734 200.543 131.415 192.099 143.314C183.652 155.217 178.639 166.359 177.053 170L177.512 170.2C179.091 166.572 184.089 155.465 192.506 143.604C200.926 131.739 212.752 119.141 227.98 112.501C255.506 100.498 293.026 100.454 332.142 120.365C340.301 124.518 349.745 127.431 358.879 126.73C365.186 126.246 371.335 124.039 376.801 119.345C376.13 120.192 375.397 121.037 374.576 121.861C370.599 125.849 364.519 129.358 353.302 129.914C343.102 130.419 334.338 127.612 324.53 123.656C322.372 122.785 320.162 121.859 317.877 120.901C309.782 117.506 300.726 113.709 289.561 110.559L289.552 110.557L289.552 110.557C257.653 102.825 233.806 112.231 216.445 126.02C199.507 139.473 188.742 157.1 182.68 167.026ZM382.547 112.244C382.026 112.857 381.522 113.537 381.01 114.268C381.532 113.623 382.044 112.949 382.547 112.244Z" fill="url(#paint1_linear_331_7931)"/>
<g filter="url(#filter0_d_331_7931)">
<path d="M-1 0H375C214 0 64.5 18 -1 38V0Z" fill="white"/>
</g>
<path d="M-2.5 38.0004C38 26.5004 171 -2.49942 375.5 0.500506" stroke="url(#paint2_linear_331_7931)" stroke-width="2"/>
<g filter="url(#filter1_f_331_7931)">
<circle cx="27.5" cy="53.5" r="1.5" fill="white"/>
</g>
<circle cx="114.5" cy="129.5" r="1.5" fill="#DCC1A1"/>
<circle cx="324.5" cy="29.5" r="1.5" fill="#FFEFDC"/>
<circle opacity="0.6" cx="248" cy="81" r="1" fill="#DCC1A1"/>
<circle cx="262.5" cy="146.5" r="1.5" fill="#DCC1A1"/>
<g filter="url(#filter2_f_331_7931)">
<circle cx="73.5" cy="87.5" r="1.5" fill="#DCC1A1"/>
</g>
<circle opacity="0.6" cx="88" cy="33" r="1" fill="#DCC1A1"/>
<circle opacity="0.2" cx="348" cy="70" r="1" fill="#FFF1E1"/>
<g filter="url(#filter3_f_331_7931)">
<circle cx="309.5" cy="94.5" r="1.5" fill="#FFF1E1"/>
</g>
<circle opacity="0.3" cx="198" cy="38" r="1" fill="#FFF1E1"/>
<rect y="123" width="375" height="48" fill="url(#paint3_linear_331_7931)"/>
</g>
<defs>
<filter id="filter0_d_331_7931" x="-7" y="-2" width="388" height="50" filterUnits="userSpaceOnUse" color-interpolation-filters="sRGB">
<feFlood flood-opacity="0" result="BackgroundImageFix"/>
<feColorMatrix in="SourceAlpha" type="matrix" values="0 0 0 0 0 0 0 0 0 0 0 0 0 0 0 0 0 0 127 0" result="hardAlpha"/>
<feOffset dy="4"/>
<feGaussianBlur stdDeviation="3"/>
<feComposite in2="hardAlpha" operator="out"/>
<feColorMatrix type="matrix" values="0 0 0 0 0.579167 0 0 0 0 0.459393 0 0 0 0 0.212361 0 0 0 0.39 0"/>
<feBlend mode="normal" in2="BackgroundImageFix" result="effect1_dropShadow_331_7931"/>
<feBlend mode="normal" in="SourceGraphic" in2="effect1_dropShadow_331_7931" result="shape"/>
</filter>
<filter id="filter1_f_331_7931" x="24" y="50" width="7" height="7" filterUnits="userSpaceOnUse" color-interpolation-filters="sRGB">
<feFlood flood-opacity="0" result="BackgroundImageFix"/>
<feBlend mode="normal" in="SourceGraphic" in2="BackgroundImageFix" result="shape"/>
<feGaussianBlur stdDeviation="1" result="effect1_foregroundBlur_331_7931"/>
</filter>
<filter id="filter2_f_331_7931" x="69" y="83" width="9" height="9" filterUnits="userSpaceOnUse" color-interpolation-filters="sRGB">
<feFlood flood-opacity="0" result="BackgroundImageFix"/>
<feBlend mode="normal" in="SourceGraphic" in2="BackgroundImageFix" result="shape"/>
<feGaussianBlur stdDeviation="1.5" result="effect1_foregroundBlur_331_7931"/>
</filter>
<filter id="filter3_f_331_7931" x="305" y="90" width="9" height="9" filterUnits="userSpaceOnUse" color-interpolation-filters="sRGB">
<feFlood flood-opacity="0" result="BackgroundImageFix"/>
<feBlend mode="normal" in="SourceGraphic" in2="BackgroundImageFix" result="shape"/>
<feGaussianBlur stdDeviation="1.5" result="effect1_foregroundBlur_331_7931"/>
</filter>
<linearGradient id="paint0_linear_331_7931" x1="345.085" y1="-11.7554" x2="152.341" y2="232.378" gradientUnits="userSpaceOnUse">
<stop stop-color="#E8D695"/>
<stop offset="1" stop-color="#B18B48"/>
</linearGradient>
<linearGradient id="paint1_linear_331_7931" x1="182.5" y1="139.5" x2="393.057" y2="143.528" gradientUnits="userSpaceOnUse">
<stop stop-color="#FFECC8"/>
<stop offset="1" stop-color="#F2D986"/>
</linearGradient>
<linearGradient id="paint2_linear_331_7931" x1="16.5" y1="35.0004" x2="364.5" y2="5.00034" gradientUnits="userSpaceOnUse">
<stop stop-color="#CF9221"/>
<stop offset="0.547089" stop-color="#FFF8B7"/>
<stop offset="1" stop-color="white"/>
</linearGradient>
<linearGradient id="paint3_linear_331_7931" x1="187.5" y1="123" x2="187.5" y2="171" gradientUnits="userSpaceOnUse">
<stop stop-color="#BC9948" stop-opacity="0"/>
<stop offset="1" stop-color="#866B2D"/>
</linearGradient>
<clipPath id="clip0_331_7931">
<rect width="375" height="170" fill="white"/>
</clipPath>
</defs>
</svg>
